<?xml version="1.0" encoding="UTF-8" standalone="no"?>
<!-- Morteza Hosseini, IEETA 2018-2019 -->
<svg xmlns="http://www.w3.org/2000/svg" xmlns:xlink="http://www.w3.org/1999/xlink" viewBox="0 0 605.000000 280.000000" >
<rect x="0" y="0" width="605" height="280" rx="1" ry="1" fill="white" fill-opacity="0.9" stroke="white" stroke-width="0" />
<line id="20.00000039.000000520.64001539.000000" x1="20" y1="39" x2="520.64" y2="39" stroke-width="1.28" stroke="black" />
<text id="20.00000032.000000" x="20" y="32" dominant-baseline="" baseline-shift="" alignment-baseline="" font-size="10px" font-weight="bold" font-family="Helvetica,Arial" font-variant="normal" text-anchor="start" text-align="start" line-height="125%%" >
bp</text>
<line id="20.63999939.00000020.63999949.000000" x1="20.64" y1="39" x2="20.64" y2="49" stroke-width="1.28" stroke="black" />
<line id="32.50000039.00000032.50000045.000000" x1="32.5" y1="39" x2="32.5" y2="45" stroke-width="0.8" stroke="black" />
<line id="45.00000039.00000045.00000045.000000" x1="45" y1="39" x2="45" y2="45" stroke-width="0.8" stroke="black" />
<line id="57.50000039.00000057.50000045.000000" x1="57.5" y1="39" x2="57.5" y2="45" stroke-width="0.8" stroke="black" />
<line id="70.00000039.00000070.00000049.000000" x1="70" y1="39" x2="70" y2="49" stroke-width="1.28" stroke="black" />
<text id="70.00000032.000000" x="70" y="32" dominant-baseline="" baseline-shift="" alignment-baseline="" font-size="9px" font-weight="normal" font-family="Helvetica,Arial" font-variant="normal" text-anchor="middle" text-align="start" line-height="125%%" >
100 </text>
<line id="82.50000039.00000082.50000045.000000" x1="82.5" y1="39" x2="82.5" y2="45" stroke-width="0.8" stroke="black" />
<line id="95.00000039.00000095.00000045.000000" x1="95" y1="39" x2="95" y2="45" stroke-width="0.8" stroke="black" />
<line id="107.50000039.000000107.50000045.000000" x1="107.5" y1="39" x2="107.5" y2="45" stroke-width="0.8" stroke="black" />
<line id="120.00000039.000000120.00000049.000000" x1="120" y1="39" x2="120" y2="49" stroke-width="1.28" stroke="black" />
<text id="120.00000032.000000" x="120" y="32" dominant-baseline="" baseline-shift="" alignment-baseline="" font-size="9px" font-weight="normal" font-family="Helvetica,Arial" font-variant="normal" text-anchor="middle" text-align="start" line-height="125%%" >
200 </text>
<line id="132.50000039.000000132.50000045.000000" x1="132.5" y1="39" x2="132.5" y2="45" stroke-width="0.8" stroke="black" />
<line id="145.00000039.000000145.00000045.000000" x1="145" y1="39" x2="145" y2="45" stroke-width="0.8" stroke="black" />
<line id="157.50000039.000000157.50000045.000000" x1="157.5" y1="39" x2="157.5" y2="45" stroke-width="0.8" stroke="black" />
<line id="170.00000039.000000170.00000049.000000" x1="170" y1="39" x2="170" y2="49" stroke-width="1.28" stroke="black" />
<text id="170.00000032.000000" x="170" y="32" dominant-baseline="" baseline-shift="" alignment-baseline="" font-size="9px" font-weight="normal" font-family="Helvetica,Arial" font-variant="normal" text-anchor="middle" text-align="start" line-height="125%%" >
300 </text>
<line id="182.50000039.000000182.50000045.000000" x1="182.5" y1="39" x2="182.5" y2="45" stroke-width="0.8" stroke="black" />
<line id="195.00000039.000000195.00000045.000000" x1="195" y1="39" x2="195" y2="45" stroke-width="0.8" stroke="black" />
<line id="207.50000039.000000207.50000045.000000" x1="207.5" y1="39" x2="207.5" y2="45" stroke-width="0.8" stroke="black" />
<line id="220.00000039.000000220.00000049.000000" x1="220" y1="39" x2="220" y2="49" stroke-width="1.28" stroke="black" />
<text id="220.00000032.000000" x="220" y="32" dominant-baseline="" baseline-shift="" alignment-baseline="" font-size="9px" font-weight="normal" font-family="Helvetica,Arial" font-variant="normal" text-anchor="middle" text-align="start" line-height="125%%" >
400 </text>
<line id="232.50000039.000000232.50000045.000000" x1="232.5" y1="39" x2="232.5" y2="45" stroke-width="0.8" stroke="black" />
<line id="245.00000039.000000245.00000045.000000" x1="245" y1="39" x2="245" y2="45" stroke-width="0.8" stroke="black" />
<line id="257.50000039.000000257.50000045.000000" x1="257.5" y1="39" x2="257.5" y2="45" stroke-width="0.8" stroke="black" />
<line id="270.00000039.000000270.00000049.000000" x1="270" y1="39" x2="270" y2="49" stroke-width="1.28" stroke="black" />
<text id="270.00000032.000000" x="270" y="32" dominant-baseline="" baseline-shift="" alignment-baseline="" font-size="9px" font-weight="normal" font-family="Helvetica,Arial" font-variant="normal" text-anchor="middle" text-align="start" line-height="125%%" >
500 </text>
<line id="282.50000039.000000282.50000045.000000" x1="282.5" y1="39" x2="282.5" y2="45" stroke-width="0.8" stroke="black" />
<line id="295.00000039.000000295.00000045.000000" x1="295" y1="39" x2="295" y2="45" stroke-width="0.8" stroke="black" />
<line id="307.50000039.000000307.50000045.000000" x1="307.5" y1="39" x2="307.5" y2="45" stroke-width="0.8" stroke="black" />
<line id="320.00000039.000000320.00000049.000000" x1="320" y1="39" x2="320" y2="49" stroke-width="1.28" stroke="black" />
<text id="320.00000032.000000" x="320" y="32" dominant-baseline="" baseline-shift="" alignment-baseline="" font-size="9px" font-weight="normal" font-family="Helvetica,Arial" font-variant="normal" text-anchor="middle" text-align="start" line-height="125%%" >
600 </text>
<line id="332.50000039.000000332.50000045.000000" x1="332.5" y1="39" x2="332.5" y2="45" stroke-width="0.8" stroke="black" />
<line id="345.00000039.000000345.00000045.000000" x1="345" y1="39" x2="345" y2="45" stroke-width="0.8" stroke="black" />
<line id="357.50000039.000000357.50000045.000000" x1="357.5" y1="39" x2="357.5" y2="45" stroke-width="0.8" stroke="black" />
<line id="370.00000039.000000370.00000049.000000" x1="370" y1="39" x2="370" y2="49" stroke-width="1.28" stroke="black" />
<text id="370.00000032.000000" x="370" y="32" dominant-baseline="" baseline-shift="" alignment-baseline="" font-size="9px" font-weight="normal" font-family="Helvetica,Arial" font-variant="normal" text-anchor="middle" text-align="start" line-height="125%%" >
700 </text>
<line id="382.50000039.000000382.50000045.000000" x1="382.5" y1="39" x2="382.5" y2="45" stroke-width="0.8" stroke="black" />
<line id="395.00000039.000000395.00000045.000000" x1="395" y1="39" x2="395" y2="45" stroke-width="0.8" stroke="black" />
<line id="407.50000039.000000407.50000045.000000" x1="407.5" y1="39" x2="407.5" y2="45" stroke-width="0.8" stroke="black" />
<line id="420.00000039.000000420.00000049.000000" x1="420" y1="39" x2="420" y2="49" stroke-width="1.28" stroke="black" />
<text id="420.00000032.000000" x="420" y="32" dominant-baseline="" baseline-shift="" alignment-baseline="" font-size="9px" font-weight="normal" font-family="Helvetica,Arial" font-variant="normal" text-anchor="middle" text-align="start" line-height="125%%" >
800 </text>
<line id="432.50000039.000000432.50000045.000000" x1="432.5" y1="39" x2="432.5" y2="45" stroke-width="0.8" stroke="black" />
<line id="445.00000039.000000445.00000045.000000" x1="445" y1="39" x2="445" y2="45" stroke-width="0.8" stroke="black" />
<line id="457.50000039.000000457.50000045.000000" x1="457.5" y1="39" x2="457.5" y2="45" stroke-width="0.8" stroke="black" />
<line id="470.00000039.000000470.00000049.000000" x1="470" y1="39" x2="470" y2="49" stroke-width="1.28" stroke="black" />
<text id="470.00000032.000000" x="470" y="32" dominant-baseline="" baseline-shift="" alignment-baseline="" font-size="9px" font-weight="normal" font-family="Helvetica,Arial" font-variant="normal" text-anchor="middle" text-align="start" line-height="125%%" >
900 </text>
<line id="482.50000039.000000482.50000045.000000" x1="482.5" y1="39" x2="482.5" y2="45" stroke-width="0.8" stroke="black" />
<line id="495.00000039.000000495.00000045.000000" x1="495" y1="39" x2="495" y2="45" stroke-width="0.8" stroke="black" />
<line id="507.50000039.000000507.50000045.000000" x1="507.5" y1="39" x2="507.5" y2="45" stroke-width="0.8" stroke="black" />
<line id="520.00000039.000000520.00000049.000000" x1="520" y1="39" x2="520" y2="49" stroke-width="1.28" stroke="black" />
<text id="520.00000032.000000" x="520" y="32" dominant-baseline="" baseline-shift="" alignment-baseline="" font-size="9px" font-weight="normal" font-family="Helvetica,Arial" font-variant="normal" text-anchor="middle" text-align="start" line-height="125%%" >
1 K</text>
<line id="20.000000241.000000520.640015241.000000" x1="20" y1="241" x2="520.64" y2="241" stroke-width="1.28" stroke="black" />
<text id="20.000000254.300003" x="20" y="254.3" dominant-baseline="" baseline-shift="" alignment-baseline="" font-size="10px" font-weight="bold" font-family="Helvetica,Arial" font-variant="normal" text-anchor="start" text-align="start" line-height="125%%" >
bp</text>
<line id="20.639999241.00000020.639999231.000000" x1="20.64" y1="241" x2="20.64" y2="231" stroke-width="1.28" stroke="black" />
<line id="32.500000241.00000032.500000235.000000" x1="32.5" y1="241" x2="32.5" y2="235" stroke-width="0.8" stroke="black" />
<line id="45.000000241.00000045.000000235.000000" x1="45" y1="241" x2="45" y2="235" stroke-width="0.8" stroke="black" />
<line id="57.500000241.00000057.500000235.000000" x1="57.5" y1="241" x2="57.5" y2="235" stroke-width="0.8" stroke="black" />
<line id="70.000000241.00000070.000000231.000000" x1="70" y1="241" x2="70" y2="231" stroke-width="1.28" stroke="black" />
<text id="70.000000254.300003" x="70" y="254.3" dominant-baseline="" baseline-shift="" alignment-baseline="" font-size="9px" font-weight="normal" font-family="Helvetica,Arial" font-variant="normal" text-anchor="middle" text-align="start" line-height="125%%" >
100 </text>
<line id="82.500000241.00000082.500000235.000000" x1="82.5" y1="241" x2="82.5" y2="235" stroke-width="0.8" stroke="black" />
<line id="95.000000241.00000095.000000235.000000" x1="95" y1="241" x2="95" y2="235" stroke-width="0.8" stroke="black" />
<line id="107.500000241.000000107.500000235.000000" x1="107.5" y1="241" x2="107.5" y2="235" stroke-width="0.8" stroke="black" />
<line id="120.000000241.000000120.000000231.000000" x1="120" y1="241" x2="120" y2="231" stroke-width="1.28" stroke="black" />
<text id="120.000000254.300003" x="120" y="254.3" dominant-baseline="" baseline-shift="" alignment-baseline="" font-size="9px" font-weight="normal" font-family="Helvetica,Arial" font-variant="normal" text-anchor="middle" text-align="start" line-height="125%%" >
200 </text>
<line id="132.500000241.000000132.500000235.000000" x1="132.5" y1="241" x2="132.5" y2="235" stroke-width="0.8" stroke="black" />
<line id="145.000000241.000000145.000000235.000000" x1="145" y1="241" x2="145" y2="235" stroke-width="0.8" stroke="black" />
<line id="157.500000241.000000157.500000235.000000" x1="157.5" y1="241" x2="157.5" y2="235" stroke-width="0.8" stroke="black" />
<line id="170.000000241.000000170.000000231.000000" x1="170" y1="241" x2="170" y2="231" stroke-width="1.28" stroke="black" />
<text id="170.000000254.300003" x="170" y="254.3" dominant-baseline="" baseline-shift="" alignment-baseline="" font-size="9px" font-weight="normal" font-family="Helvetica,Arial" font-variant="normal" text-anchor="middle" text-align="start" line-height="125%%" >
300 </text>
<line id="182.500000241.000000182.500000235.000000" x1="182.5" y1="241" x2="182.5" y2="235" stroke-width="0.8" stroke="black" />
<line id="195.000000241.000000195.000000235.000000" x1="195" y1="241" x2="195" y2="235" stroke-width="0.8" stroke="black" />
<line id="207.500000241.000000207.500000235.000000" x1="207.5" y1="241" x2="207.5" y2="235" stroke-width="0.8" stroke="black" />
<line id="220.000000241.000000220.000000231.000000" x1="220" y1="241" x2="220" y2="231" stroke-width="1.28" stroke="black" />
<text id="220.000000254.300003" x="220" y="254.3" dominant-baseline="" baseline-shift="" alignment-baseline="" font-size="9px" font-weight="normal" font-family="Helvetica,Arial" font-variant="normal" text-anchor="middle" text-align="start" line-height="125%%" >
400 </text>
<line id="232.500000241.000000232.500000235.000000" x1="232.5" y1="241" x2="232.5" y2="235" stroke-width="0.8" stroke="black" />
<line id="245.000000241.000000245.000000235.000000" x1="245" y1="241" x2="245" y2="235" stroke-width="0.8" stroke="black" />
<line id="257.500000241.000000257.500000235.000000" x1="257.5" y1="241" x2="257.5" y2="235" stroke-width="0.8" stroke="black" />
<line id="270.000000241.000000270.000000231.000000" x1="270" y1="241" x2="270" y2="231" stroke-width="1.28" stroke="black" />
<text id="270.000000254.300003" x="270" y="254.3" dominant-baseline="" baseline-shift="" alignment-baseline="" font-size="9px" font-weight="normal" font-family="Helvetica,Arial" font-variant="normal" text-anchor="middle" text-align="start" line-height="125%%" >
500 </text>
<line id="282.500000241.000000282.500000235.000000" x1="282.5" y1="241" x2="282.5" y2="235" stroke-width="0.8" stroke="black" />
<line id="295.000000241.000000295.000000235.000000" x1="295" y1="241" x2="295" y2="235" stroke-width="0.8" stroke="black" />
<line id="307.500000241.000000307.500000235.000000" x1="307.5" y1="241" x2="307.5" y2="235" stroke-width="0.8" stroke="black" />
<line id="320.000000241.000000320.000000231.000000" x1="320" y1="241" x2="320" y2="231" stroke-width="1.28" stroke="black" />
<text id="320.000000254.300003" x="320" y="254.3" dominant-baseline="" baseline-shift="" alignment-baseline="" font-size="9px" font-weight="normal" font-family="Helvetica,Arial" font-variant="normal" text-anchor="middle" text-align="start" line-height="125%%" >
600 </text>
<line id="332.500000241.000000332.500000235.000000" x1="332.5" y1="241" x2="332.5" y2="235" stroke-width="0.8" stroke="black" />
<line id="345.000000241.000000345.000000235.000000" x1="345" y1="241" x2="345" y2="235" stroke-width="0.8" stroke="black" />
<line id="357.500000241.000000357.500000235.000000" x1="357.5" y1="241" x2="357.5" y2="235" stroke-width="0.8" stroke="black" />
<line id="370.000000241.000000370.000000231.000000" x1="370" y1="241" x2="370" y2="231" stroke-width="1.28" stroke="black" />
<text id="370.000000254.300003" x="370" y="254.3" dominant-baseline="" baseline-shift="" alignment-baseline="" font-size="9px" font-weight="normal" font-family="Helvetica,Arial" font-variant="normal" text-anchor="middle" text-align="start" line-height="125%%" >
700 </text>
<line id="382.500000241.000000382.500000235.000000" x1="382.5" y1="241" x2="382.5" y2="235" stroke-width="0.8" stroke="black" />
<line id="395.000000241.000000395.000000235.000000" x1="395" y1="241" x2="395" y2="235" stroke-width="0.8" stroke="black" />
<line id="407.500000241.000000407.500000235.000000" x1="407.5" y1="241" x2="407.5" y2="235" stroke-width="0.8" stroke="black" />
<line id="420.000000241.000000420.000000231.000000" x1="420" y1="241" x2="420" y2="231" stroke-width="1.28" stroke="black" />
<text id="420.000000254.300003" x="420" y="254.3" dominant-baseline="" baseline-shift="" alignment-baseline="" font-size="9px" font-weight="normal" font-family="Helvetica,Arial" font-variant="normal" text-anchor="middle" text-align="start" line-height="125%%" >
800 </text>
<line id="432.500000241.000000432.500000235.000000" x1="432.5" y1="241" x2="432.5" y2="235" stroke-width="0.8" stroke="black" />
<line id="445.000000241.000000445.000000235.000000" x1="445" y1="241" x2="445" y2="235" stroke-width="0.8" stroke="black" />
<line id="457.500000241.000000457.500000235.000000" x1="457.5" y1="241" x2="457.5" y2="235" stroke-width="0.8" stroke="black" />
<line id="470.000000241.000000470.000000231.000000" x1="470" y1="241" x2="470" y2="231" stroke-width="1.28" stroke="black" />
<text id="470.000000254.300003" x="470" y="254.3" dominant-baseline="" baseline-shift="" alignment-baseline="" font-size="9px" font-weight="normal" font-family="Helvetica,Arial" font-variant="normal" text-anchor="middle" text-align="start" line-height="125%%" >
900 </text>
<line id="482.500000241.000000482.500000235.000000" x1="482.5" y1="241" x2="482.5" y2="235" stroke-width="0.8" stroke="black" />
<line id="495.000000241.000000495.000000235.000000" x1="495" y1="241" x2="495" y2="235" stroke-width="0.8" stroke="black" />
<line id="507.500000241.000000507.500000235.000000" x1="507.5" y1="241" x2="507.5" y2="235" stroke-width="0.8" stroke="black" />
<line id="520.000000241.000000520.000000231.000000" x1="520" y1="241" x2="520" y2="231" stroke-width="1.28" stroke="black" />
<text id="520.000000254.300003" x="520" y="254.3" dominant-baseline="" baseline-shift="" alignment-baseline="" font-size="9px" font-weight="normal" font-family="Helvetica,Arial" font-variant="normal" text-anchor="middle" text-align="start" line-height="125%%" >
1 K</text>
<defs id="" >
<linearGradient id="grad397.000000115.000000" x1="0%" y1="0%" x2="100%" y2="0%" >
<stop offset="30%" stop-color="#2C7778" stop-opacity="1" />
<stop offset="100%" stop-color="#3B9FA0" stop-opacity="1" />
</linearGradient>
</defs>
<path id="397.000000115.000000" d="M 397,115
v 122.5
a 7.5,2 0 0,0 15,0
v -122.5
a 7.5,2 0 0,0 -15,0
z
" fill="url(#grad397.000000115.000000)" fill-opacity="1" stroke="#1D4F50" stroke-opacity="1" stroke-linejoin="round" stroke-width="0.75" transform="rotate(-90 397.000000 115.000000)" />
<ellipse cx="404.5" cy="115" rx="7.68" ry="2" stroke-width="0.3" fill-opacity="1" stroke-opacity="1" stroke="#1D4F50" fill="url(#grad397.000000115.000000)" transform="rotate(-90 397.000000 115.000000)" />
<ellipse cx="404.5" cy="237.5" rx="7.68" ry="2" stroke-width="0.3" fill-opacity="1" stroke-opacity="1" stroke="#1D4F50" fill="url(#grad397.000000115.000000)" transform="rotate(-90 397.000000 115.000000)" />
<defs id="" >
<linearGradient id="grad397.000000115.000000NRC" x1="0%" y1="0%" x2="100%" y2="0%" >
<stop offset="30%" stop-color="#3333CC" stop-opacity="1" />
<stop offset="100%" stop-color="#0000ff" stop-opacity="1" />
</linearGradient>
</defs>
<path id="434.000000115.000000" d="M 434,115
v 122.5
a 2.5,1 0 0,0 5,0
v -122.5
a 2.5,1 0 0,0 -5,0
z
" fill="url(#grad397.000000115.000000NRC)" fill-opacity="1" stroke="#00A" stroke-opacity="1" stroke-linejoin="round" stroke-width="1.4" transform="rotate(-90 397.000000 115.000000)" />
<ellipse cx="436.5" cy="115" rx="2.836" ry="1" stroke-width="0.56" fill-opacity="1" stroke-opacity="1" stroke="#00A" fill="url(#grad397.000000115.000000NRC)" transform="rotate(-90 397.000000 115.000000)" />
<ellipse cx="436.5" cy="237.5" rx="2.836" ry="1" stroke-width="0.56" fill-opacity="1" stroke-opacity="1" stroke="#00A" fill="url(#grad397.000000115.000000NRC)" transform="rotate(-90 397.000000 115.000000)" />
<defs id="" >
<linearGradient id="grad397.000000115.000000NRCRedun" x1="0%" y1="0%" x2="100%" y2="0%" >
<stop offset="30%" stop-color="#CC3333" stop-opacity="1" />
<stop offset="100%" stop-color="#ff0000" stop-opacity="1" />
</linearGradient>
</defs>
<path id="445.000000115.000000" d="M 445,115
v 122.5
a 2.5,1 0 0,0 5,0
v -122.5
a 2.5,1 0 0,0 -5,0
z
" fill="url(#grad397.000000115.000000NRCRedun)" fill-opacity="1" stroke="#C00" stroke-opacity="1" stroke-linejoin="round" stroke-width="1.4" transform="rotate(-90 397.000000 115.000000)" />
<ellipse cx="447.5" cy="115" rx="2.836" ry="1" stroke-width="0.56" fill-opacity="1" stroke-opacity="1" stroke="#C00" fill="url(#grad397.000000115.000000NRCRedun)" transform="rotate(-90 397.000000 115.000000)" />
<ellipse cx="447.5" cy="237.5" rx="2.836" ry="1" stroke-width="0.56" fill-opacity="1" stroke-opacity="1" stroke="#C00" fill="url(#grad397.000000115.000000NRCRedun)" transform="rotate(-90 397.000000 115.000000)" />
<defs id="" >
<linearGradient id="grad274.000000180.000000" x1="0%" y1="0%" x2="100%" y2="0%" >
<stop offset="30%" stop-color="#2C7778" stop-opacity="1" />
<stop offset="100%" stop-color="#3B9FA0" stop-opacity="1" />
</linearGradient>
</defs>
<path id="274.000000180.000000" d="M 274,180
v 119.5
a 7.5,2 0 0,0 15,0
v -119.5
a 7.5,2 0 0,0 -15,0
z
" fill="url(#grad274.000000180.000000)" fill-opacity="1" stroke="#1D4F50" stroke-opacity="1" stroke-linejoin="round" stroke-width="0.75" transform="rotate(-90 274.000000 180.000000)" />
<ellipse cx="281.5" cy="180" rx="7.68" ry="2" stroke-width="0.3" fill-opacity="1" stroke-opacity="1" stroke="#1D4F50" fill="url(#grad274.000000180.000000)" transform="rotate(-90 274.000000 180.000000)" />
<ellipse cx="281.5" cy="299.5" rx="7.68" ry="2" stroke-width="0.3" fill-opacity="1" stroke-opacity="1" stroke="#1D4F50" fill="url(#grad274.000000180.000000)" transform="rotate(-90 274.000000 180.000000)" />
<defs id="" >
<pattern id="Wavy274.000000180.000000" x="274" y="180" width="15" height="14" patternUnits="userSpaceOnUse" >
<path id="" d="m -2.1,11.9
l 9.6,-9.8
l 9.6,9.8
" fill="none" fill-opacity="0.9" stroke="#134" stroke-opacity="1" stroke-linejoin="round" stroke-width="4.2" />
</pattern>
</defs>
<path id="274.000000180.000000" d="M 274,180
v 119.5
a 7.5,2 0 0,0 15,0
v -119.5
a 7.5,2 0 0,0 -15,0
z
" fill="url(#Wavy274.000000180.000000)" fill-opacity="1" stroke="#1D4F50" stroke-opacity="1" stroke-linejoin="round" stroke-width="0.75" transform="rotate(-90 274.000000 180.000000)" />
<ellipse cx="281.5" cy="180" rx="7.68" ry="2" stroke-width="0.3" fill-opacity="1" stroke-opacity="1" stroke="#1D4F50" fill="url(#Wavy274.000000180.000000)" transform="rotate(-90 274.000000 180.000000)" />
<ellipse cx="281.5" cy="299.5" rx="7.68" ry="2" stroke-width="0.3" fill-opacity="1" stroke-opacity="1" stroke="#1D4F50" fill="url(#Wavy274.000000180.000000)" transform="rotate(-90 274.000000 180.000000)" />
<defs id="" >
<linearGradient id="grad274.000000180.000000NRC" x1="0%" y1="0%" x2="100%" y2="0%" >
<stop offset="30%" stop-color="#3333CC" stop-opacity="1" />
<stop offset="100%" stop-color="#0000ff" stop-opacity="1" />
</linearGradient>
</defs>
<path id="247.000000180.000000" d="M 247,180
v 119.5
a 2.5,1 0 0,0 5,0
v -119.5
a 2.5,1 0 0,0 -5,0
z
" fill="url(#grad274.000000180.000000NRC)" fill-opacity="1" stroke="#00A" stroke-opacity="1" stroke-linejoin="round" stroke-width="1.4" transform="rotate(-90 274.000000 180.000000)" />
<ellipse cx="249.5" cy="180" rx="2.836" ry="1" stroke-width="0.56" fill-opacity="1" stroke-opacity="1" stroke="#00A" fill="url(#grad274.000000180.000000NRC)" transform="rotate(-90 274.000000 180.000000)" />
<ellipse cx="249.5" cy="299.5" rx="2.836" ry="1" stroke-width="0.56" fill-opacity="1" stroke-opacity="1" stroke="#00A" fill="url(#grad274.000000180.000000NRC)" transform="rotate(-90 274.000000 180.000000)" />
<defs id="" >
<linearGradient id="grad274.000000180.000000NRCRedun" x1="0%" y1="0%" x2="100%" y2="0%" >
<stop offset="30%" stop-color="#CC3333" stop-opacity="1" />
<stop offset="100%" stop-color="#ff0000" stop-opacity="1" />
</linearGradient>
</defs>
<path id="236.000000180.000000" d="M 236,180
v 119.5
a 2.5,1 0 0,0 5,0
v -119.5
a 2.5,1 0 0,0 -5,0
z
" fill="url(#grad274.000000180.000000NRCRedun)" fill-opacity="1" stroke="#C00" stroke-opacity="1" stroke-linejoin="round" stroke-width="1.4" transform="rotate(-90 274.000000 180.000000)" />
<ellipse cx="238.5" cy="180" rx="2.836" ry="1" stroke-width="0.56" fill-opacity="1" stroke-opacity="1" stroke="#C00" fill="url(#grad274.000000180.000000NRCRedun)" transform="rotate(-90 274.000000 180.000000)" />
<ellipse cx="238.5" cy="299.5" rx="2.836" ry="1" stroke-width="0.56" fill-opacity="1" stroke-opacity="1" stroke="#C00" fill="url(#grad274.000000180.000000NRCRedun)" transform="rotate(-90 274.000000 180.000000)" />
<polygon points="397,115 519.5,115 274,165 393.5,165 " fill="#3B9FA0" stroke="#3B9FA0" stroke-width="1" stroke-opacity="0.5" fill-opacity="0.5" />
<defs id="" >
<linearGradient id="grad276.500000115.000000" x1="0%" y1="0%" x2="100%" y2="0%" >
<stop offset="30%" stop-color="#77782C" stop-opacity="1" />
<stop offset="100%" stop-color="#9FA03B" stop-opacity="1" />
</linearGradient>
</defs>
<path id="276.500000115.000000" d="M 276.5,115
v 121
a 7.5,2 0 0,0 15,0
v -121
a 7.5,2 0 0,0 -15,0
z
" fill="url(#grad276.500000115.000000)" fill-opacity="1" stroke="#4F501D" stroke-opacity="1" stroke-linejoin="round" stroke-width="0.75" transform="rotate(-90 276.500000 115.000000)" />
<ellipse cx="284" cy="115" rx="7.68" ry="2" stroke-width="0.3" fill-opacity="1" stroke-opacity="1" stroke="#4F501D" fill="url(#grad276.500000115.000000)" transform="rotate(-90 276.500000 115.000000)" />
<ellipse cx="284" cy="236" rx="7.68" ry="2" stroke-width="0.3" fill-opacity="1" stroke-opacity="1" stroke="#4F501D" fill="url(#grad276.500000115.000000)" transform="rotate(-90 276.500000 115.000000)" />
<defs id="" >
<linearGradient id="grad276.500000115.000000NRC" x1="0%" y1="0%" x2="100%" y2="0%" >
<stop offset="30%" stop-color="#3333CC" stop-opacity="1" />
<stop offset="100%" stop-color="#0000ff" stop-opacity="1" />
</linearGradient>
</defs>
<path id="313.500000115.000000" d="M 313.5,115
v 121
a 2.5,1 0 0,0 5,0
v -121
a 2.5,1 0 0,0 -5,0
z
" fill="url(#grad276.500000115.000000NRC)" fill-opacity="1" stroke="#00A" stroke-opacity="1" stroke-linejoin="round" stroke-width="1.4" transform="rotate(-90 276.500000 115.000000)" />
<ellipse cx="316" cy="115" rx="2.836" ry="1" stroke-width="0.56" fill-opacity="1" stroke-opacity="1" stroke="#00A" fill="url(#grad276.500000115.000000NRC)" transform="rotate(-90 276.500000 115.000000)" />
<ellipse cx="316" cy="236" rx="2.836" ry="1" stroke-width="0.56" fill-opacity="1" stroke-opacity="1" stroke="#00A" fill="url(#grad276.500000115.000000NRC)" transform="rotate(-90 276.500000 115.000000)" />
<defs id="" >
<linearGradient id="grad276.500000115.000000NRCRedun" x1="0%" y1="0%" x2="100%" y2="0%" >
<stop offset="30%" stop-color="#CC3333" stop-opacity="1" />
<stop offset="100%" stop-color="#ff0000" stop-opacity="1" />
</linearGradient>
</defs>
<path id="324.500000115.000000" d="M 324.5,115
v 121
a 2.5,1 0 0,0 5,0
v -121
a 2.5,1 0 0,0 -5,0
z
" fill="url(#grad276.500000115.000000NRCRedun)" fill-opacity="1" stroke="#C00" stroke-opacity="1" stroke-linejoin="round" stroke-width="1.4" transform="rotate(-90 276.500000 115.000000)" />
<ellipse cx="327" cy="115" rx="2.836" ry="1" stroke-width="0.56" fill-opacity="1" stroke-opacity="1" stroke="#C00" fill="url(#grad276.500000115.000000NRCRedun)" transform="rotate(-90 276.500000 115.000000)" />
<ellipse cx="327" cy="236" rx="2.836" ry="1" stroke-width="0.56" fill-opacity="1" stroke-opacity="1" stroke="#C00" fill="url(#grad276.500000115.000000NRCRedun)" transform="rotate(-90 276.500000 115.000000)" />
<defs id="" >
<linearGradient id="grad400.000000180.000000" x1="0%" y1="0%" x2="100%" y2="0%" >
<stop offset="30%" stop-color="#77782C" stop-opacity="1" />
<stop offset="100%" stop-color="#9FA03B" stop-opacity="1" />
</linearGradient>
</defs>
<path id="400.000000180.000000" d="M 400,180
v 119.5
a 7.5,2 0 0,0 15,0
v -119.5
a 7.5,2 0 0,0 -15,0
z
" fill="url(#grad400.000000180.000000)" fill-opacity="1" stroke="#4F501D" stroke-opacity="1" stroke-linejoin="round" stroke-width="0.75" transform="rotate(-90 400.000000 180.000000)" />
<ellipse cx="407.5" cy="180" rx="7.68" ry="2" stroke-width="0.3" fill-opacity="1" stroke-opacity="1" stroke="#4F501D" fill="url(#grad400.000000180.000000)" transform="rotate(-90 400.000000 180.000000)" />
<ellipse cx="407.5" cy="299.5" rx="7.68" ry="2" stroke-width="0.3" fill-opacity="1" stroke-opacity="1" stroke="#4F501D" fill="url(#grad400.000000180.000000)" transform="rotate(-90 400.000000 180.000000)" />
<defs id="" >
<linearGradient id="grad400.000000180.000000NRC" x1="0%" y1="0%" x2="100%" y2="0%" >
<stop offset="30%" stop-color="#3333CC" stop-opacity="1" />
<stop offset="100%" stop-color="#0000ff" stop-opacity="1" />
</linearGradient>
</defs>
<path id="373.000000180.000000" d="M 373,180
v 119.5
a 2.5,1 0 0,0 5,0
v -119.5
a 2.5,1 0 0,0 -5,0
z
" fill="url(#grad400.000000180.000000NRC)" fill-opacity="1" stroke="#00A" stroke-opacity="1" stroke-linejoin="round" stroke-width="1.4" transform="rotate(-90 400.000000 180.000000)" />
<ellipse cx="375.5" cy="180" rx="2.836" ry="1" stroke-width="0.56" fill-opacity="1" stroke-opacity="1" stroke="#00A" fill="url(#grad400.000000180.000000NRC)" transform="rotate(-90 400.000000 180.000000)" />
<ellipse cx="375.5" cy="299.5" rx="2.836" ry="1" stroke-width="0.56" fill-opacity="1" stroke-opacity="1" stroke="#00A" fill="url(#grad400.000000180.000000NRC)" transform="rotate(-90 400.000000 180.000000)" />
<defs id="" >
<linearGradient id="grad400.000000180.000000NRCRedun" x1="0%" y1="0%" x2="100%" y2="0%" >
<stop offset="30%" stop-color="#CC3333" stop-opacity="1" />
<stop offset="100%" stop-color="#ff0000" stop-opacity="1" />
</linearGradient>
</defs>
<path id="362.000000180.000000" d="M 362,180
v 119.5
a 2.5,1 0 0,0 5,0
v -119.5
a 2.5,1 0 0,0 -5,0
z
" fill="url(#grad400.000000180.000000NRCRedun)" fill-opacity="1" stroke="#C00" stroke-opacity="1" stroke-linejoin="round" stroke-width="1.4" transform="rotate(-90 400.000000 180.000000)" />
<ellipse cx="364.5" cy="180" rx="2.836" ry="1" stroke-width="0.56" fill-opacity="1" stroke-opacity="1" stroke="#C00" fill="url(#grad400.000000180.000000NRCRedun)" transform="rotate(-90 400.000000 180.000000)" />
<ellipse cx="364.5" cy="299.5" rx="2.836" ry="1" stroke-width="0.56" fill-opacity="1" stroke-opacity="1" stroke="#C00" fill="url(#grad400.000000180.000000NRCRedun)" transform="rotate(-90 400.000000 180.000000)" />
<polygon points="276.5,115 397.5,115 519.5,165 400,165 " fill="#9FA03B" stroke="#9FA03B" stroke-width="1" stroke-opacity="0.5" fill-opacity="0.5" />
<defs id="" >
<linearGradient id="grad146.500000115.000000" x1="0%" y1="0%" x2="100%" y2="0%" >
<stop offset="30%" stop-color="#782D2C" stop-opacity="1" />
<stop offset="100%" stop-color="#A03C3B" stop-opacity="1" />
</linearGradient>
</defs>
<path id="146.500000115.000000" d="M 146.5,115
v 125
a 7.5,2 0 0,0 15,0
v -125
a 7.5,2 0 0,0 -15,0
z
" fill="url(#grad146.500000115.000000)" fill-opacity="1" stroke="#501E1D" stroke-opacity="1" stroke-linejoin="round" stroke-width="0.75" transform="rotate(-90 146.500000 115.000000)" />
<ellipse cx="154" cy="115" rx="7.68" ry="2" stroke-width="0.3" fill-opacity="1" stroke-opacity="1" stroke="#501E1D" fill="url(#grad146.500000115.000000)" transform="rotate(-90 146.500000 115.000000)" />
<ellipse cx="154" cy="240" rx="7.68" ry="2" stroke-width="0.3" fill-opacity="1" stroke-opacity="1" stroke="#501E1D" fill="url(#grad146.500000115.000000)" transform="rotate(-90 146.500000 115.000000)" />
<defs id="" >
<linearGradient id="grad146.500000115.000000NRC" x1="0%" y1="0%" x2="100%" y2="0%" >
<stop offset="30%" stop-color="#3399CC" stop-opacity="1" />
<stop offset="100%" stop-color="#00aaff" stop-opacity="1" />
</linearGradient>
</defs>
<path id="183.500000115.000000" d="M 183.5,115
v 125
a 2.5,1 0 0,0 5,0
v -125
a 2.5,1 0 0,0 -5,0
z
" fill="url(#grad146.500000115.000000NRC)" fill-opacity="1" stroke="#06A" stroke-opacity="1" stroke-linejoin="round" stroke-width="1.4" transform="rotate(-90 146.500000 115.000000)" />
<ellipse cx="186" cy="115" rx="2.836" ry="1" stroke-width="0.56" fill-opacity="1" stroke-opacity="1" stroke="#06A" fill="url(#grad146.500000115.000000NRC)" transform="rotate(-90 146.500000 115.000000)" />
<ellipse cx="186" cy="240" rx="2.836" ry="1" stroke-width="0.56" fill-opacity="1" stroke-opacity="1" stroke="#06A" fill="url(#grad146.500000115.000000NRC)" transform="rotate(-90 146.500000 115.000000)" />
<defs id="" >
<linearGradient id="grad146.500000115.000000NRCRedun" x1="0%" y1="0%" x2="100%" y2="0%" >
<stop offset="30%" stop-color="#CC3333" stop-opacity="1" />
<stop offset="100%" stop-color="#ff0000" stop-opacity="1" />
</linearGradient>
</defs>
<path id="194.500000115.000000" d="M 194.5,115
v 125
a 2.5,1 0 0,0 5,0
v -125
a 2.5,1 0 0,0 -5,0
z
" fill="url(#grad146.500000115.000000NRCRedun)" fill-opacity="1" stroke="#C00" stroke-opacity="1" stroke-linejoin="round" stroke-width="1.4" transform="rotate(-90 146.500000 115.000000)" />
<ellipse cx="197" cy="115" rx="2.836" ry="1" stroke-width="0.56" fill-opacity="1" stroke-opacity="1" stroke="#C00" fill="url(#grad146.500000115.000000NRCRedun)" transform="rotate(-90 146.500000 115.000000)" />
<ellipse cx="197" cy="240" rx="2.836" ry="1" stroke-width="0.56" fill-opacity="1" stroke-opacity="1" stroke="#C00" fill="url(#grad146.500000115.000000NRCRedun)" transform="rotate(-90 146.500000 115.000000)" />
<defs id="" >
<linearGradient id="grad20.000000180.000000" x1="0%" y1="0%" x2="100%" y2="0%" >
<stop offset="30%" stop-color="#782D2C" stop-opacity="1" />
<stop offset="100%" stop-color="#A03C3B" stop-opacity="1" />
</linearGradient>
</defs>
<path id="20.000000180.000000" d="M 20,180
v 123.5
a 7.5,2 0 0,0 15,0
v -123.5
a 7.5,2 0 0,0 -15,0
z
" fill="url(#grad20.000000180.000000)" fill-opacity="1" stroke="#501E1D" stroke-opacity="1" stroke-linejoin="round" stroke-width="0.75" transform="rotate(-90 20.000000 180.000000)" />
<ellipse cx="27.5" cy="180" rx="7.68" ry="2" stroke-width="0.3" fill-opacity="1" stroke-opacity="1" stroke="#501E1D" fill="url(#grad20.000000180.000000)" transform="rotate(-90 20.000000 180.000000)" />
<ellipse cx="27.5" cy="303.5" rx="7.68" ry="2" stroke-width="0.3" fill-opacity="1" stroke-opacity="1" stroke="#501E1D" fill="url(#grad20.000000180.000000)" transform="rotate(-90 20.000000 180.000000)" />
<defs id="" >
<linearGradient id="grad20.000000180.000000NRC" x1="0%" y1="0%" x2="100%" y2="0%" >
<stop offset="30%" stop-color="#3399CC" stop-opacity="1" />
<stop offset="100%" stop-color="#00aaff" stop-opacity="1" />
</linearGradient>
</defs>
<path id="-7.000000180.000000" d="M -7,180
v 123.5
a 2.5,1 0 0,0 5,0
v -123.5
a 2.5,1 0 0,0 -5,0
z
" fill="url(#grad20.000000180.000000NRC)" fill-opacity="1" stroke="#06A" stroke-opacity="1" stroke-linejoin="round" stroke-width="1.4" transform="rotate(-90 20.000000 180.000000)" />
<ellipse cx="-4.5" cy="180" rx="2.836" ry="1" stroke-width="0.56" fill-opacity="1" stroke-opacity="1" stroke="#06A" fill="url(#grad20.000000180.000000NRC)" transform="rotate(-90 20.000000 180.000000)" />
<ellipse cx="-4.5" cy="303.5" rx="2.836" ry="1" stroke-width="0.56" fill-opacity="1" stroke-opacity="1" stroke="#06A" fill="url(#grad20.000000180.000000NRC)" transform="rotate(-90 20.000000 180.000000)" />
<defs id="" >
<linearGradient id="grad20.000000180.000000NRCRedun" x1="0%" y1="0%" x2="100%" y2="0%" >
<stop offset="30%" stop-color="#CC3333" stop-opacity="1" />
<stop offset="100%" stop-color="#ff0000" stop-opacity="1" />
</linearGradient>
</defs>
<path id="-18.000000180.000000" d="M -18,180
v 123.5
a 2.5,1 0 0,0 5,0
v -123.5
a 2.5,1 0 0,0 -5,0
z
" fill="url(#grad20.000000180.000000NRCRedun)" fill-opacity="1" stroke="#C00" stroke-opacity="1" stroke-linejoin="round" stroke-width="1.4" transform="rotate(-90 20.000000 180.000000)" />
<ellipse cx="-15.5" cy="180" rx="2.836" ry="1" stroke-width="0.56" fill-opacity="1" stroke-opacity="1" stroke="#C00" fill="url(#grad20.000000180.000000NRCRedun)" transform="rotate(-90 20.000000 180.000000)" />
<ellipse cx="-15.5" cy="303.5" rx="2.836" ry="1" stroke-width="0.56" fill-opacity="1" stroke-opacity="1" stroke="#C00" fill="url(#grad20.000000180.000000NRCRedun)" transform="rotate(-90 20.000000 180.000000)" />
<polygon points="146.5,115 271.5,115 143.5,165 20,165 " fill="#A03C3B" stroke="#A03C3B" stroke-width="1" stroke-opacity="0.5" fill-opacity="0.5" />
<defs id="" >
<linearGradient id="grad20.000000115.000000" x1="0%" y1="0%" x2="100%" y2="0%" >
<stop offset="30%" stop-color="#2C782D" stop-opacity="1" />
<stop offset="100%" stop-color="#3BA03C" stop-opacity="1" />
</linearGradient>
</defs>
<path id="20.000000115.000000" d="M 20,115
v 122
a 7.5,2 0 0,0 15,0
v -122
a 7.5,2 0 0,0 -15,0
z
" fill="url(#grad20.000000115.000000)" fill-opacity="1" stroke="#1D501E" stroke-opacity="1" stroke-linejoin="round" stroke-width="0.75" transform="rotate(-90 20.000000 115.000000)" />
<ellipse cx="27.5" cy="115" rx="7.68" ry="2" stroke-width="0.3" fill-opacity="1" stroke-opacity="1" stroke="#1D501E" fill="url(#grad20.000000115.000000)" transform="rotate(-90 20.000000 115.000000)" />
<ellipse cx="27.5" cy="237" rx="7.68" ry="2" stroke-width="0.3" fill-opacity="1" stroke-opacity="1" stroke="#1D501E" fill="url(#grad20.000000115.000000)" transform="rotate(-90 20.000000 115.000000)" />
<defs id="" >
<linearGradient id="grad20.000000115.000000NRC" x1="0%" y1="0%" x2="100%" y2="0%" >
<stop offset="30%" stop-color="#3333CC" stop-opacity="1" />
<stop offset="100%" stop-color="#0000ff" stop-opacity="1" />
</linearGradient>
</defs>
<path id="57.000000115.000000" d="M 57,115
v 122
a 2.5,1 0 0,0 5,0
v -122
a 2.5,1 0 0,0 -5,0
z
" fill="url(#grad20.000000115.000000NRC)" fill-opacity="1" stroke="#00A" stroke-opacity="1" stroke-linejoin="round" stroke-width="1.4" transform="rotate(-90 20.000000 115.000000)" />
<ellipse cx="59.5" cy="115" rx="2.836" ry="1" stroke-width="0.56" fill-opacity="1" stroke-opacity="1" stroke="#00A" fill="url(#grad20.000000115.000000NRC)" transform="rotate(-90 20.000000 115.000000)" />
<ellipse cx="59.5" cy="237" rx="2.836" ry="1" stroke-width="0.56" fill-opacity="1" stroke-opacity="1" stroke="#00A" fill="url(#grad20.000000115.000000NRC)" transform="rotate(-90 20.000000 115.000000)" />
<defs id="" >
<linearGradient id="grad20.000000115.000000NRCRedun" x1="0%" y1="0%" x2="100%" y2="0%" >
<stop offset="30%" stop-color="#CC3333" stop-opacity="1" />
<stop offset="100%" stop-color="#ff0000" stop-opacity="1" />
</linearGradient>
</defs>
<path id="68.000000115.000000" d="M 68,115
v 122
a 2.5,1 0 0,0 5,0
v -122
a 2.5,1 0 0,0 -5,0
z
" fill="url(#grad20.000000115.000000NRCRedun)" fill-opacity="1" stroke="#C00" stroke-opacity="1" stroke-linejoin="round" stroke-width="1.4" transform="rotate(-90 20.000000 115.000000)" />
<ellipse cx="70.5" cy="115" rx="2.836" ry="1" stroke-width="0.56" fill-opacity="1" stroke-opacity="1" stroke="#C00" fill="url(#grad20.000000115.000000NRCRedun)" transform="rotate(-90 20.000000 115.000000)" />
<ellipse cx="70.5" cy="237" rx="2.836" ry="1" stroke-width="0.56" fill-opacity="1" stroke-opacity="1" stroke="#C00" fill="url(#grad20.000000115.000000NRCRedun)" transform="rotate(-90 20.000000 115.000000)" />
<defs id="" >
<linearGradient id="grad150.000000180.000000" x1="0%" y1="0%" x2="100%" y2="0%" >
<stop offset="30%" stop-color="#2C782D" stop-opacity="1" />
<stop offset="100%" stop-color="#3BA03C" stop-opacity="1" />
</linearGradient>
</defs>
<path id="150.000000180.000000" d="M 150,180
v 120
a 7.5,2 0 0,0 15,0
v -120
a 7.5,2 0 0,0 -15,0
z
" fill="url(#grad150.000000180.000000)" fill-opacity="1" stroke="#1D501E" stroke-opacity="1" stroke-linejoin="round" stroke-width="0.75" transform="rotate(-90 150.000000 180.000000)" />
<ellipse cx="157.5" cy="180" rx="7.68" ry="2" stroke-width="0.3" fill-opacity="1" stroke-opacity="1" stroke="#1D501E" fill="url(#grad150.000000180.000000)" transform="rotate(-90 150.000000 180.000000)" />
<ellipse cx="157.5" cy="300" rx="7.68" ry="2" stroke-width="0.3" fill-opacity="1" stroke-opacity="1" stroke="#1D501E" fill="url(#grad150.000000180.000000)" transform="rotate(-90 150.000000 180.000000)" />
<defs id="" >
<pattern id="Wavy150.000000180.000000" x="150" y="180" width="15" height="14" patternUnits="userSpaceOnUse" >
<path id="" d="m -2.1,11.9
l 9.6,-9.8
l 9.6,9.8
" fill="none" fill-opacity="0.9" stroke="#141" stroke-opacity="1" stroke-linejoin="round" stroke-width="4.2" />
</pattern>
</defs>
<path id="150.000000180.000000" d="M 150,180
v 120
a 7.5,2 0 0,0 15,0
v -120
a 7.5,2 0 0,0 -15,0
z
" fill="url(#Wavy150.000000180.000000)" fill-opacity="1" stroke="#1D501E" stroke-opacity="1" stroke-linejoin="round" stroke-width="0.75" transform="rotate(-90 150.000000 180.000000)" />
<ellipse cx="157.5" cy="180" rx="7.68" ry="2" stroke-width="0.3" fill-opacity="1" stroke-opacity="1" stroke="#1D501E" fill="url(#Wavy150.000000180.000000)" transform="rotate(-90 150.000000 180.000000)" />
<ellipse cx="157.5" cy="300" rx="7.68" ry="2" stroke-width="0.3" fill-opacity="1" stroke-opacity="1" stroke="#1D501E" fill="url(#Wavy150.000000180.000000)" transform="rotate(-90 150.000000 180.000000)" />
<defs id="" >
<linearGradient id="grad150.000000180.000000NRC" x1="0%" y1="0%" x2="100%" y2="0%" >
<stop offset="30%" stop-color="#3333CC" stop-opacity="1" />
<stop offset="100%" stop-color="#0000ff" stop-opacity="1" />
</linearGradient>
</defs>
<path id="123.000000180.000000" d="M 123,180
v 120
a 2.5,1 0 0,0 5,0
v -120
a 2.5,1 0 0,0 -5,0
z
" fill="url(#grad150.000000180.000000NRC)" fill-opacity="1" stroke="#00A" stroke-opacity="1" stroke-linejoin="round" stroke-width="1.4" transform="rotate(-90 150.000000 180.000000)" />
<ellipse cx="125.5" cy="180" rx="2.836" ry="1" stroke-width="0.56" fill-opacity="1" stroke-opacity="1" stroke="#00A" fill="url(#grad150.000000180.000000NRC)" transform="rotate(-90 150.000000 180.000000)" />
<ellipse cx="125.5" cy="300" rx="2.836" ry="1" stroke-width="0.56" fill-opacity="1" stroke-opacity="1" stroke="#00A" fill="url(#grad150.000000180.000000NRC)" transform="rotate(-90 150.000000 180.000000)" />
<defs id="" >
<linearGradient id="grad150.000000180.000000NRCRedun" x1="0%" y1="0%" x2="100%" y2="0%" >
<stop offset="30%" stop-color="#CC9933" stop-opacity="1" />
<stop offset="100%" stop-color="#ffaa00" stop-opacity="1" />
</linearGradient>
</defs>
<path id="112.000000180.000000" d="M 112,180
v 120
a 2.5,1 0 0,0 5,0
v -120
a 2.5,1 0 0,0 -5,0
z
" fill="url(#grad150.000000180.000000NRCRedun)" fill-opacity="1" stroke="#C80" stroke-opacity="1" stroke-linejoin="round" stroke-width="1.4" transform="rotate(-90 150.000000 180.000000)" />
<ellipse cx="114.5" cy="180" rx="2.836" ry="1" stroke-width="0.56" fill-opacity="1" stroke-opacity="1" stroke="#C80" fill="url(#grad150.000000180.000000NRCRedun)" transform="rotate(-90 150.000000 180.000000)" />
<ellipse cx="114.5" cy="300" rx="2.836" ry="1" stroke-width="0.56" fill-opacity="1" stroke-opacity="1" stroke="#C80" fill="url(#grad150.000000180.000000NRCRedun)" transform="rotate(-90 150.000000 180.000000)" />
<polygon points="20,115 142,115 150,165 270,165 " fill="#3BA03C" stroke="#3BA03C" stroke-width="1" stroke-opacity="0.5" fill-opacity="0.5" />
<path id="20.000000115.000000" d="M 20,115
v 500
a 7.5,2 0 0,0 15,0
v -500
a 7.5,2 0 0,0 -15,0
z
" fill="none" fill-opacity="0.9" stroke="black" stroke-opacity="1" stroke-linejoin="round" stroke-width="1" transform="rotate(-90 20.000000 115.000000)" />
<ellipse cx="27.5" cy="115" rx="7.74" ry="2" stroke-width="0.4" fill-opacity="0.9" stroke-opacity="1" stroke="black" fill="none" transform="rotate(-90 20.000000 115.000000)" />
<ellipse cx="27.5" cy="615" rx="7.74" ry="2" stroke-width="0.4" fill-opacity="0.9" stroke-opacity="1" stroke="black" fill="none" transform="rotate(-90 20.000000 115.000000)" />
<path id="20.000000180.000000" d="M 20,180
v 500
a 7.5,2 0 0,0 15,0
v -500
a 7.5,2 0 0,0 -15,0
z
" fill="none" fill-opacity="0.9" stroke="black" stroke-opacity="1" stroke-linejoin="round" stroke-width="1" transform="rotate(-90 20.000000 180.000000)" />
<ellipse cx="27.5" cy="180" rx="7.74" ry="2" stroke-width="0.4" fill-opacity="0.9" stroke-opacity="1" stroke="black" fill="none" transform="rotate(-90 20.000000 180.000000)" />
<ellipse cx="27.5" cy="680" rx="7.74" ry="2" stroke-width="0.4" fill-opacity="0.9" stroke-opacity="1" stroke="black" fill="none" transform="rotate(-90 20.000000 180.000000)" />
<text id="20.00000091.000000" x="20" y="91" dominant-baseline="" baseline-shift="" alignment-baseline="" font-size="10px" font-weight="bold" font-family="Helvetica,Arial" font-variant="normal" text-anchor="start" text-align="start" line-height="125%%" >
refs</text>
<text id="20.000000196.000000" x="20" y="196" dominant-baseline="" baseline-shift="" alignment-baseline="" font-size="10px" font-weight="bold" font-family="Helvetica,Arial" font-variant="normal" text-anchor="start" text-align="start" line-height="125%%" >
tars</text>
<defs id="" >
<linearGradient id="grad560.00000078.000000" x1="0%" y1="100%" x2="0%" y2="0%" >
<stop offset="0%" stop-color="#0000ff" stop-opacity="1" />
<stop offset="11%" stop-color="#00aaff" stop-opacity="1" />
<stop offset="22%" stop-color="#00ffff" stop-opacity="1" />
<stop offset="33%" stop-color="#00ffaa" stop-opacity="1" />
<stop offset="44%" stop-color="#00ff55" stop-opacity="1" />
<stop offset="55%" stop-color="#55ff00" stop-opacity="1" />
<stop offset="66%" stop-color="#aaff00" stop-opacity="1" />
<stop offset="77%" stop-color="#ffff00" stop-opacity="1" />
<stop offset="88%" stop-color="#ffaa00" stop-opacity="1" />
<stop offset="100%" stop-color="#ff0000" stop-opacity="1" />
</linearGradient>
</defs>
<rect x="560" y="78" width="15" height="124" rx="2" ry="2" fill="url(#grad560.00000078.000000)" fill-opacity="0.9" stroke="black" stroke-width="0.5" />
<text id="546.849976140.000000" x="546.85" y="140" dominant-baseline="" baseline-shift="" alignment-baseline="" transform="rotate(90 546.849976 140.000000)" font-size="9px" font-family="Helvetica,Arial" font-variant="normal" text-anchor="middle" text-align="start" line-height="125%%" >
Relative Redundancy</text>
<text id="581.849976140.000000" x="581.85" y="140" dominant-baseline="" baseline-shift="" alignment-baseline="" transform="rotate(90 581.849976 140.000000)" font-size="9px" font-family="Helvetica,Arial" font-variant="normal" text-anchor="middle" text-align="start" line-height="125%%" >
Redundancy</text>
<text id="567.500000208.000000" x="567.5" y="208" dy="2.8" dominant-baseline="" baseline-shift="" alignment-baseline="" font-size="8px" font-weight="bold" font-family="Helvetica,Arial" font-variant="normal" text-anchor="middle" text-align="start" line-height="125%%" >
0.0</text>
<text id="567.50000072.000000" x="567.5" y="72" dy="2.8" dominant-baseline="" baseline-shift="" alignment-baseline="" font-size="8px" font-weight="bold" font-family="Helvetica,Arial" font-variant="normal" text-anchor="middle" text-align="start" line-height="125%%" >
2.0</text>
<text id="567.500000171.000000" x="567.5" y="171" dy="2.8" dominant-baseline="" baseline-shift="" alignment-baseline="" font-size="8px" font-weight="bold" font-family="Helvetica,Arial" font-variant="normal" text-anchor="middle" text-align="start" line-height="125%%" >
0.5</text>
<text id="567.500000140.000000" x="567.5" y="140" dy="2.8" dominant-baseline="" baseline-shift="" alignment-baseline="" font-size="8px" font-weight="bold" font-family="Helvetica,Arial" font-variant="normal" text-anchor="middle" text-align="start" line-height="125%%" >
1.0</text>
<text id="567.500000109.000000" x="567.5" y="109" dy="2.8" dominant-baseline="" baseline-shift="" alignment-baseline="" font-size="8px" font-weight="bold" font-family="Helvetica,Arial" font-variant="normal" text-anchor="middle" text-align="start" line-height="125%%" >
1.5</text>
<path id="" d="M 519.5,75.5
H 550
V 93
" fill="none" fill-opacity="0.9" stroke="black" stroke-opacity="1" stroke-linejoin="round" stroke-width="0.5" />
<path id="" d="M 519.5,204.5
H 550
V 187
" fill="none" fill-opacity="0.9" stroke="black" stroke-opacity="1" stroke-linejoin="round" stroke-width="0.5" />
<path id="" d="M 519.5,64.5
H 585
V 110
" fill="none" fill-opacity="0.9" stroke="black" stroke-opacity="1" stroke-linejoin="round" stroke-width="0.5" />
<path id="" d="M 519.5,215.5
H 585
V 170
" fill="none" fill-opacity="0.9" stroke="black" stroke-opacity="1" stroke-linejoin="round" stroke-width="0.5" />
</svg>