<?xml version="1.0" encoding="UTF-8" standalone="no"?>
<!-- Morteza Hosseini, IEETA 2018-2019 -->

<svg xmlns="http://www.w3.org/2000/svg" width="504" height="650" >
<defs id="ffff" >
<pattern id="Wavy" x="-10.50" y="0.00" width="21.00" height="7.00" patternUnits="userSpaceOnUse" >
<path d="m0,0 a 10.500000,2.000000 0 0,0 21.000000,0 " fill="transparent" fill-opacity="0.8" stroke="black" stroke-linejoin="round" stroke-dasharray="" stroke-width="1.00" />
</pattern>
</defs>

<defs id="ffff" >
<pattern id="WavyWhite" x="-10.50" y="0.00" width="21.00" height="7.00" patternUnits="userSpaceOnUse" >
<path d="m0,0 a 10.500000,2.000000 0 0,0 21.000000,0 " fill="transparent" fill-opacity="0.8" stroke="white" stroke-linejoin="round" stroke-dasharray="" stroke-width="1.00" />
</pattern>
</defs>

<rect fill="white" stroke="white" fill-opacity="0.95" width="504.00" height="650.00" x="0.00" y="0.00" ry="3" />

<text id="210.50000085.000000" x="210.50" y="85.00" dx="0" dy="0" dominant-baseline="middle" transform="" font-size="12px" font-weight="normal" font-family="Arial" fill="black" text-align="start" line-height="125%%" text-anchor="middle" >RefL</text>

<text id="293.50000085.000000" x="293.50" y="85.00" dx="0" dy="0" dominant-baseline="middle" transform="" font-size="12px" font-weight="normal" font-family="Arial" fill="black" text-align="start" line-height="125%%" text-anchor="middle" >TarL</text>

<text id="161.000000100.002400" x="161.00" y="100.00" dx="0" dy="0" dominant-baseline="text-before-edge" transform="" font-size="9px" font-weight="normal" font-family="Arial" fill="black" text-align="start" line-height="125%%" text-anchor="end" ><tspan id="2" style="fill:#3BA03C">24</tspan>
</text>

<text id="161.000000224.999800" x="161.00" y="225.00" dx="0" dy="0" dominant-baseline="text-after-edge" transform="" font-size="9px" font-weight="normal" font-family="Arial" fill="black" text-align="start" line-height="125%%" text-anchor="end" ><tspan id="2" style="fill:#3BA03C">1249998</tspan>
</text>

<text id="161.000000225.001300" x="161.00" y="225.00" dx="0" dy="0" dominant-baseline="text-before-edge" transform="" font-size="9px" font-weight="normal" font-family="Arial" fill="black" text-align="start" line-height="125%%" text-anchor="end" ><tspan id="1" style="fill:#9FA03B">1250013</tspan>
</text>

<text id="161.000000349.998800" x="161.00" y="350.00" dx="0" dy="0" dominant-baseline="text-after-edge" transform="" font-size="9px" font-weight="normal" font-family="Arial" fill="black" text-align="start" line-height="125%%" text-anchor="end" ><tspan id="1" style="fill:#9FA03B">2499988</tspan>
</text>

<text id="161.000000350.002600" x="161.00" y="350.00" dx="0" dy="0" dominant-baseline="text-before-edge" transform="" font-size="9px" font-weight="normal" font-family="Arial" fill="black" text-align="start" line-height="125%%" text-anchor="end" ><tspan id="0" style="fill:#A03C3B">2500026</tspan>
</text>

<text id="161.000000475.000400" x="161.00" y="475.00" dx="0" dy="0" dominant-baseline="middle" transform="" font-size="9px" font-weight="normal" font-family="Arial" fill="black" text-align="start" line-height="125%%" text-anchor="end" ><tspan id="0" style="fill:#A03C3B">3750014, </tspan>
<tspan id="3" style="fill:#3B9FA0">3749994</tspan>
</text>

<text id="161.000000599.999900" x="161.00" y="600.00" dx="0" dy="0" dominant-baseline="text-after-edge" transform="" font-size="9px" font-weight="normal" font-family="Arial" fill="black" text-align="start" line-height="125%%" text-anchor="end" ><tspan id="3" style="fill:#3B9FA0">4999999</tspan>
</text>

<text id="343.000000100.002800" x="343.00" y="100.00" dx="0" dy="0" dominant-baseline="text-before-edge" transform="" font-size="9px" font-weight="normal" font-family="Arial" fill="black" text-align="start" line-height="125%%" text-anchor="start" ><tspan id="0" style="fill:#A03C3B">28</tspan>
</text>

<text id="343.000000224.999600" x="343.00" y="225.00" dx="0" dy="0" dominant-baseline="text-after-edge" transform="" font-size="9px" font-weight="normal" font-family="Arial" fill="black" text-align="start" line-height="125%%" text-anchor="start" ><tspan id="0" style="fill:#A03C3B">1249996</tspan>
</text>

<text id="343.000000225.001700" x="343.00" y="225.00" dx="0" dy="0" dominant-baseline="text-before-edge" transform="" font-size="9px" font-weight="normal" font-family="Arial" fill="black" text-align="start" line-height="125%%" text-anchor="start" ><tspan id="1" style="fill:#9FA03B">1250017</tspan>
</text>

<text id="343.000000349.997000" x="343.00" y="350.00" dx="0" dy="0" dominant-baseline="text-after-edge" transform="" font-size="9px" font-weight="normal" font-family="Arial" fill="black" text-align="start" line-height="125%%" text-anchor="start" ><tspan id="1" style="fill:#9FA03B">2499970</tspan>
</text>

<text id="343.000000350.003100" x="343.00" y="350.00" dx="0" dy="0" dominant-baseline="text-before-edge" transform="" font-size="9px" font-weight="normal" font-family="Arial" fill="black" text-align="start" line-height="125%%" text-anchor="start" ><tspan id="2" style="fill:#3BA03C">2500031</tspan>
</text>

<text id="343.000000474.998000" x="343.00" y="475.00" dx="0" dy="0" dominant-baseline="text-after-edge" transform="" font-size="9px" font-weight="normal" font-family="Arial" fill="black" text-align="start" line-height="125%%" text-anchor="start" ><tspan id="2" style="fill:#3BA03C">3749980</tspan>
</text>

<text id="343.000000474.999700" x="343.00" y="475.00" dx="0" dy="0" dominant-baseline="text-before-edge" transform="" font-size="9px" font-weight="normal" font-family="Arial" fill="black" text-align="start" line-height="125%%" text-anchor="start" ><tspan id="3" style="fill:#3B9FA0">3749997</tspan>
</text>

<text id="343.000000599.999900" x="343.00" y="600.00" dx="0" dy="0" dominant-baseline="text-after-edge" transform="" font-size="9px" font-weight="normal" font-family="Arial" fill="black" text-align="start" line-height="125%%" text-anchor="start" ><tspan id="3" style="fill:#3B9FA0">4999999</tspan>
</text>

<path d="M 200.000000,350.002600  v 124.998800 a 10.500000,2.000000 0 0,0 21.000000,0  v -124.998800 a 10.500000,2.000000 0 0,0 -21.000000,0  a 10.500000,2.000000 0 0,0 21.000000,0 " fill="#A03C3B" fill-opacity="0.95" stroke="#501E1D" stroke-linejoin="round" stroke-dasharray="" stroke-width="0.25" />

<path d="M 200.000000,475.001400  a 10.500000,2.000000 0 0,1 21.000000,0 " fill="transparent" fill-opacity="0.95" stroke="#501E1D" stroke-linejoin="round" stroke-dasharray="4 1" stroke-width="0.12" />

<path d="M 185.000000,350.002600  v 124.998800 a 3.500000,2.000000 0 0,0 7.000000,0  v -124.998800 a 3.500000,2.000000 0 0,0 -7.000000,0  a 3.500000,2.000000 0 0,0 7.000000,0 " fill="#0000ff" fill-opacity="0.95" stroke="#00C" stroke-linejoin="round" stroke-dasharray="" stroke-width="0.50" />

<path d="M 185.000000,475.001400  a 3.500000,2.000000 0 0,1 7.000000,0 " fill="transparent" fill-opacity="0.95" stroke="#00C" stroke-linejoin="round" stroke-dasharray="4 1" stroke-width="0.25" />

<path d="M 170.000000,350.002600  v 124.998800 a 3.500000,2.000000 0 0,0 7.000000,0  v -124.998800 a 3.500000,2.000000 0 0,0 -7.000000,0  a 3.500000,2.000000 0 0,0 7.000000,0 " fill="#ff0000" fill-opacity="0.95" stroke="#C00" stroke-linejoin="round" stroke-dasharray="" stroke-width="0.50" />

<path d="M 170.000000,475.001400  a 3.500000,2.000000 0 0,1 7.000000,0 " fill="transparent" fill-opacity="0.95" stroke="#C00" stroke-linejoin="round" stroke-dasharray="4 1" stroke-width="0.25" />

<path d="M 283.000000,100.002800  v 124.996800 a 10.500000,2.000000 0 0,0 21.000000,0  v -124.996800 a 10.500000,2.000000 0 0,0 -21.000000,0  a 10.500000,2.000000 0 0,0 21.000000,0 " fill="#A03C3B" fill-opacity="0.95" stroke="#501E1D" stroke-linejoin="round" stroke-dasharray="" stroke-width="0.25" />

<path d="M 283.000000,224.999600  a 10.500000,2.000000 0 0,1 21.000000,0 " fill="transparent" fill-opacity="0.95" stroke="#501E1D" stroke-linejoin="round" stroke-dasharray="4 1" stroke-width="0.12" />

<path d="M 312.000000,100.002800  v 124.996800 a 3.500000,2.000000 0 0,0 7.000000,0  v -124.996800 a 3.500000,2.000000 0 0,0 -7.000000,0  a 3.500000,2.000000 0 0,0 7.000000,0 " fill="#0000ff" fill-opacity="0.95" stroke="#00C" stroke-linejoin="round" stroke-dasharray="" stroke-width="0.50" />

<path d="M 312.000000,224.999600  a 3.500000,2.000000 0 0,1 7.000000,0 " fill="transparent" fill-opacity="0.95" stroke="#00C" stroke-linejoin="round" stroke-dasharray="4 1" stroke-width="0.25" />

<path d="M 327.000000,100.002800  v 124.996800 a 3.500000,2.000000 0 0,0 7.000000,0  v -124.996800 a 3.500000,2.000000 0 0,0 -7.000000,0  a 3.500000,2.000000 0 0,0 7.000000,0 " fill="#ff0000" fill-opacity="0.95" stroke="#C00" stroke-linejoin="round" stroke-dasharray="" stroke-width="0.50" />

<path d="M 327.000000,224.999600  a 3.500000,2.000000 0 0,1 7.000000,0 " fill="transparent" fill-opacity="0.95" stroke="#C00" stroke-linejoin="round" stroke-dasharray="4 1" stroke-width="0.25" />

<polygon points="221.00,350.00 221.00,475.00 283.00,225.00 283.00,100.00" fill="#A03C3B" stroke="#A03C3B" stroke-width="1" stroke-opacity="0.4" fill-opacity="0.4" />

<path d="M 200.000000,225.001300  v 124.997500 a 10.500000,2.000000 0 0,0 21.000000,0  v -124.997500 a 10.500000,2.000000 0 0,0 -21.000000,0  a 10.500000,2.000000 0 0,0 21.000000,0 " fill="#9FA03B" fill-opacity="0.95" stroke="#4F501D" stroke-linejoin="round" stroke-dasharray="" stroke-width="0.25" />

<path d="M 200.000000,349.998800  a 10.500000,2.000000 0 0,1 21.000000,0 " fill="transparent" fill-opacity="0.95" stroke="#4F501D" stroke-linejoin="round" stroke-dasharray="4 1" stroke-width="0.12" />

<path d="M 185.000000,225.001300  v 124.997500 a 3.500000,2.000000 0 0,0 7.000000,0  v -124.997500 a 3.500000,2.000000 0 0,0 -7.000000,0  a 3.500000,2.000000 0 0,0 7.000000,0 " fill="#0000ff" fill-opacity="0.95" stroke="#00C" stroke-linejoin="round" stroke-dasharray="" stroke-width="0.50" />

<path d="M 185.000000,349.998800  a 3.500000,2.000000 0 0,1 7.000000,0 " fill="transparent" fill-opacity="0.95" stroke="#00C" stroke-linejoin="round" stroke-dasharray="4 1" stroke-width="0.25" />

<path d="M 170.000000,225.001300  v 124.997500 a 3.500000,2.000000 0 0,0 7.000000,0  v -124.997500 a 3.500000,2.000000 0 0,0 -7.000000,0  a 3.500000,2.000000 0 0,0 7.000000,0 " fill="#ff5500" fill-opacity="0.95" stroke="#C40" stroke-linejoin="round" stroke-dasharray="" stroke-width="0.50" />

<path d="M 170.000000,349.998800  a 3.500000,2.000000 0 0,1 7.000000,0 " fill="transparent" fill-opacity="0.95" stroke="#C40" stroke-linejoin="round" stroke-dasharray="4 1" stroke-width="0.25" />

<path d="M 283.000000,225.001700  v 124.995300 a 10.500000,2.000000 0 0,0 21.000000,0  v -124.995300 a 10.500000,2.000000 0 0,0 -21.000000,0  a 10.500000,2.000000 0 0,0 21.000000,0 " fill="#9FA03B" fill-opacity="0.95" stroke="#4F501D" stroke-linejoin="round" stroke-dasharray="" stroke-width="0.25" />

<path d="M 283.000000,349.997000  a 10.500000,2.000000 0 0,1 21.000000,0 " fill="transparent" fill-opacity="0.95" stroke="#4F501D" stroke-linejoin="round" stroke-dasharray="4 1" stroke-width="0.12" />

<path d="M 312.000000,225.001700  v 124.995300 a 3.500000,2.000000 0 0,0 7.000000,0  v -124.995300 a 3.500000,2.000000 0 0,0 -7.000000,0  a 3.500000,2.000000 0 0,0 7.000000,0 " fill="#0000ff" fill-opacity="0.95" stroke="#00C" stroke-linejoin="round" stroke-dasharray="" stroke-width="0.50" />

<path d="M 312.000000,349.997000  a 3.500000,2.000000 0 0,1 7.000000,0 " fill="transparent" fill-opacity="0.95" stroke="#00C" stroke-linejoin="round" stroke-dasharray="4 1" stroke-width="0.25" />

<path d="M 327.000000,225.001700  v 124.995300 a 3.500000,2.000000 0 0,0 7.000000,0  v -124.995300 a 3.500000,2.000000 0 0,0 -7.000000,0  a 3.500000,2.000000 0 0,0 7.000000,0 " fill="#ff5500" fill-opacity="0.95" stroke="#C40" stroke-linejoin="round" stroke-dasharray="" stroke-width="0.50" />

<path d="M 327.000000,349.997000  a 3.500000,2.000000 0 0,1 7.000000,0 " fill="transparent" fill-opacity="0.95" stroke="#C40" stroke-linejoin="round" stroke-dasharray="4 1" stroke-width="0.25" />

<polygon points="221.00,225.00 221.00,350.00 283.00,350.00 283.00,225.00" fill="#9FA03B" stroke="#9FA03B" stroke-width="1" stroke-opacity="0.4" fill-opacity="0.4" />

<path d="M 200.000000,100.002400  v 124.997400 a 10.500000,2.000000 0 0,0 21.000000,0  v -124.997400 a 10.500000,2.000000 0 0,0 -21.000000,0  a 10.500000,2.000000 0 0,0 21.000000,0 " fill="#3BA03C" fill-opacity="0.95" stroke="#1D501E" stroke-linejoin="round" stroke-dasharray="" stroke-width="0.25" />

<path d="M 200.000000,224.999800  a 10.500000,2.000000 0 0,1 21.000000,0 " fill="transparent" fill-opacity="0.95" stroke="#1D501E" stroke-linejoin="round" stroke-dasharray="4 1" stroke-width="0.12" />

<path d="M 185.000000,100.002400  v 124.997400 a 3.500000,2.000000 0 0,0 7.000000,0  v -124.997400 a 3.500000,2.000000 0 0,0 -7.000000,0  a 3.500000,2.000000 0 0,0 7.000000,0 " fill="#0000ff" fill-opacity="0.95" stroke="#00C" stroke-linejoin="round" stroke-dasharray="" stroke-width="0.50" />

<path d="M 185.000000,224.999800  a 3.500000,2.000000 0 0,1 7.000000,0 " fill="transparent" fill-opacity="0.95" stroke="#00C" stroke-linejoin="round" stroke-dasharray="4 1" stroke-width="0.25" />

<path d="M 170.000000,100.002400  v 124.997400 a 3.500000,2.000000 0 0,0 7.000000,0  v -124.997400 a 3.500000,2.000000 0 0,0 -7.000000,0  a 3.500000,2.000000 0 0,0 7.000000,0 " fill="#ff5500" fill-opacity="0.95" stroke="#C40" stroke-linejoin="round" stroke-dasharray="" stroke-width="0.50" />

<path d="M 170.000000,224.999800  a 3.500000,2.000000 0 0,1 7.000000,0 " fill="transparent" fill-opacity="0.95" stroke="#C40" stroke-linejoin="round" stroke-dasharray="4 1" stroke-width="0.25" />

<path d="M 283.000000,350.003100  v 124.994900 a 10.500000,2.000000 0 0,0 21.000000,0  v -124.994900 a 10.500000,2.000000 0 0,0 -21.000000,0  a 10.500000,2.000000 0 0,0 21.000000,0 " fill="#3BA03C" fill-opacity="0.95" stroke="#1D501E" stroke-linejoin="round" stroke-dasharray="" stroke-width="0.25" />

<path d="M 283.000000,474.998000  a 10.500000,2.000000 0 0,1 21.000000,0 " fill="transparent" fill-opacity="0.95" stroke="#1D501E" stroke-linejoin="round" stroke-dasharray="4 1" stroke-width="0.12" />

<path d="M 312.000000,350.003100  v 124.994900 a 3.500000,2.000000 0 0,0 7.000000,0  v -124.994900 a 3.500000,2.000000 0 0,0 -7.000000,0  a 3.500000,2.000000 0 0,0 7.000000,0 " fill="#0000ff" fill-opacity="0.95" stroke="#00C" stroke-linejoin="round" stroke-dasharray="" stroke-width="0.50" />

<path d="M 312.000000,474.998000  a 3.500000,2.000000 0 0,1 7.000000,0 " fill="transparent" fill-opacity="0.95" stroke="#00C" stroke-linejoin="round" stroke-dasharray="4 1" stroke-width="0.25" />

<path d="M 327.000000,350.003100  v 124.994900 a 3.500000,2.000000 0 0,0 7.000000,0  v -124.994900 a 3.500000,2.000000 0 0,0 -7.000000,0  a 3.500000,2.000000 0 0,0 7.000000,0 " fill="#ff5500" fill-opacity="0.95" stroke="#C40" stroke-linejoin="round" stroke-dasharray="" stroke-width="0.50" />

<path d="M 327.000000,474.998000  a 3.500000,2.000000 0 0,1 7.000000,0 " fill="transparent" fill-opacity="0.95" stroke="#C40" stroke-linejoin="round" stroke-dasharray="4 1" stroke-width="0.25" />

<polygon points="221.00,100.00 221.00,225.00 283.00,475.00 283.00,350.00" fill="#3BA03C" stroke="#3BA03C" stroke-width="1" stroke-opacity="0.4" fill-opacity="0.4" />

<path d="M 200.000000,474.999400  v 125.000500 a 10.500000,2.000000 0 0,0 21.000000,0  v -125.000500 a 10.500000,2.000000 0 0,0 -21.000000,0  a 10.500000,2.000000 0 0,0 21.000000,0 " fill="#3B9FA0" fill-opacity="0.95" stroke="#1D4F50" stroke-linejoin="round" stroke-dasharray="" stroke-width="0.25" />

<path d="M 200.000000,599.999900  a 10.500000,2.000000 0 0,1 21.000000,0 " fill="transparent" fill-opacity="0.95" stroke="#1D4F50" stroke-linejoin="round" stroke-dasharray="4 1" stroke-width="0.12" />

<path d="M 185.000000,474.999400  v 125.000500 a 3.500000,2.000000 0 0,0 7.000000,0  v -125.000500 a 3.500000,2.000000 0 0,0 -7.000000,0  a 3.500000,2.000000 0 0,0 7.000000,0 " fill="#0000ff" fill-opacity="0.95" stroke="#00C" stroke-linejoin="round" stroke-dasharray="" stroke-width="0.50" />

<path d="M 185.000000,599.999900  a 3.500000,2.000000 0 0,1 7.000000,0 " fill="transparent" fill-opacity="0.95" stroke="#00C" stroke-linejoin="round" stroke-dasharray="4 1" stroke-width="0.25" />

<path d="M 170.000000,474.999400  v 125.000500 a 3.500000,2.000000 0 0,0 7.000000,0  v -125.000500 a 3.500000,2.000000 0 0,0 -7.000000,0  a 3.500000,2.000000 0 0,0 7.000000,0 " fill="#ff0000" fill-opacity="0.95" stroke="#C00" stroke-linejoin="round" stroke-dasharray="" stroke-width="0.50" />

<path d="M 170.000000,599.999900  a 3.500000,2.000000 0 0,1 7.000000,0 " fill="transparent" fill-opacity="0.95" stroke="#C00" stroke-linejoin="round" stroke-dasharray="4 1" stroke-width="0.25" />

<path d="M 283.000000,474.999700  v 125.000200 a 10.500000,2.000000 0 0,0 21.000000,0  v -125.000200 a 10.500000,2.000000 0 0,0 -21.000000,0  a 10.500000,2.000000 0 0,0 21.000000,0 " fill="#3B9FA0" fill-opacity="0.95" stroke="#1D4F50" stroke-linejoin="round" stroke-dasharray="" stroke-width="0.25" />

<path d="M 283.000000,599.999900  a 10.500000,2.000000 0 0,1 21.000000,0 " fill="transparent" fill-opacity="0.95" stroke="#1D4F50" stroke-linejoin="round" stroke-dasharray="4 1" stroke-width="0.12" />

<path d="M 283.000000,474.999700  v 125.000200 a 10.500000,2.000000 0 0,0 21.000000,0  v -125.000200 a 10.500000,2.000000 0 0,0 -21.000000,0  a 10.500000,2.000000 0 0,0 21.000000,0 " fill="url(#Wavy)" fill-opacity="0.95" stroke="#1D4F50" stroke-linejoin="round" stroke-dasharray="" stroke-width="0.25" />

<path d="M 283.000000,599.999900  a 10.500000,2.000000 0 0,1 21.000000,0 " fill="transparent" fill-opacity="0.95" stroke="#1D4F50" stroke-linejoin="round" stroke-dasharray="4 1" stroke-width="0.12" />

<path d="M 312.000000,474.999700  v 125.000200 a 3.500000,2.000000 0 0,0 7.000000,0  v -125.000200 a 3.500000,2.000000 0 0,0 -7.000000,0  a 3.500000,2.000000 0 0,0 7.000000,0 " fill="#0000ff" fill-opacity="0.95" stroke="#00C" stroke-linejoin="round" stroke-dasharray="" stroke-width="0.50" />

<path d="M 312.000000,599.999900  a 3.500000,2.000000 0 0,1 7.000000,0 " fill="transparent" fill-opacity="0.95" stroke="#00C" stroke-linejoin="round" stroke-dasharray="4 1" stroke-width="0.25" />

<path d="M 327.000000,474.999700  v 125.000200 a 3.500000,2.000000 0 0,0 7.000000,0  v -125.000200 a 3.500000,2.000000 0 0,0 -7.000000,0  a 3.500000,2.000000 0 0,0 7.000000,0 " fill="#ff0000" fill-opacity="0.95" stroke="#C00" stroke-linejoin="round" stroke-dasharray="" stroke-width="0.50" />

<path d="M 327.000000,599.999900  a 3.500000,2.000000 0 0,1 7.000000,0 " fill="transparent" fill-opacity="0.95" stroke="#C00" stroke-linejoin="round" stroke-dasharray="4 1" stroke-width="0.25" />

<polygon points="221.00,475.00 221.00,600.00 283.00,475.00 283.00,600.00" fill="#3B9FA0" stroke="#3B9FA0" stroke-width="1" stroke-opacity="0.4" fill-opacity="0.4" />

<path d="M 200.000000,100.000000  v 500.000000 a 10.500000,2.000000 0 0,0 21.000000,0  v -500.000000 a 10.500000,2.000000 0 0,0 -21.000000,0  a 10.500000,2.000000 0 0,0 21.000000,0 " fill="transparent" fill-opacity="0.8" stroke="black" stroke-linejoin="round" stroke-dasharray="" stroke-width="2.00" />

<path d="M 200.000000,600.000000  a 10.500000,2.000000 0 0,1 21.000000,0 " fill="transparent" fill-opacity="0.8" stroke="black" stroke-linejoin="round" stroke-dasharray="4 1" stroke-width="1.00" />

<path d="M 283.000000,100.000000  v 500.000000 a 10.500000,2.000000 0 0,0 21.000000,0  v -500.000000 a 10.500000,2.000000 0 0,0 -21.000000,0  a 10.500000,2.000000 0 0,0 21.000000,0 " fill="transparent" fill-opacity="0.8" stroke="black" stroke-linejoin="round" stroke-dasharray="" stroke-width="2.00" />

<path d="M 283.000000,600.000000  a 10.500000,2.000000 0 0,1 21.000000,0 " fill="transparent" fill-opacity="0.8" stroke="black" stroke-linejoin="round" stroke-dasharray="4 1" stroke-width="1.00" />

<text id="252.00000024.000000" x="252.00" y="24.00" dx="0" dy="-2" dominant-baseline="text-after-edge" transform="" font-size="9px" font-weight="normal" font-family="Arial" fill="black" text-align="start" line-height="125%%" text-anchor="middle" >RELATIVE REDUNDANCY</text>

<text id="252.00000036.000000" x="252.00" y="36.00" dx="0" dy="2" dominant-baseline="text-before-edge" transform="" font-size="9px" font-weight="normal" font-family="Arial" fill="black" text-align="start" line-height="125%%" text-anchor="middle" >REDUNDANCY</text>

<defs >
<linearGradient id="grad170.00000024.000000" x1="0%" y1="0%" x2="100%" y2="0%" >
<stop offset="0%" stop-color="#0000ff" stop-opacity="1" />

<stop offset="8%" stop-color="#0055ff" stop-opacity="1" />

<stop offset="16%" stop-color="#00aaff" stop-opacity="1" />

<stop offset="25%" stop-color="#00ffff" stop-opacity="1" />

<stop offset="33%" stop-color="#00ffaa" stop-opacity="1" />

<stop offset="41%" stop-color="#00ff55" stop-opacity="1" />

<stop offset="50%" stop-color="#00ff00" stop-opacity="1" />

<stop offset="58%" stop-color="#55ff00" stop-opacity="1" />

<stop offset="66%" stop-color="#aaff00" stop-opacity="1" />

<stop offset="75%" stop-color="#ffff00" stop-opacity="1" />

<stop offset="83%" stop-color="#ffaa00" stop-opacity="1" />

<stop offset="91%" stop-color="#ff5500" stop-opacity="1" />

<stop offset="100%" stop-color="#ff0000" stop-opacity="1" />
</linearGradient>
</defs>

<rect fill="url(#grad170.00000024.000000)" width="164.00" height="12.00" x="170.00" y="24.00" ry="3" />

<text id="168.00000030.000000" x="168.00" y="30.00" dx="-2" dy="0" dominant-baseline="middle" transform="" font-size="9px" font-weight="normal" font-family="Arial" fill="black" text-align="start" line-height="125%%" text-anchor="end" >0.0</text>

<text id="211.00000030.000000" x="211.00" y="30.00" dx="0" dy="0" dominant-baseline="middle" transform="" font-size="9px" font-weight="normal" font-family="Arial" fill="black" text-align="start" line-height="125%%" text-anchor="middle" >0.5</text>

<text id="252.00000030.000000" x="252.00" y="30.00" dx="0" dy="0" dominant-baseline="middle" transform="" font-size="9px" font-weight="normal" font-family="Arial" fill="black" text-align="start" line-height="125%%" text-anchor="middle" >1.0</text>

<text id="293.00000030.000000" x="293.00" y="30.00" dx="0" dy="0" dominant-baseline="middle" transform="" font-size="9px" font-weight="normal" font-family="Arial" fill="black" text-align="start" line-height="125%%" text-anchor="middle" >1.5</text>

<text id="336.00000030.000000" x="336.00" y="30.00" dx="2" dy="0" dominant-baseline="middle" transform="" font-size="9px" font-weight="normal" font-family="Arial" fill="black" text-align="start" line-height="125%%" text-anchor="start" >2.0</text>

<path d="M 188.500000,599.999900 v 20.000100 h 12.400000" fill="transparent" fill-opacity="0.8" stroke="black" stroke-linejoin="round" stroke-dasharray="8 3" stroke-width="1.00" />

<path d="M 315.500000,599.999900 v 20.000100 h -12.400000" fill="transparent" fill-opacity="0.8" stroke="black" stroke-linejoin="round" stroke-dasharray="8 3" stroke-width="1.00" />

<text id="252.000000620.000000" x="252.00" y="620.00" dx="0" dy="0" dominant-baseline="middle" transform="" font-size="9px" font-weight="normal" font-family="Arial" fill="black" text-align="start" line-height="125%%" text-anchor="middle" >Relative Redundancy</text>

<path d="M 173.500000,599.999900 v 35.000100 h 42.400000" fill="transparent" fill-opacity="0.8" stroke="black" stroke-linejoin="round" stroke-dasharray="8 3" stroke-width="1.00" />

<path d="M 330.500000,599.999900 v 35.000100 h -42.400000" fill="transparent" fill-opacity="0.8" stroke="black" stroke-linejoin="round" stroke-dasharray="8 3" stroke-width="1.00" />

<text id="252.000000635.000000" x="252.00" y="635.00" dx="0" dy="0" dominant-baseline="middle" transform="" font-size="9px" font-weight="normal" font-family="Arial" fill="black" text-align="start" line-height="125%%" text-anchor="middle" >Redundancy</text>
</svg>