<?xml version="1.0" encoding="UTF-8" standalone="no"?>
<!-- Morteza Hosseini, IEETA 2018-2019 -->
<svg xmlns="http://www.w3.org/2000/svg" xmlns:xlink="http://www.w3.org/1999/xlink" width="504.00" height="650.00" >
<defs id="" >
<pattern id="Wavy" x="-10.50" y="0.00" width="21.00" height="7.00" patternUnits="userSpaceOnUse" >
<path id="" d="m 0.00,0.00
a 10.50,2.00 0.00 0,0 21.00,0.00
" fill="transparent" fill-opacity="0.90" stroke="black" stroke-opacity="1.00" stroke-linejoin="round" stroke-width="1.00" />
</pattern>
</defs>
<defs id="" >
<pattern id="WavyWhite" x="-10.50" y="0.00" width="21.00" height="7.00" patternUnits="userSpaceOnUse" >
<path id="" d="m 0.00,0.00
a 10.50,2.00 0.00 0,0 21.00,0.00
" fill="transparent" fill-opacity="0.90" stroke="white" stroke-opacity="1.00" stroke-linejoin="round" stroke-width="1.00" />
</pattern>
</defs>
<rect x="0.00" y="0.00" width="504.00" height="650.00" ry="1.00" fill="white" fill-opacity="1.00" stroke="white" stroke-width="0.00" />
<text id="210.50000085.000000" x="210.50" y="85.00" dominant-baseline="middle" font-size="12px" font-weight="bold" font-family="" text-anchor="middle" text-align="start" line-height="125%%" >
RefM</text>
<text id="293.50000085.000000" x="293.50" y="85.00" dominant-baseline="middle" font-size="12px" font-weight="bold" font-family="" text-anchor="middle" text-align="start" line-height="125%%" >
TarM</text>
<text id="161.000000100.080002" x="161.00" y="100.08" dominant-baseline="text-before-edge" font-size="9px" font-family="Arial" text-anchor="end" text-align="start" line-height="125%%" >
<tspan id="3" style="fill:#A03B65">16</tspan>
</text>
<text id="161.000000225.029999" x="161.00" y="225.03" dominant-baseline="middle" font-size="9px" font-family="Arial" text-anchor="end" text-align="start" line-height="125%%" >
<tspan id="3" style="fill:#A03B65">25012, </tspan>
<tspan id="4" style="fill:#6EA03B">25000</tspan>
</text>
<text id="161.000000350.045013" x="161.00" y="350.05" dominant-baseline="text-after-edge" font-size="9px" font-family="Arial" text-anchor="end" text-align="start" line-height="125%%" >
<tspan id="4" style="fill:#6EA03B">50009</tspan>
</text>
<text id="161.000000350.204987" x="161.00" y="350.20" dominant-baseline="text-before-edge" font-size="9px" font-family="Arial" text-anchor="end" text-align="start" line-height="125%%" >
<tspan id="2" style="fill:#3B56A0">50041</tspan>
</text>
<text id="161.000000599.994995" x="161.00" y="599.99" dominant-baseline="text-after-edge" font-size="9px" font-family="Arial" text-anchor="end" text-align="start" line-height="125%%" >
<tspan id="2" style="fill:#3B56A0">99999</tspan>
</text>
<text id="343.000000100.000000" x="343.00" y="100.00" dominant-baseline="text-before-edge" font-size="9px" font-family="Arial" text-anchor="start" text-align="start" line-height="125%%" >
<tspan id="4" style="fill:#6EA03B">0</tspan>
</text>
<text id="343.000000225.044998" x="343.00" y="225.04" dominant-baseline="text-after-edge" font-size="9px" font-family="Arial" text-anchor="start" text-align="start" line-height="125%%" >
<tspan id="4" style="fill:#6EA03B">25009</tspan>
</text>
<text id="343.000000225.134995" x="343.00" y="225.13" dominant-baseline="text-before-edge" font-size="9px" font-family="Arial" text-anchor="start" text-align="start" line-height="125%%" >
<tspan id="2" style="fill:#3B56A0">25027</tspan>
</text>
<text id="343.000000474.980011" x="343.00" y="474.98" dominant-baseline="text-after-edge" font-size="9px" font-family="Arial" text-anchor="start" text-align="start" line-height="125%%" >
<tspan id="2" style="fill:#3B56A0">74996</tspan>
</text>
<text id="343.000000475.084991" x="343.00" y="475.08" dominant-baseline="text-before-edge" font-size="9px" font-family="Arial" text-anchor="start" text-align="start" line-height="125%%" >
<tspan id="3" style="fill:#A03B65">75017</tspan>
</text>
<text id="343.000000599.994995" x="343.00" y="599.99" dominant-baseline="text-after-edge" font-size="9px" font-family="Arial" text-anchor="start" text-align="start" line-height="125%%" >
<tspan id="3" style="fill:#A03B65">99999</tspan>
</text>
<defs id="" >
<linearGradient id="grad200.000000350.204987" x1="0%" y1="0%" x2="100%" y2="0%" >
<stop offset="30%" stop-color="#2C4078" stop-opacity="1.00" />
<stop offset="100%" stop-color="#3B56A0" stop-opacity="1.00" />
</linearGradient>
</defs>
<path id="200.000000350.204987" d="M 200.00,350.20
v 249.79
a 10.50,2.00 0.00 0,0 21.00,0.00
v -249.79
a 10.50,2.00 0.00 0,1 -21.00,0.00
" fill="url(#grad200.000000350.204987)" fill-opacity="1.00" stroke="#1D2B50" stroke-opacity="1.00" stroke-linejoin="round" stroke-width="0.75" />
<ellipse cx="210.50" cy="350.20" rx="10.69" ry="2.00" stroke-width="0.38" fill-opacity="1.00" stroke-opacity="1.00" stroke="#1D2B50" fill="url(#grad200.000000350.204987)" />
<ellipse cx="210.50" cy="599.99" rx="10.69" ry="2.00" stroke-width="0.38" fill-opacity="1.00" stroke-opacity="1.00" stroke="#1D2B50" fill="transparent" />
<defs id="" >
<linearGradient id="grad200.000000350.204987NRC" x1="0%" y1="0%" x2="100%" y2="0%" >
<stop offset="30%" stop-color="#3333CC" stop-opacity="1.00" />
<stop offset="100%" stop-color="#0000ff" stop-opacity="1.00" />
</linearGradient>
</defs>
<path id="185.000000350.204987" d="M 185.00,350.20
v 249.79
a 3.50,1.00 0.00 0,0 7.00,0.00
v -249.79
a 3.50,1.00 0.00 0,1 -7.00,0.00
" fill="url(#grad200.000000350.204987NRC)" fill-opacity="1.00" stroke="#00A" stroke-opacity="1.00" stroke-linejoin="round" stroke-width="1.40" />
<ellipse cx="188.50" cy="350.20" rx="3.85" ry="1.00" stroke-width="0.70" fill-opacity="1.00" stroke-opacity="1.00" stroke="#00A" fill="url(#grad200.000000350.204987NRC)" />
<ellipse cx="188.50" cy="599.99" rx="3.85" ry="1.00" stroke-width="0.70" fill-opacity="1.00" stroke-opacity="1.00" stroke="#00A" fill="transparent" />
<defs id="" >
<linearGradient id="grad200.000000350.204987NRCRedun" x1="0%" y1="0%" x2="100%" y2="0%" >
<stop offset="30%" stop-color="#CC3333" stop-opacity="1.00" />
<stop offset="100%" stop-color="#ff0000" stop-opacity="1.00" />
</linearGradient>
</defs>
<path id="170.000000350.204987" d="M 170.00,350.20
v 249.79
a 3.50,1.00 0.00 0,0 7.00,0.00
v -249.79
a 3.50,1.00 0.00 0,1 -7.00,0.00
" fill="url(#grad200.000000350.204987NRCRedun)" fill-opacity="1.00" stroke="#C00" stroke-opacity="1.00" stroke-linejoin="round" stroke-width="1.40" />
<ellipse cx="173.50" cy="350.20" rx="3.85" ry="1.00" stroke-width="0.70" fill-opacity="1.00" stroke-opacity="1.00" stroke="#C00" fill="url(#grad200.000000350.204987NRCRedun)" />
<ellipse cx="173.50" cy="599.99" rx="3.85" ry="1.00" stroke-width="0.70" fill-opacity="1.00" stroke-opacity="1.00" stroke="#C00" fill="transparent" />
<defs id="" >
<linearGradient id="grad283.000000225.134995" x1="0%" y1="0%" x2="100%" y2="0%" >
<stop offset="30%" stop-color="#2C4078" stop-opacity="1.00" />
<stop offset="100%" stop-color="#3B56A0" stop-opacity="1.00" />
</linearGradient>
</defs>
<path id="283.000000225.134995" d="M 283.00,225.13
v 249.85
a 10.50,2.00 0.00 0,0 21.00,0.00
v -249.85
a 10.50,2.00 0.00 0,1 -21.00,0.00
" fill="url(#grad283.000000225.134995)" fill-opacity="1.00" stroke="#1D2B50" stroke-opacity="1.00" stroke-linejoin="round" stroke-width="0.75" />
<ellipse cx="293.50" cy="225.13" rx="10.69" ry="2.00" stroke-width="0.38" fill-opacity="1.00" stroke-opacity="1.00" stroke="#1D2B50" fill="url(#grad283.000000225.134995)" />
<ellipse cx="293.50" cy="474.98" rx="10.69" ry="2.00" stroke-width="0.38" fill-opacity="1.00" stroke-opacity="1.00" stroke="#1D2B50" fill="transparent" />
<defs id="" >
<linearGradient id="grad283.000000225.134995NRC" x1="0%" y1="0%" x2="100%" y2="0%" >
<stop offset="30%" stop-color="#3333CC" stop-opacity="1.00" />
<stop offset="100%" stop-color="#0000ff" stop-opacity="1.00" />
</linearGradient>
</defs>
<path id="312.000000225.134995" d="M 312.00,225.13
v 249.85
a 3.50,1.00 0.00 0,0 7.00,0.00
v -249.85
a 3.50,1.00 0.00 0,1 -7.00,0.00
" fill="url(#grad283.000000225.134995NRC)" fill-opacity="1.00" stroke="#00A" stroke-opacity="1.00" stroke-linejoin="round" stroke-width="1.40" />
<ellipse cx="315.50" cy="225.13" rx="3.85" ry="1.00" stroke-width="0.70" fill-opacity="1.00" stroke-opacity="1.00" stroke="#00A" fill="url(#grad283.000000225.134995NRC)" />
<ellipse cx="315.50" cy="474.98" rx="3.85" ry="1.00" stroke-width="0.70" fill-opacity="1.00" stroke-opacity="1.00" stroke="#00A" fill="transparent" />
<defs id="" >
<linearGradient id="grad283.000000225.134995NRCRedun" x1="0%" y1="0%" x2="100%" y2="0%" >
<stop offset="30%" stop-color="#CC3333" stop-opacity="1.00" />
<stop offset="100%" stop-color="#ff0000" stop-opacity="1.00" />
</linearGradient>
</defs>
<path id="327.000000225.134995" d="M 327.00,225.13
v 249.85
a 3.50,1.00 0.00 0,0 7.00,0.00
v -249.85
a 3.50,1.00 0.00 0,1 -7.00,0.00
" fill="url(#grad283.000000225.134995NRCRedun)" fill-opacity="1.00" stroke="#C00" stroke-opacity="1.00" stroke-linejoin="round" stroke-width="1.40" />
<ellipse cx="330.50" cy="225.13" rx="3.85" ry="1.00" stroke-width="0.70" fill-opacity="1.00" stroke-opacity="1.00" stroke="#C00" fill="url(#grad283.000000225.134995NRCRedun)" />
<ellipse cx="330.50" cy="474.98" rx="3.85" ry="1.00" stroke-width="0.70" fill-opacity="1.00" stroke-opacity="1.00" stroke="#C00" fill="transparent" />
<polygon points="221.00,350.20 221.00,599.99 283.00,474.98 283.00,225.13 " fill="#3B56A0" stroke="#3B56A0" stroke-width="1.00" stroke-opacity="0.50" fill-opacity="0.50" />
<defs id="" >
<linearGradient id="grad200.000000225.000000" x1="0%" y1="0%" x2="100%" y2="0%" >
<stop offset="30%" stop-color="#52782C" stop-opacity="1.00" />
<stop offset="100%" stop-color="#6EA03B" stop-opacity="1.00" />
</linearGradient>
</defs>
<path id="200.000000225.000000" d="M 200.00,225.00
v 125.04
a 10.50,2.00 0.00 0,0 21.00,0.00
v -125.04
a 10.50,2.00 0.00 0,1 -21.00,0.00
" fill="url(#grad200.000000225.000000)" fill-opacity="1.00" stroke="#37501D" stroke-opacity="1.00" stroke-linejoin="round" stroke-width="0.75" />
<ellipse cx="210.50" cy="225.00" rx="10.69" ry="2.00" stroke-width="0.38" fill-opacity="1.00" stroke-opacity="1.00" stroke="#37501D" fill="url(#grad200.000000225.000000)" />
<ellipse cx="210.50" cy="350.04" rx="10.69" ry="2.00" stroke-width="0.38" fill-opacity="1.00" stroke-opacity="1.00" stroke="#37501D" fill="transparent" />
<defs id="" >
<linearGradient id="grad200.000000225.000000NRC" x1="0%" y1="0%" x2="100%" y2="0%" >
<stop offset="30%" stop-color="#3333CC" stop-opacity="1.00" />
<stop offset="100%" stop-color="#0000ff" stop-opacity="1.00" />
</linearGradient>
</defs>
<path id="185.000000225.000000" d="M 185.00,225.00
v 125.04
a 3.50,1.00 0.00 0,0 7.00,0.00
v -125.04
a 3.50,1.00 0.00 0,1 -7.00,0.00
" fill="url(#grad200.000000225.000000NRC)" fill-opacity="1.00" stroke="#00A" stroke-opacity="1.00" stroke-linejoin="round" stroke-width="1.40" />
<ellipse cx="188.50" cy="225.00" rx="3.85" ry="1.00" stroke-width="0.70" fill-opacity="1.00" stroke-opacity="1.00" stroke="#00A" fill="url(#grad200.000000225.000000NRC)" />
<ellipse cx="188.50" cy="350.04" rx="3.85" ry="1.00" stroke-width="0.70" fill-opacity="1.00" stroke-opacity="1.00" stroke="#00A" fill="transparent" />
<defs id="" >
<linearGradient id="grad200.000000225.000000NRCRedun" x1="0%" y1="0%" x2="100%" y2="0%" >
<stop offset="30%" stop-color="#CC3333" stop-opacity="1.00" />
<stop offset="100%" stop-color="#ff0000" stop-opacity="1.00" />
</linearGradient>
</defs>
<path id="170.000000225.000000" d="M 170.00,225.00
v 125.04
a 3.50,1.00 0.00 0,0 7.00,0.00
v -125.04
a 3.50,1.00 0.00 0,1 -7.00,0.00
" fill="url(#grad200.000000225.000000NRCRedun)" fill-opacity="1.00" stroke="#C00" stroke-opacity="1.00" stroke-linejoin="round" stroke-width="1.40" />
<ellipse cx="173.50" cy="225.00" rx="3.85" ry="1.00" stroke-width="0.70" fill-opacity="1.00" stroke-opacity="1.00" stroke="#C00" fill="url(#grad200.000000225.000000NRCRedun)" />
<ellipse cx="173.50" cy="350.04" rx="3.85" ry="1.00" stroke-width="0.70" fill-opacity="1.00" stroke-opacity="1.00" stroke="#C00" fill="transparent" />
<defs id="" >
<linearGradient id="grad283.000000100.000000" x1="0%" y1="0%" x2="100%" y2="0%" >
<stop offset="30%" stop-color="#52782C" stop-opacity="1.00" />
<stop offset="100%" stop-color="#6EA03B" stop-opacity="1.00" />
</linearGradient>
</defs>
<path id="283.000000100.000000" d="M 283.00,100.00
v 125.04
a 10.50,2.00 0.00 0,0 21.00,0.00
v -125.04
a 10.50,2.00 0.00 0,1 -21.00,0.00
" fill="url(#grad283.000000100.000000)" fill-opacity="1.00" stroke="#37501D" stroke-opacity="1.00" stroke-linejoin="round" stroke-width="0.75" />
<ellipse cx="293.50" cy="100.00" rx="10.69" ry="2.00" stroke-width="0.38" fill-opacity="1.00" stroke-opacity="1.00" stroke="#37501D" fill="url(#grad283.000000100.000000)" />
<ellipse cx="293.50" cy="225.04" rx="10.69" ry="2.00" stroke-width="0.38" fill-opacity="1.00" stroke-opacity="1.00" stroke="#37501D" fill="transparent" />
<path id="283.000000100.000000" d="M 283.00,100.00
v 125.04
a 10.50,2.00 0.00 0,0 21.00,0.00
v -125.04
a 10.50,2.00 0.00 0,1 -21.00,0.00
" fill="url(#Wavy)" fill-opacity="1.00" stroke="#37501D" stroke-opacity="1.00" stroke-linejoin="round" stroke-width="0.75" />
<ellipse cx="293.50" cy="100.00" rx="10.69" ry="2.00" stroke-width="0.38" fill-opacity="1.00" stroke-opacity="1.00" stroke="#37501D" fill="url(#Wavy)" />
<ellipse cx="293.50" cy="225.04" rx="10.69" ry="2.00" stroke-width="0.38" fill-opacity="1.00" stroke-opacity="1.00" stroke="#37501D" fill="transparent" />
<defs id="" >
<linearGradient id="grad283.000000100.000000NRC" x1="0%" y1="0%" x2="100%" y2="0%" >
<stop offset="30%" stop-color="#3333CC" stop-opacity="1.00" />
<stop offset="100%" stop-color="#0000ff" stop-opacity="1.00" />
</linearGradient>
</defs>
<path id="312.000000100.000000" d="M 312.00,100.00
v 125.04
a 3.50,1.00 0.00 0,0 7.00,0.00
v -125.04
a 3.50,1.00 0.00 0,1 -7.00,0.00
" fill="url(#grad283.000000100.000000NRC)" fill-opacity="1.00" stroke="#00A" stroke-opacity="1.00" stroke-linejoin="round" stroke-width="1.40" />
<ellipse cx="315.50" cy="100.00" rx="3.85" ry="1.00" stroke-width="0.70" fill-opacity="1.00" stroke-opacity="1.00" stroke="#00A" fill="url(#grad283.000000100.000000NRC)" />
<ellipse cx="315.50" cy="225.04" rx="3.85" ry="1.00" stroke-width="0.70" fill-opacity="1.00" stroke-opacity="1.00" stroke="#00A" fill="transparent" />
<defs id="" >
<linearGradient id="grad283.000000100.000000NRCRedun" x1="0%" y1="0%" x2="100%" y2="0%" >
<stop offset="30%" stop-color="#CC3333" stop-opacity="1.00" />
<stop offset="100%" stop-color="#ff0000" stop-opacity="1.00" />
</linearGradient>
</defs>
<path id="327.000000100.000000" d="M 327.00,100.00
v 125.04
a 3.50,1.00 0.00 0,0 7.00,0.00
v -125.04
a 3.50,1.00 0.00 0,1 -7.00,0.00
" fill="url(#grad283.000000100.000000NRCRedun)" fill-opacity="1.00" stroke="#C00" stroke-opacity="1.00" stroke-linejoin="round" stroke-width="1.40" />
<ellipse cx="330.50" cy="100.00" rx="3.85" ry="1.00" stroke-width="0.70" fill-opacity="1.00" stroke-opacity="1.00" stroke="#C00" fill="url(#grad283.000000100.000000NRCRedun)" />
<ellipse cx="330.50" cy="225.04" rx="3.85" ry="1.00" stroke-width="0.70" fill-opacity="1.00" stroke-opacity="1.00" stroke="#C00" fill="transparent" />
<polygon points="221.00,225.00 221.00,350.05 283.00,100.00 283.00,225.04 " fill="#6EA03B" stroke="#6EA03B" stroke-width="1.00" stroke-opacity="0.50" fill-opacity="0.50" />
<defs id="" >
<linearGradient id="grad200.000000100.080002" x1="0%" y1="0%" x2="100%" y2="0%" >
<stop offset="30%" stop-color="#782C4B" stop-opacity="1.00" />
<stop offset="100%" stop-color="#A03B65" stop-opacity="1.00" />
</linearGradient>
</defs>
<path id="200.000000100.080002" d="M 200.00,100.08
v 124.98
a 10.50,2.00 0.00 0,0 21.00,0.00
v -124.98
a 10.50,2.00 0.00 0,1 -21.00,0.00
" fill="url(#grad200.000000100.080002)" fill-opacity="1.00" stroke="#501D32" stroke-opacity="1.00" stroke-linejoin="round" stroke-width="0.75" />
<ellipse cx="210.50" cy="100.08" rx="10.69" ry="2.00" stroke-width="0.38" fill-opacity="1.00" stroke-opacity="1.00" stroke="#501D32" fill="url(#grad200.000000100.080002)" />
<ellipse cx="210.50" cy="225.06" rx="10.69" ry="2.00" stroke-width="0.38" fill-opacity="1.00" stroke-opacity="1.00" stroke="#501D32" fill="transparent" />
<defs id="" >
<linearGradient id="grad200.000000100.080002NRC" x1="0%" y1="0%" x2="100%" y2="0%" >
<stop offset="30%" stop-color="#3333CC" stop-opacity="1.00" />
<stop offset="100%" stop-color="#0000ff" stop-opacity="1.00" />
</linearGradient>
</defs>
<path id="185.000000100.080002" d="M 185.00,100.08
v 124.98
a 3.50,1.00 0.00 0,0 7.00,0.00
v -124.98
a 3.50,1.00 0.00 0,1 -7.00,0.00
" fill="url(#grad200.000000100.080002NRC)" fill-opacity="1.00" stroke="#00A" stroke-opacity="1.00" stroke-linejoin="round" stroke-width="1.40" />
<ellipse cx="188.50" cy="100.08" rx="3.85" ry="1.00" stroke-width="0.70" fill-opacity="1.00" stroke-opacity="1.00" stroke="#00A" fill="url(#grad200.000000100.080002NRC)" />
<ellipse cx="188.50" cy="225.06" rx="3.85" ry="1.00" stroke-width="0.70" fill-opacity="1.00" stroke-opacity="1.00" stroke="#00A" fill="transparent" />
<defs id="" >
<linearGradient id="grad200.000000100.080002NRCRedun" x1="0%" y1="0%" x2="100%" y2="0%" >
<stop offset="30%" stop-color="#CC3333" stop-opacity="1.00" />
<stop offset="100%" stop-color="#ff0000" stop-opacity="1.00" />
</linearGradient>
</defs>
<path id="170.000000100.080002" d="M 170.00,100.08
v 124.98
a 3.50,1.00 0.00 0,0 7.00,0.00
v -124.98
a 3.50,1.00 0.00 0,1 -7.00,0.00
" fill="url(#grad200.000000100.080002NRCRedun)" fill-opacity="1.00" stroke="#C00" stroke-opacity="1.00" stroke-linejoin="round" stroke-width="1.40" />
<ellipse cx="173.50" cy="100.08" rx="3.85" ry="1.00" stroke-width="0.70" fill-opacity="1.00" stroke-opacity="1.00" stroke="#C00" fill="url(#grad200.000000100.080002NRCRedun)" />
<ellipse cx="173.50" cy="225.06" rx="3.85" ry="1.00" stroke-width="0.70" fill-opacity="1.00" stroke-opacity="1.00" stroke="#C00" fill="transparent" />
<defs id="" >
<linearGradient id="grad283.000000475.084991" x1="0%" y1="0%" x2="100%" y2="0%" >
<stop offset="30%" stop-color="#782C4B" stop-opacity="1.00" />
<stop offset="100%" stop-color="#A03B65" stop-opacity="1.00" />
</linearGradient>
</defs>
<path id="283.000000475.084991" d="M 283.00,475.08
v 124.91
a 10.50,2.00 0.00 0,0 21.00,0.00
v -124.91
a 10.50,2.00 0.00 0,1 -21.00,0.00
" fill="url(#grad283.000000475.084991)" fill-opacity="1.00" stroke="#501D32" stroke-opacity="1.00" stroke-linejoin="round" stroke-width="0.75" />
<ellipse cx="293.50" cy="475.08" rx="10.69" ry="2.00" stroke-width="0.38" fill-opacity="1.00" stroke-opacity="1.00" stroke="#501D32" fill="url(#grad283.000000475.084991)" />
<ellipse cx="293.50" cy="599.99" rx="10.69" ry="2.00" stroke-width="0.38" fill-opacity="1.00" stroke-opacity="1.00" stroke="#501D32" fill="transparent" />
<defs id="" >
<linearGradient id="grad283.000000475.084991NRC" x1="0%" y1="0%" x2="100%" y2="0%" >
<stop offset="30%" stop-color="#3333CC" stop-opacity="1.00" />
<stop offset="100%" stop-color="#0000ff" stop-opacity="1.00" />
</linearGradient>
</defs>
<path id="312.000000475.084991" d="M 312.00,475.08
v 124.91
a 3.50,1.00 0.00 0,0 7.00,0.00
v -124.91
a 3.50,1.00 0.00 0,1 -7.00,0.00
" fill="url(#grad283.000000475.084991NRC)" fill-opacity="1.00" stroke="#00A" stroke-opacity="1.00" stroke-linejoin="round" stroke-width="1.40" />
<ellipse cx="315.50" cy="475.08" rx="3.85" ry="1.00" stroke-width="0.70" fill-opacity="1.00" stroke-opacity="1.00" stroke="#00A" fill="url(#grad283.000000475.084991NRC)" />
<ellipse cx="315.50" cy="599.99" rx="3.85" ry="1.00" stroke-width="0.70" fill-opacity="1.00" stroke-opacity="1.00" stroke="#00A" fill="transparent" />
<defs id="" >
<linearGradient id="grad283.000000475.084991NRCRedun" x1="0%" y1="0%" x2="100%" y2="0%" >
<stop offset="30%" stop-color="#CC3333" stop-opacity="1.00" />
<stop offset="100%" stop-color="#ff0000" stop-opacity="1.00" />
</linearGradient>
</defs>
<path id="327.000000475.084991" d="M 327.00,475.08
v 124.91
a 3.50,1.00 0.00 0,0 7.00,0.00
v -124.91
a 3.50,1.00 0.00 0,1 -7.00,0.00
" fill="url(#grad283.000000475.084991NRCRedun)" fill-opacity="1.00" stroke="#C00" stroke-opacity="1.00" stroke-linejoin="round" stroke-width="1.40" />
<ellipse cx="330.50" cy="475.08" rx="3.85" ry="1.00" stroke-width="0.70" fill-opacity="1.00" stroke-opacity="1.00" stroke="#C00" fill="url(#grad283.000000475.084991NRCRedun)" />
<ellipse cx="330.50" cy="599.99" rx="3.85" ry="1.00" stroke-width="0.70" fill-opacity="1.00" stroke-opacity="1.00" stroke="#C00" fill="transparent" />
<polygon points="221.00,100.08 221.00,225.06 283.00,599.99 283.00,475.08 " fill="#A03B65" stroke="#A03B65" stroke-width="1.00" stroke-opacity="0.50" fill-opacity="0.50" />
<path id="200.000000100.000000" d="M 200.00,100.00
v 500.00
a 10.50,2.00 0.00 0,0 21.00,0.00
v -500.00
a 10.50,2.00 0.00 0,1 -21.00,0.00
" fill="transparent" fill-opacity="0.90" stroke="black" stroke-opacity="1.00" stroke-linejoin="round" stroke-width="2.00" />
<ellipse cx="210.50" cy="100.00" rx="11.00" ry="2.00" stroke-width="1.00" fill-opacity="0.90" stroke-opacity="1.00" stroke="black" fill="transparent" />
<ellipse cx="210.50" cy="600.00" rx="11.00" ry="2.00" stroke-width="1.00" fill-opacity="0.90" stroke-opacity="1.00" stroke="black" fill="transparent" />
<path id="283.000000100.000000" d="M 283.00,100.00
v 500.00
a 10.50,2.00 0.00 0,0 21.00,0.00
v -500.00
a 10.50,2.00 0.00 0,1 -21.00,0.00
" fill="transparent" fill-opacity="0.90" stroke="black" stroke-opacity="1.00" stroke-linejoin="round" stroke-width="2.00" />
<ellipse cx="293.50" cy="100.00" rx="11.00" ry="2.00" stroke-width="1.00" fill-opacity="0.90" stroke-opacity="1.00" stroke="black" fill="transparent" />
<ellipse cx="293.50" cy="600.00" rx="11.00" ry="2.00" stroke-width="1.00" fill-opacity="0.90" stroke-opacity="1.00" stroke="black" fill="transparent" />
<text id="252.00000024.000000" x="252.00" y="24.00" dy="-3.00" dominant-baseline="text-after-edge" font-size="9px" font-family="Arial" text-anchor="middle" text-align="start" line-height="125%%" >
RELATIVE REDUNDANCY</text>
<text id="252.00000036.000000" x="252.00" y="36.00" dy="3.00" dominant-baseline="text-before-edge" font-size="9px" font-family="Arial" text-anchor="middle" text-align="start" line-height="125%%" >
REDUNDANCY</text>
<defs id="" >
<linearGradient id="grad170.00000024.000000" x1="0%" y1="0%" x2="100%" y2="0%" >
<stop offset="0%" stop-color="#0000ff" stop-opacity="1.00" />
<stop offset="8%" stop-color="#0055ff" stop-opacity="1.00" />
<stop offset="16%" stop-color="#00aaff" stop-opacity="1.00" />
<stop offset="25%" stop-color="#00ffff" stop-opacity="1.00" />
<stop offset="33%" stop-color="#00ffaa" stop-opacity="1.00" />
<stop offset="41%" stop-color="#00ff55" stop-opacity="1.00" />
<stop offset="50%" stop-color="#00ff00" stop-opacity="1.00" />
<stop offset="58%" stop-color="#55ff00" stop-opacity="1.00" />
<stop offset="66%" stop-color="#aaff00" stop-opacity="1.00" />
<stop offset="75%" stop-color="#ffff00" stop-opacity="1.00" />
<stop offset="83%" stop-color="#ffaa00" stop-opacity="1.00" />
<stop offset="91%" stop-color="#ff5500" stop-opacity="1.00" />
<stop offset="100%" stop-color="#ff0000" stop-opacity="1.00" />
</linearGradient>
</defs>
<rect x="170.00" y="24.00" width="164.00" height="12.00" rx="51009.26" ry="1.00" fill="url(#grad170.00000024.000000)" fill-opacity="0.90" stroke="black" stroke-width="0.40" />
<text id="168.00000030.000000" x="168.00" y="30.00" dx="-2.50" dominant-baseline="middle" font-size="9px" font-weight="normal" font-family="Arial" text-anchor="end" text-align="start" line-height="125%%" >
0.0</text>
<text id="211.00000030.000000" x="211.00" y="30.00" dominant-baseline="middle" font-size="9px" font-weight="normal" font-family="Arial" text-anchor="middle" text-align="start" line-height="125%%" >
0.5</text>
<text id="252.00000030.000000" x="252.00" y="30.00" dominant-baseline="middle" font-size="9px" font-weight="normal" font-family="Arial" text-anchor="middle" text-align="start" line-height="125%%" >
1.0</text>
<text id="293.00000030.000000" x="293.00" y="30.00" dominant-baseline="middle" font-size="9px" font-weight="normal" font-family="Arial" text-anchor="middle" text-align="start" line-height="125%%" >
1.5</text>
<text id="336.00000030.000000" x="336.00" y="30.00" dx="2.50" dominant-baseline="middle" font-size="9px" font-weight="normal" font-family="Arial" text-anchor="start" text-align="start" line-height="125%%" >
2.0</text>
<path id="" d="M 188.50,599.99
v 20.00
h 12.40
" fill="transparent" fill-opacity="0.90" stroke="black" stroke-opacity="1.00" stroke-linejoin="round" stroke-dasharray="8 3" stroke-width="1.00" />
<path id="" d="M 315.50,599.99
v 20.00
h -12.40
" fill="transparent" fill-opacity="0.90" stroke="black" stroke-opacity="1.00" stroke-linejoin="round" stroke-dasharray="8 3" stroke-width="1.00" />
<text id="252.000000620.000000" x="252.00" y="620.00" dominant-baseline="middle" font-size="9px" font-family="Arial" text-anchor="middle" text-align="start" line-height="125%%" >
Relative Redundancy</text>
<path id="" d="M 173.50,599.99
v 35.01
h 42.40
" fill="transparent" fill-opacity="0.90" stroke="black" stroke-opacity="1.00" stroke-linejoin="round" stroke-dasharray="8 3" stroke-width="1.00" />
<path id="" d="M 330.50,599.99
v 35.01
h -42.40
" fill="transparent" fill-opacity="0.90" stroke="black" stroke-opacity="1.00" stroke-linejoin="round" stroke-dasharray="8 3" stroke-width="1.00" />
<text id="252.000000635.000000" x="252.00" y="635.00" dominant-baseline="middle" font-size="9px" font-family="Arial" text-anchor="middle" text-align="start" line-height="125%%" >
Redundancy</text>
</svg>