<?xml version="1.0" encoding="UTF-8" standalone="no"?>
<!-- Morteza Hosseini, IEETA 2018-2019 -->
<svg xmlns="http://www.w3.org/2000/svg" xmlns:xlink="http://www.w3.org/1999/xlink" width="605" height="294" >
<rect x="0" y="0" width="605" height="294" rx="1" ry="1" fill="white" fill-opacity="1" stroke="white" stroke-width="0" />
<line id="20.00000039.333332520.59997639.333332" x1="20" y1="39.3333" x2="520.6" y2="39.3333" stroke-width="0.8" stroke="black" />
<text id="20.00000047.333332" x="20" y="47.3333" dominant-baseline="middle" font-size="10px" font-weight="bold" font-family="Arial" text-anchor="start" text-align="start" line-height="125%%" >
bp</text>
<text id="20.00000031.333332" x="20" y="31.3333" dominant-baseline="middle" font-size="9px" font-weight="normal" font-family="Arial" text-anchor="start" text-align="start" line-height="125%%" >
0</text>
<line id="45.00000039.33333245.00000045.333332" x1="45" y1="39.3333" x2="45" y2="45.3333" stroke-width="0.8" stroke="black" />
<line id="70.00000039.33333270.00000048.333332" x1="70" y1="39.3333" x2="70" y2="48.3333" stroke-width="1.28" stroke="black" />
<text id="70.00000031.333332" x="70" y="31.3333" dominant-baseline="middle" font-size="9px" font-weight="normal" font-family="Arial" text-anchor="middle" text-align="start" line-height="125%%" >
10,000</text>
<line id="95.00000039.33333295.00000045.333332" x1="95" y1="39.3333" x2="95" y2="45.3333" stroke-width="0.8" stroke="black" />
<line id="120.00000039.333332120.00000048.333332" x1="120" y1="39.3333" x2="120" y2="48.3333" stroke-width="1.28" stroke="black" />
<text id="120.00000031.333332" x="120" y="31.3333" dominant-baseline="middle" font-size="9px" font-weight="normal" font-family="Arial" text-anchor="middle" text-align="start" line-height="125%%" >
20,000</text>
<line id="145.00000039.333332145.00000045.333332" x1="145" y1="39.3333" x2="145" y2="45.3333" stroke-width="0.8" stroke="black" />
<line id="170.00000039.333332170.00000048.333332" x1="170" y1="39.3333" x2="170" y2="48.3333" stroke-width="1.28" stroke="black" />
<text id="170.00000031.333332" x="170" y="31.3333" dominant-baseline="middle" font-size="9px" font-weight="normal" font-family="Arial" text-anchor="middle" text-align="start" line-height="125%%" >
30,000</text>
<line id="195.00000039.333332195.00000045.333332" x1="195" y1="39.3333" x2="195" y2="45.3333" stroke-width="0.8" stroke="black" />
<line id="220.00000039.333332220.00000048.333332" x1="220" y1="39.3333" x2="220" y2="48.3333" stroke-width="1.28" stroke="black" />
<text id="220.00000031.333332" x="220" y="31.3333" dominant-baseline="middle" font-size="9px" font-weight="normal" font-family="Arial" text-anchor="middle" text-align="start" line-height="125%%" >
40,000</text>
<line id="245.00000039.333332245.00000045.333332" x1="245" y1="39.3333" x2="245" y2="45.3333" stroke-width="0.8" stroke="black" />
<line id="270.00000039.333332270.00000048.333332" x1="270" y1="39.3333" x2="270" y2="48.3333" stroke-width="1.28" stroke="black" />
<text id="270.00000031.333332" x="270" y="31.3333" dominant-baseline="middle" font-size="9px" font-weight="normal" font-family="Arial" text-anchor="middle" text-align="start" line-height="125%%" >
50,000</text>
<line id="295.00000039.333332295.00000045.333332" x1="295" y1="39.3333" x2="295" y2="45.3333" stroke-width="0.8" stroke="black" />
<line id="320.00000039.333332320.00000048.333332" x1="320" y1="39.3333" x2="320" y2="48.3333" stroke-width="1.28" stroke="black" />
<text id="320.00000031.333332" x="320" y="31.3333" dominant-baseline="middle" font-size="9px" font-weight="normal" font-family="Arial" text-anchor="middle" text-align="start" line-height="125%%" >
60,000</text>
<line id="345.00000039.333332345.00000045.333332" x1="345" y1="39.3333" x2="345" y2="45.3333" stroke-width="0.8" stroke="black" />
<line id="370.00000039.333332370.00000048.333332" x1="370" y1="39.3333" x2="370" y2="48.3333" stroke-width="1.28" stroke="black" />
<text id="370.00000031.333332" x="370" y="31.3333" dominant-baseline="middle" font-size="9px" font-weight="normal" font-family="Arial" text-anchor="middle" text-align="start" line-height="125%%" >
70,000</text>
<line id="395.00000039.333332395.00000045.333332" x1="395" y1="39.3333" x2="395" y2="45.3333" stroke-width="0.8" stroke="black" />
<line id="420.00000039.333332420.00000048.333332" x1="420" y1="39.3333" x2="420" y2="48.3333" stroke-width="1.28" stroke="black" />
<text id="420.00000031.333332" x="420" y="31.3333" dominant-baseline="middle" font-size="9px" font-weight="normal" font-family="Arial" text-anchor="middle" text-align="start" line-height="125%%" >
80,000</text>
<line id="445.00000039.333332445.00000045.333332" x1="445" y1="39.3333" x2="445" y2="45.3333" stroke-width="0.8" stroke="black" />
<line id="470.00000039.333332470.00000048.333332" x1="470" y1="39.3333" x2="470" y2="48.3333" stroke-width="1.28" stroke="black" />
<text id="470.00000031.333332" x="470" y="31.3333" dominant-baseline="middle" font-size="9px" font-weight="normal" font-family="Arial" text-anchor="middle" text-align="start" line-height="125%%" >
90,000</text>
<line id="495.00000039.333332495.00000045.333332" x1="495" y1="39.3333" x2="495" y2="45.3333" stroke-width="0.8" stroke="black" />
<line id="520.00000039.333332520.00000048.333332" x1="520" y1="39.3333" x2="520" y2="48.3333" stroke-width="1.28" stroke="black" />
<text id="520.00000031.333332" x="520" y="31.3333" dominant-baseline="middle" font-size="9px" font-weight="normal" font-family="Arial" text-anchor="middle" text-align="start" line-height="125%%" >
100,000</text>
<line id="20.000000254.666672520.599976254.666672" x1="20" y1="254.667" x2="520.6" y2="254.667" stroke-width="0.8" stroke="black" />
<text id="20.000000246.666672" x="20" y="246.667" dominant-baseline="middle" font-size="10px" font-weight="bold" font-family="Arial" text-anchor="start" text-align="start" line-height="125%%" >
bp</text>
<text id="20.000000262.666687" x="20" y="262.667" dominant-baseline="middle" font-size="9px" font-weight="normal" font-family="Arial" text-anchor="start" text-align="start" line-height="125%%" >
0</text>
<line id="45.000000254.66667245.000000248.666672" x1="45" y1="254.667" x2="45" y2="248.667" stroke-width="0.8" stroke="black" />
<line id="70.000000254.66667270.000000245.666672" x1="70" y1="254.667" x2="70" y2="245.667" stroke-width="1.28" stroke="black" />
<text id="70.000000262.666687" x="70" y="262.667" dominant-baseline="middle" font-size="9px" font-weight="normal" font-family="Arial" text-anchor="middle" text-align="start" line-height="125%%" >
10,000</text>
<line id="95.000000254.66667295.000000248.666672" x1="95" y1="254.667" x2="95" y2="248.667" stroke-width="0.8" stroke="black" />
<line id="120.000000254.666672120.000000245.666672" x1="120" y1="254.667" x2="120" y2="245.667" stroke-width="1.28" stroke="black" />
<text id="120.000000262.666687" x="120" y="262.667" dominant-baseline="middle" font-size="9px" font-weight="normal" font-family="Arial" text-anchor="middle" text-align="start" line-height="125%%" >
20,000</text>
<line id="145.000000254.666672145.000000248.666672" x1="145" y1="254.667" x2="145" y2="248.667" stroke-width="0.8" stroke="black" />
<line id="170.000000254.666672170.000000245.666672" x1="170" y1="254.667" x2="170" y2="245.667" stroke-width="1.28" stroke="black" />
<text id="170.000000262.666687" x="170" y="262.667" dominant-baseline="middle" font-size="9px" font-weight="normal" font-family="Arial" text-anchor="middle" text-align="start" line-height="125%%" >
30,000</text>
<line id="195.000000254.666672195.000000248.666672" x1="195" y1="254.667" x2="195" y2="248.667" stroke-width="0.8" stroke="black" />
<line id="220.000000254.666672220.000000245.666672" x1="220" y1="254.667" x2="220" y2="245.667" stroke-width="1.28" stroke="black" />
<text id="220.000000262.666687" x="220" y="262.667" dominant-baseline="middle" font-size="9px" font-weight="normal" font-family="Arial" text-anchor="middle" text-align="start" line-height="125%%" >
40,000</text>
<line id="245.000000254.666672245.000000248.666672" x1="245" y1="254.667" x2="245" y2="248.667" stroke-width="0.8" stroke="black" />
<line id="270.000000254.666672270.000000245.666672" x1="270" y1="254.667" x2="270" y2="245.667" stroke-width="1.28" stroke="black" />
<text id="270.000000262.666687" x="270" y="262.667" dominant-baseline="middle" font-size="9px" font-weight="normal" font-family="Arial" text-anchor="middle" text-align="start" line-height="125%%" >
50,000</text>
<line id="295.000000254.666672295.000000248.666672" x1="295" y1="254.667" x2="295" y2="248.667" stroke-width="0.8" stroke="black" />
<line id="320.000000254.666672320.000000245.666672" x1="320" y1="254.667" x2="320" y2="245.667" stroke-width="1.28" stroke="black" />
<text id="320.000000262.666687" x="320" y="262.667" dominant-baseline="middle" font-size="9px" font-weight="normal" font-family="Arial" text-anchor="middle" text-align="start" line-height="125%%" >
60,000</text>
<line id="345.000000254.666672345.000000248.666672" x1="345" y1="254.667" x2="345" y2="248.667" stroke-width="0.8" stroke="black" />
<line id="370.000000254.666672370.000000245.666672" x1="370" y1="254.667" x2="370" y2="245.667" stroke-width="1.28" stroke="black" />
<text id="370.000000262.666687" x="370" y="262.667" dominant-baseline="middle" font-size="9px" font-weight="normal" font-family="Arial" text-anchor="middle" text-align="start" line-height="125%%" >
70,000</text>
<line id="395.000000254.666672395.000000248.666672" x1="395" y1="254.667" x2="395" y2="248.667" stroke-width="0.8" stroke="black" />
<line id="420.000000254.666672420.000000245.666672" x1="420" y1="254.667" x2="420" y2="245.667" stroke-width="1.28" stroke="black" />
<text id="420.000000262.666687" x="420" y="262.667" dominant-baseline="middle" font-size="9px" font-weight="normal" font-family="Arial" text-anchor="middle" text-align="start" line-height="125%%" >
80,000</text>
<line id="445.000000254.666672445.000000248.666672" x1="445" y1="254.667" x2="445" y2="248.667" stroke-width="0.8" stroke="black" />
<line id="470.000000254.666672470.000000245.666672" x1="470" y1="254.667" x2="470" y2="245.667" stroke-width="1.28" stroke="black" />
<text id="470.000000262.666687" x="470" y="262.667" dominant-baseline="middle" font-size="9px" font-weight="normal" font-family="Arial" text-anchor="middle" text-align="start" line-height="125%%" >
90,000</text>
<line id="495.000000254.666672495.000000248.666672" x1="495" y1="254.667" x2="495" y2="248.667" stroke-width="0.8" stroke="black" />
<line id="520.000000254.666672520.000000245.666672" x1="520" y1="254.667" x2="520" y2="245.667" stroke-width="1.28" stroke="black" />
<text id="520.000000262.666687" x="520" y="262.667" dominant-baseline="middle" font-size="9px" font-weight="normal" font-family="Arial" text-anchor="middle" text-align="start" line-height="125%%" >
100,000</text>
<defs id="" >
<linearGradient id="grad270.204987116.000000" x1="0%" y1="0%" x2="100%" y2="0%" >
<stop offset="30%" stop-color="#2C4078" stop-opacity="1" />
<stop offset="100%" stop-color="#3B56A0" stop-opacity="1" />
</linearGradient>
</defs>
<path id="270.204987116.000000" d="M 270.205,116
v 249.79
a 8,2 0 0,0 16,0
v -249.79
a 8,2 0 0,0 -16,0
z
" fill="url(#grad270.204987116.000000)" fill-opacity="1" stroke="#1D2B50" stroke-opacity="1" stroke-linejoin="round" stroke-width="0.75" transform="rotate(-90 270.204987 116.000000)" />
<ellipse cx="278.205" cy="116" rx="8.18" ry="2" stroke-width="0.3" fill-opacity="1" stroke-opacity="1" stroke="#1D2B50" fill="url(#grad270.204987116.000000)" transform="rotate(-90 270.204987 116.000000)" />
<ellipse cx="278.205" cy="365.79" rx="8.18" ry="2" stroke-width="0.3" fill-opacity="1" stroke-opacity="1" stroke="#1D2B50" fill="transparent" transform="rotate(-90 270.204987 116.000000)" />
<defs id="" >
<linearGradient id="grad270.204987116.000000NRC" x1="0%" y1="0%" x2="100%" y2="0%" >
<stop offset="30%" stop-color="#3333CC" stop-opacity="1" />
<stop offset="100%" stop-color="#0000ff" stop-opacity="1" />
</linearGradient>
</defs>
<path id="308.204987116.000000" d="M 308.205,116
v 249.79
a 2.66667,1 0 0,0 5.33333,0
v -249.79
a 2.66667,1 0 0,0 -5.33333,0
z
" fill="url(#grad270.204987116.000000NRC)" fill-opacity="1" stroke="#00A" stroke-opacity="1" stroke-linejoin="round" stroke-width="1.4" transform="rotate(-90 270.204987 116.000000)" />
<ellipse cx="310.872" cy="116" rx="3.00267" ry="1" stroke-width="0.56" fill-opacity="1" stroke-opacity="1" stroke="#00A" fill="url(#grad270.204987116.000000NRC)" transform="rotate(-90 270.204987 116.000000)" />
<ellipse cx="310.872" cy="365.79" rx="3.00267" ry="1" stroke-width="0.56" fill-opacity="1" stroke-opacity="1" stroke="#00A" fill="transparent" transform="rotate(-90 270.204987 116.000000)" />
<defs id="" >
<linearGradient id="grad270.204987116.000000NRCRedun" x1="0%" y1="0%" x2="100%" y2="0%" >
<stop offset="30%" stop-color="#CC3333" stop-opacity="1" />
<stop offset="100%" stop-color="#ff0000" stop-opacity="1" />
</linearGradient>
</defs>
<path id="319.538330116.000000" d="M 319.538,116
v 249.79
a 2.66667,1 0 0,0 5.33333,0
v -249.79
a 2.66667,1 0 0,0 -5.33333,0
z
" fill="url(#grad270.204987116.000000NRCRedun)" fill-opacity="1" stroke="#C00" stroke-opacity="1" stroke-linejoin="round" stroke-width="1.4" transform="rotate(-90 270.204987 116.000000)" />
<ellipse cx="322.205" cy="116" rx="3.00267" ry="1" stroke-width="0.56" fill-opacity="1" stroke-opacity="1" stroke="#C00" fill="url(#grad270.204987116.000000NRCRedun)" transform="rotate(-90 270.204987 116.000000)" />
<ellipse cx="322.205" cy="365.79" rx="3.00267" ry="1" stroke-width="0.56" fill-opacity="1" stroke-opacity="1" stroke="#C00" fill="transparent" transform="rotate(-90 270.204987 116.000000)" />
<defs id="" >
<linearGradient id="grad145.134995194.000000" x1="0%" y1="0%" x2="100%" y2="0%" >
<stop offset="30%" stop-color="#2C4078" stop-opacity="1" />
<stop offset="100%" stop-color="#3B56A0" stop-opacity="1" />
</linearGradient>
</defs>
<path id="145.134995194.000000" d="M 145.135,194
v 249.845
a 8,2 0 0,0 16,0
v -249.845
a 8,2 0 0,0 -16,0
z
" fill="url(#grad145.134995194.000000)" fill-opacity="1" stroke="#1D2B50" stroke-opacity="1" stroke-linejoin="round" stroke-width="0.75" transform="rotate(-90 145.134995 194.000000)" />
<ellipse cx="153.135" cy="194" rx="8.18" ry="2" stroke-width="0.3" fill-opacity="1" stroke-opacity="1" stroke="#1D2B50" fill="url(#grad145.134995194.000000)" transform="rotate(-90 145.134995 194.000000)" />
<ellipse cx="153.135" cy="443.845" rx="8.18" ry="2" stroke-width="0.3" fill-opacity="1" stroke-opacity="1" stroke="#1D2B50" fill="transparent" transform="rotate(-90 145.134995 194.000000)" />
<defs id="" >
<linearGradient id="grad145.134995194.000000NRC" x1="0%" y1="0%" x2="100%" y2="0%" >
<stop offset="30%" stop-color="#3333CC" stop-opacity="1" />
<stop offset="100%" stop-color="#0000ff" stop-opacity="1" />
</linearGradient>
</defs>
<path id="117.801659194.000000" d="M 117.802,194
v 249.845
a 2.66667,1 0 0,0 5.33333,0
v -249.845
a 2.66667,1 0 0,0 -5.33333,0
z
" fill="url(#grad145.134995194.000000NRC)" fill-opacity="1" stroke="#00A" stroke-opacity="1" stroke-linejoin="round" stroke-width="1.4" transform="rotate(-90 145.134995 194.000000)" />
<ellipse cx="120.468" cy="194" rx="3.00267" ry="1" stroke-width="0.56" fill-opacity="1" stroke-opacity="1" stroke="#00A" fill="url(#grad145.134995194.000000NRC)" transform="rotate(-90 145.134995 194.000000)" />
<ellipse cx="120.468" cy="443.845" rx="3.00267" ry="1" stroke-width="0.56" fill-opacity="1" stroke-opacity="1" stroke="#00A" fill="transparent" transform="rotate(-90 145.134995 194.000000)" />
<defs id="" >
<linearGradient id="grad145.134995194.000000NRCRedun" x1="0%" y1="0%" x2="100%" y2="0%" >
<stop offset="30%" stop-color="#CC3333" stop-opacity="1" />
<stop offset="100%" stop-color="#ff0000" stop-opacity="1" />
</linearGradient>
</defs>
<path id="106.468323194.000000" d="M 106.468,194
v 249.845
a 2.66667,1 0 0,0 5.33333,0
v -249.845
a 2.66667,1 0 0,0 -5.33333,0
z
" fill="url(#grad145.134995194.000000NRCRedun)" fill-opacity="1" stroke="#C00" stroke-opacity="1" stroke-linejoin="round" stroke-width="1.4" transform="rotate(-90 145.134995 194.000000)" />
<ellipse cx="109.135" cy="194" rx="3.00267" ry="1" stroke-width="0.56" fill-opacity="1" stroke-opacity="1" stroke="#C00" fill="url(#grad145.134995194.000000NRCRedun)" transform="rotate(-90 145.134995 194.000000)" />
<ellipse cx="109.135" cy="443.845" rx="3.00267" ry="1" stroke-width="0.56" fill-opacity="1" stroke-opacity="1" stroke="#C00" fill="transparent" transform="rotate(-90 145.134995 194.000000)" />
<polygon points="270.205,116 519.995,116 394.98,178 145.135,178 " fill="#3B56A0" stroke="#3B56A0" stroke-width="1" stroke-opacity="0.5" fill-opacity="0.5" />
<defs id="" >
<linearGradient id="grad145.000000116.000000" x1="0%" y1="0%" x2="100%" y2="0%" >
<stop offset="30%" stop-color="#52782C" stop-opacity="1" />
<stop offset="100%" stop-color="#6EA03B" stop-opacity="1" />
</linearGradient>
</defs>
<path id="145.000000116.000000" d="M 145,116
v 125.045
a 8,2 0 0,0 16,0
v -125.045
a 8,2 0 0,0 -16,0
z
" fill="url(#grad145.000000116.000000)" fill-opacity="1" stroke="#37501D" stroke-opacity="1" stroke-linejoin="round" stroke-width="0.75" transform="rotate(-90 145.000000 116.000000)" />
<ellipse cx="153" cy="116" rx="8.18" ry="2" stroke-width="0.3" fill-opacity="1" stroke-opacity="1" stroke="#37501D" fill="url(#grad145.000000116.000000)" transform="rotate(-90 145.000000 116.000000)" />
<ellipse cx="153" cy="241.045" rx="8.18" ry="2" stroke-width="0.3" fill-opacity="1" stroke-opacity="1" stroke="#37501D" fill="transparent" transform="rotate(-90 145.000000 116.000000)" />
<defs id="" >
<linearGradient id="grad145.000000116.000000NRC" x1="0%" y1="0%" x2="100%" y2="0%" >
<stop offset="30%" stop-color="#3333CC" stop-opacity="1" />
<stop offset="100%" stop-color="#0000ff" stop-opacity="1" />
</linearGradient>
</defs>
<path id="183.000000116.000000" d="M 183,116
v 125.045
a 2.66667,1 0 0,0 5.33333,0
v -125.045
a 2.66667,1 0 0,0 -5.33333,0
z
" fill="url(#grad145.000000116.000000NRC)" fill-opacity="1" stroke="#00A" stroke-opacity="1" stroke-linejoin="round" stroke-width="1.4" transform="rotate(-90 145.000000 116.000000)" />
<ellipse cx="185.667" cy="116" rx="3.00267" ry="1" stroke-width="0.56" fill-opacity="1" stroke-opacity="1" stroke="#00A" fill="url(#grad145.000000116.000000NRC)" transform="rotate(-90 145.000000 116.000000)" />
<ellipse cx="185.667" cy="241.045" rx="3.00267" ry="1" stroke-width="0.56" fill-opacity="1" stroke-opacity="1" stroke="#00A" fill="transparent" transform="rotate(-90 145.000000 116.000000)" />
<defs id="" >
<linearGradient id="grad145.000000116.000000NRCRedun" x1="0%" y1="0%" x2="100%" y2="0%" >
<stop offset="30%" stop-color="#CC3333" stop-opacity="1" />
<stop offset="100%" stop-color="#ff0000" stop-opacity="1" />
</linearGradient>
</defs>
<path id="194.333328116.000000" d="M 194.333,116
v 125.045
a 2.66667,1 0 0,0 5.33333,0
v -125.045
a 2.66667,1 0 0,0 -5.33333,0
z
" fill="url(#grad145.000000116.000000NRCRedun)" fill-opacity="1" stroke="#C00" stroke-opacity="1" stroke-linejoin="round" stroke-width="1.4" transform="rotate(-90 145.000000 116.000000)" />
<ellipse cx="197" cy="116" rx="3.00267" ry="1" stroke-width="0.56" fill-opacity="1" stroke-opacity="1" stroke="#C00" fill="url(#grad145.000000116.000000NRCRedun)" transform="rotate(-90 145.000000 116.000000)" />
<ellipse cx="197" cy="241.045" rx="3.00267" ry="1" stroke-width="0.56" fill-opacity="1" stroke-opacity="1" stroke="#C00" fill="transparent" transform="rotate(-90 145.000000 116.000000)" />
<defs id="" >
<linearGradient id="grad20.000000194.000000" x1="0%" y1="0%" x2="100%" y2="0%" >
<stop offset="30%" stop-color="#52782C" stop-opacity="1" />
<stop offset="100%" stop-color="#6EA03B" stop-opacity="1" />
</linearGradient>
</defs>
<path id="20.000000194.000000" d="M 20,194
v 125.045
a 8,2 0 0,0 16,0
v -125.045
a 8,2 0 0,0 -16,0
z
" fill="url(#grad20.000000194.000000)" fill-opacity="1" stroke="#37501D" stroke-opacity="1" stroke-linejoin="round" stroke-width="0.75" transform="rotate(-90 20.000000 194.000000)" />
<ellipse cx="28" cy="194" rx="8.18" ry="2" stroke-width="0.3" fill-opacity="1" stroke-opacity="1" stroke="#37501D" fill="url(#grad20.000000194.000000)" transform="rotate(-90 20.000000 194.000000)" />
<ellipse cx="28" cy="319.045" rx="8.18" ry="2" stroke-width="0.3" fill-opacity="1" stroke-opacity="1" stroke="#37501D" fill="transparent" transform="rotate(-90 20.000000 194.000000)" />
<defs id="" >
<pattern id="Wavy20.000000194.000000" x="20" y="194" width="16" height="14" patternUnits="userSpaceOnUse" >
<path id="" d="m -2.1,11.9
l 10.1,-9.8
l 10.1,9.8
" fill="transparent" fill-opacity="0.9" stroke="#241" stroke-opacity="1" stroke-linejoin="round" stroke-width="4.2" />
</pattern>
</defs>
<path id="20.000000194.000000" d="M 20,194
v 125.045
a 8,2 0 0,0 16,0
v -125.045
a 8,2 0 0,0 -16,0
z
" fill="url(#Wavy20.000000194.000000)" fill-opacity="1" stroke="#37501D" stroke-opacity="1" stroke-linejoin="round" stroke-width="0.75" transform="rotate(-90 20.000000 194.000000)" />
<ellipse cx="28" cy="194" rx="8.18" ry="2" stroke-width="0.3" fill-opacity="1" stroke-opacity="1" stroke="#37501D" fill="url(#Wavy20.000000194.000000)" transform="rotate(-90 20.000000 194.000000)" />
<ellipse cx="28" cy="319.045" rx="8.18" ry="2" stroke-width="0.3" fill-opacity="1" stroke-opacity="1" stroke="#37501D" fill="transparent" transform="rotate(-90 20.000000 194.000000)" />
<defs id="" >
<linearGradient id="grad20.000000194.000000NRC" x1="0%" y1="0%" x2="100%" y2="0%" >
<stop offset="30%" stop-color="#3333CC" stop-opacity="1" />
<stop offset="100%" stop-color="#0000ff" stop-opacity="1" />
</linearGradient>
</defs>
<path id="-7.333334194.000000" d="M -7.33333,194
v 125.045
a 2.66667,1 0 0,0 5.33333,0
v -125.045
a 2.66667,1 0 0,0 -5.33333,0
z
" fill="url(#grad20.000000194.000000NRC)" fill-opacity="1" stroke="#00A" stroke-opacity="1" stroke-linejoin="round" stroke-width="1.4" transform="rotate(-90 20.000000 194.000000)" />
<ellipse cx="-4.66667" cy="194" rx="3.00267" ry="1" stroke-width="0.56" fill-opacity="1" stroke-opacity="1" stroke="#00A" fill="url(#grad20.000000194.000000NRC)" transform="rotate(-90 20.000000 194.000000)" />
<ellipse cx="-4.66667" cy="319.045" rx="3.00267" ry="1" stroke-width="0.56" fill-opacity="1" stroke-opacity="1" stroke="#00A" fill="transparent" transform="rotate(-90 20.000000 194.000000)" />
<defs id="" >
<linearGradient id="grad20.000000194.000000NRCRedun" x1="0%" y1="0%" x2="100%" y2="0%" >
<stop offset="30%" stop-color="#CC3333" stop-opacity="1" />
<stop offset="100%" stop-color="#ff0000" stop-opacity="1" />
</linearGradient>
</defs>
<path id="-18.666668194.000000" d="M -18.6667,194
v 125.045
a 2.66667,1 0 0,0 5.33333,0
v -125.045
a 2.66667,1 0 0,0 -5.33333,0
z
" fill="url(#grad20.000000194.000000NRCRedun)" fill-opacity="1" stroke="#C00" stroke-opacity="1" stroke-linejoin="round" stroke-width="1.4" transform="rotate(-90 20.000000 194.000000)" />
<ellipse cx="-16" cy="194" rx="3.00267" ry="1" stroke-width="0.56" fill-opacity="1" stroke-opacity="1" stroke="#C00" fill="url(#grad20.000000194.000000NRCRedun)" transform="rotate(-90 20.000000 194.000000)" />
<ellipse cx="-16" cy="319.045" rx="3.00267" ry="1" stroke-width="0.56" fill-opacity="1" stroke-opacity="1" stroke="#C00" fill="transparent" transform="rotate(-90 20.000000 194.000000)" />
<polygon points="145,116 270.045,116 20,178 145.045,178 " fill="#6EA03B" stroke="#6EA03B" stroke-width="1" stroke-opacity="0.5" fill-opacity="0.5" />
<defs id="" >
<linearGradient id="grad20.080000116.000000" x1="0%" y1="0%" x2="100%" y2="0%" >
<stop offset="30%" stop-color="#782C4B" stop-opacity="1" />
<stop offset="100%" stop-color="#A03B65" stop-opacity="1" />
</linearGradient>
</defs>
<path id="20.080000116.000000" d="M 20.08,116
v 124.98
a 8,2 0 0,0 16,0
v -124.98
a 8,2 0 0,0 -16,0
z
" fill="url(#grad20.080000116.000000)" fill-opacity="1" stroke="#501D32" stroke-opacity="1" stroke-linejoin="round" stroke-width="0.75" transform="rotate(-90 20.080000 116.000000)" />
<ellipse cx="28.08" cy="116" rx="8.18" ry="2" stroke-width="0.3" fill-opacity="1" stroke-opacity="1" stroke="#501D32" fill="url(#grad20.080000116.000000)" transform="rotate(-90 20.080000 116.000000)" />
<ellipse cx="28.08" cy="240.98" rx="8.18" ry="2" stroke-width="0.3" fill-opacity="1" stroke-opacity="1" stroke="#501D32" fill="transparent" transform="rotate(-90 20.080000 116.000000)" />
<defs id="" >
<linearGradient id="grad20.080000116.000000NRC" x1="0%" y1="0%" x2="100%" y2="0%" >
<stop offset="30%" stop-color="#3333CC" stop-opacity="1" />
<stop offset="100%" stop-color="#0000ff" stop-opacity="1" />
</linearGradient>
</defs>
<path id="58.080002116.000000" d="M 58.08,116
v 124.98
a 2.66667,1 0 0,0 5.33333,0
v -124.98
a 2.66667,1 0 0,0 -5.33333,0
z
" fill="url(#grad20.080000116.000000NRC)" fill-opacity="1" stroke="#00A" stroke-opacity="1" stroke-linejoin="round" stroke-width="1.4" transform="rotate(-90 20.080000 116.000000)" />
<ellipse cx="60.7467" cy="116" rx="3.00267" ry="1" stroke-width="0.56" fill-opacity="1" stroke-opacity="1" stroke="#00A" fill="url(#grad20.080000116.000000NRC)" transform="rotate(-90 20.080000 116.000000)" />
<ellipse cx="60.7467" cy="240.98" rx="3.00267" ry="1" stroke-width="0.56" fill-opacity="1" stroke-opacity="1" stroke="#00A" fill="transparent" transform="rotate(-90 20.080000 116.000000)" />
<defs id="" >
<linearGradient id="grad20.080000116.000000NRCRedun" x1="0%" y1="0%" x2="100%" y2="0%" >
<stop offset="30%" stop-color="#CC3333" stop-opacity="1" />
<stop offset="100%" stop-color="#ff0000" stop-opacity="1" />
</linearGradient>
</defs>
<path id="69.413338116.000000" d="M 69.4133,116
v 124.98
a 2.66667,1 0 0,0 5.33333,0
v -124.98
a 2.66667,1 0 0,0 -5.33333,0
z
" fill="url(#grad20.080000116.000000NRCRedun)" fill-opacity="1" stroke="#C00" stroke-opacity="1" stroke-linejoin="round" stroke-width="1.4" transform="rotate(-90 20.080000 116.000000)" />
<ellipse cx="72.08" cy="116" rx="3.00267" ry="1" stroke-width="0.56" fill-opacity="1" stroke-opacity="1" stroke="#C00" fill="url(#grad20.080000116.000000NRCRedun)" transform="rotate(-90 20.080000 116.000000)" />
<ellipse cx="72.08" cy="240.98" rx="3.00267" ry="1" stroke-width="0.56" fill-opacity="1" stroke-opacity="1" stroke="#C00" fill="transparent" transform="rotate(-90 20.080000 116.000000)" />
<defs id="" >
<linearGradient id="grad395.084991194.000000" x1="0%" y1="0%" x2="100%" y2="0%" >
<stop offset="30%" stop-color="#782C4B" stop-opacity="1" />
<stop offset="100%" stop-color="#A03B65" stop-opacity="1" />
</linearGradient>
</defs>
<path id="395.084991194.000000" d="M 395.085,194
v 124.91
a 8,2 0 0,0 16,0
v -124.91
a 8,2 0 0,0 -16,0
z
" fill="url(#grad395.084991194.000000)" fill-opacity="1" stroke="#501D32" stroke-opacity="1" stroke-linejoin="round" stroke-width="0.75" transform="rotate(-90 395.084991 194.000000)" />
<ellipse cx="403.085" cy="194" rx="8.18" ry="2" stroke-width="0.3" fill-opacity="1" stroke-opacity="1" stroke="#501D32" fill="url(#grad395.084991194.000000)" transform="rotate(-90 395.084991 194.000000)" />
<ellipse cx="403.085" cy="318.91" rx="8.18" ry="2" stroke-width="0.3" fill-opacity="1" stroke-opacity="1" stroke="#501D32" fill="transparent" transform="rotate(-90 395.084991 194.000000)" />
<defs id="" >
<linearGradient id="grad395.084991194.000000NRC" x1="0%" y1="0%" x2="100%" y2="0%" >
<stop offset="30%" stop-color="#3333CC" stop-opacity="1" />
<stop offset="100%" stop-color="#0000ff" stop-opacity="1" />
</linearGradient>
</defs>
<path id="367.751648194.000000" d="M 367.752,194
v 124.91
a 2.66667,1 0 0,0 5.33333,0
v -124.91
a 2.66667,1 0 0,0 -5.33333,0
z
" fill="url(#grad395.084991194.000000NRC)" fill-opacity="1" stroke="#00A" stroke-opacity="1" stroke-linejoin="round" stroke-width="1.4" transform="rotate(-90 395.084991 194.000000)" />
<ellipse cx="370.418" cy="194" rx="3.00267" ry="1" stroke-width="0.56" fill-opacity="1" stroke-opacity="1" stroke="#00A" fill="url(#grad395.084991194.000000NRC)" transform="rotate(-90 395.084991 194.000000)" />
<ellipse cx="370.418" cy="318.91" rx="3.00267" ry="1" stroke-width="0.56" fill-opacity="1" stroke-opacity="1" stroke="#00A" fill="transparent" transform="rotate(-90 395.084991 194.000000)" />
<defs id="" >
<linearGradient id="grad395.084991194.000000NRCRedun" x1="0%" y1="0%" x2="100%" y2="0%" >
<stop offset="30%" stop-color="#CC3333" stop-opacity="1" />
<stop offset="100%" stop-color="#ff0000" stop-opacity="1" />
</linearGradient>
</defs>
<path id="356.418335194.000000" d="M 356.418,194
v 124.91
a 2.66667,1 0 0,0 5.33333,0
v -124.91
a 2.66667,1 0 0,0 -5.33333,0
z
" fill="url(#grad395.084991194.000000NRCRedun)" fill-opacity="1" stroke="#C00" stroke-opacity="1" stroke-linejoin="round" stroke-width="1.4" transform="rotate(-90 395.084991 194.000000)" />
<ellipse cx="359.085" cy="194" rx="3.00267" ry="1" stroke-width="0.56" fill-opacity="1" stroke-opacity="1" stroke="#C00" fill="url(#grad395.084991194.000000NRCRedun)" transform="rotate(-90 395.084991 194.000000)" />
<ellipse cx="359.085" cy="318.91" rx="3.00267" ry="1" stroke-width="0.56" fill-opacity="1" stroke-opacity="1" stroke="#C00" fill="transparent" transform="rotate(-90 395.084991 194.000000)" />
<polygon points="20.08,116 145.06,116 519.995,178 395.085,178 " fill="#A03B65" stroke="#A03B65" stroke-width="1" stroke-opacity="0.5" fill-opacity="0.5" />
<path id="20.000000116.000000" d="M 20,116
v 500
a 8,2 0 0,0 16,0
v -500
a 8,2 0 0,0 -16,0
z
" fill="transparent" fill-opacity="0.9" stroke="black" stroke-opacity="1" stroke-linejoin="round" stroke-width="1.25" transform="rotate(-90 20.000000 116.000000)" />
<ellipse cx="28" cy="116" rx="8.3" ry="2" stroke-width="0.5" fill-opacity="0.9" stroke-opacity="1" stroke="black" fill="transparent" transform="rotate(-90 20.000000 116.000000)" />
<ellipse cx="28" cy="616" rx="8.3" ry="2" stroke-width="0.5" fill-opacity="0.9" stroke-opacity="1" stroke="black" fill="transparent" transform="rotate(-90 20.000000 116.000000)" />
<path id="20.000000194.000000" d="M 20,194
v 500
a 8,2 0 0,0 16,0
v -500
a 8,2 0 0,0 -16,0
z
" fill="transparent" fill-opacity="0.9" stroke="black" stroke-opacity="1" stroke-linejoin="round" stroke-width="1.25" transform="rotate(-90 20.000000 194.000000)" />
<ellipse cx="28" cy="194" rx="8.3" ry="2" stroke-width="0.5" fill-opacity="0.9" stroke-opacity="1" stroke="black" fill="transparent" transform="rotate(-90 20.000000 194.000000)" />
<ellipse cx="28" cy="694" rx="8.3" ry="2" stroke-width="0.5" fill-opacity="0.9" stroke-opacity="1" stroke="black" fill="transparent" transform="rotate(-90 20.000000 194.000000)" />
<text id="20.00000084.000000" x="20" y="84" dominant-baseline="text-before-edge" font-size="10px" font-weight="bold" font-family="Arial" text-anchor="start" text-align="start" line-height="125%%" >
RefM</text>
<text id="20.000000210.000000" x="20" y="210" dominant-baseline="text-after-edge" font-size="10px" font-weight="bold" font-family="Arial" text-anchor="start" text-align="start" line-height="125%%" >
TarM</text>
<text id="552.000000147.000000" x="552" y="147" dominant-baseline="middle" transform="rotate(90 552.000000 147.000000)" font-size="9px" font-family="Arial" text-anchor="middle" text-align="start" line-height="125%%" >
Relative Redundancy</text>
<text id="583.000000147.000000" x="583" y="147" dominant-baseline="middle" transform="rotate(90 583.000000 147.000000)" font-size="9px" font-family="Arial" text-anchor="middle" text-align="start" line-height="125%%" >
Redundancy</text>
<defs id="" >
<linearGradient id="grad560.00000078.000000" x1="0%" y1="100%" x2="0%" y2="0%" >
<stop offset="0%" stop-color="#0000ff" stop-opacity="1" />
<stop offset="8%" stop-color="#0055ff" stop-opacity="1" />
<stop offset="16%" stop-color="#00aaff" stop-opacity="1" />
<stop offset="25%" stop-color="#00ffff" stop-opacity="1" />
<stop offset="33%" stop-color="#00ffaa" stop-opacity="1" />
<stop offset="41%" stop-color="#00ff55" stop-opacity="1" />
<stop offset="50%" stop-color="#00ff00" stop-opacity="1" />
<stop offset="58%" stop-color="#55ff00" stop-opacity="1" />
<stop offset="66%" stop-color="#aaff00" stop-opacity="1" />
<stop offset="75%" stop-color="#ffff00" stop-opacity="1" />
<stop offset="83%" stop-color="#ffaa00" stop-opacity="1" />
<stop offset="91%" stop-color="#ff5500" stop-opacity="1" />
<stop offset="100%" stop-color="#ff0000" stop-opacity="1" />
</linearGradient>
</defs>
<rect x="560" y="78" width="15" height="138" rx="2" ry="2" fill="url(#grad560.00000078.000000)" fill-opacity="0.9" stroke="black" stroke-width="0.5" />
<text id="567.500000222.000000" x="567.5" y="222" dominant-baseline="middle" font-size="8px" font-weight="normal" font-family="Arial" text-anchor="middle" text-align="middle" line-height="125%%" >
0.0</text>
<text id="567.500000181.500000" x="567.5" y="181.5" dominant-baseline="middle" font-size="8px" font-weight="normal" font-family="Arial" text-anchor="middle" text-align="middle" line-height="125%%" >
0.5</text>
<text id="567.500000147.000000" x="567.5" y="147" dominant-baseline="middle" font-size="8px" font-weight="normal" font-family="Arial" text-anchor="middle" text-align="middle" line-height="125%%" >
1.0</text>
<text id="567.500000112.500000" x="567.5" y="112.5" dominant-baseline="middle" font-size="8px" font-weight="normal" font-family="Arial" text-anchor="middle" text-align="middle" line-height="125%%" >
1.5</text>
<text id="567.50000072.000000" x="567.5" y="72" dominant-baseline="middle" font-size="8px" font-weight="normal" font-family="Arial" text-anchor="middle" text-align="middle" line-height="125%%" >
2.0</text>
<path id="" d="M 519.995,75.3333
H 552
V 100
" fill="transparent" fill-opacity="0.9" stroke="black" stroke-opacity="1" stroke-linejoin="round" stroke-width="0.5" />
<path id="" d="M 519.995,218.667
H 552
V 194
" fill="transparent" fill-opacity="0.9" stroke="black" stroke-opacity="1" stroke-linejoin="round" stroke-width="0.5" />
<path id="" d="M 519.995,64
H 583
V 115
" fill="transparent" fill-opacity="0.9" stroke="black" stroke-opacity="1" stroke-linejoin="round" stroke-width="0.5" />
<path id="" d="M 519.995,230
H 583
V 179
" fill="transparent" fill-opacity="0.9" stroke="black" stroke-opacity="1" stroke-linejoin="round" stroke-width="0.5" />
</svg>