<?xml version="1.0" encoding="UTF-8" standalone="no"?>
<!-- Morteza Hosseini, IEETA 2018-2019 -->
<svg xmlns="http://www.w3.org/2000/svg" xmlns:xlink="http://www.w3.org/1999/xlink" width="294" height="605" >
<rect x="0" y="0" width="294" height="605" rx="1" ry="1" fill="white" fill-opacity="0.1" stroke="white" stroke-width="0" />
<line id="39.33333230.00000039.333332530.599976" x1="39.3333" y1="30" x2="39.3333" y2="530.6" stroke-width="0.8" stroke="black" />
<text id="47.33333230.000000" x="47.3333" y="30" dominant-baseline="text-before-edge" font-size="10px" font-weight="bold" font-family="Arial" text-anchor="start" text-align="start" line-height="125%%" >
bp</text>
<text id="31.33333230.000000" x="31.3333" y="30" dominant-baseline="text-before-edge" font-size="9px" font-weight="normal" font-family="Arial" text-anchor="end" text-align="start" line-height="125%%" >
0</text>
<line id="39.33333264.09091245.33333264.090912" x1="39.3333" y1="64.0909" x2="45.3333" y2="64.0909" stroke-width="0.8" stroke="black" />
<line id="39.33333298.18181648.33333298.181816" x1="39.3333" y1="98.1818" x2="48.3333" y2="98.1818" stroke-width="1.28" stroke="black" />
<text id="31.33333298.181816" x="31.3333" y="98.1818" dominant-baseline="middle" font-size="9px" font-weight="normal" font-family="Arial" text-anchor="end" text-align="start" line-height="125%%" >
150</text>
<line id="39.333332132.27272045.333332132.272720" x1="39.3333" y1="132.273" x2="45.3333" y2="132.273" stroke-width="0.8" stroke="black" />
<line id="39.333332166.36363248.333332166.363632" x1="39.3333" y1="166.364" x2="48.3333" y2="166.364" stroke-width="1.28" stroke="black" />
<text id="31.333332166.363632" x="31.3333" y="166.364" dominant-baseline="middle" font-size="9px" font-weight="normal" font-family="Arial" text-anchor="end" text-align="start" line-height="125%%" >
300</text>
<line id="39.333332200.45454445.333332200.454544" x1="39.3333" y1="200.455" x2="45.3333" y2="200.455" stroke-width="0.8" stroke="black" />
<line id="39.333332234.54545648.333332234.545456" x1="39.3333" y1="234.545" x2="48.3333" y2="234.545" stroke-width="1.28" stroke="black" />
<text id="31.333332234.545456" x="31.3333" y="234.545" dominant-baseline="middle" font-size="9px" font-weight="normal" font-family="Arial" text-anchor="end" text-align="start" line-height="125%%" >
450</text>
<line id="39.333332268.63635345.333332268.636353" x1="39.3333" y1="268.636" x2="45.3333" y2="268.636" stroke-width="0.8" stroke="black" />
<line id="39.333332302.72726448.333332302.727264" x1="39.3333" y1="302.727" x2="48.3333" y2="302.727" stroke-width="1.28" stroke="black" />
<text id="31.333332302.727264" x="31.3333" y="302.727" dominant-baseline="middle" font-size="9px" font-weight="normal" font-family="Arial" text-anchor="end" text-align="start" line-height="125%%" >
600</text>
<line id="39.333332336.81817645.333332336.818176" x1="39.3333" y1="336.818" x2="45.3333" y2="336.818" stroke-width="0.8" stroke="black" />
<line id="39.333332370.90908848.333332370.909088" x1="39.3333" y1="370.909" x2="48.3333" y2="370.909" stroke-width="1.28" stroke="black" />
<text id="31.333332370.909088" x="31.3333" y="370.909" dominant-baseline="middle" font-size="9px" font-weight="normal" font-family="Arial" text-anchor="end" text-align="start" line-height="125%%" >
750</text>
<line id="39.333332405.00000045.333332405.000000" x1="39.3333" y1="405" x2="45.3333" y2="405" stroke-width="0.8" stroke="black" />
<line id="39.333332439.09091248.333332439.090912" x1="39.3333" y1="439.091" x2="48.3333" y2="439.091" stroke-width="1.28" stroke="black" />
<text id="31.333332439.090912" x="31.3333" y="439.091" dominant-baseline="middle" font-size="9px" font-weight="normal" font-family="Arial" text-anchor="end" text-align="start" line-height="125%%" >
900</text>
<line id="39.333332473.18182445.333332473.181824" x1="39.3333" y1="473.182" x2="45.3333" y2="473.182" stroke-width="0.8" stroke="black" />
<line id="39.333332507.27273648.333332507.272736" x1="39.3333" y1="507.273" x2="48.3333" y2="507.273" stroke-width="1.28" stroke="black" />
<text id="31.333332507.272736" x="31.3333" y="507.273" dominant-baseline="middle" font-size="9px" font-weight="normal" font-family="Arial" text-anchor="end" text-align="start" line-height="125%%" >
1,050</text>
<line id="254.66667230.000000254.666672485.145447" x1="254.667" y1="30" x2="254.667" y2="485.145" stroke-width="0.8" stroke="black" />
<text id="246.66667230.000000" x="246.667" y="30" dominant-baseline="text-before-edge" font-size="10px" font-weight="bold" font-family="Arial" text-anchor="start" text-align="start" line-height="125%%" >
bp</text>
<text id="262.66668730.000000" x="262.667" y="30" dominant-baseline="text-before-edge" font-size="9px" font-weight="normal" font-family="Arial" text-anchor="end" text-align="start" line-height="125%%" >
0</text>
<line id="254.66667252.727272248.66667252.727272" x1="254.667" y1="52.7273" x2="248.667" y2="52.7273" stroke-width="0.8" stroke="black" />
<line id="254.66667275.454544245.66667275.454544" x1="254.667" y1="75.4545" x2="245.667" y2="75.4545" stroke-width="1.28" stroke="black" />
<text id="262.66668775.454544" x="262.667" y="75.4545" dominant-baseline="middle" font-size="9px" font-weight="normal" font-family="Arial" text-anchor="end" text-align="start" line-height="125%%" >
100</text>
<line id="254.66667298.181816248.66667298.181816" x1="254.667" y1="98.1818" x2="248.667" y2="98.1818" stroke-width="0.8" stroke="black" />
<line id="254.666672120.909088245.666672120.909088" x1="254.667" y1="120.909" x2="245.667" y2="120.909" stroke-width="1.28" stroke="black" />
<text id="262.666687120.909088" x="262.667" y="120.909" dominant-baseline="middle" font-size="9px" font-weight="normal" font-family="Arial" text-anchor="end" text-align="start" line-height="125%%" >
200</text>
<line id="254.666672143.636368248.666672143.636368" x1="254.667" y1="143.636" x2="248.667" y2="143.636" stroke-width="0.8" stroke="black" />
<line id="254.666672166.363632245.666672166.363632" x1="254.667" y1="166.364" x2="245.667" y2="166.364" stroke-width="1.28" stroke="black" />
<text id="262.666687166.363632" x="262.667" y="166.364" dominant-baseline="middle" font-size="9px" font-weight="normal" font-family="Arial" text-anchor="end" text-align="start" line-height="125%%" >
300</text>
<line id="254.666672189.090912248.666672189.090912" x1="254.667" y1="189.091" x2="248.667" y2="189.091" stroke-width="0.8" stroke="black" />
<line id="254.666672211.818176245.666672211.818176" x1="254.667" y1="211.818" x2="245.667" y2="211.818" stroke-width="1.28" stroke="black" />
<text id="262.666687211.818176" x="262.667" y="211.818" dominant-baseline="middle" font-size="9px" font-weight="normal" font-family="Arial" text-anchor="end" text-align="start" line-height="125%%" >
400</text>
<line id="254.666672234.545456248.666672234.545456" x1="254.667" y1="234.545" x2="248.667" y2="234.545" stroke-width="0.8" stroke="black" />
<line id="254.666672257.272736245.666672257.272736" x1="254.667" y1="257.273" x2="245.667" y2="257.273" stroke-width="1.28" stroke="black" />
<text id="262.666687257.272736" x="262.667" y="257.273" dominant-baseline="middle" font-size="9px" font-weight="normal" font-family="Arial" text-anchor="end" text-align="start" line-height="125%%" >
500</text>
<line id="254.666672280.000000248.666672280.000000" x1="254.667" y1="280" x2="248.667" y2="280" stroke-width="0.8" stroke="black" />
<line id="254.666672302.727264245.666672302.727264" x1="254.667" y1="302.727" x2="245.667" y2="302.727" stroke-width="1.28" stroke="black" />
<text id="262.666687302.727264" x="262.667" y="302.727" dominant-baseline="middle" font-size="9px" font-weight="normal" font-family="Arial" text-anchor="end" text-align="start" line-height="125%%" >
600</text>
<line id="254.666672325.454559248.666672325.454559" x1="254.667" y1="325.455" x2="248.667" y2="325.455" stroke-width="0.8" stroke="black" />
<line id="254.666672348.181824245.666672348.181824" x1="254.667" y1="348.182" x2="245.667" y2="348.182" stroke-width="1.28" stroke="black" />
<text id="262.666687348.181824" x="262.667" y="348.182" dominant-baseline="middle" font-size="9px" font-weight="normal" font-family="Arial" text-anchor="end" text-align="start" line-height="125%%" >
700</text>
<line id="254.666672370.909088248.666672370.909088" x1="254.667" y1="370.909" x2="248.667" y2="370.909" stroke-width="0.8" stroke="black" />
<line id="254.666672393.636353245.666672393.636353" x1="254.667" y1="393.636" x2="245.667" y2="393.636" stroke-width="1.28" stroke="black" />
<text id="262.666687393.636353" x="262.667" y="393.636" dominant-baseline="middle" font-size="9px" font-weight="normal" font-family="Arial" text-anchor="end" text-align="start" line-height="125%%" >
800</text>
<line id="254.666672416.363647248.666672416.363647" x1="254.667" y1="416.364" x2="248.667" y2="416.364" stroke-width="0.8" stroke="black" />
<line id="254.666672439.090912245.666672439.090912" x1="254.667" y1="439.091" x2="245.667" y2="439.091" stroke-width="1.28" stroke="black" />
<text id="262.666687439.090912" x="262.667" y="439.091" dominant-baseline="middle" font-size="9px" font-weight="normal" font-family="Arial" text-anchor="end" text-align="start" line-height="125%%" >
900</text>
<line id="254.666672461.818176248.666672461.818176" x1="254.667" y1="461.818" x2="248.667" y2="461.818" stroke-width="0.8" stroke="black" />
<line id="254.666672484.545441245.666672484.545441" x1="254.667" y1="484.545" x2="245.667" y2="484.545" stroke-width="1.28" stroke="black" />
<text id="262.666687484.545441" x="262.667" y="484.545" dominant-baseline="middle" font-size="9px" font-weight="normal" font-family="Arial" text-anchor="end" text-align="start" line-height="125%%" >
1,000</text>
<defs id="" >
<linearGradient id="grad442.72726446.000000" x1="0%" y1="0%" x2="100%" y2="0%" >
<stop offset="30%" stop-color="#2C7778" stop-opacity="1" />
<stop offset="100%" stop-color="#3B9FA0" stop-opacity="1" />
</linearGradient>
</defs>
<path id="442.72726446.000000" d="M 442.727,46
v 110.455
a 8,2 0 0,0 16,0
v -110.455
a 8,2 0 0,0 -16,0
z
" fill="url(#grad442.72726446.000000)" fill-opacity="0.1" stroke="#1D4F50" stroke-opacity="0.1" stroke-linejoin="round" stroke-width="0.75" transform="rotate(-90 442.727264 46.000000)" />
<ellipse cx="450.727" cy="46" rx="8.18" ry="2" stroke-width="0.3" fill-opacity="0.1" stroke-opacity="0.1" stroke="#1D4F50" fill="url(#grad442.72726446.000000)" transform="rotate(-90 442.727264 46.000000)" />
<ellipse cx="450.727" cy="156.455" rx="8.18" ry="2" stroke-width="0.3" fill-opacity="0.1" stroke-opacity="0.1" stroke="#1D4F50" fill="transparent" transform="rotate(-90 442.727264 46.000000)" />
<defs id="" >
<linearGradient id="grad442.72726446.000000NRC" x1="0%" y1="0%" x2="100%" y2="0%" >
<stop offset="30%" stop-color="#3366CC" stop-opacity="1" />
<stop offset="100%" stop-color="#0055ff" stop-opacity="1" />
</linearGradient>
</defs>
<path id="480.72726446.000000" d="M 480.727,46
v 110.455
a 2.66667,1 0 0,0 5.33333,0
v -110.455
a 2.66667,1 0 0,0 -5.33333,0
z
" fill="url(#grad442.72726446.000000NRC)" fill-opacity="0.1" stroke="#03A" stroke-opacity="0.1" stroke-linejoin="round" stroke-width="1.4" transform="rotate(-90 442.727264 46.000000)" />
<ellipse cx="483.394" cy="46" rx="3.00267" ry="1" stroke-width="0.56" fill-opacity="0.1" stroke-opacity="0.1" stroke="#03A" fill="url(#grad442.72726446.000000NRC)" transform="rotate(-90 442.727264 46.000000)" />
<ellipse cx="483.394" cy="156.455" rx="3.00267" ry="1" stroke-width="0.56" fill-opacity="0.1" stroke-opacity="0.1" stroke="#03A" fill="transparent" transform="rotate(-90 442.727264 46.000000)" />
<defs id="" >
<linearGradient id="grad442.72726446.000000NRCRedun" x1="0%" y1="0%" x2="100%" y2="0%" >
<stop offset="30%" stop-color="#CC3333" stop-opacity="1" />
<stop offset="100%" stop-color="#ff0000" stop-opacity="1" />
</linearGradient>
</defs>
<path id="492.06060846.000000" d="M 492.061,46
v 110.455
a 2.66667,1 0 0,0 5.33333,0
v -110.455
a 2.66667,1 0 0,0 -5.33333,0
z
" fill="url(#grad442.72726446.000000NRCRedun)" fill-opacity="0.1" stroke="#C00" stroke-opacity="0.1" stroke-linejoin="round" stroke-width="1.4" transform="rotate(-90 442.727264 46.000000)" />
<ellipse cx="494.727" cy="46" rx="3.00267" ry="1" stroke-width="0.56" fill-opacity="0.1" stroke-opacity="0.1" stroke="#C00" fill="url(#grad442.72726446.000000NRCRedun)" transform="rotate(-90 442.727264 46.000000)" />
<ellipse cx="494.727" cy="156.455" rx="3.00267" ry="1" stroke-width="0.56" fill-opacity="0.1" stroke-opacity="0.1" stroke="#C00" fill="transparent" transform="rotate(-90 442.727264 46.000000)" />
<defs id="" >
<linearGradient id="grad330.909088124.000000" x1="0%" y1="0%" x2="100%" y2="0%" >
<stop offset="30%" stop-color="#2C7778" stop-opacity="1" />
<stop offset="100%" stop-color="#3B9FA0" stop-opacity="1" />
</linearGradient>
</defs>
<path id="330.909088124.000000" d="M 330.909,124
v 108.636
a 8,2 0 0,0 16,0
v -108.636
a 8,2 0 0,0 -16,0
z
" fill="url(#grad330.909088124.000000)" fill-opacity="0.1" stroke="#1D4F50" stroke-opacity="0.1" stroke-linejoin="round" stroke-width="0.75" transform="rotate(-90 330.909088 124.000000)" />
<ellipse cx="338.909" cy="124" rx="8.18" ry="2" stroke-width="0.3" fill-opacity="0.1" stroke-opacity="0.1" stroke="#1D4F50" fill="url(#grad330.909088124.000000)" transform="rotate(-90 330.909088 124.000000)" />
<ellipse cx="338.909" cy="232.636" rx="8.18" ry="2" stroke-width="0.3" fill-opacity="0.1" stroke-opacity="0.1" stroke="#1D4F50" fill="transparent" transform="rotate(-90 330.909088 124.000000)" />
<defs id="" >
<pattern id="Wavy330.909088124.000000" x="330.909" y="124" width="16" height="14" patternUnits="userSpaceOnUse" >
<path id="" d="m -2.1,11.9
l 10.1,-9.8
l 10.1,9.8
" fill="transparent" fill-opacity="0.9" stroke="#134" stroke-opacity="1" stroke-linejoin="round" stroke-width="4.2" />
</pattern>
</defs>
<path id="330.909088124.000000" d="M 330.909,124
v 108.636
a 8,2 0 0,0 16,0
v -108.636
a 8,2 0 0,0 -16,0
z
" fill="url(#Wavy330.909088124.000000)" fill-opacity="0.1" stroke="#1D4F50" stroke-opacity="0.1" stroke-linejoin="round" stroke-width="0.75" transform="rotate(-90 330.909088 124.000000)" />
<ellipse cx="338.909" cy="124" rx="8.18" ry="2" stroke-width="0.3" fill-opacity="0.1" stroke-opacity="0.1" stroke="#1D4F50" fill="url(#Wavy330.909088124.000000)" transform="rotate(-90 330.909088 124.000000)" />
<ellipse cx="338.909" cy="232.636" rx="8.18" ry="2" stroke-width="0.3" fill-opacity="0.1" stroke-opacity="0.1" stroke="#1D4F50" fill="transparent" transform="rotate(-90 330.909088 124.000000)" />
<defs id="" >
<linearGradient id="grad330.909088124.000000NRC" x1="0%" y1="0%" x2="100%" y2="0%" >
<stop offset="30%" stop-color="#3333CC" stop-opacity="1" />
<stop offset="100%" stop-color="#0000ff" stop-opacity="1" />
</linearGradient>
</defs>
<path id="303.575745124.000000" d="M 303.576,124
v 108.636
a 2.66667,1 0 0,0 5.33333,0
v -108.636
a 2.66667,1 0 0,0 -5.33333,0
z
" fill="url(#grad330.909088124.000000NRC)" fill-opacity="0.1" stroke="#00A" stroke-opacity="0.1" stroke-linejoin="round" stroke-width="1.4" transform="rotate(-90 330.909088 124.000000)" />
<ellipse cx="306.242" cy="124" rx="3.00267" ry="1" stroke-width="0.56" fill-opacity="0.1" stroke-opacity="0.1" stroke="#00A" fill="url(#grad330.909088124.000000NRC)" transform="rotate(-90 330.909088 124.000000)" />
<ellipse cx="306.242" cy="232.636" rx="3.00267" ry="1" stroke-width="0.56" fill-opacity="0.1" stroke-opacity="0.1" stroke="#00A" fill="transparent" transform="rotate(-90 330.909088 124.000000)" />
<defs id="" >
<linearGradient id="grad330.909088124.000000NRCRedun" x1="0%" y1="0%" x2="100%" y2="0%" >
<stop offset="30%" stop-color="#CC3333" stop-opacity="1" />
<stop offset="100%" stop-color="#ff0000" stop-opacity="1" />
</linearGradient>
</defs>
<path id="292.242432124.000000" d="M 292.242,124
v 108.636
a 2.66667,1 0 0,0 5.33333,0
v -108.636
a 2.66667,1 0 0,0 -5.33333,0
z
" fill="url(#grad330.909088124.000000NRCRedun)" fill-opacity="0.1" stroke="#C00" stroke-opacity="0.1" stroke-linejoin="round" stroke-width="1.4" transform="rotate(-90 330.909088 124.000000)" />
<ellipse cx="294.909" cy="124" rx="3.00267" ry="1" stroke-width="0.56" fill-opacity="0.1" stroke-opacity="0.1" stroke="#C00" fill="url(#grad330.909088124.000000NRCRedun)" transform="rotate(-90 330.909088 124.000000)" />
<ellipse cx="294.909" cy="232.636" rx="3.00267" ry="1" stroke-width="0.56" fill-opacity="0.1" stroke-opacity="0.1" stroke="#C00" fill="transparent" transform="rotate(-90 330.909088 124.000000)" />
<polygon points="442.727,46 553.182,46 330.909,108 439.545,108 " fill="#3B9FA0" stroke="#3B9FA0" stroke-width="1" stroke-opacity="0.05" fill-opacity="0.05" />
<defs id="" >
<linearGradient id="grad333.18182446.000000" x1="0%" y1="0%" x2="100%" y2="0%" >
<stop offset="30%" stop-color="#77782C" stop-opacity="1" />
<stop offset="100%" stop-color="#9FA03B" stop-opacity="1" />
</linearGradient>
</defs>
<path id="333.18182446.000000" d="M 333.182,46
v 110
a 8,2 0 0,0 16,0
v -110
a 8,2 0 0,0 -16,0
z
" fill="url(#grad333.18182446.000000)" fill-opacity="0.1" stroke="#4F501D" stroke-opacity="0.1" stroke-linejoin="round" stroke-width="0.75" transform="rotate(-90 333.181824 46.000000)" />
<ellipse cx="341.182" cy="46" rx="8.18" ry="2" stroke-width="0.3" fill-opacity="0.1" stroke-opacity="0.1" stroke="#4F501D" fill="url(#grad333.18182446.000000)" transform="rotate(-90 333.181824 46.000000)" />
<ellipse cx="341.182" cy="156" rx="8.18" ry="2" stroke-width="0.3" fill-opacity="0.1" stroke-opacity="0.1" stroke="#4F501D" fill="transparent" transform="rotate(-90 333.181824 46.000000)" />
<defs id="" >
<linearGradient id="grad333.18182446.000000NRC" x1="0%" y1="0%" x2="100%" y2="0%" >
<stop offset="30%" stop-color="#3366CC" stop-opacity="1" />
<stop offset="100%" stop-color="#0055ff" stop-opacity="1" />
</linearGradient>
</defs>
<path id="371.18182446.000000" d="M 371.182,46
v 110
a 2.66667,1 0 0,0 5.33333,0
v -110
a 2.66667,1 0 0,0 -5.33333,0
z
" fill="url(#grad333.18182446.000000NRC)" fill-opacity="0.1" stroke="#03A" stroke-opacity="0.1" stroke-linejoin="round" stroke-width="1.4" transform="rotate(-90 333.181824 46.000000)" />
<ellipse cx="373.848" cy="46" rx="3.00267" ry="1" stroke-width="0.56" fill-opacity="0.1" stroke-opacity="0.1" stroke="#03A" fill="url(#grad333.18182446.000000NRC)" transform="rotate(-90 333.181824 46.000000)" />
<ellipse cx="373.848" cy="156" rx="3.00267" ry="1" stroke-width="0.56" fill-opacity="0.1" stroke-opacity="0.1" stroke="#03A" fill="transparent" transform="rotate(-90 333.181824 46.000000)" />
<defs id="" >
<linearGradient id="grad333.18182446.000000NRCRedun" x1="0%" y1="0%" x2="100%" y2="0%" >
<stop offset="30%" stop-color="#CC3333" stop-opacity="1" />
<stop offset="100%" stop-color="#ff0000" stop-opacity="1" />
</linearGradient>
</defs>
<path id="382.51516746.000000" d="M 382.515,46
v 110
a 2.66667,1 0 0,0 5.33333,0
v -110
a 2.66667,1 0 0,0 -5.33333,0
z
" fill="url(#grad333.18182446.000000NRCRedun)" fill-opacity="0.1" stroke="#C00" stroke-opacity="0.1" stroke-linejoin="round" stroke-width="1.4" transform="rotate(-90 333.181824 46.000000)" />
<ellipse cx="385.182" cy="46" rx="3.00267" ry="1" stroke-width="0.56" fill-opacity="0.1" stroke-opacity="0.1" stroke="#C00" fill="url(#grad333.18182446.000000NRCRedun)" transform="rotate(-90 333.181824 46.000000)" />
<ellipse cx="385.182" cy="156" rx="3.00267" ry="1" stroke-width="0.56" fill-opacity="0.1" stroke-opacity="0.1" stroke="#C00" fill="transparent" transform="rotate(-90 333.181824 46.000000)" />
<defs id="" >
<linearGradient id="grad445.454559124.000000" x1="0%" y1="0%" x2="100%" y2="0%" >
<stop offset="30%" stop-color="#77782C" stop-opacity="1" />
<stop offset="100%" stop-color="#9FA03B" stop-opacity="1" />
</linearGradient>
</defs>
<path id="445.454559124.000000" d="M 445.455,124
v 108.636
a 8,2 0 0,0 16,0
v -108.636
a 8,2 0 0,0 -16,0
z
" fill="url(#grad445.454559124.000000)" fill-opacity="0.1" stroke="#4F501D" stroke-opacity="0.1" stroke-linejoin="round" stroke-width="0.75" transform="rotate(-90 445.454559 124.000000)" />
<ellipse cx="453.455" cy="124" rx="8.18" ry="2" stroke-width="0.3" fill-opacity="0.1" stroke-opacity="0.1" stroke="#4F501D" fill="url(#grad445.454559124.000000)" transform="rotate(-90 445.454559 124.000000)" />
<ellipse cx="453.455" cy="232.636" rx="8.18" ry="2" stroke-width="0.3" fill-opacity="0.1" stroke-opacity="0.1" stroke="#4F501D" fill="transparent" transform="rotate(-90 445.454559 124.000000)" />
<defs id="" >
<linearGradient id="grad445.454559124.000000NRC" x1="0%" y1="0%" x2="100%" y2="0%" >
<stop offset="30%" stop-color="#3333CC" stop-opacity="1" />
<stop offset="100%" stop-color="#0000ff" stop-opacity="1" />
</linearGradient>
</defs>
<path id="418.121216124.000000" d="M 418.121,124
v 108.636
a 2.66667,1 0 0,0 5.33333,0
v -108.636
a 2.66667,1 0 0,0 -5.33333,0
z
" fill="url(#grad445.454559124.000000NRC)" fill-opacity="0.1" stroke="#00A" stroke-opacity="0.1" stroke-linejoin="round" stroke-width="1.4" transform="rotate(-90 445.454559 124.000000)" />
<ellipse cx="420.788" cy="124" rx="3.00267" ry="1" stroke-width="0.56" fill-opacity="0.1" stroke-opacity="0.1" stroke="#00A" fill="url(#grad445.454559124.000000NRC)" transform="rotate(-90 445.454559 124.000000)" />
<ellipse cx="420.788" cy="232.636" rx="3.00267" ry="1" stroke-width="0.56" fill-opacity="0.1" stroke-opacity="0.1" stroke="#00A" fill="transparent" transform="rotate(-90 445.454559 124.000000)" />
<defs id="" >
<linearGradient id="grad445.454559124.000000NRCRedun" x1="0%" y1="0%" x2="100%" y2="0%" >
<stop offset="30%" stop-color="#CC3333" stop-opacity="1" />
<stop offset="100%" stop-color="#ff0000" stop-opacity="1" />
</linearGradient>
</defs>
<path id="406.787903124.000000" d="M 406.788,124
v 108.636
a 2.66667,1 0 0,0 5.33333,0
v -108.636
a 2.66667,1 0 0,0 -5.33333,0
z
" fill="url(#grad445.454559124.000000NRCRedun)" fill-opacity="0.1" stroke="#C00" stroke-opacity="0.1" stroke-linejoin="round" stroke-width="1.4" transform="rotate(-90 445.454559 124.000000)" />
<ellipse cx="409.455" cy="124" rx="3.00267" ry="1" stroke-width="0.56" fill-opacity="0.1" stroke-opacity="0.1" stroke="#C00" fill="url(#grad445.454559124.000000NRCRedun)" transform="rotate(-90 445.454559 124.000000)" />
<ellipse cx="409.455" cy="232.636" rx="3.00267" ry="1" stroke-width="0.56" fill-opacity="0.1" stroke-opacity="0.1" stroke="#C00" fill="transparent" transform="rotate(-90 445.454559 124.000000)" />
<polygon points="333.182,46 443.182,46 554.091,108 445.455,108 " fill="#9FA03B" stroke="#9FA03B" stroke-width="1" stroke-opacity="0.05" fill-opacity="0.05" />
<defs id="" >
<linearGradient id="grad220.00000046.000000" x1="0%" y1="0%" x2="100%" y2="0%" >
<stop offset="30%" stop-color="#782D2C" stop-opacity="1" />
<stop offset="100%" stop-color="#A03C3B" stop-opacity="1" />
</linearGradient>
</defs>
<path id="220.00000046.000000" d="M 220,46
v 109.091
a 8,2 0 0,0 16,0
v -109.091
a 8,2 0 0,0 -16,0
z
" fill="url(#grad220.00000046.000000)" fill-opacity="0.1" stroke="#501E1D" stroke-opacity="0.1" stroke-linejoin="round" stroke-width="0.75" transform="rotate(-90 220.000000 46.000000)" />
<ellipse cx="228" cy="46" rx="8.18" ry="2" stroke-width="0.3" fill-opacity="0.1" stroke-opacity="0.1" stroke="#501E1D" fill="url(#grad220.00000046.000000)" transform="rotate(-90 220.000000 46.000000)" />
<ellipse cx="228" cy="155.091" rx="8.18" ry="2" stroke-width="0.3" fill-opacity="0.1" stroke-opacity="0.1" stroke="#501E1D" fill="transparent" transform="rotate(-90 220.000000 46.000000)" />
<defs id="" >
<linearGradient id="grad220.00000046.000000NRC" x1="0%" y1="0%" x2="100%" y2="0%" >
<stop offset="30%" stop-color="#3366CC" stop-opacity="1" />
<stop offset="100%" stop-color="#0055ff" stop-opacity="1" />
</linearGradient>
</defs>
<path id="258.00000046.000000" d="M 258,46
v 109.091
a 2.66667,1 0 0,0 5.33333,0
v -109.091
a 2.66667,1 0 0,0 -5.33333,0
z
" fill="url(#grad220.00000046.000000NRC)" fill-opacity="0.1" stroke="#03A" stroke-opacity="0.1" stroke-linejoin="round" stroke-width="1.4" transform="rotate(-90 220.000000 46.000000)" />
<ellipse cx="260.667" cy="46" rx="3.00267" ry="1" stroke-width="0.56" fill-opacity="0.1" stroke-opacity="0.1" stroke="#03A" fill="url(#grad220.00000046.000000NRC)" transform="rotate(-90 220.000000 46.000000)" />
<ellipse cx="260.667" cy="155.091" rx="3.00267" ry="1" stroke-width="0.56" fill-opacity="0.1" stroke-opacity="0.1" stroke="#03A" fill="transparent" transform="rotate(-90 220.000000 46.000000)" />
<defs id="" >
<linearGradient id="grad220.00000046.000000NRCRedun" x1="0%" y1="0%" x2="100%" y2="0%" >
<stop offset="30%" stop-color="#CC3333" stop-opacity="1" />
<stop offset="100%" stop-color="#ff0000" stop-opacity="1" />
</linearGradient>
</defs>
<path id="269.33334446.000000" d="M 269.333,46
v 109.091
a 2.66667,1 0 0,0 5.33333,0
v -109.091
a 2.66667,1 0 0,0 -5.33333,0
z
" fill="url(#grad220.00000046.000000NRCRedun)" fill-opacity="0.1" stroke="#C00" stroke-opacity="0.1" stroke-linejoin="round" stroke-width="1.4" transform="rotate(-90 220.000000 46.000000)" />
<ellipse cx="272" cy="46" rx="3.00267" ry="1" stroke-width="0.56" fill-opacity="0.1" stroke-opacity="0.1" stroke="#C00" fill="url(#grad220.00000046.000000NRCRedun)" transform="rotate(-90 220.000000 46.000000)" />
<ellipse cx="272" cy="155.091" rx="3.00267" ry="1" stroke-width="0.56" fill-opacity="0.1" stroke-opacity="0.1" stroke="#C00" fill="transparent" transform="rotate(-90 220.000000 46.000000)" />
<defs id="" >
<linearGradient id="grad104.545456124.000000" x1="0%" y1="0%" x2="100%" y2="0%" >
<stop offset="30%" stop-color="#782D2C" stop-opacity="1" />
<stop offset="100%" stop-color="#A03C3B" stop-opacity="1" />
</linearGradient>
</defs>
<path id="104.545456124.000000" d="M 104.545,124
v 107.727
a 8,2 0 0,0 16,0
v -107.727
a 8,2 0 0,0 -16,0
z
" fill="url(#grad104.545456124.000000)" fill-opacity="0.1" stroke="#501E1D" stroke-opacity="0.1" stroke-linejoin="round" stroke-width="0.75" transform="rotate(-90 104.545456 124.000000)" />
<ellipse cx="112.545" cy="124" rx="8.18" ry="2" stroke-width="0.3" fill-opacity="0.1" stroke-opacity="0.1" stroke="#501E1D" fill="url(#grad104.545456124.000000)" transform="rotate(-90 104.545456 124.000000)" />
<ellipse cx="112.545" cy="231.727" rx="8.18" ry="2" stroke-width="0.3" fill-opacity="0.1" stroke-opacity="0.1" stroke="#501E1D" fill="transparent" transform="rotate(-90 104.545456 124.000000)" />
<defs id="" >
<linearGradient id="grad104.545456124.000000NRC" x1="0%" y1="0%" x2="100%" y2="0%" >
<stop offset="30%" stop-color="#3366CC" stop-opacity="1" />
<stop offset="100%" stop-color="#0055ff" stop-opacity="1" />
</linearGradient>
</defs>
<path id="77.212120124.000000" d="M 77.2121,124
v 107.727
a 2.66667,1 0 0,0 5.33333,0
v -107.727
a 2.66667,1 0 0,0 -5.33333,0
z
" fill="url(#grad104.545456124.000000NRC)" fill-opacity="0.1" stroke="#03A" stroke-opacity="0.1" stroke-linejoin="round" stroke-width="1.4" transform="rotate(-90 104.545456 124.000000)" />
<ellipse cx="79.8788" cy="124" rx="3.00267" ry="1" stroke-width="0.56" fill-opacity="0.1" stroke-opacity="0.1" stroke="#03A" fill="url(#grad104.545456124.000000NRC)" transform="rotate(-90 104.545456 124.000000)" />
<ellipse cx="79.8788" cy="231.727" rx="3.00267" ry="1" stroke-width="0.56" fill-opacity="0.1" stroke-opacity="0.1" stroke="#03A" fill="transparent" transform="rotate(-90 104.545456 124.000000)" />
<defs id="" >
<linearGradient id="grad104.545456124.000000NRCRedun" x1="0%" y1="0%" x2="100%" y2="0%" >
<stop offset="30%" stop-color="#CC3333" stop-opacity="1" />
<stop offset="100%" stop-color="#ff0000" stop-opacity="1" />
</linearGradient>
</defs>
<path id="65.878784124.000000" d="M 65.8788,124
v 107.727
a 2.66667,1 0 0,0 5.33333,0
v -107.727
a 2.66667,1 0 0,0 -5.33333,0
z
" fill="url(#grad104.545456124.000000NRCRedun)" fill-opacity="0.1" stroke="#C00" stroke-opacity="0.1" stroke-linejoin="round" stroke-width="1.4" transform="rotate(-90 104.545456 124.000000)" />
<ellipse cx="68.5454" cy="124" rx="3.00267" ry="1" stroke-width="0.56" fill-opacity="0.1" stroke-opacity="0.1" stroke="#C00" fill="url(#grad104.545456124.000000NRCRedun)" transform="rotate(-90 104.545456 124.000000)" />
<ellipse cx="68.5454" cy="231.727" rx="3.00267" ry="1" stroke-width="0.56" fill-opacity="0.1" stroke-opacity="0.1" stroke="#C00" fill="transparent" transform="rotate(-90 104.545456 124.000000)" />
<polygon points="220,46 329.091,46 212.273,108 104.545,108 " fill="#A03C3B" stroke="#A03C3B" stroke-width="1" stroke-opacity="0.05" fill-opacity="0.05" />
<defs id="" >
<linearGradient id="grad100.00000046.000000" x1="0%" y1="0%" x2="100%" y2="0%" >
<stop offset="30%" stop-color="#2C782D" stop-opacity="1" />
<stop offset="100%" stop-color="#3BA03C" stop-opacity="1" />
</linearGradient>
</defs>
<path id="100.00000046.000000" d="M 100,46
v 110.909
a 8,2 0 0,0 16,0
v -110.909
a 8,2 0 0,0 -16,0
z
" fill="url(#grad100.00000046.000000)" fill-opacity="0.1" stroke="#1D501E" stroke-opacity="0.1" stroke-linejoin="round" stroke-width="0.75" transform="rotate(-90 100.000000 46.000000)" />
<ellipse cx="108" cy="46" rx="8.18" ry="2" stroke-width="0.3" fill-opacity="0.1" stroke-opacity="0.1" stroke="#1D501E" fill="url(#grad100.00000046.000000)" transform="rotate(-90 100.000000 46.000000)" />
<ellipse cx="108" cy="156.909" rx="8.18" ry="2" stroke-width="0.3" fill-opacity="0.1" stroke-opacity="0.1" stroke="#1D501E" fill="transparent" transform="rotate(-90 100.000000 46.000000)" />
<defs id="" >
<linearGradient id="grad100.00000046.000000NRC" x1="0%" y1="0%" x2="100%" y2="0%" >
<stop offset="30%" stop-color="#3366CC" stop-opacity="1" />
<stop offset="100%" stop-color="#0055ff" stop-opacity="1" />
</linearGradient>
</defs>
<path id="138.00000046.000000" d="M 138,46
v 110.909
a 2.66667,1 0 0,0 5.33333,0
v -110.909
a 2.66667,1 0 0,0 -5.33333,0
z
" fill="url(#grad100.00000046.000000NRC)" fill-opacity="0.1" stroke="#03A" stroke-opacity="0.1" stroke-linejoin="round" stroke-width="1.4" transform="rotate(-90 100.000000 46.000000)" />
<ellipse cx="140.667" cy="46" rx="3.00267" ry="1" stroke-width="0.56" fill-opacity="0.1" stroke-opacity="0.1" stroke="#03A" fill="url(#grad100.00000046.000000NRC)" transform="rotate(-90 100.000000 46.000000)" />
<ellipse cx="140.667" cy="156.909" rx="3.00267" ry="1" stroke-width="0.56" fill-opacity="0.1" stroke-opacity="0.1" stroke="#03A" fill="transparent" transform="rotate(-90 100.000000 46.000000)" />
<defs id="" >
<linearGradient id="grad100.00000046.000000NRCRedun" x1="0%" y1="0%" x2="100%" y2="0%" >
<stop offset="30%" stop-color="#CC3333" stop-opacity="1" />
<stop offset="100%" stop-color="#ff0000" stop-opacity="1" />
</linearGradient>
</defs>
<path id="149.33332846.000000" d="M 149.333,46
v 110.909
a 2.66667,1 0 0,0 5.33333,0
v -110.909
a 2.66667,1 0 0,0 -5.33333,0
z
" fill="url(#grad100.00000046.000000NRCRedun)" fill-opacity="0.1" stroke="#C00" stroke-opacity="0.1" stroke-linejoin="round" stroke-width="1.4" transform="rotate(-90 100.000000 46.000000)" />
<ellipse cx="152" cy="46" rx="3.00267" ry="1" stroke-width="0.56" fill-opacity="0.1" stroke-opacity="0.1" stroke="#C00" fill="url(#grad100.00000046.000000NRCRedun)" transform="rotate(-90 100.000000 46.000000)" />
<ellipse cx="152" cy="156.909" rx="3.00267" ry="1" stroke-width="0.56" fill-opacity="0.1" stroke-opacity="0.1" stroke="#C00" fill="transparent" transform="rotate(-90 100.000000 46.000000)" />
<defs id="" >
<linearGradient id="grad218.181824124.000000" x1="0%" y1="0%" x2="100%" y2="0%" >
<stop offset="30%" stop-color="#2C782D" stop-opacity="1" />
<stop offset="100%" stop-color="#3BA03C" stop-opacity="1" />
</linearGradient>
</defs>
<path id="218.181824124.000000" d="M 218.182,124
v 109.091
a 8,2 0 0,0 16,0
v -109.091
a 8,2 0 0,0 -16,0
z
" fill="url(#grad218.181824124.000000)" fill-opacity="0.1" stroke="#1D501E" stroke-opacity="0.1" stroke-linejoin="round" stroke-width="0.75" transform="rotate(-90 218.181824 124.000000)" />
<ellipse cx="226.182" cy="124" rx="8.18" ry="2" stroke-width="0.3" fill-opacity="0.1" stroke-opacity="0.1" stroke="#1D501E" fill="url(#grad218.181824124.000000)" transform="rotate(-90 218.181824 124.000000)" />
<ellipse cx="226.182" cy="233.091" rx="8.18" ry="2" stroke-width="0.3" fill-opacity="0.1" stroke-opacity="0.1" stroke="#1D501E" fill="transparent" transform="rotate(-90 218.181824 124.000000)" />
<defs id="" >
<pattern id="Wavy218.181824124.000000" x="218.182" y="124" width="16" height="14" patternUnits="userSpaceOnUse" >
<path id="" d="m -2.1,11.9
l 10.1,-9.8
l 10.1,9.8
" fill="transparent" fill-opacity="0.9" stroke="#141" stroke-opacity="1" stroke-linejoin="round" stroke-width="4.2" />
</pattern>
</defs>
<path id="218.181824124.000000" d="M 218.182,124
v 109.091
a 8,2 0 0,0 16,0
v -109.091
a 8,2 0 0,0 -16,0
z
" fill="url(#Wavy218.181824124.000000)" fill-opacity="0.1" stroke="#1D501E" stroke-opacity="0.1" stroke-linejoin="round" stroke-width="0.75" transform="rotate(-90 218.181824 124.000000)" />
<ellipse cx="226.182" cy="124" rx="8.18" ry="2" stroke-width="0.3" fill-opacity="0.1" stroke-opacity="0.1" stroke="#1D501E" fill="url(#Wavy218.181824124.000000)" transform="rotate(-90 218.181824 124.000000)" />
<ellipse cx="226.182" cy="233.091" rx="8.18" ry="2" stroke-width="0.3" fill-opacity="0.1" stroke-opacity="0.1" stroke="#1D501E" fill="transparent" transform="rotate(-90 218.181824 124.000000)" />
<defs id="" >
<linearGradient id="grad218.181824124.000000NRC" x1="0%" y1="0%" x2="100%" y2="0%" >
<stop offset="30%" stop-color="#3333CC" stop-opacity="1" />
<stop offset="100%" stop-color="#0000ff" stop-opacity="1" />
</linearGradient>
</defs>
<path id="190.848495124.000000" d="M 190.848,124
v 109.091
a 2.66667,1 0 0,0 5.33333,0
v -109.091
a 2.66667,1 0 0,0 -5.33333,0
z
" fill="url(#grad218.181824124.000000NRC)" fill-opacity="0.1" stroke="#00A" stroke-opacity="0.1" stroke-linejoin="round" stroke-width="1.4" transform="rotate(-90 218.181824 124.000000)" />
<ellipse cx="193.515" cy="124" rx="3.00267" ry="1" stroke-width="0.56" fill-opacity="0.1" stroke-opacity="0.1" stroke="#00A" fill="url(#grad218.181824124.000000NRC)" transform="rotate(-90 218.181824 124.000000)" />
<ellipse cx="193.515" cy="233.091" rx="3.00267" ry="1" stroke-width="0.56" fill-opacity="0.1" stroke-opacity="0.1" stroke="#00A" fill="transparent" transform="rotate(-90 218.181824 124.000000)" />
<defs id="" >
<linearGradient id="grad218.181824124.000000NRCRedun" x1="0%" y1="0%" x2="100%" y2="0%" >
<stop offset="30%" stop-color="#CC6633" stop-opacity="1" />
<stop offset="100%" stop-color="#ff5500" stop-opacity="1" />
</linearGradient>
</defs>
<path id="179.515152124.000000" d="M 179.515,124
v 109.091
a 2.66667,1 0 0,0 5.33333,0
v -109.091
a 2.66667,1 0 0,0 -5.33333,0
z
" fill="url(#grad218.181824124.000000NRCRedun)" fill-opacity="0.1" stroke="#C40" stroke-opacity="0.1" stroke-linejoin="round" stroke-width="1.4" transform="rotate(-90 218.181824 124.000000)" />
<ellipse cx="182.182" cy="124" rx="3.00267" ry="1" stroke-width="0.56" fill-opacity="0.1" stroke-opacity="0.1" stroke="#C40" fill="url(#grad218.181824124.000000NRCRedun)" transform="rotate(-90 218.181824 124.000000)" />
<ellipse cx="182.182" cy="233.091" rx="3.00267" ry="1" stroke-width="0.56" fill-opacity="0.1" stroke-opacity="0.1" stroke="#C40" fill="transparent" transform="rotate(-90 218.181824 124.000000)" />
<polygon points="100,46 210.909,46 218.182,108 327.273,108 " fill="#3BA03C" stroke="#3BA03C" stroke-width="1" stroke-opacity="0.05" fill-opacity="0.05" />
<path id="100.00000046.000000" d="M 100,46
v 500
a 8,2 0 0,0 16,0
v -500
a 8,2 0 0,0 -16,0
z
" fill="transparent" fill-opacity="0.9" stroke="black" stroke-opacity="1" stroke-linejoin="round" stroke-width="1.25" transform="rotate(-90 100.000000 46.000000)" />
<ellipse cx="108" cy="46" rx="8.3" ry="2" stroke-width="0.5" fill-opacity="0.9" stroke-opacity="1" stroke="black" fill="transparent" transform="rotate(-90 100.000000 46.000000)" />
<ellipse cx="108" cy="546" rx="8.3" ry="2" stroke-width="0.5" fill-opacity="0.9" stroke-opacity="1" stroke="black" fill="transparent" transform="rotate(-90 100.000000 46.000000)" />
<path id="100.000000124.000000" d="M 100,124
v 454.545
a 8,2 0 0,0 16,0
v -454.545
a 8,2 0 0,0 -16,0
z
" fill="transparent" fill-opacity="0.9" stroke="black" stroke-opacity="1" stroke-linejoin="round" stroke-width="1.25" transform="rotate(-90 100.000000 124.000000)" />
<ellipse cx="108" cy="124" rx="8.3" ry="2" stroke-width="0.5" fill-opacity="0.9" stroke-opacity="1" stroke="black" fill="transparent" transform="rotate(-90 100.000000 124.000000)" />
<ellipse cx="108" cy="578.545" rx="8.3" ry="2" stroke-width="0.5" fill-opacity="0.9" stroke-opacity="1" stroke="black" fill="transparent" transform="rotate(-90 100.000000 124.000000)" />
<text id="100.00000014.000000" x="100" y="14" dominant-baseline="text-before-edge" font-size="10px" font-weight="bold" font-family="Arial" text-anchor="start" text-align="start" line-height="125%%" >
RefS</text>
<text id="100.000000140.000000" x="100" y="140" dominant-baseline="text-after-edge" font-size="10px" font-weight="bold" font-family="Arial" text-anchor="start" text-align="start" line-height="125%%" >
TarS</text>
<text id="630.00000077.000000" x="630" y="77" dominant-baseline="middle" transform="rotate(90 630.000000 77.000000)" font-size="9px" font-family="Arial" text-anchor="middle" text-align="start" line-height="125%%" >
Relative Redundancy</text>
<path id="" d="M 553.182,5.33333
H 630
V 30
" fill="transparent" fill-opacity="0.9" stroke="black" stroke-opacity="1" stroke-linejoin="round" stroke-width="0.5" />
<path id="" d="M 554.091,148.667
H 630
V 124
" fill="transparent" fill-opacity="0.9" stroke="black" stroke-opacity="1" stroke-linejoin="round" stroke-width="0.5" />
<text id="665.00000077.000000" x="665" y="77" dominant-baseline="middle" transform="rotate(90 665.000000 77.000000)" font-size="9px" font-family="Arial" text-anchor="middle" text-align="start" line-height="125%%" >
Redundancy</text>
<path id="" d="M 553.182,-6
H 665
V 45
" fill="transparent" fill-opacity="0.9" stroke="black" stroke-opacity="1" stroke-linejoin="round" stroke-width="0.5" />
<path id="" d="M 554.091,160
H 665
V 109
" fill="transparent" fill-opacity="0.9" stroke="black" stroke-opacity="1" stroke-linejoin="round" stroke-width="0.5" />
<defs id="" >
<linearGradient id="grad640.0000008.000000" x1="0%" y1="100%" x2="0%" y2="0%" >
<stop offset="0%" stop-color="#0000ff" stop-opacity="1" />
<stop offset="8%" stop-color="#0055ff" stop-opacity="1" />
<stop offset="16%" stop-color="#00aaff" stop-opacity="1" />
<stop offset="25%" stop-color="#00ffff" stop-opacity="1" />
<stop offset="33%" stop-color="#00ffaa" stop-opacity="1" />
<stop offset="41%" stop-color="#00ff55" stop-opacity="1" />
<stop offset="50%" stop-color="#00ff00" stop-opacity="1" />
<stop offset="58%" stop-color="#55ff00" stop-opacity="1" />
<stop offset="66%" stop-color="#aaff00" stop-opacity="1" />
<stop offset="75%" stop-color="#ffff00" stop-opacity="1" />
<stop offset="83%" stop-color="#ffaa00" stop-opacity="1" />
<stop offset="91%" stop-color="#ff5500" stop-opacity="1" />
<stop offset="100%" stop-color="#ff0000" stop-opacity="1" />
</linearGradient>
</defs>
<rect x="640" y="8" width="15" height="138" rx="2" ry="2" fill="url(#grad640.0000008.000000)" fill-opacity="0.9" stroke="black" stroke-width="0.5" />
<text id="647.500000152.000000" x="647.5" y="152" dominant-baseline="middle" font-size="8px" font-weight="normal" font-family="Arial" text-anchor="middle" text-align="middle" line-height="125%%" >
0.0</text>
<text id="647.500000111.500000" x="647.5" y="111.5" dominant-baseline="middle" font-size="8px" font-weight="normal" font-family="Arial" text-anchor="middle" text-align="middle" line-height="125%%" >
0.5</text>
<text id="647.50000077.000000" x="647.5" y="77" dominant-baseline="middle" font-size="8px" font-weight="normal" font-family="Arial" text-anchor="middle" text-align="middle" line-height="125%%" >
1.0</text>
<text id="647.50000042.500000" x="647.5" y="42.5" dominant-baseline="middle" font-size="8px" font-weight="normal" font-family="Arial" text-anchor="middle" text-align="middle" line-height="125%%" >
1.5</text>
<text id="647.5000002.000000" x="647.5" y="2" dominant-baseline="middle" font-size="8px" font-weight="normal" font-family="Arial" text-anchor="middle" text-align="middle" line-height="125%%" >
2.0</text>
</svg>