<?xml version="1.0" encoding="UTF-8" standalone="no"?>
<!-- Morteza Hosseini, IEETA 2018-2019 -->
<svg xmlns="http://www.w3.org/2000/svg" xmlns:xlink="http://www.w3.org/1999/xlink" width="504" height="650" >
<defs id="" >
<pattern id="Wavy" x="283" y="0" width="21" height="7" patternUnits="userSpaceOnUse" >
<path id="" d="m 0,0
a 10.5,2 0 0,0 21,0
" fill="transparent" fill-opacity="0.9" stroke="black" stroke-opacity="1" stroke-linejoin="round" stroke-width="1" />
</pattern>
</defs>
<defs id="" >
<pattern id="WavyWhite" x="283" y="0" width="21" height="7" patternUnits="userSpaceOnUse" >
<path id="" d="m 0,0
a 10.5,2 0 0,0 21,0
" fill="transparent" fill-opacity="0.9" stroke="white" stroke-opacity="1" stroke-linejoin="round" stroke-width="1" />
</pattern>
</defs>
<rect x="0" y="0" width="504" height="650" ry="1" fill="white" fill-opacity="1" stroke="white" stroke-width="0" />
<text id="191.000000100.000000" x="191" y="100" dominant-baseline="text-before-edge" font-size="9px" font-family="Arial" text-anchor="end" text-align="start" line-height="125%%" >
<tspan id="2" style="fill:#3BA05D">0</tspan>
</text>
<text id="191.000000524.808594" x="191" y="524.809" dominant-baseline="text-after-edge" font-size="9px" font-family="Arial" text-anchor="end" text-align="start" line-height="125%%" >
<tspan id="2" style="fill:#3BA05D">8496172</tspan>
</text>
<text id="191.000000527.197510" x="191" y="527.198" dominant-baseline="middle" font-size="9px" font-family="Arial" text-anchor="end" text-align="start" line-height="125%%" >
<tspan id="3" style="fill:#3B6EA0">8528991-8558910</tspan>

</text>
<text id="191.000000530.226807" x="191" y="530.227" dominant-baseline="middle" font-size="9px" font-family="Arial" text-anchor="end" text-align="start" line-height="125%%" >
<tspan id="4" style="fill:#7D3BA0">8566009-8643063</tspan>

</text>
<text id="191.000000535.731689" x="191" y="535.732" dominant-baseline="middle" font-size="9px" font-family="Arial" text-anchor="end" text-align="start" line-height="125%%" >
<tspan id="5" style="fill:#A03B4D">8700509-8728760</tspan>

</text>
<text id="313.000000100.000000" x="313" y="100" dominant-baseline="text-before-edge" font-size="9px" font-family="Arial" text-anchor="start" text-align="start" line-height="125%%" >
<tspan id="2" style="fill:#3BA05D">0</tspan>
</text>
<text id="313.000000524.935669" x="313" y="524.936" dominant-baseline="text-after-edge" font-size="9px" font-family="Arial" text-anchor="start" text-align="start" line-height="125%%" >
<tspan id="2" style="fill:#3BA05D">8498713</tspan>
</text>
<text id="313.000000527.143982" x="313" y="527.144" dominant-baseline="middle" font-size="9px" font-family="Arial" text-anchor="start" text-align="start" line-height="125%%" >
<tspan id="3" style="fill:#3B6EA0">8531308-8554453</tspan>

</text>
<text id="313.000000530.214600" x="313" y="530.215" dominant-baseline="middle" font-size="9px" font-family="Arial" text-anchor="start" text-align="start" line-height="125%%" >
<tspan id="4" style="fill:#7D3BA0">8570011-8638574</tspan>

</text>
<text id="313.000000535.687073" x="313" y="535.687" dominant-baseline="middle" font-size="9px" font-family="Arial" text-anchor="start" text-align="start" line-height="125%%" >
<tspan id="5" style="fill:#A03B4D">8703186-8724299</tspan>

</text>
<defs id="" >
<linearGradient id="grad200.000000535.025452" x1="0%" y1="0%" x2="100%" y2="0%" >
<stop offset="30%" stop-color="#782C39" stop-opacity="1" />
<stop offset="100%" stop-color="#A03B4D" stop-opacity="1" />
</linearGradient>
</defs>
<path id="200.000000535.025452" d="M 200,535.025
v 1.41255
a 10.5,2 0 0,0 21,0
v -1.41255
a 10.5,2 0 0,1 -21,0
" fill="url(#grad200.000000535.025452)" fill-opacity="1" stroke="#501D26" stroke-opacity="1" stroke-linejoin="round" stroke-width="0.75" />
<ellipse cx="210.5" cy="535.025" rx="10.6875" ry="2" stroke-width="0.375" fill-opacity="1" stroke-opacity="1" stroke="#501D26" fill="url(#grad200.000000535.025452)" />
<ellipse cx="210.5" cy="536.438" rx="10.6875" ry="2" stroke-width="0.375" fill-opacity="1" stroke-opacity="1" stroke="#501D26" fill="transparent" />
<defs id="" >
<linearGradient id="grad283.000000535.159302" x1="0%" y1="0%" x2="100%" y2="0%" >
<stop offset="30%" stop-color="#782C39" stop-opacity="1" />
<stop offset="100%" stop-color="#A03B4D" stop-opacity="1" />
</linearGradient>
</defs>
<path id="283.000000535.159302" d="M 283,535.159
v 1.05565
a 10.5,2 0 0,0 21,0
v -1.05565
a 10.5,2 0 0,1 -21,0
" fill="url(#grad283.000000535.159302)" fill-opacity="1" stroke="#501D26" stroke-opacity="1" stroke-linejoin="round" stroke-width="0.75" />
<ellipse cx="293.5" cy="535.159" rx="10.6875" ry="2" stroke-width="0.375" fill-opacity="1" stroke-opacity="1" stroke="#501D26" fill="url(#grad283.000000535.159302)" />
<ellipse cx="293.5" cy="536.215" rx="10.6875" ry="2" stroke-width="0.375" fill-opacity="1" stroke-opacity="1" stroke="#501D26" fill="transparent" />
<polygon points="221,535.025 221,536.438 283,536.215 283,535.159 " fill="#A03B4D" stroke="#A03B4D" stroke-width="1" stroke-opacity="0.5" fill-opacity="0.5" />
<defs id="" >
<linearGradient id="grad200.000000528.300476" x1="0%" y1="0%" x2="100%" y2="0%" >
<stop offset="30%" stop-color="#5D2C78" stop-opacity="1" />
<stop offset="100%" stop-color="#7D3BA0" stop-opacity="1" />
</linearGradient>
</defs>
<path id="200.000000528.300476" d="M 200,528.3
v 3.8527
a 10.5,2 0 0,0 21,0
v -3.8527
a 10.5,2 0 0,1 -21,0
" fill="url(#grad200.000000528.300476)" fill-opacity="1" stroke="#3E1D50" stroke-opacity="1" stroke-linejoin="round" stroke-width="0.75" />
<ellipse cx="210.5" cy="528.3" rx="10.6875" ry="2" stroke-width="0.375" fill-opacity="1" stroke-opacity="1" stroke="#3E1D50" fill="url(#grad200.000000528.300476)" />
<ellipse cx="210.5" cy="532.153" rx="10.6875" ry="2" stroke-width="0.375" fill-opacity="1" stroke-opacity="1" stroke="#3E1D50" fill="transparent" />
<defs id="" >
<linearGradient id="grad283.000000528.500549" x1="0%" y1="0%" x2="100%" y2="0%" >
<stop offset="30%" stop-color="#5D2C78" stop-opacity="1" />
<stop offset="100%" stop-color="#7D3BA0" stop-opacity="1" />
</linearGradient>
</defs>
<path id="283.000000528.500549" d="M 283,528.501
v 3.42815
a 10.5,2 0 0,0 21,0
v -3.42815
a 10.5,2 0 0,1 -21,0
" fill="url(#grad283.000000528.500549)" fill-opacity="1" stroke="#3E1D50" stroke-opacity="1" stroke-linejoin="round" stroke-width="0.75" />
<ellipse cx="293.5" cy="528.501" rx="10.6875" ry="2" stroke-width="0.375" fill-opacity="1" stroke-opacity="1" stroke="#3E1D50" fill="url(#grad283.000000528.500549)" />
<ellipse cx="293.5" cy="531.929" rx="10.6875" ry="2" stroke-width="0.375" fill-opacity="1" stroke-opacity="1" stroke="#3E1D50" fill="transparent" />
<polygon points="221,528.3 221,532.153 283,531.929 283,528.501 " fill="#7D3BA0" stroke="#7D3BA0" stroke-width="1" stroke-opacity="0.5" fill-opacity="0.5" />
<defs id="" >
<linearGradient id="grad200.000000526.449524" x1="0%" y1="0%" x2="100%" y2="0%" >
<stop offset="30%" stop-color="#2C5278" stop-opacity="1" />
<stop offset="100%" stop-color="#3B6EA0" stop-opacity="1" />
</linearGradient>
</defs>
<path id="200.000000526.449524" d="M 200,526.45
v 1.49595
a 10.5,2 0 0,0 21,0
v -1.49595
a 10.5,2 0 0,1 -21,0
" fill="url(#grad200.000000526.449524)" fill-opacity="1" stroke="#1D3750" stroke-opacity="1" stroke-linejoin="round" stroke-width="0.75" />
<ellipse cx="210.5" cy="526.45" rx="10.6875" ry="2" stroke-width="0.375" fill-opacity="1" stroke-opacity="1" stroke="#1D3750" fill="url(#grad200.000000526.449524)" />
<ellipse cx="210.5" cy="527.945" rx="10.6875" ry="2" stroke-width="0.375" fill-opacity="1" stroke-opacity="1" stroke="#1D3750" fill="transparent" />
<defs id="" >
<linearGradient id="grad283.000000526.565430" x1="0%" y1="0%" x2="100%" y2="0%" >
<stop offset="30%" stop-color="#2C5278" stop-opacity="1" />
<stop offset="100%" stop-color="#3B6EA0" stop-opacity="1" />
</linearGradient>
</defs>
<path id="283.000000526.565430" d="M 283,526.565
v 1.15725
a 10.5,2 0 0,0 21,0
v -1.15725
a 10.5,2 0 0,1 -21,0
" fill="url(#grad283.000000526.565430)" fill-opacity="1" stroke="#1D3750" stroke-opacity="1" stroke-linejoin="round" stroke-width="0.75" />
<ellipse cx="293.5" cy="526.565" rx="10.6875" ry="2" stroke-width="0.375" fill-opacity="1" stroke-opacity="1" stroke="#1D3750" fill="url(#grad283.000000526.565430)" />
<ellipse cx="293.5" cy="527.723" rx="10.6875" ry="2" stroke-width="0.375" fill-opacity="1" stroke-opacity="1" stroke="#1D3750" fill="transparent" />
<polygon points="221,526.45 221,527.945 283,527.723 283,526.565 " fill="#3B6EA0" stroke="#3B6EA0" stroke-width="1" stroke-opacity="0.5" fill-opacity="0.5" />
<defs id="" >
<linearGradient id="grad200.000000100.000000" x1="0%" y1="0%" x2="100%" y2="0%" >
<stop offset="30%" stop-color="#2C7845" stop-opacity="1" />
<stop offset="100%" stop-color="#3BA05D" stop-opacity="1" />
</linearGradient>
</defs>
<path id="200.000000100.000000" d="M 200,100
v 424.809
a 10.5,2 0 0,0 21,0
v -424.809
a 10.5,2 0 0,1 -21,0
" fill="url(#grad200.000000100.000000)" fill-opacity="1" stroke="#1D502E" stroke-opacity="1" stroke-linejoin="round" stroke-width="0.75" />
<ellipse cx="210.5" cy="100" rx="10.6875" ry="2" stroke-width="0.375" fill-opacity="1" stroke-opacity="1" stroke="#1D502E" fill="url(#grad200.000000100.000000)" />
<ellipse cx="210.5" cy="524.809" rx="10.6875" ry="2" stroke-width="0.375" fill-opacity="1" stroke-opacity="1" stroke="#1D502E" fill="transparent" />
<defs id="" >
<linearGradient id="grad283.000000100.000000" x1="0%" y1="0%" x2="100%" y2="0%" >
<stop offset="30%" stop-color="#2C7845" stop-opacity="1" />
<stop offset="100%" stop-color="#3BA05D" stop-opacity="1" />
</linearGradient>
</defs>
<path id="283.000000100.000000" d="M 283,100
v 424.936
a 10.5,2 0 0,0 21,0
v -424.936
a 10.5,2 0 0,1 -21,0
" fill="url(#grad283.000000100.000000)" fill-opacity="1" stroke="#1D502E" stroke-opacity="1" stroke-linejoin="round" stroke-width="0.75" />
<ellipse cx="293.5" cy="100" rx="10.6875" ry="2" stroke-width="0.375" fill-opacity="1" stroke-opacity="1" stroke="#1D502E" fill="url(#grad283.000000100.000000)" />
<ellipse cx="293.5" cy="524.936" rx="10.6875" ry="2" stroke-width="0.375" fill-opacity="1" stroke-opacity="1" stroke="#1D502E" fill="transparent" />
<polygon points="221,100 221,524.809 283,524.936 283,100 " fill="#3BA05D" stroke="#3BA05D" stroke-width="1" stroke-opacity="0.5" fill-opacity="0.5" />
<path id="200.000000100.000000" d="M 200,100
v 500
a 10.5,2 0 0,0 21,0
v -500
a 10.5,2 0 0,1 -21,0
" fill="transparent" fill-opacity="0.9" stroke="black" stroke-opacity="1" stroke-linejoin="round" stroke-width="2" />
<ellipse cx="210.5" cy="100" rx="11" ry="2" stroke-width="1" fill-opacity="0.9" stroke-opacity="1" stroke="black" fill="transparent" />
<ellipse cx="210.5" cy="600" rx="11" ry="2" stroke-width="1" fill-opacity="0.9" stroke-opacity="1" stroke="black" fill="transparent" />
<path id="283.000000100.000000" d="M 283,100
v 500
a 10.5,2 0 0,0 21,0
v -500
a 10.5,2 0 0,1 -21,0
" fill="transparent" fill-opacity="0.9" stroke="black" stroke-opacity="1" stroke-linejoin="round" stroke-width="2" />
<ellipse cx="293.5" cy="100" rx="11" ry="2" stroke-width="1" fill-opacity="0.9" stroke-opacity="1" stroke="black" fill="transparent" />
<ellipse cx="293.5" cy="600" rx="11" ry="2" stroke-width="1" fill-opacity="0.9" stroke-opacity="1" stroke="black" fill="transparent" />
<path id="" d="M 210.5,100
v -20
h -10
" fill="transparent" fill-opacity="0.9" stroke="black" stroke-opacity="1" stroke-linejoin="round" stroke-width="0.5" />
<path id="" d="M 293.5,100
v -20
h 10
" fill="transparent" fill-opacity="0.9" stroke="black" stroke-opacity="1" stroke-linejoin="round" stroke-width="0.5" />
<text id="195.50000080.000000" x="195.5" y="80" dominant-baseline="middle" font-size="10px" font-weight="bold" font-family="Arial" text-anchor="end" text-align="start" line-height="125%%" >
RefMut</text>
<text id="308.50000080.000000" x="308.5" y="80" dominant-baseline="middle" font-size="10px" font-weight="bold" font-family="Arial" text-anchor="start" text-align="start" line-height="125%%" >
TarMut</text>
</svg>