<?xml version="1.0" encoding="UTF-8" standalone="no"?>
<!-- Morteza Hosseini, IEETA 2018-2019 -->

<svg xmlns="http://www.w3.org/2000/svg" width="504" height="650" >
<defs id="ffff" >
<pattern id="Wavy" x="-10.50" y="0.00" width="21.00" height="7.00" patternUnits="userSpaceOnUse" >
<path d="m0,0 a 10.500000,2.000000 0 0,0 21.000000,0 " fill="transparent" fill-opacity="0.8" stroke="black" stroke-linejoin="round" stroke-dasharray="" stroke-width="1.00" />
</pattern>
</defs>

<defs id="ffff" >
<pattern id="WavyWhite" x="-10.50" y="0.00" width="21.00" height="7.00" patternUnits="userSpaceOnUse" >
<path d="m0,0 a 10.500000,2.000000 0 0,0 21.000000,0 " fill="transparent" fill-opacity="0.8" stroke="white" stroke-linejoin="round" stroke-dasharray="" stroke-width="1.00" />
</pattern>
</defs>

<rect fill="white" stroke="white" fill-opacity="0.8" width="504.00" height="650.00" x="0.00" y="0.00" ry="3" />

<text id="210.50000085.000000" x="210.50" y="85.00" dx="0" dy="0" dominant-baseline="middle" transform="" font-size="12px" font-weight="normal" font-family="Arial" fill="black" text-align="start" line-height="125%%" text-anchor="middle" >refs</text>

<text id="293.50000085.000000" x="293.50" y="85.00" dx="0" dy="0" dominant-baseline="middle" transform="" font-size="12px" font-weight="normal" font-family="Arial" fill="black" text-align="start" line-height="125%%" text-anchor="middle" >tars</text>

<text id="167.000000100.000000" x="167.00" y="100.00" dx="0" dy="0" dominant-baseline="text-before-edge" transform="" font-size="9px" font-weight="normal" font-family="Arial" fill="black" text-align="start" line-height="125%%" text-anchor="end" ><tspan id="2" style="fill:#3BA03C">0</tspan>
</text>

<text id="167.000000220.000000" x="167.00" y="220.00" dx="0" dy="0" dominant-baseline="middle" transform="" font-size="9px" font-weight="normal" font-family="Arial" fill="black" text-align="start" line-height="125%%" text-anchor="end" ><tspan id="0" style="fill:#A03C3B">240, </tspan>
<tspan id="2" style="fill:#3BA03C">241</tspan>
</text>

<text id="167.000000339.500000" x="167.00" y="339.50" dx="0" dy="0" dominant-baseline="text-after-edge" transform="" font-size="9px" font-weight="normal" font-family="Arial" fill="black" text-align="start" line-height="125%%" text-anchor="end" ><tspan id="0" style="fill:#A03C3B">479</tspan>
</text>

<text id="167.000000344.500000" x="167.00" y="344.50" dx="0" dy="0" dominant-baseline="text-before-edge" transform="" font-size="9px" font-weight="normal" font-family="Arial" fill="black" text-align="start" line-height="125%%" text-anchor="end" ><tspan id="1" style="fill:#9FA03B">489</tspan>
</text>

<text id="167.000000477.500000" x="167.00" y="477.50" dx="0" dy="0" dominant-baseline="text-after-edge" transform="" font-size="9px" font-weight="normal" font-family="Arial" fill="black" text-align="start" line-height="125%%" text-anchor="end" ><tspan id="1" style="fill:#9FA03B">755</tspan>
</text>

<text id="167.000000487.500000" x="167.00" y="487.50" dx="0" dy="0" dominant-baseline="text-before-edge" transform="" font-size="9px" font-weight="normal" font-family="Arial" fill="black" text-align="start" line-height="125%%" text-anchor="end" ><tspan id="3" style="fill:#3B9FA0">775</tspan>
</text>

<text id="167.000000599.500000" x="167.00" y="599.50" dx="0" dy="0" dominant-baseline="text-after-edge" transform="" font-size="9px" font-weight="normal" font-family="Arial" fill="black" text-align="start" line-height="125%%" text-anchor="end" ><tspan id="3" style="fill:#3B9FA0">999</tspan>
</text>

<text id="337.000000100.000000" x="337.00" y="100.00" dx="0" dy="0" dominant-baseline="text-before-edge" transform="" font-size="9px" font-weight="normal" font-family="Arial" fill="black" text-align="start" line-height="125%%" text-anchor="start" ><tspan id="0" style="fill:#A03C3B">0</tspan>
</text>

<text id="337.000000212.000000" x="337.00" y="212.00" dx="0" dy="0" dominant-baseline="text-after-edge" transform="" font-size="9px" font-weight="normal" font-family="Arial" fill="black" text-align="start" line-height="125%%" text-anchor="start" ><tspan id="0" style="fill:#A03C3B">224</tspan>
</text>

<text id="337.000000221.500000" x="337.00" y="221.50" dx="0" dy="0" dominant-baseline="text-before-edge" transform="" font-size="9px" font-weight="normal" font-family="Arial" fill="black" text-align="start" line-height="125%%" text-anchor="start" ><tspan id="2" style="fill:#3BA03C">243, </tspan>
<tspan id="3" style="fill:#3B9FA0">243</tspan>
</text>

<text id="337.000000460.500000" x="337.00" y="460.50" dx="0" dy="0" dominant-baseline="text-after-edge" transform="" font-size="9px" font-weight="normal" font-family="Arial" fill="black" text-align="start" line-height="125%%" text-anchor="start" ><tspan id="2" style="fill:#3BA03C">721, </tspan>
<tspan id="3" style="fill:#3B9FA0">721</tspan>
</text>

<text id="337.000000478.000000" x="337.00" y="478.00" dx="0" dy="0" dominant-baseline="text-before-edge" transform="" font-size="9px" font-weight="normal" font-family="Arial" fill="black" text-align="start" line-height="125%%" text-anchor="start" ><tspan id="1" style="fill:#9FA03B">756</tspan>
</text>

<text id="337.000000599.500000" x="337.00" y="599.50" dx="0" dy="0" dominant-baseline="text-after-edge" transform="" font-size="9px" font-weight="normal" font-family="Arial" fill="black" text-align="start" line-height="125%%" text-anchor="start" ><tspan id="1" style="fill:#9FA03B">999</tspan>
</text>

<path d="M 200.000000,220.000000  v 119.500000 a 10.500000,2.000000 0 0,0 21.000000,0  v -119.500000 a 10.500000,2.000000 0 0,0 -21.000000,0  a 10.500000,2.000000 0 0,0 21.000000,0 " fill="#A03C3B" fill-opacity="0.8" stroke="#501E1D" stroke-linejoin="round" stroke-dasharray="" stroke-width="0.25" />

<path d="M 200.000000,339.500000  a 10.500000,2.000000 0 0,1 21.000000,0 " fill="transparent" fill-opacity="0.8" stroke="#501E1D" stroke-linejoin="round" stroke-dasharray="4 1" stroke-width="0.12" />

<path d="M 188.000000,220.000000  v 119.500000 a 3.500000,2.000000 0 0,0 7.000000,0  v -119.500000 a 3.500000,2.000000 0 0,0 -7.000000,0  a 3.500000,2.000000 0 0,0 7.000000,0 " fill="#ffff00" fill-opacity="0.8" stroke="#CC0" stroke-linejoin="round" stroke-dasharray="" stroke-width="0.50" />

<path d="M 188.000000,339.500000  a 3.500000,2.000000 0 0,1 7.000000,0 " fill="transparent" fill-opacity="0.8" stroke="#CC0" stroke-linejoin="round" stroke-dasharray="4 1" stroke-width="0.25" />

<path d="M 173.333333,220.000000  v 119.500000 a 3.500000,2.000000 0 0,0 7.000000,0  v -119.500000 a 3.500000,2.000000 0 0,0 -7.000000,0  a 3.500000,2.000000 0 0,0 7.000000,0 " fill="#ff0000" fill-opacity="0.8" stroke="#C00" stroke-linejoin="round" stroke-dasharray="" stroke-width="0.50" />

<path d="M 173.333333,339.500000  a 3.500000,2.000000 0 0,1 7.000000,0 " fill="transparent" fill-opacity="0.8" stroke="#C00" stroke-linejoin="round" stroke-dasharray="4 1" stroke-width="0.25" />

<path d="M 283.000000,100.000000  v 112.000000 a 10.500000,2.000000 0 0,0 21.000000,0  v -112.000000 a 10.500000,2.000000 0 0,0 -21.000000,0  a 10.500000,2.000000 0 0,0 21.000000,0 " fill="#A03C3B" fill-opacity="0.8" stroke="#501E1D" stroke-linejoin="round" stroke-dasharray="" stroke-width="0.25" />

<path d="M 283.000000,212.000000  a 10.500000,2.000000 0 0,1 21.000000,0 " fill="transparent" fill-opacity="0.8" stroke="#501E1D" stroke-linejoin="round" stroke-dasharray="4 1" stroke-width="0.12" />

<polygon points="221.00,220.00 221.00,339.50 283.00,212.00 283.00,100.00" fill="#A03C3B" stroke="#A03C3B" stroke-width="1" stroke-opacity="0.4" fill-opacity="0.4" />

<path d="M 200.000000,344.500000  v 133.000000 a 10.500000,2.000000 0 0,0 21.000000,0  v -133.000000 a 10.500000,2.000000 0 0,0 -21.000000,0  a 10.500000,2.000000 0 0,0 21.000000,0 " fill="#9FA03B" fill-opacity="0.8" stroke="#4F501D" stroke-linejoin="round" stroke-dasharray="" stroke-width="0.25" />

<path d="M 200.000000,477.500000  a 10.500000,2.000000 0 0,1 21.000000,0 " fill="transparent" fill-opacity="0.8" stroke="#4F501D" stroke-linejoin="round" stroke-dasharray="4 1" stroke-width="0.12" />

<path d="M 188.000000,344.500000  v 133.000000 a 3.500000,2.000000 0 0,0 7.000000,0  v -133.000000 a 3.500000,2.000000 0 0,0 -7.000000,0  a 3.500000,2.000000 0 0,0 7.000000,0 " fill="#ffaa00" fill-opacity="0.8" stroke="#C80" stroke-linejoin="round" stroke-dasharray="" stroke-width="0.50" />

<path d="M 188.000000,477.500000  a 3.500000,2.000000 0 0,1 7.000000,0 " fill="transparent" fill-opacity="0.8" stroke="#C80" stroke-linejoin="round" stroke-dasharray="4 1" stroke-width="0.25" />

<path d="M 173.333333,344.500000  v 133.000000 a 3.500000,2.000000 0 0,0 7.000000,0  v -133.000000 a 3.500000,2.000000 0 0,0 -7.000000,0  a 3.500000,2.000000 0 0,0 7.000000,0 " fill="#ff0000" fill-opacity="0.8" stroke="#C00" stroke-linejoin="round" stroke-dasharray="" stroke-width="0.50" />

<path d="M 173.333333,477.500000  a 3.500000,2.000000 0 0,1 7.000000,0 " fill="transparent" fill-opacity="0.8" stroke="#C00" stroke-linejoin="round" stroke-dasharray="4 1" stroke-width="0.25" />

<path d="M 283.000000,478.000000  v 121.500000 a 10.500000,2.000000 0 0,0 21.000000,0  v -121.500000 a 10.500000,2.000000 0 0,0 -21.000000,0  a 10.500000,2.000000 0 0,0 21.000000,0 " fill="#9FA03B" fill-opacity="0.8" stroke="#4F501D" stroke-linejoin="round" stroke-dasharray="" stroke-width="0.25" />

<path d="M 283.000000,599.500000  a 10.500000,2.000000 0 0,1 21.000000,0 " fill="transparent" fill-opacity="0.8" stroke="#4F501D" stroke-linejoin="round" stroke-dasharray="4 1" stroke-width="0.12" />

<polygon points="221.00,344.50 221.00,477.50 283.00,599.50 283.00,478.00" fill="#9FA03B" stroke="#9FA03B" stroke-width="1" stroke-opacity="0.4" fill-opacity="0.4" />

<path d="M 200.000000,100.000000  v 120.500000 a 10.500000,2.000000 0 0,0 21.000000,0  v -120.500000 a 10.500000,2.000000 0 0,0 -21.000000,0  a 10.500000,2.000000 0 0,0 21.000000,0 " fill="#3BA03C" fill-opacity="0.8" stroke="#1D501E" stroke-linejoin="round" stroke-dasharray="" stroke-width="0.25" />

<path d="M 200.000000,220.500000  a 10.500000,2.000000 0 0,1 21.000000,0 " fill="transparent" fill-opacity="0.8" stroke="#1D501E" stroke-linejoin="round" stroke-dasharray="4 1" stroke-width="0.12" />

<path d="M 188.000000,100.000000  v 120.500000 a 3.500000,2.000000 0 0,0 7.000000,0  v -120.500000 a 3.500000,2.000000 0 0,0 -7.000000,0  a 3.500000,2.000000 0 0,0 7.000000,0 " fill="#ffaa00" fill-opacity="0.8" stroke="#C80" stroke-linejoin="round" stroke-dasharray="" stroke-width="0.50" />

<path d="M 188.000000,220.500000  a 3.500000,2.000000 0 0,1 7.000000,0 " fill="transparent" fill-opacity="0.8" stroke="#C80" stroke-linejoin="round" stroke-dasharray="4 1" stroke-width="0.25" />

<path d="M 173.333333,100.000000  v 120.500000 a 3.500000,2.000000 0 0,0 7.000000,0  v -120.500000 a 3.500000,2.000000 0 0,0 -7.000000,0  a 3.500000,2.000000 0 0,0 7.000000,0 " fill="#ff0000" fill-opacity="0.8" stroke="#C00" stroke-linejoin="round" stroke-dasharray="" stroke-width="0.50" />

<path d="M 173.333333,220.500000  a 3.500000,2.000000 0 0,1 7.000000,0 " fill="transparent" fill-opacity="0.8" stroke="#C00" stroke-linejoin="round" stroke-dasharray="4 1" stroke-width="0.25" />

<path d="M 283.000000,221.500000  v 239.000000 a 10.500000,2.000000 0 0,0 21.000000,0  v -239.000000 a 10.500000,2.000000 0 0,0 -21.000000,0  a 10.500000,2.000000 0 0,0 21.000000,0 " fill="#3BA03C" fill-opacity="0.8" stroke="#1D501E" stroke-linejoin="round" stroke-dasharray="" stroke-width="0.25" />

<path d="M 283.000000,460.500000  a 10.500000,2.000000 0 0,1 21.000000,0 " fill="transparent" fill-opacity="0.8" stroke="#1D501E" stroke-linejoin="round" stroke-dasharray="4 1" stroke-width="0.12" />

<path d="M 283.000000,221.500000  v 239.000000 a 10.500000,2.000000 0 0,0 21.000000,0  v -239.000000 a 10.500000,2.000000 0 0,0 -21.000000,0  a 10.500000,2.000000 0 0,0 21.000000,0 " fill="url(#Wavy)" fill-opacity="0.8" stroke="#1D501E" stroke-linejoin="round" stroke-dasharray="" stroke-width="0.25" />

<path d="M 283.000000,460.500000  a 10.500000,2.000000 0 0,1 21.000000,0 " fill="transparent" fill-opacity="0.8" stroke="#1D501E" stroke-linejoin="round" stroke-dasharray="4 1" stroke-width="0.12" />

<polygon points="221.00,100.00 221.00,220.50 283.00,221.50 283.00,460.50" fill="#3BA03C" stroke="#3BA03C" stroke-width="1" stroke-opacity="0.4" fill-opacity="0.4" />

<path d="M 200.000000,487.500000  v 112.000000 a 10.500000,2.000000 0 0,0 21.000000,0  v -112.000000 a 10.500000,2.000000 0 0,0 -21.000000,0  a 10.500000,2.000000 0 0,0 21.000000,0 " fill="#3B9FA0" fill-opacity="0.8" stroke="#1D4F50" stroke-linejoin="round" stroke-dasharray="" stroke-width="0.25" />

<path d="M 200.000000,599.500000  a 10.500000,2.000000 0 0,1 21.000000,0 " fill="transparent" fill-opacity="0.8" stroke="#1D4F50" stroke-linejoin="round" stroke-dasharray="4 1" stroke-width="0.12" />

<path d="M 188.000000,487.500000  v 112.000000 a 3.500000,2.000000 0 0,0 7.000000,0  v -112.000000 a 3.500000,2.000000 0 0,0 -7.000000,0  a 3.500000,2.000000 0 0,0 7.000000,0 " fill="#ffaa00" fill-opacity="0.8" stroke="#C80" stroke-linejoin="round" stroke-dasharray="" stroke-width="0.50" />

<path d="M 188.000000,599.500000  a 3.500000,2.000000 0 0,1 7.000000,0 " fill="transparent" fill-opacity="0.8" stroke="#C80" stroke-linejoin="round" stroke-dasharray="4 1" stroke-width="0.25" />

<path d="M 173.333333,487.500000  v 112.000000 a 3.500000,2.000000 0 0,0 7.000000,0  v -112.000000 a 3.500000,2.000000 0 0,0 -7.000000,0  a 3.500000,2.000000 0 0,0 7.000000,0 " fill="#ff0000" fill-opacity="0.8" stroke="#C00" stroke-linejoin="round" stroke-dasharray="" stroke-width="0.50" />

<path d="M 173.333333,599.500000  a 3.500000,2.000000 0 0,1 7.000000,0 " fill="transparent" fill-opacity="0.8" stroke="#C00" stroke-linejoin="round" stroke-dasharray="4 1" stroke-width="0.25" />

<path d="M 283.000000,221.500000  v 239.000000 a 10.500000,2.000000 0 0,0 21.000000,0  v -239.000000 a 10.500000,2.000000 0 0,0 -21.000000,0  a 10.500000,2.000000 0 0,0 21.000000,0 " fill="#3B9FA0" fill-opacity="0.8" stroke="#1D4F50" stroke-linejoin="round" stroke-dasharray="" stroke-width="0.25" />

<path d="M 283.000000,460.500000  a 10.500000,2.000000 0 0,1 21.000000,0 " fill="transparent" fill-opacity="0.8" stroke="#1D4F50" stroke-linejoin="round" stroke-dasharray="4 1" stroke-width="0.12" />

<path d="M 283.000000,221.500000  v 239.000000 a 10.500000,2.000000 0 0,0 21.000000,0  v -239.000000 a 10.500000,2.000000 0 0,0 -21.000000,0  a 10.500000,2.000000 0 0,0 21.000000,0 " fill="url(#Wavy)" fill-opacity="0.8" stroke="#1D4F50" stroke-linejoin="round" stroke-dasharray="" stroke-width="0.25" />

<path d="M 283.000000,460.500000  a 10.500000,2.000000 0 0,1 21.000000,0 " fill="transparent" fill-opacity="0.8" stroke="#1D4F50" stroke-linejoin="round" stroke-dasharray="4 1" stroke-width="0.12" />

<polygon points="221.00,487.50 221.00,599.50 283.00,221.50 283.00,460.50" fill="#3B9FA0" stroke="#3B9FA0" stroke-width="1" stroke-opacity="0.4" fill-opacity="0.4" />

<path d="M 200.000000,100.000000  v 500.000000 a 10.500000,2.000000 0 0,0 21.000000,0  v -500.000000 a 10.500000,2.000000 0 0,0 -21.000000,0  a 10.500000,2.000000 0 0,0 21.000000,0 " fill="transparent" fill-opacity="0.8" stroke="black" stroke-linejoin="round" stroke-dasharray="" stroke-width="2.00" />

<path d="M 200.000000,600.000000  a 10.500000,2.000000 0 0,1 21.000000,0 " fill="transparent" fill-opacity="0.8" stroke="black" stroke-linejoin="round" stroke-dasharray="4 1" stroke-width="1.00" />

<path d="M 283.000000,100.000000  v 500.000000 a 10.500000,2.000000 0 0,0 21.000000,0  v -500.000000 a 10.500000,2.000000 0 0,0 -21.000000,0  a 10.500000,2.000000 0 0,0 21.000000,0 " fill="transparent" fill-opacity="0.8" stroke="black" stroke-linejoin="round" stroke-dasharray="" stroke-width="2.00" />

<path d="M 283.000000,600.000000  a 10.500000,2.000000 0 0,1 21.000000,0 " fill="transparent" fill-opacity="0.8" stroke="black" stroke-linejoin="round" stroke-dasharray="4 1" stroke-width="1.00" />

<text id="252.00000024.000000" x="252.00" y="24.00" dx="0" dy="-2" dominant-baseline="text-after-edge" transform="" font-size="9px" font-weight="normal" font-family="Arial" fill="black" text-align="start" line-height="125%%" text-anchor="middle" >RELATIVE REDUNDANCY</text>

<text id="252.00000036.000000" x="252.00" y="36.00" dx="0" dy="2" dominant-baseline="text-before-edge" transform="" font-size="9px" font-weight="normal" font-family="Arial" fill="black" text-align="start" line-height="125%%" text-anchor="middle" >REDUNDANCY</text>

<defs >
<linearGradient id="grad176.00000024.000000" x1="0%" y1="0%" x2="100%" y2="0%" >
<stop offset="0%" stop-color="#0000ff" stop-opacity="1" />

<stop offset="8%" stop-color="#0055ff" stop-opacity="1" />

<stop offset="16%" stop-color="#00aaff" stop-opacity="1" />

<stop offset="25%" stop-color="#00ffff" stop-opacity="1" />

<stop offset="33%" stop-color="#00ffaa" stop-opacity="1" />

<stop offset="41%" stop-color="#00ff55" stop-opacity="1" />

<stop offset="50%" stop-color="#00ff00" stop-opacity="1" />

<stop offset="58%" stop-color="#55ff00" stop-opacity="1" />

<stop offset="66%" stop-color="#aaff00" stop-opacity="1" />

<stop offset="75%" stop-color="#ffff00" stop-opacity="1" />

<stop offset="83%" stop-color="#ffaa00" stop-opacity="1" />

<stop offset="91%" stop-color="#ff5500" stop-opacity="1" />

<stop offset="100%" stop-color="#ff0000" stop-opacity="1" />
</linearGradient>
</defs>

<rect fill="url(#grad176.00000024.000000)" width="152.00" height="12.00" x="176.00" y="24.00" ry="3" />

<text id="174.00000030.000000" x="174.00" y="30.00" dx="-2" dy="0" dominant-baseline="middle" transform="" font-size="9px" font-weight="normal" font-family="Arial" fill="black" text-align="start" line-height="125%%" text-anchor="end" >0.0</text>

<text id="214.00000030.000000" x="214.00" y="30.00" dx="0" dy="0" dominant-baseline="middle" transform="" font-size="9px" font-weight="normal" font-family="Arial" fill="black" text-align="start" line-height="125%%" text-anchor="middle" >0.5</text>

<text id="252.00000030.000000" x="252.00" y="30.00" dx="0" dy="0" dominant-baseline="middle" transform="" font-size="9px" font-weight="normal" font-family="Arial" fill="black" text-align="start" line-height="125%%" text-anchor="middle" >1.0</text>

<text id="290.00000030.000000" x="290.00" y="30.00" dx="0" dy="0" dominant-baseline="middle" transform="" font-size="9px" font-weight="normal" font-family="Arial" fill="black" text-align="start" line-height="125%%" text-anchor="middle" >1.5</text>

<text id="330.00000030.000000" x="330.00" y="30.00" dx="2" dy="0" dominant-baseline="middle" transform="" font-size="9px" font-weight="normal" font-family="Arial" fill="black" text-align="start" line-height="125%%" text-anchor="start" >2.0</text>

<path d="M 191.500000,599.500000 v 20.500000 h 12.400000" fill="transparent" fill-opacity="0.8" stroke="black" stroke-linejoin="round" stroke-dasharray="8 3" stroke-width="1.00" />

<path d="M 312.500000,599.500000 v 20.500000 h -12.400000" fill="transparent" fill-opacity="0.8" stroke="black" stroke-linejoin="round" stroke-dasharray="8 3" stroke-width="1.00" />

<text id="252.000000620.000000" x="252.00" y="620.00" dx="0" dy="0" dominant-baseline="middle" transform="" font-size="9px" font-weight="normal" font-family="Arial" fill="black" text-align="start" line-height="125%%" text-anchor="middle" >Relative Redundancy</text>

<path d="M 179.500000,599.500000 v 35.500000 h 39.400000" fill="transparent" fill-opacity="0.8" stroke="black" stroke-linejoin="round" stroke-dasharray="8 3" stroke-width="1.00" />

<path d="M 324.500000,599.500000 v 35.500000 h -39.400000" fill="transparent" fill-opacity="0.8" stroke="black" stroke-linejoin="round" stroke-dasharray="8 3" stroke-width="1.00" />

<text id="252.000000635.000000" x="252.00" y="635.00" dx="0" dy="0" dominant-baseline="middle" transform="" font-size="9px" font-weight="normal" font-family="Arial" fill="black" text-align="start" line-height="125%%" text-anchor="middle" >Redundancy</text>
</svg>