<?xml version="1.0" encoding="UTF-8" standalone="no"?>
<!-- Morteza Hosseini, IEETA 2018-2019 -->

<svg xmlns="http://www.w3.org/2000/svg" xmlns:xlink="http://www.w3.org/1999/xlink" width="504" height="650" >
<defs id="ffff" >
<pattern id="Wavy" x="-10.50" y="0.00" width="21.00" height="7.00" patternUnits="userSpaceOnUse" >
<path id="" d="m0,0 a 10.500000,2.000000 0 0,0 21.000000,0 " fill="transparent" fill-opacity="0.8" stroke="black" stroke-linejoin="round" stroke-dasharray="" stroke-width="1.00" transform="" />
</pattern>
</defs>

<defs id="ffff" >
<pattern id="WavyWhite" x="-10.50" y="0.00" width="21.00" height="7.00" patternUnits="userSpaceOnUse" >
<path id="" d="m0,0 a 10.500000,2.000000 0 0,0 21.000000,0 " fill="transparent" fill-opacity="0.8" stroke="white" stroke-linejoin="round" stroke-dasharray="" stroke-width="1.00" transform="" />
</pattern>
</defs>

<rect fill="white" stroke="white" stroke-width="0" fill-opacity="0.8" width="504.00" height="650.00" x="0.00" y="0.00" ry="1" />

<text id="210.50000085.000000" x="210.50" y="85.00" dx="0" dy="0" dominant-baseline="middle" transform="" font-size="12px" font-weight="normal" font-family="Arial" fill="black" text-align="start" line-height="125%%" text-anchor="middle" >refs</text>

<text id="293.50000085.000000" x="293.50" y="85.00" dx="0" dy="0" dominant-baseline="middle" transform="" font-size="12px" font-weight="normal" font-family="Arial" fill="black" text-align="start" line-height="125%%" text-anchor="middle" >tars</text>

<text id="161.000000224.000000" x="161.00" y="224.00" dx="0" dy="0" dominant-baseline="text-before-edge" transform="" font-size="9px" font-weight="normal" font-family="Arial" fill="black" text-align="start" line-height="125%%" text-anchor="end" ><tspan id="0" style="fill:#A03C3B">248</tspan>
</text>

<text id="161.000000357.500000" x="161.00" y="357.50" dx="0" dy="0" dominant-baseline="text-after-edge" transform="" font-size="9px" font-weight="normal" font-family="Arial" fill="black" text-align="start" line-height="125%%" text-anchor="end" ><tspan id="0" style="fill:#A03C3B">515</tspan>
</text>

<text id="343.000000100.000000" x="343.00" y="100.00" dx="0" dy="0" dominant-baseline="text-before-edge" transform="" font-size="9px" font-weight="normal" font-family="Arial" fill="black" text-align="start" line-height="125%%" text-anchor="start" ><tspan id="0" style="fill:#A03C3B">0</tspan>
</text>

<text id="343.000000226.500000" x="343.00" y="226.50" dx="0" dy="0" dominant-baseline="text-after-edge" transform="" font-size="9px" font-weight="normal" font-family="Arial" fill="black" text-align="start" line-height="125%%" text-anchor="start" ><tspan id="0" style="fill:#A03C3B">253</tspan>
</text>

<path id="200.000000224.000000" d="M 200.000000,224.000000  v 133.500000 a 10.500000,2.000000 0 0,0 21.000000,0  v -133.500000 a 10.500000,2.000000 0 0,1 -21.000000,0 " fill="#A03C3B" fill-opacity="0.8" stroke="#501E1D" stroke-linejoin="round" stroke-dasharray="" stroke-width="2.50" transform="" />

<ellipse cx="210.5" cy="224" rx="10.8125" ry="2" fill="#A03C3B" fill-opacity="0.8" stroke="#501E1D" stroke-width="1.875" />

<ellipse cx="210.5" cy="357.5" rx="10.8125" ry="2" fill="transparent" fill-opacity="0.8" stroke="#501E1D" stroke-width="1.875" />

<path id="185.000000224.000000" d="M 185.000000,224.000000  v 133.500000 a 3.500000,1.000000 0 0,0 7.000000,0  v -133.500000 a 3.500000,1.000000 0 0,1 -7.000000,0 " fill="#aaff00" fill-opacity="0.8" stroke="#8C0" stroke-linejoin="round" stroke-dasharray="" stroke-width="1.40" transform="" />

<ellipse cx="188.5" cy="224" rx="3.675" ry="1" fill="#aaff00" fill-opacity="0.8" stroke="#8C0" stroke-width="1.05" />

<ellipse cx="188.5" cy="357.5" rx="3.675" ry="1" fill="transparent" fill-opacity="0.8" stroke="#8C0" stroke-width="1.05" />

<path id="170.000000224.000000" d="M 170.000000,224.000000  v 133.500000 a 3.500000,1.000000 0 0,0 7.000000,0  v -133.500000 a 3.500000,1.000000 0 0,1 -7.000000,0 " fill="#ff0000" fill-opacity="0.8" stroke="#C00" stroke-linejoin="round" stroke-dasharray="" stroke-width="1.40" transform="" />

<ellipse cx="173.5" cy="224" rx="3.675" ry="1" fill="#ff0000" fill-opacity="0.8" stroke="#C00" stroke-width="1.05" />

<ellipse cx="173.5" cy="357.5" rx="3.675" ry="1" fill="transparent" fill-opacity="0.8" stroke="#C00" stroke-width="1.05" />

<path id="283.000000100.000000" d="M 283.000000,100.000000  v 126.500000 a 10.500000,2.000000 0 0,0 21.000000,0  v -126.500000 a 10.500000,2.000000 0 0,1 -21.000000,0 " fill="#A03C3B" fill-opacity="0.8" stroke="#501E1D" stroke-linejoin="round" stroke-dasharray="" stroke-width="2.50" transform="" />

<ellipse cx="293.5" cy="100" rx="10.8125" ry="2" fill="#A03C3B" fill-opacity="0.8" stroke="#501E1D" stroke-width="1.875" />

<ellipse cx="293.5" cy="226.5" rx="10.8125" ry="2" fill="transparent" fill-opacity="0.8" stroke="#501E1D" stroke-width="1.875" />

<path id="312.000000100.000000" d="M 312.000000,100.000000  v 126.500000 a 3.500000,1.000000 0 0,0 7.000000,0  v -126.500000 a 3.500000,1.000000 0 0,1 -7.000000,0 " fill="#aaff00" fill-opacity="0.8" stroke="#8C0" stroke-linejoin="round" stroke-dasharray="" stroke-width="1.40" transform="" />

<ellipse cx="315.5" cy="100" rx="3.675" ry="1" fill="#aaff00" fill-opacity="0.8" stroke="#8C0" stroke-width="1.05" />

<ellipse cx="315.5" cy="226.5" rx="3.675" ry="1" fill="transparent" fill-opacity="0.8" stroke="#8C0" stroke-width="1.05" />

<path id="327.000000100.000000" d="M 327.000000,100.000000  v 126.500000 a 3.500000,1.000000 0 0,0 7.000000,0  v -126.500000 a 3.500000,1.000000 0 0,1 -7.000000,0 " fill="#ff0000" fill-opacity="0.8" stroke="#C00" stroke-linejoin="round" stroke-dasharray="" stroke-width="1.40" transform="" />

<ellipse cx="330.5" cy="100" rx="3.675" ry="1" fill="#ff0000" fill-opacity="0.8" stroke="#C00" stroke-width="1.05" />

<ellipse cx="330.5" cy="226.5" rx="3.675" ry="1" fill="transparent" fill-opacity="0.8" stroke="#C00" stroke-width="1.05" />

<line id="221.000000290.750000283.000000163.250000" x1="221.00" y1="290.75" x2="283.00" y2="163.25" stroke="#A03C3B" stroke-width="2.00" />

<path id="283.000000100.000000" d="M 283.000000,100.000000  v 500.000000 a 10.500000,2.000000 0 0,0 21.000000,0  v -500.000000 a 10.500000,2.000000 0 0,1 -21.000000,0 " fill="transparent" fill-opacity="0.8" stroke="black" stroke-linejoin="round" stroke-dasharray="" stroke-width="2.00" transform="" />

<ellipse cx="293.5" cy="100" rx="10.75" ry="2" fill="transparent" fill-opacity="0.8" stroke="black" stroke-width="1.5" />

<ellipse cx="293.5" cy="600" rx="10.75" ry="2" fill="transparent" fill-opacity="0.8" stroke="black" stroke-width="1.5" />

<text id="252.00000024.000000" x="252.00" y="24.00" dx="0" dy="-3" dominant-baseline="text-after-edge" transform="" font-size="9px" font-weight="normal" font-family="Arial" fill="black" text-align="start" line-height="125%%" text-anchor="middle" >RELATIVE REDUNDANCY</text>

<text id="252.00000036.000000" x="252.00" y="36.00" dx="0" dy="3" dominant-baseline="text-before-edge" transform="" font-size="9px" font-weight="normal" font-family="Arial" fill="black" text-align="start" line-height="125%%" text-anchor="middle" >REDUNDANCY</text>

<defs >
<linearGradient id="grad170.00000024.000000" x1="0%" y1="0%" x2="100%" y2="0%" >
<stop offset="0%" stop-color="#0000ff" stop-opacity="1" />

<stop offset="8%" stop-color="#0055ff" stop-opacity="1" />

<stop offset="16%" stop-color="#00aaff" stop-opacity="1" />

<stop offset="25%" stop-color="#00ffff" stop-opacity="1" />

<stop offset="33%" stop-color="#00ffaa" stop-opacity="1" />

<stop offset="41%" stop-color="#00ff55" stop-opacity="1" />

<stop offset="50%" stop-color="#00ff00" stop-opacity="1" />

<stop offset="58%" stop-color="#55ff00" stop-opacity="1" />

<stop offset="66%" stop-color="#aaff00" stop-opacity="1" />

<stop offset="75%" stop-color="#ffff00" stop-opacity="1" />

<stop offset="83%" stop-color="#ffaa00" stop-opacity="1" />

<stop offset="91%" stop-color="#ff5500" stop-opacity="1" />

<stop offset="100%" stop-color="#ff0000" stop-opacity="1" />
</linearGradient>
</defs>

<rect fill="url(#grad170.00000024.000000)" stroke="black" stroke-width="0.35" fill-opacity="0.8" width="164.00" height="12.00" x="170.00" y="24.00" ry="1" />

<text id="168.00000030.000000" x="168.00" y="30.00" dx="-2.5" dy="0" dominant-baseline="middle" transform="" font-size="9px" font-weight="normal" font-family="Arial" fill="black" text-align="start" line-height="125%%" text-anchor="end" >0.0</text>

<text id="211.00000030.000000" x="211.00" y="30.00" dx="0" dy="0" dominant-baseline="middle" transform="" font-size="9px" font-weight="normal" font-family="Arial" fill="black" text-align="start" line-height="125%%" text-anchor="middle" >0.5</text>

<text id="252.00000030.000000" x="252.00" y="30.00" dx="0" dy="0" dominant-baseline="middle" transform="" font-size="9px" font-weight="normal" font-family="Arial" fill="black" text-align="start" line-height="125%%" text-anchor="middle" >1.0</text>

<text id="293.00000030.000000" x="293.00" y="30.00" dx="0" dy="0" dominant-baseline="middle" transform="" font-size="9px" font-weight="normal" font-family="Arial" fill="black" text-align="start" line-height="125%%" text-anchor="middle" >1.5</text>

<text id="336.00000030.000000" x="336.00" y="30.00" dx="2.5" dy="0" dominant-baseline="middle" transform="" font-size="9px" font-weight="normal" font-family="Arial" fill="black" text-align="start" line-height="125%%" text-anchor="start" >2.0</text>

<path id="" d="M 188.500000,357.500000 v 262.500000 h 12.400000" fill="transparent" fill-opacity="0.8" stroke="black" stroke-linejoin="round" stroke-dasharray="8 3" stroke-width="1.00" transform="" />

<path id="" d="M 315.500000,226.500000 v 393.500000 h -12.400000" fill="transparent" fill-opacity="0.8" stroke="black" stroke-linejoin="round" stroke-dasharray="8 3" stroke-width="1.00" transform="" />

<text id="252.000000620.000000" x="252.00" y="620.00" dx="0" dy="0" dominant-baseline="middle" transform="" font-size="9px" font-weight="normal" font-family="Arial" fill="black" text-align="start" line-height="125%%" text-anchor="middle" >Relative Redundancy</text>

<path id="" d="M 173.500000,357.500000 v 277.500000 h 42.400000" fill="transparent" fill-opacity="0.8" stroke="black" stroke-linejoin="round" stroke-dasharray="8 3" stroke-width="1.00" transform="" />

<path id="" d="M 330.500000,226.500000 v 408.500000 h -42.400000" fill="transparent" fill-opacity="0.8" stroke="black" stroke-linejoin="round" stroke-dasharray="8 3" stroke-width="1.00" transform="" />

<text id="252.000000635.000000" x="252.00" y="635.00" dx="0" dy="0" dominant-baseline="middle" transform="" font-size="9px" font-weight="normal" font-family="Arial" fill="black" text-align="start" line-height="125%%" text-anchor="middle" >Redundancy</text>
</svg>