<?xml version="1.0" encoding="UTF-8" standalone="no"?>
<!-- Morteza Hosseini, IEETA 2018-2019 -->
<svg xmlns="http://www.w3.org/2000/svg" xmlns:xlink="http://www.w3.org/1999/xlink" width="504" height="650" >
<defs id="ffff" >
<pattern id="Wavy" x="-10.50" y="0.00" width="21.00" height="7.00" patternUnits="userSpaceOnUse" >
<path id="" d="m0,0 a 10.500000,2.000000 0 0,0 21.000000,0 " fill="transparent" fill-opacity="0.80" stroke="black" stroke-opacity="1.00" stroke-linejoin="round" stroke-dasharray="" stroke-width="1.00" transform="" />
</pattern>
</defs>
<defs id="ffff" >
<pattern id="WavyWhite" x="-10.50" y="0.00" width="21.00" height="7.00" patternUnits="userSpaceOnUse" >
<path id="" d="m0,0 a 10.500000,2.000000 0 0,0 21.000000,0 " fill="transparent" fill-opacity="0.80" stroke="white" stroke-opacity="1.00" stroke-linejoin="round" stroke-dasharray="" stroke-width="1.00" transform="" />
</pattern>
</defs>
<rect x="0.00" y="0.00" width="504.00" height="650.00" rx="0.00" ry="1.00" fill="white" fill-opacity="0.80" stroke="white" stroke-width="0.00" />
<text id="210.50000085.000000" x="210.50" y="85.00" dx="0.00" dy="0.00" dominant-baseline="middle" transform="" font-size="12px" font-weight="normal" font-family="Arial" fill="black" text-anchor="middle" text-align="start" line-height="125%%" >
refs</text>
<text id="293.50000085.000000" x="293.50" y="85.00" dx="0.00" dy="0.00" dominant-baseline="middle" transform="" font-size="12px" font-weight="normal" font-family="Arial" fill="black" text-anchor="middle" text-align="start" line-height="125%%" >
tars</text>
<text id="161.000000100.000000" x="161.00" y="100.00" dx="0.00" dy="0.00" dominant-baseline="text-before-edge" transform="" font-size="9px" font-weight="normal" font-family="Arial" fill="black" text-anchor="end" text-align="start" line-height="125%%" >
<tspan id="2" style="fill:#3BA03C">0</tspan>
</text>
<text id="161.000000221.000000" x="161.00" y="221.00" dx="0.00" dy="0.00" dominant-baseline="text-after-edge" transform="" font-size="9px" font-weight="normal" font-family="Arial" fill="black" text-anchor="end" text-align="start" line-height="125%%" >
<tspan id="2" style="fill:#3BA03C">242</tspan>
</text>
<text id="161.000000224.000000" x="161.00" y="224.00" dx="0.00" dy="0.00" dominant-baseline="text-before-edge" transform="" font-size="9px" font-weight="normal" font-family="Arial" fill="black" text-anchor="end" text-align="start" line-height="125%%" >
<tspan id="0" style="fill:#A03C3B">248</tspan>
</text>
<text id="161.000000355.500000" x="161.00" y="355.50" dx="0.00" dy="0.00" dominant-baseline="middle" transform="" font-size="9px" font-weight="normal" font-family="Arial" fill="black" text-anchor="end" text-align="start" line-height="125%%" >
<tspan id="0" style="fill:#A03C3B">515, </tspan>
<tspan id="1" style="fill:#9FA03B">508</tspan>
</text>
<text id="161.000000481.000000" x="161.00" y="481.00" dx="0.00" dy="0.00" dominant-baseline="middle" transform="" font-size="9px" font-weight="normal" font-family="Arial" fill="black" text-anchor="end" text-align="start" line-height="125%%" >
<tspan id="1" style="fill:#9FA03B">765, </tspan>
<tspan id="3" style="fill:#3B9FA0">759</tspan>
</text>
<text id="161.000000599.500000" x="161.00" y="599.50" dx="0.00" dy="0.00" dominant-baseline="text-after-edge" transform="" font-size="9px" font-weight="normal" font-family="Arial" fill="black" text-anchor="end" text-align="start" line-height="125%%" >
<tspan id="3" style="fill:#3B9FA0">999</tspan>
</text>
<text id="343.000000100.000000" x="343.00" y="100.00" dx="0.00" dy="0.00" dominant-baseline="text-before-edge" transform="" font-size="9px" font-weight="normal" font-family="Arial" fill="black" text-anchor="start" text-align="start" line-height="125%%" >
<tspan id="0" style="fill:#A03C3B">0</tspan>
</text>
<text id="343.000000226.500000" x="343.00" y="226.50" dx="0.00" dy="0.00" dominant-baseline="text-after-edge" transform="" font-size="9px" font-weight="normal" font-family="Arial" fill="black" text-anchor="start" text-align="start" line-height="125%%" >
<tspan id="0" style="fill:#A03C3B">253</tspan>
</text>
<text id="343.000000230.000000" x="343.00" y="230.00" dx="0.00" dy="0.00" dominant-baseline="text-before-edge" transform="" font-size="9px" font-weight="normal" font-family="Arial" fill="black" text-anchor="start" text-align="start" line-height="125%%" >
<tspan id="2" style="fill:#3BA03C">260, </tspan>
<tspan id="3" style="fill:#3B9FA0">260</tspan>
</text>
<text id="343.000000476.500000" x="343.00" y="476.50" dx="0.00" dy="0.00" dominant-baseline="text-after-edge" transform="" font-size="9px" font-weight="normal" font-family="Arial" fill="black" text-anchor="start" text-align="start" line-height="125%%" >
<tspan id="2" style="fill:#3BA03C">753, </tspan>
<tspan id="3" style="fill:#3B9FA0">753</tspan>
</text>
<text id="343.000000480.000000" x="343.00" y="480.00" dx="0.00" dy="0.00" dominant-baseline="text-before-edge" transform="" font-size="9px" font-weight="normal" font-family="Arial" fill="black" text-anchor="start" text-align="start" line-height="125%%" >
<tspan id="1" style="fill:#9FA03B">760</tspan>
</text>
<text id="343.000000599.500000" x="343.00" y="599.50" dx="0.00" dy="0.00" dominant-baseline="text-after-edge" transform="" font-size="9px" font-weight="normal" font-family="Arial" fill="black" text-anchor="start" text-align="start" line-height="125%%" >
<tspan id="1" style="fill:#9FA03B">999</tspan>
</text>
<defs id="" >
<linearGradient id="grad200.000000479.500000" x1="0%" y1="0%" x2="100%" y2="0%" >
<stop offset="30%" stop-color="#2C7778" stop-opacity="1.00" />
<stop offset="100%" stop-color="#3B9FA0" stop-opacity="1.00" />
</linearGradient>
</defs>
<path id="200.000000479.500000" d="M 200.000000,479.500000  v 120.000000 a 10.500000,2.000000 0 0,0 21.000000,0  v -120.000000 a 10.500000,2.000000 0 0,1 -21.000000,0 " fill="url(#grad200.000000479.500000)" fill-opacity="0.80" stroke="#1D4F50" stroke-opacity="0.80" stroke-linejoin="round" stroke-dasharray="" stroke-width="0.75" transform="" />
<ellipse cx="210.50" cy="479.50" rx="10.59" ry="2.00" stroke-width="0.56" fill-opacity="0.80" stroke-opacity="0.80" stroke="#1D4F50" fill="url(#grad200.000000479.500000)" />
<ellipse cx="210.50" cy="599.50" rx="10.59" ry="2.00" stroke-width="0.56" fill-opacity="0.80" stroke-opacity="0.80" stroke="#1D4F50" fill="transparent" />
<defs id="" >
<linearGradient id="grad200.000000479.500000NRC" x1="0%" y1="0%" x2="100%" y2="0%" >
<stop offset="30%" stop-color="#99CC33" stop-opacity="1.00" />
<stop offset="100%" stop-color="#aaff00" stop-opacity="1.00" />
</linearGradient>
</defs>
<path id="185.000000479.500000" d="M 185.000000,479.500000  v 120.000000 a 3.500000,1.000000 0 0,0 7.000000,0  v -120.000000 a 3.500000,1.000000 0 0,1 -7.000000,0 " fill="url(#grad200.000000479.500000NRC)" fill-opacity="0.80" stroke="#6A0" stroke-opacity="0.80" stroke-linejoin="round" stroke-dasharray="" stroke-width="1.40" transform="" />
<ellipse cx="188.50" cy="479.50" rx="3.67" ry="1.00" stroke-width="1.05" fill-opacity="0.80" stroke-opacity="0.80" stroke="#6A0" fill="url(#grad200.000000479.500000NRC)" />
<ellipse cx="188.50" cy="599.50" rx="3.67" ry="1.00" stroke-width="1.05" fill-opacity="0.80" stroke-opacity="0.80" stroke="#6A0" fill="transparent" />
<defs id="" >
<linearGradient id="grad200.000000479.500000NRCRedun" x1="0%" y1="0%" x2="100%" y2="0%" >
<stop offset="30%" stop-color="#CC3333" stop-opacity="1.00" />
<stop offset="100%" stop-color="#ff0000" stop-opacity="1.00" />
</linearGradient>
</defs>
<path id="170.000000479.500000" d="M 170.000000,479.500000  v 120.000000 a 3.500000,1.000000 0 0,0 7.000000,0  v -120.000000 a 3.500000,1.000000 0 0,1 -7.000000,0 " fill="url(#grad200.000000479.500000NRCRedun)" fill-opacity="0.80" stroke="#C00" stroke-opacity="0.80" stroke-linejoin="round" stroke-dasharray="" stroke-width="1.40" transform="" />
<ellipse cx="173.50" cy="479.50" rx="3.67" ry="1.00" stroke-width="1.05" fill-opacity="0.80" stroke-opacity="0.80" stroke="#C00" fill="url(#grad200.000000479.500000NRCRedun)" />
<ellipse cx="173.50" cy="599.50" rx="3.67" ry="1.00" stroke-width="1.05" fill-opacity="0.80" stroke-opacity="0.80" stroke="#C00" fill="transparent" />
<defs id="" >
<linearGradient id="grad283.000000230.000000" x1="0%" y1="0%" x2="100%" y2="0%" >
<stop offset="30%" stop-color="#2C7778" stop-opacity="1.00" />
<stop offset="100%" stop-color="#3B9FA0" stop-opacity="1.00" />
</linearGradient>
</defs>
<path id="283.000000230.000000" d="M 283.000000,230.000000  v 246.500000 a 10.500000,2.000000 0 0,0 21.000000,0  v -246.500000 a 10.500000,2.000000 0 0,1 -21.000000,0 " fill="url(#grad283.000000230.000000)" fill-opacity="0.80" stroke="#1D4F50" stroke-opacity="0.80" stroke-linejoin="round" stroke-dasharray="" stroke-width="0.75" transform="" />
<ellipse cx="293.50" cy="230.00" rx="10.59" ry="2.00" stroke-width="0.56" fill-opacity="0.80" stroke-opacity="0.80" stroke="#1D4F50" fill="url(#grad283.000000230.000000)" />
<ellipse cx="293.50" cy="476.50" rx="10.59" ry="2.00" stroke-width="0.56" fill-opacity="0.80" stroke-opacity="0.80" stroke="#1D4F50" fill="transparent" />
<path id="283.000000230.000000" d="M 283.000000,230.000000  v 246.500000 a 10.500000,2.000000 0 0,0 21.000000,0  v -246.500000 a 10.500000,2.000000 0 0,1 -21.000000,0 " fill="url(#Wavy)" fill-opacity="0.80" stroke="#1D4F50" stroke-opacity="0.80" stroke-linejoin="round" stroke-dasharray="" stroke-width="0.75" transform="" />
<ellipse cx="293.50" cy="230.00" rx="10.59" ry="2.00" stroke-width="0.56" fill-opacity="0.80" stroke-opacity="0.80" stroke="#1D4F50" fill="url(#Wavy)" />
<ellipse cx="293.50" cy="476.50" rx="10.59" ry="2.00" stroke-width="0.56" fill-opacity="0.80" stroke-opacity="0.80" stroke="#1D4F50" fill="transparent" />
<defs id="" >
<linearGradient id="grad283.000000230.000000NRC" x1="0%" y1="0%" x2="100%" y2="0%" >
<stop offset="30%" stop-color="#99CC33" stop-opacity="1.00" />
<stop offset="100%" stop-color="#aaff00" stop-opacity="1.00" />
</linearGradient>
</defs>
<path id="312.000000230.000000" d="M 312.000000,230.000000  v 246.500000 a 3.500000,1.000000 0 0,0 7.000000,0  v -246.500000 a 3.500000,1.000000 0 0,1 -7.000000,0 " fill="url(#grad283.000000230.000000NRC)" fill-opacity="0.80" stroke="#6A0" stroke-opacity="0.80" stroke-linejoin="round" stroke-dasharray="" stroke-width="1.40" transform="" />
<ellipse cx="315.50" cy="230.00" rx="3.67" ry="1.00" stroke-width="1.05" fill-opacity="0.80" stroke-opacity="0.80" stroke="#6A0" fill="url(#grad283.000000230.000000NRC)" />
<ellipse cx="315.50" cy="476.50" rx="3.67" ry="1.00" stroke-width="1.05" fill-opacity="0.80" stroke-opacity="0.80" stroke="#6A0" fill="transparent" />
<defs id="" >
<linearGradient id="grad283.000000230.000000NRCRedun" x1="0%" y1="0%" x2="100%" y2="0%" >
<stop offset="30%" stop-color="#CC3333" stop-opacity="1.00" />
<stop offset="100%" stop-color="#ff0000" stop-opacity="1.00" />
</linearGradient>
</defs>
<path id="327.000000230.000000" d="M 327.000000,230.000000  v 246.500000 a 3.500000,1.000000 0 0,0 7.000000,0  v -246.500000 a 3.500000,1.000000 0 0,1 -7.000000,0 " fill="url(#grad283.000000230.000000NRCRedun)" fill-opacity="0.80" stroke="#C00" stroke-opacity="0.80" stroke-linejoin="round" stroke-dasharray="" stroke-width="1.40" transform="" />
<ellipse cx="330.50" cy="230.00" rx="3.67" ry="1.00" stroke-width="1.05" fill-opacity="0.80" stroke-opacity="0.80" stroke="#C00" fill="url(#grad283.000000230.000000NRCRedun)" />
<ellipse cx="330.50" cy="476.50" rx="3.67" ry="1.00" stroke-width="1.05" fill-opacity="0.80" stroke-opacity="0.80" stroke="#C00" fill="transparent" />
<polygon points="221.00,479.50 221.00,599.50 283.00,230.00 283.00,476.50 " fill="#3B9FA0" stroke="#3B9FA0" stroke-width="1.00" stroke-opacity="0.40" fill-opacity="0.40" />
<defs id="" >
<linearGradient id="grad200.000000100.000000" x1="0%" y1="0%" x2="100%" y2="0%" >
<stop offset="30%" stop-color="#2C782D" stop-opacity="1.00" />
<stop offset="100%" stop-color="#3BA03C" stop-opacity="1.00" />
</linearGradient>
</defs>
<path id="200.000000100.000000" d="M 200.000000,100.000000  v 121.000000 a 10.500000,2.000000 0 0,0 21.000000,0  v -121.000000 a 10.500000,2.000000 0 0,1 -21.000000,0 " fill="url(#grad200.000000100.000000)" fill-opacity="0.80" stroke="#1D501E" stroke-opacity="0.80" stroke-linejoin="round" stroke-dasharray="" stroke-width="0.75" transform="" />
<ellipse cx="210.50" cy="100.00" rx="10.59" ry="2.00" stroke-width="0.56" fill-opacity="0.80" stroke-opacity="0.80" stroke="#1D501E" fill="url(#grad200.000000100.000000)" />
<ellipse cx="210.50" cy="221.00" rx="10.59" ry="2.00" stroke-width="0.56" fill-opacity="0.80" stroke-opacity="0.80" stroke="#1D501E" fill="transparent" />
<defs id="" >
<linearGradient id="grad200.000000100.000000NRC" x1="0%" y1="0%" x2="100%" y2="0%" >
<stop offset="30%" stop-color="#99CC33" stop-opacity="1.00" />
<stop offset="100%" stop-color="#aaff00" stop-opacity="1.00" />
</linearGradient>
</defs>
<path id="185.000000100.000000" d="M 185.000000,100.000000  v 121.000000 a 3.500000,1.000000 0 0,0 7.000000,0  v -121.000000 a 3.500000,1.000000 0 0,1 -7.000000,0 " fill="url(#grad200.000000100.000000NRC)" fill-opacity="0.80" stroke="#6A0" stroke-opacity="0.80" stroke-linejoin="round" stroke-dasharray="" stroke-width="1.40" transform="" />
<ellipse cx="188.50" cy="100.00" rx="3.67" ry="1.00" stroke-width="1.05" fill-opacity="0.80" stroke-opacity="0.80" stroke="#6A0" fill="url(#grad200.000000100.000000NRC)" />
<ellipse cx="188.50" cy="221.00" rx="3.67" ry="1.00" stroke-width="1.05" fill-opacity="0.80" stroke-opacity="0.80" stroke="#6A0" fill="transparent" />
<defs id="" >
<linearGradient id="grad200.000000100.000000NRCRedun" x1="0%" y1="0%" x2="100%" y2="0%" >
<stop offset="30%" stop-color="#CC3333" stop-opacity="1.00" />
<stop offset="100%" stop-color="#ff0000" stop-opacity="1.00" />
</linearGradient>
</defs>
<path id="170.000000100.000000" d="M 170.000000,100.000000  v 121.000000 a 3.500000,1.000000 0 0,0 7.000000,0  v -121.000000 a 3.500000,1.000000 0 0,1 -7.000000,0 " fill="url(#grad200.000000100.000000NRCRedun)" fill-opacity="0.80" stroke="#C00" stroke-opacity="0.80" stroke-linejoin="round" stroke-dasharray="" stroke-width="1.40" transform="" />
<ellipse cx="173.50" cy="100.00" rx="3.67" ry="1.00" stroke-width="1.05" fill-opacity="0.80" stroke-opacity="0.80" stroke="#C00" fill="url(#grad200.000000100.000000NRCRedun)" />
<ellipse cx="173.50" cy="221.00" rx="3.67" ry="1.00" stroke-width="1.05" fill-opacity="0.80" stroke-opacity="0.80" stroke="#C00" fill="transparent" />
<defs id="" >
<linearGradient id="grad283.000000230.000000" x1="0%" y1="0%" x2="100%" y2="0%" >
<stop offset="30%" stop-color="#2C782D" stop-opacity="1.00" />
<stop offset="100%" stop-color="#3BA03C" stop-opacity="1.00" />
</linearGradient>
</defs>
<path id="283.000000230.000000" d="M 283.000000,230.000000  v 246.500000 a 10.500000,2.000000 0 0,0 21.000000,0  v -246.500000 a 10.500000,2.000000 0 0,1 -21.000000,0 " fill="url(#grad283.000000230.000000)" fill-opacity="0.80" stroke="#1D501E" stroke-opacity="0.80" stroke-linejoin="round" stroke-dasharray="" stroke-width="0.75" transform="" />
<ellipse cx="293.50" cy="230.00" rx="10.59" ry="2.00" stroke-width="0.56" fill-opacity="0.80" stroke-opacity="0.80" stroke="#1D501E" fill="url(#grad283.000000230.000000)" />
<ellipse cx="293.50" cy="476.50" rx="10.59" ry="2.00" stroke-width="0.56" fill-opacity="0.80" stroke-opacity="0.80" stroke="#1D501E" fill="transparent" />
<path id="283.000000230.000000" d="M 283.000000,230.000000  v 246.500000 a 10.500000,2.000000 0 0,0 21.000000,0  v -246.500000 a 10.500000,2.000000 0 0,1 -21.000000,0 " fill="url(#Wavy)" fill-opacity="0.80" stroke="#1D501E" stroke-opacity="0.80" stroke-linejoin="round" stroke-dasharray="" stroke-width="0.75" transform="" />
<ellipse cx="293.50" cy="230.00" rx="10.59" ry="2.00" stroke-width="0.56" fill-opacity="0.80" stroke-opacity="0.80" stroke="#1D501E" fill="url(#Wavy)" />
<ellipse cx="293.50" cy="476.50" rx="10.59" ry="2.00" stroke-width="0.56" fill-opacity="0.80" stroke-opacity="0.80" stroke="#1D501E" fill="transparent" />
<defs id="" >
<linearGradient id="grad283.000000230.000000NRC" x1="0%" y1="0%" x2="100%" y2="0%" >
<stop offset="30%" stop-color="#99CC33" stop-opacity="1.00" />
<stop offset="100%" stop-color="#aaff00" stop-opacity="1.00" />
</linearGradient>
</defs>
<path id="312.000000230.000000" d="M 312.000000,230.000000  v 246.500000 a 3.500000,1.000000 0 0,0 7.000000,0  v -246.500000 a 3.500000,1.000000 0 0,1 -7.000000,0 " fill="url(#grad283.000000230.000000NRC)" fill-opacity="0.80" stroke="#6A0" stroke-opacity="0.80" stroke-linejoin="round" stroke-dasharray="" stroke-width="1.40" transform="" />
<ellipse cx="315.50" cy="230.00" rx="3.67" ry="1.00" stroke-width="1.05" fill-opacity="0.80" stroke-opacity="0.80" stroke="#6A0" fill="url(#grad283.000000230.000000NRC)" />
<ellipse cx="315.50" cy="476.50" rx="3.67" ry="1.00" stroke-width="1.05" fill-opacity="0.80" stroke-opacity="0.80" stroke="#6A0" fill="transparent" />
<defs id="" >
<linearGradient id="grad283.000000230.000000NRCRedun" x1="0%" y1="0%" x2="100%" y2="0%" >
<stop offset="30%" stop-color="#CC3333" stop-opacity="1.00" />
<stop offset="100%" stop-color="#ff0000" stop-opacity="1.00" />
</linearGradient>
</defs>
<path id="327.000000230.000000" d="M 327.000000,230.000000  v 246.500000 a 3.500000,1.000000 0 0,0 7.000000,0  v -246.500000 a 3.500000,1.000000 0 0,1 -7.000000,0 " fill="url(#grad283.000000230.000000NRCRedun)" fill-opacity="0.80" stroke="#C00" stroke-opacity="0.80" stroke-linejoin="round" stroke-dasharray="" stroke-width="1.40" transform="" />
<ellipse cx="330.50" cy="230.00" rx="3.67" ry="1.00" stroke-width="1.05" fill-opacity="0.80" stroke-opacity="0.80" stroke="#C00" fill="url(#grad283.000000230.000000NRCRedun)" />
<ellipse cx="330.50" cy="476.50" rx="3.67" ry="1.00" stroke-width="1.05" fill-opacity="0.80" stroke-opacity="0.80" stroke="#C00" fill="transparent" />
<polygon points="221.00,100.00 221.00,221.00 283.00,230.00 283.00,476.50 " fill="#3BA03C" stroke="#3BA03C" stroke-width="1.00" stroke-opacity="0.40" fill-opacity="0.40" />
<defs id="" >
<linearGradient id="grad200.000000354.000000" x1="0%" y1="0%" x2="100%" y2="0%" >
<stop offset="30%" stop-color="#77782C" stop-opacity="1.00" />
<stop offset="100%" stop-color="#9FA03B" stop-opacity="1.00" />
</linearGradient>
</defs>
<path id="200.000000354.000000" d="M 200.000000,354.000000  v 128.500000 a 10.500000,2.000000 0 0,0 21.000000,0  v -128.500000 a 10.500000,2.000000 0 0,1 -21.000000,0 " fill="url(#grad200.000000354.000000)" fill-opacity="0.80" stroke="#4F501D" stroke-opacity="0.80" stroke-linejoin="round" stroke-dasharray="" stroke-width="0.75" transform="" />
<ellipse cx="210.50" cy="354.00" rx="10.59" ry="2.00" stroke-width="0.56" fill-opacity="0.80" stroke-opacity="0.80" stroke="#4F501D" fill="url(#grad200.000000354.000000)" />
<ellipse cx="210.50" cy="482.50" rx="10.59" ry="2.00" stroke-width="0.56" fill-opacity="0.80" stroke-opacity="0.80" stroke="#4F501D" fill="transparent" />
<defs id="" >
<linearGradient id="grad200.000000354.000000NRC" x1="0%" y1="0%" x2="100%" y2="0%" >
<stop offset="30%" stop-color="#99CC33" stop-opacity="1.00" />
<stop offset="100%" stop-color="#aaff00" stop-opacity="1.00" />
</linearGradient>
</defs>
<path id="185.000000354.000000" d="M 185.000000,354.000000  v 128.500000 a 3.500000,1.000000 0 0,0 7.000000,0  v -128.500000 a 3.500000,1.000000 0 0,1 -7.000000,0 " fill="url(#grad200.000000354.000000NRC)" fill-opacity="0.80" stroke="#6A0" stroke-opacity="0.80" stroke-linejoin="round" stroke-dasharray="" stroke-width="1.40" transform="" />
<ellipse cx="188.50" cy="354.00" rx="3.67" ry="1.00" stroke-width="1.05" fill-opacity="0.80" stroke-opacity="0.80" stroke="#6A0" fill="url(#grad200.000000354.000000NRC)" />
<ellipse cx="188.50" cy="482.50" rx="3.67" ry="1.00" stroke-width="1.05" fill-opacity="0.80" stroke-opacity="0.80" stroke="#6A0" fill="transparent" />
<defs id="" >
<linearGradient id="grad200.000000354.000000NRCRedun" x1="0%" y1="0%" x2="100%" y2="0%" >
<stop offset="30%" stop-color="#CC3333" stop-opacity="1.00" />
<stop offset="100%" stop-color="#ff0000" stop-opacity="1.00" />
</linearGradient>
</defs>
<path id="170.000000354.000000" d="M 170.000000,354.000000  v 128.500000 a 3.500000,1.000000 0 0,0 7.000000,0  v -128.500000 a 3.500000,1.000000 0 0,1 -7.000000,0 " fill="url(#grad200.000000354.000000NRCRedun)" fill-opacity="0.80" stroke="#C00" stroke-opacity="0.80" stroke-linejoin="round" stroke-dasharray="" stroke-width="1.40" transform="" />
<ellipse cx="173.50" cy="354.00" rx="3.67" ry="1.00" stroke-width="1.05" fill-opacity="0.80" stroke-opacity="0.80" stroke="#C00" fill="url(#grad200.000000354.000000NRCRedun)" />
<ellipse cx="173.50" cy="482.50" rx="3.67" ry="1.00" stroke-width="1.05" fill-opacity="0.80" stroke-opacity="0.80" stroke="#C00" fill="transparent" />
<defs id="" >
<linearGradient id="grad283.000000480.000000" x1="0%" y1="0%" x2="100%" y2="0%" >
<stop offset="30%" stop-color="#77782C" stop-opacity="1.00" />
<stop offset="100%" stop-color="#9FA03B" stop-opacity="1.00" />
</linearGradient>
</defs>
<path id="283.000000480.000000" d="M 283.000000,480.000000  v 119.500000 a 10.500000,2.000000 0 0,0 21.000000,0  v -119.500000 a 10.500000,2.000000 0 0,1 -21.000000,0 " fill="url(#grad283.000000480.000000)" fill-opacity="0.80" stroke="#4F501D" stroke-opacity="0.80" stroke-linejoin="round" stroke-dasharray="" stroke-width="0.75" transform="" />
<ellipse cx="293.50" cy="480.00" rx="10.59" ry="2.00" stroke-width="0.56" fill-opacity="0.80" stroke-opacity="0.80" stroke="#4F501D" fill="url(#grad283.000000480.000000)" />
<ellipse cx="293.50" cy="599.50" rx="10.59" ry="2.00" stroke-width="0.56" fill-opacity="0.80" stroke-opacity="0.80" stroke="#4F501D" fill="transparent" />
<defs id="" >
<linearGradient id="grad283.000000480.000000NRC" x1="0%" y1="0%" x2="100%" y2="0%" >
<stop offset="30%" stop-color="#99CC33" stop-opacity="1.00" />
<stop offset="100%" stop-color="#aaff00" stop-opacity="1.00" />
</linearGradient>
</defs>
<path id="312.000000480.000000" d="M 312.000000,480.000000  v 119.500000 a 3.500000,1.000000 0 0,0 7.000000,0  v -119.500000 a 3.500000,1.000000 0 0,1 -7.000000,0 " fill="url(#grad283.000000480.000000NRC)" fill-opacity="0.80" stroke="#6A0" stroke-opacity="0.80" stroke-linejoin="round" stroke-dasharray="" stroke-width="1.40" transform="" />
<ellipse cx="315.50" cy="480.00" rx="3.67" ry="1.00" stroke-width="1.05" fill-opacity="0.80" stroke-opacity="0.80" stroke="#6A0" fill="url(#grad283.000000480.000000NRC)" />
<ellipse cx="315.50" cy="599.50" rx="3.67" ry="1.00" stroke-width="1.05" fill-opacity="0.80" stroke-opacity="0.80" stroke="#6A0" fill="transparent" />
<defs id="" >
<linearGradient id="grad283.000000480.000000NRCRedun" x1="0%" y1="0%" x2="100%" y2="0%" >
<stop offset="30%" stop-color="#CC3333" stop-opacity="1.00" />
<stop offset="100%" stop-color="#ff0000" stop-opacity="1.00" />
</linearGradient>
</defs>
<path id="327.000000480.000000" d="M 327.000000,480.000000  v 119.500000 a 3.500000,1.000000 0 0,0 7.000000,0  v -119.500000 a 3.500000,1.000000 0 0,1 -7.000000,0 " fill="url(#grad283.000000480.000000NRCRedun)" fill-opacity="0.80" stroke="#C00" stroke-opacity="0.80" stroke-linejoin="round" stroke-dasharray="" stroke-width="1.40" transform="" />
<ellipse cx="330.50" cy="480.00" rx="3.67" ry="1.00" stroke-width="1.05" fill-opacity="0.80" stroke-opacity="0.80" stroke="#C00" fill="url(#grad283.000000480.000000NRCRedun)" />
<ellipse cx="330.50" cy="599.50" rx="3.67" ry="1.00" stroke-width="1.05" fill-opacity="0.80" stroke-opacity="0.80" stroke="#C00" fill="transparent" />
<polygon points="221.00,354.00 221.00,482.50 283.00,599.50 283.00,480.00 " fill="#9FA03B" stroke="#9FA03B" stroke-width="1.00" stroke-opacity="0.40" fill-opacity="0.40" />
<defs id="" >
<linearGradient id="grad200.000000224.000000" x1="0%" y1="0%" x2="100%" y2="0%" >
<stop offset="30%" stop-color="#782D2C" stop-opacity="1.00" />
<stop offset="100%" stop-color="#A03C3B" stop-opacity="1.00" />
</linearGradient>
</defs>
<path id="200.000000224.000000" d="M 200.000000,224.000000  v 133.500000 a 10.500000,2.000000 0 0,0 21.000000,0  v -133.500000 a 10.500000,2.000000 0 0,1 -21.000000,0 " fill="url(#grad200.000000224.000000)" fill-opacity="0.80" stroke="#501E1D" stroke-opacity="0.80" stroke-linejoin="round" stroke-dasharray="" stroke-width="0.75" transform="" />
<ellipse cx="210.50" cy="224.00" rx="10.59" ry="2.00" stroke-width="0.56" fill-opacity="0.80" stroke-opacity="0.80" stroke="#501E1D" fill="url(#grad200.000000224.000000)" />
<ellipse cx="210.50" cy="357.50" rx="10.59" ry="2.00" stroke-width="0.56" fill-opacity="0.80" stroke-opacity="0.80" stroke="#501E1D" fill="transparent" />
<defs id="" >
<linearGradient id="grad200.000000224.000000NRC" x1="0%" y1="0%" x2="100%" y2="0%" >
<stop offset="30%" stop-color="#99CC33" stop-opacity="1.00" />
<stop offset="100%" stop-color="#aaff00" stop-opacity="1.00" />
</linearGradient>
</defs>
<path id="185.000000224.000000" d="M 185.000000,224.000000  v 133.500000 a 3.500000,1.000000 0 0,0 7.000000,0  v -133.500000 a 3.500000,1.000000 0 0,1 -7.000000,0 " fill="url(#grad200.000000224.000000NRC)" fill-opacity="0.80" stroke="#6A0" stroke-opacity="0.80" stroke-linejoin="round" stroke-dasharray="" stroke-width="1.40" transform="" />
<ellipse cx="188.50" cy="224.00" rx="3.67" ry="1.00" stroke-width="1.05" fill-opacity="0.80" stroke-opacity="0.80" stroke="#6A0" fill="url(#grad200.000000224.000000NRC)" />
<ellipse cx="188.50" cy="357.50" rx="3.67" ry="1.00" stroke-width="1.05" fill-opacity="0.80" stroke-opacity="0.80" stroke="#6A0" fill="transparent" />
<defs id="" >
<linearGradient id="grad200.000000224.000000NRCRedun" x1="0%" y1="0%" x2="100%" y2="0%" >
<stop offset="30%" stop-color="#CC3333" stop-opacity="1.00" />
<stop offset="100%" stop-color="#ff0000" stop-opacity="1.00" />
</linearGradient>
</defs>
<path id="170.000000224.000000" d="M 170.000000,224.000000  v 133.500000 a 3.500000,1.000000 0 0,0 7.000000,0  v -133.500000 a 3.500000,1.000000 0 0,1 -7.000000,0 " fill="url(#grad200.000000224.000000NRCRedun)" fill-opacity="0.80" stroke="#C00" stroke-opacity="0.80" stroke-linejoin="round" stroke-dasharray="" stroke-width="1.40" transform="" />
<ellipse cx="173.50" cy="224.00" rx="3.67" ry="1.00" stroke-width="1.05" fill-opacity="0.80" stroke-opacity="0.80" stroke="#C00" fill="url(#grad200.000000224.000000NRCRedun)" />
<ellipse cx="173.50" cy="357.50" rx="3.67" ry="1.00" stroke-width="1.05" fill-opacity="0.80" stroke-opacity="0.80" stroke="#C00" fill="transparent" />
<defs id="" >
<linearGradient id="grad283.000000100.000000" x1="0%" y1="0%" x2="100%" y2="0%" >
<stop offset="30%" stop-color="#782D2C" stop-opacity="1.00" />
<stop offset="100%" stop-color="#A03C3B" stop-opacity="1.00" />
</linearGradient>
</defs>
<path id="283.000000100.000000" d="M 283.000000,100.000000  v 126.500000 a 10.500000,2.000000 0 0,0 21.000000,0  v -126.500000 a 10.500000,2.000000 0 0,1 -21.000000,0 " fill="url(#grad283.000000100.000000)" fill-opacity="0.80" stroke="#501E1D" stroke-opacity="0.80" stroke-linejoin="round" stroke-dasharray="" stroke-width="0.75" transform="" />
<ellipse cx="293.50" cy="100.00" rx="10.59" ry="2.00" stroke-width="0.56" fill-opacity="0.80" stroke-opacity="0.80" stroke="#501E1D" fill="url(#grad283.000000100.000000)" />
<ellipse cx="293.50" cy="226.50" rx="10.59" ry="2.00" stroke-width="0.56" fill-opacity="0.80" stroke-opacity="0.80" stroke="#501E1D" fill="transparent" />
<defs id="" >
<linearGradient id="grad283.000000100.000000NRC" x1="0%" y1="0%" x2="100%" y2="0%" >
<stop offset="30%" stop-color="#99CC33" stop-opacity="1.00" />
<stop offset="100%" stop-color="#aaff00" stop-opacity="1.00" />
</linearGradient>
</defs>
<path id="312.000000100.000000" d="M 312.000000,100.000000  v 126.500000 a 3.500000,1.000000 0 0,0 7.000000,0  v -126.500000 a 3.500000,1.000000 0 0,1 -7.000000,0 " fill="url(#grad283.000000100.000000NRC)" fill-opacity="0.80" stroke="#6A0" stroke-opacity="0.80" stroke-linejoin="round" stroke-dasharray="" stroke-width="1.40" transform="" />
<ellipse cx="315.50" cy="100.00" rx="3.67" ry="1.00" stroke-width="1.05" fill-opacity="0.80" stroke-opacity="0.80" stroke="#6A0" fill="url(#grad283.000000100.000000NRC)" />
<ellipse cx="315.50" cy="226.50" rx="3.67" ry="1.00" stroke-width="1.05" fill-opacity="0.80" stroke-opacity="0.80" stroke="#6A0" fill="transparent" />
<defs id="" >
<linearGradient id="grad283.000000100.000000NRCRedun" x1="0%" y1="0%" x2="100%" y2="0%" >
<stop offset="30%" stop-color="#CC3333" stop-opacity="1.00" />
<stop offset="100%" stop-color="#ff0000" stop-opacity="1.00" />
</linearGradient>
</defs>
<path id="327.000000100.000000" d="M 327.000000,100.000000  v 126.500000 a 3.500000,1.000000 0 0,0 7.000000,0  v -126.500000 a 3.500000,1.000000 0 0,1 -7.000000,0 " fill="url(#grad283.000000100.000000NRCRedun)" fill-opacity="0.80" stroke="#C00" stroke-opacity="0.80" stroke-linejoin="round" stroke-dasharray="" stroke-width="1.40" transform="" />
<ellipse cx="330.50" cy="100.00" rx="3.67" ry="1.00" stroke-width="1.05" fill-opacity="0.80" stroke-opacity="0.80" stroke="#C00" fill="url(#grad283.000000100.000000NRCRedun)" />
<ellipse cx="330.50" cy="226.50" rx="3.67" ry="1.00" stroke-width="1.05" fill-opacity="0.80" stroke-opacity="0.80" stroke="#C00" fill="transparent" />
<polygon points="221.00,224.00 221.00,357.50 283.00,226.50 283.00,100.00 " fill="#A03C3B" stroke="#A03C3B" stroke-width="1.00" stroke-opacity="0.40" fill-opacity="0.40" />
<path id="200.000000100.000000" d="M 200.000000,100.000000  v 500.000000 a 10.500000,2.000000 0 0,0 21.000000,0  v -500.000000 a 10.500000,2.000000 0 0,1 -21.000000,0 " fill="transparent" fill-opacity="0.80" stroke="black" stroke-opacity="1.00" stroke-linejoin="round" stroke-dasharray="" stroke-width="2.00" transform="" />
<ellipse cx="210.50" cy="100.00" rx="10.75" ry="2.00" stroke-width="1.50" fill-opacity="0.80" stroke-opacity="1.00" stroke="black" fill="transparent" />
<ellipse cx="210.50" cy="600.00" rx="10.75" ry="2.00" stroke-width="1.50" fill-opacity="0.80" stroke-opacity="1.00" stroke="black" fill="transparent" />
<path id="283.000000100.000000" d="M 283.000000,100.000000  v 500.000000 a 10.500000,2.000000 0 0,0 21.000000,0  v -500.000000 a 10.500000,2.000000 0 0,1 -21.000000,0 " fill="transparent" fill-opacity="0.80" stroke="black" stroke-opacity="1.00" stroke-linejoin="round" stroke-dasharray="" stroke-width="2.00" transform="" />
<ellipse cx="293.50" cy="100.00" rx="10.75" ry="2.00" stroke-width="1.50" fill-opacity="0.80" stroke-opacity="1.00" stroke="black" fill="transparent" />
<ellipse cx="293.50" cy="600.00" rx="10.75" ry="2.00" stroke-width="1.50" fill-opacity="0.80" stroke-opacity="1.00" stroke="black" fill="transparent" />
<text id="252.00000024.000000" x="252.00" y="24.00" dx="0.00" dy="-3.00" dominant-baseline="text-after-edge" transform="" font-size="9px" font-weight="normal" font-family="Arial" fill="black" text-anchor="middle" text-align="start" line-height="125%%" >
RELATIVE REDUNDANCY</text>
<text id="252.00000036.000000" x="252.00" y="36.00" dx="0.00" dy="3.00" dominant-baseline="text-before-edge" transform="" font-size="9px" font-weight="normal" font-family="Arial" fill="black" text-anchor="middle" text-align="start" line-height="125%%" >
REDUNDANCY</text>
<defs id="" >
<linearGradient id="grad170.00000024.000000" x1="0%" y1="0%" x2="100%" y2="0%" >
<stop offset="0%" stop-color="#0000ff" stop-opacity="1.00" />
<stop offset="8%" stop-color="#0055ff" stop-opacity="1.00" />
<stop offset="16%" stop-color="#00aaff" stop-opacity="1.00" />
<stop offset="25%" stop-color="#00ffff" stop-opacity="1.00" />
<stop offset="33%" stop-color="#00ffaa" stop-opacity="1.00" />
<stop offset="41%" stop-color="#00ff55" stop-opacity="1.00" />
<stop offset="50%" stop-color="#00ff00" stop-opacity="1.00" />
<stop offset="58%" stop-color="#55ff00" stop-opacity="1.00" />
<stop offset="66%" stop-color="#aaff00" stop-opacity="1.00" />
<stop offset="75%" stop-color="#ffff00" stop-opacity="1.00" />
<stop offset="83%" stop-color="#ffaa00" stop-opacity="1.00" />
<stop offset="91%" stop-color="#ff5500" stop-opacity="1.00" />
<stop offset="100%" stop-color="#ff0000" stop-opacity="1.00" />
</linearGradient>
</defs>
<rect x="170.00" y="24.00" width="164.00" height="12.00" rx="0.00" ry="1.00" fill="url(#grad170.00000024.000000)" fill-opacity="0.80" stroke="black" stroke-width="0.40" />
<text id="168.00000030.000000" x="168.00" y="30.00" dx="-2.50" dy="0.00" dominant-baseline="middle" transform="" font-size="9px" font-weight="normal" font-family="Arial" fill="black" text-anchor="end" text-align="start" line-height="125%%" >
0.0</text>
<text id="211.00000030.000000" x="211.00" y="30.00" dx="0.00" dy="0.00" dominant-baseline="middle" transform="" font-size="9px" font-weight="normal" font-family="Arial" fill="black" text-anchor="middle" text-align="start" line-height="125%%" >
0.5</text>
<text id="252.00000030.000000" x="252.00" y="30.00" dx="0.00" dy="0.00" dominant-baseline="middle" transform="" font-size="9px" font-weight="normal" font-family="Arial" fill="black" text-anchor="middle" text-align="start" line-height="125%%" >
1.0</text>
<text id="293.00000030.000000" x="293.00" y="30.00" dx="0.00" dy="0.00" dominant-baseline="middle" transform="" font-size="9px" font-weight="normal" font-family="Arial" fill="black" text-anchor="middle" text-align="start" line-height="125%%" >
1.5</text>
<text id="336.00000030.000000" x="336.00" y="30.00" dx="2.50" dy="0.00" dominant-baseline="middle" transform="" font-size="9px" font-weight="normal" font-family="Arial" fill="black" text-anchor="start" text-align="start" line-height="125%%" >
2.0</text>
<path id="" d="M 188.500000,599.500000 v 20.500000 h 12.400000" fill="transparent" fill-opacity="0.80" stroke="black" stroke-opacity="1.00" stroke-linejoin="round" stroke-dasharray="8 3" stroke-width="1.00" transform="" />
<path id="" d="M 315.500000,599.500000 v 20.500000 h -12.400000" fill="transparent" fill-opacity="0.80" stroke="black" stroke-opacity="1.00" stroke-linejoin="round" stroke-dasharray="8 3" stroke-width="1.00" transform="" />
<text id="252.000000620.000000" x="252.00" y="620.00" dx="0.00" dy="0.00" dominant-baseline="middle" transform="" font-size="9px" font-weight="normal" font-family="Arial" fill="black" text-anchor="middle" text-align="start" line-height="125%%" >
Relative Redundancy</text>
<path id="" d="M 173.500000,599.500000 v 35.500000 h 42.400000" fill="transparent" fill-opacity="0.80" stroke="black" stroke-opacity="1.00" stroke-linejoin="round" stroke-dasharray="8 3" stroke-width="1.00" transform="" />
<path id="" d="M 330.500000,599.500000 v 35.500000 h -42.400000" fill="transparent" fill-opacity="0.80" stroke="black" stroke-opacity="1.00" stroke-linejoin="round" stroke-dasharray="8 3" stroke-width="1.00" transform="" />
<text id="252.000000635.000000" x="252.00" y="635.00" dx="0.00" dy="0.00" dominant-baseline="middle" transform="" font-size="9px" font-weight="normal" font-family="Arial" fill="black" text-anchor="middle" text-align="start" line-height="125%%" >
Redundancy</text>
</svg>