<?xml version="1.0" encoding="UTF-8" standalone="no"?>
<!-- Morteza Hosseini, IEETA 2018-2019 -->
<svg xmlns="http://www.w3.org/2000/svg" xmlns:xlink="http://www.w3.org/1999/xlink" width="504" height="650" >
<defs id="" >
<pattern id="Wavy" x="283" y="0" width="21" height="7" patternUnits="userSpaceOnUse" >
<path id="" d="m 0,0
a 10.5,2 0 0,0 21,0
" fill="transparent" fill-opacity="0.9" stroke="black" stroke-opacity="1" stroke-linejoin="round" stroke-width="1" />
</pattern>
</defs>
<defs id="" >
<pattern id="WavyWhite" x="283" y="0" width="21" height="7" patternUnits="userSpaceOnUse" >
<path id="" d="m 0,0
a 10.5,2 0 0,0 21,0
" fill="transparent" fill-opacity="0.9" stroke="white" stroke-opacity="1" stroke-linejoin="round" stroke-width="1" />
</pattern>
</defs>
<rect x="0" y="0" width="504" height="650" rx="-1.93431e+25" ry="1" fill="white" fill-opacity="0.9" stroke="white" stroke-width="3.06786e-41" />
<text id="161.000000100.000000" x="161" y="100" dominant-baseline="text-before-edge" font-size="9px" font-family="Arial" text-anchor="end" text-align="start" line-height="125%%" >
<tspan id="2" style="fill:#3BA03C">0</tspan>
</text>
<text id="161.000000220.000000" x="161" y="220" dominant-baseline="text-after-edge" font-size="9px" font-family="Arial" text-anchor="end" text-align="start" line-height="125%%" >
<tspan id="2" style="fill:#3BA03C">240</tspan>
</text>
<text id="161.000000224.000000" x="161" y="224" dominant-baseline="text-before-edge" font-size="9px" font-family="Arial" text-anchor="end" text-align="start" line-height="125%%" >
<tspan id="0" style="fill:#A03C3B">248</tspan>
</text>
<text id="161.000000355.000000" x="161" y="355" dominant-baseline="middle" font-size="9px" font-family="Arial" text-anchor="end" text-align="start" line-height="125%%" >
<tspan id="0" style="fill:#A03C3B">512, </tspan>
<tspan id="1" style="fill:#9FA03B">508</tspan>
</text>
<text id="161.000000481.000000" x="161" y="481" dominant-baseline="middle" font-size="9px" font-family="Arial" text-anchor="end" text-align="start" line-height="125%%" >
<tspan id="1" style="fill:#9FA03B">765, </tspan>
<tspan id="3" style="fill:#3B9FA0">759</tspan>
</text>
<text id="161.000000599.500000" x="161" y="599.5" dominant-baseline="text-after-edge" font-size="9px" font-family="Arial" text-anchor="end" text-align="start" line-height="125%%" >
<tspan id="3" style="fill:#3B9FA0">999</tspan>
</text>
<text id="343.000000100.000000" x="343" y="100" dominant-baseline="text-before-edge" font-size="9px" font-family="Arial" text-anchor="start" text-align="start" line-height="125%%" >
<tspan id="0" style="fill:#A03C3B">0</tspan>
</text>
<text id="343.000000225.500000" x="343" y="225.5" dominant-baseline="text-after-edge" font-size="9px" font-family="Arial" text-anchor="start" text-align="start" line-height="125%%" >
<tspan id="0" style="fill:#A03C3B">251</tspan>
</text>
<text id="343.000000230.000000" x="343" y="230" dominant-baseline="text-before-edge" font-size="9px" font-family="Arial" text-anchor="start" text-align="start" line-height="125%%" >
<tspan id="2" style="fill:#3BA03C">260, </tspan>
<tspan id="3" style="fill:#3B9FA0">260</tspan>
</text>
<text id="343.000000475.500000" x="343" y="475.5" dominant-baseline="text-after-edge" font-size="9px" font-family="Arial" text-anchor="start" text-align="start" line-height="125%%" >
<tspan id="2" style="fill:#3BA03C">751, </tspan>
<tspan id="3" style="fill:#3B9FA0">751</tspan>
</text>
<text id="343.000000480.000000" x="343" y="480" dominant-baseline="text-before-edge" font-size="9px" font-family="Arial" text-anchor="start" text-align="start" line-height="125%%" >
<tspan id="1" style="fill:#9FA03B">760</tspan>
</text>
<text id="343.000000599.500000" x="343" y="599.5" dominant-baseline="text-after-edge" font-size="9px" font-family="Arial" text-anchor="start" text-align="start" line-height="125%%" >
<tspan id="1" style="fill:#9FA03B">999</tspan>
</text>
<defs id="" >
<linearGradient id="grad200.000000479.500000" x1="0%" y1="0%" x2="100%" y2="0%" >
<stop offset="30%" stop-color="#2C7778" stop-opacity="1" />
<stop offset="100%" stop-color="#3B9FA0" stop-opacity="1" />
</linearGradient>
</defs>
<path id="200.000000479.500000" d="M 200,479.5
v 120
a 10.5,2 0 0,0 21,0
v -120
a 10.5,2 0 0,1 -21,0
" fill="url(#grad200.000000479.500000)" fill-opacity="0.9" stroke="#1D4F50" stroke-opacity="0.9" stroke-linejoin="round" stroke-width="0.75" />
<ellipse cx="210.5" cy="479.5" rx="10.6875" ry="2" stroke-width="0.375" fill-opacity="0.9" stroke-opacity="0.9" stroke="#1D4F50" fill="url(#grad200.000000479.500000)" />
<ellipse cx="210.5" cy="599.5" rx="10.6875" ry="2" stroke-width="0.375" fill-opacity="0.9" stroke-opacity="0.9" stroke="#1D4F50" fill="transparent" />
<defs id="" >
<linearGradient id="grad200.000000479.500000NRC" x1="0%" y1="0%" x2="100%" y2="0%" >
<stop offset="30%" stop-color="#3333CC" stop-opacity="1" />
<stop offset="100%" stop-color="#0000ff" stop-opacity="1" />
</linearGradient>
</defs>
<path id="185.000000479.500000" d="M 185,479.5
v 120
a 3.5,1 0 0,0 7,0
v -120
a 3.5,1 0 0,1 -7,0
" fill="url(#grad200.000000479.500000NRC)" fill-opacity="0.9" stroke="#00A" stroke-opacity="0.9" stroke-linejoin="round" stroke-width="1.4" />
<ellipse cx="188.5" cy="479.5" rx="3.85" ry="1" stroke-width="0.7" fill-opacity="0.9" stroke-opacity="0.9" stroke="#00A" fill="url(#grad200.000000479.500000NRC)" />
<ellipse cx="188.5" cy="599.5" rx="3.85" ry="1" stroke-width="0.7" fill-opacity="0.9" stroke-opacity="0.9" stroke="#00A" fill="transparent" />
<defs id="" >
<linearGradient id="grad200.000000479.500000NRCRedun" x1="0%" y1="0%" x2="100%" y2="0%" >
<stop offset="30%" stop-color="#CC3333" stop-opacity="1" />
<stop offset="100%" stop-color="#ff0000" stop-opacity="1" />
</linearGradient>
</defs>
<path id="170.000000479.500000" d="M 170,479.5
v 120
a 3.5,1 0 0,0 7,0
v -120
a 3.5,1 0 0,1 -7,0
" fill="url(#grad200.000000479.500000NRCRedun)" fill-opacity="0.9" stroke="#C00" stroke-opacity="0.9" stroke-linejoin="round" stroke-width="1.4" />
<ellipse cx="173.5" cy="479.5" rx="3.85" ry="1" stroke-width="0.7" fill-opacity="0.9" stroke-opacity="0.9" stroke="#C00" fill="url(#grad200.000000479.500000NRCRedun)" />
<ellipse cx="173.5" cy="599.5" rx="3.85" ry="1" stroke-width="0.7" fill-opacity="0.9" stroke-opacity="0.9" stroke="#C00" fill="transparent" />
<defs id="" >
<linearGradient id="grad283.000000230.000000" x1="0%" y1="0%" x2="100%" y2="0%" >
<stop offset="30%" stop-color="#2C7778" stop-opacity="1" />
<stop offset="100%" stop-color="#3B9FA0" stop-opacity="1" />
</linearGradient>
</defs>
<path id="283.000000230.000000" d="M 283,230
v 245.5
a 10.5,2 0 0,0 21,0
v -245.5
a 10.5,2 0 0,1 -21,0
" fill="url(#grad283.000000230.000000)" fill-opacity="0.9" stroke="#1D4F50" stroke-opacity="0.9" stroke-linejoin="round" stroke-width="0.75" />
<ellipse cx="293.5" cy="230" rx="10.6875" ry="2" stroke-width="0.375" fill-opacity="0.9" stroke-opacity="0.9" stroke="#1D4F50" fill="url(#grad283.000000230.000000)" />
<ellipse cx="293.5" cy="475.5" rx="10.6875" ry="2" stroke-width="0.375" fill-opacity="0.9" stroke-opacity="0.9" stroke="#1D4F50" fill="transparent" />
<path id="283.000000230.000000" d="M 283,230
v 245.5
a 10.5,2 0 0,0 21,0
v -245.5
a 10.5,2 0 0,1 -21,0
" fill="url(#Wavy)" fill-opacity="0.9" stroke="#1D4F50" stroke-opacity="0.9" stroke-linejoin="round" stroke-width="0.75" />
<ellipse cx="293.5" cy="230" rx="10.6875" ry="2" stroke-width="0.375" fill-opacity="0.9" stroke-opacity="0.9" stroke="#1D4F50" fill="url(#Wavy)" />
<ellipse cx="293.5" cy="475.5" rx="10.6875" ry="2" stroke-width="0.375" fill-opacity="0.9" stroke-opacity="0.9" stroke="#1D4F50" fill="transparent" />
<defs id="" >
<linearGradient id="grad283.000000230.000000NRC" x1="0%" y1="0%" x2="100%" y2="0%" >
<stop offset="30%" stop-color="#3366CC" stop-opacity="1" />
<stop offset="100%" stop-color="#0055ff" stop-opacity="1" />
</linearGradient>
</defs>
<path id="312.000000230.000000" d="M 312,230
v 245.5
a 3.5,1 0 0,0 7,0
v -245.5
a 3.5,1 0 0,1 -7,0
" fill="url(#grad283.000000230.000000NRC)" fill-opacity="0.9" stroke="#03A" stroke-opacity="0.9" stroke-linejoin="round" stroke-width="1.4" />
<ellipse cx="315.5" cy="230" rx="3.85" ry="1" stroke-width="0.7" fill-opacity="0.9" stroke-opacity="0.9" stroke="#03A" fill="url(#grad283.000000230.000000NRC)" />
<ellipse cx="315.5" cy="475.5" rx="3.85" ry="1" stroke-width="0.7" fill-opacity="0.9" stroke-opacity="0.9" stroke="#03A" fill="transparent" />
<defs id="" >
<linearGradient id="grad283.000000230.000000NRCRedun" x1="0%" y1="0%" x2="100%" y2="0%" >
<stop offset="30%" stop-color="#CC3333" stop-opacity="1" />
<stop offset="100%" stop-color="#ff0000" stop-opacity="1" />
</linearGradient>
</defs>
<path id="327.000000230.000000" d="M 327,230
v 245.5
a 3.5,1 0 0,0 7,0
v -245.5
a 3.5,1 0 0,1 -7,0
" fill="url(#grad283.000000230.000000NRCRedun)" fill-opacity="0.9" stroke="#C00" stroke-opacity="0.9" stroke-linejoin="round" stroke-width="1.4" />
<ellipse cx="330.5" cy="230" rx="3.85" ry="1" stroke-width="0.7" fill-opacity="0.9" stroke-opacity="0.9" stroke="#C00" fill="url(#grad283.000000230.000000NRCRedun)" />
<ellipse cx="330.5" cy="475.5" rx="3.85" ry="1" stroke-width="0.7" fill-opacity="0.9" stroke-opacity="0.9" stroke="#C00" fill="transparent" />
<polygon points="221,479.5 221,599.5 283,230 283,475.5 " fill="#3B9FA0" stroke="#3B9FA0" stroke-width="1" stroke-opacity="0.45" fill-opacity="0.45" />
<defs id="" >
<linearGradient id="grad200.000000354.000000" x1="0%" y1="0%" x2="100%" y2="0%" >
<stop offset="30%" stop-color="#77782C" stop-opacity="1" />
<stop offset="100%" stop-color="#9FA03B" stop-opacity="1" />
</linearGradient>
</defs>
<path id="200.000000354.000000" d="M 200,354
v 128.5
a 10.5,2 0 0,0 21,0
v -128.5
a 10.5,2 0 0,1 -21,0
" fill="url(#grad200.000000354.000000)" fill-opacity="0.9" stroke="#4F501D" stroke-opacity="0.9" stroke-linejoin="round" stroke-width="0.75" />
<ellipse cx="210.5" cy="354" rx="10.6875" ry="2" stroke-width="0.375" fill-opacity="0.9" stroke-opacity="0.9" stroke="#4F501D" fill="url(#grad200.000000354.000000)" />
<ellipse cx="210.5" cy="482.5" rx="10.6875" ry="2" stroke-width="0.375" fill-opacity="0.9" stroke-opacity="0.9" stroke="#4F501D" fill="transparent" />
<defs id="" >
<linearGradient id="grad200.000000354.000000NRC" x1="0%" y1="0%" x2="100%" y2="0%" >
<stop offset="30%" stop-color="#3366CC" stop-opacity="1" />
<stop offset="100%" stop-color="#0055ff" stop-opacity="1" />
</linearGradient>
</defs>
<path id="185.000000354.000000" d="M 185,354
v 128.5
a 3.5,1 0 0,0 7,0
v -128.5
a 3.5,1 0 0,1 -7,0
" fill="url(#grad200.000000354.000000NRC)" fill-opacity="0.9" stroke="#03A" stroke-opacity="0.9" stroke-linejoin="round" stroke-width="1.4" />
<ellipse cx="188.5" cy="354" rx="3.85" ry="1" stroke-width="0.7" fill-opacity="0.9" stroke-opacity="0.9" stroke="#03A" fill="url(#grad200.000000354.000000NRC)" />
<ellipse cx="188.5" cy="482.5" rx="3.85" ry="1" stroke-width="0.7" fill-opacity="0.9" stroke-opacity="0.9" stroke="#03A" fill="transparent" />
<defs id="" >
<linearGradient id="grad200.000000354.000000NRCRedun" x1="0%" y1="0%" x2="100%" y2="0%" >
<stop offset="30%" stop-color="#CC3333" stop-opacity="1" />
<stop offset="100%" stop-color="#ff0000" stop-opacity="1" />
</linearGradient>
</defs>
<path id="170.000000354.000000" d="M 170,354
v 128.5
a 3.5,1 0 0,0 7,0
v -128.5
a 3.5,1 0 0,1 -7,0
" fill="url(#grad200.000000354.000000NRCRedun)" fill-opacity="0.9" stroke="#C00" stroke-opacity="0.9" stroke-linejoin="round" stroke-width="1.4" />
<ellipse cx="173.5" cy="354" rx="3.85" ry="1" stroke-width="0.7" fill-opacity="0.9" stroke-opacity="0.9" stroke="#C00" fill="url(#grad200.000000354.000000NRCRedun)" />
<ellipse cx="173.5" cy="482.5" rx="3.85" ry="1" stroke-width="0.7" fill-opacity="0.9" stroke-opacity="0.9" stroke="#C00" fill="transparent" />
<defs id="" >
<linearGradient id="grad283.000000480.000000" x1="0%" y1="0%" x2="100%" y2="0%" >
<stop offset="30%" stop-color="#77782C" stop-opacity="1" />
<stop offset="100%" stop-color="#9FA03B" stop-opacity="1" />
</linearGradient>
</defs>
<path id="283.000000480.000000" d="M 283,480
v 119.5
a 10.5,2 0 0,0 21,0
v -119.5
a 10.5,2 0 0,1 -21,0
" fill="url(#grad283.000000480.000000)" fill-opacity="0.9" stroke="#4F501D" stroke-opacity="0.9" stroke-linejoin="round" stroke-width="0.75" />
<ellipse cx="293.5" cy="480" rx="10.6875" ry="2" stroke-width="0.375" fill-opacity="0.9" stroke-opacity="0.9" stroke="#4F501D" fill="url(#grad283.000000480.000000)" />
<ellipse cx="293.5" cy="599.5" rx="10.6875" ry="2" stroke-width="0.375" fill-opacity="0.9" stroke-opacity="0.9" stroke="#4F501D" fill="transparent" />
<defs id="" >
<linearGradient id="grad283.000000480.000000NRC" x1="0%" y1="0%" x2="100%" y2="0%" >
<stop offset="30%" stop-color="#3366CC" stop-opacity="1" />
<stop offset="100%" stop-color="#0055ff" stop-opacity="1" />
</linearGradient>
</defs>
<path id="312.000000480.000000" d="M 312,480
v 119.5
a 3.5,1 0 0,0 7,0
v -119.5
a 3.5,1 0 0,1 -7,0
" fill="url(#grad283.000000480.000000NRC)" fill-opacity="0.9" stroke="#03A" stroke-opacity="0.9" stroke-linejoin="round" stroke-width="1.4" />
<ellipse cx="315.5" cy="480" rx="3.85" ry="1" stroke-width="0.7" fill-opacity="0.9" stroke-opacity="0.9" stroke="#03A" fill="url(#grad283.000000480.000000NRC)" />
<ellipse cx="315.5" cy="599.5" rx="3.85" ry="1" stroke-width="0.7" fill-opacity="0.9" stroke-opacity="0.9" stroke="#03A" fill="transparent" />
<defs id="" >
<linearGradient id="grad283.000000480.000000NRCRedun" x1="0%" y1="0%" x2="100%" y2="0%" >
<stop offset="30%" stop-color="#CC3333" stop-opacity="1" />
<stop offset="100%" stop-color="#ff0000" stop-opacity="1" />
</linearGradient>
</defs>
<path id="327.000000480.000000" d="M 327,480
v 119.5
a 3.5,1 0 0,0 7,0
v -119.5
a 3.5,1 0 0,1 -7,0
" fill="url(#grad283.000000480.000000NRCRedun)" fill-opacity="0.9" stroke="#C00" stroke-opacity="0.9" stroke-linejoin="round" stroke-width="1.4" />
<ellipse cx="330.5" cy="480" rx="3.85" ry="1" stroke-width="0.7" fill-opacity="0.9" stroke-opacity="0.9" stroke="#C00" fill="url(#grad283.000000480.000000NRCRedun)" />
<ellipse cx="330.5" cy="599.5" rx="3.85" ry="1" stroke-width="0.7" fill-opacity="0.9" stroke-opacity="0.9" stroke="#C00" fill="transparent" />
<polygon points="221,354 221,482.5 283,599.5 283,480 " fill="#9FA03B" stroke="#9FA03B" stroke-width="1" stroke-opacity="0.45" fill-opacity="0.45" />
<defs id="" >
<linearGradient id="grad200.000000224.000000" x1="0%" y1="0%" x2="100%" y2="0%" >
<stop offset="30%" stop-color="#782D2C" stop-opacity="1" />
<stop offset="100%" stop-color="#A03C3B" stop-opacity="1" />
</linearGradient>
</defs>
<path id="200.000000224.000000" d="M 200,224
v 132
a 10.5,2 0 0,0 21,0
v -132
a 10.5,2 0 0,1 -21,0
" fill="url(#grad200.000000224.000000)" fill-opacity="0.9" stroke="#501E1D" stroke-opacity="0.9" stroke-linejoin="round" stroke-width="0.75" />
<ellipse cx="210.5" cy="224" rx="10.6875" ry="2" stroke-width="0.375" fill-opacity="0.9" stroke-opacity="0.9" stroke="#501E1D" fill="url(#grad200.000000224.000000)" />
<ellipse cx="210.5" cy="356" rx="10.6875" ry="2" stroke-width="0.375" fill-opacity="0.9" stroke-opacity="0.9" stroke="#501E1D" fill="transparent" />
<defs id="" >
<linearGradient id="grad200.000000224.000000NRC" x1="0%" y1="0%" x2="100%" y2="0%" >
<stop offset="30%" stop-color="#3366CC" stop-opacity="1" />
<stop offset="100%" stop-color="#0055ff" stop-opacity="1" />
</linearGradient>
</defs>
<path id="185.000000224.000000" d="M 185,224
v 132
a 3.5,1 0 0,0 7,0
v -132
a 3.5,1 0 0,1 -7,0
" fill="url(#grad200.000000224.000000NRC)" fill-opacity="0.9" stroke="#03A" stroke-opacity="0.9" stroke-linejoin="round" stroke-width="1.4" />
<ellipse cx="188.5" cy="224" rx="3.85" ry="1" stroke-width="0.7" fill-opacity="0.9" stroke-opacity="0.9" stroke="#03A" fill="url(#grad200.000000224.000000NRC)" />
<ellipse cx="188.5" cy="356" rx="3.85" ry="1" stroke-width="0.7" fill-opacity="0.9" stroke-opacity="0.9" stroke="#03A" fill="transparent" />
<defs id="" >
<linearGradient id="grad200.000000224.000000NRCRedun" x1="0%" y1="0%" x2="100%" y2="0%" >
<stop offset="30%" stop-color="#CC3333" stop-opacity="1" />
<stop offset="100%" stop-color="#ff0000" stop-opacity="1" />
</linearGradient>
</defs>
<path id="170.000000224.000000" d="M 170,224
v 132
a 3.5,1 0 0,0 7,0
v -132
a 3.5,1 0 0,1 -7,0
" fill="url(#grad200.000000224.000000NRCRedun)" fill-opacity="0.9" stroke="#C00" stroke-opacity="0.9" stroke-linejoin="round" stroke-width="1.4" />
<ellipse cx="173.5" cy="224" rx="3.85" ry="1" stroke-width="0.7" fill-opacity="0.9" stroke-opacity="0.9" stroke="#C00" fill="url(#grad200.000000224.000000NRCRedun)" />
<ellipse cx="173.5" cy="356" rx="3.85" ry="1" stroke-width="0.7" fill-opacity="0.9" stroke-opacity="0.9" stroke="#C00" fill="transparent" />
<defs id="" >
<linearGradient id="grad283.000000100.000000" x1="0%" y1="0%" x2="100%" y2="0%" >
<stop offset="30%" stop-color="#782D2C" stop-opacity="1" />
<stop offset="100%" stop-color="#A03C3B" stop-opacity="1" />
</linearGradient>
</defs>
<path id="283.000000100.000000" d="M 283,100
v 125.5
a 10.5,2 0 0,0 21,0
v -125.5
a 10.5,2 0 0,1 -21,0
" fill="url(#grad283.000000100.000000)" fill-opacity="0.9" stroke="#501E1D" stroke-opacity="0.9" stroke-linejoin="round" stroke-width="0.75" />
<ellipse cx="293.5" cy="100" rx="10.6875" ry="2" stroke-width="0.375" fill-opacity="0.9" stroke-opacity="0.9" stroke="#501E1D" fill="url(#grad283.000000100.000000)" />
<ellipse cx="293.5" cy="225.5" rx="10.6875" ry="2" stroke-width="0.375" fill-opacity="0.9" stroke-opacity="0.9" stroke="#501E1D" fill="transparent" />
<defs id="" >
<linearGradient id="grad283.000000100.000000NRC" x1="0%" y1="0%" x2="100%" y2="0%" >
<stop offset="30%" stop-color="#3366CC" stop-opacity="1" />
<stop offset="100%" stop-color="#0055ff" stop-opacity="1" />
</linearGradient>
</defs>
<path id="312.000000100.000000" d="M 312,100
v 125.5
a 3.5,1 0 0,0 7,0
v -125.5
a 3.5,1 0 0,1 -7,0
" fill="url(#grad283.000000100.000000NRC)" fill-opacity="0.9" stroke="#03A" stroke-opacity="0.9" stroke-linejoin="round" stroke-width="1.4" />
<ellipse cx="315.5" cy="100" rx="3.85" ry="1" stroke-width="0.7" fill-opacity="0.9" stroke-opacity="0.9" stroke="#03A" fill="url(#grad283.000000100.000000NRC)" />
<ellipse cx="315.5" cy="225.5" rx="3.85" ry="1" stroke-width="0.7" fill-opacity="0.9" stroke-opacity="0.9" stroke="#03A" fill="transparent" />
<defs id="" >
<linearGradient id="grad283.000000100.000000NRCRedun" x1="0%" y1="0%" x2="100%" y2="0%" >
<stop offset="30%" stop-color="#CC3333" stop-opacity="1" />
<stop offset="100%" stop-color="#ff0000" stop-opacity="1" />
</linearGradient>
</defs>
<path id="327.000000100.000000" d="M 327,100
v 125.5
a 3.5,1 0 0,0 7,0
v -125.5
a 3.5,1 0 0,1 -7,0
" fill="url(#grad283.000000100.000000NRCRedun)" fill-opacity="0.9" stroke="#C00" stroke-opacity="0.9" stroke-linejoin="round" stroke-width="1.4" />
<ellipse cx="330.5" cy="100" rx="3.85" ry="1" stroke-width="0.7" fill-opacity="0.9" stroke-opacity="0.9" stroke="#C00" fill="url(#grad283.000000100.000000NRCRedun)" />
<ellipse cx="330.5" cy="225.5" rx="3.85" ry="1" stroke-width="0.7" fill-opacity="0.9" stroke-opacity="0.9" stroke="#C00" fill="transparent" />
<polygon points="221,224 221,356 283,225.5 283,100 " fill="#A03C3B" stroke="#A03C3B" stroke-width="1" stroke-opacity="0.45" fill-opacity="0.45" />
<defs id="" >
<linearGradient id="grad200.000000100.000000" x1="0%" y1="0%" x2="100%" y2="0%" >
<stop offset="30%" stop-color="#2C782D" stop-opacity="1" />
<stop offset="100%" stop-color="#3BA03C" stop-opacity="1" />
</linearGradient>
</defs>
<path id="200.000000100.000000" d="M 200,100
v 120
a 10.5,2 0 0,0 21,0
v -120
a 10.5,2 0 0,1 -21,0
" fill="url(#grad200.000000100.000000)" fill-opacity="0.9" stroke="#1D501E" stroke-opacity="0.9" stroke-linejoin="round" stroke-width="0.75" />
<ellipse cx="210.5" cy="100" rx="10.6875" ry="2" stroke-width="0.375" fill-opacity="0.9" stroke-opacity="0.9" stroke="#1D501E" fill="url(#grad200.000000100.000000)" />
<ellipse cx="210.5" cy="220" rx="10.6875" ry="2" stroke-width="0.375" fill-opacity="0.9" stroke-opacity="0.9" stroke="#1D501E" fill="transparent" />
<defs id="" >
<linearGradient id="grad200.000000100.000000NRC" x1="0%" y1="0%" x2="100%" y2="0%" >
<stop offset="30%" stop-color="#3366CC" stop-opacity="1" />
<stop offset="100%" stop-color="#0055ff" stop-opacity="1" />
</linearGradient>
</defs>
<path id="185.000000100.000000" d="M 185,100
v 120
a 3.5,1 0 0,0 7,0
v -120
a 3.5,1 0 0,1 -7,0
" fill="url(#grad200.000000100.000000NRC)" fill-opacity="0.9" stroke="#03A" stroke-opacity="0.9" stroke-linejoin="round" stroke-width="1.4" />
<ellipse cx="188.5" cy="100" rx="3.85" ry="1" stroke-width="0.7" fill-opacity="0.9" stroke-opacity="0.9" stroke="#03A" fill="url(#grad200.000000100.000000NRC)" />
<ellipse cx="188.5" cy="220" rx="3.85" ry="1" stroke-width="0.7" fill-opacity="0.9" stroke-opacity="0.9" stroke="#03A" fill="transparent" />
<defs id="" >
<linearGradient id="grad200.000000100.000000NRCRedun" x1="0%" y1="0%" x2="100%" y2="0%" >
<stop offset="30%" stop-color="#CC3333" stop-opacity="1" />
<stop offset="100%" stop-color="#ff0000" stop-opacity="1" />
</linearGradient>
</defs>
<path id="170.000000100.000000" d="M 170,100
v 120
a 3.5,1 0 0,0 7,0
v -120
a 3.5,1 0 0,1 -7,0
" fill="url(#grad200.000000100.000000NRCRedun)" fill-opacity="0.9" stroke="#C00" stroke-opacity="0.9" stroke-linejoin="round" stroke-width="1.4" />
<ellipse cx="173.5" cy="100" rx="3.85" ry="1" stroke-width="0.7" fill-opacity="0.9" stroke-opacity="0.9" stroke="#C00" fill="url(#grad200.000000100.000000NRCRedun)" />
<ellipse cx="173.5" cy="220" rx="3.85" ry="1" stroke-width="0.7" fill-opacity="0.9" stroke-opacity="0.9" stroke="#C00" fill="transparent" />
<defs id="" >
<linearGradient id="grad283.000000230.000000" x1="0%" y1="0%" x2="100%" y2="0%" >
<stop offset="30%" stop-color="#2C782D" stop-opacity="1" />
<stop offset="100%" stop-color="#3BA03C" stop-opacity="1" />
</linearGradient>
</defs>
<path id="283.000000230.000000" d="M 283,230
v 245.5
a 10.5,2 0 0,0 21,0
v -245.5
a 10.5,2 0 0,1 -21,0
" fill="url(#grad283.000000230.000000)" fill-opacity="0.9" stroke="#1D501E" stroke-opacity="0.9" stroke-linejoin="round" stroke-width="0.75" />
<ellipse cx="293.5" cy="230" rx="10.6875" ry="2" stroke-width="0.375" fill-opacity="0.9" stroke-opacity="0.9" stroke="#1D501E" fill="url(#grad283.000000230.000000)" />
<ellipse cx="293.5" cy="475.5" rx="10.6875" ry="2" stroke-width="0.375" fill-opacity="0.9" stroke-opacity="0.9" stroke="#1D501E" fill="transparent" />
<path id="283.000000230.000000" d="M 283,230
v 245.5
a 10.5,2 0 0,0 21,0
v -245.5
a 10.5,2 0 0,1 -21,0
" fill="url(#Wavy)" fill-opacity="0.9" stroke="#1D501E" stroke-opacity="0.9" stroke-linejoin="round" stroke-width="0.75" />
<ellipse cx="293.5" cy="230" rx="10.6875" ry="2" stroke-width="0.375" fill-opacity="0.9" stroke-opacity="0.9" stroke="#1D501E" fill="url(#Wavy)" />
<ellipse cx="293.5" cy="475.5" rx="10.6875" ry="2" stroke-width="0.375" fill-opacity="0.9" stroke-opacity="0.9" stroke="#1D501E" fill="transparent" />
<defs id="" >
<linearGradient id="grad283.000000230.000000NRC" x1="0%" y1="0%" x2="100%" y2="0%" >
<stop offset="30%" stop-color="#3366CC" stop-opacity="1" />
<stop offset="100%" stop-color="#0055ff" stop-opacity="1" />
</linearGradient>
</defs>
<path id="312.000000230.000000" d="M 312,230
v 245.5
a 3.5,1 0 0,0 7,0
v -245.5
a 3.5,1 0 0,1 -7,0
" fill="url(#grad283.000000230.000000NRC)" fill-opacity="0.9" stroke="#03A" stroke-opacity="0.9" stroke-linejoin="round" stroke-width="1.4" />
<ellipse cx="315.5" cy="230" rx="3.85" ry="1" stroke-width="0.7" fill-opacity="0.9" stroke-opacity="0.9" stroke="#03A" fill="url(#grad283.000000230.000000NRC)" />
<ellipse cx="315.5" cy="475.5" rx="3.85" ry="1" stroke-width="0.7" fill-opacity="0.9" stroke-opacity="0.9" stroke="#03A" fill="transparent" />
<defs id="" >
<linearGradient id="grad283.000000230.000000NRCRedun" x1="0%" y1="0%" x2="100%" y2="0%" >
<stop offset="30%" stop-color="#CC3333" stop-opacity="1" />
<stop offset="100%" stop-color="#ff0000" stop-opacity="1" />
</linearGradient>
</defs>
<path id="327.000000230.000000" d="M 327,230
v 245.5
a 3.5,1 0 0,0 7,0
v -245.5
a 3.5,1 0 0,1 -7,0
" fill="url(#grad283.000000230.000000NRCRedun)" fill-opacity="0.9" stroke="#C00" stroke-opacity="0.9" stroke-linejoin="round" stroke-width="1.4" />
<ellipse cx="330.5" cy="230" rx="3.85" ry="1" stroke-width="0.7" fill-opacity="0.9" stroke-opacity="0.9" stroke="#C00" fill="url(#grad283.000000230.000000NRCRedun)" />
<ellipse cx="330.5" cy="475.5" rx="3.85" ry="1" stroke-width="0.7" fill-opacity="0.9" stroke-opacity="0.9" stroke="#C00" fill="transparent" />
<polygon points="221,100 221,220 283,230 283,475.5 " fill="#3BA03C" stroke="#3BA03C" stroke-width="1" stroke-opacity="0.45" fill-opacity="0.45" />
<path id="200.000000100.000000" d="M 200,100
v 500
a 10.5,2 0 0,0 21,0
v -500
a 10.5,2 0 0,1 -21,0
" fill="transparent" fill-opacity="0.9" stroke="black" stroke-opacity="1" stroke-linejoin="round" stroke-width="2" />
<ellipse cx="210.5" cy="100" rx="11" ry="2" stroke-width="1" fill-opacity="0.9" stroke-opacity="1" stroke="black" fill="transparent" />
<ellipse cx="210.5" cy="600" rx="11" ry="2" stroke-width="1" fill-opacity="0.9" stroke-opacity="1" stroke="black" fill="transparent" />
<path id="283.000000100.000000" d="M 283,100
v 500
a 10.5,2 0 0,0 21,0
v -500
a 10.5,2 0 0,1 -21,0
" fill="transparent" fill-opacity="0.9" stroke="black" stroke-opacity="1" stroke-linejoin="round" stroke-width="2" />
<ellipse cx="293.5" cy="100" rx="11" ry="2" stroke-width="1" fill-opacity="0.9" stroke-opacity="1" stroke="black" fill="transparent" />
<ellipse cx="293.5" cy="600" rx="11" ry="2" stroke-width="1" fill-opacity="0.9" stroke-opacity="1" stroke="black" fill="transparent" />
<path id="" d="M 210.5,100
v -20
h -10
" fill="transparent" fill-opacity="0.9" stroke="black" stroke-opacity="1" stroke-linejoin="round" stroke-width="0.5" />
<path id="" d="M 293.5,100
v -20
h 10
" fill="transparent" fill-opacity="0.9" stroke="black" stroke-opacity="1" stroke-linejoin="round" stroke-width="0.5" />
<text id="195.50000080.000000" x="195.5" y="80" dominant-baseline="middle" font-size="12px" font-weight="bold" font-family="Arial" text-anchor="end" text-align="start" line-height="125%%" >
refs</text>
<text id="308.50000080.000000" x="308.5" y="80" dominant-baseline="middle" font-size="12px" font-weight="bold" font-family="Arial" text-anchor="start" text-align="start" line-height="125%%" >
tars</text>
<text id="252.00000024.000000" x="252" y="24" dy="-3" dominant-baseline="text-after-edge" font-size="9px" font-family="Arial" text-anchor="middle" text-align="start" line-height="125%%" >
Relative Redundancy</text>
<text id="252.00000036.000000" x="252" y="36" dy="3" dominant-baseline="text-before-edge" font-size="9px" font-family="Arial" text-anchor="middle" text-align="start" line-height="125%%" >
Redundancy</text>
<defs id="" >
<linearGradient id="grad170.00000024.000000" x1="0%" y1="0%" x2="100%" y2="0%" >
<stop offset="0%" stop-color="#0000ff" stop-opacity="1" />
<stop offset="8%" stop-color="#0055ff" stop-opacity="1" />
<stop offset="16%" stop-color="#00aaff" stop-opacity="1" />
<stop offset="25%" stop-color="#00ffff" stop-opacity="1" />
<stop offset="33%" stop-color="#00ffaa" stop-opacity="1" />
<stop offset="41%" stop-color="#00ff55" stop-opacity="1" />
<stop offset="50%" stop-color="#00ff00" stop-opacity="1" />
<stop offset="58%" stop-color="#55ff00" stop-opacity="1" />
<stop offset="66%" stop-color="#aaff00" stop-opacity="1" />
<stop offset="75%" stop-color="#ffff00" stop-opacity="1" />
<stop offset="83%" stop-color="#ffaa00" stop-opacity="1" />
<stop offset="91%" stop-color="#ff5500" stop-opacity="1" />
<stop offset="100%" stop-color="#ff0000" stop-opacity="1" />
</linearGradient>
</defs>
<rect x="170" y="24" width="164" height="12" ry="1" fill="url(#grad170.00000024.000000)" fill-opacity="0.9" stroke="black" stroke-width="0.4" />
<text id="168.00000030.000000" x="168" y="30" dx="-2.5" dominant-baseline="middle" font-size="9px" font-weight="normal" font-family="Arial" text-anchor="end" text-align="start" line-height="125%%" >
0.0</text>
<text id="211.00000030.000000" x="211" y="30" dominant-baseline="middle" font-size="9px" font-weight="normal" font-family="Arial" text-anchor="middle" text-align="start" line-height="125%%" >
0.5</text>
<text id="252.00000030.000000" x="252" y="30" dominant-baseline="middle" font-size="9px" font-weight="normal" font-family="Arial" text-anchor="middle" text-align="start" line-height="125%%" >
1.0</text>
<text id="293.00000030.000000" x="293" y="30" dominant-baseline="middle" font-size="9px" font-weight="normal" font-family="Arial" text-anchor="middle" text-align="start" line-height="125%%" >
1.5</text>
<text id="336.00000030.000000" x="336" y="30" dx="2.5" dominant-baseline="middle" font-size="9px" font-weight="normal" font-family="Arial" text-anchor="start" text-align="start" line-height="125%%" >
2.0</text>
<path id="" d="M 188.5,599.5
v 20
H 202
" fill="transparent" fill-opacity="0.9" stroke="black" stroke-opacity="1" stroke-linejoin="round" stroke-width="0.5" />
<path id="" d="M 315.5,599.5
v 20
H 302
" fill="transparent" fill-opacity="0.9" stroke="black" stroke-opacity="1" stroke-linejoin="round" stroke-width="0.5" />
<text id="252.000000619.500000" x="252" y="619.5" dominant-baseline="middle" font-size="9px" font-family="Arial" text-anchor="middle" text-align="start" line-height="125%%" >
Relative Redundancy</text>
<path id="" d="M 173.5,599.5
v 35
H 220
" fill="transparent" fill-opacity="0.9" stroke="black" stroke-opacity="1" stroke-linejoin="round" stroke-width="0.5" />
<path id="" d="M 330.5,599.5
v 35
H 284
" fill="transparent" fill-opacity="0.9" stroke="black" stroke-opacity="1" stroke-linejoin="round" stroke-width="0.5" />
<text id="252.000000634.500000" x="252" y="634.5" dominant-baseline="middle" font-size="9px" font-family="Arial" text-anchor="middle" text-align="start" line-height="125%%" >
Redundancy</text>
</svg>