<?xml version="1.0" encoding="UTF-8" standalone="no"?>
<!-- Morteza Hosseini, IEETA 2018-2019 -->
	<svg xmlns="http://www.w3.org/2000/svg" width="511" height="650" >	<defs id="ffff" >	<pattern id="Wavy" height="5.18058" width="30" patternUnits="userSpaceOnUse" >	<path d="M 7.597,0.061 C 5.079,-0.187 2.656,0.302 -0.01,1.788 L -0.01,3.061 C 2.773,1.431 5.173,1.052 7.472,1.280 C 9.770,1.508 11.969,2.361 14.253,3.218 C 18.820,4.931 23.804,6.676 30.066,3.061 L 30.062,1.788 C 23.622,5.497 19.246,3.770 14.691,2.061 C 12.413,1.207 10.115,0.311 7.597,0.061 z" fill="black" stroke="none" />
</pattern>
</defs>
	<defs id="ffff" >	<pattern id="WavyWhite" height="5.18058" width="30" patternUnits="userSpaceOnUse" >	<path d="M 7.597,0.061 C 5.079,-0.187 2.656,0.302 -0.01,1.788 L -0.01,3.061 C 2.773,1.431 5.173,1.052 7.472,1.280 C 9.770,1.508 11.969,2.361 14.253,3.218 C 18.820,4.931 23.804,6.676 30.066,3.061 L 30.062,1.788 C 23.622,5.497 19.246,3.770 14.691,2.061 C 12.413,1.207 10.115,0.311 7.597,0.061 z" fill="white" stroke="none" />
</pattern>
</defs>
	<rect fill="white" stroke="white" fill-opacity="0.75" width="511.00" height="650.00" x="0.00" y="0.00" ry="3" />
	<text id="211.50000085.000000" x="211.50" y="85.00" dominant-baseline="middle" transform="" font-size="12px" font-weight="normal" font-family="Arial" fill="black" text-align="start" line-height="125%%" text-anchor="middle" >refs</text>
	<text id="299.50000085.000000" x="299.50" y="85.00" dominant-baseline="middle" transform="" font-size="12px" font-weight="normal" font-family="Arial" fill="black" text-align="start" line-height="125%%" text-anchor="middle" >tars</text>
	<text id="169.666667349.000000" x="169.67" y="349.00" dominant-baseline="text-before-edge" transform="" font-size="9px" font-weight="normal" font-family="Arial" fill="black" text-align="start" line-height="125%%" text-anchor="end" ><tspan id="112" style="fill:#A03C3B">498</tspan>
</text>
	<text id="169.666667473.000000" x="169.67" y="473.00" dominant-baseline="middle" transform="" font-size="9px" font-weight="normal" font-family="Arial" fill="black" text-align="start" line-height="125%%" text-anchor="end" ><tspan id="0" style="fill:#A03C3B">744, </tspan>
<tspan id="112" style="fill:#A03C3B">748</tspan>
</text>
	<text id="169.666667588.500000" x="169.67" y="588.50" dominant-baseline="text-after-edge" transform="" font-size="9px" font-weight="normal" font-family="Arial" fill="black" text-align="start" line-height="125%%" text-anchor="end" ><tspan id="0" style="fill:#A03C3B">977</tspan>
</text>
	<text id="341.333333100.000000" x="341.33" y="100.00" dominant-baseline="text-before-edge" transform="" font-size="9px" font-weight="normal" font-family="Arial" fill="black" text-align="start" line-height="125%%" text-anchor="start" ><tspan id="0" style="fill:#A03C3B">0</tspan>
</text>
	<text id="341.333333213.500000" x="341.33" y="213.50" dominant-baseline="text-after-edge" transform="" font-size="9px" font-weight="normal" font-family="Arial" fill="black" text-align="start" line-height="125%%" text-anchor="start" ><tspan id="0" style="fill:#A03C3B">227</tspan>
</text>
	<text id="341.333333469.000000" x="341.33" y="469.00" dominant-baseline="text-before-edge" transform="" font-size="9px" font-weight="normal" font-family="Arial" fill="black" text-align="start" line-height="125%%" text-anchor="start" ><tspan id="112" style="fill:#A03C3B">738</tspan>
</text>
	<text id="341.333333599.500000" x="341.33" y="599.50" dominant-baseline="text-after-edge" transform="" font-size="9px" font-weight="normal" font-family="Arial" fill="black" text-align="start" line-height="125%%" text-anchor="start" ><tspan id="112" style="fill:#A03C3B">999</tspan>
</text>
	<rect fill="#A03C3B" stroke="#A03C3B" fill-opacity="0.75" width="23.00" height="116.50" x="200.00" y="472.00" ry="3" />
	<rect id="rect3777" fill="#55ff00" stroke="#55ff00" fill-opacity="0.75" width="7.67" height="116.50" x="187.33" y="472.00" ry="2" />
	<rect fill="#ff0000" stroke="#ff0000" fill-opacity="0.75" width="7.67" height="116.50" x="174.67" y="472.00" ry="2" />
	<rect fill="#A03C3B" stroke="#A03C3B" fill-opacity="0.75" width="23.00" height="113.50" x="288.00" y="100.00" ry="3" />
	<rect id="rect3777" fill="#ffff00" stroke="#ffff00" fill-opacity="0.75" width="7.67" height="113.50" x="316.00" y="100.00" ry="2" />
	<rect fill="#ff0000" stroke="#ff0000" fill-opacity="0.75" width="7.67" height="113.50" x="328.67" y="100.00" ry="2" />
	<polygon points="223.00,472.00 223.00,588.50 288.00,213.50 288.00,100.00" fill="#A03C3B" stroke="#A03C3B" stroke-width="1" stroke-opacity="0.4" fill-opacity="0.4" />
	<rect fill="#A03C3B" stroke="#A03C3B" fill-opacity="0.75" width="23.00" height="125.00" x="200.00" y="349.00" ry="3" />
	<rect id="rect3777" fill="#aaff00" stroke="#aaff00" fill-opacity="0.75" width="7.67" height="125.00" x="187.33" y="349.00" ry="2" />
	<rect fill="#ff0000" stroke="#ff0000" fill-opacity="0.75" width="7.67" height="125.00" x="174.67" y="349.00" ry="2" />
	<rect fill="#A03C3B" stroke="#A03C3B" fill-opacity="0.75" width="23.00" height="130.50" x="288.00" y="469.00" ry="3" />
	<rect fill-opacity="0.75" stroke-width="2" fill="url(#Wavy)" width="23.00" height="130.50" x="288.00" y="469.00" ry="3" />
	<rect id="rect3777" fill="#ffff00" stroke="#ffff00" fill-opacity="0.75" width="7.67" height="130.50" x="316.00" y="469.00" ry="2" />
	<rect fill="#ff0000" stroke="#ff0000" fill-opacity="0.75" width="7.67" height="130.50" x="328.67" y="469.00" ry="2" />
	<polygon points="223.00,349.00 223.00,474.00 288.00,469.00 288.00,599.50" fill="#A03C3B" stroke="#A03C3B" stroke-width="1" stroke-opacity="0.4" fill-opacity="0.4" />
	<rect fill="none" stroke="#000000" stroke-width="2" stroke-linecap="butt" stroke-linejoin="miter" stroke-miterlimit="4" width="23.00" height="500.00" x="200.00" y="100.00" ry="3" />
	<rect fill="none" stroke="#000000" stroke-width="2" stroke-linecap="butt" stroke-linejoin="miter" stroke-miterlimit="4" width="23.00" height="500.00" x="288.00" y="100.00" ry="3" />
	<text id="255.50000024.000000" x="255.50" y="24.00" dominant-baseline="text-after-edge" transform="" font-size="9px" font-weight="normal" font-family="Arial" fill="black" text-align="start" line-height="125%%" text-anchor="middle" >RELATIVE REDUNDANCY</text>
	<text id="255.50000036.000000" x="255.50" y="36.00" dominant-baseline="text-before-edge" transform="" font-size="9px" font-weight="normal" font-family="Arial" fill="black" text-align="start" line-height="125%%" text-anchor="middle" >REDUNDANCY</text>
	<defs >	<linearGradient id="grad187.33333324.000000" x1="0%" y1="0%" x2="100%" y2="0%" >	<stop offset="0%" stop-color="#0000ff" stop-opacity="1" />
	<stop offset="8%" stop-color="#0055ff" stop-opacity="1" />
	<stop offset="16%" stop-color="#00aaff" stop-opacity="1" />
	<stop offset="25%" stop-color="#00ffff" stop-opacity="1" />
	<stop offset="33%" stop-color="#00ffaa" stop-opacity="1" />
	<stop offset="41%" stop-color="#00ff55" stop-opacity="1" />
	<stop offset="50%" stop-color="#00ff00" stop-opacity="1" />
	<stop offset="58%" stop-color="#55ff00" stop-opacity="1" />
	<stop offset="66%" stop-color="#aaff00" stop-opacity="1" />
	<stop offset="75%" stop-color="#ffff00" stop-opacity="1" />
	<stop offset="83%" stop-color="#ffaa00" stop-opacity="1" />
	<stop offset="91%" stop-color="#ff5500" stop-opacity="1" />
	<stop offset="100%" stop-color="#ff0000" stop-opacity="1" />
</linearGradient>
</defs>
	<rect fill="url(#grad187.33333324.000000)" width="136.33" height="12.00" x="187.33" y="24.00" ry="3" />
	<text id="185.33333330.000000" x="185.33" y="30.00" dominant-baseline="middle" transform="" font-size="9px" font-weight="normal" font-family="Arial" fill="black" text-align="start" line-height="125%%" text-anchor="end" >0.0</text>
	<text id="221.41666730.000000" x="221.42" y="30.00" dominant-baseline="middle" transform="" font-size="9px" font-weight="normal" font-family="Arial" fill="black" text-align="start" line-height="125%%" text-anchor="middle" >0.5</text>
	<text id="255.50000030.000000" x="255.50" y="30.00" dominant-baseline="middle" transform="" font-size="9px" font-weight="normal" font-family="Arial" fill="black" text-align="start" line-height="125%%" text-anchor="middle" >1.0</text>
	<text id="289.58333330.000000" x="289.58" y="30.00" dominant-baseline="middle" transform="" font-size="9px" font-weight="normal" font-family="Arial" fill="black" text-align="start" line-height="125%%" text-anchor="middle" >1.5</text>
	<text id="325.66666730.000000" x="325.67" y="30.00" dominant-baseline="middle" transform="" font-size="9px" font-weight="normal" font-family="Arial" fill="black" text-align="start" line-height="125%%" text-anchor="start" >2.0</text>
	<path d="M 191.166667,588.500000 v 31.500000 h 13.000000" fill="none" stroke="black" stroke-linejoin="round" stroke-dasharray="8 3" stroke-width="1.00" />
	<path d="M 319.833333,599.500000 v 20.500000 h -13.000000" fill="none" stroke="black" stroke-linejoin="round" stroke-dasharray="8 3" stroke-width="1.00" />
	<text id="255.500000620.000000" x="255.50" y="620.00" dominant-baseline="middle" transform="" font-size="9px" font-weight="normal" font-family="Arial" fill="black" text-align="start" line-height="125%%" text-anchor="middle" >Relative Redundancy</text>
	<path d="M 178.500000,588.500000 v 46.500000 h 40.666667" fill="none" stroke="black" stroke-linejoin="round" stroke-dasharray="8 3" stroke-width="1.00" />
	<path d="M 332.500000,599.500000 v 35.500000 h -40.666667" fill="none" stroke="black" stroke-linejoin="round" stroke-dasharray="8 3" stroke-width="1.00" />
	<text id="255.500000635.000000" x="255.50" y="635.00" dominant-baseline="middle" transform="" font-size="9px" font-weight="normal" font-family="Arial" fill="black" text-align="start" line-height="125%%" text-anchor="middle" >Redundancy</text>
</svg>