<?xml version="1.0" encoding="UTF-8" standalone="no"?>
<!-- Morteza Hosseini, IEETA 2018-2019 -->
<svg xmlns="http://www.w3.org/2000/svg" xmlns:xlink="http://www.w3.org/1999/xlink" viewBox="0 0 294.000000 605.000000" >
<rect x="0" y="0" width="294" height="605" rx="1" ry="1" fill="white" fill-opacity="0.9" stroke="white" stroke-width="6.26823e-39" />
<line id="46.33332830.00000046.333328530.640015" x1="46.3333" y1="30" x2="46.3333" y2="530.64" stroke-width="1.28" stroke="black" />
<text id="41.33332836.299999" x="41.3333" y="36.3" dominant-baseline="" baseline-shift="" alignment-baseline="" font-size="10px" font-weight="bold" font-family="Arial" font-variant="normal" text-anchor="end" text-align="start" line-height="125%%" >
bp</text>
<line id="46.33332830.63999956.33332830.639999" x1="46.3333" y1="30.64" x2="56.3333" y2="30.64" stroke-width="1.28" stroke="black" />
<line id="46.33332842.50000052.33332842.500000" x1="46.3333" y1="42.5" x2="52.3333" y2="42.5" stroke-width="0.8" stroke="black" />
<line id="46.33332855.00000052.33332855.000000" x1="46.3333" y1="55" x2="52.3333" y2="55" stroke-width="0.8" stroke="black" />
<line id="46.33332867.50000052.33332867.500000" x1="46.3333" y1="67.5" x2="52.3333" y2="67.5" stroke-width="0.8" stroke="black" />
<line id="46.33332880.00000056.33332880.000000" x1="46.3333" y1="80" x2="56.3333" y2="80" stroke-width="1.28" stroke="black" />
<text id="41.33332883.150002" x="41.3333" y="83.15" dominant-baseline="" baseline-shift="" alignment-baseline="" font-size="9px" font-weight="normal" font-family="Arial" font-variant="normal" text-anchor="end" text-align="start" line-height="125%%" >
10 K</text>
<line id="46.33332892.50000052.33332892.500000" x1="46.3333" y1="92.5" x2="52.3333" y2="92.5" stroke-width="0.8" stroke="black" />
<line id="46.333328105.00000052.333328105.000000" x1="46.3333" y1="105" x2="52.3333" y2="105" stroke-width="0.8" stroke="black" />
<line id="46.333328117.50000052.333328117.500000" x1="46.3333" y1="117.5" x2="52.3333" y2="117.5" stroke-width="0.8" stroke="black" />
<line id="46.333328130.00000056.333328130.000000" x1="46.3333" y1="130" x2="56.3333" y2="130" stroke-width="1.28" stroke="black" />
<text id="41.333328133.149994" x="41.3333" y="133.15" dominant-baseline="" baseline-shift="" alignment-baseline="" font-size="9px" font-weight="normal" font-family="Arial" font-variant="normal" text-anchor="end" text-align="start" line-height="125%%" >
20 K</text>
<line id="46.333328142.50000052.333328142.500000" x1="46.3333" y1="142.5" x2="52.3333" y2="142.5" stroke-width="0.8" stroke="black" />
<line id="46.333328155.00000052.333328155.000000" x1="46.3333" y1="155" x2="52.3333" y2="155" stroke-width="0.8" stroke="black" />
<line id="46.333328167.50000052.333328167.500000" x1="46.3333" y1="167.5" x2="52.3333" y2="167.5" stroke-width="0.8" stroke="black" />
<line id="46.333328180.00000056.333328180.000000" x1="46.3333" y1="180" x2="56.3333" y2="180" stroke-width="1.28" stroke="black" />
<text id="41.333328183.149994" x="41.3333" y="183.15" dominant-baseline="" baseline-shift="" alignment-baseline="" font-size="9px" font-weight="normal" font-family="Arial" font-variant="normal" text-anchor="end" text-align="start" line-height="125%%" >
30 K</text>
<line id="46.333328192.50000052.333328192.500000" x1="46.3333" y1="192.5" x2="52.3333" y2="192.5" stroke-width="0.8" stroke="black" />
<line id="46.333328205.00000052.333328205.000000" x1="46.3333" y1="205" x2="52.3333" y2="205" stroke-width="0.8" stroke="black" />
<line id="46.333328217.50000052.333328217.500000" x1="46.3333" y1="217.5" x2="52.3333" y2="217.5" stroke-width="0.8" stroke="black" />
<line id="46.333328230.00000056.333328230.000000" x1="46.3333" y1="230" x2="56.3333" y2="230" stroke-width="1.28" stroke="black" />
<text id="41.333328233.149994" x="41.3333" y="233.15" dominant-baseline="" baseline-shift="" alignment-baseline="" font-size="9px" font-weight="normal" font-family="Arial" font-variant="normal" text-anchor="end" text-align="start" line-height="125%%" >
40 K</text>
<line id="46.333328242.50000052.333328242.500000" x1="46.3333" y1="242.5" x2="52.3333" y2="242.5" stroke-width="0.8" stroke="black" />
<line id="46.333328255.00000052.333328255.000000" x1="46.3333" y1="255" x2="52.3333" y2="255" stroke-width="0.8" stroke="black" />
<line id="46.333328267.50000052.333328267.500000" x1="46.3333" y1="267.5" x2="52.3333" y2="267.5" stroke-width="0.8" stroke="black" />
<line id="46.333328280.00000056.333328280.000000" x1="46.3333" y1="280" x2="56.3333" y2="280" stroke-width="1.28" stroke="black" />
<text id="41.333328283.149994" x="41.3333" y="283.15" dominant-baseline="" baseline-shift="" alignment-baseline="" font-size="9px" font-weight="normal" font-family="Arial" font-variant="normal" text-anchor="end" text-align="start" line-height="125%%" >
50 K</text>
<line id="46.333328292.50000052.333328292.500000" x1="46.3333" y1="292.5" x2="52.3333" y2="292.5" stroke-width="0.8" stroke="black" />
<line id="46.333328305.00000052.333328305.000000" x1="46.3333" y1="305" x2="52.3333" y2="305" stroke-width="0.8" stroke="black" />
<line id="46.333328317.50000052.333328317.500000" x1="46.3333" y1="317.5" x2="52.3333" y2="317.5" stroke-width="0.8" stroke="black" />
<line id="46.333328330.00000056.333328330.000000" x1="46.3333" y1="330" x2="56.3333" y2="330" stroke-width="1.28" stroke="black" />
<text id="41.333328333.149994" x="41.3333" y="333.15" dominant-baseline="" baseline-shift="" alignment-baseline="" font-size="9px" font-weight="normal" font-family="Arial" font-variant="normal" text-anchor="end" text-align="start" line-height="125%%" >
60 K</text>
<line id="46.333328342.50000052.333328342.500000" x1="46.3333" y1="342.5" x2="52.3333" y2="342.5" stroke-width="0.8" stroke="black" />
<line id="46.333328355.00000052.333328355.000000" x1="46.3333" y1="355" x2="52.3333" y2="355" stroke-width="0.8" stroke="black" />
<line id="46.333328367.50000052.333328367.500000" x1="46.3333" y1="367.5" x2="52.3333" y2="367.5" stroke-width="0.8" stroke="black" />
<line id="46.333328380.00000056.333328380.000000" x1="46.3333" y1="380" x2="56.3333" y2="380" stroke-width="1.28" stroke="black" />
<text id="41.333328383.149994" x="41.3333" y="383.15" dominant-baseline="" baseline-shift="" alignment-baseline="" font-size="9px" font-weight="normal" font-family="Arial" font-variant="normal" text-anchor="end" text-align="start" line-height="125%%" >
70 K</text>
<line id="46.333328392.50000052.333328392.500000" x1="46.3333" y1="392.5" x2="52.3333" y2="392.5" stroke-width="0.8" stroke="black" />
<line id="46.333328405.00000052.333328405.000000" x1="46.3333" y1="405" x2="52.3333" y2="405" stroke-width="0.8" stroke="black" />
<line id="46.333328417.50000052.333328417.500000" x1="46.3333" y1="417.5" x2="52.3333" y2="417.5" stroke-width="0.8" stroke="black" />
<line id="46.333328430.00000056.333328430.000000" x1="46.3333" y1="430" x2="56.3333" y2="430" stroke-width="1.28" stroke="black" />
<text id="41.333328433.149994" x="41.3333" y="433.15" dominant-baseline="" baseline-shift="" alignment-baseline="" font-size="9px" font-weight="normal" font-family="Arial" font-variant="normal" text-anchor="end" text-align="start" line-height="125%%" >
80 K</text>
<line id="46.333328442.50000052.333328442.500000" x1="46.3333" y1="442.5" x2="52.3333" y2="442.5" stroke-width="0.8" stroke="black" />
<line id="46.333328455.00000052.333328455.000000" x1="46.3333" y1="455" x2="52.3333" y2="455" stroke-width="0.8" stroke="black" />
<line id="46.333328467.50000052.333328467.500000" x1="46.3333" y1="467.5" x2="52.3333" y2="467.5" stroke-width="0.8" stroke="black" />
<line id="46.333328480.00000056.333328480.000000" x1="46.3333" y1="480" x2="56.3333" y2="480" stroke-width="1.28" stroke="black" />
<text id="41.333328483.149994" x="41.3333" y="483.15" dominant-baseline="" baseline-shift="" alignment-baseline="" font-size="9px" font-weight="normal" font-family="Arial" font-variant="normal" text-anchor="end" text-align="start" line-height="125%%" >
90 K</text>
<line id="46.333328492.50000052.333328492.500000" x1="46.3333" y1="492.5" x2="52.3333" y2="492.5" stroke-width="0.8" stroke="black" />
<line id="46.333328505.00000052.333328505.000000" x1="46.3333" y1="505" x2="52.3333" y2="505" stroke-width="0.8" stroke="black" />
<line id="46.333328517.50000052.333328517.500000" x1="46.3333" y1="517.5" x2="52.3333" y2="517.5" stroke-width="0.8" stroke="black" />
<line id="46.333328530.00000056.333328530.000000" x1="46.3333" y1="530" x2="56.3333" y2="530" stroke-width="1.28" stroke="black" />
<text id="41.333328533.150024" x="41.3333" y="533.15" dominant-baseline="" baseline-shift="" alignment-baseline="" font-size="9px" font-weight="normal" font-family="Arial" font-variant="normal" text-anchor="end" text-align="start" line-height="125%%" >
100 K</text>
<line id="247.66667230.000000247.666672530.640015" x1="247.667" y1="30" x2="247.667" y2="530.64" stroke-width="1.28" stroke="black" />
<text id="252.66667236.299999" x="252.667" y="36.3" dominant-baseline="" baseline-shift="" alignment-baseline="" font-size="10px" font-weight="bold" font-family="Arial" font-variant="normal" text-anchor="start" text-align="start" line-height="125%%" >
bp</text>
<line id="247.66667230.639999237.66667230.639999" x1="247.667" y1="30.64" x2="237.667" y2="30.64" stroke-width="1.28" stroke="black" />
<line id="247.66667242.500000241.66667242.500000" x1="247.667" y1="42.5" x2="241.667" y2="42.5" stroke-width="0.8" stroke="black" />
<line id="247.66667255.000000241.66667255.000000" x1="247.667" y1="55" x2="241.667" y2="55" stroke-width="0.8" stroke="black" />
<line id="247.66667267.500000241.66667267.500000" x1="247.667" y1="67.5" x2="241.667" y2="67.5" stroke-width="0.8" stroke="black" />
<line id="247.66667280.000000237.66667280.000000" x1="247.667" y1="80" x2="237.667" y2="80" stroke-width="1.28" stroke="black" />
<text id="252.66667283.150002" x="252.667" y="83.15" dominant-baseline="" baseline-shift="" alignment-baseline="" font-size="9px" font-weight="normal" font-family="Arial" font-variant="normal" text-anchor="start" text-align="start" line-height="125%%" >
10 K</text>
<line id="247.66667292.500000241.66667292.500000" x1="247.667" y1="92.5" x2="241.667" y2="92.5" stroke-width="0.8" stroke="black" />
<line id="247.666672105.000000241.666672105.000000" x1="247.667" y1="105" x2="241.667" y2="105" stroke-width="0.8" stroke="black" />
<line id="247.666672117.500000241.666672117.500000" x1="247.667" y1="117.5" x2="241.667" y2="117.5" stroke-width="0.8" stroke="black" />
<line id="247.666672130.000000237.666672130.000000" x1="247.667" y1="130" x2="237.667" y2="130" stroke-width="1.28" stroke="black" />
<text id="252.666672133.149994" x="252.667" y="133.15" dominant-baseline="" baseline-shift="" alignment-baseline="" font-size="9px" font-weight="normal" font-family="Arial" font-variant="normal" text-anchor="start" text-align="start" line-height="125%%" >
20 K</text>
<line id="247.666672142.500000241.666672142.500000" x1="247.667" y1="142.5" x2="241.667" y2="142.5" stroke-width="0.8" stroke="black" />
<line id="247.666672155.000000241.666672155.000000" x1="247.667" y1="155" x2="241.667" y2="155" stroke-width="0.8" stroke="black" />
<line id="247.666672167.500000241.666672167.500000" x1="247.667" y1="167.5" x2="241.667" y2="167.5" stroke-width="0.8" stroke="black" />
<line id="247.666672180.000000237.666672180.000000" x1="247.667" y1="180" x2="237.667" y2="180" stroke-width="1.28" stroke="black" />
<text id="252.666672183.149994" x="252.667" y="183.15" dominant-baseline="" baseline-shift="" alignment-baseline="" font-size="9px" font-weight="normal" font-family="Arial" font-variant="normal" text-anchor="start" text-align="start" line-height="125%%" >
30 K</text>
<line id="247.666672192.500000241.666672192.500000" x1="247.667" y1="192.5" x2="241.667" y2="192.5" stroke-width="0.8" stroke="black" />
<line id="247.666672205.000000241.666672205.000000" x1="247.667" y1="205" x2="241.667" y2="205" stroke-width="0.8" stroke="black" />
<line id="247.666672217.500000241.666672217.500000" x1="247.667" y1="217.5" x2="241.667" y2="217.5" stroke-width="0.8" stroke="black" />
<line id="247.666672230.000000237.666672230.000000" x1="247.667" y1="230" x2="237.667" y2="230" stroke-width="1.28" stroke="black" />
<text id="252.666672233.149994" x="252.667" y="233.15" dominant-baseline="" baseline-shift="" alignment-baseline="" font-size="9px" font-weight="normal" font-family="Arial" font-variant="normal" text-anchor="start" text-align="start" line-height="125%%" >
40 K</text>
<line id="247.666672242.500000241.666672242.500000" x1="247.667" y1="242.5" x2="241.667" y2="242.5" stroke-width="0.8" stroke="black" />
<line id="247.666672255.000000241.666672255.000000" x1="247.667" y1="255" x2="241.667" y2="255" stroke-width="0.8" stroke="black" />
<line id="247.666672267.500000241.666672267.500000" x1="247.667" y1="267.5" x2="241.667" y2="267.5" stroke-width="0.8" stroke="black" />
<line id="247.666672280.000000237.666672280.000000" x1="247.667" y1="280" x2="237.667" y2="280" stroke-width="1.28" stroke="black" />
<text id="252.666672283.149994" x="252.667" y="283.15" dominant-baseline="" baseline-shift="" alignment-baseline="" font-size="9px" font-weight="normal" font-family="Arial" font-variant="normal" text-anchor="start" text-align="start" line-height="125%%" >
50 K</text>
<line id="247.666672292.500000241.666672292.500000" x1="247.667" y1="292.5" x2="241.667" y2="292.5" stroke-width="0.8" stroke="black" />
<line id="247.666672305.000000241.666672305.000000" x1="247.667" y1="305" x2="241.667" y2="305" stroke-width="0.8" stroke="black" />
<line id="247.666672317.500000241.666672317.500000" x1="247.667" y1="317.5" x2="241.667" y2="317.5" stroke-width="0.8" stroke="black" />
<line id="247.666672330.000000237.666672330.000000" x1="247.667" y1="330" x2="237.667" y2="330" stroke-width="1.28" stroke="black" />
<text id="252.666672333.149994" x="252.667" y="333.15" dominant-baseline="" baseline-shift="" alignment-baseline="" font-size="9px" font-weight="normal" font-family="Arial" font-variant="normal" text-anchor="start" text-align="start" line-height="125%%" >
60 K</text>
<line id="247.666672342.500000241.666672342.500000" x1="247.667" y1="342.5" x2="241.667" y2="342.5" stroke-width="0.8" stroke="black" />
<line id="247.666672355.000000241.666672355.000000" x1="247.667" y1="355" x2="241.667" y2="355" stroke-width="0.8" stroke="black" />
<line id="247.666672367.500000241.666672367.500000" x1="247.667" y1="367.5" x2="241.667" y2="367.5" stroke-width="0.8" stroke="black" />
<line id="247.666672380.000000237.666672380.000000" x1="247.667" y1="380" x2="237.667" y2="380" stroke-width="1.28" stroke="black" />
<text id="252.666672383.149994" x="252.667" y="383.15" dominant-baseline="" baseline-shift="" alignment-baseline="" font-size="9px" font-weight="normal" font-family="Arial" font-variant="normal" text-anchor="start" text-align="start" line-height="125%%" >
70 K</text>
<line id="247.666672392.500000241.666672392.500000" x1="247.667" y1="392.5" x2="241.667" y2="392.5" stroke-width="0.8" stroke="black" />
<line id="247.666672405.000000241.666672405.000000" x1="247.667" y1="405" x2="241.667" y2="405" stroke-width="0.8" stroke="black" />
<line id="247.666672417.500000241.666672417.500000" x1="247.667" y1="417.5" x2="241.667" y2="417.5" stroke-width="0.8" stroke="black" />
<line id="247.666672430.000000237.666672430.000000" x1="247.667" y1="430" x2="237.667" y2="430" stroke-width="1.28" stroke="black" />
<text id="252.666672433.149994" x="252.667" y="433.15" dominant-baseline="" baseline-shift="" alignment-baseline="" font-size="9px" font-weight="normal" font-family="Arial" font-variant="normal" text-anchor="start" text-align="start" line-height="125%%" >
80 K</text>
<line id="247.666672442.500000241.666672442.500000" x1="247.667" y1="442.5" x2="241.667" y2="442.5" stroke-width="0.8" stroke="black" />
<line id="247.666672455.000000241.666672455.000000" x1="247.667" y1="455" x2="241.667" y2="455" stroke-width="0.8" stroke="black" />
<line id="247.666672467.500000241.666672467.500000" x1="247.667" y1="467.5" x2="241.667" y2="467.5" stroke-width="0.8" stroke="black" />
<line id="247.666672480.000000237.666672480.000000" x1="247.667" y1="480" x2="237.667" y2="480" stroke-width="1.28" stroke="black" />
<text id="252.666672483.149994" x="252.667" y="483.15" dominant-baseline="" baseline-shift="" alignment-baseline="" font-size="9px" font-weight="normal" font-family="Arial" font-variant="normal" text-anchor="start" text-align="start" line-height="125%%" >
90 K</text>
<line id="247.666672492.500000241.666672492.500000" x1="247.667" y1="492.5" x2="241.667" y2="492.5" stroke-width="0.8" stroke="black" />
<line id="247.666672505.000000241.666672505.000000" x1="247.667" y1="505" x2="241.667" y2="505" stroke-width="0.8" stroke="black" />
<line id="247.666672517.500000241.666672517.500000" x1="247.667" y1="517.5" x2="241.667" y2="517.5" stroke-width="0.8" stroke="black" />
<line id="247.666672530.000000237.666672530.000000" x1="247.667" y1="530" x2="237.667" y2="530" stroke-width="1.28" stroke="black" />
<text id="252.666672533.150024" x="252.667" y="533.15" dominant-baseline="" baseline-shift="" alignment-baseline="" font-size="9px" font-weight="normal" font-family="Arial" font-variant="normal" text-anchor="start" text-align="start" line-height="125%%" >
100 K</text>
<defs id="" >
<linearGradient id="grad100.000000280.204987" x1="0%" y1="0%" x2="100%" y2="0%" >
<stop offset="30%" stop-color="#782D2C" stop-opacity="1" />
<stop offset="100%" stop-color="#A03C3B" stop-opacity="1" />
</linearGradient>
</defs>
<path id="100.000000280.204987" d="M 100,280.205
v 249.79
a 8,2 0 0,0 16,0
v -249.79
a 8,2 0 0,0 -16,0
z
" fill="url(#grad100.000000280.204987)" fill-opacity="0.9" stroke="#501E1D" stroke-opacity="0.9" stroke-linejoin="round" stroke-width="0.75" />
<ellipse cx="108" cy="280.205" rx="8.18" ry="2" stroke-width="0.3" fill-opacity="0.9" stroke-opacity="0.9" stroke="#501E1D" fill="url(#grad100.000000280.204987)" />
<ellipse cx="108" cy="529.995" rx="8.18" ry="2" stroke-width="0.3" fill-opacity="0.9" stroke-opacity="0.9" stroke="#501E1D" fill="url(#grad100.000000280.204987)" />
<defs id="" >
<linearGradient id="grad100.000000280.204987NRC" x1="0%" y1="0%" x2="100%" y2="0%" >
<stop offset="30%" stop-color="#3333CC" stop-opacity="1" />
<stop offset="100%" stop-color="#0000ff" stop-opacity="1" />
</linearGradient>
</defs>
<path id="80.666664280.204987" d="M 80.6667,280.205
v 249.79
a 2.66667,1 0 0,0 5.33333,0
v -249.79
a 2.66667,1 0 0,0 -5.33333,0
z
" fill="url(#grad100.000000280.204987NRC)" fill-opacity="0.9" stroke="#00A" stroke-opacity="0.9" stroke-linejoin="round" stroke-width="1.4" />
<ellipse cx="83.3333" cy="280.205" rx="3.00267" ry="1" stroke-width="0.56" fill-opacity="0.9" stroke-opacity="0.9" stroke="#00A" fill="url(#grad100.000000280.204987NRC)" />
<ellipse cx="83.3333" cy="529.995" rx="3.00267" ry="1" stroke-width="0.56" fill-opacity="0.9" stroke-opacity="0.9" stroke="#00A" fill="url(#grad100.000000280.204987NRC)" />
<defs id="" >
<linearGradient id="grad100.000000280.204987NRCRedun" x1="0%" y1="0%" x2="100%" y2="0%" >
<stop offset="30%" stop-color="#CC3333" stop-opacity="1" />
<stop offset="100%" stop-color="#ff0000" stop-opacity="1" />
</linearGradient>
</defs>
<path id="69.333328280.204987" d="M 69.3333,280.205
v 249.79
a 2.66667,1 0 0,0 5.33333,0
v -249.79
a 2.66667,1 0 0,0 -5.33333,0
z
" fill="url(#grad100.000000280.204987NRCRedun)" fill-opacity="0.9" stroke="#C00" stroke-opacity="0.9" stroke-linejoin="round" stroke-width="1.4" />
<ellipse cx="72" cy="280.205" rx="3.00267" ry="1" stroke-width="0.56" fill-opacity="0.9" stroke-opacity="0.9" stroke="#C00" fill="url(#grad100.000000280.204987NRCRedun)" />
<ellipse cx="72" cy="529.995" rx="3.00267" ry="1" stroke-width="0.56" fill-opacity="0.9" stroke-opacity="0.9" stroke="#C00" fill="url(#grad100.000000280.204987NRCRedun)" />
<defs id="" >
<linearGradient id="grad178.000000155.134995" x1="0%" y1="0%" x2="100%" y2="0%" >
<stop offset="30%" stop-color="#782D2C" stop-opacity="1" />
<stop offset="100%" stop-color="#A03C3B" stop-opacity="1" />
</linearGradient>
</defs>
<path id="178.000000155.134995" d="M 178,155.135
v 249.845
a 8,2 0 0,0 16,0
v -249.845
a 8,2 0 0,0 -16,0
z
" fill="url(#grad178.000000155.134995)" fill-opacity="0.9" stroke="#501E1D" stroke-opacity="0.9" stroke-linejoin="round" stroke-width="0.75" />
<ellipse cx="186" cy="155.135" rx="8.18" ry="2" stroke-width="0.3" fill-opacity="0.9" stroke-opacity="0.9" stroke="#501E1D" fill="url(#grad178.000000155.134995)" />
<ellipse cx="186" cy="404.98" rx="8.18" ry="2" stroke-width="0.3" fill-opacity="0.9" stroke-opacity="0.9" stroke="#501E1D" fill="url(#grad178.000000155.134995)" />
<defs id="" >
<linearGradient id="grad178.000000155.134995NRC" x1="0%" y1="0%" x2="100%" y2="0%" >
<stop offset="30%" stop-color="#3333CC" stop-opacity="1" />
<stop offset="100%" stop-color="#0000ff" stop-opacity="1" />
</linearGradient>
</defs>
<path id="208.000000155.134995" d="M 208,155.135
v 249.845
a 2.66667,1 0 0,0 5.33333,0
v -249.845
a 2.66667,1 0 0,0 -5.33333,0
z
" fill="url(#grad178.000000155.134995NRC)" fill-opacity="0.9" stroke="#00A" stroke-opacity="0.9" stroke-linejoin="round" stroke-width="1.4" />
<ellipse cx="210.667" cy="155.135" rx="3.00267" ry="1" stroke-width="0.56" fill-opacity="0.9" stroke-opacity="0.9" stroke="#00A" fill="url(#grad178.000000155.134995NRC)" />
<ellipse cx="210.667" cy="404.98" rx="3.00267" ry="1" stroke-width="0.56" fill-opacity="0.9" stroke-opacity="0.9" stroke="#00A" fill="url(#grad178.000000155.134995NRC)" />
<defs id="" >
<linearGradient id="grad178.000000155.134995NRCRedun" x1="0%" y1="0%" x2="100%" y2="0%" >
<stop offset="30%" stop-color="#CC3333" stop-opacity="1" />
<stop offset="100%" stop-color="#ff0000" stop-opacity="1" />
</linearGradient>
</defs>
<path id="219.333328155.134995" d="M 219.333,155.135
v 249.845
a 2.66667,1 0 0,0 5.33333,0
v -249.845
a 2.66667,1 0 0,0 -5.33333,0
z
" fill="url(#grad178.000000155.134995NRCRedun)" fill-opacity="0.9" stroke="#C00" stroke-opacity="0.9" stroke-linejoin="round" stroke-width="1.4" />
<ellipse cx="222" cy="155.135" rx="3.00267" ry="1" stroke-width="0.56" fill-opacity="0.9" stroke-opacity="0.9" stroke="#C00" fill="url(#grad178.000000155.134995NRCRedun)" />
<ellipse cx="222" cy="404.98" rx="3.00267" ry="1" stroke-width="0.56" fill-opacity="0.9" stroke-opacity="0.9" stroke="#C00" fill="url(#grad178.000000155.134995NRCRedun)" />
<polygon points="116,280.205 116,529.995 178,404.98 178,155.135 " fill="#A03C3B" stroke="#A03C3B" stroke-width="1" stroke-opacity="0.45" fill-opacity="0.45" />
<defs id="" >
<linearGradient id="grad100.000000155.000000" x1="0%" y1="0%" x2="100%" y2="0%" >
<stop offset="30%" stop-color="#2C782D" stop-opacity="1" />
<stop offset="100%" stop-color="#3BA03C" stop-opacity="1" />
</linearGradient>
</defs>
<path id="100.000000155.000000" d="M 100,155
v 125.045
a 8,2 0 0,0 16,0
v -125.045
a 8,2 0 0,0 -16,0
z
" fill="url(#grad100.000000155.000000)" fill-opacity="0.9" stroke="#1D501E" stroke-opacity="0.9" stroke-linejoin="round" stroke-width="0.75" />
<ellipse cx="108" cy="155" rx="8.18" ry="2" stroke-width="0.3" fill-opacity="0.9" stroke-opacity="0.9" stroke="#1D501E" fill="url(#grad100.000000155.000000)" />
<ellipse cx="108" cy="280.045" rx="8.18" ry="2" stroke-width="0.3" fill-opacity="0.9" stroke-opacity="0.9" stroke="#1D501E" fill="url(#grad100.000000155.000000)" />
<defs id="" >
<linearGradient id="grad100.000000155.000000NRC" x1="0%" y1="0%" x2="100%" y2="0%" >
<stop offset="30%" stop-color="#3333CC" stop-opacity="1" />
<stop offset="100%" stop-color="#0000ff" stop-opacity="1" />
</linearGradient>
</defs>
<path id="80.666664155.000000" d="M 80.6667,155
v 125.045
a 2.66667,1 0 0,0 5.33333,0
v -125.045
a 2.66667,1 0 0,0 -5.33333,0
z
" fill="url(#grad100.000000155.000000NRC)" fill-opacity="0.9" stroke="#00A" stroke-opacity="0.9" stroke-linejoin="round" stroke-width="1.4" />
<ellipse cx="83.3333" cy="155" rx="3.00267" ry="1" stroke-width="0.56" fill-opacity="0.9" stroke-opacity="0.9" stroke="#00A" fill="url(#grad100.000000155.000000NRC)" />
<ellipse cx="83.3333" cy="280.045" rx="3.00267" ry="1" stroke-width="0.56" fill-opacity="0.9" stroke-opacity="0.9" stroke="#00A" fill="url(#grad100.000000155.000000NRC)" />
<defs id="" >
<linearGradient id="grad100.000000155.000000NRCRedun" x1="0%" y1="0%" x2="100%" y2="0%" >
<stop offset="30%" stop-color="#CC3333" stop-opacity="1" />
<stop offset="100%" stop-color="#ff0000" stop-opacity="1" />
</linearGradient>
</defs>
<path id="69.333328155.000000" d="M 69.3333,155
v 125.045
a 2.66667,1 0 0,0 5.33333,0
v -125.045
a 2.66667,1 0 0,0 -5.33333,0
z
" fill="url(#grad100.000000155.000000NRCRedun)" fill-opacity="0.9" stroke="#C00" stroke-opacity="0.9" stroke-linejoin="round" stroke-width="1.4" />
<ellipse cx="72" cy="155" rx="3.00267" ry="1" stroke-width="0.56" fill-opacity="0.9" stroke-opacity="0.9" stroke="#C00" fill="url(#grad100.000000155.000000NRCRedun)" />
<ellipse cx="72" cy="280.045" rx="3.00267" ry="1" stroke-width="0.56" fill-opacity="0.9" stroke-opacity="0.9" stroke="#C00" fill="url(#grad100.000000155.000000NRCRedun)" />
<defs id="" >
<linearGradient id="grad178.00000030.000000" x1="0%" y1="0%" x2="100%" y2="0%" >
<stop offset="30%" stop-color="#2C782D" stop-opacity="1" />
<stop offset="100%" stop-color="#3BA03C" stop-opacity="1" />
</linearGradient>
</defs>
<path id="178.00000030.000000" d="M 178,30
v 125.045
a 8,2 0 0,0 16,0
v -125.045
a 8,2 0 0,0 -16,0
z
" fill="url(#grad178.00000030.000000)" fill-opacity="0.9" stroke="#1D501E" stroke-opacity="0.9" stroke-linejoin="round" stroke-width="0.75" />
<ellipse cx="186" cy="30" rx="8.18" ry="2" stroke-width="0.3" fill-opacity="0.9" stroke-opacity="0.9" stroke="#1D501E" fill="url(#grad178.00000030.000000)" />
<ellipse cx="186" cy="155.045" rx="8.18" ry="2" stroke-width="0.3" fill-opacity="0.9" stroke-opacity="0.9" stroke="#1D501E" fill="url(#grad178.00000030.000000)" />
<defs id="" >
<pattern id="Wavy178.00000030.000000" x="178" y="30" width="16" height="14" patternUnits="userSpaceOnUse" >
<path id="" d="m -2.1,11.9
l 10.1,-9.8
l 10.1,9.8
" fill="none" fill-opacity="0.9" stroke="#141" stroke-opacity="1" stroke-linejoin="round" stroke-width="4.2" />
</pattern>
</defs>
<path id="178.00000030.000000" d="M 178,30
v 125.045
a 8,2 0 0,0 16,0
v -125.045
a 8,2 0 0,0 -16,0
z
" fill="url(#Wavy178.00000030.000000)" fill-opacity="0.9" stroke="#1D501E" stroke-opacity="0.9" stroke-linejoin="round" stroke-width="0.75" />
<ellipse cx="186" cy="30" rx="8.18" ry="2" stroke-width="0.3" fill-opacity="0.9" stroke-opacity="0.9" stroke="#1D501E" fill="url(#Wavy178.00000030.000000)" />
<ellipse cx="186" cy="155.045" rx="8.18" ry="2" stroke-width="0.3" fill-opacity="0.9" stroke-opacity="0.9" stroke="#1D501E" fill="url(#Wavy178.00000030.000000)" />
<defs id="" >
<linearGradient id="grad178.00000030.000000NRC" x1="0%" y1="0%" x2="100%" y2="0%" >
<stop offset="30%" stop-color="#3333CC" stop-opacity="1" />
<stop offset="100%" stop-color="#0000ff" stop-opacity="1" />
</linearGradient>
</defs>
<path id="208.00000030.000000" d="M 208,30
v 125.045
a 2.66667,1 0 0,0 5.33333,0
v -125.045
a 2.66667,1 0 0,0 -5.33333,0
z
" fill="url(#grad178.00000030.000000NRC)" fill-opacity="0.9" stroke="#00A" stroke-opacity="0.9" stroke-linejoin="round" stroke-width="1.4" />
<ellipse cx="210.667" cy="30" rx="3.00267" ry="1" stroke-width="0.56" fill-opacity="0.9" stroke-opacity="0.9" stroke="#00A" fill="url(#grad178.00000030.000000NRC)" />
<ellipse cx="210.667" cy="155.045" rx="3.00267" ry="1" stroke-width="0.56" fill-opacity="0.9" stroke-opacity="0.9" stroke="#00A" fill="url(#grad178.00000030.000000NRC)" />
<defs id="" >
<linearGradient id="grad178.00000030.000000NRCRedun" x1="0%" y1="0%" x2="100%" y2="0%" >
<stop offset="30%" stop-color="#CC3333" stop-opacity="1" />
<stop offset="100%" stop-color="#ff0000" stop-opacity="1" />
</linearGradient>
</defs>
<path id="219.33332830.000000" d="M 219.333,30
v 125.045
a 2.66667,1 0 0,0 5.33333,0
v -125.045
a 2.66667,1 0 0,0 -5.33333,0
z
" fill="url(#grad178.00000030.000000NRCRedun)" fill-opacity="0.9" stroke="#C00" stroke-opacity="0.9" stroke-linejoin="round" stroke-width="1.4" />
<ellipse cx="222" cy="30" rx="3.00267" ry="1" stroke-width="0.56" fill-opacity="0.9" stroke-opacity="0.9" stroke="#C00" fill="url(#grad178.00000030.000000NRCRedun)" />
<ellipse cx="222" cy="155.045" rx="3.00267" ry="1" stroke-width="0.56" fill-opacity="0.9" stroke-opacity="0.9" stroke="#C00" fill="url(#grad178.00000030.000000NRCRedun)" />
<polygon points="116,155 116,280.045 178,30 178,155.045 " fill="#3BA03C" stroke="#3BA03C" stroke-width="1" stroke-opacity="0.45" fill-opacity="0.45" />
<defs id="" >
<linearGradient id="grad100.00000030.080000" x1="0%" y1="0%" x2="100%" y2="0%" >
<stop offset="30%" stop-color="#77782C" stop-opacity="1" />
<stop offset="100%" stop-color="#9FA03B" stop-opacity="1" />
</linearGradient>
</defs>
<path id="100.00000030.080000" d="M 100,30.08
v 124.98
a 8,2 0 0,0 16,0
v -124.98
a 8,2 0 0,0 -16,0
z
" fill="url(#grad100.00000030.080000)" fill-opacity="0.9" stroke="#4F501D" stroke-opacity="0.9" stroke-linejoin="round" stroke-width="0.75" />
<ellipse cx="108" cy="30.08" rx="8.18" ry="2" stroke-width="0.3" fill-opacity="0.9" stroke-opacity="0.9" stroke="#4F501D" fill="url(#grad100.00000030.080000)" />
<ellipse cx="108" cy="155.06" rx="8.18" ry="2" stroke-width="0.3" fill-opacity="0.9" stroke-opacity="0.9" stroke="#4F501D" fill="url(#grad100.00000030.080000)" />
<defs id="" >
<linearGradient id="grad100.00000030.080000NRC" x1="0%" y1="0%" x2="100%" y2="0%" >
<stop offset="30%" stop-color="#3333CC" stop-opacity="1" />
<stop offset="100%" stop-color="#0000ff" stop-opacity="1" />
</linearGradient>
</defs>
<path id="80.66666430.080000" d="M 80.6667,30.08
v 124.98
a 2.66667,1 0 0,0 5.33333,0
v -124.98
a 2.66667,1 0 0,0 -5.33333,0
z
" fill="url(#grad100.00000030.080000NRC)" fill-opacity="0.9" stroke="#00A" stroke-opacity="0.9" stroke-linejoin="round" stroke-width="1.4" />
<ellipse cx="83.3333" cy="30.08" rx="3.00267" ry="1" stroke-width="0.56" fill-opacity="0.9" stroke-opacity="0.9" stroke="#00A" fill="url(#grad100.00000030.080000NRC)" />
<ellipse cx="83.3333" cy="155.06" rx="3.00267" ry="1" stroke-width="0.56" fill-opacity="0.9" stroke-opacity="0.9" stroke="#00A" fill="url(#grad100.00000030.080000NRC)" />
<defs id="" >
<linearGradient id="grad100.00000030.080000NRCRedun" x1="0%" y1="0%" x2="100%" y2="0%" >
<stop offset="30%" stop-color="#CC3333" stop-opacity="1" />
<stop offset="100%" stop-color="#ff0000" stop-opacity="1" />
</linearGradient>
</defs>
<path id="69.33332830.080000" d="M 69.3333,30.08
v 124.98
a 2.66667,1 0 0,0 5.33333,0
v -124.98
a 2.66667,1 0 0,0 -5.33333,0
z
" fill="url(#grad100.00000030.080000NRCRedun)" fill-opacity="0.9" stroke="#C00" stroke-opacity="0.9" stroke-linejoin="round" stroke-width="1.4" />
<ellipse cx="72" cy="30.08" rx="3.00267" ry="1" stroke-width="0.56" fill-opacity="0.9" stroke-opacity="0.9" stroke="#C00" fill="url(#grad100.00000030.080000NRCRedun)" />
<ellipse cx="72" cy="155.06" rx="3.00267" ry="1" stroke-width="0.56" fill-opacity="0.9" stroke-opacity="0.9" stroke="#C00" fill="url(#grad100.00000030.080000NRCRedun)" />
<defs id="" >
<linearGradient id="grad178.000000405.084991" x1="0%" y1="0%" x2="100%" y2="0%" >
<stop offset="30%" stop-color="#77782C" stop-opacity="1" />
<stop offset="100%" stop-color="#9FA03B" stop-opacity="1" />
</linearGradient>
</defs>
<path id="178.000000405.084991" d="M 178,405.085
v 124.91
a 8,2 0 0,0 16,0
v -124.91
a 8,2 0 0,0 -16,0
z
" fill="url(#grad178.000000405.084991)" fill-opacity="0.9" stroke="#4F501D" stroke-opacity="0.9" stroke-linejoin="round" stroke-width="0.75" />
<ellipse cx="186" cy="405.085" rx="8.18" ry="2" stroke-width="0.3" fill-opacity="0.9" stroke-opacity="0.9" stroke="#4F501D" fill="url(#grad178.000000405.084991)" />
<ellipse cx="186" cy="529.995" rx="8.18" ry="2" stroke-width="0.3" fill-opacity="0.9" stroke-opacity="0.9" stroke="#4F501D" fill="url(#grad178.000000405.084991)" />
<defs id="" >
<linearGradient id="grad178.000000405.084991NRC" x1="0%" y1="0%" x2="100%" y2="0%" >
<stop offset="30%" stop-color="#3333CC" stop-opacity="1" />
<stop offset="100%" stop-color="#0000ff" stop-opacity="1" />
</linearGradient>
</defs>
<path id="208.000000405.084991" d="M 208,405.085
v 124.91
a 2.66667,1 0 0,0 5.33333,0
v -124.91
a 2.66667,1 0 0,0 -5.33333,0
z
" fill="url(#grad178.000000405.084991NRC)" fill-opacity="0.9" stroke="#00A" stroke-opacity="0.9" stroke-linejoin="round" stroke-width="1.4" />
<ellipse cx="210.667" cy="405.085" rx="3.00267" ry="1" stroke-width="0.56" fill-opacity="0.9" stroke-opacity="0.9" stroke="#00A" fill="url(#grad178.000000405.084991NRC)" />
<ellipse cx="210.667" cy="529.995" rx="3.00267" ry="1" stroke-width="0.56" fill-opacity="0.9" stroke-opacity="0.9" stroke="#00A" fill="url(#grad178.000000405.084991NRC)" />
<defs id="" >
<linearGradient id="grad178.000000405.084991NRCRedun" x1="0%" y1="0%" x2="100%" y2="0%" >
<stop offset="30%" stop-color="#CC3333" stop-opacity="1" />
<stop offset="100%" stop-color="#ff0000" stop-opacity="1" />
</linearGradient>
</defs>
<path id="219.333328405.084991" d="M 219.333,405.085
v 124.91
a 2.66667,1 0 0,0 5.33333,0
v -124.91
a 2.66667,1 0 0,0 -5.33333,0
z
" fill="url(#grad178.000000405.084991NRCRedun)" fill-opacity="0.9" stroke="#C00" stroke-opacity="0.9" stroke-linejoin="round" stroke-width="1.4" />
<ellipse cx="222" cy="405.085" rx="3.00267" ry="1" stroke-width="0.56" fill-opacity="0.9" stroke-opacity="0.9" stroke="#C00" fill="url(#grad178.000000405.084991NRCRedun)" />
<ellipse cx="222" cy="529.995" rx="3.00267" ry="1" stroke-width="0.56" fill-opacity="0.9" stroke-opacity="0.9" stroke="#C00" fill="url(#grad178.000000405.084991NRCRedun)" />
<polygon points="116,30.08 116,155.06 178,529.995 178,405.085 " fill="#9FA03B" stroke="#9FA03B" stroke-width="1" stroke-opacity="0.45" fill-opacity="0.45" />
<path id="100.00000030.000000" d="M 100,30
v 500
a 8,2 0 0,0 16,0
v -500
a 8,2 0 0,0 -16,0
z
" fill="none" fill-opacity="0.9" stroke="black" stroke-opacity="1" stroke-linejoin="round" stroke-width="1" />
<ellipse cx="108" cy="30" rx="8.24" ry="2" stroke-width="0.4" fill-opacity="0.9" stroke-opacity="1" stroke="black" fill="none" />
<ellipse cx="108" cy="530" rx="8.24" ry="2" stroke-width="0.4" fill-opacity="0.9" stroke-opacity="1" stroke="black" fill="none" />
<path id="178.00000030.000000" d="M 178,30
v 500
a 8,2 0 0,0 16,0
v -500
a 8,2 0 0,0 -16,0
z
" fill="none" fill-opacity="0.9" stroke="black" stroke-opacity="1" stroke-linejoin="round" stroke-width="1" />
<ellipse cx="186" cy="30" rx="8.24" ry="2" stroke-width="0.4" fill-opacity="0.9" stroke-opacity="1" stroke="black" fill="none" />
<ellipse cx="186" cy="530" rx="8.24" ry="2" stroke-width="0.4" fill-opacity="0.9" stroke-opacity="1" stroke="black" fill="none" />
<text id="108.00000020.400000" x="108" y="20.4" dominant-baseline="" baseline-shift="" alignment-baseline="" font-size="10px" font-weight="bold" font-family="Arial" font-variant="normal" text-anchor="middle" text-align="start" line-height="125%%" >
RefM</text>
<text id="186.00000020.400000" x="186" y="20.4" dominant-baseline="" baseline-shift="" alignment-baseline="" font-size="10px" font-weight="bold" font-family="Arial" font-variant="normal" text-anchor="middle" text-align="start" line-height="125%%" >
TarM</text>
<defs id="" >
<linearGradient id="grad92.000000570.000000" x1="0%" y1="0%" x2="100%" y2="0%" >
<stop offset="0%" stop-color="#0000ff" stop-opacity="1" />
<stop offset="8%" stop-color="#0055ff" stop-opacity="1" />
<stop offset="16%" stop-color="#00aaff" stop-opacity="1" />
<stop offset="25%" stop-color="#00ffff" stop-opacity="1" />
<stop offset="33%" stop-color="#00ffaa" stop-opacity="1" />
<stop offset="41%" stop-color="#00ff55" stop-opacity="1" />
<stop offset="50%" stop-color="#00ff00" stop-opacity="1" />
<stop offset="58%" stop-color="#55ff00" stop-opacity="1" />
<stop offset="66%" stop-color="#aaff00" stop-opacity="1" />
<stop offset="75%" stop-color="#ffff00" stop-opacity="1" />
<stop offset="83%" stop-color="#ffaa00" stop-opacity="1" />
<stop offset="91%" stop-color="#ff5500" stop-opacity="1" />
<stop offset="100%" stop-color="#ff0000" stop-opacity="1" />
</linearGradient>
</defs>
<rect x="92" y="570" width="110" height="11" rx="2" ry="2" fill="url(#grad92.000000570.000000)" fill-opacity="0.9" stroke="black" stroke-width="0.5" />
<text id="147.000000563.150024" x="147" y="563.15" dominant-baseline="" baseline-shift="" alignment-baseline="" font-size="9px" font-family="Arial" font-variant="normal" text-anchor="middle" text-align="start" line-height="125%%" >
Relative Redundancy</text>
<text id="147.000000594.150024" x="147" y="594.15" dominant-baseline="" baseline-shift="" alignment-baseline="" font-size="9px" font-family="Arial" font-variant="normal" text-anchor="middle" text-align="start" line-height="125%%" >
Redundancy</text>
<text id="88.000000575.500000" x="88" y="575.5" dy="2.8" dominant-baseline="" baseline-shift="" alignment-baseline="" font-size="8px" font-weight="bold" font-family="Arial" font-variant="normal" text-anchor="end" text-align="start" line-height="125%%" >
0.0</text>
<text id="206.000000575.500000" x="206" y="575.5" dy="2.8" dominant-baseline="" baseline-shift="" alignment-baseline="" font-size="8px" font-weight="bold" font-family="Arial" font-variant="normal" text-anchor="start" text-align="start" line-height="125%%" >
2.0</text>
<text id="119.500000575.500000" x="119.5" y="575.5" dy="2.8" dominant-baseline="" baseline-shift="" alignment-baseline="" font-size="8px" font-weight="bold" font-family="Arial" font-variant="normal" text-anchor="middle" text-align="start" line-height="125%%" >
0.5</text>
<text id="147.000000575.500000" x="147" y="575.5" dy="2.8" dominant-baseline="" baseline-shift="" alignment-baseline="" font-size="8px" font-weight="bold" font-family="Arial" font-variant="normal" text-anchor="middle" text-align="start" line-height="125%%" >
1.0</text>
<text id="174.500000575.500000" x="174.5" y="575.5" dy="2.8" dominant-baseline="" baseline-shift="" alignment-baseline="" font-size="8px" font-weight="bold" font-family="Arial" font-variant="normal" text-anchor="middle" text-align="start" line-height="125%%" >
1.5</text>
<path id="" d="M 83.3333,529.995
V 560
H 97
" fill="none" fill-opacity="0.9" stroke="black" stroke-opacity="1" stroke-linejoin="round" stroke-width="0.5" />
<path id="" d="M 210.667,529.995
V 560
H 197
" fill="none" fill-opacity="0.9" stroke="black" stroke-opacity="1" stroke-linejoin="round" stroke-width="0.5" />
<path id="" d="M 72,529.995
V 591
H 115
" fill="none" fill-opacity="0.9" stroke="black" stroke-opacity="1" stroke-linejoin="round" stroke-width="0.5" />
<path id="" d="M 222,529.995
V 591
H 179
" fill="none" fill-opacity="0.9" stroke="black" stroke-opacity="1" stroke-linejoin="round" stroke-width="0.5" />
</svg>