<?xml version="1.0" encoding="UTF-8" standalone="no"?>
<!-- Morteza Hosseini, IEETA 2018-2019 -->
<svg xmlns="http://www.w3.org/2000/svg" xmlns:xlink="http://www.w3.org/1999/xlink" viewBox="0 0 294.000000 605.000000" >
<rect x="0" y="0" width="294" height="605" rx="1" ry="1" fill="white" fill-opacity="0.9" stroke="white" stroke-width="0" />
<line id="46.33332830.00000046.333328530.640015" x1="46.3333" y1="30" x2="46.3333" y2="530.64" stroke-width="1.28" stroke="black" />
<text id="41.33332836.299999" x="41.3333" y="36.3" dominant-baseline="" baseline-shift="" alignment-baseline="" font-size="10px" font-weight="bold" font-family="Helvetica,Arial" font-variant="normal" text-anchor="end" text-align="start" line-height="125%%" >
bp</text>
<line id="46.33332830.63999956.33332830.639999" x1="46.3333" y1="30.64" x2="56.3333" y2="30.64" stroke-width="1.28" stroke="black" />
<line id="46.33332842.50000052.33332842.500000" x1="46.3333" y1="42.5" x2="52.3333" y2="42.5" stroke-width="0.8" stroke="black" />
<line id="46.33332855.00000052.33332855.000000" x1="46.3333" y1="55" x2="52.3333" y2="55" stroke-width="0.8" stroke="black" />
<line id="46.33332867.50000052.33332867.500000" x1="46.3333" y1="67.5" x2="52.3333" y2="67.5" stroke-width="0.8" stroke="black" />
<line id="46.33332880.00000056.33332880.000000" x1="46.3333" y1="80" x2="56.3333" y2="80" stroke-width="1.28" stroke="black" />
<text id="41.33332883.150002" x="41.3333" y="83.15" dominant-baseline="" baseline-shift="" alignment-baseline="" font-size="9px" font-weight="normal" font-family="Helvetica,Arial" font-variant="normal" text-anchor="end" text-align="start" line-height="125%%" >
100 </text>
<line id="46.33332892.50000052.33332892.500000" x1="46.3333" y1="92.5" x2="52.3333" y2="92.5" stroke-width="0.8" stroke="black" />
<line id="46.333328105.00000052.333328105.000000" x1="46.3333" y1="105" x2="52.3333" y2="105" stroke-width="0.8" stroke="black" />
<line id="46.333328117.50000052.333328117.500000" x1="46.3333" y1="117.5" x2="52.3333" y2="117.5" stroke-width="0.8" stroke="black" />
<line id="46.333328130.00000056.333328130.000000" x1="46.3333" y1="130" x2="56.3333" y2="130" stroke-width="1.28" stroke="black" />
<text id="41.333328133.149994" x="41.3333" y="133.15" dominant-baseline="" baseline-shift="" alignment-baseline="" font-size="9px" font-weight="normal" font-family="Helvetica,Arial" font-variant="normal" text-anchor="end" text-align="start" line-height="125%%" >
200 </text>
<line id="46.333328142.50000052.333328142.500000" x1="46.3333" y1="142.5" x2="52.3333" y2="142.5" stroke-width="0.8" stroke="black" />
<line id="46.333328155.00000052.333328155.000000" x1="46.3333" y1="155" x2="52.3333" y2="155" stroke-width="0.8" stroke="black" />
<line id="46.333328167.50000052.333328167.500000" x1="46.3333" y1="167.5" x2="52.3333" y2="167.5" stroke-width="0.8" stroke="black" />
<line id="46.333328180.00000056.333328180.000000" x1="46.3333" y1="180" x2="56.3333" y2="180" stroke-width="1.28" stroke="black" />
<text id="41.333328183.149994" x="41.3333" y="183.15" dominant-baseline="" baseline-shift="" alignment-baseline="" font-size="9px" font-weight="normal" font-family="Helvetica,Arial" font-variant="normal" text-anchor="end" text-align="start" line-height="125%%" >
300 </text>
<line id="46.333328192.50000052.333328192.500000" x1="46.3333" y1="192.5" x2="52.3333" y2="192.5" stroke-width="0.8" stroke="black" />
<line id="46.333328205.00000052.333328205.000000" x1="46.3333" y1="205" x2="52.3333" y2="205" stroke-width="0.8" stroke="black" />
<line id="46.333328217.50000052.333328217.500000" x1="46.3333" y1="217.5" x2="52.3333" y2="217.5" stroke-width="0.8" stroke="black" />
<line id="46.333328230.00000056.333328230.000000" x1="46.3333" y1="230" x2="56.3333" y2="230" stroke-width="1.28" stroke="black" />
<text id="41.333328233.149994" x="41.3333" y="233.15" dominant-baseline="" baseline-shift="" alignment-baseline="" font-size="9px" font-weight="normal" font-family="Helvetica,Arial" font-variant="normal" text-anchor="end" text-align="start" line-height="125%%" >
400 </text>
<line id="46.333328242.50000052.333328242.500000" x1="46.3333" y1="242.5" x2="52.3333" y2="242.5" stroke-width="0.8" stroke="black" />
<line id="46.333328255.00000052.333328255.000000" x1="46.3333" y1="255" x2="52.3333" y2="255" stroke-width="0.8" stroke="black" />
<line id="46.333328267.50000052.333328267.500000" x1="46.3333" y1="267.5" x2="52.3333" y2="267.5" stroke-width="0.8" stroke="black" />
<line id="46.333328280.00000056.333328280.000000" x1="46.3333" y1="280" x2="56.3333" y2="280" stroke-width="1.28" stroke="black" />
<text id="41.333328283.149994" x="41.3333" y="283.15" dominant-baseline="" baseline-shift="" alignment-baseline="" font-size="9px" font-weight="normal" font-family="Helvetica,Arial" font-variant="normal" text-anchor="end" text-align="start" line-height="125%%" >
500 </text>
<line id="46.333328292.50000052.333328292.500000" x1="46.3333" y1="292.5" x2="52.3333" y2="292.5" stroke-width="0.8" stroke="black" />
<line id="46.333328305.00000052.333328305.000000" x1="46.3333" y1="305" x2="52.3333" y2="305" stroke-width="0.8" stroke="black" />
<line id="46.333328317.50000052.333328317.500000" x1="46.3333" y1="317.5" x2="52.3333" y2="317.5" stroke-width="0.8" stroke="black" />
<line id="46.333328330.00000056.333328330.000000" x1="46.3333" y1="330" x2="56.3333" y2="330" stroke-width="1.28" stroke="black" />
<text id="41.333328333.149994" x="41.3333" y="333.15" dominant-baseline="" baseline-shift="" alignment-baseline="" font-size="9px" font-weight="normal" font-family="Helvetica,Arial" font-variant="normal" text-anchor="end" text-align="start" line-height="125%%" >
600 </text>
<line id="46.333328342.50000052.333328342.500000" x1="46.3333" y1="342.5" x2="52.3333" y2="342.5" stroke-width="0.8" stroke="black" />
<line id="46.333328355.00000052.333328355.000000" x1="46.3333" y1="355" x2="52.3333" y2="355" stroke-width="0.8" stroke="black" />
<line id="46.333328367.50000052.333328367.500000" x1="46.3333" y1="367.5" x2="52.3333" y2="367.5" stroke-width="0.8" stroke="black" />
<line id="46.333328380.00000056.333328380.000000" x1="46.3333" y1="380" x2="56.3333" y2="380" stroke-width="1.28" stroke="black" />
<text id="41.333328383.149994" x="41.3333" y="383.15" dominant-baseline="" baseline-shift="" alignment-baseline="" font-size="9px" font-weight="normal" font-family="Helvetica,Arial" font-variant="normal" text-anchor="end" text-align="start" line-height="125%%" >
700 </text>
<line id="46.333328392.50000052.333328392.500000" x1="46.3333" y1="392.5" x2="52.3333" y2="392.5" stroke-width="0.8" stroke="black" />
<line id="46.333328405.00000052.333328405.000000" x1="46.3333" y1="405" x2="52.3333" y2="405" stroke-width="0.8" stroke="black" />
<line id="46.333328417.50000052.333328417.500000" x1="46.3333" y1="417.5" x2="52.3333" y2="417.5" stroke-width="0.8" stroke="black" />
<line id="46.333328430.00000056.333328430.000000" x1="46.3333" y1="430" x2="56.3333" y2="430" stroke-width="1.28" stroke="black" />
<text id="41.333328433.149994" x="41.3333" y="433.15" dominant-baseline="" baseline-shift="" alignment-baseline="" font-size="9px" font-weight="normal" font-family="Helvetica,Arial" font-variant="normal" text-anchor="end" text-align="start" line-height="125%%" >
800 </text>
<line id="46.333328442.50000052.333328442.500000" x1="46.3333" y1="442.5" x2="52.3333" y2="442.5" stroke-width="0.8" stroke="black" />
<line id="46.333328455.00000052.333328455.000000" x1="46.3333" y1="455" x2="52.3333" y2="455" stroke-width="0.8" stroke="black" />
<line id="46.333328467.50000052.333328467.500000" x1="46.3333" y1="467.5" x2="52.3333" y2="467.5" stroke-width="0.8" stroke="black" />
<line id="46.333328480.00000056.333328480.000000" x1="46.3333" y1="480" x2="56.3333" y2="480" stroke-width="1.28" stroke="black" />
<text id="41.333328483.149994" x="41.3333" y="483.15" dominant-baseline="" baseline-shift="" alignment-baseline="" font-size="9px" font-weight="normal" font-family="Helvetica,Arial" font-variant="normal" text-anchor="end" text-align="start" line-height="125%%" >
900 </text>
<line id="46.333328492.50000052.333328492.500000" x1="46.3333" y1="492.5" x2="52.3333" y2="492.5" stroke-width="0.8" stroke="black" />
<line id="46.333328505.00000052.333328505.000000" x1="46.3333" y1="505" x2="52.3333" y2="505" stroke-width="0.8" stroke="black" />
<line id="46.333328517.50000052.333328517.500000" x1="46.3333" y1="517.5" x2="52.3333" y2="517.5" stroke-width="0.8" stroke="black" />
<line id="46.333328530.00000056.333328530.000000" x1="46.3333" y1="530" x2="56.3333" y2="530" stroke-width="1.28" stroke="black" />
<text id="41.333328533.150024" x="41.3333" y="533.15" dominant-baseline="" baseline-shift="" alignment-baseline="" font-size="9px" font-weight="normal" font-family="Helvetica,Arial" font-variant="normal" text-anchor="end" text-align="start" line-height="125%%" >
1 K</text>
<line id="247.66667230.000000247.666672530.640015" x1="247.667" y1="30" x2="247.667" y2="530.64" stroke-width="1.28" stroke="black" />
<text id="252.66667236.299999" x="252.667" y="36.3" dominant-baseline="" baseline-shift="" alignment-baseline="" font-size="10px" font-weight="bold" font-family="Helvetica,Arial" font-variant="normal" text-anchor="start" text-align="start" line-height="125%%" >
bp</text>
<line id="247.66667230.639999237.66667230.639999" x1="247.667" y1="30.64" x2="237.667" y2="30.64" stroke-width="1.28" stroke="black" />
<line id="247.66667242.500000241.66667242.500000" x1="247.667" y1="42.5" x2="241.667" y2="42.5" stroke-width="0.8" stroke="black" />
<line id="247.66667255.000000241.66667255.000000" x1="247.667" y1="55" x2="241.667" y2="55" stroke-width="0.8" stroke="black" />
<line id="247.66667267.500000241.66667267.500000" x1="247.667" y1="67.5" x2="241.667" y2="67.5" stroke-width="0.8" stroke="black" />
<line id="247.66667280.000000237.66667280.000000" x1="247.667" y1="80" x2="237.667" y2="80" stroke-width="1.28" stroke="black" />
<text id="252.66667283.150002" x="252.667" y="83.15" dominant-baseline="" baseline-shift="" alignment-baseline="" font-size="9px" font-weight="normal" font-family="Helvetica,Arial" font-variant="normal" text-anchor="start" text-align="start" line-height="125%%" >
100 </text>
<line id="247.66667292.500000241.66667292.500000" x1="247.667" y1="92.5" x2="241.667" y2="92.5" stroke-width="0.8" stroke="black" />
<line id="247.666672105.000000241.666672105.000000" x1="247.667" y1="105" x2="241.667" y2="105" stroke-width="0.8" stroke="black" />
<line id="247.666672117.500000241.666672117.500000" x1="247.667" y1="117.5" x2="241.667" y2="117.5" stroke-width="0.8" stroke="black" />
<line id="247.666672130.000000237.666672130.000000" x1="247.667" y1="130" x2="237.667" y2="130" stroke-width="1.28" stroke="black" />
<text id="252.666672133.149994" x="252.667" y="133.15" dominant-baseline="" baseline-shift="" alignment-baseline="" font-size="9px" font-weight="normal" font-family="Helvetica,Arial" font-variant="normal" text-anchor="start" text-align="start" line-height="125%%" >
200 </text>
<line id="247.666672142.500000241.666672142.500000" x1="247.667" y1="142.5" x2="241.667" y2="142.5" stroke-width="0.8" stroke="black" />
<line id="247.666672155.000000241.666672155.000000" x1="247.667" y1="155" x2="241.667" y2="155" stroke-width="0.8" stroke="black" />
<line id="247.666672167.500000241.666672167.500000" x1="247.667" y1="167.5" x2="241.667" y2="167.5" stroke-width="0.8" stroke="black" />
<line id="247.666672180.000000237.666672180.000000" x1="247.667" y1="180" x2="237.667" y2="180" stroke-width="1.28" stroke="black" />
<text id="252.666672183.149994" x="252.667" y="183.15" dominant-baseline="" baseline-shift="" alignment-baseline="" font-size="9px" font-weight="normal" font-family="Helvetica,Arial" font-variant="normal" text-anchor="start" text-align="start" line-height="125%%" >
300 </text>
<line id="247.666672192.500000241.666672192.500000" x1="247.667" y1="192.5" x2="241.667" y2="192.5" stroke-width="0.8" stroke="black" />
<line id="247.666672205.000000241.666672205.000000" x1="247.667" y1="205" x2="241.667" y2="205" stroke-width="0.8" stroke="black" />
<line id="247.666672217.500000241.666672217.500000" x1="247.667" y1="217.5" x2="241.667" y2="217.5" stroke-width="0.8" stroke="black" />
<line id="247.666672230.000000237.666672230.000000" x1="247.667" y1="230" x2="237.667" y2="230" stroke-width="1.28" stroke="black" />
<text id="252.666672233.149994" x="252.667" y="233.15" dominant-baseline="" baseline-shift="" alignment-baseline="" font-size="9px" font-weight="normal" font-family="Helvetica,Arial" font-variant="normal" text-anchor="start" text-align="start" line-height="125%%" >
400 </text>
<line id="247.666672242.500000241.666672242.500000" x1="247.667" y1="242.5" x2="241.667" y2="242.5" stroke-width="0.8" stroke="black" />
<line id="247.666672255.000000241.666672255.000000" x1="247.667" y1="255" x2="241.667" y2="255" stroke-width="0.8" stroke="black" />
<line id="247.666672267.500000241.666672267.500000" x1="247.667" y1="267.5" x2="241.667" y2="267.5" stroke-width="0.8" stroke="black" />
<line id="247.666672280.000000237.666672280.000000" x1="247.667" y1="280" x2="237.667" y2="280" stroke-width="1.28" stroke="black" />
<text id="252.666672283.149994" x="252.667" y="283.15" dominant-baseline="" baseline-shift="" alignment-baseline="" font-size="9px" font-weight="normal" font-family="Helvetica,Arial" font-variant="normal" text-anchor="start" text-align="start" line-height="125%%" >
500 </text>
<line id="247.666672292.500000241.666672292.500000" x1="247.667" y1="292.5" x2="241.667" y2="292.5" stroke-width="0.8" stroke="black" />
<line id="247.666672305.000000241.666672305.000000" x1="247.667" y1="305" x2="241.667" y2="305" stroke-width="0.8" stroke="black" />
<line id="247.666672317.500000241.666672317.500000" x1="247.667" y1="317.5" x2="241.667" y2="317.5" stroke-width="0.8" stroke="black" />
<line id="247.666672330.000000237.666672330.000000" x1="247.667" y1="330" x2="237.667" y2="330" stroke-width="1.28" stroke="black" />
<text id="252.666672333.149994" x="252.667" y="333.15" dominant-baseline="" baseline-shift="" alignment-baseline="" font-size="9px" font-weight="normal" font-family="Helvetica,Arial" font-variant="normal" text-anchor="start" text-align="start" line-height="125%%" >
600 </text>
<line id="247.666672342.500000241.666672342.500000" x1="247.667" y1="342.5" x2="241.667" y2="342.5" stroke-width="0.8" stroke="black" />
<line id="247.666672355.000000241.666672355.000000" x1="247.667" y1="355" x2="241.667" y2="355" stroke-width="0.8" stroke="black" />
<line id="247.666672367.500000241.666672367.500000" x1="247.667" y1="367.5" x2="241.667" y2="367.5" stroke-width="0.8" stroke="black" />
<line id="247.666672380.000000237.666672380.000000" x1="247.667" y1="380" x2="237.667" y2="380" stroke-width="1.28" stroke="black" />
<text id="252.666672383.149994" x="252.667" y="383.15" dominant-baseline="" baseline-shift="" alignment-baseline="" font-size="9px" font-weight="normal" font-family="Helvetica,Arial" font-variant="normal" text-anchor="start" text-align="start" line-height="125%%" >
700 </text>
<line id="247.666672392.500000241.666672392.500000" x1="247.667" y1="392.5" x2="241.667" y2="392.5" stroke-width="0.8" stroke="black" />
<line id="247.666672405.000000241.666672405.000000" x1="247.667" y1="405" x2="241.667" y2="405" stroke-width="0.8" stroke="black" />
<line id="247.666672417.500000241.666672417.500000" x1="247.667" y1="417.5" x2="241.667" y2="417.5" stroke-width="0.8" stroke="black" />
<line id="247.666672430.000000237.666672430.000000" x1="247.667" y1="430" x2="237.667" y2="430" stroke-width="1.28" stroke="black" />
<text id="252.666672433.149994" x="252.667" y="433.15" dominant-baseline="" baseline-shift="" alignment-baseline="" font-size="9px" font-weight="normal" font-family="Helvetica,Arial" font-variant="normal" text-anchor="start" text-align="start" line-height="125%%" >
800 </text>
<line id="247.666672442.500000241.666672442.500000" x1="247.667" y1="442.5" x2="241.667" y2="442.5" stroke-width="0.8" stroke="black" />
<line id="247.666672455.000000241.666672455.000000" x1="247.667" y1="455" x2="241.667" y2="455" stroke-width="0.8" stroke="black" />
<line id="247.666672467.500000241.666672467.500000" x1="247.667" y1="467.5" x2="241.667" y2="467.5" stroke-width="0.8" stroke="black" />
<line id="247.666672480.000000237.666672480.000000" x1="247.667" y1="480" x2="237.667" y2="480" stroke-width="1.28" stroke="black" />
<text id="252.666672483.149994" x="252.667" y="483.15" dominant-baseline="" baseline-shift="" alignment-baseline="" font-size="9px" font-weight="normal" font-family="Helvetica,Arial" font-variant="normal" text-anchor="start" text-align="start" line-height="125%%" >
900 </text>
<line id="247.666672492.500000241.666672492.500000" x1="247.667" y1="492.5" x2="241.667" y2="492.5" stroke-width="0.8" stroke="black" />
<line id="247.666672505.000000241.666672505.000000" x1="247.667" y1="505" x2="241.667" y2="505" stroke-width="0.8" stroke="black" />
<line id="247.666672517.500000241.666672517.500000" x1="247.667" y1="517.5" x2="241.667" y2="517.5" stroke-width="0.8" stroke="black" />
<line id="247.666672530.000000237.666672530.000000" x1="247.667" y1="530" x2="237.667" y2="530" stroke-width="1.28" stroke="black" />
<text id="252.666672533.150024" x="252.667" y="533.15" dominant-baseline="" baseline-shift="" alignment-baseline="" font-size="9px" font-weight="normal" font-family="Helvetica,Arial" font-variant="normal" text-anchor="start" text-align="start" line-height="125%%" >
1 K</text>
<defs id="" >
<linearGradient id="grad100.000000407.000000" x1="0%" y1="0%" x2="100%" y2="0%" >
<stop offset="30%" stop-color="#78302C" stop-opacity="1" />
<stop offset="100%" stop-color="#A0413B" stop-opacity="1" />
</linearGradient>
</defs>
<path id="100.000000407.000000" d="M 100,407
v 121.5
a 8,2 0 0,0 16,0
v -121.5
a 8,2 0 0,0 -16,0
z
" fill="url(#grad100.000000407.000000)" fill-opacity="1" stroke="#50201D" stroke-opacity="1" stroke-linejoin="round" stroke-width="0.75" />
<ellipse cx="108" cy="407" rx="8.18" ry="2" stroke-width="0.3" fill-opacity="1" stroke-opacity="1" stroke="#50201D" fill="url(#grad100.000000407.000000)" />
<ellipse cx="108" cy="528.5" rx="8.18" ry="2" stroke-width="0.3" fill-opacity="1" stroke-opacity="1" stroke="#50201D" fill="url(#grad100.000000407.000000)" />
<defs id="" >
<linearGradient id="grad100.000000407.000000NRC" x1="0%" y1="0%" x2="100%" y2="0%" >
<stop offset="30%" stop-color="#3366CC" stop-opacity="1" />
<stop offset="100%" stop-color="#0055ff" stop-opacity="1" />
</linearGradient>
</defs>
<path id="80.666664407.000000" d="M 80.6667,407
v 121.5
a 2.66667,1 0 0,0 5.33333,0
v -121.5
a 2.66667,1 0 0,0 -5.33333,0
z
" fill="url(#grad100.000000407.000000NRC)" fill-opacity="1" stroke="#03A" stroke-opacity="1" stroke-linejoin="round" stroke-width="1.4" />
<ellipse cx="83.3333" cy="407" rx="3.00267" ry="1" stroke-width="0.56" fill-opacity="1" stroke-opacity="1" stroke="#03A" fill="url(#grad100.000000407.000000NRC)" />
<ellipse cx="83.3333" cy="528.5" rx="3.00267" ry="1" stroke-width="0.56" fill-opacity="1" stroke-opacity="1" stroke="#03A" fill="url(#grad100.000000407.000000NRC)" />
<defs id="" >
<linearGradient id="grad100.000000407.000000NRCRedun" x1="0%" y1="0%" x2="100%" y2="0%" >
<stop offset="30%" stop-color="#CC3333" stop-opacity="1" />
<stop offset="100%" stop-color="#ff0000" stop-opacity="1" />
</linearGradient>
</defs>
<path id="69.333328407.000000" d="M 69.3333,407
v 121.5
a 2.66667,1 0 0,0 5.33333,0
v -121.5
a 2.66667,1 0 0,0 -5.33333,0
z
" fill="url(#grad100.000000407.000000NRCRedun)" fill-opacity="1" stroke="#C00" stroke-opacity="1" stroke-linejoin="round" stroke-width="1.4" />
<ellipse cx="72" cy="407" rx="3.00267" ry="1" stroke-width="0.56" fill-opacity="1" stroke-opacity="1" stroke="#C00" fill="url(#grad100.000000407.000000NRCRedun)" />
<ellipse cx="72" cy="528.5" rx="3.00267" ry="1" stroke-width="0.56" fill-opacity="1" stroke-opacity="1" stroke="#C00" fill="url(#grad100.000000407.000000NRCRedun)" />
<defs id="" >
<linearGradient id="grad178.000000284.000000" x1="0%" y1="0%" x2="100%" y2="0%" >
<stop offset="30%" stop-color="#78302C" stop-opacity="1" />
<stop offset="100%" stop-color="#A0413B" stop-opacity="1" />
</linearGradient>
</defs>
<path id="178.000000284.000000" d="M 178,284
v 119.5
a 8,2 0 0,0 16,0
v -119.5
a 8,2 0 0,0 -16,0
z
" fill="url(#grad178.000000284.000000)" fill-opacity="1" stroke="#50201D" stroke-opacity="1" stroke-linejoin="round" stroke-width="0.75" />
<ellipse cx="186" cy="284" rx="8.18" ry="2" stroke-width="0.3" fill-opacity="1" stroke-opacity="1" stroke="#50201D" fill="url(#grad178.000000284.000000)" />
<ellipse cx="186" cy="403.5" rx="8.18" ry="2" stroke-width="0.3" fill-opacity="1" stroke-opacity="1" stroke="#50201D" fill="url(#grad178.000000284.000000)" />
<defs id="" >
<pattern id="Wavy178.000000284.000000" x="178" y="284" width="16" height="14" patternUnits="userSpaceOnUse" >
<path id="" d="m -2.1,11.9
l 10.1,-9.8
l 10.1,9.8
" fill="none" fill-opacity="0.9" stroke="#411" stroke-opacity="1" stroke-linejoin="round" stroke-width="4.2" />
</pattern>
</defs>
<path id="178.000000284.000000" d="M 178,284
v 119.5
a 8,2 0 0,0 16,0
v -119.5
a 8,2 0 0,0 -16,0
z
" fill="url(#Wavy178.000000284.000000)" fill-opacity="1" stroke="#50201D" stroke-opacity="1" stroke-linejoin="round" stroke-width="0.75" />
<ellipse cx="186" cy="284" rx="8.18" ry="2" stroke-width="0.3" fill-opacity="1" stroke-opacity="1" stroke="#50201D" fill="url(#Wavy178.000000284.000000)" />
<ellipse cx="186" cy="403.5" rx="8.18" ry="2" stroke-width="0.3" fill-opacity="1" stroke-opacity="1" stroke="#50201D" fill="url(#Wavy178.000000284.000000)" />
<defs id="" >
<linearGradient id="grad178.000000284.000000NRC" x1="0%" y1="0%" x2="100%" y2="0%" >
<stop offset="30%" stop-color="#3333CC" stop-opacity="1" />
<stop offset="100%" stop-color="#0000ff" stop-opacity="1" />
</linearGradient>
</defs>
<path id="208.000000284.000000" d="M 208,284
v 119.5
a 2.66667,1 0 0,0 5.33333,0
v -119.5
a 2.66667,1 0 0,0 -5.33333,0
z
" fill="url(#grad178.000000284.000000NRC)" fill-opacity="1" stroke="#00A" stroke-opacity="1" stroke-linejoin="round" stroke-width="1.4" />
<ellipse cx="210.667" cy="284" rx="3.00267" ry="1" stroke-width="0.56" fill-opacity="1" stroke-opacity="1" stroke="#00A" fill="url(#grad178.000000284.000000NRC)" />
<ellipse cx="210.667" cy="403.5" rx="3.00267" ry="1" stroke-width="0.56" fill-opacity="1" stroke-opacity="1" stroke="#00A" fill="url(#grad178.000000284.000000NRC)" />
<defs id="" >
<linearGradient id="grad178.000000284.000000NRCRedun" x1="0%" y1="0%" x2="100%" y2="0%" >
<stop offset="30%" stop-color="#CC3333" stop-opacity="1" />
<stop offset="100%" stop-color="#ff0000" stop-opacity="1" />
</linearGradient>
</defs>
<path id="219.333328284.000000" d="M 219.333,284
v 119.5
a 2.66667,1 0 0,0 5.33333,0
v -119.5
a 2.66667,1 0 0,0 -5.33333,0
z
" fill="url(#grad178.000000284.000000NRCRedun)" fill-opacity="1" stroke="#C00" stroke-opacity="1" stroke-linejoin="round" stroke-width="1.4" />
<ellipse cx="222" cy="284" rx="3.00267" ry="1" stroke-width="0.56" fill-opacity="1" stroke-opacity="1" stroke="#C00" fill="url(#grad178.000000284.000000NRCRedun)" />
<ellipse cx="222" cy="403.5" rx="3.00267" ry="1" stroke-width="0.56" fill-opacity="1" stroke-opacity="1" stroke="#C00" fill="url(#grad178.000000284.000000NRCRedun)" />
<polygon points="116,407 116,528.5 178,284 178,403.5 " fill="#A0413B" stroke="#A0413B" stroke-width="1" stroke-opacity="0.5" fill-opacity="0.5" />
<defs id="" >
<linearGradient id="grad100.000000286.500000" x1="0%" y1="0%" x2="100%" y2="0%" >
<stop offset="30%" stop-color="#2D2C78" stop-opacity="1" />
<stop offset="100%" stop-color="#3C3BA0" stop-opacity="1" />
</linearGradient>
</defs>
<path id="100.000000286.500000" d="M 100,286.5
v 121
a 8,2 0 0,0 16,0
v -121
a 8,2 0 0,0 -16,0
z
" fill="url(#grad100.000000286.500000)" fill-opacity="1" stroke="#1E1D50" stroke-opacity="1" stroke-linejoin="round" stroke-width="0.75" />
<ellipse cx="108" cy="286.5" rx="8.18" ry="2" stroke-width="0.3" fill-opacity="1" stroke-opacity="1" stroke="#1E1D50" fill="url(#grad100.000000286.500000)" />
<ellipse cx="108" cy="407.5" rx="8.18" ry="2" stroke-width="0.3" fill-opacity="1" stroke-opacity="1" stroke="#1E1D50" fill="url(#grad100.000000286.500000)" />
<defs id="" >
<linearGradient id="grad100.000000286.500000NRC" x1="0%" y1="0%" x2="100%" y2="0%" >
<stop offset="30%" stop-color="#3366CC" stop-opacity="1" />
<stop offset="100%" stop-color="#0055ff" stop-opacity="1" />
</linearGradient>
</defs>
<path id="80.666664286.500000" d="M 80.6667,286.5
v 121
a 2.66667,1 0 0,0 5.33333,0
v -121
a 2.66667,1 0 0,0 -5.33333,0
z
" fill="url(#grad100.000000286.500000NRC)" fill-opacity="1" stroke="#03A" stroke-opacity="1" stroke-linejoin="round" stroke-width="1.4" />
<ellipse cx="83.3333" cy="286.5" rx="3.00267" ry="1" stroke-width="0.56" fill-opacity="1" stroke-opacity="1" stroke="#03A" fill="url(#grad100.000000286.500000NRC)" />
<ellipse cx="83.3333" cy="407.5" rx="3.00267" ry="1" stroke-width="0.56" fill-opacity="1" stroke-opacity="1" stroke="#03A" fill="url(#grad100.000000286.500000NRC)" />
<defs id="" >
<linearGradient id="grad100.000000286.500000NRCRedun" x1="0%" y1="0%" x2="100%" y2="0%" >
<stop offset="30%" stop-color="#CC3333" stop-opacity="1" />
<stop offset="100%" stop-color="#ff0000" stop-opacity="1" />
</linearGradient>
</defs>
<path id="69.333328286.500000" d="M 69.3333,286.5
v 121
a 2.66667,1 0 0,0 5.33333,0
v -121
a 2.66667,1 0 0,0 -5.33333,0
z
" fill="url(#grad100.000000286.500000NRCRedun)" fill-opacity="1" stroke="#C00" stroke-opacity="1" stroke-linejoin="round" stroke-width="1.4" />
<ellipse cx="72" cy="286.5" rx="3.00267" ry="1" stroke-width="0.56" fill-opacity="1" stroke-opacity="1" stroke="#C00" fill="url(#grad100.000000286.500000NRCRedun)" />
<ellipse cx="72" cy="407.5" rx="3.00267" ry="1" stroke-width="0.56" fill-opacity="1" stroke-opacity="1" stroke="#C00" fill="url(#grad100.000000286.500000NRCRedun)" />
<defs id="" >
<linearGradient id="grad178.000000410.000000" x1="0%" y1="0%" x2="100%" y2="0%" >
<stop offset="30%" stop-color="#2D2C78" stop-opacity="1" />
<stop offset="100%" stop-color="#3C3BA0" stop-opacity="1" />
</linearGradient>
</defs>
<path id="178.000000410.000000" d="M 178,410
v 119.5
a 8,2 0 0,0 16,0
v -119.5
a 8,2 0 0,0 -16,0
z
" fill="url(#grad178.000000410.000000)" fill-opacity="1" stroke="#1E1D50" stroke-opacity="1" stroke-linejoin="round" stroke-width="0.75" />
<ellipse cx="186" cy="410" rx="8.18" ry="2" stroke-width="0.3" fill-opacity="1" stroke-opacity="1" stroke="#1E1D50" fill="url(#grad178.000000410.000000)" />
<ellipse cx="186" cy="529.5" rx="8.18" ry="2" stroke-width="0.3" fill-opacity="1" stroke-opacity="1" stroke="#1E1D50" fill="url(#grad178.000000410.000000)" />
<defs id="" >
<linearGradient id="grad178.000000410.000000NRC" x1="0%" y1="0%" x2="100%" y2="0%" >
<stop offset="30%" stop-color="#3333CC" stop-opacity="1" />
<stop offset="100%" stop-color="#0000ff" stop-opacity="1" />
</linearGradient>
</defs>
<path id="208.000000410.000000" d="M 208,410
v 119.5
a 2.66667,1 0 0,0 5.33333,0
v -119.5
a 2.66667,1 0 0,0 -5.33333,0
z
" fill="url(#grad178.000000410.000000NRC)" fill-opacity="1" stroke="#00A" stroke-opacity="1" stroke-linejoin="round" stroke-width="1.4" />
<ellipse cx="210.667" cy="410" rx="3.00267" ry="1" stroke-width="0.56" fill-opacity="1" stroke-opacity="1" stroke="#00A" fill="url(#grad178.000000410.000000NRC)" />
<ellipse cx="210.667" cy="529.5" rx="3.00267" ry="1" stroke-width="0.56" fill-opacity="1" stroke-opacity="1" stroke="#00A" fill="url(#grad178.000000410.000000NRC)" />
<defs id="" >
<linearGradient id="grad178.000000410.000000NRCRedun" x1="0%" y1="0%" x2="100%" y2="0%" >
<stop offset="30%" stop-color="#CC3333" stop-opacity="1" />
<stop offset="100%" stop-color="#ff0000" stop-opacity="1" />
</linearGradient>
</defs>
<path id="219.333328410.000000" d="M 219.333,410
v 119.5
a 2.66667,1 0 0,0 5.33333,0
v -119.5
a 2.66667,1 0 0,0 -5.33333,0
z
" fill="url(#grad178.000000410.000000NRCRedun)" fill-opacity="1" stroke="#C00" stroke-opacity="1" stroke-linejoin="round" stroke-width="1.4" />
<ellipse cx="222" cy="410" rx="3.00267" ry="1" stroke-width="0.56" fill-opacity="1" stroke-opacity="1" stroke="#C00" fill="url(#grad178.000000410.000000NRCRedun)" />
<ellipse cx="222" cy="529.5" rx="3.00267" ry="1" stroke-width="0.56" fill-opacity="1" stroke-opacity="1" stroke="#C00" fill="url(#grad178.000000410.000000NRCRedun)" />
<polygon points="116,286.5 116,407.5 178,529.5 178,410 " fill="#3C3BA0" stroke="#3C3BA0" stroke-width="1" stroke-opacity="0.5" fill-opacity="0.5" />
<defs id="" >
<linearGradient id="grad100.000000162.000000" x1="0%" y1="0%" x2="100%" y2="0%" >
<stop offset="30%" stop-color="#2C7778" stop-opacity="1" />
<stop offset="100%" stop-color="#3B9FA0" stop-opacity="1" />
</linearGradient>
</defs>
<path id="100.000000162.000000" d="M 100,162
v 120
a 8,2 0 0,0 16,0
v -120
a 8,2 0 0,0 -16,0
z
" fill="url(#grad100.000000162.000000)" fill-opacity="1" stroke="#1D4F50" stroke-opacity="1" stroke-linejoin="round" stroke-width="0.75" />
<ellipse cx="108" cy="162" rx="8.18" ry="2" stroke-width="0.3" fill-opacity="1" stroke-opacity="1" stroke="#1D4F50" fill="url(#grad100.000000162.000000)" />
<ellipse cx="108" cy="282" rx="8.18" ry="2" stroke-width="0.3" fill-opacity="1" stroke-opacity="1" stroke="#1D4F50" fill="url(#grad100.000000162.000000)" />
<defs id="" >
<linearGradient id="grad100.000000162.000000NRC" x1="0%" y1="0%" x2="100%" y2="0%" >
<stop offset="30%" stop-color="#3366CC" stop-opacity="1" />
<stop offset="100%" stop-color="#0055ff" stop-opacity="1" />
</linearGradient>
</defs>
<path id="80.666664162.000000" d="M 80.6667,162
v 120
a 2.66667,1 0 0,0 5.33333,0
v -120
a 2.66667,1 0 0,0 -5.33333,0
z
" fill="url(#grad100.000000162.000000NRC)" fill-opacity="1" stroke="#03A" stroke-opacity="1" stroke-linejoin="round" stroke-width="1.4" />
<ellipse cx="83.3333" cy="162" rx="3.00267" ry="1" stroke-width="0.56" fill-opacity="1" stroke-opacity="1" stroke="#03A" fill="url(#grad100.000000162.000000NRC)" />
<ellipse cx="83.3333" cy="282" rx="3.00267" ry="1" stroke-width="0.56" fill-opacity="1" stroke-opacity="1" stroke="#03A" fill="url(#grad100.000000162.000000NRC)" />
<defs id="" >
<linearGradient id="grad100.000000162.000000NRCRedun" x1="0%" y1="0%" x2="100%" y2="0%" >
<stop offset="30%" stop-color="#CC3333" stop-opacity="1" />
<stop offset="100%" stop-color="#ff0000" stop-opacity="1" />
</linearGradient>
</defs>
<path id="69.333328162.000000" d="M 69.3333,162
v 120
a 2.66667,1 0 0,0 5.33333,0
v -120
a 2.66667,1 0 0,0 -5.33333,0
z
" fill="url(#grad100.000000162.000000NRCRedun)" fill-opacity="1" stroke="#C00" stroke-opacity="1" stroke-linejoin="round" stroke-width="1.4" />
<ellipse cx="72" cy="162" rx="3.00267" ry="1" stroke-width="0.56" fill-opacity="1" stroke-opacity="1" stroke="#C00" fill="url(#grad100.000000162.000000NRCRedun)" />
<ellipse cx="72" cy="282" rx="3.00267" ry="1" stroke-width="0.56" fill-opacity="1" stroke-opacity="1" stroke="#C00" fill="url(#grad100.000000162.000000NRCRedun)" />
<defs id="" >
<linearGradient id="grad178.00000035.000000" x1="0%" y1="0%" x2="100%" y2="0%" >
<stop offset="30%" stop-color="#2C7778" stop-opacity="1" />
<stop offset="100%" stop-color="#3B9FA0" stop-opacity="1" />
</linearGradient>
</defs>
<path id="178.00000035.000000" d="M 178,35
v 118.5
a 8,2 0 0,0 16,0
v -118.5
a 8,2 0 0,0 -16,0
z
" fill="url(#grad178.00000035.000000)" fill-opacity="1" stroke="#1D4F50" stroke-opacity="1" stroke-linejoin="round" stroke-width="0.75" />
<ellipse cx="186" cy="35" rx="8.18" ry="2" stroke-width="0.3" fill-opacity="1" stroke-opacity="1" stroke="#1D4F50" fill="url(#grad178.00000035.000000)" />
<ellipse cx="186" cy="153.5" rx="8.18" ry="2" stroke-width="0.3" fill-opacity="1" stroke-opacity="1" stroke="#1D4F50" fill="url(#grad178.00000035.000000)" />
<defs id="" >
<linearGradient id="grad178.00000035.000000NRC" x1="0%" y1="0%" x2="100%" y2="0%" >
<stop offset="30%" stop-color="#3366CC" stop-opacity="1" />
<stop offset="100%" stop-color="#0055ff" stop-opacity="1" />
</linearGradient>
</defs>
<path id="208.00000035.000000" d="M 208,35
v 118.5
a 2.66667,1 0 0,0 5.33333,0
v -118.5
a 2.66667,1 0 0,0 -5.33333,0
z
" fill="url(#grad178.00000035.000000NRC)" fill-opacity="1" stroke="#03A" stroke-opacity="1" stroke-linejoin="round" stroke-width="1.4" />
<ellipse cx="210.667" cy="35" rx="3.00267" ry="1" stroke-width="0.56" fill-opacity="1" stroke-opacity="1" stroke="#03A" fill="url(#grad178.00000035.000000NRC)" />
<ellipse cx="210.667" cy="153.5" rx="3.00267" ry="1" stroke-width="0.56" fill-opacity="1" stroke-opacity="1" stroke="#03A" fill="url(#grad178.00000035.000000NRC)" />
<defs id="" >
<linearGradient id="grad178.00000035.000000NRCRedun" x1="0%" y1="0%" x2="100%" y2="0%" >
<stop offset="30%" stop-color="#CC3333" stop-opacity="1" />
<stop offset="100%" stop-color="#ff0000" stop-opacity="1" />
</linearGradient>
</defs>
<path id="219.33332835.000000" d="M 219.333,35
v 118.5
a 2.66667,1 0 0,0 5.33333,0
v -118.5
a 2.66667,1 0 0,0 -5.33333,0
z
" fill="url(#grad178.00000035.000000NRCRedun)" fill-opacity="1" stroke="#C00" stroke-opacity="1" stroke-linejoin="round" stroke-width="1.4" />
<ellipse cx="222" cy="35" rx="3.00267" ry="1" stroke-width="0.56" fill-opacity="1" stroke-opacity="1" stroke="#C00" fill="url(#grad178.00000035.000000NRCRedun)" />
<ellipse cx="222" cy="153.5" rx="3.00267" ry="1" stroke-width="0.56" fill-opacity="1" stroke-opacity="1" stroke="#C00" fill="url(#grad178.00000035.000000NRCRedun)" />
<polygon points="116,162 116,282 178,153.5 178,35 " fill="#3B9FA0" stroke="#3B9FA0" stroke-width="1" stroke-opacity="0.5" fill-opacity="0.5" />
<defs id="" >
<linearGradient id="grad100.00000030.000000" x1="0%" y1="0%" x2="100%" y2="0%" >
<stop offset="30%" stop-color="#782C77" stop-opacity="1" />
<stop offset="100%" stop-color="#A03B9F" stop-opacity="1" />
</linearGradient>
</defs>
<path id="100.00000030.000000" d="M 100,30
v 122
a 8,2 0 0,0 16,0
v -122
a 8,2 0 0,0 -16,0
z
" fill="url(#grad100.00000030.000000)" fill-opacity="1" stroke="#501D4F" stroke-opacity="1" stroke-linejoin="round" stroke-width="0.75" />
<ellipse cx="108" cy="30" rx="8.18" ry="2" stroke-width="0.3" fill-opacity="1" stroke-opacity="1" stroke="#501D4F" fill="url(#grad100.00000030.000000)" />
<ellipse cx="108" cy="152" rx="8.18" ry="2" stroke-width="0.3" fill-opacity="1" stroke-opacity="1" stroke="#501D4F" fill="url(#grad100.00000030.000000)" />
<defs id="" >
<linearGradient id="grad100.00000030.000000NRC" x1="0%" y1="0%" x2="100%" y2="0%" >
<stop offset="30%" stop-color="#3366CC" stop-opacity="1" />
<stop offset="100%" stop-color="#0055ff" stop-opacity="1" />
</linearGradient>
</defs>
<path id="80.66666430.000000" d="M 80.6667,30
v 122
a 2.66667,1 0 0,0 5.33333,0
v -122
a 2.66667,1 0 0,0 -5.33333,0
z
" fill="url(#grad100.00000030.000000NRC)" fill-opacity="1" stroke="#03A" stroke-opacity="1" stroke-linejoin="round" stroke-width="1.4" />
<ellipse cx="83.3333" cy="30" rx="3.00267" ry="1" stroke-width="0.56" fill-opacity="1" stroke-opacity="1" stroke="#03A" fill="url(#grad100.00000030.000000NRC)" />
<ellipse cx="83.3333" cy="152" rx="3.00267" ry="1" stroke-width="0.56" fill-opacity="1" stroke-opacity="1" stroke="#03A" fill="url(#grad100.00000030.000000NRC)" />
<defs id="" >
<linearGradient id="grad100.00000030.000000NRCRedun" x1="0%" y1="0%" x2="100%" y2="0%" >
<stop offset="30%" stop-color="#CC3333" stop-opacity="1" />
<stop offset="100%" stop-color="#ff0000" stop-opacity="1" />
</linearGradient>
</defs>
<path id="69.33332830.000000" d="M 69.3333,30
v 122
a 2.66667,1 0 0,0 5.33333,0
v -122
a 2.66667,1 0 0,0 -5.33333,0
z
" fill="url(#grad100.00000030.000000NRCRedun)" fill-opacity="1" stroke="#C00" stroke-opacity="1" stroke-linejoin="round" stroke-width="1.4" />
<ellipse cx="72" cy="30" rx="3.00267" ry="1" stroke-width="0.56" fill-opacity="1" stroke-opacity="1" stroke="#C00" fill="url(#grad100.00000030.000000NRCRedun)" />
<ellipse cx="72" cy="152" rx="3.00267" ry="1" stroke-width="0.56" fill-opacity="1" stroke-opacity="1" stroke="#C00" fill="url(#grad100.00000030.000000NRCRedun)" />
<defs id="" >
<linearGradient id="grad178.000000160.000000" x1="0%" y1="0%" x2="100%" y2="0%" >
<stop offset="30%" stop-color="#782C77" stop-opacity="1" />
<stop offset="100%" stop-color="#A03B9F" stop-opacity="1" />
</linearGradient>
</defs>
<path id="178.000000160.000000" d="M 178,160
v 120
a 8,2 0 0,0 16,0
v -120
a 8,2 0 0,0 -16,0
z
" fill="url(#grad178.000000160.000000)" fill-opacity="1" stroke="#501D4F" stroke-opacity="1" stroke-linejoin="round" stroke-width="0.75" />
<ellipse cx="186" cy="160" rx="8.18" ry="2" stroke-width="0.3" fill-opacity="1" stroke-opacity="1" stroke="#501D4F" fill="url(#grad178.000000160.000000)" />
<ellipse cx="186" cy="280" rx="8.18" ry="2" stroke-width="0.3" fill-opacity="1" stroke-opacity="1" stroke="#501D4F" fill="url(#grad178.000000160.000000)" />
<defs id="" >
<pattern id="Wavy178.000000160.000000" x="178" y="160" width="16" height="14" patternUnits="userSpaceOnUse" >
<path id="" d="m -2.1,11.9
l 10.1,-9.8
l 10.1,9.8
" fill="none" fill-opacity="0.9" stroke="#413" stroke-opacity="1" stroke-linejoin="round" stroke-width="4.2" />
</pattern>
</defs>
<path id="178.000000160.000000" d="M 178,160
v 120
a 8,2 0 0,0 16,0
v -120
a 8,2 0 0,0 -16,0
z
" fill="url(#Wavy178.000000160.000000)" fill-opacity="1" stroke="#501D4F" stroke-opacity="1" stroke-linejoin="round" stroke-width="0.75" />
<ellipse cx="186" cy="160" rx="8.18" ry="2" stroke-width="0.3" fill-opacity="1" stroke-opacity="1" stroke="#501D4F" fill="url(#Wavy178.000000160.000000)" />
<ellipse cx="186" cy="280" rx="8.18" ry="2" stroke-width="0.3" fill-opacity="1" stroke-opacity="1" stroke="#501D4F" fill="url(#Wavy178.000000160.000000)" />
<defs id="" >
<linearGradient id="grad178.000000160.000000NRC" x1="0%" y1="0%" x2="100%" y2="0%" >
<stop offset="30%" stop-color="#3333CC" stop-opacity="1" />
<stop offset="100%" stop-color="#0000ff" stop-opacity="1" />
</linearGradient>
</defs>
<path id="208.000000160.000000" d="M 208,160
v 120
a 2.66667,1 0 0,0 5.33333,0
v -120
a 2.66667,1 0 0,0 -5.33333,0
z
" fill="url(#grad178.000000160.000000NRC)" fill-opacity="1" stroke="#00A" stroke-opacity="1" stroke-linejoin="round" stroke-width="1.4" />
<ellipse cx="210.667" cy="160" rx="3.00267" ry="1" stroke-width="0.56" fill-opacity="1" stroke-opacity="1" stroke="#00A" fill="url(#grad178.000000160.000000NRC)" />
<ellipse cx="210.667" cy="280" rx="3.00267" ry="1" stroke-width="0.56" fill-opacity="1" stroke-opacity="1" stroke="#00A" fill="url(#grad178.000000160.000000NRC)" />
<defs id="" >
<linearGradient id="grad178.000000160.000000NRCRedun" x1="0%" y1="0%" x2="100%" y2="0%" >
<stop offset="30%" stop-color="#CC6633" stop-opacity="1" />
<stop offset="100%" stop-color="#ff5500" stop-opacity="1" />
</linearGradient>
</defs>
<path id="219.333328160.000000" d="M 219.333,160
v 120
a 2.66667,1 0 0,0 5.33333,0
v -120
a 2.66667,1 0 0,0 -5.33333,0
z
" fill="url(#grad178.000000160.000000NRCRedun)" fill-opacity="1" stroke="#C40" stroke-opacity="1" stroke-linejoin="round" stroke-width="1.4" />
<ellipse cx="222" cy="160" rx="3.00267" ry="1" stroke-width="0.56" fill-opacity="1" stroke-opacity="1" stroke="#C40" fill="url(#grad178.000000160.000000NRCRedun)" />
<ellipse cx="222" cy="280" rx="3.00267" ry="1" stroke-width="0.56" fill-opacity="1" stroke-opacity="1" stroke="#C40" fill="url(#grad178.000000160.000000NRCRedun)" />
<polygon points="116,30 116,152 178,160 178,280 " fill="#A03B9F" stroke="#A03B9F" stroke-width="1" stroke-opacity="0.5" fill-opacity="0.5" />
<path id="100.00000030.000000" d="M 100,30
v 500
a 8,2 0 0,0 16,0
v -500
a 8,2 0 0,0 -16,0
z
" fill="none" fill-opacity="0.9" stroke="black" stroke-opacity="1" stroke-linejoin="round" stroke-width="1" />
<ellipse cx="108" cy="30" rx="8.24" ry="2" stroke-width="0.4" fill-opacity="0.9" stroke-opacity="1" stroke="black" fill="none" />
<ellipse cx="108" cy="530" rx="8.24" ry="2" stroke-width="0.4" fill-opacity="0.9" stroke-opacity="1" stroke="black" fill="none" />
<path id="178.00000030.000000" d="M 178,30
v 500
a 8,2 0 0,0 16,0
v -500
a 8,2 0 0,0 -16,0
z
" fill="none" fill-opacity="0.9" stroke="black" stroke-opacity="1" stroke-linejoin="round" stroke-width="1" />
<ellipse cx="186" cy="30" rx="8.24" ry="2" stroke-width="0.4" fill-opacity="0.9" stroke-opacity="1" stroke="black" fill="none" />
<ellipse cx="186" cy="530" rx="8.24" ry="2" stroke-width="0.4" fill-opacity="0.9" stroke-opacity="1" stroke="black" fill="none" />
<text id="108.00000020.400000" x="108" y="20.4" dominant-baseline="" baseline-shift="" alignment-baseline="" font-size="10px" font-weight="bold" font-family="Helvetica,Arial" font-variant="normal" text-anchor="middle" text-align="start" line-height="125%%" >
RefS</text>
<text id="186.00000020.400000" x="186" y="20.4" dominant-baseline="" baseline-shift="" alignment-baseline="" font-size="10px" font-weight="bold" font-family="Helvetica,Arial" font-variant="normal" text-anchor="middle" text-align="start" line-height="125%%" >
TarS</text>
<defs id="" >
<linearGradient id="grad92.000000570.000000" x1="0%" y1="0%" x2="100%" y2="0%" >
<stop offset="0%" stop-color="#0000ff" stop-opacity="1" />
<stop offset="8%" stop-color="#0055ff" stop-opacity="1" />
<stop offset="16%" stop-color="#00aaff" stop-opacity="1" />
<stop offset="25%" stop-color="#00ffff" stop-opacity="1" />
<stop offset="33%" stop-color="#00ffaa" stop-opacity="1" />
<stop offset="41%" stop-color="#00ff55" stop-opacity="1" />
<stop offset="50%" stop-color="#00ff00" stop-opacity="1" />
<stop offset="58%" stop-color="#55ff00" stop-opacity="1" />
<stop offset="66%" stop-color="#aaff00" stop-opacity="1" />
<stop offset="75%" stop-color="#ffff00" stop-opacity="1" />
<stop offset="83%" stop-color="#ffaa00" stop-opacity="1" />
<stop offset="91%" stop-color="#ff5500" stop-opacity="1" />
<stop offset="100%" stop-color="#ff0000" stop-opacity="1" />
</linearGradient>
</defs>
<rect x="92" y="570" width="110" height="11" rx="2" ry="2" fill="url(#grad92.000000570.000000)" fill-opacity="0.9" stroke="black" stroke-width="0.5" />
<text id="147.000000563.150024" x="147" y="563.15" dominant-baseline="" baseline-shift="" alignment-baseline="" font-size="9px" font-family="Helvetica,Arial" font-variant="normal" text-anchor="middle" text-align="start" line-height="125%%" >
Relative Redundancy</text>
<text id="147.000000594.150024" x="147" y="594.15" dominant-baseline="" baseline-shift="" alignment-baseline="" font-size="9px" font-family="Helvetica,Arial" font-variant="normal" text-anchor="middle" text-align="start" line-height="125%%" >
Redundancy</text>
<text id="88.000000575.500000" x="88" y="575.5" dy="2.8" dominant-baseline="" baseline-shift="" alignment-baseline="" font-size="8px" font-weight="bold" font-family="Helvetica,Arial" font-variant="normal" text-anchor="end" text-align="start" line-height="125%%" >
0.0</text>
<text id="206.000000575.500000" x="206" y="575.5" dy="2.8" dominant-baseline="" baseline-shift="" alignment-baseline="" font-size="8px" font-weight="bold" font-family="Helvetica,Arial" font-variant="normal" text-anchor="start" text-align="start" line-height="125%%" >
2.0</text>
<text id="119.500000575.500000" x="119.5" y="575.5" dy="2.8" dominant-baseline="" baseline-shift="" alignment-baseline="" font-size="8px" font-weight="bold" font-family="Helvetica,Arial" font-variant="normal" text-anchor="middle" text-align="start" line-height="125%%" >
0.5</text>
<text id="147.000000575.500000" x="147" y="575.5" dy="2.8" dominant-baseline="" baseline-shift="" alignment-baseline="" font-size="8px" font-weight="bold" font-family="Helvetica,Arial" font-variant="normal" text-anchor="middle" text-align="start" line-height="125%%" >
1.0</text>
<text id="174.500000575.500000" x="174.5" y="575.5" dy="2.8" dominant-baseline="" baseline-shift="" alignment-baseline="" font-size="8px" font-weight="bold" font-family="Helvetica,Arial" font-variant="normal" text-anchor="middle" text-align="start" line-height="125%%" >
1.5</text>
<path id="" d="M 83.3333,528.5
V 560
H 97
" fill="none" fill-opacity="0.9" stroke="black" stroke-opacity="1" stroke-linejoin="round" stroke-width="0.5" />
<path id="" d="M 210.667,529.5
V 560
H 197
" fill="none" fill-opacity="0.9" stroke="black" stroke-opacity="1" stroke-linejoin="round" stroke-width="0.5" />
<path id="" d="M 72,528.5
V 591
H 115
" fill="none" fill-opacity="0.9" stroke="black" stroke-opacity="1" stroke-linejoin="round" stroke-width="0.5" />
<path id="" d="M 222,529.5
V 591
H 179
" fill="none" fill-opacity="0.9" stroke="black" stroke-opacity="1" stroke-linejoin="round" stroke-width="0.5" />
</svg>