<?xml version="1.0" encoding="UTF-8" standalone="no"?>
<!-- Morteza Hosseini, IEETA 2018-2019 -->
<svg xmlns="http://www.w3.org/2000/svg" xmlns:xlink="http://www.w3.org/1999/xlink" width="504.00" height="650.00" >
<defs id="" >
<pattern id="Wavy" x="-10.50" y="0.00" width="21.00" height="7.00" patternUnits="userSpaceOnUse" >
<path id="" d="m 0.00,0.00
a 10.50,2.00 0.00 0,0 21.00,0.00
" fill="transparent" fill-opacity="0.90" stroke="black" stroke-opacity="1.00" stroke-linejoin="round" stroke-width="1.00" />
</pattern>
</defs>
<defs id="" >
<pattern id="WavyWhite" x="-10.50" y="0.00" width="21.00" height="7.00" patternUnits="userSpaceOnUse" >
<path id="" d="m 0.00,0.00
a 10.50,2.00 0.00 0,0 21.00,0.00
" fill="transparent" fill-opacity="0.90" stroke="white" stroke-opacity="1.00" stroke-linejoin="round" stroke-width="1.00" />
</pattern>
</defs>
<rect x="0.00" y="0.00" width="504.00" height="650.00" ry="1.00" fill="white" fill-opacity="1.00" stroke="white" stroke-width="0.00" />
<text id="210.50000085.000000" x="210.50" y="85.00" dominant-baseline="middle" font-size="12px" font-weight="bold" font-family="" text-anchor="middle" text-align="start" line-height="125%%" >
RefS</text>
<text id="293.50000085.000000" x="293.50" y="85.00" dominant-baseline="middle" font-size="12px" font-weight="bold" font-family="" text-anchor="middle" text-align="start" line-height="125%%" >
TarS</text>
<text id="161.000000100.000000" x="161.00" y="100.00" dominant-baseline="text-before-edge" font-size="9px" font-family="Arial" text-anchor="end" text-align="start" line-height="125%%" >
<tspan id="5" style="fill:#A03B9F">0</tspan>
</text>
<text id="161.000000222.000000" x="161.00" y="222.00" dominant-baseline="text-after-edge" font-size="9px" font-family="Arial" text-anchor="end" text-align="start" line-height="125%%" >
<tspan id="5" style="fill:#A03B9F">244</tspan>
</text>
<text id="161.000000232.000000" x="161.00" y="232.00" dominant-baseline="text-before-edge" font-size="9px" font-family="Arial" text-anchor="end" text-align="start" line-height="125%%" >
<tspan id="3" style="fill:#3B9FA0">264</tspan>
</text>
<text id="161.000000352.000000" x="161.00" y="352.00" dominant-baseline="text-after-edge" font-size="9px" font-family="Arial" text-anchor="end" text-align="start" line-height="125%%" >
<tspan id="3" style="fill:#3B9FA0">504</tspan>
</text>
<text id="161.000000356.500000" x="161.00" y="356.50" dominant-baseline="text-before-edge" font-size="9px" font-family="Arial" text-anchor="end" text-align="start" line-height="125%%" >
<tspan id="4" style="fill:#3C3BA0">513</tspan>
</text>
<text id="161.000000477.000000" x="161.00" y="477.00" dominant-baseline="middle" font-size="9px" font-family="Arial" text-anchor="end" text-align="start" line-height="125%%" >
<tspan id="4" style="fill:#3C3BA0">755, </tspan>
<tspan id="6" style="fill:#A0413B">754</tspan>
</text>
<text id="161.000000598.500000" x="161.00" y="598.50" dominant-baseline="text-after-edge" font-size="9px" font-family="Arial" text-anchor="end" text-align="start" line-height="125%%" >
<tspan id="6" style="fill:#A0413B">997</tspan>
</text>
<text id="343.000000105.000000" x="343.00" y="105.00" dominant-baseline="text-before-edge" font-size="9px" font-family="Arial" text-anchor="start" text-align="start" line-height="125%%" >
<tspan id="3" style="fill:#3B9FA0">10</tspan>
</text>
<text id="343.000000223.500000" x="343.00" y="223.50" dominant-baseline="text-after-edge" font-size="9px" font-family="Arial" text-anchor="start" text-align="start" line-height="125%%" >
<tspan id="3" style="fill:#3B9FA0">247</tspan>
</text>
<text id="343.000000230.000000" x="343.00" y="230.00" dominant-baseline="text-before-edge" font-size="9px" font-family="Arial" text-anchor="start" text-align="start" line-height="125%%" >
<tspan id="5" style="fill:#A03B9F">260</tspan>
</text>
<text id="343.000000350.000000" x="343.00" y="350.00" dominant-baseline="text-after-edge" font-size="9px" font-family="Arial" text-anchor="start" text-align="start" line-height="125%%" >
<tspan id="5" style="fill:#A03B9F">500</tspan>
</text>
<text id="343.000000354.000000" x="343.00" y="354.00" dominant-baseline="text-before-edge" font-size="9px" font-family="Arial" text-anchor="start" text-align="start" line-height="125%%" >
<tspan id="6" style="fill:#A0413B">508</tspan>
</text>
<text id="343.000000473.500000" x="343.00" y="473.50" dominant-baseline="text-after-edge" font-size="9px" font-family="Arial" text-anchor="start" text-align="start" line-height="125%%" >
<tspan id="6" style="fill:#A0413B">747</tspan>
</text>
<text id="343.000000480.000000" x="343.00" y="480.00" dominant-baseline="text-before-edge" font-size="9px" font-family="Arial" text-anchor="start" text-align="start" line-height="125%%" >
<tspan id="4" style="fill:#3C3BA0">760</tspan>
</text>
<text id="343.000000599.500000" x="343.00" y="599.50" dominant-baseline="text-after-edge" font-size="9px" font-family="Arial" text-anchor="start" text-align="start" line-height="125%%" >
<tspan id="4" style="fill:#3C3BA0">999</tspan>
</text>
<defs id="" >
<linearGradient id="grad200.000000477.000000" x1="0%" y1="0%" x2="100%" y2="0%" >
<stop offset="30%" stop-color="#78302C" stop-opacity="1.00" />
<stop offset="100%" stop-color="#A0413B" stop-opacity="1.00" />
</linearGradient>
</defs>
<path id="200.000000477.000000" d="M 200.00,477.00
v 121.50
a 10.50,2.00 0.00 0,0 21.00,0.00
v -121.50
a 10.50,2.00 0.00 0,1 -21.00,0.00
" fill="url(#grad200.000000477.000000)" fill-opacity="1.00" stroke="#50201D" stroke-opacity="1.00" stroke-linejoin="round" stroke-width="0.75" />
<ellipse cx="210.50" cy="477.00" rx="10.69" ry="2.00" stroke-width="0.38" fill-opacity="1.00" stroke-opacity="1.00" stroke="#50201D" fill="url(#grad200.000000477.000000)" />
<ellipse cx="210.50" cy="598.50" rx="10.69" ry="2.00" stroke-width="0.38" fill-opacity="1.00" stroke-opacity="1.00" stroke="#50201D" fill="transparent" />
<defs id="" >
<linearGradient id="grad200.000000477.000000NRC" x1="0%" y1="0%" x2="100%" y2="0%" >
<stop offset="30%" stop-color="#3366CC" stop-opacity="1.00" />
<stop offset="100%" stop-color="#0055ff" stop-opacity="1.00" />
</linearGradient>
</defs>
<path id="185.000000477.000000" d="M 185.00,477.00
v 121.50
a 3.50,1.00 0.00 0,0 7.00,0.00
v -121.50
a 3.50,1.00 0.00 0,1 -7.00,0.00
" fill="url(#grad200.000000477.000000NRC)" fill-opacity="1.00" stroke="#03A" stroke-opacity="1.00" stroke-linejoin="round" stroke-width="1.40" />
<ellipse cx="188.50" cy="477.00" rx="3.85" ry="1.00" stroke-width="0.70" fill-opacity="1.00" stroke-opacity="1.00" stroke="#03A" fill="url(#grad200.000000477.000000NRC)" />
<ellipse cx="188.50" cy="598.50" rx="3.85" ry="1.00" stroke-width="0.70" fill-opacity="1.00" stroke-opacity="1.00" stroke="#03A" fill="transparent" />
<defs id="" >
<linearGradient id="grad200.000000477.000000NRCRedun" x1="0%" y1="0%" x2="100%" y2="0%" >
<stop offset="30%" stop-color="#CC3333" stop-opacity="1.00" />
<stop offset="100%" stop-color="#ff0000" stop-opacity="1.00" />
</linearGradient>
</defs>
<path id="170.000000477.000000" d="M 170.00,477.00
v 121.50
a 3.50,1.00 0.00 0,0 7.00,0.00
v -121.50
a 3.50,1.00 0.00 0,1 -7.00,0.00
" fill="url(#grad200.000000477.000000NRCRedun)" fill-opacity="1.00" stroke="#C00" stroke-opacity="1.00" stroke-linejoin="round" stroke-width="1.40" />
<ellipse cx="173.50" cy="477.00" rx="3.85" ry="1.00" stroke-width="0.70" fill-opacity="1.00" stroke-opacity="1.00" stroke="#C00" fill="url(#grad200.000000477.000000NRCRedun)" />
<ellipse cx="173.50" cy="598.50" rx="3.85" ry="1.00" stroke-width="0.70" fill-opacity="1.00" stroke-opacity="1.00" stroke="#C00" fill="transparent" />
<defs id="" >
<linearGradient id="grad283.000000354.000000" x1="0%" y1="0%" x2="100%" y2="0%" >
<stop offset="30%" stop-color="#78302C" stop-opacity="1.00" />
<stop offset="100%" stop-color="#A0413B" stop-opacity="1.00" />
</linearGradient>
</defs>
<path id="283.000000354.000000" d="M 283.00,354.00
v 119.50
a 10.50,2.00 0.00 0,0 21.00,0.00
v -119.50
a 10.50,2.00 0.00 0,1 -21.00,0.00
" fill="url(#grad283.000000354.000000)" fill-opacity="1.00" stroke="#50201D" stroke-opacity="1.00" stroke-linejoin="round" stroke-width="0.75" />
<ellipse cx="293.50" cy="354.00" rx="10.69" ry="2.00" stroke-width="0.38" fill-opacity="1.00" stroke-opacity="1.00" stroke="#50201D" fill="url(#grad283.000000354.000000)" />
<ellipse cx="293.50" cy="473.50" rx="10.69" ry="2.00" stroke-width="0.38" fill-opacity="1.00" stroke-opacity="1.00" stroke="#50201D" fill="transparent" />
<path id="283.000000354.000000" d="M 283.00,354.00
v 119.50
a 10.50,2.00 0.00 0,0 21.00,0.00
v -119.50
a 10.50,2.00 0.00 0,1 -21.00,0.00
" fill="url(#Wavy)" fill-opacity="1.00" stroke="#50201D" stroke-opacity="1.00" stroke-linejoin="round" stroke-width="0.75" />
<ellipse cx="293.50" cy="354.00" rx="10.69" ry="2.00" stroke-width="0.38" fill-opacity="1.00" stroke-opacity="1.00" stroke="#50201D" fill="url(#Wavy)" />
<ellipse cx="293.50" cy="473.50" rx="10.69" ry="2.00" stroke-width="0.38" fill-opacity="1.00" stroke-opacity="1.00" stroke="#50201D" fill="transparent" />
<defs id="" >
<linearGradient id="grad283.000000354.000000NRC" x1="0%" y1="0%" x2="100%" y2="0%" >
<stop offset="30%" stop-color="#3333CC" stop-opacity="1.00" />
<stop offset="100%" stop-color="#0000ff" stop-opacity="1.00" />
</linearGradient>
</defs>
<path id="312.000000354.000000" d="M 312.00,354.00
v 119.50
a 3.50,1.00 0.00 0,0 7.00,0.00
v -119.50
a 3.50,1.00 0.00 0,1 -7.00,0.00
" fill="url(#grad283.000000354.000000NRC)" fill-opacity="1.00" stroke="#00A" stroke-opacity="1.00" stroke-linejoin="round" stroke-width="1.40" />
<ellipse cx="315.50" cy="354.00" rx="3.85" ry="1.00" stroke-width="0.70" fill-opacity="1.00" stroke-opacity="1.00" stroke="#00A" fill="url(#grad283.000000354.000000NRC)" />
<ellipse cx="315.50" cy="473.50" rx="3.85" ry="1.00" stroke-width="0.70" fill-opacity="1.00" stroke-opacity="1.00" stroke="#00A" fill="transparent" />
<defs id="" >
<linearGradient id="grad283.000000354.000000NRCRedun" x1="0%" y1="0%" x2="100%" y2="0%" >
<stop offset="30%" stop-color="#CC3333" stop-opacity="1.00" />
<stop offset="100%" stop-color="#ff0000" stop-opacity="1.00" />
</linearGradient>
</defs>
<path id="327.000000354.000000" d="M 327.00,354.00
v 119.50
a 3.50,1.00 0.00 0,0 7.00,0.00
v -119.50
a 3.50,1.00 0.00 0,1 -7.00,0.00
" fill="url(#grad283.000000354.000000NRCRedun)" fill-opacity="1.00" stroke="#C00" stroke-opacity="1.00" stroke-linejoin="round" stroke-width="1.40" />
<ellipse cx="330.50" cy="354.00" rx="3.85" ry="1.00" stroke-width="0.70" fill-opacity="1.00" stroke-opacity="1.00" stroke="#C00" fill="url(#grad283.000000354.000000NRCRedun)" />
<ellipse cx="330.50" cy="473.50" rx="3.85" ry="1.00" stroke-width="0.70" fill-opacity="1.00" stroke-opacity="1.00" stroke="#C00" fill="transparent" />
<polygon points="221.00,477.00 221.00,598.50 283.00,354.00 283.00,473.50 " fill="#A0413B" stroke="#A0413B" stroke-width="1.00" stroke-opacity="0.50" fill-opacity="0.50" />
<defs id="" >
<linearGradient id="grad200.000000356.500000" x1="0%" y1="0%" x2="100%" y2="0%" >
<stop offset="30%" stop-color="#2D2C78" stop-opacity="1.00" />
<stop offset="100%" stop-color="#3C3BA0" stop-opacity="1.00" />
</linearGradient>
</defs>
<path id="200.000000356.500000" d="M 200.00,356.50
v 121.00
a 10.50,2.00 0.00 0,0 21.00,0.00
v -121.00
a 10.50,2.00 0.00 0,1 -21.00,0.00
" fill="url(#grad200.000000356.500000)" fill-opacity="1.00" stroke="#1E1D50" stroke-opacity="1.00" stroke-linejoin="round" stroke-width="0.75" />
<ellipse cx="210.50" cy="356.50" rx="10.69" ry="2.00" stroke-width="0.38" fill-opacity="1.00" stroke-opacity="1.00" stroke="#1E1D50" fill="url(#grad200.000000356.500000)" />
<ellipse cx="210.50" cy="477.50" rx="10.69" ry="2.00" stroke-width="0.38" fill-opacity="1.00" stroke-opacity="1.00" stroke="#1E1D50" fill="transparent" />
<defs id="" >
<linearGradient id="grad200.000000356.500000NRC" x1="0%" y1="0%" x2="100%" y2="0%" >
<stop offset="30%" stop-color="#3366CC" stop-opacity="1.00" />
<stop offset="100%" stop-color="#0055ff" stop-opacity="1.00" />
</linearGradient>
</defs>
<path id="185.000000356.500000" d="M 185.00,356.50
v 121.00
a 3.50,1.00 0.00 0,0 7.00,0.00
v -121.00
a 3.50,1.00 0.00 0,1 -7.00,0.00
" fill="url(#grad200.000000356.500000NRC)" fill-opacity="1.00" stroke="#03A" stroke-opacity="1.00" stroke-linejoin="round" stroke-width="1.40" />
<ellipse cx="188.50" cy="356.50" rx="3.85" ry="1.00" stroke-width="0.70" fill-opacity="1.00" stroke-opacity="1.00" stroke="#03A" fill="url(#grad200.000000356.500000NRC)" />
<ellipse cx="188.50" cy="477.50" rx="3.85" ry="1.00" stroke-width="0.70" fill-opacity="1.00" stroke-opacity="1.00" stroke="#03A" fill="transparent" />
<defs id="" >
<linearGradient id="grad200.000000356.500000NRCRedun" x1="0%" y1="0%" x2="100%" y2="0%" >
<stop offset="30%" stop-color="#CC3333" stop-opacity="1.00" />
<stop offset="100%" stop-color="#ff0000" stop-opacity="1.00" />
</linearGradient>
</defs>
<path id="170.000000356.500000" d="M 170.00,356.50
v 121.00
a 3.50,1.00 0.00 0,0 7.00,0.00
v -121.00
a 3.50,1.00 0.00 0,1 -7.00,0.00
" fill="url(#grad200.000000356.500000NRCRedun)" fill-opacity="1.00" stroke="#C00" stroke-opacity="1.00" stroke-linejoin="round" stroke-width="1.40" />
<ellipse cx="173.50" cy="356.50" rx="3.85" ry="1.00" stroke-width="0.70" fill-opacity="1.00" stroke-opacity="1.00" stroke="#C00" fill="url(#grad200.000000356.500000NRCRedun)" />
<ellipse cx="173.50" cy="477.50" rx="3.85" ry="1.00" stroke-width="0.70" fill-opacity="1.00" stroke-opacity="1.00" stroke="#C00" fill="transparent" />
<defs id="" >
<linearGradient id="grad283.000000480.000000" x1="0%" y1="0%" x2="100%" y2="0%" >
<stop offset="30%" stop-color="#2D2C78" stop-opacity="1.00" />
<stop offset="100%" stop-color="#3C3BA0" stop-opacity="1.00" />
</linearGradient>
</defs>
<path id="283.000000480.000000" d="M 283.00,480.00
v 119.50
a 10.50,2.00 0.00 0,0 21.00,0.00
v -119.50
a 10.50,2.00 0.00 0,1 -21.00,0.00
" fill="url(#grad283.000000480.000000)" fill-opacity="1.00" stroke="#1E1D50" stroke-opacity="1.00" stroke-linejoin="round" stroke-width="0.75" />
<ellipse cx="293.50" cy="480.00" rx="10.69" ry="2.00" stroke-width="0.38" fill-opacity="1.00" stroke-opacity="1.00" stroke="#1E1D50" fill="url(#grad283.000000480.000000)" />
<ellipse cx="293.50" cy="599.50" rx="10.69" ry="2.00" stroke-width="0.38" fill-opacity="1.00" stroke-opacity="1.00" stroke="#1E1D50" fill="transparent" />
<defs id="" >
<linearGradient id="grad283.000000480.000000NRC" x1="0%" y1="0%" x2="100%" y2="0%" >
<stop offset="30%" stop-color="#3333CC" stop-opacity="1.00" />
<stop offset="100%" stop-color="#0000ff" stop-opacity="1.00" />
</linearGradient>
</defs>
<path id="312.000000480.000000" d="M 312.00,480.00
v 119.50
a 3.50,1.00 0.00 0,0 7.00,0.00
v -119.50
a 3.50,1.00 0.00 0,1 -7.00,0.00
" fill="url(#grad283.000000480.000000NRC)" fill-opacity="1.00" stroke="#00A" stroke-opacity="1.00" stroke-linejoin="round" stroke-width="1.40" />
<ellipse cx="315.50" cy="480.00" rx="3.85" ry="1.00" stroke-width="0.70" fill-opacity="1.00" stroke-opacity="1.00" stroke="#00A" fill="url(#grad283.000000480.000000NRC)" />
<ellipse cx="315.50" cy="599.50" rx="3.85" ry="1.00" stroke-width="0.70" fill-opacity="1.00" stroke-opacity="1.00" stroke="#00A" fill="transparent" />
<defs id="" >
<linearGradient id="grad283.000000480.000000NRCRedun" x1="0%" y1="0%" x2="100%" y2="0%" >
<stop offset="30%" stop-color="#CC3333" stop-opacity="1.00" />
<stop offset="100%" stop-color="#ff0000" stop-opacity="1.00" />
</linearGradient>
</defs>
<path id="327.000000480.000000" d="M 327.00,480.00
v 119.50
a 3.50,1.00 0.00 0,0 7.00,0.00
v -119.50
a 3.50,1.00 0.00 0,1 -7.00,0.00
" fill="url(#grad283.000000480.000000NRCRedun)" fill-opacity="1.00" stroke="#C00" stroke-opacity="1.00" stroke-linejoin="round" stroke-width="1.40" />
<ellipse cx="330.50" cy="480.00" rx="3.85" ry="1.00" stroke-width="0.70" fill-opacity="1.00" stroke-opacity="1.00" stroke="#C00" fill="url(#grad283.000000480.000000NRCRedun)" />
<ellipse cx="330.50" cy="599.50" rx="3.85" ry="1.00" stroke-width="0.70" fill-opacity="1.00" stroke-opacity="1.00" stroke="#C00" fill="transparent" />
<polygon points="221.00,356.50 221.00,477.50 283.00,599.50 283.00,480.00 " fill="#3C3BA0" stroke="#3C3BA0" stroke-width="1.00" stroke-opacity="0.50" fill-opacity="0.50" />
<defs id="" >
<linearGradient id="grad200.000000232.000000" x1="0%" y1="0%" x2="100%" y2="0%" >
<stop offset="30%" stop-color="#2C7778" stop-opacity="1.00" />
<stop offset="100%" stop-color="#3B9FA0" stop-opacity="1.00" />
</linearGradient>
</defs>
<path id="200.000000232.000000" d="M 200.00,232.00
v 120.00
a 10.50,2.00 0.00 0,0 21.00,0.00
v -120.00
a 10.50,2.00 0.00 0,1 -21.00,0.00
" fill="url(#grad200.000000232.000000)" fill-opacity="1.00" stroke="#1D4F50" stroke-opacity="1.00" stroke-linejoin="round" stroke-width="0.75" />
<ellipse cx="210.50" cy="232.00" rx="10.69" ry="2.00" stroke-width="0.38" fill-opacity="1.00" stroke-opacity="1.00" stroke="#1D4F50" fill="url(#grad200.000000232.000000)" />
<ellipse cx="210.50" cy="352.00" rx="10.69" ry="2.00" stroke-width="0.38" fill-opacity="1.00" stroke-opacity="1.00" stroke="#1D4F50" fill="transparent" />
<defs id="" >
<linearGradient id="grad200.000000232.000000NRC" x1="0%" y1="0%" x2="100%" y2="0%" >
<stop offset="30%" stop-color="#3366CC" stop-opacity="1.00" />
<stop offset="100%" stop-color="#0055ff" stop-opacity="1.00" />
</linearGradient>
</defs>
<path id="185.000000232.000000" d="M 185.00,232.00
v 120.00
a 3.50,1.00 0.00 0,0 7.00,0.00
v -120.00
a 3.50,1.00 0.00 0,1 -7.00,0.00
" fill="url(#grad200.000000232.000000NRC)" fill-opacity="1.00" stroke="#03A" stroke-opacity="1.00" stroke-linejoin="round" stroke-width="1.40" />
<ellipse cx="188.50" cy="232.00" rx="3.85" ry="1.00" stroke-width="0.70" fill-opacity="1.00" stroke-opacity="1.00" stroke="#03A" fill="url(#grad200.000000232.000000NRC)" />
<ellipse cx="188.50" cy="352.00" rx="3.85" ry="1.00" stroke-width="0.70" fill-opacity="1.00" stroke-opacity="1.00" stroke="#03A" fill="transparent" />
<defs id="" >
<linearGradient id="grad200.000000232.000000NRCRedun" x1="0%" y1="0%" x2="100%" y2="0%" >
<stop offset="30%" stop-color="#CC3333" stop-opacity="1.00" />
<stop offset="100%" stop-color="#ff0000" stop-opacity="1.00" />
</linearGradient>
</defs>
<path id="170.000000232.000000" d="M 170.00,232.00
v 120.00
a 3.50,1.00 0.00 0,0 7.00,0.00
v -120.00
a 3.50,1.00 0.00 0,1 -7.00,0.00
" fill="url(#grad200.000000232.000000NRCRedun)" fill-opacity="1.00" stroke="#C00" stroke-opacity="1.00" stroke-linejoin="round" stroke-width="1.40" />
<ellipse cx="173.50" cy="232.00" rx="3.85" ry="1.00" stroke-width="0.70" fill-opacity="1.00" stroke-opacity="1.00" stroke="#C00" fill="url(#grad200.000000232.000000NRCRedun)" />
<ellipse cx="173.50" cy="352.00" rx="3.85" ry="1.00" stroke-width="0.70" fill-opacity="1.00" stroke-opacity="1.00" stroke="#C00" fill="transparent" />
<defs id="" >
<linearGradient id="grad283.000000105.000000" x1="0%" y1="0%" x2="100%" y2="0%" >
<stop offset="30%" stop-color="#2C7778" stop-opacity="1.00" />
<stop offset="100%" stop-color="#3B9FA0" stop-opacity="1.00" />
</linearGradient>
</defs>
<path id="283.000000105.000000" d="M 283.00,105.00
v 118.50
a 10.50,2.00 0.00 0,0 21.00,0.00
v -118.50
a 10.50,2.00 0.00 0,1 -21.00,0.00
" fill="url(#grad283.000000105.000000)" fill-opacity="1.00" stroke="#1D4F50" stroke-opacity="1.00" stroke-linejoin="round" stroke-width="0.75" />
<ellipse cx="293.50" cy="105.00" rx="10.69" ry="2.00" stroke-width="0.38" fill-opacity="1.00" stroke-opacity="1.00" stroke="#1D4F50" fill="url(#grad283.000000105.000000)" />
<ellipse cx="293.50" cy="223.50" rx="10.69" ry="2.00" stroke-width="0.38" fill-opacity="1.00" stroke-opacity="1.00" stroke="#1D4F50" fill="transparent" />
<defs id="" >
<linearGradient id="grad283.000000105.000000NRC" x1="0%" y1="0%" x2="100%" y2="0%" >
<stop offset="30%" stop-color="#3366CC" stop-opacity="1.00" />
<stop offset="100%" stop-color="#0055ff" stop-opacity="1.00" />
</linearGradient>
</defs>
<path id="312.000000105.000000" d="M 312.00,105.00
v 118.50
a 3.50,1.00 0.00 0,0 7.00,0.00
v -118.50
a 3.50,1.00 0.00 0,1 -7.00,0.00
" fill="url(#grad283.000000105.000000NRC)" fill-opacity="1.00" stroke="#03A" stroke-opacity="1.00" stroke-linejoin="round" stroke-width="1.40" />
<ellipse cx="315.50" cy="105.00" rx="3.85" ry="1.00" stroke-width="0.70" fill-opacity="1.00" stroke-opacity="1.00" stroke="#03A" fill="url(#grad283.000000105.000000NRC)" />
<ellipse cx="315.50" cy="223.50" rx="3.85" ry="1.00" stroke-width="0.70" fill-opacity="1.00" stroke-opacity="1.00" stroke="#03A" fill="transparent" />
<defs id="" >
<linearGradient id="grad283.000000105.000000NRCRedun" x1="0%" y1="0%" x2="100%" y2="0%" >
<stop offset="30%" stop-color="#CC3333" stop-opacity="1.00" />
<stop offset="100%" stop-color="#ff0000" stop-opacity="1.00" />
</linearGradient>
</defs>
<path id="327.000000105.000000" d="M 327.00,105.00
v 118.50
a 3.50,1.00 0.00 0,0 7.00,0.00
v -118.50
a 3.50,1.00 0.00 0,1 -7.00,0.00
" fill="url(#grad283.000000105.000000NRCRedun)" fill-opacity="1.00" stroke="#C00" stroke-opacity="1.00" stroke-linejoin="round" stroke-width="1.40" />
<ellipse cx="330.50" cy="105.00" rx="3.85" ry="1.00" stroke-width="0.70" fill-opacity="1.00" stroke-opacity="1.00" stroke="#C00" fill="url(#grad283.000000105.000000NRCRedun)" />
<ellipse cx="330.50" cy="223.50" rx="3.85" ry="1.00" stroke-width="0.70" fill-opacity="1.00" stroke-opacity="1.00" stroke="#C00" fill="transparent" />
<polygon points="221.00,232.00 221.00,352.00 283.00,223.50 283.00,105.00 " fill="#3B9FA0" stroke="#3B9FA0" stroke-width="1.00" stroke-opacity="0.50" fill-opacity="0.50" />
<defs id="" >
<linearGradient id="grad200.000000100.000000" x1="0%" y1="0%" x2="100%" y2="0%" >
<stop offset="30%" stop-color="#782C77" stop-opacity="1.00" />
<stop offset="100%" stop-color="#A03B9F" stop-opacity="1.00" />
</linearGradient>
</defs>
<path id="200.000000100.000000" d="M 200.00,100.00
v 122.00
a 10.50,2.00 0.00 0,0 21.00,0.00
v -122.00
a 10.50,2.00 0.00 0,1 -21.00,0.00
" fill="url(#grad200.000000100.000000)" fill-opacity="1.00" stroke="#501D4F" stroke-opacity="1.00" stroke-linejoin="round" stroke-width="0.75" />
<ellipse cx="210.50" cy="100.00" rx="10.69" ry="2.00" stroke-width="0.38" fill-opacity="1.00" stroke-opacity="1.00" stroke="#501D4F" fill="url(#grad200.000000100.000000)" />
<ellipse cx="210.50" cy="222.00" rx="10.69" ry="2.00" stroke-width="0.38" fill-opacity="1.00" stroke-opacity="1.00" stroke="#501D4F" fill="transparent" />
<defs id="" >
<linearGradient id="grad200.000000100.000000NRC" x1="0%" y1="0%" x2="100%" y2="0%" >
<stop offset="30%" stop-color="#3366CC" stop-opacity="1.00" />
<stop offset="100%" stop-color="#0055ff" stop-opacity="1.00" />
</linearGradient>
</defs>
<path id="185.000000100.000000" d="M 185.00,100.00
v 122.00
a 3.50,1.00 0.00 0,0 7.00,0.00
v -122.00
a 3.50,1.00 0.00 0,1 -7.00,0.00
" fill="url(#grad200.000000100.000000NRC)" fill-opacity="1.00" stroke="#03A" stroke-opacity="1.00" stroke-linejoin="round" stroke-width="1.40" />
<ellipse cx="188.50" cy="100.00" rx="3.85" ry="1.00" stroke-width="0.70" fill-opacity="1.00" stroke-opacity="1.00" stroke="#03A" fill="url(#grad200.000000100.000000NRC)" />
<ellipse cx="188.50" cy="222.00" rx="3.85" ry="1.00" stroke-width="0.70" fill-opacity="1.00" stroke-opacity="1.00" stroke="#03A" fill="transparent" />
<defs id="" >
<linearGradient id="grad200.000000100.000000NRCRedun" x1="0%" y1="0%" x2="100%" y2="0%" >
<stop offset="30%" stop-color="#CC3333" stop-opacity="1.00" />
<stop offset="100%" stop-color="#ff0000" stop-opacity="1.00" />
</linearGradient>
</defs>
<path id="170.000000100.000000" d="M 170.00,100.00
v 122.00
a 3.50,1.00 0.00 0,0 7.00,0.00
v -122.00
a 3.50,1.00 0.00 0,1 -7.00,0.00
" fill="url(#grad200.000000100.000000NRCRedun)" fill-opacity="1.00" stroke="#C00" stroke-opacity="1.00" stroke-linejoin="round" stroke-width="1.40" />
<ellipse cx="173.50" cy="100.00" rx="3.85" ry="1.00" stroke-width="0.70" fill-opacity="1.00" stroke-opacity="1.00" stroke="#C00" fill="url(#grad200.000000100.000000NRCRedun)" />
<ellipse cx="173.50" cy="222.00" rx="3.85" ry="1.00" stroke-width="0.70" fill-opacity="1.00" stroke-opacity="1.00" stroke="#C00" fill="transparent" />
<defs id="" >
<linearGradient id="grad283.000000230.000000" x1="0%" y1="0%" x2="100%" y2="0%" >
<stop offset="30%" stop-color="#782C77" stop-opacity="1.00" />
<stop offset="100%" stop-color="#A03B9F" stop-opacity="1.00" />
</linearGradient>
</defs>
<path id="283.000000230.000000" d="M 283.00,230.00
v 120.00
a 10.50,2.00 0.00 0,0 21.00,0.00
v -120.00
a 10.50,2.00 0.00 0,1 -21.00,0.00
" fill="url(#grad283.000000230.000000)" fill-opacity="1.00" stroke="#501D4F" stroke-opacity="1.00" stroke-linejoin="round" stroke-width="0.75" />
<ellipse cx="293.50" cy="230.00" rx="10.69" ry="2.00" stroke-width="0.38" fill-opacity="1.00" stroke-opacity="1.00" stroke="#501D4F" fill="url(#grad283.000000230.000000)" />
<ellipse cx="293.50" cy="350.00" rx="10.69" ry="2.00" stroke-width="0.38" fill-opacity="1.00" stroke-opacity="1.00" stroke="#501D4F" fill="transparent" />
<path id="283.000000230.000000" d="M 283.00,230.00
v 120.00
a 10.50,2.00 0.00 0,0 21.00,0.00
v -120.00
a 10.50,2.00 0.00 0,1 -21.00,0.00
" fill="url(#Wavy)" fill-opacity="1.00" stroke="#501D4F" stroke-opacity="1.00" stroke-linejoin="round" stroke-width="0.75" />
<ellipse cx="293.50" cy="230.00" rx="10.69" ry="2.00" stroke-width="0.38" fill-opacity="1.00" stroke-opacity="1.00" stroke="#501D4F" fill="url(#Wavy)" />
<ellipse cx="293.50" cy="350.00" rx="10.69" ry="2.00" stroke-width="0.38" fill-opacity="1.00" stroke-opacity="1.00" stroke="#501D4F" fill="transparent" />
<defs id="" >
<linearGradient id="grad283.000000230.000000NRC" x1="0%" y1="0%" x2="100%" y2="0%" >
<stop offset="30%" stop-color="#3333CC" stop-opacity="1.00" />
<stop offset="100%" stop-color="#0000ff" stop-opacity="1.00" />
</linearGradient>
</defs>
<path id="312.000000230.000000" d="M 312.00,230.00
v 120.00
a 3.50,1.00 0.00 0,0 7.00,0.00
v -120.00
a 3.50,1.00 0.00 0,1 -7.00,0.00
" fill="url(#grad283.000000230.000000NRC)" fill-opacity="1.00" stroke="#00A" stroke-opacity="1.00" stroke-linejoin="round" stroke-width="1.40" />
<ellipse cx="315.50" cy="230.00" rx="3.85" ry="1.00" stroke-width="0.70" fill-opacity="1.00" stroke-opacity="1.00" stroke="#00A" fill="url(#grad283.000000230.000000NRC)" />
<ellipse cx="315.50" cy="350.00" rx="3.85" ry="1.00" stroke-width="0.70" fill-opacity="1.00" stroke-opacity="1.00" stroke="#00A" fill="transparent" />
<defs id="" >
<linearGradient id="grad283.000000230.000000NRCRedun" x1="0%" y1="0%" x2="100%" y2="0%" >
<stop offset="30%" stop-color="#CC3333" stop-opacity="1.00" />
<stop offset="100%" stop-color="#ff0000" stop-opacity="1.00" />
</linearGradient>
</defs>
<path id="327.000000230.000000" d="M 327.00,230.00
v 120.00
a 3.50,1.00 0.00 0,0 7.00,0.00
v -120.00
a 3.50,1.00 0.00 0,1 -7.00,0.00
" fill="url(#grad283.000000230.000000NRCRedun)" fill-opacity="1.00" stroke="#C00" stroke-opacity="1.00" stroke-linejoin="round" stroke-width="1.40" />
<ellipse cx="330.50" cy="230.00" rx="3.85" ry="1.00" stroke-width="0.70" fill-opacity="1.00" stroke-opacity="1.00" stroke="#C00" fill="url(#grad283.000000230.000000NRCRedun)" />
<ellipse cx="330.50" cy="350.00" rx="3.85" ry="1.00" stroke-width="0.70" fill-opacity="1.00" stroke-opacity="1.00" stroke="#C00" fill="transparent" />
<polygon points="221.00,100.00 221.00,222.00 283.00,230.00 283.00,350.00 " fill="#A03B9F" stroke="#A03B9F" stroke-width="1.00" stroke-opacity="0.50" fill-opacity="0.50" />
<path id="200.000000100.000000" d="M 200.00,100.00
v 500.00
a 10.50,2.00 0.00 0,0 21.00,0.00
v -500.00
a 10.50,2.00 0.00 0,1 -21.00,0.00
" fill="transparent" fill-opacity="0.90" stroke="black" stroke-opacity="1.00" stroke-linejoin="round" stroke-width="2.00" />
<ellipse cx="210.50" cy="100.00" rx="11.00" ry="2.00" stroke-width="1.00" fill-opacity="0.90" stroke-opacity="1.00" stroke="black" fill="transparent" />
<ellipse cx="210.50" cy="600.00" rx="11.00" ry="2.00" stroke-width="1.00" fill-opacity="0.90" stroke-opacity="1.00" stroke="black" fill="transparent" />
<path id="283.000000100.000000" d="M 283.00,100.00
v 500.00
a 10.50,2.00 0.00 0,0 21.00,0.00
v -500.00
a 10.50,2.00 0.00 0,1 -21.00,0.00
" fill="transparent" fill-opacity="0.90" stroke="black" stroke-opacity="1.00" stroke-linejoin="round" stroke-width="2.00" />
<ellipse cx="293.50" cy="100.00" rx="11.00" ry="2.00" stroke-width="1.00" fill-opacity="0.90" stroke-opacity="1.00" stroke="black" fill="transparent" />
<ellipse cx="293.50" cy="600.00" rx="11.00" ry="2.00" stroke-width="1.00" fill-opacity="0.90" stroke-opacity="1.00" stroke="black" fill="transparent" />
<text id="252.00000024.000000" x="252.00" y="24.00" dy="-3.00" dominant-baseline="text-after-edge" font-size="9px" font-family="Arial" text-anchor="middle" text-align="start" line-height="125%%" >
RELATIVE REDUNDANCY</text>
<text id="252.00000036.000000" x="252.00" y="36.00" dy="3.00" dominant-baseline="text-before-edge" font-size="9px" font-family="Arial" text-anchor="middle" text-align="start" line-height="125%%" >
REDUNDANCY</text>
<defs id="" >
<linearGradient id="grad170.00000024.000000" x1="0%" y1="0%" x2="100%" y2="0%" >
<stop offset="0%" stop-color="#0000ff" stop-opacity="1.00" />
<stop offset="8%" stop-color="#0055ff" stop-opacity="1.00" />
<stop offset="16%" stop-color="#00aaff" stop-opacity="1.00" />
<stop offset="25%" stop-color="#00ffff" stop-opacity="1.00" />
<stop offset="33%" stop-color="#00ffaa" stop-opacity="1.00" />
<stop offset="41%" stop-color="#00ff55" stop-opacity="1.00" />
<stop offset="50%" stop-color="#00ff00" stop-opacity="1.00" />
<stop offset="58%" stop-color="#55ff00" stop-opacity="1.00" />
<stop offset="66%" stop-color="#aaff00" stop-opacity="1.00" />
<stop offset="75%" stop-color="#ffff00" stop-opacity="1.00" />
<stop offset="83%" stop-color="#ffaa00" stop-opacity="1.00" />
<stop offset="91%" stop-color="#ff5500" stop-opacity="1.00" />
<stop offset="100%" stop-color="#ff0000" stop-opacity="1.00" />
</linearGradient>
</defs>
<rect x="170.00" y="24.00" width="164.00" height="12.00" ry="1.00" fill="url(#grad170.00000024.000000)" fill-opacity="0.90" stroke="black" stroke-width="0.40" />
<text id="168.00000030.000000" x="168.00" y="30.00" dx="-2.50" dominant-baseline="middle" font-size="9px" font-weight="normal" font-family="Arial" text-anchor="end" text-align="start" line-height="125%%" >
0.0</text>
<text id="211.00000030.000000" x="211.00" y="30.00" dominant-baseline="middle" font-size="9px" font-weight="normal" font-family="Arial" text-anchor="middle" text-align="start" line-height="125%%" >
0.5</text>
<text id="252.00000030.000000" x="252.00" y="30.00" dominant-baseline="middle" font-size="9px" font-weight="normal" font-family="Arial" text-anchor="middle" text-align="start" line-height="125%%" >
1.0</text>
<text id="293.00000030.000000" x="293.00" y="30.00" dominant-baseline="middle" font-size="9px" font-weight="normal" font-family="Arial" text-anchor="middle" text-align="start" line-height="125%%" >
1.5</text>
<text id="336.00000030.000000" x="336.00" y="30.00" dx="2.50" dominant-baseline="middle" font-size="9px" font-weight="normal" font-family="Arial" text-anchor="start" text-align="start" line-height="125%%" >
2.0</text>
<path id="" d="M 188.50,598.50
v 21.50
h 12.40
" fill="transparent" fill-opacity="0.90" stroke="black" stroke-opacity="1.00" stroke-linejoin="round" stroke-dasharray="8 3" stroke-width="1.00" />
<path id="" d="M 315.50,599.50
v 20.50
h -12.40
" fill="transparent" fill-opacity="0.90" stroke="black" stroke-opacity="1.00" stroke-linejoin="round" stroke-dasharray="8 3" stroke-width="1.00" />
<text id="252.000000620.000000" x="252.00" y="620.00" dominant-baseline="middle" font-size="9px" font-family="Arial" text-anchor="middle" text-align="start" line-height="125%%" >
Relative Redundancy</text>
<path id="" d="M 173.50,598.50
v 36.50
h 42.40
" fill="transparent" fill-opacity="0.90" stroke="black" stroke-opacity="1.00" stroke-linejoin="round" stroke-dasharray="8 3" stroke-width="1.00" />
<path id="" d="M 330.50,599.50
v 35.50
h -42.40
" fill="transparent" fill-opacity="0.90" stroke="black" stroke-opacity="1.00" stroke-linejoin="round" stroke-dasharray="8 3" stroke-width="1.00" />
<text id="252.000000635.000000" x="252.00" y="635.00" dominant-baseline="middle" font-size="9px" font-family="Arial" text-anchor="middle" text-align="start" line-height="125%%" >
Redundancy</text>
</svg>