<?xml version="1.0" encoding="UTF-8" standalone="no"?>
<!-- Morteza Hosseini, IEETA 2018-2019 -->

<svg xmlns="http://www.w3.org/2000/svg" width="504" height="650" >
<defs id="ffff" >
<pattern id="Wavy" x="-10.50" y="0.00" width="21.00" height="7.00" patternUnits="userSpaceOnUse" >
<path d="m0,0 a 10.500000,2.000000 0 0,0 21.000000,0 " fill="transparent" fill-opacity="0.8" stroke="black" stroke-linejoin="round" stroke-dasharray="" stroke-width="1.00" />
</pattern>
</defs>

<defs id="ffff" >
<pattern id="WavyWhite" x="-10.50" y="0.00" width="21.00" height="7.00" patternUnits="userSpaceOnUse" >
<path d="m0,0 a 10.500000,2.000000 0 0,0 21.000000,0 " fill="transparent" fill-opacity="0.8" stroke="white" stroke-linejoin="round" stroke-dasharray="" stroke-width="1.00" />
</pattern>
</defs>

<rect fill="white" stroke="white" fill-opacity="0.95" width="504.00" height="650.00" x="0.00" y="0.00" ry="3" />

<text id="210.50000085.000000" x="210.50" y="85.00" dx="0" dy="0" dominant-baseline="middle" transform="" font-size="12px" font-weight="normal" font-family="Arial" fill="black" text-align="start" line-height="125%%" text-anchor="middle" >RefXL</text>

<text id="293.50000085.000000" x="293.50" y="85.00" dx="0" dy="0" dominant-baseline="middle" transform="" font-size="12px" font-weight="normal" font-family="Arial" fill="black" text-align="start" line-height="125%%" text-anchor="middle" >TarXL</text>

<text id="161.000000100.000000" x="161.00" y="100.00" dx="0" dy="0" dominant-baseline="text-before-edge" transform="" font-size="9px" font-weight="normal" font-family="Arial" fill="black" text-align="start" line-height="125%%" text-anchor="end" ><tspan id="0" style="fill:#A03C3B">0</tspan>
</text>

<text id="161.000000225.000030" x="161.00" y="225.00" dx="0" dy="0" dominant-baseline="middle" transform="" font-size="9px" font-weight="normal" font-family="Arial" fill="black" text-align="start" line-height="125%%" text-anchor="end" ><tspan id="0" style="fill:#A03C3B">25000025, </tspan>
<tspan id="3" style="fill:#3B9FA0">24999987</tspan>
</text>

<text id="161.000000349.999945" x="161.00" y="350.00" dx="0" dy="0" dominant-baseline="text-after-edge" transform="" font-size="9px" font-weight="normal" font-family="Arial" fill="black" text-align="start" line-height="125%%" text-anchor="end" ><tspan id="3" style="fill:#3B9FA0">49999989</tspan>
</text>

<text id="161.000000349.999990" x="161.00" y="350.00" dx="0" dy="0" dominant-baseline="text-before-edge" transform="" font-size="9px" font-weight="normal" font-family="Arial" fill="black" text-align="start" line-height="125%%" text-anchor="end" ><tspan id="2" style="fill:#3BA03C">49999998</tspan>
</text>

<text id="161.000000474.999930" x="161.00" y="475.00" dx="0" dy="0" dominant-baseline="text-after-edge" transform="" font-size="9px" font-weight="normal" font-family="Arial" fill="black" text-align="start" line-height="125%%" text-anchor="end" ><tspan id="2" style="fill:#3BA03C">74999986</tspan>
</text>

<text id="161.000000474.999995" x="161.00" y="475.00" dx="0" dy="0" dominant-baseline="text-before-edge" transform="" font-size="9px" font-weight="normal" font-family="Arial" fill="black" text-align="start" line-height="125%%" text-anchor="end" ><tspan id="1" style="fill:#9FA03B">74999999</tspan>
</text>

<text id="161.000000599.999995" x="161.00" y="600.00" dx="0" dy="0" dominant-baseline="text-after-edge" transform="" font-size="9px" font-weight="normal" font-family="Arial" fill="black" text-align="start" line-height="125%%" text-anchor="end" ><tspan id="1" style="fill:#9FA03B">99999999</tspan>
</text>

<text id="343.000000100.000000" x="343.00" y="100.00" dx="0" dy="0" dominant-baseline="text-before-edge" transform="" font-size="9px" font-weight="normal" font-family="Arial" fill="black" text-align="start" line-height="125%%" text-anchor="start" ><tspan id="0" style="fill:#A03C3B">0</tspan>
</text>

<text id="343.000000224.999950" x="343.00" y="225.00" dx="0" dy="0" dominant-baseline="text-after-edge" transform="" font-size="9px" font-weight="normal" font-family="Arial" fill="black" text-align="start" line-height="125%%" text-anchor="start" ><tspan id="0" style="fill:#A03C3B">24999990</tspan>
</text>

<text id="343.000000225.000175" x="343.00" y="225.00" dx="0" dy="0" dominant-baseline="text-before-edge" transform="" font-size="9px" font-weight="normal" font-family="Arial" fill="black" text-align="start" line-height="125%%" text-anchor="start" ><tspan id="2" style="fill:#3BA03C">25000035</tspan>
</text>

<text id="343.000000349.999915" x="343.00" y="350.00" dx="0" dy="0" dominant-baseline="text-after-edge" transform="" font-size="9px" font-weight="normal" font-family="Arial" fill="black" text-align="start" line-height="125%%" text-anchor="start" ><tspan id="2" style="fill:#3BA03C">49999983</tspan>
</text>

<text id="343.000000350.000085" x="343.00" y="350.00" dx="0" dy="0" dominant-baseline="text-before-edge" transform="" font-size="9px" font-weight="normal" font-family="Arial" fill="black" text-align="start" line-height="125%%" text-anchor="start" ><tspan id="1" style="fill:#9FA03B">50000017</tspan>
</text>

<text id="343.000000475.000005" x="343.00" y="475.00" dx="0" dy="0" dominant-baseline="text-after-edge" transform="" font-size="9px" font-weight="normal" font-family="Arial" fill="black" text-align="start" line-height="125%%" text-anchor="start" ><tspan id="1" style="fill:#9FA03B">75000001</tspan>
</text>

<text id="343.000000475.000160" x="343.00" y="475.00" dx="0" dy="0" dominant-baseline="text-before-edge" transform="" font-size="9px" font-weight="normal" font-family="Arial" fill="black" text-align="start" line-height="125%%" text-anchor="start" ><tspan id="3" style="fill:#3B9FA0">75000032</tspan>
</text>

<text id="343.000000599.999995" x="343.00" y="600.00" dx="0" dy="0" dominant-baseline="text-after-edge" transform="" font-size="9px" font-weight="normal" font-family="Arial" fill="black" text-align="start" line-height="125%%" text-anchor="start" ><tspan id="3" style="fill:#3B9FA0">99999999</tspan>
</text>

<path d="M 200.000000,100.000000  v 125.000125 a 10.500000,2.000000 0 0,0 21.000000,0  v -125.000125 a 10.500000,2.000000 0 0,0 -21.000000,0  a 10.500000,2.000000 0 0,0 21.000000,0 " fill="#A03C3B" fill-opacity="0.95" stroke="#501E1D" stroke-linejoin="round" stroke-dasharray="" stroke-width="0.25" />

<path d="M 200.000000,225.000125  a 10.500000,2.000000 0 0,1 21.000000,0 " fill="transparent" fill-opacity="0.95" stroke="#501E1D" stroke-linejoin="round" stroke-dasharray="4 1" stroke-width="0.12" />

<path d="M 185.000000,100.000000  v 125.000125 a 3.500000,2.000000 0 0,0 7.000000,0  v -125.000125 a 3.500000,2.000000 0 0,0 -7.000000,0  a 3.500000,2.000000 0 0,0 7.000000,0 " fill="#0000ff" fill-opacity="0.95" stroke="#00C" stroke-linejoin="round" stroke-dasharray="" stroke-width="0.50" />

<path d="M 185.000000,225.000125  a 3.500000,2.000000 0 0,1 7.000000,0 " fill="transparent" fill-opacity="0.95" stroke="#00C" stroke-linejoin="round" stroke-dasharray="4 1" stroke-width="0.25" />

<path d="M 170.000000,100.000000  v 125.000125 a 3.500000,2.000000 0 0,0 7.000000,0  v -125.000125 a 3.500000,2.000000 0 0,0 -7.000000,0  a 3.500000,2.000000 0 0,0 7.000000,0 " fill="#ff5500" fill-opacity="0.95" stroke="#C40" stroke-linejoin="round" stroke-dasharray="" stroke-width="0.50" />

<path d="M 170.000000,225.000125  a 3.500000,2.000000 0 0,1 7.000000,0 " fill="transparent" fill-opacity="0.95" stroke="#C40" stroke-linejoin="round" stroke-dasharray="4 1" stroke-width="0.25" />

<path d="M 283.000000,100.000000  v 124.999950 a 10.500000,2.000000 0 0,0 21.000000,0  v -124.999950 a 10.500000,2.000000 0 0,0 -21.000000,0  a 10.500000,2.000000 0 0,0 21.000000,0 " fill="#A03C3B" fill-opacity="0.95" stroke="#501E1D" stroke-linejoin="round" stroke-dasharray="" stroke-width="0.25" />

<path d="M 283.000000,224.999950  a 10.500000,2.000000 0 0,1 21.000000,0 " fill="transparent" fill-opacity="0.95" stroke="#501E1D" stroke-linejoin="round" stroke-dasharray="4 1" stroke-width="0.12" />

<path d="M 312.000000,100.000000  v 124.999950 a 3.500000,2.000000 0 0,0 7.000000,0  v -124.999950 a 3.500000,2.000000 0 0,0 -7.000000,0  a 3.500000,2.000000 0 0,0 7.000000,0 " fill="#0000ff" fill-opacity="0.95" stroke="#00C" stroke-linejoin="round" stroke-dasharray="" stroke-width="0.50" />

<path d="M 312.000000,224.999950  a 3.500000,2.000000 0 0,1 7.000000,0 " fill="transparent" fill-opacity="0.95" stroke="#00C" stroke-linejoin="round" stroke-dasharray="4 1" stroke-width="0.25" />

<path d="M 327.000000,100.000000  v 124.999950 a 3.500000,2.000000 0 0,0 7.000000,0  v -124.999950 a 3.500000,2.000000 0 0,0 -7.000000,0  a 3.500000,2.000000 0 0,0 7.000000,0 " fill="#ff5500" fill-opacity="0.95" stroke="#C40" stroke-linejoin="round" stroke-dasharray="" stroke-width="0.50" />

<path d="M 327.000000,224.999950  a 3.500000,2.000000 0 0,1 7.000000,0 " fill="transparent" fill-opacity="0.95" stroke="#C40" stroke-linejoin="round" stroke-dasharray="4 1" stroke-width="0.25" />

<polygon points="221.00,100.00 221.00,225.00 283.00,225.00 283.00,100.00" fill="#A03C3B" stroke="#A03C3B" stroke-width="1" stroke-opacity="0.4" fill-opacity="0.4" />

<path d="M 200.000000,474.999995  v 125.000000 a 10.500000,2.000000 0 0,0 21.000000,0  v -125.000000 a 10.500000,2.000000 0 0,0 -21.000000,0  a 10.500000,2.000000 0 0,0 21.000000,0 " fill="#9FA03B" fill-opacity="0.95" stroke="#4F501D" stroke-linejoin="round" stroke-dasharray="" stroke-width="0.25" />

<path d="M 200.000000,599.999995  a 10.500000,2.000000 0 0,1 21.000000,0 " fill="transparent" fill-opacity="0.95" stroke="#4F501D" stroke-linejoin="round" stroke-dasharray="4 1" stroke-width="0.12" />

<path d="M 185.000000,474.999995  v 125.000000 a 3.500000,2.000000 0 0,0 7.000000,0  v -125.000000 a 3.500000,2.000000 0 0,0 -7.000000,0  a 3.500000,2.000000 0 0,0 7.000000,0 " fill="#0000ff" fill-opacity="0.95" stroke="#00C" stroke-linejoin="round" stroke-dasharray="" stroke-width="0.50" />

<path d="M 185.000000,599.999995  a 3.500000,2.000000 0 0,1 7.000000,0 " fill="transparent" fill-opacity="0.95" stroke="#00C" stroke-linejoin="round" stroke-dasharray="4 1" stroke-width="0.25" />

<path d="M 170.000000,474.999995  v 125.000000 a 3.500000,2.000000 0 0,0 7.000000,0  v -125.000000 a 3.500000,2.000000 0 0,0 -7.000000,0  a 3.500000,2.000000 0 0,0 7.000000,0 " fill="#ff0000" fill-opacity="0.95" stroke="#C00" stroke-linejoin="round" stroke-dasharray="" stroke-width="0.50" />

<path d="M 170.000000,599.999995  a 3.500000,2.000000 0 0,1 7.000000,0 " fill="transparent" fill-opacity="0.95" stroke="#C00" stroke-linejoin="round" stroke-dasharray="4 1" stroke-width="0.25" />

<path d="M 283.000000,350.000085  v 124.999920 a 10.500000,2.000000 0 0,0 21.000000,0  v -124.999920 a 10.500000,2.000000 0 0,0 -21.000000,0  a 10.500000,2.000000 0 0,0 21.000000,0 " fill="#9FA03B" fill-opacity="0.95" stroke="#4F501D" stroke-linejoin="round" stroke-dasharray="" stroke-width="0.25" />

<path d="M 283.000000,475.000005  a 10.500000,2.000000 0 0,1 21.000000,0 " fill="transparent" fill-opacity="0.95" stroke="#4F501D" stroke-linejoin="round" stroke-dasharray="4 1" stroke-width="0.12" />

<path d="M 312.000000,350.000085  v 124.999920 a 3.500000,2.000000 0 0,0 7.000000,0  v -124.999920 a 3.500000,2.000000 0 0,0 -7.000000,0  a 3.500000,2.000000 0 0,0 7.000000,0 " fill="#0000ff" fill-opacity="0.95" stroke="#00C" stroke-linejoin="round" stroke-dasharray="" stroke-width="0.50" />

<path d="M 312.000000,475.000005  a 3.500000,2.000000 0 0,1 7.000000,0 " fill="transparent" fill-opacity="0.95" stroke="#00C" stroke-linejoin="round" stroke-dasharray="4 1" stroke-width="0.25" />

<path d="M 327.000000,350.000085  v 124.999920 a 3.500000,2.000000 0 0,0 7.000000,0  v -124.999920 a 3.500000,2.000000 0 0,0 -7.000000,0  a 3.500000,2.000000 0 0,0 7.000000,0 " fill="#ff0000" fill-opacity="0.95" stroke="#C00" stroke-linejoin="round" stroke-dasharray="" stroke-width="0.50" />

<path d="M 327.000000,475.000005  a 3.500000,2.000000 0 0,1 7.000000,0 " fill="transparent" fill-opacity="0.95" stroke="#C00" stroke-linejoin="round" stroke-dasharray="4 1" stroke-width="0.25" />

<polygon points="221.00,475.00 221.00,600.00 283.00,475.00 283.00,350.00" fill="#9FA03B" stroke="#9FA03B" stroke-width="1" stroke-opacity="0.4" fill-opacity="0.4" />

<path d="M 200.000000,349.999990  v 124.999940 a 10.500000,2.000000 0 0,0 21.000000,0  v -124.999940 a 10.500000,2.000000 0 0,0 -21.000000,0  a 10.500000,2.000000 0 0,0 21.000000,0 " fill="#3BA03C" fill-opacity="0.95" stroke="#1D501E" stroke-linejoin="round" stroke-dasharray="" stroke-width="0.25" />

<path d="M 200.000000,474.999930  a 10.500000,2.000000 0 0,1 21.000000,0 " fill="transparent" fill-opacity="0.95" stroke="#1D501E" stroke-linejoin="round" stroke-dasharray="4 1" stroke-width="0.12" />

<path d="M 185.000000,349.999990  v 124.999940 a 3.500000,2.000000 0 0,0 7.000000,0  v -124.999940 a 3.500000,2.000000 0 0,0 -7.000000,0  a 3.500000,2.000000 0 0,0 7.000000,0 " fill="#0055ff" fill-opacity="0.95" stroke="#04C" stroke-linejoin="round" stroke-dasharray="" stroke-width="0.50" />

<path d="M 185.000000,474.999930  a 3.500000,2.000000 0 0,1 7.000000,0 " fill="transparent" fill-opacity="0.95" stroke="#04C" stroke-linejoin="round" stroke-dasharray="4 1" stroke-width="0.25" />

<path d="M 170.000000,349.999990  v 124.999940 a 3.500000,2.000000 0 0,0 7.000000,0  v -124.999940 a 3.500000,2.000000 0 0,0 -7.000000,0  a 3.500000,2.000000 0 0,0 7.000000,0 " fill="#ff0000" fill-opacity="0.95" stroke="#C00" stroke-linejoin="round" stroke-dasharray="" stroke-width="0.50" />

<path d="M 170.000000,474.999930  a 3.500000,2.000000 0 0,1 7.000000,0 " fill="transparent" fill-opacity="0.95" stroke="#C00" stroke-linejoin="round" stroke-dasharray="4 1" stroke-width="0.25" />

<path d="M 283.000000,225.000175  v 124.999740 a 10.500000,2.000000 0 0,0 21.000000,0  v -124.999740 a 10.500000,2.000000 0 0,0 -21.000000,0  a 10.500000,2.000000 0 0,0 21.000000,0 " fill="#3BA03C" fill-opacity="0.95" stroke="#1D501E" stroke-linejoin="round" stroke-dasharray="" stroke-width="0.25" />

<path d="M 283.000000,349.999915  a 10.500000,2.000000 0 0,1 21.000000,0 " fill="transparent" fill-opacity="0.95" stroke="#1D501E" stroke-linejoin="round" stroke-dasharray="4 1" stroke-width="0.12" />

<path d="M 283.000000,225.000175  v 124.999740 a 10.500000,2.000000 0 0,0 21.000000,0  v -124.999740 a 10.500000,2.000000 0 0,0 -21.000000,0  a 10.500000,2.000000 0 0,0 21.000000,0 " fill="url(#Wavy)" fill-opacity="0.95" stroke="#1D501E" stroke-linejoin="round" stroke-dasharray="" stroke-width="0.25" />

<path d="M 283.000000,349.999915  a 10.500000,2.000000 0 0,1 21.000000,0 " fill="transparent" fill-opacity="0.95" stroke="#1D501E" stroke-linejoin="round" stroke-dasharray="4 1" stroke-width="0.12" />

<path d="M 312.000000,225.000175  v 124.999740 a 3.500000,2.000000 0 0,0 7.000000,0  v -124.999740 a 3.500000,2.000000 0 0,0 -7.000000,0  a 3.500000,2.000000 0 0,0 7.000000,0 " fill="#00ffaa" fill-opacity="0.95" stroke="#0C8" stroke-linejoin="round" stroke-dasharray="" stroke-width="0.50" />

<path d="M 312.000000,349.999915  a 3.500000,2.000000 0 0,1 7.000000,0 " fill="transparent" fill-opacity="0.95" stroke="#0C8" stroke-linejoin="round" stroke-dasharray="4 1" stroke-width="0.25" />

<path d="M 327.000000,225.000175  v 124.999740 a 3.500000,2.000000 0 0,0 7.000000,0  v -124.999740 a 3.500000,2.000000 0 0,0 -7.000000,0  a 3.500000,2.000000 0 0,0 7.000000,0 " fill="#ff0000" fill-opacity="0.95" stroke="#C00" stroke-linejoin="round" stroke-dasharray="" stroke-width="0.50" />

<path d="M 327.000000,349.999915  a 3.500000,2.000000 0 0,1 7.000000,0 " fill="transparent" fill-opacity="0.95" stroke="#C00" stroke-linejoin="round" stroke-dasharray="4 1" stroke-width="0.25" />

<polygon points="221.00,350.00 221.00,475.00 283.00,225.00 283.00,350.00" fill="#3BA03C" stroke="#3BA03C" stroke-width="1" stroke-opacity="0.4" fill-opacity="0.4" />

<path d="M 200.000000,224.999935  v 125.000010 a 10.500000,2.000000 0 0,0 21.000000,0  v -125.000010 a 10.500000,2.000000 0 0,0 -21.000000,0  a 10.500000,2.000000 0 0,0 21.000000,0 " fill="#3B9FA0" fill-opacity="0.95" stroke="#1D4F50" stroke-linejoin="round" stroke-dasharray="" stroke-width="0.25" />

<path d="M 200.000000,349.999945  a 10.500000,2.000000 0 0,1 21.000000,0 " fill="transparent" fill-opacity="0.95" stroke="#1D4F50" stroke-linejoin="round" stroke-dasharray="4 1" stroke-width="0.12" />

<path d="M 185.000000,224.999935  v 125.000010 a 3.500000,2.000000 0 0,0 7.000000,0  v -125.000010 a 3.500000,2.000000 0 0,0 -7.000000,0  a 3.500000,2.000000 0 0,0 7.000000,0 " fill="#00aaff" fill-opacity="0.95" stroke="#08C" stroke-linejoin="round" stroke-dasharray="" stroke-width="0.50" />

<path d="M 185.000000,349.999945  a 3.500000,2.000000 0 0,1 7.000000,0 " fill="transparent" fill-opacity="0.95" stroke="#08C" stroke-linejoin="round" stroke-dasharray="4 1" stroke-width="0.25" />

<path d="M 170.000000,224.999935  v 125.000010 a 3.500000,2.000000 0 0,0 7.000000,0  v -125.000010 a 3.500000,2.000000 0 0,0 -7.000000,0  a 3.500000,2.000000 0 0,0 7.000000,0 " fill="#ff5500" fill-opacity="0.95" stroke="#C40" stroke-linejoin="round" stroke-dasharray="" stroke-width="0.50" />

<path d="M 170.000000,349.999945  a 3.500000,2.000000 0 0,1 7.000000,0 " fill="transparent" fill-opacity="0.95" stroke="#C40" stroke-linejoin="round" stroke-dasharray="4 1" stroke-width="0.25" />

<path d="M 283.000000,475.000160  v 124.999835 a 10.500000,2.000000 0 0,0 21.000000,0  v -124.999835 a 10.500000,2.000000 0 0,0 -21.000000,0  a 10.500000,2.000000 0 0,0 21.000000,0 " fill="#3B9FA0" fill-opacity="0.95" stroke="#1D4F50" stroke-linejoin="round" stroke-dasharray="" stroke-width="0.25" />

<path d="M 283.000000,599.999995  a 10.500000,2.000000 0 0,1 21.000000,0 " fill="transparent" fill-opacity="0.95" stroke="#1D4F50" stroke-linejoin="round" stroke-dasharray="4 1" stroke-width="0.12" />

<path d="M 283.000000,475.000160  v 124.999835 a 10.500000,2.000000 0 0,0 21.000000,0  v -124.999835 a 10.500000,2.000000 0 0,0 -21.000000,0  a 10.500000,2.000000 0 0,0 21.000000,0 " fill="url(#Wavy)" fill-opacity="0.95" stroke="#1D4F50" stroke-linejoin="round" stroke-dasharray="" stroke-width="0.25" />

<path d="M 283.000000,599.999995  a 10.500000,2.000000 0 0,1 21.000000,0 " fill="transparent" fill-opacity="0.95" stroke="#1D4F50" stroke-linejoin="round" stroke-dasharray="4 1" stroke-width="0.12" />

<path d="M 312.000000,475.000160  v 124.999835 a 3.500000,2.000000 0 0,0 7.000000,0  v -124.999835 a 3.500000,2.000000 0 0,0 -7.000000,0  a 3.500000,2.000000 0 0,0 7.000000,0 " fill="#00ff55" fill-opacity="0.95" stroke="#0C4" stroke-linejoin="round" stroke-dasharray="" stroke-width="0.50" />

<path d="M 312.000000,599.999995  a 3.500000,2.000000 0 0,1 7.000000,0 " fill="transparent" fill-opacity="0.95" stroke="#0C4" stroke-linejoin="round" stroke-dasharray="4 1" stroke-width="0.25" />

<path d="M 327.000000,475.000160  v 124.999835 a 3.500000,2.000000 0 0,0 7.000000,0  v -124.999835 a 3.500000,2.000000 0 0,0 -7.000000,0  a 3.500000,2.000000 0 0,0 7.000000,0 " fill="#ff5500" fill-opacity="0.95" stroke="#C40" stroke-linejoin="round" stroke-dasharray="" stroke-width="0.50" />

<path d="M 327.000000,599.999995  a 3.500000,2.000000 0 0,1 7.000000,0 " fill="transparent" fill-opacity="0.95" stroke="#C40" stroke-linejoin="round" stroke-dasharray="4 1" stroke-width="0.25" />

<polygon points="221.00,225.00 221.00,350.00 283.00,475.00 283.00,600.00" fill="#3B9FA0" stroke="#3B9FA0" stroke-width="1" stroke-opacity="0.4" fill-opacity="0.4" />

<path d="M 200.000000,100.000000  v 500.000000 a 10.500000,2.000000 0 0,0 21.000000,0  v -500.000000 a 10.500000,2.000000 0 0,0 -21.000000,0  a 10.500000,2.000000 0 0,0 21.000000,0 " fill="transparent" fill-opacity="0.8" stroke="black" stroke-linejoin="round" stroke-dasharray="" stroke-width="2.00" />

<path d="M 200.000000,600.000000  a 10.500000,2.000000 0 0,1 21.000000,0 " fill="transparent" fill-opacity="0.8" stroke="black" stroke-linejoin="round" stroke-dasharray="4 1" stroke-width="1.00" />

<path d="M 283.000000,100.000000  v 500.000000 a 10.500000,2.000000 0 0,0 21.000000,0  v -500.000000 a 10.500000,2.000000 0 0,0 -21.000000,0  a 10.500000,2.000000 0 0,0 21.000000,0 " fill="transparent" fill-opacity="0.8" stroke="black" stroke-linejoin="round" stroke-dasharray="" stroke-width="2.00" />

<path d="M 283.000000,600.000000  a 10.500000,2.000000 0 0,1 21.000000,0 " fill="transparent" fill-opacity="0.8" stroke="black" stroke-linejoin="round" stroke-dasharray="4 1" stroke-width="1.00" />

<text id="252.00000024.000000" x="252.00" y="24.00" dx="0" dy="-2" dominant-baseline="text-after-edge" transform="" font-size="9px" font-weight="normal" font-family="Arial" fill="black" text-align="start" line-height="125%%" text-anchor="middle" >RELATIVE REDUNDANCY</text>

<text id="252.00000036.000000" x="252.00" y="36.00" dx="0" dy="2" dominant-baseline="text-before-edge" transform="" font-size="9px" font-weight="normal" font-family="Arial" fill="black" text-align="start" line-height="125%%" text-anchor="middle" >REDUNDANCY</text>

<defs >
<linearGradient id="grad170.00000024.000000" x1="0%" y1="0%" x2="100%" y2="0%" >
<stop offset="0%" stop-color="#0000ff" stop-opacity="1" />

<stop offset="8%" stop-color="#0055ff" stop-opacity="1" />

<stop offset="16%" stop-color="#00aaff" stop-opacity="1" />

<stop offset="25%" stop-color="#00ffff" stop-opacity="1" />

<stop offset="33%" stop-color="#00ffaa" stop-opacity="1" />

<stop offset="41%" stop-color="#00ff55" stop-opacity="1" />

<stop offset="50%" stop-color="#00ff00" stop-opacity="1" />

<stop offset="58%" stop-color="#55ff00" stop-opacity="1" />

<stop offset="66%" stop-color="#aaff00" stop-opacity="1" />

<stop offset="75%" stop-color="#ffff00" stop-opacity="1" />

<stop offset="83%" stop-color="#ffaa00" stop-opacity="1" />

<stop offset="91%" stop-color="#ff5500" stop-opacity="1" />

<stop offset="100%" stop-color="#ff0000" stop-opacity="1" />
</linearGradient>
</defs>

<rect fill="url(#grad170.00000024.000000)" width="164.00" height="12.00" x="170.00" y="24.00" ry="3" />

<text id="168.00000030.000000" x="168.00" y="30.00" dx="-2" dy="0" dominant-baseline="middle" transform="" font-size="9px" font-weight="normal" font-family="Arial" fill="black" text-align="start" line-height="125%%" text-anchor="end" >0.0</text>

<text id="211.00000030.000000" x="211.00" y="30.00" dx="0" dy="0" dominant-baseline="middle" transform="" font-size="9px" font-weight="normal" font-family="Arial" fill="black" text-align="start" line-height="125%%" text-anchor="middle" >0.5</text>

<text id="252.00000030.000000" x="252.00" y="30.00" dx="0" dy="0" dominant-baseline="middle" transform="" font-size="9px" font-weight="normal" font-family="Arial" fill="black" text-align="start" line-height="125%%" text-anchor="middle" >1.0</text>

<text id="293.00000030.000000" x="293.00" y="30.00" dx="0" dy="0" dominant-baseline="middle" transform="" font-size="9px" font-weight="normal" font-family="Arial" fill="black" text-align="start" line-height="125%%" text-anchor="middle" >1.5</text>

<text id="336.00000030.000000" x="336.00" y="30.00" dx="2" dy="0" dominant-baseline="middle" transform="" font-size="9px" font-weight="normal" font-family="Arial" fill="black" text-align="start" line-height="125%%" text-anchor="start" >2.0</text>

<path d="M 188.500000,599.999995 v 20.000005 h 12.400000" fill="transparent" fill-opacity="0.8" stroke="black" stroke-linejoin="round" stroke-dasharray="8 3" stroke-width="1.00" />

<path d="M 315.500000,599.999995 v 20.000005 h -12.400000" fill="transparent" fill-opacity="0.8" stroke="black" stroke-linejoin="round" stroke-dasharray="8 3" stroke-width="1.00" />

<text id="252.000000620.000000" x="252.00" y="620.00" dx="0" dy="0" dominant-baseline="middle" transform="" font-size="9px" font-weight="normal" font-family="Arial" fill="black" text-align="start" line-height="125%%" text-anchor="middle" >Relative Redundancy</text>

<path d="M 173.500000,599.999995 v 35.000005 h 42.400000" fill="transparent" fill-opacity="0.8" stroke="black" stroke-linejoin="round" stroke-dasharray="8 3" stroke-width="1.00" />

<path d="M 330.500000,599.999995 v 35.000005 h -42.400000" fill="transparent" fill-opacity="0.8" stroke="black" stroke-linejoin="round" stroke-dasharray="8 3" stroke-width="1.00" />

<text id="252.000000635.000000" x="252.00" y="635.00" dx="0" dy="0" dominant-baseline="middle" transform="" font-size="9px" font-weight="normal" font-family="Arial" fill="black" text-align="start" line-height="125%%" text-anchor="middle" >Redundancy</text>
</svg>