<?xml version="1.0" encoding="utf-8"?>
<!-- Generator: Adobe Illustrator 19.2.1, SVG Export Plug-In . SVG Version: 6.00 Build 0)  -->
<svg version="1.1" id="Layer_1" xmlns="http://www.w3.org/2000/svg" xmlns:xlink="http://www.w3.org/1999/xlink" x="0px" y="0px"
	 viewBox="0 0 100 100" style="enable-background:new 0 0 100 100;" xml:space="preserve">
<g id="Layer_1_1_">
</g>
<g id="Bear_Black_Shape">
</g>
<g id="Camel_Silhouette">
</g>
<g id="Dog_And_Cat_Friends_Walking_Side_By_Side">
</g>
<g id="Halloween_Black_Cat">
</g>
<g id="Black_Cat_Shape">
</g>
<g id="Cheetah_Feline_Silhouette">
</g>
<g id="Chicken">
</g>
<g id="Baby_Chicken_And_Half_Egg_Shell">
</g>
<g id="Deer_Silhouette">
</g>
<g id="Deer_Silhouette_1_">
</g>
<g id="Dog_Side_Silhouette_With_Curled_Tail">
</g>
<g id="Dog_Shape">
</g>
<g id="Fox_Shape">
</g>
<g id="Rat_Silhouette">
</g>
<g id="Owl_Bird_Shape">
</g>
<g id="Coliss_Logo">
</g>
<g id="Skunk_Silhouette">
</g>
<g id="Wallaby_Mammal_Animal_Silhouette">
</g>
<g>
	<path d="M64.6,47.3c0.3,2.4,0.7,4.7,2.5,6.6c2.1,2.2,4,4.7,6.2,7c2.3,2.4,3.6,5.6,5.9,8c0.3,0.4,0.7,1,0.3,1.3
		c-0.9,0.6-1.3,1.6-2.5,1.8c-0.9,0.2-1.6,0.1-2.5-0.2c-0.9-0.4-1.5-0.9-1.8-1.7c-0.3-0.7-0.4-1.4-0.8-2c-1.4-2.7-3.6-4.6-6.1-6.2
		c-1.8-1.3-3.8-2.2-5.6-3.5c-2.4-1.8-4-4-3.8-7.1c0-0.2,0.1-0.5-0.4-0.9c0.4,3.5-0.4,6.8-0.4,10.2c0,2.3-0.4,4.6-0.8,6.8
		c-0.2,1.3-0.4,2.3,0.7,3.2c0.3,0.3,0.6,0.6,0.4,1.1c-0.3,0.4-0.7,0.6-1.2,0.5c-1-0.2-2-0.3-3-0.6c-1-0.3-1.7-0.9-1.7-2
		c0-0.4-0.2-0.8-0.7-0.7c-0.6,0.1-1.2,0.2-1.8,0.4c-2.3,0.8-4.7,0.8-7.1,1c-0.6,0-1.3-0.2-2-0.4c-0.9-0.3-1.4-0.9-1.4-1.9
		c0-0.9,0.4-1.7,0.4-2.6c0.2-3,1.1-5.8,1.7-8.7c0.3-1.4,0.3-1.6-1.1-2.1c-1.1-0.4-2.2-0.6-3.1-1.4c-0.4,0.9,0.3,1.7,0.2,2.5
		c-0.3,1.8-0.7,3.6-1.8,5.2c-1.7,2.4-3.5,4.9-5.8,6.8c-0.2,0.2-0.6,0.3-0.5,0.6c0.1,0.4,0.5,0.2,0.8,0.3c0.9,0.2,1.9,0.3,2.8,0.4
		c0.6,0.1,1.2,0.3,1.7,0.8c0.6,0.5,0.7,1-0.2,1.3c-1.1,0.4-2.3,0.9-3.5,0.6c-1.4-0.4-2.8-0.3-4.3-0.3c-1.2,0-2.4-0.2-3.5-0.4
		c-0.5-0.1-0.9-0.3-0.9-0.9c-0.1-0.7-0.1-1.3,0.1-2c0.9-2,1.8-4,3.2-5.7c1.3-1.6,2.6-3.2,3.9-4.8c0.4-0.5,0.5-1,0.1-1.5
		c-1.6-2.2-3.1-4.5-3.6-7.2c-0.3-1.6-1.5-3.1-0.9-4.9c0.3-1.1,0.3-2.3,0.3-3.4c0-0.8,0.4-1.3,1.1-1.6c0.9-0.4,1.8-0.4,2.6-0.9
		c3.7-2.3,7.8-4,11.8-5.6c4.2-1.6,8.6-2.7,13-3.8c3.2-0.8,6.2-0.3,9.3,0.4c1.4,0.3,2.9,1.1,4.3-0.2c0.4-0.4,0.8,0,1.1,0.4
		c0.3,0.5,0.6,1,1.4,1c0.8-0.1,2.8,1.9,2.7,2.7c-0.1,0.8,0.2,1.3,0.5,2c0.3,0.6,0.4,1.3,0.4,1.9c0,0.3,0,0.7,0.2,1
		c0.5,1,0.4,1.3-0.6,1.7c-0.5,0.2-0.9,0.5-0.8,0.9c0.3,0.8,0,1.6,0.1,2.4c0.3,2.2-1.3,3.8-3.4,3.7c-0.9,0-1.5-0.6-2.4-1
		C64.6,46.1,64.6,46.7,64.6,47.3z M49.7,65.7c0.9,0.4,1.1,0,1.3-0.7c0.5-1.5,0.4-2.9-0.2-4.3c-0.6-1.7-0.8-3.5-1-5.3
		c-0.2-1.9-0.3-3.7-0.3-5.6c0-0.7-0.3-0.8-0.8-0.5c-0.9,0.5-1.8,1-2.7,1.6c-0.4,0.2-0.7,0.5-0.5,1c0.7,1.9,0.2,3.9-0.2,5.8
		c-0.3,1.7-0.8,3.4-1.2,5.1c0,0.1,0,0.2-0.1,0.3c-0.6,1.9-0.6,1.9,1.5,1.8C46.9,64.6,48.3,65.2,49.7,65.7z"/>
</g>
</svg>
