<?xml version="1.0" encoding="UTF-8" standalone="no"?>
<!-- Morteza Hosseini, IEETA 2018-2019 -->
<svg xmlns="http://www.w3.org/2000/svg" xmlns:xlink="http://www.w3.org/1999/xlink" viewBox="0 0 605.000244 260.000000" >
<rect x="0" y="0" width="605" height="260" rx="1" ry="1" fill="white" fill-opacity="0.9" stroke="white" stroke-width="0" stroke-opacity="1" />
<text id="18.50000039.333332" x="18.5" y="39.3333" dominant-baseline="" baseline-shift="" alignment-baseline="" font-size="7px" font-family="Helvetica,Arial" font-variant="normal" text-anchor="start" text-align="start" line-height="125%%" >
0 b</text>
<line id="20.37500046.33333220.37500052.333332" x1="20.375" y1="46.3333" x2="20.375" y2="52.3333" stroke-width="0.75" stroke="black" />
<line id="33.47731048.33333233.47731052.333332" x1="33.4773" y1="48.3333" x2="33.4773" y2="52.3333" stroke-width="0.5" stroke="black" />
<line id="46.95462448.33333246.95462452.333332" x1="46.9546" y1="48.3333" x2="46.9546" y2="52.3333" stroke-width="0.5" stroke="black" />
<line id="60.43193448.33333260.43193452.333332" x1="60.4319" y1="48.3333" x2="60.4319" y2="52.3333" stroke-width="0.5" stroke="black" />
<line id="73.90924846.33333273.90924852.333332" x1="73.9092" y1="46.3333" x2="73.9092" y2="52.3333" stroke-width="0.75" stroke="black" />
<text id="73.90924839.333332" x="73.9092" y="39.3333" dominant-baseline="" baseline-shift="" alignment-baseline="" font-size="7px" font-weight="normal" font-family="Helvetica,Arial" font-variant="normal" text-anchor="middle" text-align="start" line-height="125%%" >
15 Mb</text>
<line id="87.38655948.33333287.38655952.333332" x1="87.3866" y1="48.3333" x2="87.3866" y2="52.3333" stroke-width="0.5" stroke="black" />
<line id="100.86386948.333332100.86386952.333332" x1="100.864" y1="48.3333" x2="100.864" y2="52.3333" stroke-width="0.5" stroke="black" />
<line id="114.34117948.333332114.34117952.333332" x1="114.341" y1="48.3333" x2="114.341" y2="52.3333" stroke-width="0.5" stroke="black" />
<line id="127.81849746.333332127.81849752.333332" x1="127.818" y1="46.3333" x2="127.818" y2="52.3333" stroke-width="0.75" stroke="black" />
<text id="127.81849739.333332" x="127.818" y="39.3333" dominant-baseline="" baseline-shift="" alignment-baseline="" font-size="7px" font-weight="normal" font-family="Helvetica,Arial" font-variant="normal" text-anchor="middle" text-align="start" line-height="125%%" >
30 Mb</text>
<line id="141.29580748.333332141.29580752.333332" x1="141.296" y1="48.3333" x2="141.296" y2="52.3333" stroke-width="0.5" stroke="black" />
<line id="154.77311748.333332154.77311752.333332" x1="154.773" y1="48.3333" x2="154.773" y2="52.3333" stroke-width="0.5" stroke="black" />
<line id="168.25042748.333332168.25042752.333332" x1="168.25" y1="48.3333" x2="168.25" y2="52.3333" stroke-width="0.5" stroke="black" />
<line id="181.72773746.333332181.72773752.333332" x1="181.728" y1="46.3333" x2="181.728" y2="52.3333" stroke-width="0.75" stroke="black" />
<text id="181.72773739.333332" x="181.728" y="39.3333" dominant-baseline="" baseline-shift="" alignment-baseline="" font-size="7px" font-weight="normal" font-family="Helvetica,Arial" font-variant="normal" text-anchor="middle" text-align="start" line-height="125%%" >
45 Mb</text>
<line id="195.20504848.333332195.20504852.333332" x1="195.205" y1="48.3333" x2="195.205" y2="52.3333" stroke-width="0.5" stroke="black" />
<line id="208.68235848.333332208.68235852.333332" x1="208.682" y1="48.3333" x2="208.682" y2="52.3333" stroke-width="0.5" stroke="black" />
<line id="222.15968348.333332222.15968352.333332" x1="222.16" y1="48.3333" x2="222.16" y2="52.3333" stroke-width="0.5" stroke="black" />
<line id="235.63699346.333332235.63699352.333332" x1="235.637" y1="46.3333" x2="235.637" y2="52.3333" stroke-width="0.75" stroke="black" />
<text id="235.63699339.333332" x="235.637" y="39.3333" dominant-baseline="" baseline-shift="" alignment-baseline="" font-size="7px" font-weight="normal" font-family="Helvetica,Arial" font-variant="normal" text-anchor="middle" text-align="start" line-height="125%%" >
60 Mb</text>
<line id="249.11430448.333332249.11430452.333332" x1="249.114" y1="48.3333" x2="249.114" y2="52.3333" stroke-width="0.5" stroke="black" />
<line id="262.59161448.333332262.59161452.333332" x1="262.592" y1="48.3333" x2="262.592" y2="52.3333" stroke-width="0.5" stroke="black" />
<line id="276.06890948.333332276.06890952.333332" x1="276.069" y1="48.3333" x2="276.069" y2="52.3333" stroke-width="0.5" stroke="black" />
<line id="289.54623446.333332289.54623452.333332" x1="289.546" y1="46.3333" x2="289.546" y2="52.3333" stroke-width="0.75" stroke="black" />
<text id="289.54623439.333332" x="289.546" y="39.3333" dominant-baseline="" baseline-shift="" alignment-baseline="" font-size="7px" font-weight="normal" font-family="Helvetica,Arial" font-variant="normal" text-anchor="middle" text-align="start" line-height="125%%" >
75 Mb</text>
<line id="303.02356048.333332303.02356052.333332" x1="303.024" y1="48.3333" x2="303.024" y2="52.3333" stroke-width="0.5" stroke="black" />
<line id="316.50085448.333332316.50085452.333332" x1="316.501" y1="48.3333" x2="316.501" y2="52.3333" stroke-width="0.5" stroke="black" />
<line id="329.97818048.333332329.97818052.333332" x1="329.978" y1="48.3333" x2="329.978" y2="52.3333" stroke-width="0.5" stroke="black" />
<line id="343.45547546.333332343.45547552.333332" x1="343.455" y1="46.3333" x2="343.455" y2="52.3333" stroke-width="0.75" stroke="black" />
<text id="343.45547539.333332" x="343.455" y="39.3333" dominant-baseline="" baseline-shift="" alignment-baseline="" font-size="7px" font-weight="normal" font-family="Helvetica,Arial" font-variant="normal" text-anchor="middle" text-align="start" line-height="125%%" >
90 Mb</text>
<line id="356.93280048.333332356.93280052.333332" x1="356.933" y1="48.3333" x2="356.933" y2="52.3333" stroke-width="0.5" stroke="black" />
<line id="370.41009548.333332370.41009552.333332" x1="370.41" y1="48.3333" x2="370.41" y2="52.3333" stroke-width="0.5" stroke="black" />
<line id="383.88742148.333332383.88742152.333332" x1="383.887" y1="48.3333" x2="383.887" y2="52.3333" stroke-width="0.5" stroke="black" />
<line id="397.36471646.333332397.36471652.333332" x1="397.365" y1="46.3333" x2="397.365" y2="52.3333" stroke-width="0.75" stroke="black" />
<text id="397.36471639.333332" x="397.365" y="39.3333" dominant-baseline="" baseline-shift="" alignment-baseline="" font-size="7px" font-weight="normal" font-family="Helvetica,Arial" font-variant="normal" text-anchor="middle" text-align="start" line-height="125%%" >
105 Mb</text>
<line id="410.84204148.333332410.84204152.333332" x1="410.842" y1="48.3333" x2="410.842" y2="52.3333" stroke-width="0.5" stroke="black" />
<line id="424.31936648.333332424.31936652.333332" x1="424.319" y1="48.3333" x2="424.319" y2="52.3333" stroke-width="0.5" stroke="black" />
<line id="437.79666148.333332437.79666152.333332" x1="437.797" y1="48.3333" x2="437.797" y2="52.3333" stroke-width="0.5" stroke="black" />
<line id="451.27398746.333332451.27398752.333332" x1="451.274" y1="46.3333" x2="451.274" y2="52.3333" stroke-width="0.75" stroke="black" />
<text id="451.27398739.333332" x="451.274" y="39.3333" dominant-baseline="" baseline-shift="" alignment-baseline="" font-size="7px" font-weight="normal" font-family="Helvetica,Arial" font-variant="normal" text-anchor="middle" text-align="start" line-height="125%%" >
120 Mb</text>
<line id="464.75128248.333332464.75128252.333332" x1="464.751" y1="48.3333" x2="464.751" y2="52.3333" stroke-width="0.5" stroke="black" />
<line id="478.22860748.333332478.22860752.333332" x1="478.229" y1="48.3333" x2="478.229" y2="52.3333" stroke-width="0.5" stroke="black" />
<line id="491.70590248.333332491.70590252.333332" x1="491.706" y1="48.3333" x2="491.706" y2="52.3333" stroke-width="0.5" stroke="black" />
<line id="505.18322846.333332505.18322852.333332" x1="505.183" y1="46.3333" x2="505.183" y2="52.3333" stroke-width="0.75" stroke="black" />
<text id="505.18322839.333332" x="505.183" y="39.3333" dominant-baseline="" baseline-shift="" alignment-baseline="" font-size="7px" font-weight="normal" font-family="Helvetica,Arial" font-variant="normal" text-anchor="middle" text-align="start" line-height="125%%" >
135 Mb</text>
<text id="18.500000225.566666" x="18.5" y="225.567" dominant-baseline="" baseline-shift="" alignment-baseline="" font-size="7px" font-family="Helvetica,Arial" font-variant="normal" text-anchor="start" text-align="start" line-height="125%%" >
0 b</text>
<line id="20.375000213.66667220.375000207.666672" x1="20.375" y1="213.667" x2="20.375" y2="207.667" stroke-width="0.75" stroke="black" />
<line id="33.477310211.66667233.477310207.666672" x1="33.4773" y1="211.667" x2="33.4773" y2="207.667" stroke-width="0.5" stroke="black" />
<line id="46.954624211.66667246.954624207.666672" x1="46.9546" y1="211.667" x2="46.9546" y2="207.667" stroke-width="0.5" stroke="black" />
<line id="60.431934211.66667260.431934207.666672" x1="60.4319" y1="211.667" x2="60.4319" y2="207.667" stroke-width="0.5" stroke="black" />
<line id="73.909248213.66667273.909248207.666672" x1="73.9092" y1="213.667" x2="73.9092" y2="207.667" stroke-width="0.75" stroke="black" />
<text id="73.909248225.566666" x="73.9092" y="225.567" dominant-baseline="" baseline-shift="" alignment-baseline="" font-size="7px" font-weight="normal" font-family="Helvetica,Arial" font-variant="normal" text-anchor="middle" text-align="start" line-height="125%%" >
15 Mb</text>
<line id="87.386559211.66667287.386559207.666672" x1="87.3866" y1="211.667" x2="87.3866" y2="207.667" stroke-width="0.5" stroke="black" />
<line id="100.863869211.666672100.863869207.666672" x1="100.864" y1="211.667" x2="100.864" y2="207.667" stroke-width="0.5" stroke="black" />
<line id="114.341179211.666672114.341179207.666672" x1="114.341" y1="211.667" x2="114.341" y2="207.667" stroke-width="0.5" stroke="black" />
<line id="127.818497213.666672127.818497207.666672" x1="127.818" y1="213.667" x2="127.818" y2="207.667" stroke-width="0.75" stroke="black" />
<text id="127.818497225.566666" x="127.818" y="225.567" dominant-baseline="" baseline-shift="" alignment-baseline="" font-size="7px" font-weight="normal" font-family="Helvetica,Arial" font-variant="normal" text-anchor="middle" text-align="start" line-height="125%%" >
30 Mb</text>
<line id="141.295807211.666672141.295807207.666672" x1="141.296" y1="211.667" x2="141.296" y2="207.667" stroke-width="0.5" stroke="black" />
<line id="154.773117211.666672154.773117207.666672" x1="154.773" y1="211.667" x2="154.773" y2="207.667" stroke-width="0.5" stroke="black" />
<line id="168.250427211.666672168.250427207.666672" x1="168.25" y1="211.667" x2="168.25" y2="207.667" stroke-width="0.5" stroke="black" />
<line id="181.727737213.666672181.727737207.666672" x1="181.728" y1="213.667" x2="181.728" y2="207.667" stroke-width="0.75" stroke="black" />
<text id="181.727737225.566666" x="181.728" y="225.567" dominant-baseline="" baseline-shift="" alignment-baseline="" font-size="7px" font-weight="normal" font-family="Helvetica,Arial" font-variant="normal" text-anchor="middle" text-align="start" line-height="125%%" >
45 Mb</text>
<line id="195.205048211.666672195.205048207.666672" x1="195.205" y1="211.667" x2="195.205" y2="207.667" stroke-width="0.5" stroke="black" />
<line id="208.682358211.666672208.682358207.666672" x1="208.682" y1="211.667" x2="208.682" y2="207.667" stroke-width="0.5" stroke="black" />
<line id="222.159683211.666672222.159683207.666672" x1="222.16" y1="211.667" x2="222.16" y2="207.667" stroke-width="0.5" stroke="black" />
<line id="235.636993213.666672235.636993207.666672" x1="235.637" y1="213.667" x2="235.637" y2="207.667" stroke-width="0.75" stroke="black" />
<text id="235.636993225.566666" x="235.637" y="225.567" dominant-baseline="" baseline-shift="" alignment-baseline="" font-size="7px" font-weight="normal" font-family="Helvetica,Arial" font-variant="normal" text-anchor="middle" text-align="start" line-height="125%%" >
60 Mb</text>
<line id="249.114304211.666672249.114304207.666672" x1="249.114" y1="211.667" x2="249.114" y2="207.667" stroke-width="0.5" stroke="black" />
<line id="262.591614211.666672262.591614207.666672" x1="262.592" y1="211.667" x2="262.592" y2="207.667" stroke-width="0.5" stroke="black" />
<line id="276.068909211.666672276.068909207.666672" x1="276.069" y1="211.667" x2="276.069" y2="207.667" stroke-width="0.5" stroke="black" />
<line id="289.546234213.666672289.546234207.666672" x1="289.546" y1="213.667" x2="289.546" y2="207.667" stroke-width="0.75" stroke="black" />
<text id="289.546234225.566666" x="289.546" y="225.567" dominant-baseline="" baseline-shift="" alignment-baseline="" font-size="7px" font-weight="normal" font-family="Helvetica,Arial" font-variant="normal" text-anchor="middle" text-align="start" line-height="125%%" >
75 Mb</text>
<line id="303.023560211.666672303.023560207.666672" x1="303.024" y1="211.667" x2="303.024" y2="207.667" stroke-width="0.5" stroke="black" />
<line id="316.500854211.666672316.500854207.666672" x1="316.501" y1="211.667" x2="316.501" y2="207.667" stroke-width="0.5" stroke="black" />
<line id="329.978180211.666672329.978180207.666672" x1="329.978" y1="211.667" x2="329.978" y2="207.667" stroke-width="0.5" stroke="black" />
<line id="343.455475213.666672343.455475207.666672" x1="343.455" y1="213.667" x2="343.455" y2="207.667" stroke-width="0.75" stroke="black" />
<text id="343.455475225.566666" x="343.455" y="225.567" dominant-baseline="" baseline-shift="" alignment-baseline="" font-size="7px" font-weight="normal" font-family="Helvetica,Arial" font-variant="normal" text-anchor="middle" text-align="start" line-height="125%%" >
90 Mb</text>
<line id="356.932800211.666672356.932800207.666672" x1="356.933" y1="211.667" x2="356.933" y2="207.667" stroke-width="0.5" stroke="black" />
<line id="370.410095211.666672370.410095207.666672" x1="370.41" y1="211.667" x2="370.41" y2="207.667" stroke-width="0.5" stroke="black" />
<line id="383.887421211.666672383.887421207.666672" x1="383.887" y1="211.667" x2="383.887" y2="207.667" stroke-width="0.5" stroke="black" />
<line id="397.364716213.666672397.364716207.666672" x1="397.365" y1="213.667" x2="397.365" y2="207.667" stroke-width="0.75" stroke="black" />
<text id="397.364716225.566666" x="397.365" y="225.567" dominant-baseline="" baseline-shift="" alignment-baseline="" font-size="7px" font-weight="normal" font-family="Helvetica,Arial" font-variant="normal" text-anchor="middle" text-align="start" line-height="125%%" >
105 Mb</text>
<line id="410.842041211.666672410.842041207.666672" x1="410.842" y1="211.667" x2="410.842" y2="207.667" stroke-width="0.5" stroke="black" />
<line id="424.319366211.666672424.319366207.666672" x1="424.319" y1="211.667" x2="424.319" y2="207.667" stroke-width="0.5" stroke="black" />
<line id="437.796661211.666672437.796661207.666672" x1="437.797" y1="211.667" x2="437.797" y2="207.667" stroke-width="0.5" stroke="black" />
<line id="451.273987213.666672451.273987207.666672" x1="451.274" y1="213.667" x2="451.274" y2="207.667" stroke-width="0.75" stroke="black" />
<text id="451.273987225.566666" x="451.274" y="225.567" dominant-baseline="" baseline-shift="" alignment-baseline="" font-size="7px" font-weight="normal" font-family="Helvetica,Arial" font-variant="normal" text-anchor="middle" text-align="start" line-height="125%%" >
120 Mb</text>
<line id="464.751282211.666672464.751282207.666672" x1="464.751" y1="211.667" x2="464.751" y2="207.667" stroke-width="0.5" stroke="black" />
<line id="478.228607211.666672478.228607207.666672" x1="478.229" y1="211.667" x2="478.229" y2="207.667" stroke-width="0.5" stroke="black" />
<line id="491.705902211.666672491.705902207.666672" x1="491.706" y1="211.667" x2="491.706" y2="207.667" stroke-width="0.5" stroke="black" />
<line id="505.183228213.666672505.183228207.666672" x1="505.183" y1="213.667" x2="505.183" y2="207.667" stroke-width="0.75" stroke="black" />
<text id="505.183228225.566666" x="505.183" y="225.567" dominant-baseline="" baseline-shift="" alignment-baseline="" font-size="7px" font-weight="normal" font-family="Helvetica,Arial" font-variant="normal" text-anchor="middle" text-align="start" line-height="125%%" >
135 Mb</text>
<line id="518.660522211.666672518.660522207.666672" x1="518.661" y1="211.667" x2="518.661" y2="207.667" stroke-width="0.5" stroke="black" />
<defs id="" >
<linearGradient id="grad265.285278110.000000" x1="0%" y1="0%" x2="100%" y2="0%" >
<stop offset="0%" stop-color="#3B59A0" stop-opacity="1" />
<stop offset="50%" stop-color="#9DACCF" stop-opacity="1" />
<stop offset="100%" stop-color="#3B59A0" stop-opacity="1" />
</linearGradient>
</defs>
<rect x="265.285" y="110" width="10" height="225.448" rx="1" ry="1" fill="url(#grad265.285278110.000000)" fill-opacity="1" stroke-width="0.75" stroke-opacity="1" transform="rotate(-90 265.285278 110.000000)" />
<defs id="" >
<linearGradient id="grad265.285278110.000000NRC" x1="0%" y1="0%" x2="100%" y2="0%" >
<stop offset="100%" stop-color="#39B600" stop-opacity="1" />
</linearGradient>
</defs>
<rect x="297.285" y="110" width="3.33333" height="225.448" rx="1" ry="0.5" fill="url(#grad265.285278110.000000NRC)" fill-opacity="1" stroke="url(#grad265.285278110.000000NRC)" stroke-width="1.125" stroke-opacity="1" transform="rotate(-90 265.285278 110.000000)" />
<defs id="" >
<linearGradient id="grad265.285278110.000000NRCRedun" x1="0%" y1="0%" x2="100%" y2="0%" >
<stop offset="100%" stop-color="#9590FF" stop-opacity="1" />
</linearGradient>
</defs>
<rect x="306.619" y="110" width="3.33333" height="225.448" rx="1" ry="0.5" fill="url(#grad265.285278110.000000NRCRedun)" fill-opacity="1" stroke="url(#grad265.285278110.000000NRCRedun)" stroke-width="1.125" stroke-opacity="1" transform="rotate(-90 265.285278 110.000000)" />
<defs id="" >
<linearGradient id="grad273.716675160.000000" x1="0%" y1="0%" x2="100%" y2="0%" >
<stop offset="0%" stop-color="#3B59A0" stop-opacity="1" />
<stop offset="50%" stop-color="#9DACCF" stop-opacity="1" />
<stop offset="100%" stop-color="#3B59A0" stop-opacity="1" />
</linearGradient>
</defs>
<rect x="273.717" y="160" width="10" height="239.241" rx="1" ry="1" fill="url(#grad273.716675160.000000)" fill-opacity="1" stroke="url(#grad273.716675160.000000)" stroke-width="0.75" stroke-opacity="1" transform="rotate(-90 273.716675 160.000000)" />
<defs id="" >
<linearGradient id="grad273.716675160.000000NRC" x1="0%" y1="0%" x2="100%" y2="0%" >
<stop offset="100%" stop-color="#00BF7D" stop-opacity="1" />
</linearGradient>
</defs>
<rect x="248.383" y="160" width="3.33333" height="239.241" rx="1" ry="0.5" fill="url(#grad273.716675160.000000NRC)" fill-opacity="1" stroke="url(#grad273.716675160.000000NRC)" stroke-width="1.125" stroke-opacity="1" transform="rotate(-90 273.716675 160.000000)" />
<defs id="" >
<linearGradient id="grad273.716675160.000000NRCRedun" x1="0%" y1="0%" x2="100%" y2="0%" >
<stop offset="100%" stop-color="#9590FF" stop-opacity="1" />
</linearGradient>
</defs>
<rect x="239.05" y="160" width="3.33333" height="239.241" rx="1" ry="0.5" fill="url(#grad273.716675160.000000NRCRedun)" fill-opacity="1" stroke="url(#grad273.716675160.000000NRCRedun)" stroke-width="1.125" stroke-opacity="1" transform="rotate(-90 273.716675 160.000000)" />
<polygon points="265.285,110 490.734,110 512.958,150 273.717,150 " fill="#3B59A0" stroke="#3B59A0" stroke-width="0.3" stroke-opacity="0.2" fill-opacity="0.2" />
<defs id="" >
<linearGradient id="grad153.107315110.000000" x1="0%" y1="0%" x2="100%" y2="0%" >
<stop offset="0%" stop-color="#A03B79" stop-opacity="1" />
<stop offset="50%" stop-color="#CF9DBC" stop-opacity="1" />
<stop offset="100%" stop-color="#A03B79" stop-opacity="1" />
</linearGradient>
</defs>
<rect x="153.107" y="110" width="10" height="110.137" rx="1" ry="1" fill="url(#grad153.107315110.000000)" fill-opacity="1" stroke-width="0.75" stroke-opacity="1" transform="rotate(-90 153.107315 110.000000)" />
<defs id="" >
<linearGradient id="grad153.107315110.000000NRC" x1="0%" y1="0%" x2="100%" y2="0%" >
<stop offset="100%" stop-color="#A3A500" stop-opacity="1" />
</linearGradient>
</defs>
<rect x="185.107" y="110" width="3.33333" height="110.137" rx="1" ry="0.5" fill="url(#grad153.107315110.000000NRC)" fill-opacity="1" stroke="url(#grad153.107315110.000000NRC)" stroke-width="1.125" stroke-opacity="1" transform="rotate(-90 153.107315 110.000000)" />
<defs id="" >
<linearGradient id="grad153.107315110.000000NRCRedun" x1="0%" y1="0%" x2="100%" y2="0%" >
<stop offset="100%" stop-color="#9590FF" stop-opacity="1" />
</linearGradient>
</defs>
<rect x="194.441" y="110" width="3.33333" height="110.137" rx="1" ry="0.5" fill="url(#grad153.107315110.000000NRCRedun)" fill-opacity="1" stroke="url(#grad153.107315110.000000NRCRedun)" stroke-width="1.125" stroke-opacity="1" transform="rotate(-90 153.107315 110.000000)" />
<defs id="" >
<linearGradient id="grad99.924049160.000000" x1="0%" y1="0%" x2="100%" y2="0%" >
<stop offset="0%" stop-color="#A03B79" stop-opacity="1" />
<stop offset="50%" stop-color="#CF9DBC" stop-opacity="1" />
<stop offset="100%" stop-color="#A03B79" stop-opacity="1" />
</linearGradient>
</defs>
<rect x="99.924" y="160" width="10" height="112.444" rx="1" ry="1" fill="url(#grad99.924049160.000000)" fill-opacity="1" stroke="url(#grad99.924049160.000000)" stroke-width="0.75" stroke-opacity="1" transform="rotate(-90 99.924049 160.000000)" />
<defs id="" >
<pattern id="Wavy99.924049160.000000" x="99.924" y="160" width="10" height="7" patternUnits="userSpaceOnUse" >
<path id="" d="m -0.665,6.335
l 5.665,-5.67
l 5.665,5.67
" fill="none" fill-opacity="0.9" stroke="#6B2751" stroke-opacity="1" stroke-linejoin="round" stroke-width="1.33" />
</pattern>
</defs>
<rect x="99.924" y="160" width="10" height="112.444" rx="1" ry="1" fill="url(#Wavy99.924049160.000000)" fill-opacity="1" stroke="url(#grad99.924049160.000000)" stroke-width="0.75" stroke-opacity="1" transform="rotate(-90 99.924049 160.000000)" />
<defs id="" >
<linearGradient id="grad99.924049160.000000NRC" x1="0%" y1="0%" x2="100%" y2="0%" >
<stop offset="100%" stop-color="#00BF7D" stop-opacity="1" />
</linearGradient>
</defs>
<rect x="74.5907" y="160" width="3.33333" height="112.444" rx="1" ry="0.5" fill="url(#grad99.924049160.000000NRC)" fill-opacity="1" stroke="url(#grad99.924049160.000000NRC)" stroke-width="1.125" stroke-opacity="1" transform="rotate(-90 99.924049 160.000000)" />
<defs id="" >
<linearGradient id="grad99.924049160.000000NRCRedun" x1="0%" y1="0%" x2="100%" y2="0%" >
<stop offset="100%" stop-color="#9590FF" stop-opacity="1" />
</linearGradient>
</defs>
<rect x="65.2574" y="160" width="3.33333" height="112.444" rx="1" ry="0.5" fill="url(#grad99.924049160.000000NRCRedun)" fill-opacity="1" stroke="url(#grad99.924049160.000000NRCRedun)" stroke-width="1.125" stroke-opacity="1" transform="rotate(-90 99.924049 160.000000)" />
<polygon points="153.107,110 263.244,110 99.924,150 212.368,150 " fill="#A03B79" stroke="#A03B79" stroke-width="0.3" stroke-opacity="0.2" fill-opacity="0.2" />
<defs id="" >
<linearGradient id="grad99.147758110.000000" x1="0%" y1="0%" x2="100%" y2="0%" >
<stop offset="0%" stop-color="#96A03B" stop-opacity="1" />
<stop offset="50%" stop-color="#CACF9D" stop-opacity="1" />
<stop offset="100%" stop-color="#96A03B" stop-opacity="1" />
</linearGradient>
</defs>
<rect x="99.1478" y="110" width="10" height="49.787" rx="1" ry="1" fill="url(#grad99.147758110.000000)" fill-opacity="1" stroke-width="0.75" stroke-opacity="1" transform="rotate(-90 99.147758 110.000000)" />
<defs id="" >
<linearGradient id="grad99.147758110.000000NRC" x1="0%" y1="0%" x2="100%" y2="0%" >
<stop offset="100%" stop-color="#39B600" stop-opacity="1" />
</linearGradient>
</defs>
<rect x="131.148" y="110" width="3.33333" height="49.787" rx="1" ry="0.5" fill="url(#grad99.147758110.000000NRC)" fill-opacity="1" stroke="url(#grad99.147758110.000000NRC)" stroke-width="1.125" stroke-opacity="1" transform="rotate(-90 99.147758 110.000000)" />
<defs id="" >
<linearGradient id="grad99.147758110.000000NRCRedun" x1="0%" y1="0%" x2="100%" y2="0%" >
<stop offset="100%" stop-color="#9590FF" stop-opacity="1" />
</linearGradient>
</defs>
<rect x="140.481" y="110" width="3.33333" height="49.787" rx="1" ry="0.5" fill="url(#grad99.147758110.000000NRCRedun)" fill-opacity="1" stroke="url(#grad99.147758110.000000NRCRedun)" stroke-width="1.125" stroke-opacity="1" transform="rotate(-90 99.147758 110.000000)" />
<defs id="" >
<linearGradient id="grad218.096710160.000000" x1="0%" y1="0%" x2="100%" y2="0%" >
<stop offset="0%" stop-color="#96A03B" stop-opacity="1" />
<stop offset="50%" stop-color="#CACF9D" stop-opacity="1" />
<stop offset="100%" stop-color="#96A03B" stop-opacity="1" />
</linearGradient>
</defs>
<rect x="218.097" y="160" width="10" height="51.6397" rx="1" ry="1" fill="url(#grad218.096710160.000000)" fill-opacity="1" stroke="url(#grad218.096710160.000000)" stroke-width="0.75" stroke-opacity="1" transform="rotate(-90 218.096710 160.000000)" />
<defs id="" >
<pattern id="Wavy218.096710160.000000" x="218.097" y="160" width="10" height="7" patternUnits="userSpaceOnUse" >
<path id="" d="m -0.665,6.335
l 5.665,-5.67
l 5.665,5.67
" fill="none" fill-opacity="0.9" stroke="#646B27" stroke-opacity="1" stroke-linejoin="round" stroke-width="1.33" />
</pattern>
</defs>
<rect x="218.097" y="160" width="10" height="51.6397" rx="1" ry="1" fill="url(#Wavy218.096710160.000000)" fill-opacity="1" stroke="url(#grad218.096710160.000000)" stroke-width="0.75" stroke-opacity="1" transform="rotate(-90 218.096710 160.000000)" />
<defs id="" >
<linearGradient id="grad218.096710160.000000NRC" x1="0%" y1="0%" x2="100%" y2="0%" >
<stop offset="100%" stop-color="#00BF7D" stop-opacity="1" />
</linearGradient>
</defs>
<rect x="192.763" y="160" width="3.33333" height="51.6397" rx="1" ry="0.5" fill="url(#grad218.096710160.000000NRC)" fill-opacity="1" stroke="url(#grad218.096710160.000000NRC)" stroke-width="1.125" stroke-opacity="1" transform="rotate(-90 218.096710 160.000000)" />
<defs id="" >
<linearGradient id="grad218.096710160.000000NRCRedun" x1="0%" y1="0%" x2="100%" y2="0%" >
<stop offset="100%" stop-color="#9590FF" stop-opacity="1" />
</linearGradient>
</defs>
<rect x="183.43" y="160" width="3.33333" height="51.6397" rx="1" ry="0.5" fill="url(#grad218.096710160.000000NRCRedun)" fill-opacity="1" stroke="url(#grad218.096710160.000000NRCRedun)" stroke-width="1.125" stroke-opacity="1" transform="rotate(-90 218.096710 160.000000)" />
<polygon points="99.1478,110 148.935,110 218.097,150 269.736,150 " fill="#96A03B" stroke="#96A03B" stroke-width="0.3" stroke-opacity="0.2" fill-opacity="0.2" />
<defs id="" >
<linearGradient id="grad20.000000110.000000" x1="0%" y1="0%" x2="100%" y2="0%" >
<stop offset="0%" stop-color="#3BA03E" stop-opacity="1" />
<stop offset="50%" stop-color="#9DCF9E" stop-opacity="1" />
<stop offset="100%" stop-color="#3BA03E" stop-opacity="1" />
</linearGradient>
</defs>
<rect x="20" y="110" width="10" height="72.0389" rx="1" ry="1" fill="url(#grad20.000000110.000000)" fill-opacity="1" stroke-width="0.75" stroke-opacity="1" transform="rotate(-90 20.000000 110.000000)" />
<defs id="" >
<linearGradient id="grad20.000000110.000000NRC" x1="0%" y1="0%" x2="100%" y2="0%" >
<stop offset="100%" stop-color="#A3A500" stop-opacity="1" />
</linearGradient>
</defs>
<rect x="52" y="110" width="3.33333" height="72.0389" rx="1" ry="0.5" fill="url(#grad20.000000110.000000NRC)" fill-opacity="1" stroke="url(#grad20.000000110.000000NRC)" stroke-width="1.125" stroke-opacity="1" transform="rotate(-90 20.000000 110.000000)" />
<defs id="" >
<linearGradient id="grad20.000000110.000000NRCRedun" x1="0%" y1="0%" x2="100%" y2="0%" >
<stop offset="100%" stop-color="#9590FF" stop-opacity="1" />
</linearGradient>
</defs>
<rect x="61.3333" y="110" width="3.33333" height="72.0389" rx="1" ry="0.5" fill="url(#grad20.000000110.000000NRCRedun)" fill-opacity="1" stroke="url(#grad20.000000110.000000NRCRedun)" stroke-width="1.125" stroke-opacity="1" transform="rotate(-90 20.000000 110.000000)" />
<defs id="" >
<linearGradient id="grad20.000000160.000000" x1="0%" y1="0%" x2="100%" y2="0%" >
<stop offset="0%" stop-color="#3BA03E" stop-opacity="1" />
<stop offset="50%" stop-color="#9DCF9E" stop-opacity="1" />
<stop offset="100%" stop-color="#3BA03E" stop-opacity="1" />
</linearGradient>
</defs>
<rect x="20" y="160" width="10" height="74.9716" rx="1" ry="1" fill="url(#grad20.000000160.000000)" fill-opacity="1" stroke="url(#grad20.000000160.000000)" stroke-width="0.75" stroke-opacity="1" transform="rotate(-90 20.000000 160.000000)" />
<defs id="" >
<linearGradient id="grad20.000000160.000000NRC" x1="0%" y1="0%" x2="100%" y2="0%" >
<stop offset="100%" stop-color="#00BF7D" stop-opacity="1" />
</linearGradient>
</defs>
<rect x="-5.33333" y="160" width="3.33333" height="74.9716" rx="1" ry="0.5" fill="url(#grad20.000000160.000000NRC)" fill-opacity="1" stroke="url(#grad20.000000160.000000NRC)" stroke-width="1.125" stroke-opacity="1" transform="rotate(-90 20.000000 160.000000)" />
<defs id="" >
<linearGradient id="grad20.000000160.000000NRCRedun" x1="0%" y1="0%" x2="100%" y2="0%" >
<stop offset="100%" stop-color="#9590FF" stop-opacity="1" />
</linearGradient>
</defs>
<rect x="-14.6667" y="160" width="3.33333" height="74.9716" rx="1" ry="0.5" fill="url(#grad20.000000160.000000NRCRedun)" fill-opacity="1" stroke="url(#grad20.000000160.000000NRCRedun)" stroke-width="1.125" stroke-opacity="1" transform="rotate(-90 20.000000 160.000000)" />
<polygon points="20,110 92.0389,110 94.9716,150 20,150 " fill="#3BA03E" stroke="#3BA03E" stroke-width="0.3" stroke-opacity="0.2" fill-opacity="0.2" />
<path id="rhs20.000000100.000000" d="M 20,590.327
a 5,5 0 0,0 10,0
v 5
h -10
v -5
z
" fill="white" fill-opacity="1" stroke="white" stroke-opacity="1" stroke-linejoin="round" stroke-width="1" transform="rotate(-90 20.000000 110.000000)" />
<path id="rhs20.000000100.000000" d="M 30,115
a 5,5 0 0,0 -10,0
v -5
h 10
v 5
z
" fill="white" fill-opacity="1" stroke="white" stroke-opacity="1" stroke-linejoin="round" stroke-width="1" transform="rotate(-90 20.000000 110.000000)" />
<path id="20.000000110.000000" d="M 20,115
v 475.327
a 5,5 0 0,0 10,0
v -475.327
a 5,5 0 0,0 -10,0
z
" fill="none" fill-opacity="0.9" stroke="black" stroke-opacity="1" stroke-linejoin="round" stroke-width="1" transform="rotate(-90 20.000000 110.000000)" />
<path id="rhs20.000000100.000000" d="M 20,655
a 5,5 0 0,0 10,0
v 5
h -10
v -5
z
" fill="white" fill-opacity="1" stroke="white" stroke-opacity="1" stroke-linejoin="round" stroke-width="1" transform="rotate(-90 20.000000 160.000000)" />
<path id="rhs20.000000100.000000" d="M 30,165
a 5,5 0 0,0 -10,0
v -5
h 10
v 5
z
" fill="white" fill-opacity="1" stroke="white" stroke-opacity="1" stroke-linejoin="round" stroke-width="1" transform="rotate(-90 20.000000 160.000000)" />
<path id="20.000000160.000000" d="M 20,165
v 490
a 5,5 0 0,0 10,0
v -490
a 5,5 0 0,0 -10,0
z
" fill="none" fill-opacity="0.9" stroke="black" stroke-opacity="1" stroke-linejoin="round" stroke-width="1" transform="rotate(-90 20.000000 160.000000)" />
<text id="20.00000090.300003" x="20" y="90.3" dominant-baseline="" baseline-shift="" alignment-baseline="" font-size="9px" font-weight="bold" font-family="Helvetica,Arial" font-variant="normal" text-anchor="start" text-align="start" line-height="125%%" >
HS 12</text>
<text id="20.000000176.000000" x="20" y="176" dominant-baseline="" baseline-shift="" alignment-baseline="" font-size="9px" font-weight="bold" font-family="Helvetica,Arial" font-variant="normal" text-anchor="start" text-align="start" line-height="125%%" >
PT 12</text>
<defs id="" >
<linearGradient id="grad560.00024478.000000" x1="0%" y1="100%" x2="0%" y2="0%" >
<stop offset="0%" stop-color="#F8766D" stop-opacity="1" />
<stop offset="14%" stop-color="#D89000" stop-opacity="1" />
<stop offset="28%" stop-color="#A3A500" stop-opacity="1" />
<stop offset="42%" stop-color="#39B600" stop-opacity="1" />
<stop offset="57%" stop-color="#00BF7D" stop-opacity="1" />
<stop offset="71%" stop-color="#00BFC4" stop-opacity="1" />
<stop offset="85%" stop-color="#00B0F6" stop-opacity="1" />
<stop offset="100%" stop-color="#9590FF" stop-opacity="1" />
</linearGradient>
</defs>
<rect x="560" y="78" width="15" height="104" rx="2" ry="2" fill="url(#grad560.00024478.000000)" fill-opacity="0.9" stroke="black" stroke-width="0.5" stroke-opacity="1" />
<text id="547.200256130.000000" x="547.2" y="130" dominant-baseline="" baseline-shift="" alignment-baseline="" transform="rotate(90 547.200256 130.000000)" font-size="8px" font-family="Helvetica,Arial" font-variant="normal" text-anchor="middle" text-align="start" line-height="125%%" >
Relative Redundancy</text>
<text id="582.200256130.000000" x="582.2" y="130" dominant-baseline="" baseline-shift="" alignment-baseline="" transform="rotate(90 582.200256 130.000000)" font-size="8px" font-family="Helvetica,Arial" font-variant="normal" text-anchor="middle" text-align="start" line-height="125%%" >
Redundancy</text>
<text id="567.500244188.000000" x="567.5" y="188" dy="2.45" dominant-baseline="" baseline-shift="" alignment-baseline="" font-size="7px" font-family="Helvetica,Arial" font-variant="normal" text-anchor="middle" text-align="start" line-height="125%%" >
0.0</text>
<text id="567.50024472.000000" x="567.5" y="72" dy="2.45" dominant-baseline="" baseline-shift="" alignment-baseline="" font-size="7px" font-family="Helvetica,Arial" font-variant="normal" text-anchor="middle" text-align="start" line-height="125%%" >
2.0</text>
<text id="567.500244156.000000" x="567.5" y="156" dy="2.45" dominant-baseline="" baseline-shift="" alignment-baseline="" font-size="7px" font-family="Helvetica,Arial" font-variant="normal" text-anchor="middle" text-align="start" line-height="125%%" >
0.5</text>
<text id="567.500244130.000000" x="567.5" y="130" dy="2.45" dominant-baseline="" baseline-shift="" alignment-baseline="" font-size="7px" font-family="Helvetica,Arial" font-variant="normal" text-anchor="middle" text-align="start" line-height="125%%" >
1.0</text>
<text id="567.500244104.000000" x="567.5" y="104" dy="2.45" dominant-baseline="" baseline-shift="" alignment-baseline="" font-size="7px" font-family="Helvetica,Arial" font-variant="normal" text-anchor="middle" text-align="start" line-height="125%%" >
1.5</text>
<path id="" d="M 490.734,76.3333
H 550
V 83
" fill="none" fill-opacity="0.9" stroke="black" stroke-opacity="1" stroke-linejoin="round" stroke-dasharray="8 4" stroke-width="0.5" />
<path id="" d="M 512.958,183.667
H 550
V 177
" fill="none" fill-opacity="0.9" stroke="black" stroke-opacity="1" stroke-linejoin="round" stroke-dasharray="8 4" stroke-width="0.5" />
<path id="" d="M 490.734,67
H 585
V 100
" fill="none" fill-opacity="0.9" stroke="black" stroke-opacity="1" stroke-linejoin="round" stroke-dasharray="8 4" stroke-width="0.5" />
<path id="" d="M 512.958,193
H 585
V 160
" fill="none" fill-opacity="0.9" stroke="black" stroke-opacity="1" stroke-linejoin="round" stroke-dasharray="8 4" stroke-width="0.5" />
</svg>