<?xml version="1.0" encoding="UTF-8" standalone="no"?>
<!-- Morteza Hosseini, IEETA 2018-2019 -->
<svg xmlns="http://www.w3.org/2000/svg" xmlns:xlink="http://www.w3.org/1999/xlink" viewBox="0 0 294.000000 606.963196" >
<rect x="0" y="0" width="294" height="606.963" rx="1" ry="1" fill="white" fill-opacity="0.9" stroke="white" stroke-width="0" />
<line id="46.33332830.00000046.333328531.805664" x1="46.3333" y1="30" x2="46.3333" y2="531.806" stroke-width="1.28" stroke="black" />
<text id="41.33332836.299999" x="41.3333" y="36.3" dominant-baseline="" baseline-shift="" alignment-baseline="" font-size="10px" font-weight="bold" font-family="Helvetica,Arial" font-variant="normal" text-anchor="end" text-align="start" line-height="125%%" >
bp</text>
<line id="46.33332830.63999956.33332830.639999" x1="46.3333" y1="30.64" x2="56.3333" y2="30.64" stroke-width="1.28" stroke="black" />
<line id="46.33332845.33742152.33332845.337421" x1="46.3333" y1="45.3374" x2="52.3333" y2="45.3374" stroke-width="0.8" stroke="black" />
<line id="46.33332860.67484752.33332860.674847" x1="46.3333" y1="60.6748" x2="52.3333" y2="60.6748" stroke-width="0.8" stroke="black" />
<line id="46.33332876.01226852.33332876.012268" x1="46.3333" y1="76.0123" x2="52.3333" y2="76.0123" stroke-width="0.8" stroke="black" />
<line id="46.33332891.34969356.33332891.349693" x1="46.3333" y1="91.3497" x2="56.3333" y2="91.3497" stroke-width="1.28" stroke="black" />
<text id="41.33332894.499695" x="41.3333" y="94.4997" dominant-baseline="" baseline-shift="" alignment-baseline="" font-size="9px" font-weight="normal" font-family="Helvetica,Arial" font-variant="normal" text-anchor="end" text-align="start" line-height="125%%" >
2 K</text>
<line id="46.333328106.68711952.333328106.687119" x1="46.3333" y1="106.687" x2="52.3333" y2="106.687" stroke-width="0.8" stroke="black" />
<line id="46.333328122.02453652.333328122.024536" x1="46.3333" y1="122.025" x2="52.3333" y2="122.025" stroke-width="0.8" stroke="black" />
<line id="46.333328137.36196952.333328137.361969" x1="46.3333" y1="137.362" x2="52.3333" y2="137.362" stroke-width="0.8" stroke="black" />
<line id="46.333328152.69938756.333328152.699387" x1="46.3333" y1="152.699" x2="56.3333" y2="152.699" stroke-width="1.28" stroke="black" />
<text id="41.333328155.849380" x="41.3333" y="155.849" dominant-baseline="" baseline-shift="" alignment-baseline="" font-size="9px" font-weight="normal" font-family="Helvetica,Arial" font-variant="normal" text-anchor="end" text-align="start" line-height="125%%" >
4 K</text>
<line id="46.333328168.03680452.333328168.036804" x1="46.3333" y1="168.037" x2="52.3333" y2="168.037" stroke-width="0.8" stroke="black" />
<line id="46.333328183.37423752.333328183.374237" x1="46.3333" y1="183.374" x2="52.3333" y2="183.374" stroke-width="0.8" stroke="black" />
<line id="46.333328198.71165552.333328198.711655" x1="46.3333" y1="198.712" x2="52.3333" y2="198.712" stroke-width="0.8" stroke="black" />
<line id="46.333328214.04907256.333328214.049072" x1="46.3333" y1="214.049" x2="56.3333" y2="214.049" stroke-width="1.28" stroke="black" />
<text id="41.333328217.199066" x="41.3333" y="217.199" dominant-baseline="" baseline-shift="" alignment-baseline="" font-size="9px" font-weight="normal" font-family="Helvetica,Arial" font-variant="normal" text-anchor="end" text-align="start" line-height="125%%" >
6 K</text>
<line id="46.333328229.38650552.333328229.386505" x1="46.3333" y1="229.387" x2="52.3333" y2="229.387" stroke-width="0.8" stroke="black" />
<line id="46.333328244.72392352.333328244.723923" x1="46.3333" y1="244.724" x2="52.3333" y2="244.724" stroke-width="0.8" stroke="black" />
<line id="46.333328260.06134052.333328260.061340" x1="46.3333" y1="260.061" x2="52.3333" y2="260.061" stroke-width="0.8" stroke="black" />
<line id="46.333328275.39877356.333328275.398773" x1="46.3333" y1="275.399" x2="56.3333" y2="275.399" stroke-width="1.28" stroke="black" />
<text id="41.333328278.548767" x="41.3333" y="278.549" dominant-baseline="" baseline-shift="" alignment-baseline="" font-size="9px" font-weight="normal" font-family="Helvetica,Arial" font-variant="normal" text-anchor="end" text-align="start" line-height="125%%" >
8 K</text>
<line id="46.333328290.73620652.333328290.736206" x1="46.3333" y1="290.736" x2="52.3333" y2="290.736" stroke-width="0.8" stroke="black" />
<line id="46.333328306.07360852.333328306.073608" x1="46.3333" y1="306.074" x2="52.3333" y2="306.074" stroke-width="0.8" stroke="black" />
<line id="46.333328321.41104152.333328321.411041" x1="46.3333" y1="321.411" x2="52.3333" y2="321.411" stroke-width="0.8" stroke="black" />
<line id="46.333328336.74847456.333328336.748474" x1="46.3333" y1="336.748" x2="56.3333" y2="336.748" stroke-width="1.28" stroke="black" />
<text id="41.333328339.898468" x="41.3333" y="339.898" dominant-baseline="" baseline-shift="" alignment-baseline="" font-size="9px" font-weight="normal" font-family="Helvetica,Arial" font-variant="normal" text-anchor="end" text-align="start" line-height="125%%" >
10 K</text>
<line id="46.333328352.08587652.333328352.085876" x1="46.3333" y1="352.086" x2="52.3333" y2="352.086" stroke-width="0.8" stroke="black" />
<line id="46.333328367.42330952.333328367.423309" x1="46.3333" y1="367.423" x2="52.3333" y2="367.423" stroke-width="0.8" stroke="black" />
<line id="46.333328382.76074252.333328382.760742" x1="46.3333" y1="382.761" x2="52.3333" y2="382.761" stroke-width="0.8" stroke="black" />
<line id="46.333328398.09814556.333328398.098145" x1="46.3333" y1="398.098" x2="56.3333" y2="398.098" stroke-width="1.28" stroke="black" />
<text id="41.333328401.248138" x="41.3333" y="401.248" dominant-baseline="" baseline-shift="" alignment-baseline="" font-size="9px" font-weight="normal" font-family="Helvetica,Arial" font-variant="normal" text-anchor="end" text-align="start" line-height="125%%" >
12 K</text>
<line id="46.333328413.43557752.333328413.435577" x1="46.3333" y1="413.436" x2="52.3333" y2="413.436" stroke-width="0.8" stroke="black" />
<line id="46.333328428.77301052.333328428.773010" x1="46.3333" y1="428.773" x2="52.3333" y2="428.773" stroke-width="0.8" stroke="black" />
<line id="46.333328444.11044352.333328444.110443" x1="46.3333" y1="444.11" x2="52.3333" y2="444.11" stroke-width="0.8" stroke="black" />
<line id="46.333328459.44784556.333328459.447845" x1="46.3333" y1="459.448" x2="56.3333" y2="459.448" stroke-width="1.28" stroke="black" />
<text id="41.333328462.597839" x="41.3333" y="462.598" dominant-baseline="" baseline-shift="" alignment-baseline="" font-size="9px" font-weight="normal" font-family="Helvetica,Arial" font-variant="normal" text-anchor="end" text-align="start" line-height="125%%" >
14 K</text>
<line id="46.333328474.78527852.333328474.785278" x1="46.3333" y1="474.785" x2="52.3333" y2="474.785" stroke-width="0.8" stroke="black" />
<line id="46.333328490.12271152.333328490.122711" x1="46.3333" y1="490.123" x2="52.3333" y2="490.123" stroke-width="0.8" stroke="black" />
<line id="46.333328505.46011452.333328505.460114" x1="46.3333" y1="505.46" x2="52.3333" y2="505.46" stroke-width="0.8" stroke="black" />
<line id="46.333328520.79754656.333328520.797546" x1="46.3333" y1="520.798" x2="56.3333" y2="520.798" stroke-width="1.28" stroke="black" />
<text id="41.333328523.947571" x="41.3333" y="523.948" dominant-baseline="" baseline-shift="" alignment-baseline="" font-size="9px" font-weight="normal" font-family="Helvetica,Arial" font-variant="normal" text-anchor="end" text-align="start" line-height="125%%" >
16 K</text>
<line id="247.66667230.000000247.666672532.603210" x1="247.667" y1="30" x2="247.667" y2="532.603" stroke-width="1.28" stroke="black" />
<text id="252.66667236.299999" x="252.667" y="36.3" dominant-baseline="" baseline-shift="" alignment-baseline="" font-size="10px" font-weight="bold" font-family="Helvetica,Arial" font-variant="normal" text-anchor="start" text-align="start" line-height="125%%" >
bp</text>
<line id="247.66667230.639999237.66667230.639999" x1="247.667" y1="30.64" x2="237.667" y2="30.64" stroke-width="1.28" stroke="black" />
<line id="247.66667245.337421241.66667245.337421" x1="247.667" y1="45.3374" x2="241.667" y2="45.3374" stroke-width="0.8" stroke="black" />
<line id="247.66667260.674847241.66667260.674847" x1="247.667" y1="60.6748" x2="241.667" y2="60.6748" stroke-width="0.8" stroke="black" />
<line id="247.66667276.012268241.66667276.012268" x1="247.667" y1="76.0123" x2="241.667" y2="76.0123" stroke-width="0.8" stroke="black" />
<line id="247.66667291.349693237.66667291.349693" x1="247.667" y1="91.3497" x2="237.667" y2="91.3497" stroke-width="1.28" stroke="black" />
<text id="252.66667294.499695" x="252.667" y="94.4997" dominant-baseline="" baseline-shift="" alignment-baseline="" font-size="9px" font-weight="normal" font-family="Helvetica,Arial" font-variant="normal" text-anchor="start" text-align="start" line-height="125%%" >
2 K</text>
<line id="247.666672106.687119241.666672106.687119" x1="247.667" y1="106.687" x2="241.667" y2="106.687" stroke-width="0.8" stroke="black" />
<line id="247.666672122.024536241.666672122.024536" x1="247.667" y1="122.025" x2="241.667" y2="122.025" stroke-width="0.8" stroke="black" />
<line id="247.666672137.361969241.666672137.361969" x1="247.667" y1="137.362" x2="241.667" y2="137.362" stroke-width="0.8" stroke="black" />
<line id="247.666672152.699387237.666672152.699387" x1="247.667" y1="152.699" x2="237.667" y2="152.699" stroke-width="1.28" stroke="black" />
<text id="252.666672155.849380" x="252.667" y="155.849" dominant-baseline="" baseline-shift="" alignment-baseline="" font-size="9px" font-weight="normal" font-family="Helvetica,Arial" font-variant="normal" text-anchor="start" text-align="start" line-height="125%%" >
4 K</text>
<line id="247.666672168.036804241.666672168.036804" x1="247.667" y1="168.037" x2="241.667" y2="168.037" stroke-width="0.8" stroke="black" />
<line id="247.666672183.374237241.666672183.374237" x1="247.667" y1="183.374" x2="241.667" y2="183.374" stroke-width="0.8" stroke="black" />
<line id="247.666672198.711655241.666672198.711655" x1="247.667" y1="198.712" x2="241.667" y2="198.712" stroke-width="0.8" stroke="black" />
<line id="247.666672214.049072237.666672214.049072" x1="247.667" y1="214.049" x2="237.667" y2="214.049" stroke-width="1.28" stroke="black" />
<text id="252.666672217.199066" x="252.667" y="217.199" dominant-baseline="" baseline-shift="" alignment-baseline="" font-size="9px" font-weight="normal" font-family="Helvetica,Arial" font-variant="normal" text-anchor="start" text-align="start" line-height="125%%" >
6 K</text>
<line id="247.666672229.386505241.666672229.386505" x1="247.667" y1="229.387" x2="241.667" y2="229.387" stroke-width="0.8" stroke="black" />
<line id="247.666672244.723923241.666672244.723923" x1="247.667" y1="244.724" x2="241.667" y2="244.724" stroke-width="0.8" stroke="black" />
<line id="247.666672260.061340241.666672260.061340" x1="247.667" y1="260.061" x2="241.667" y2="260.061" stroke-width="0.8" stroke="black" />
<line id="247.666672275.398773237.666672275.398773" x1="247.667" y1="275.399" x2="237.667" y2="275.399" stroke-width="1.28" stroke="black" />
<text id="252.666672278.548767" x="252.667" y="278.549" dominant-baseline="" baseline-shift="" alignment-baseline="" font-size="9px" font-weight="normal" font-family="Helvetica,Arial" font-variant="normal" text-anchor="start" text-align="start" line-height="125%%" >
8 K</text>
<line id="247.666672290.736206241.666672290.736206" x1="247.667" y1="290.736" x2="241.667" y2="290.736" stroke-width="0.8" stroke="black" />
<line id="247.666672306.073608241.666672306.073608" x1="247.667" y1="306.074" x2="241.667" y2="306.074" stroke-width="0.8" stroke="black" />
<line id="247.666672321.411041241.666672321.411041" x1="247.667" y1="321.411" x2="241.667" y2="321.411" stroke-width="0.8" stroke="black" />
<line id="247.666672336.748474237.666672336.748474" x1="247.667" y1="336.748" x2="237.667" y2="336.748" stroke-width="1.28" stroke="black" />
<text id="252.666672339.898468" x="252.667" y="339.898" dominant-baseline="" baseline-shift="" alignment-baseline="" font-size="9px" font-weight="normal" font-family="Helvetica,Arial" font-variant="normal" text-anchor="start" text-align="start" line-height="125%%" >
10 K</text>
<line id="247.666672352.085876241.666672352.085876" x1="247.667" y1="352.086" x2="241.667" y2="352.086" stroke-width="0.8" stroke="black" />
<line id="247.666672367.423309241.666672367.423309" x1="247.667" y1="367.423" x2="241.667" y2="367.423" stroke-width="0.8" stroke="black" />
<line id="247.666672382.760742241.666672382.760742" x1="247.667" y1="382.761" x2="241.667" y2="382.761" stroke-width="0.8" stroke="black" />
<line id="247.666672398.098145237.666672398.098145" x1="247.667" y1="398.098" x2="237.667" y2="398.098" stroke-width="1.28" stroke="black" />
<text id="252.666672401.248138" x="252.667" y="401.248" dominant-baseline="" baseline-shift="" alignment-baseline="" font-size="9px" font-weight="normal" font-family="Helvetica,Arial" font-variant="normal" text-anchor="start" text-align="start" line-height="125%%" >
12 K</text>
<line id="247.666672413.435577241.666672413.435577" x1="247.667" y1="413.436" x2="241.667" y2="413.436" stroke-width="0.8" stroke="black" />
<line id="247.666672428.773010241.666672428.773010" x1="247.667" y1="428.773" x2="241.667" y2="428.773" stroke-width="0.8" stroke="black" />
<line id="247.666672444.110443241.666672444.110443" x1="247.667" y1="444.11" x2="241.667" y2="444.11" stroke-width="0.8" stroke="black" />
<line id="247.666672459.447845237.666672459.447845" x1="247.667" y1="459.448" x2="237.667" y2="459.448" stroke-width="1.28" stroke="black" />
<text id="252.666672462.597839" x="252.667" y="462.598" dominant-baseline="" baseline-shift="" alignment-baseline="" font-size="9px" font-weight="normal" font-family="Helvetica,Arial" font-variant="normal" text-anchor="start" text-align="start" line-height="125%%" >
14 K</text>
<line id="247.666672474.785278241.666672474.785278" x1="247.667" y1="474.785" x2="241.667" y2="474.785" stroke-width="0.8" stroke="black" />
<line id="247.666672490.122711241.666672490.122711" x1="247.667" y1="490.123" x2="241.667" y2="490.123" stroke-width="0.8" stroke="black" />
<line id="247.666672505.460114241.666672505.460114" x1="247.667" y1="505.46" x2="241.667" y2="505.46" stroke-width="0.8" stroke="black" />
<line id="247.666672520.797546237.666672520.797546" x1="247.667" y1="520.798" x2="237.667" y2="520.798" stroke-width="1.28" stroke="black" />
<text id="252.666672523.947571" x="252.667" y="523.948" dominant-baseline="" baseline-shift="" alignment-baseline="" font-size="9px" font-weight="normal" font-family="Helvetica,Arial" font-variant="normal" text-anchor="start" text-align="start" line-height="125%%" >
16 K</text>
<defs id="" >
<linearGradient id="grad100.000000190.000000" x1="0%" y1="0%" x2="100%" y2="0%" >
<stop offset="30%" stop-color="#77782C" stop-opacity="1" />
<stop offset="100%" stop-color="#9FA03B" stop-opacity="1" />
</linearGradient>
</defs>
<path id="100.000000190.000000" d="M 100,190
v 256.84
a 8,2 0 0,0 16,0
v -256.84
a 8,2 0 0,0 -16,0
z
" fill="url(#grad100.000000190.000000)" fill-opacity="0.9" stroke="#4F501D" stroke-opacity="0.9" stroke-linejoin="round" stroke-width="0.75" />
<ellipse cx="108" cy="190" rx="8.18" ry="2" stroke-width="0.3" fill-opacity="0.9" stroke-opacity="0.9" stroke="#4F501D" fill="url(#grad100.000000190.000000)" />
<ellipse cx="108" cy="446.84" rx="8.18" ry="2" stroke-width="0.3" fill-opacity="0.9" stroke-opacity="0.9" stroke="#4F501D" fill="url(#grad100.000000190.000000)" />
<defs id="" >
<linearGradient id="grad100.000000190.000000NRC" x1="0%" y1="0%" x2="100%" y2="0%" >
<stop offset="30%" stop-color="#CC3333" stop-opacity="1" />
<stop offset="100%" stop-color="#ff0000" stop-opacity="1" />
</linearGradient>
</defs>
<path id="80.666664190.000000" d="M 80.6667,190
v 256.84
a 2.66667,1 0 0,0 5.33333,0
v -256.84
a 2.66667,1 0 0,0 -5.33333,0
z
" fill="url(#grad100.000000190.000000NRC)" fill-opacity="0.9" stroke="#A00" stroke-opacity="0.9" stroke-linejoin="round" stroke-width="1.4" />
<ellipse cx="83.3333" cy="190" rx="3.00267" ry="1" stroke-width="0.56" fill-opacity="0.9" stroke-opacity="0.9" stroke="#A00" fill="url(#grad100.000000190.000000NRC)" />
<ellipse cx="83.3333" cy="446.84" rx="3.00267" ry="1" stroke-width="0.56" fill-opacity="0.9" stroke-opacity="0.9" stroke="#A00" fill="url(#grad100.000000190.000000NRC)" />
<defs id="" >
<linearGradient id="grad100.000000190.000000NRCRedun" x1="0%" y1="0%" x2="100%" y2="0%" >
<stop offset="30%" stop-color="#CC3333" stop-opacity="1" />
<stop offset="100%" stop-color="#ff0000" stop-opacity="1" />
</linearGradient>
</defs>
<path id="69.333328190.000000" d="M 69.3333,190
v 256.84
a 2.66667,1 0 0,0 5.33333,0
v -256.84
a 2.66667,1 0 0,0 -5.33333,0
z
" fill="url(#grad100.000000190.000000NRCRedun)" fill-opacity="0.9" stroke="#C00" stroke-opacity="0.9" stroke-linejoin="round" stroke-width="1.4" />
<ellipse cx="72" cy="190" rx="3.00267" ry="1" stroke-width="0.56" fill-opacity="0.9" stroke-opacity="0.9" stroke="#C00" fill="url(#grad100.000000190.000000NRCRedun)" />
<ellipse cx="72" cy="446.84" rx="3.00267" ry="1" stroke-width="0.56" fill-opacity="0.9" stroke-opacity="0.9" stroke="#C00" fill="url(#grad100.000000190.000000NRCRedun)" />
<defs id="" >
<linearGradient id="grad178.000000195.828217" x1="0%" y1="0%" x2="100%" y2="0%" >
<stop offset="30%" stop-color="#77782C" stop-opacity="1" />
<stop offset="100%" stop-color="#9FA03B" stop-opacity="1" />
</linearGradient>
</defs>
<path id="178.000000195.828217" d="M 178,195.828
v 213.558
a 8,2 0 0,0 16,0
v -213.558
a 8,2 0 0,0 -16,0
z
" fill="url(#grad178.000000195.828217)" fill-opacity="0.9" stroke="#4F501D" stroke-opacity="0.9" stroke-linejoin="round" stroke-width="0.75" />
<ellipse cx="186" cy="195.828" rx="8.18" ry="2" stroke-width="0.3" fill-opacity="0.9" stroke-opacity="0.9" stroke="#4F501D" fill="url(#grad178.000000195.828217)" />
<ellipse cx="186" cy="409.387" rx="8.18" ry="2" stroke-width="0.3" fill-opacity="0.9" stroke-opacity="0.9" stroke="#4F501D" fill="url(#grad178.000000195.828217)" />
<defs id="" >
<pattern id="Wavy178.000000195.828217" x="178" y="195.828" width="16" height="14" patternUnits="userSpaceOnUse" >
<path id="" d="m -2.1,11.9
l 10.1,-9.8
l 10.1,9.8
" fill="none" fill-opacity="0.9" stroke="#341" stroke-opacity="1" stroke-linejoin="round" stroke-width="4.2" />
</pattern>
</defs>
<path id="178.000000195.828217" d="M 178,195.828
v 213.558
a 8,2 0 0,0 16,0
v -213.558
a 8,2 0 0,0 -16,0
z
" fill="url(#Wavy178.000000195.828217)" fill-opacity="0.9" stroke="#4F501D" stroke-opacity="0.9" stroke-linejoin="round" stroke-width="0.75" />
<ellipse cx="186" cy="195.828" rx="8.18" ry="2" stroke-width="0.3" fill-opacity="0.9" stroke-opacity="0.9" stroke="#4F501D" fill="url(#Wavy178.000000195.828217)" />
<ellipse cx="186" cy="409.387" rx="8.18" ry="2" stroke-width="0.3" fill-opacity="0.9" stroke-opacity="0.9" stroke="#4F501D" fill="url(#Wavy178.000000195.828217)" />
<defs id="" >
<linearGradient id="grad178.000000195.828217NRC" x1="0%" y1="0%" x2="100%" y2="0%" >
<stop offset="30%" stop-color="#CC3333" stop-opacity="1" />
<stop offset="100%" stop-color="#ff0000" stop-opacity="1" />
</linearGradient>
</defs>
<path id="208.000000195.828217" d="M 208,195.828
v 213.558
a 2.66667,1 0 0,0 5.33333,0
v -213.558
a 2.66667,1 0 0,0 -5.33333,0
z
" fill="url(#grad178.000000195.828217NRC)" fill-opacity="0.9" stroke="#A00" stroke-opacity="0.9" stroke-linejoin="round" stroke-width="1.4" />
<ellipse cx="210.667" cy="195.828" rx="3.00267" ry="1" stroke-width="0.56" fill-opacity="0.9" stroke-opacity="0.9" stroke="#A00" fill="url(#grad178.000000195.828217NRC)" />
<ellipse cx="210.667" cy="409.387" rx="3.00267" ry="1" stroke-width="0.56" fill-opacity="0.9" stroke-opacity="0.9" stroke="#A00" fill="url(#grad178.000000195.828217NRC)" />
<defs id="" >
<linearGradient id="grad178.000000195.828217NRCRedun" x1="0%" y1="0%" x2="100%" y2="0%" >
<stop offset="30%" stop-color="#CC3333" stop-opacity="1" />
<stop offset="100%" stop-color="#ff0000" stop-opacity="1" />
</linearGradient>
</defs>
<path id="219.333328195.828217" d="M 219.333,195.828
v 213.558
a 2.66667,1 0 0,0 5.33333,0
v -213.558
a 2.66667,1 0 0,0 -5.33333,0
z
" fill="url(#grad178.000000195.828217NRCRedun)" fill-opacity="0.9" stroke="#C00" stroke-opacity="0.9" stroke-linejoin="round" stroke-width="1.4" />
<ellipse cx="222" cy="195.828" rx="3.00267" ry="1" stroke-width="0.56" fill-opacity="0.9" stroke-opacity="0.9" stroke="#C00" fill="url(#grad178.000000195.828217NRCRedun)" />
<ellipse cx="222" cy="409.387" rx="3.00267" ry="1" stroke-width="0.56" fill-opacity="0.9" stroke-opacity="0.9" stroke="#C00" fill="url(#grad178.000000195.828217NRCRedun)" />
<polygon points="116,190 116,446.84 178,195.828 178,409.387 " fill="#9FA03B" stroke="#9FA03B" stroke-width="1" stroke-opacity="0.45" fill-opacity="0.45" />
<defs id="" >
<linearGradient id="grad100.00000030.000000" x1="0%" y1="0%" x2="100%" y2="0%" >
<stop offset="30%" stop-color="#782D2C" stop-opacity="1" />
<stop offset="100%" stop-color="#A03C3B" stop-opacity="1" />
</linearGradient>
</defs>
<path id="100.00000030.000000" d="M 100,30
v 243.62
a 8,2 0 0,0 16,0
v -243.62
a 8,2 0 0,0 -16,0
z
" fill="url(#grad100.00000030.000000)" fill-opacity="0.9" stroke="#501E1D" stroke-opacity="0.9" stroke-linejoin="round" stroke-width="0.75" />
<ellipse cx="108" cy="30" rx="8.18" ry="2" stroke-width="0.3" fill-opacity="0.9" stroke-opacity="0.9" stroke="#501E1D" fill="url(#grad100.00000030.000000)" />
<ellipse cx="108" cy="273.62" rx="8.18" ry="2" stroke-width="0.3" fill-opacity="0.9" stroke-opacity="0.9" stroke="#501E1D" fill="url(#grad100.00000030.000000)" />
<defs id="" >
<linearGradient id="grad100.00000030.000000NRC" x1="0%" y1="0%" x2="100%" y2="0%" >
<stop offset="30%" stop-color="#CC9933" stop-opacity="1" />
<stop offset="100%" stop-color="#ffaa00" stop-opacity="1" />
</linearGradient>
</defs>
<path id="80.66666430.000000" d="M 80.6667,30
v 243.62
a 2.66667,1 0 0,0 5.33333,0
v -243.62
a 2.66667,1 0 0,0 -5.33333,0
z
" fill="url(#grad100.00000030.000000NRC)" fill-opacity="0.9" stroke="#A60" stroke-opacity="0.9" stroke-linejoin="round" stroke-width="1.4" />
<ellipse cx="83.3333" cy="30" rx="3.00267" ry="1" stroke-width="0.56" fill-opacity="0.9" stroke-opacity="0.9" stroke="#A60" fill="url(#grad100.00000030.000000NRC)" />
<ellipse cx="83.3333" cy="273.62" rx="3.00267" ry="1" stroke-width="0.56" fill-opacity="0.9" stroke-opacity="0.9" stroke="#A60" fill="url(#grad100.00000030.000000NRC)" />
<defs id="" >
<linearGradient id="grad100.00000030.000000NRCRedun" x1="0%" y1="0%" x2="100%" y2="0%" >
<stop offset="30%" stop-color="#CC3333" stop-opacity="1" />
<stop offset="100%" stop-color="#ff0000" stop-opacity="1" />
</linearGradient>
</defs>
<path id="69.33332830.000000" d="M 69.3333,30
v 243.62
a 2.66667,1 0 0,0 5.33333,0
v -243.62
a 2.66667,1 0 0,0 -5.33333,0
z
" fill="url(#grad100.00000030.000000NRCRedun)" fill-opacity="0.9" stroke="#C00" stroke-opacity="0.9" stroke-linejoin="round" stroke-width="1.4" />
<ellipse cx="72" cy="30" rx="3.00267" ry="1" stroke-width="0.56" fill-opacity="0.9" stroke-opacity="0.9" stroke="#C00" fill="url(#grad100.00000030.000000NRCRedun)" />
<ellipse cx="72" cy="273.62" rx="3.00267" ry="1" stroke-width="0.56" fill-opacity="0.9" stroke-opacity="0.9" stroke="#C00" fill="url(#grad100.00000030.000000NRCRedun)" />
<defs id="" >
<linearGradient id="grad178.00000030.000000" x1="0%" y1="0%" x2="100%" y2="0%" >
<stop offset="30%" stop-color="#782D2C" stop-opacity="1" />
<stop offset="100%" stop-color="#A03C3B" stop-opacity="1" />
</linearGradient>
</defs>
<path id="178.00000030.000000" d="M 178,30
v 233.19
a 8,2 0 0,0 16,0
v -233.19
a 8,2 0 0,0 -16,0
z
" fill="url(#grad178.00000030.000000)" fill-opacity="0.9" stroke="#501E1D" stroke-opacity="0.9" stroke-linejoin="round" stroke-width="0.75" />
<ellipse cx="186" cy="30" rx="8.18" ry="2" stroke-width="0.3" fill-opacity="0.9" stroke-opacity="0.9" stroke="#501E1D" fill="url(#grad178.00000030.000000)" />
<ellipse cx="186" cy="263.19" rx="8.18" ry="2" stroke-width="0.3" fill-opacity="0.9" stroke-opacity="0.9" stroke="#501E1D" fill="url(#grad178.00000030.000000)" />
<defs id="" >
<linearGradient id="grad178.00000030.000000NRC" x1="0%" y1="0%" x2="100%" y2="0%" >
<stop offset="30%" stop-color="#CC9933" stop-opacity="1" />
<stop offset="100%" stop-color="#ffaa00" stop-opacity="1" />
</linearGradient>
</defs>
<path id="208.00000030.000000" d="M 208,30
v 233.19
a 2.66667,1 0 0,0 5.33333,0
v -233.19
a 2.66667,1 0 0,0 -5.33333,0
z
" fill="url(#grad178.00000030.000000NRC)" fill-opacity="0.9" stroke="#A60" stroke-opacity="0.9" stroke-linejoin="round" stroke-width="1.4" />
<ellipse cx="210.667" cy="30" rx="3.00267" ry="1" stroke-width="0.56" fill-opacity="0.9" stroke-opacity="0.9" stroke="#A60" fill="url(#grad178.00000030.000000NRC)" />
<ellipse cx="210.667" cy="263.19" rx="3.00267" ry="1" stroke-width="0.56" fill-opacity="0.9" stroke-opacity="0.9" stroke="#A60" fill="url(#grad178.00000030.000000NRC)" />
<defs id="" >
<linearGradient id="grad178.00000030.000000NRCRedun" x1="0%" y1="0%" x2="100%" y2="0%" >
<stop offset="30%" stop-color="#CC3333" stop-opacity="1" />
<stop offset="100%" stop-color="#ff0000" stop-opacity="1" />
</linearGradient>
</defs>
<path id="219.33332830.000000" d="M 219.333,30
v 233.19
a 2.66667,1 0 0,0 5.33333,0
v -233.19
a 2.66667,1 0 0,0 -5.33333,0
z
" fill="url(#grad178.00000030.000000NRCRedun)" fill-opacity="0.9" stroke="#C00" stroke-opacity="0.9" stroke-linejoin="round" stroke-width="1.4" />
<ellipse cx="222" cy="30" rx="3.00267" ry="1" stroke-width="0.56" fill-opacity="0.9" stroke-opacity="0.9" stroke="#C00" fill="url(#grad178.00000030.000000NRCRedun)" />
<ellipse cx="222" cy="263.19" rx="3.00267" ry="1" stroke-width="0.56" fill-opacity="0.9" stroke-opacity="0.9" stroke="#C00" fill="url(#grad178.00000030.000000NRCRedun)" />
<polygon points="116,30 116,273.62 178,263.19 178,30 " fill="#A03C3B" stroke="#A03C3B" stroke-width="1" stroke-opacity="0.45" fill-opacity="0.45" />
<path id="100.00000030.000000" d="M 100,30
v 501.166
a 8,2 0 0,0 16,0
v -501.166
a 8,2 0 0,0 -16,0
z
" fill="none" fill-opacity="0.9" stroke="black" stroke-opacity="1" stroke-linejoin="round" stroke-width="1" />
<ellipse cx="108" cy="30" rx="8.24" ry="2" stroke-width="0.4" fill-opacity="0.9" stroke-opacity="1" stroke="black" fill="none" />
<ellipse cx="108" cy="531.166" rx="8.24" ry="2" stroke-width="0.4" fill-opacity="0.9" stroke-opacity="1" stroke="black" fill="none" />
<path id="178.00000030.000000" d="M 178,30
v 501.963
a 8,2 0 0,0 16,0
v -501.963
a 8,2 0 0,0 -16,0
z
" fill="none" fill-opacity="0.9" stroke="black" stroke-opacity="1" stroke-linejoin="round" stroke-width="1" />
<ellipse cx="186" cy="30" rx="8.24" ry="2" stroke-width="0.4" fill-opacity="0.9" stroke-opacity="1" stroke="black" fill="none" />
<ellipse cx="186" cy="531.963" rx="8.24" ry="2" stroke-width="0.4" fill-opacity="0.9" stroke-opacity="1" stroke="black" fill="none" />
<text id="108.00000020.400000" x="108" y="20.4" dominant-baseline="" baseline-shift="" alignment-baseline="" font-size="10px" font-weight="bold" font-family="Helvetica,Arial" font-variant="normal" text-anchor="middle" text-align="start" line-height="125%%" >
B.taurus</text>
<text id="186.00000020.400000" x="186" y="20.4" dominant-baseline="" baseline-shift="" alignment-baseline="" font-size="10px" font-weight="bold" font-family="Helvetica,Arial" font-variant="normal" text-anchor="middle" text-align="start" line-height="125%%" >
G.gorilla</text>
<defs id="" >
<linearGradient id="grad92.000000571.963196" x1="0%" y1="0%" x2="100%" y2="0%" >
<stop offset="0%" stop-color="#0000ff" stop-opacity="1" />
<stop offset="8%" stop-color="#0055ff" stop-opacity="1" />
<stop offset="16%" stop-color="#00aaff" stop-opacity="1" />
<stop offset="25%" stop-color="#00ffff" stop-opacity="1" />
<stop offset="33%" stop-color="#00ffaa" stop-opacity="1" />
<stop offset="41%" stop-color="#00ff55" stop-opacity="1" />
<stop offset="50%" stop-color="#00ff00" stop-opacity="1" />
<stop offset="58%" stop-color="#55ff00" stop-opacity="1" />
<stop offset="66%" stop-color="#aaff00" stop-opacity="1" />
<stop offset="75%" stop-color="#ffff00" stop-opacity="1" />
<stop offset="83%" stop-color="#ffaa00" stop-opacity="1" />
<stop offset="91%" stop-color="#ff5500" stop-opacity="1" />
<stop offset="100%" stop-color="#ff0000" stop-opacity="1" />
</linearGradient>
</defs>
<rect x="92" y="571.963" width="110" height="11" rx="2" ry="2" fill="url(#grad92.000000571.963196)" fill-opacity="0.9" stroke="black" stroke-width="0.5" />
<text id="147.000000565.113220" x="147" y="565.113" dominant-baseline="" baseline-shift="" alignment-baseline="" font-size="9px" font-family="Helvetica,Arial" font-variant="normal" text-anchor="middle" text-align="start" line-height="125%%" >
Relative Redundancy</text>
<text id="147.000000596.113220" x="147" y="596.113" dominant-baseline="" baseline-shift="" alignment-baseline="" font-size="9px" font-family="Helvetica,Arial" font-variant="normal" text-anchor="middle" text-align="start" line-height="125%%" >
Redundancy</text>
<text id="88.000000577.463196" x="88" y="577.463" dy="2.8" dominant-baseline="" baseline-shift="" alignment-baseline="" font-size="8px" font-weight="bold" font-family="Helvetica,Arial" font-variant="normal" text-anchor="end" text-align="start" line-height="125%%" >
0.0</text>
<text id="206.000000577.463196" x="206" y="577.463" dy="2.8" dominant-baseline="" baseline-shift="" alignment-baseline="" font-size="8px" font-weight="bold" font-family="Helvetica,Arial" font-variant="normal" text-anchor="start" text-align="start" line-height="125%%" >
2.0</text>
<text id="119.500000577.463196" x="119.5" y="577.463" dy="2.8" dominant-baseline="" baseline-shift="" alignment-baseline="" font-size="8px" font-weight="bold" font-family="Helvetica,Arial" font-variant="normal" text-anchor="middle" text-align="start" line-height="125%%" >
0.5</text>
<text id="147.000000577.463196" x="147" y="577.463" dy="2.8" dominant-baseline="" baseline-shift="" alignment-baseline="" font-size="8px" font-weight="bold" font-family="Helvetica,Arial" font-variant="normal" text-anchor="middle" text-align="start" line-height="125%%" >
1.0</text>
<text id="174.500000577.463196" x="174.5" y="577.463" dy="2.8" dominant-baseline="" baseline-shift="" alignment-baseline="" font-size="8px" font-weight="bold" font-family="Helvetica,Arial" font-variant="normal" text-anchor="middle" text-align="start" line-height="125%%" >
1.5</text>
<path id="" d="M 83.3333,446.84
V 561.963
H 97
" fill="none" fill-opacity="0.9" stroke="black" stroke-opacity="1" stroke-linejoin="round" stroke-width="0.5" />
<path id="" d="M 210.667,409.387
V 561.963
H 197
" fill="none" fill-opacity="0.9" stroke="black" stroke-opacity="1" stroke-linejoin="round" stroke-width="0.5" />
<path id="" d="M 72,446.84
V 592.963
H 115
" fill="none" fill-opacity="0.9" stroke="black" stroke-opacity="1" stroke-linejoin="round" stroke-width="0.5" />
<path id="" d="M 222,409.387
V 592.963
H 179
" fill="none" fill-opacity="0.9" stroke="black" stroke-opacity="1" stroke-linejoin="round" stroke-width="0.5" />
</svg>