<?xml version="1.0" encoding="UTF-8" standalone="no"?>
<!-- Morteza Hosseini, IEETA 2018-2019 -->
<svg xmlns="http://www.w3.org/2000/svg" xmlns:xlink="http://www.w3.org/1999/xlink" viewBox="0 0 294.000000 606.636353" >
<rect x="0" y="0" width="294" height="606.636" rx="1" ry="1" fill="white" fill-opacity="0.9" stroke="white" stroke-width="0" />
<line id="46.33332830.00000046.333328526.518799" x1="46.3333" y1="30" x2="46.3333" y2="526.519" stroke-width="1.28" stroke="black" />
<text id="41.33332836.299999" x="41.3333" y="36.3" dominant-baseline="" baseline-shift="" alignment-baseline="" font-size="10px" font-weight="bold" font-family="Helvetica,Arial" font-variant="normal" text-anchor="end" text-align="start" line-height="125%%" >
bp</text>
<line id="46.33332830.63999956.33332830.639999" x1="46.3333" y1="30.64" x2="56.3333" y2="30.64" stroke-width="1.28" stroke="black" />
<line id="46.33332845.15151652.33332845.151516" x1="46.3333" y1="45.1515" x2="52.3333" y2="45.1515" stroke-width="0.8" stroke="black" />
<line id="46.33332860.30303252.33332860.303032" x1="46.3333" y1="60.303" x2="52.3333" y2="60.303" stroke-width="0.8" stroke="black" />
<line id="46.33332875.45454452.33332875.454544" x1="46.3333" y1="75.4545" x2="52.3333" y2="75.4545" stroke-width="0.8" stroke="black" />
<line id="46.33332890.60606456.33332890.606064" x1="46.3333" y1="90.6061" x2="56.3333" y2="90.6061" stroke-width="1.28" stroke="black" />
<text id="41.33332893.756065" x="41.3333" y="93.7561" dominant-baseline="" baseline-shift="" alignment-baseline="" font-size="9px" font-weight="normal" font-family="Helvetica,Arial" font-variant="normal" text-anchor="end" text-align="start" line-height="125%%" >
2 K</text>
<line id="46.333328105.75757652.333328105.757576" x1="46.3333" y1="105.758" x2="52.3333" y2="105.758" stroke-width="0.8" stroke="black" />
<line id="46.333328120.90908852.333328120.909088" x1="46.3333" y1="120.909" x2="52.3333" y2="120.909" stroke-width="0.8" stroke="black" />
<line id="46.333328136.06060852.333328136.060608" x1="46.3333" y1="136.061" x2="52.3333" y2="136.061" stroke-width="0.8" stroke="black" />
<line id="46.333328151.21212856.333328151.212128" x1="46.3333" y1="151.212" x2="56.3333" y2="151.212" stroke-width="1.28" stroke="black" />
<text id="41.333328154.362122" x="41.3333" y="154.362" dominant-baseline="" baseline-shift="" alignment-baseline="" font-size="9px" font-weight="normal" font-family="Helvetica,Arial" font-variant="normal" text-anchor="end" text-align="start" line-height="125%%" >
4 K</text>
<line id="46.333328166.36363252.333328166.363632" x1="46.3333" y1="166.364" x2="52.3333" y2="166.364" stroke-width="0.8" stroke="black" />
<line id="46.333328181.51515252.333328181.515152" x1="46.3333" y1="181.515" x2="52.3333" y2="181.515" stroke-width="0.8" stroke="black" />
<line id="46.333328196.66667252.333328196.666672" x1="46.3333" y1="196.667" x2="52.3333" y2="196.667" stroke-width="0.8" stroke="black" />
<line id="46.333328211.81817656.333328211.818176" x1="46.3333" y1="211.818" x2="56.3333" y2="211.818" stroke-width="1.28" stroke="black" />
<text id="41.333328214.968170" x="41.3333" y="214.968" dominant-baseline="" baseline-shift="" alignment-baseline="" font-size="9px" font-weight="normal" font-family="Helvetica,Arial" font-variant="normal" text-anchor="end" text-align="start" line-height="125%%" >
6 K</text>
<line id="46.333328226.96969652.333328226.969696" x1="46.3333" y1="226.97" x2="52.3333" y2="226.97" stroke-width="0.8" stroke="black" />
<line id="46.333328242.12121652.333328242.121216" x1="46.3333" y1="242.121" x2="52.3333" y2="242.121" stroke-width="0.8" stroke="black" />
<line id="46.333328257.27273652.333328257.272736" x1="46.3333" y1="257.273" x2="52.3333" y2="257.273" stroke-width="0.8" stroke="black" />
<line id="46.333328272.42425556.333328272.424255" x1="46.3333" y1="272.424" x2="56.3333" y2="272.424" stroke-width="1.28" stroke="black" />
<text id="41.333328275.574249" x="41.3333" y="275.574" dominant-baseline="" baseline-shift="" alignment-baseline="" font-size="9px" font-weight="normal" font-family="Helvetica,Arial" font-variant="normal" text-anchor="end" text-align="start" line-height="125%%" >
8 K</text>
<line id="46.333328287.57574552.333328287.575745" x1="46.3333" y1="287.576" x2="52.3333" y2="287.576" stroke-width="0.8" stroke="black" />
<line id="46.333328302.72726452.333328302.727264" x1="46.3333" y1="302.727" x2="52.3333" y2="302.727" stroke-width="0.8" stroke="black" />
<line id="46.333328317.87878452.333328317.878784" x1="46.3333" y1="317.879" x2="52.3333" y2="317.879" stroke-width="0.8" stroke="black" />
<line id="46.333328333.03030456.333328333.030304" x1="46.3333" y1="333.03" x2="56.3333" y2="333.03" stroke-width="1.28" stroke="black" />
<text id="41.333328336.180298" x="41.3333" y="336.18" dominant-baseline="" baseline-shift="" alignment-baseline="" font-size="9px" font-weight="normal" font-family="Helvetica,Arial" font-variant="normal" text-anchor="end" text-align="start" line-height="125%%" >
10 K</text>
<line id="46.333328348.18182452.333328348.181824" x1="46.3333" y1="348.182" x2="52.3333" y2="348.182" stroke-width="0.8" stroke="black" />
<line id="46.333328363.33334452.333328363.333344" x1="46.3333" y1="363.333" x2="52.3333" y2="363.333" stroke-width="0.8" stroke="black" />
<line id="46.333328378.48486352.333328378.484863" x1="46.3333" y1="378.485" x2="52.3333" y2="378.485" stroke-width="0.8" stroke="black" />
<line id="46.333328393.63635356.333328393.636353" x1="46.3333" y1="393.636" x2="56.3333" y2="393.636" stroke-width="1.28" stroke="black" />
<text id="41.333328396.786346" x="41.3333" y="396.786" dominant-baseline="" baseline-shift="" alignment-baseline="" font-size="9px" font-weight="normal" font-family="Helvetica,Arial" font-variant="normal" text-anchor="end" text-align="start" line-height="125%%" >
12 K</text>
<line id="46.333328408.78787252.333328408.787872" x1="46.3333" y1="408.788" x2="52.3333" y2="408.788" stroke-width="0.8" stroke="black" />
<line id="46.333328423.93939252.333328423.939392" x1="46.3333" y1="423.939" x2="52.3333" y2="423.939" stroke-width="0.8" stroke="black" />
<line id="46.333328439.09091252.333328439.090912" x1="46.3333" y1="439.091" x2="52.3333" y2="439.091" stroke-width="0.8" stroke="black" />
<line id="46.333328454.24243256.333328454.242432" x1="46.3333" y1="454.242" x2="56.3333" y2="454.242" stroke-width="1.28" stroke="black" />
<text id="41.333328457.392426" x="41.3333" y="457.392" dominant-baseline="" baseline-shift="" alignment-baseline="" font-size="9px" font-weight="normal" font-family="Helvetica,Arial" font-variant="normal" text-anchor="end" text-align="start" line-height="125%%" >
14 K</text>
<line id="46.333328469.39395152.333328469.393951" x1="46.3333" y1="469.394" x2="52.3333" y2="469.394" stroke-width="0.8" stroke="black" />
<line id="46.333328484.54544152.333328484.545441" x1="46.3333" y1="484.545" x2="52.3333" y2="484.545" stroke-width="0.8" stroke="black" />
<line id="46.333328499.69696052.333328499.696960" x1="46.3333" y1="499.697" x2="52.3333" y2="499.697" stroke-width="0.8" stroke="black" />
<line id="46.333328514.84851156.333328514.848511" x1="46.3333" y1="514.849" x2="56.3333" y2="514.849" stroke-width="1.28" stroke="black" />
<text id="41.333328517.998535" x="41.3333" y="517.999" dominant-baseline="" baseline-shift="" alignment-baseline="" font-size="9px" font-weight="normal" font-family="Helvetica,Arial" font-variant="normal" text-anchor="end" text-align="start" line-height="125%%" >
16 K</text>
<line id="247.66667230.000000247.666672532.276367" x1="247.667" y1="30" x2="247.667" y2="532.276" stroke-width="1.28" stroke="black" />
<text id="252.66667236.299999" x="252.667" y="36.3" dominant-baseline="" baseline-shift="" alignment-baseline="" font-size="10px" font-weight="bold" font-family="Helvetica,Arial" font-variant="normal" text-anchor="start" text-align="start" line-height="125%%" >
bp</text>
<line id="247.66667230.639999237.66667230.639999" x1="247.667" y1="30.64" x2="237.667" y2="30.64" stroke-width="1.28" stroke="black" />
<line id="247.66667245.151516241.66667245.151516" x1="247.667" y1="45.1515" x2="241.667" y2="45.1515" stroke-width="0.8" stroke="black" />
<line id="247.66667260.303032241.66667260.303032" x1="247.667" y1="60.303" x2="241.667" y2="60.303" stroke-width="0.8" stroke="black" />
<line id="247.66667275.454544241.66667275.454544" x1="247.667" y1="75.4545" x2="241.667" y2="75.4545" stroke-width="0.8" stroke="black" />
<line id="247.66667290.606064237.66667290.606064" x1="247.667" y1="90.6061" x2="237.667" y2="90.6061" stroke-width="1.28" stroke="black" />
<text id="252.66667293.756065" x="252.667" y="93.7561" dominant-baseline="" baseline-shift="" alignment-baseline="" font-size="9px" font-weight="normal" font-family="Helvetica,Arial" font-variant="normal" text-anchor="start" text-align="start" line-height="125%%" >
2 K</text>
<line id="247.666672105.757576241.666672105.757576" x1="247.667" y1="105.758" x2="241.667" y2="105.758" stroke-width="0.8" stroke="black" />
<line id="247.666672120.909088241.666672120.909088" x1="247.667" y1="120.909" x2="241.667" y2="120.909" stroke-width="0.8" stroke="black" />
<line id="247.666672136.060608241.666672136.060608" x1="247.667" y1="136.061" x2="241.667" y2="136.061" stroke-width="0.8" stroke="black" />
<line id="247.666672151.212128237.666672151.212128" x1="247.667" y1="151.212" x2="237.667" y2="151.212" stroke-width="1.28" stroke="black" />
<text id="252.666672154.362122" x="252.667" y="154.362" dominant-baseline="" baseline-shift="" alignment-baseline="" font-size="9px" font-weight="normal" font-family="Helvetica,Arial" font-variant="normal" text-anchor="start" text-align="start" line-height="125%%" >
4 K</text>
<line id="247.666672166.363632241.666672166.363632" x1="247.667" y1="166.364" x2="241.667" y2="166.364" stroke-width="0.8" stroke="black" />
<line id="247.666672181.515152241.666672181.515152" x1="247.667" y1="181.515" x2="241.667" y2="181.515" stroke-width="0.8" stroke="black" />
<line id="247.666672196.666672241.666672196.666672" x1="247.667" y1="196.667" x2="241.667" y2="196.667" stroke-width="0.8" stroke="black" />
<line id="247.666672211.818176237.666672211.818176" x1="247.667" y1="211.818" x2="237.667" y2="211.818" stroke-width="1.28" stroke="black" />
<text id="252.666672214.968170" x="252.667" y="214.968" dominant-baseline="" baseline-shift="" alignment-baseline="" font-size="9px" font-weight="normal" font-family="Helvetica,Arial" font-variant="normal" text-anchor="start" text-align="start" line-height="125%%" >
6 K</text>
<line id="247.666672226.969696241.666672226.969696" x1="247.667" y1="226.97" x2="241.667" y2="226.97" stroke-width="0.8" stroke="black" />
<line id="247.666672242.121216241.666672242.121216" x1="247.667" y1="242.121" x2="241.667" y2="242.121" stroke-width="0.8" stroke="black" />
<line id="247.666672257.272736241.666672257.272736" x1="247.667" y1="257.273" x2="241.667" y2="257.273" stroke-width="0.8" stroke="black" />
<line id="247.666672272.424255237.666672272.424255" x1="247.667" y1="272.424" x2="237.667" y2="272.424" stroke-width="1.28" stroke="black" />
<text id="252.666672275.574249" x="252.667" y="275.574" dominant-baseline="" baseline-shift="" alignment-baseline="" font-size="9px" font-weight="normal" font-family="Helvetica,Arial" font-variant="normal" text-anchor="start" text-align="start" line-height="125%%" >
8 K</text>
<line id="247.666672287.575745241.666672287.575745" x1="247.667" y1="287.576" x2="241.667" y2="287.576" stroke-width="0.8" stroke="black" />
<line id="247.666672302.727264241.666672302.727264" x1="247.667" y1="302.727" x2="241.667" y2="302.727" stroke-width="0.8" stroke="black" />
<line id="247.666672317.878784241.666672317.878784" x1="247.667" y1="317.879" x2="241.667" y2="317.879" stroke-width="0.8" stroke="black" />
<line id="247.666672333.030304237.666672333.030304" x1="247.667" y1="333.03" x2="237.667" y2="333.03" stroke-width="1.28" stroke="black" />
<text id="252.666672336.180298" x="252.667" y="336.18" dominant-baseline="" baseline-shift="" alignment-baseline="" font-size="9px" font-weight="normal" font-family="Helvetica,Arial" font-variant="normal" text-anchor="start" text-align="start" line-height="125%%" >
10 K</text>
<line id="247.666672348.181824241.666672348.181824" x1="247.667" y1="348.182" x2="241.667" y2="348.182" stroke-width="0.8" stroke="black" />
<line id="247.666672363.333344241.666672363.333344" x1="247.667" y1="363.333" x2="241.667" y2="363.333" stroke-width="0.8" stroke="black" />
<line id="247.666672378.484863241.666672378.484863" x1="247.667" y1="378.485" x2="241.667" y2="378.485" stroke-width="0.8" stroke="black" />
<line id="247.666672393.636353237.666672393.636353" x1="247.667" y1="393.636" x2="237.667" y2="393.636" stroke-width="1.28" stroke="black" />
<text id="252.666672396.786346" x="252.667" y="396.786" dominant-baseline="" baseline-shift="" alignment-baseline="" font-size="9px" font-weight="normal" font-family="Helvetica,Arial" font-variant="normal" text-anchor="start" text-align="start" line-height="125%%" >
12 K</text>
<line id="247.666672408.787872241.666672408.787872" x1="247.667" y1="408.788" x2="241.667" y2="408.788" stroke-width="0.8" stroke="black" />
<line id="247.666672423.939392241.666672423.939392" x1="247.667" y1="423.939" x2="241.667" y2="423.939" stroke-width="0.8" stroke="black" />
<line id="247.666672439.090912241.666672439.090912" x1="247.667" y1="439.091" x2="241.667" y2="439.091" stroke-width="0.8" stroke="black" />
<line id="247.666672454.242432237.666672454.242432" x1="247.667" y1="454.242" x2="237.667" y2="454.242" stroke-width="1.28" stroke="black" />
<text id="252.666672457.392426" x="252.667" y="457.392" dominant-baseline="" baseline-shift="" alignment-baseline="" font-size="9px" font-weight="normal" font-family="Helvetica,Arial" font-variant="normal" text-anchor="start" text-align="start" line-height="125%%" >
14 K</text>
<line id="247.666672469.393951241.666672469.393951" x1="247.667" y1="469.394" x2="241.667" y2="469.394" stroke-width="0.8" stroke="black" />
<line id="247.666672484.545441241.666672484.545441" x1="247.667" y1="484.545" x2="241.667" y2="484.545" stroke-width="0.8" stroke="black" />
<line id="247.666672499.696960241.666672499.696960" x1="247.667" y1="499.697" x2="241.667" y2="499.697" stroke-width="0.8" stroke="black" />
<line id="247.666672514.848511237.666672514.848511" x1="247.667" y1="514.849" x2="237.667" y2="514.849" stroke-width="1.28" stroke="black" />
<text id="252.666672517.998535" x="252.667" y="517.999" dominant-baseline="" baseline-shift="" alignment-baseline="" font-size="9px" font-weight="normal" font-family="Helvetica,Arial" font-variant="normal" text-anchor="start" text-align="start" line-height="125%%" >
16 K</text>
<line id="247.666672530.000000241.666672530.000000" x1="247.667" y1="530" x2="241.667" y2="530" stroke-width="0.8" stroke="black" />
<defs id="" >
<linearGradient id="grad100.000000211.151520" x1="0%" y1="0%" x2="100%" y2="0%" >
<stop offset="30%" stop-color="#2C7478" stop-opacity="1" />
<stop offset="100%" stop-color="#3B9BA0" stop-opacity="1" />
</linearGradient>
</defs>
<path id="100.000000211.151520" d="M 100,211.152
v 154.939
a 8,2 0 0,0 16,0
v -154.939
a 8,2 0 0,0 -16,0
z
" fill="url(#grad100.000000211.151520)" fill-opacity="0.9" stroke="#1D4D50" stroke-opacity="0.9" stroke-linejoin="round" stroke-width="0.75" />
<ellipse cx="108" cy="211.152" rx="8.18" ry="2" stroke-width="0.3" fill-opacity="0.9" stroke-opacity="0.9" stroke="#1D4D50" fill="url(#grad100.000000211.151520)" />
<ellipse cx="108" cy="366.091" rx="8.18" ry="2" stroke-width="0.3" fill-opacity="0.9" stroke-opacity="0.9" stroke="#1D4D50" fill="url(#grad100.000000211.151520)" />
<defs id="" >
<linearGradient id="grad100.000000211.151520NRC" x1="0%" y1="0%" x2="100%" y2="0%" >
<stop offset="30%" stop-color="#CC3333" stop-opacity="1" />
<stop offset="100%" stop-color="#ff0000" stop-opacity="1" />
</linearGradient>
</defs>
<path id="80.666664211.151520" d="M 80.6667,211.152
v 154.939
a 2.66667,1 0 0,0 5.33333,0
v -154.939
a 2.66667,1 0 0,0 -5.33333,0
z
" fill="url(#grad100.000000211.151520NRC)" fill-opacity="0.9" stroke="#A00" stroke-opacity="0.9" stroke-linejoin="round" stroke-width="1.4" />
<ellipse cx="83.3333" cy="211.152" rx="3.00267" ry="1" stroke-width="0.56" fill-opacity="0.9" stroke-opacity="0.9" stroke="#A00" fill="url(#grad100.000000211.151520NRC)" />
<ellipse cx="83.3333" cy="366.091" rx="3.00267" ry="1" stroke-width="0.56" fill-opacity="0.9" stroke-opacity="0.9" stroke="#A00" fill="url(#grad100.000000211.151520NRC)" />
<defs id="" >
<linearGradient id="grad100.000000211.151520NRCRedun" x1="0%" y1="0%" x2="100%" y2="0%" >
<stop offset="30%" stop-color="#CC3333" stop-opacity="1" />
<stop offset="100%" stop-color="#ff0000" stop-opacity="1" />
</linearGradient>
</defs>
<path id="69.333328211.151520" d="M 69.3333,211.152
v 154.939
a 2.66667,1 0 0,0 5.33333,0
v -154.939
a 2.66667,1 0 0,0 -5.33333,0
z
" fill="url(#grad100.000000211.151520NRCRedun)" fill-opacity="0.9" stroke="#C00" stroke-opacity="0.9" stroke-linejoin="round" stroke-width="1.4" />
<ellipse cx="72" cy="211.152" rx="3.00267" ry="1" stroke-width="0.56" fill-opacity="0.9" stroke-opacity="0.9" stroke="#C00" fill="url(#grad100.000000211.151520NRCRedun)" />
<ellipse cx="72" cy="366.091" rx="3.00267" ry="1" stroke-width="0.56" fill-opacity="0.9" stroke-opacity="0.9" stroke="#C00" fill="url(#grad100.000000211.151520NRCRedun)" />
<defs id="" >
<linearGradient id="grad178.000000243.666672" x1="0%" y1="0%" x2="100%" y2="0%" >
<stop offset="30%" stop-color="#2C7478" stop-opacity="1" />
<stop offset="100%" stop-color="#3B9BA0" stop-opacity="1" />
</linearGradient>
</defs>
<path id="178.000000243.666672" d="M 178,243.667
v 118.788
a 8,2 0 0,0 16,0
v -118.788
a 8,2 0 0,0 -16,0
z
" fill="url(#grad178.000000243.666672)" fill-opacity="0.9" stroke="#1D4D50" stroke-opacity="0.9" stroke-linejoin="round" stroke-width="0.75" />
<ellipse cx="186" cy="243.667" rx="8.18" ry="2" stroke-width="0.3" fill-opacity="0.9" stroke-opacity="0.9" stroke="#1D4D50" fill="url(#grad178.000000243.666672)" />
<ellipse cx="186" cy="362.455" rx="8.18" ry="2" stroke-width="0.3" fill-opacity="0.9" stroke-opacity="0.9" stroke="#1D4D50" fill="url(#grad178.000000243.666672)" />
<defs id="" >
<pattern id="Wavy178.000000243.666672" x="178" y="243.667" width="16" height="14" patternUnits="userSpaceOnUse" >
<path id="" d="m -2.1,11.9
l 10.1,-9.8
l 10.1,9.8
" fill="none" fill-opacity="0.9" stroke="#134" stroke-opacity="1" stroke-linejoin="round" stroke-width="4.2" />
</pattern>
</defs>
<path id="178.000000243.666672" d="M 178,243.667
v 118.788
a 8,2 0 0,0 16,0
v -118.788
a 8,2 0 0,0 -16,0
z
" fill="url(#Wavy178.000000243.666672)" fill-opacity="0.9" stroke="#1D4D50" stroke-opacity="0.9" stroke-linejoin="round" stroke-width="0.75" />
<ellipse cx="186" cy="243.667" rx="8.18" ry="2" stroke-width="0.3" fill-opacity="0.9" stroke-opacity="0.9" stroke="#1D4D50" fill="url(#Wavy178.000000243.666672)" />
<ellipse cx="186" cy="362.455" rx="8.18" ry="2" stroke-width="0.3" fill-opacity="0.9" stroke-opacity="0.9" stroke="#1D4D50" fill="url(#Wavy178.000000243.666672)" />
<defs id="" >
<linearGradient id="grad178.000000243.666672NRC" x1="0%" y1="0%" x2="100%" y2="0%" >
<stop offset="30%" stop-color="#CC3333" stop-opacity="1" />
<stop offset="100%" stop-color="#ff0000" stop-opacity="1" />
</linearGradient>
</defs>
<path id="208.000000243.666672" d="M 208,243.667
v 118.788
a 2.66667,1 0 0,0 5.33333,0
v -118.788
a 2.66667,1 0 0,0 -5.33333,0
z
" fill="url(#grad178.000000243.666672NRC)" fill-opacity="0.9" stroke="#A00" stroke-opacity="0.9" stroke-linejoin="round" stroke-width="1.4" />
<ellipse cx="210.667" cy="243.667" rx="3.00267" ry="1" stroke-width="0.56" fill-opacity="0.9" stroke-opacity="0.9" stroke="#A00" fill="url(#grad178.000000243.666672NRC)" />
<ellipse cx="210.667" cy="362.455" rx="3.00267" ry="1" stroke-width="0.56" fill-opacity="0.9" stroke-opacity="0.9" stroke="#A00" fill="url(#grad178.000000243.666672NRC)" />
<defs id="" >
<linearGradient id="grad178.000000243.666672NRCRedun" x1="0%" y1="0%" x2="100%" y2="0%" >
<stop offset="30%" stop-color="#CC3333" stop-opacity="1" />
<stop offset="100%" stop-color="#ff0000" stop-opacity="1" />
</linearGradient>
</defs>
<path id="219.333328243.666672" d="M 219.333,243.667
v 118.788
a 2.66667,1 0 0,0 5.33333,0
v -118.788
a 2.66667,1 0 0,0 -5.33333,0
z
" fill="url(#grad178.000000243.666672NRCRedun)" fill-opacity="0.9" stroke="#C00" stroke-opacity="0.9" stroke-linejoin="round" stroke-width="1.4" />
<ellipse cx="222" cy="243.667" rx="3.00267" ry="1" stroke-width="0.56" fill-opacity="0.9" stroke-opacity="0.9" stroke="#C00" fill="url(#grad178.000000243.666672NRCRedun)" />
<ellipse cx="222" cy="362.455" rx="3.00267" ry="1" stroke-width="0.56" fill-opacity="0.9" stroke-opacity="0.9" stroke="#C00" fill="url(#grad178.000000243.666672NRCRedun)" />
<polygon points="116,211.152 116,366.091 178,243.667 178,362.455 " fill="#3B9BA0" stroke="#3B9BA0" stroke-width="1" stroke-opacity="0.45" fill-opacity="0.45" />
<defs id="" >
<linearGradient id="grad100.000000154.151520" x1="0%" y1="0%" x2="100%" y2="0%" >
<stop offset="30%" stop-color="#302C78" stop-opacity="1" />
<stop offset="100%" stop-color="#413BA0" stop-opacity="1" />
</linearGradient>
</defs>
<path id="100.000000154.151520" d="M 100,154.152
v 261.606
a 8,2 0 0,0 16,0
v -261.606
a 8,2 0 0,0 -16,0
z
" fill="url(#grad100.000000154.151520)" fill-opacity="0.9" stroke="#201D50" stroke-opacity="0.9" stroke-linejoin="round" stroke-width="0.75" />
<ellipse cx="108" cy="154.152" rx="8.18" ry="2" stroke-width="0.3" fill-opacity="0.9" stroke-opacity="0.9" stroke="#201D50" fill="url(#grad100.000000154.151520)" />
<ellipse cx="108" cy="415.758" rx="8.18" ry="2" stroke-width="0.3" fill-opacity="0.9" stroke-opacity="0.9" stroke="#201D50" fill="url(#grad100.000000154.151520)" />
<defs id="" >
<linearGradient id="grad100.000000154.151520NRC" x1="0%" y1="0%" x2="100%" y2="0%" >
<stop offset="30%" stop-color="#CC3333" stop-opacity="1" />
<stop offset="100%" stop-color="#ff0000" stop-opacity="1" />
</linearGradient>
</defs>
<path id="80.666664154.151520" d="M 80.6667,154.152
v 261.606
a 2.66667,1 0 0,0 5.33333,0
v -261.606
a 2.66667,1 0 0,0 -5.33333,0
z
" fill="url(#grad100.000000154.151520NRC)" fill-opacity="0.9" stroke="#A00" stroke-opacity="0.9" stroke-linejoin="round" stroke-width="1.4" />
<ellipse cx="83.3333" cy="154.152" rx="3.00267" ry="1" stroke-width="0.56" fill-opacity="0.9" stroke-opacity="0.9" stroke="#A00" fill="url(#grad100.000000154.151520NRC)" />
<ellipse cx="83.3333" cy="415.758" rx="3.00267" ry="1" stroke-width="0.56" fill-opacity="0.9" stroke-opacity="0.9" stroke="#A00" fill="url(#grad100.000000154.151520NRC)" />
<defs id="" >
<linearGradient id="grad100.000000154.151520NRCRedun" x1="0%" y1="0%" x2="100%" y2="0%" >
<stop offset="30%" stop-color="#CC3333" stop-opacity="1" />
<stop offset="100%" stop-color="#ff0000" stop-opacity="1" />
</linearGradient>
</defs>
<path id="69.333328154.151520" d="M 69.3333,154.152
v 261.606
a 2.66667,1 0 0,0 5.33333,0
v -261.606
a 2.66667,1 0 0,0 -5.33333,0
z
" fill="url(#grad100.000000154.151520NRCRedun)" fill-opacity="0.9" stroke="#C00" stroke-opacity="0.9" stroke-linejoin="round" stroke-width="1.4" />
<ellipse cx="72" cy="154.152" rx="3.00267" ry="1" stroke-width="0.56" fill-opacity="0.9" stroke-opacity="0.9" stroke="#C00" fill="url(#grad100.000000154.151520NRCRedun)" />
<ellipse cx="72" cy="415.758" rx="3.00267" ry="1" stroke-width="0.56" fill-opacity="0.9" stroke-opacity="0.9" stroke="#C00" fill="url(#grad100.000000154.151520NRCRedun)" />
<defs id="" >
<linearGradient id="grad178.000000459.030304" x1="0%" y1="0%" x2="100%" y2="0%" >
<stop offset="30%" stop-color="#302C78" stop-opacity="1" />
<stop offset="100%" stop-color="#413BA0" stop-opacity="1" />
</linearGradient>
</defs>
<path id="178.000000459.030304" d="M 178,459.03
v 72.5758
a 8,2 0 0,0 16,0
v -72.5758
a 8,2 0 0,0 -16,0
z
" fill="url(#grad178.000000459.030304)" fill-opacity="0.9" stroke="#201D50" stroke-opacity="0.9" stroke-linejoin="round" stroke-width="0.75" />
<ellipse cx="186" cy="459.03" rx="8.18" ry="2" stroke-width="0.3" fill-opacity="0.9" stroke-opacity="0.9" stroke="#201D50" fill="url(#grad178.000000459.030304)" />
<ellipse cx="186" cy="531.606" rx="8.18" ry="2" stroke-width="0.3" fill-opacity="0.9" stroke-opacity="0.9" stroke="#201D50" fill="url(#grad178.000000459.030304)" />
<defs id="" >
<pattern id="Wavy178.000000459.030304" x="178" y="459.03" width="16" height="14" patternUnits="userSpaceOnUse" >
<path id="" d="m -2.1,11.9
l 10.1,-9.8
l 10.1,9.8
" fill="none" fill-opacity="0.9" stroke="#114" stroke-opacity="1" stroke-linejoin="round" stroke-width="4.2" />
</pattern>
</defs>
<path id="178.000000459.030304" d="M 178,459.03
v 72.5758
a 8,2 0 0,0 16,0
v -72.5758
a 8,2 0 0,0 -16,0
z
" fill="url(#Wavy178.000000459.030304)" fill-opacity="0.9" stroke="#201D50" stroke-opacity="0.9" stroke-linejoin="round" stroke-width="0.75" />
<ellipse cx="186" cy="459.03" rx="8.18" ry="2" stroke-width="0.3" fill-opacity="0.9" stroke-opacity="0.9" stroke="#201D50" fill="url(#Wavy178.000000459.030304)" />
<ellipse cx="186" cy="531.606" rx="8.18" ry="2" stroke-width="0.3" fill-opacity="0.9" stroke-opacity="0.9" stroke="#201D50" fill="url(#Wavy178.000000459.030304)" />
<defs id="" >
<linearGradient id="grad178.000000459.030304NRC" x1="0%" y1="0%" x2="100%" y2="0%" >
<stop offset="30%" stop-color="#CC3333" stop-opacity="1" />
<stop offset="100%" stop-color="#ff0000" stop-opacity="1" />
</linearGradient>
</defs>
<path id="208.000000459.030304" d="M 208,459.03
v 72.5758
a 2.66667,1 0 0,0 5.33333,0
v -72.5758
a 2.66667,1 0 0,0 -5.33333,0
z
" fill="url(#grad178.000000459.030304NRC)" fill-opacity="0.9" stroke="#A00" stroke-opacity="0.9" stroke-linejoin="round" stroke-width="1.4" />
<ellipse cx="210.667" cy="459.03" rx="3.00267" ry="1" stroke-width="0.56" fill-opacity="0.9" stroke-opacity="0.9" stroke="#A00" fill="url(#grad178.000000459.030304NRC)" />
<ellipse cx="210.667" cy="531.606" rx="3.00267" ry="1" stroke-width="0.56" fill-opacity="0.9" stroke-opacity="0.9" stroke="#A00" fill="url(#grad178.000000459.030304NRC)" />
<defs id="" >
<linearGradient id="grad178.000000459.030304NRCRedun" x1="0%" y1="0%" x2="100%" y2="0%" >
<stop offset="30%" stop-color="#CC3333" stop-opacity="1" />
<stop offset="100%" stop-color="#ff0000" stop-opacity="1" />
</linearGradient>
</defs>
<path id="219.333328459.030304" d="M 219.333,459.03
v 72.5758
a 2.66667,1 0 0,0 5.33333,0
v -72.5758
a 2.66667,1 0 0,0 -5.33333,0
z
" fill="url(#grad178.000000459.030304NRCRedun)" fill-opacity="0.9" stroke="#C00" stroke-opacity="0.9" stroke-linejoin="round" stroke-width="1.4" />
<ellipse cx="222" cy="459.03" rx="3.00267" ry="1" stroke-width="0.56" fill-opacity="0.9" stroke-opacity="0.9" stroke="#C00" fill="url(#grad178.000000459.030304NRCRedun)" />
<ellipse cx="222" cy="531.606" rx="3.00267" ry="1" stroke-width="0.56" fill-opacity="0.9" stroke-opacity="0.9" stroke="#C00" fill="url(#grad178.000000459.030304NRCRedun)" />
<polygon points="116,154.152 116,415.758 178,459.03 178,531.606 " fill="#413BA0" stroke="#413BA0" stroke-width="1" stroke-opacity="0.45" fill-opacity="0.45" />
<defs id="" >
<linearGradient id="grad100.00000030.000000" x1="0%" y1="0%" x2="100%" y2="0%" >
<stop offset="30%" stop-color="#782D2C" stop-opacity="1" />
<stop offset="100%" stop-color="#A03C3B" stop-opacity="1" />
</linearGradient>
</defs>
<path id="100.00000030.000000" d="M 100,30
v 193.394
a 8,2 0 0,0 16,0
v -193.394
a 8,2 0 0,0 -16,0
z
" fill="url(#grad100.00000030.000000)" fill-opacity="0.9" stroke="#501E1D" stroke-opacity="0.9" stroke-linejoin="round" stroke-width="0.75" />
<ellipse cx="108" cy="30" rx="8.18" ry="2" stroke-width="0.3" fill-opacity="0.9" stroke-opacity="0.9" stroke="#501E1D" fill="url(#grad100.00000030.000000)" />
<ellipse cx="108" cy="223.394" rx="8.18" ry="2" stroke-width="0.3" fill-opacity="0.9" stroke-opacity="0.9" stroke="#501E1D" fill="url(#grad100.00000030.000000)" />
<defs id="" >
<linearGradient id="grad100.00000030.000000NRC" x1="0%" y1="0%" x2="100%" y2="0%" >
<stop offset="30%" stop-color="#66CC33" stop-opacity="1" />
<stop offset="100%" stop-color="#55ff00" stop-opacity="1" />
</linearGradient>
</defs>
<path id="80.66666430.000000" d="M 80.6667,30
v 193.394
a 2.66667,1 0 0,0 5.33333,0
v -193.394
a 2.66667,1 0 0,0 -5.33333,0
z
" fill="url(#grad100.00000030.000000NRC)" fill-opacity="0.9" stroke="#3A0" stroke-opacity="0.9" stroke-linejoin="round" stroke-width="1.4" />
<ellipse cx="83.3333" cy="30" rx="3.00267" ry="1" stroke-width="0.56" fill-opacity="0.9" stroke-opacity="0.9" stroke="#3A0" fill="url(#grad100.00000030.000000NRC)" />
<ellipse cx="83.3333" cy="223.394" rx="3.00267" ry="1" stroke-width="0.56" fill-opacity="0.9" stroke-opacity="0.9" stroke="#3A0" fill="url(#grad100.00000030.000000NRC)" />
<defs id="" >
<linearGradient id="grad100.00000030.000000NRCRedun" x1="0%" y1="0%" x2="100%" y2="0%" >
<stop offset="30%" stop-color="#CC3333" stop-opacity="1" />
<stop offset="100%" stop-color="#ff0000" stop-opacity="1" />
</linearGradient>
</defs>
<path id="69.33332830.000000" d="M 69.3333,30
v 193.394
a 2.66667,1 0 0,0 5.33333,0
v -193.394
a 2.66667,1 0 0,0 -5.33333,0
z
" fill="url(#grad100.00000030.000000NRCRedun)" fill-opacity="0.9" stroke="#C00" stroke-opacity="0.9" stroke-linejoin="round" stroke-width="1.4" />
<ellipse cx="72" cy="30" rx="3.00267" ry="1" stroke-width="0.56" fill-opacity="0.9" stroke-opacity="0.9" stroke="#C00" fill="url(#grad100.00000030.000000NRCRedun)" />
<ellipse cx="72" cy="223.394" rx="3.00267" ry="1" stroke-width="0.56" fill-opacity="0.9" stroke-opacity="0.9" stroke="#C00" fill="url(#grad100.00000030.000000NRCRedun)" />
<defs id="" >
<linearGradient id="grad178.00000030.000000" x1="0%" y1="0%" x2="100%" y2="0%" >
<stop offset="30%" stop-color="#782D2C" stop-opacity="1" />
<stop offset="100%" stop-color="#A03C3B" stop-opacity="1" />
</linearGradient>
</defs>
<path id="178.00000030.000000" d="M 178,30
v 184.061
a 8,2 0 0,0 16,0
v -184.061
a 8,2 0 0,0 -16,0
z
" fill="url(#grad178.00000030.000000)" fill-opacity="0.9" stroke="#501E1D" stroke-opacity="0.9" stroke-linejoin="round" stroke-width="0.75" />
<ellipse cx="186" cy="30" rx="8.18" ry="2" stroke-width="0.3" fill-opacity="0.9" stroke-opacity="0.9" stroke="#501E1D" fill="url(#grad178.00000030.000000)" />
<ellipse cx="186" cy="214.061" rx="8.18" ry="2" stroke-width="0.3" fill-opacity="0.9" stroke-opacity="0.9" stroke="#501E1D" fill="url(#grad178.00000030.000000)" />
<defs id="" >
<linearGradient id="grad178.00000030.000000NRC" x1="0%" y1="0%" x2="100%" y2="0%" >
<stop offset="30%" stop-color="#66CC33" stop-opacity="1" />
<stop offset="100%" stop-color="#55ff00" stop-opacity="1" />
</linearGradient>
</defs>
<path id="208.00000030.000000" d="M 208,30
v 184.061
a 2.66667,1 0 0,0 5.33333,0
v -184.061
a 2.66667,1 0 0,0 -5.33333,0
z
" fill="url(#grad178.00000030.000000NRC)" fill-opacity="0.9" stroke="#3A0" stroke-opacity="0.9" stroke-linejoin="round" stroke-width="1.4" />
<ellipse cx="210.667" cy="30" rx="3.00267" ry="1" stroke-width="0.56" fill-opacity="0.9" stroke-opacity="0.9" stroke="#3A0" fill="url(#grad178.00000030.000000NRC)" />
<ellipse cx="210.667" cy="214.061" rx="3.00267" ry="1" stroke-width="0.56" fill-opacity="0.9" stroke-opacity="0.9" stroke="#3A0" fill="url(#grad178.00000030.000000NRC)" />
<defs id="" >
<linearGradient id="grad178.00000030.000000NRCRedun" x1="0%" y1="0%" x2="100%" y2="0%" >
<stop offset="30%" stop-color="#CC3333" stop-opacity="1" />
<stop offset="100%" stop-color="#ff0000" stop-opacity="1" />
</linearGradient>
</defs>
<path id="219.33332830.000000" d="M 219.333,30
v 184.061
a 2.66667,1 0 0,0 5.33333,0
v -184.061
a 2.66667,1 0 0,0 -5.33333,0
z
" fill="url(#grad178.00000030.000000NRCRedun)" fill-opacity="0.9" stroke="#C00" stroke-opacity="0.9" stroke-linejoin="round" stroke-width="1.4" />
<ellipse cx="222" cy="30" rx="3.00267" ry="1" stroke-width="0.56" fill-opacity="0.9" stroke-opacity="0.9" stroke="#C00" fill="url(#grad178.00000030.000000NRCRedun)" />
<ellipse cx="222" cy="214.061" rx="3.00267" ry="1" stroke-width="0.56" fill-opacity="0.9" stroke-opacity="0.9" stroke="#C00" fill="url(#grad178.00000030.000000NRCRedun)" />
<polygon points="116,30 116,223.394 178,214.061 178,30 " fill="#A03C3B" stroke="#A03C3B" stroke-width="1" stroke-opacity="0.45" fill-opacity="0.45" />
<path id="100.00000030.000000" d="M 100,30
v 495.879
a 8,2 0 0,0 16,0
v -495.879
a 8,2 0 0,0 -16,0
z
" fill="none" fill-opacity="0.9" stroke="black" stroke-opacity="1" stroke-linejoin="round" stroke-width="1" />
<ellipse cx="108" cy="30" rx="8.24" ry="2" stroke-width="0.4" fill-opacity="0.9" stroke-opacity="1" stroke="black" fill="none" />
<ellipse cx="108" cy="525.879" rx="8.24" ry="2" stroke-width="0.4" fill-opacity="0.9" stroke-opacity="1" stroke="black" fill="none" />
<path id="178.00000030.000000" d="M 178,30
v 501.636
a 8,2 0 0,0 16,0
v -501.636
a 8,2 0 0,0 -16,0
z
" fill="none" fill-opacity="0.9" stroke="black" stroke-opacity="1" stroke-linejoin="round" stroke-width="1" />
<ellipse cx="186" cy="30" rx="8.24" ry="2" stroke-width="0.4" fill-opacity="0.9" stroke-opacity="1" stroke="black" fill="none" />
<ellipse cx="186" cy="531.636" rx="8.24" ry="2" stroke-width="0.4" fill-opacity="0.9" stroke-opacity="1" stroke="black" fill="none" />
<text id="108.00000020.400000" x="108" y="20.4" dominant-baseline="" baseline-shift="" alignment-baseline="" font-size="10px" font-weight="bold" font-family="Helvetica,Arial" font-variant="normal" text-anchor="middle" text-align="start" line-height="125%%" >
G.gorilla</text>
<text id="186.00000020.400000" x="186" y="20.4" dominant-baseline="" baseline-shift="" alignment-baseline="" font-size="10px" font-weight="bold" font-family="Helvetica,Arial" font-variant="normal" text-anchor="middle" text-align="start" line-height="125%%" >
P.troglodytes</text>
<defs id="" >
<linearGradient id="grad92.000000571.636353" x1="0%" y1="0%" x2="100%" y2="0%" >
<stop offset="0%" stop-color="#0000ff" stop-opacity="1" />
<stop offset="8%" stop-color="#0055ff" stop-opacity="1" />
<stop offset="16%" stop-color="#00aaff" stop-opacity="1" />
<stop offset="25%" stop-color="#00ffff" stop-opacity="1" />
<stop offset="33%" stop-color="#00ffaa" stop-opacity="1" />
<stop offset="41%" stop-color="#00ff55" stop-opacity="1" />
<stop offset="50%" stop-color="#00ff00" stop-opacity="1" />
<stop offset="58%" stop-color="#55ff00" stop-opacity="1" />
<stop offset="66%" stop-color="#aaff00" stop-opacity="1" />
<stop offset="75%" stop-color="#ffff00" stop-opacity="1" />
<stop offset="83%" stop-color="#ffaa00" stop-opacity="1" />
<stop offset="91%" stop-color="#ff5500" stop-opacity="1" />
<stop offset="100%" stop-color="#ff0000" stop-opacity="1" />
</linearGradient>
</defs>
<rect x="92" y="571.636" width="110" height="11" rx="2" ry="2" fill="url(#grad92.000000571.636353)" fill-opacity="0.9" stroke="black" stroke-width="0.5" />
<text id="147.000000564.786377" x="147" y="564.786" dominant-baseline="" baseline-shift="" alignment-baseline="" font-size="9px" font-family="Helvetica,Arial" font-variant="normal" text-anchor="middle" text-align="start" line-height="125%%" >
Relative Redundancy</text>
<text id="147.000000595.786377" x="147" y="595.786" dominant-baseline="" baseline-shift="" alignment-baseline="" font-size="9px" font-family="Helvetica,Arial" font-variant="normal" text-anchor="middle" text-align="start" line-height="125%%" >
Redundancy</text>
<text id="88.000000577.136353" x="88" y="577.136" dy="2.8" dominant-baseline="" baseline-shift="" alignment-baseline="" font-size="8px" font-weight="bold" font-family="Helvetica,Arial" font-variant="normal" text-anchor="end" text-align="start" line-height="125%%" >
0.0</text>
<text id="206.000000577.136353" x="206" y="577.136" dy="2.8" dominant-baseline="" baseline-shift="" alignment-baseline="" font-size="8px" font-weight="bold" font-family="Helvetica,Arial" font-variant="normal" text-anchor="start" text-align="start" line-height="125%%" >
2.0</text>
<text id="119.500000577.136353" x="119.5" y="577.136" dy="2.8" dominant-baseline="" baseline-shift="" alignment-baseline="" font-size="8px" font-weight="bold" font-family="Helvetica,Arial" font-variant="normal" text-anchor="middle" text-align="start" line-height="125%%" >
0.5</text>
<text id="147.000000577.136353" x="147" y="577.136" dy="2.8" dominant-baseline="" baseline-shift="" alignment-baseline="" font-size="8px" font-weight="bold" font-family="Helvetica,Arial" font-variant="normal" text-anchor="middle" text-align="start" line-height="125%%" >
1.0</text>
<text id="174.500000577.136353" x="174.5" y="577.136" dy="2.8" dominant-baseline="" baseline-shift="" alignment-baseline="" font-size="8px" font-weight="bold" font-family="Helvetica,Arial" font-variant="normal" text-anchor="middle" text-align="start" line-height="125%%" >
1.5</text>
<path id="" d="M 83.3333,415.758
V 561.636
H 97
" fill="none" fill-opacity="0.9" stroke="black" stroke-opacity="1" stroke-linejoin="round" stroke-width="0.5" />
<path id="" d="M 210.667,531.606
V 561.636
H 197
" fill="none" fill-opacity="0.9" stroke="black" stroke-opacity="1" stroke-linejoin="round" stroke-width="0.5" />
<path id="" d="M 72,415.758
V 592.636
H 115
" fill="none" fill-opacity="0.9" stroke="black" stroke-opacity="1" stroke-linejoin="round" stroke-width="0.5" />
<path id="" d="M 222,531.606
V 592.636
H 179
" fill="none" fill-opacity="0.9" stroke="black" stroke-opacity="1" stroke-linejoin="round" stroke-width="0.5" />
</svg>