<?xml version="1.0" encoding="UTF-8" standalone="no"?>
<!-- Morteza Hosseini, IEETA 2018-2019 -->
<svg xmlns="http://www.w3.org/2000/svg" xmlns:xlink="http://www.w3.org/1999/xlink" viewBox="0 0 605.000427 260.000000" >
<rect x="0" y="0" width="605" height="260" rx="1" ry="1" fill="white" fill-opacity="0.9" stroke="white" stroke-width="0" stroke-opacity="1" />
<text id="18.50000039.333328" x="18.5" y="39.3333" dominant-baseline="" baseline-shift="" alignment-baseline="" font-size="7px" font-family="Helvetica,Arial" font-variant="normal" text-anchor="start" text-align="start" line-height="125%%" >
0 b</text>
<line id="20.37500046.33332820.37500052.333328" x1="20.375" y1="46.3333" x2="20.375" y2="52.3333" stroke-width="0.75" stroke="black" />
<line id="35.19664448.33332835.19664452.333328" x1="35.1966" y1="48.3333" x2="35.1966" y2="52.3333" stroke-width="0.5" stroke="black" />
<line id="50.39328848.33332850.39328852.333328" x1="50.3933" y1="48.3333" x2="50.3933" y2="52.3333" stroke-width="0.5" stroke="black" />
<line id="65.58993548.33332865.58993552.333328" x1="65.5899" y1="48.3333" x2="65.5899" y2="52.3333" stroke-width="0.5" stroke="black" />
<line id="80.78657546.33332880.78657552.333328" x1="80.7866" y1="46.3333" x2="80.7866" y2="52.3333" stroke-width="0.75" stroke="black" />
<text id="80.78657539.333328" x="80.7866" y="39.3333" dominant-baseline="" baseline-shift="" alignment-baseline="" font-size="7px" font-weight="normal" font-family="Helvetica,Arial" font-variant="normal" text-anchor="middle" text-align="start" line-height="125%%" >
2 Mb</text>
<line id="95.98322348.33332895.98322352.333328" x1="95.9832" y1="48.3333" x2="95.9832" y2="52.3333" stroke-width="0.5" stroke="black" />
<line id="111.17987148.333328111.17987152.333328" x1="111.18" y1="48.3333" x2="111.18" y2="52.3333" stroke-width="0.5" stroke="black" />
<line id="126.37651148.333328126.37651152.333328" x1="126.377" y1="48.3333" x2="126.377" y2="52.3333" stroke-width="0.5" stroke="black" />
<line id="141.57315146.333328141.57315152.333328" x1="141.573" y1="46.3333" x2="141.573" y2="52.3333" stroke-width="0.75" stroke="black" />
<text id="141.57315139.333328" x="141.573" y="39.3333" dominant-baseline="" baseline-shift="" alignment-baseline="" font-size="7px" font-weight="normal" font-family="Helvetica,Arial" font-variant="normal" text-anchor="middle" text-align="start" line-height="125%%" >
4 Mb</text>
<line id="156.76980648.333328156.76980652.333328" x1="156.77" y1="48.3333" x2="156.77" y2="52.3333" stroke-width="0.5" stroke="black" />
<line id="171.96644648.333328171.96644652.333328" x1="171.966" y1="48.3333" x2="171.966" y2="52.3333" stroke-width="0.5" stroke="black" />
<line id="187.16308648.333328187.16308652.333328" x1="187.163" y1="48.3333" x2="187.163" y2="52.3333" stroke-width="0.5" stroke="black" />
<line id="202.35974146.333328202.35974152.333328" x1="202.36" y1="46.3333" x2="202.36" y2="52.3333" stroke-width="0.75" stroke="black" />
<text id="202.35974139.333328" x="202.36" y="39.3333" dominant-baseline="" baseline-shift="" alignment-baseline="" font-size="7px" font-weight="normal" font-family="Helvetica,Arial" font-variant="normal" text-anchor="middle" text-align="start" line-height="125%%" >
6 Mb</text>
<line id="217.55638148.333328217.55638152.333328" x1="217.556" y1="48.3333" x2="217.556" y2="52.3333" stroke-width="0.5" stroke="black" />
<line id="232.75302148.333328232.75302152.333328" x1="232.753" y1="48.3333" x2="232.753" y2="52.3333" stroke-width="0.5" stroke="black" />
<line id="247.94966148.333328247.94966152.333328" x1="247.95" y1="48.3333" x2="247.95" y2="52.3333" stroke-width="0.5" stroke="black" />
<line id="263.14630146.333328263.14630152.333328" x1="263.146" y1="46.3333" x2="263.146" y2="52.3333" stroke-width="0.75" stroke="black" />
<text id="263.14630139.333328" x="263.146" y="39.3333" dominant-baseline="" baseline-shift="" alignment-baseline="" font-size="7px" font-weight="normal" font-family="Helvetica,Arial" font-variant="normal" text-anchor="middle" text-align="start" line-height="125%%" >
8 Mb</text>
<line id="278.34295748.333328278.34295752.333328" x1="278.343" y1="48.3333" x2="278.343" y2="52.3333" stroke-width="0.5" stroke="black" />
<line id="293.53961248.333328293.53961252.333328" x1="293.54" y1="48.3333" x2="293.54" y2="52.3333" stroke-width="0.5" stroke="black" />
<line id="308.73623748.333328308.73623752.333328" x1="308.736" y1="48.3333" x2="308.736" y2="52.3333" stroke-width="0.5" stroke="black" />
<line id="323.93289246.333328323.93289252.333328" x1="323.933" y1="46.3333" x2="323.933" y2="52.3333" stroke-width="0.75" stroke="black" />
<text id="323.93289239.333328" x="323.933" y="39.3333" dominant-baseline="" baseline-shift="" alignment-baseline="" font-size="7px" font-weight="normal" font-family="Helvetica,Arial" font-variant="normal" text-anchor="middle" text-align="start" line-height="125%%" >
10 Mb</text>
<line id="339.12954748.333328339.12954752.333328" x1="339.13" y1="48.3333" x2="339.13" y2="52.3333" stroke-width="0.5" stroke="black" />
<line id="354.32617248.333328354.32617252.333328" x1="354.326" y1="48.3333" x2="354.326" y2="52.3333" stroke-width="0.5" stroke="black" />
<line id="369.52282748.333328369.52282752.333328" x1="369.523" y1="48.3333" x2="369.523" y2="52.3333" stroke-width="0.5" stroke="black" />
<line id="384.71948246.333328384.71948252.333328" x1="384.719" y1="46.3333" x2="384.719" y2="52.3333" stroke-width="0.75" stroke="black" />
<text id="384.71948239.333328" x="384.719" y="39.3333" dominant-baseline="" baseline-shift="" alignment-baseline="" font-size="7px" font-weight="normal" font-family="Helvetica,Arial" font-variant="normal" text-anchor="middle" text-align="start" line-height="125%%" >
12 Mb</text>
<line id="399.91610748.333328399.91610752.333328" x1="399.916" y1="48.3333" x2="399.916" y2="52.3333" stroke-width="0.5" stroke="black" />
<line id="415.11276248.333328415.11276252.333328" x1="415.113" y1="48.3333" x2="415.113" y2="52.3333" stroke-width="0.5" stroke="black" />
<line id="430.30941848.333328430.30941852.333328" x1="430.309" y1="48.3333" x2="430.309" y2="52.3333" stroke-width="0.5" stroke="black" />
<line id="445.50604246.333328445.50604252.333328" x1="445.506" y1="46.3333" x2="445.506" y2="52.3333" stroke-width="0.75" stroke="black" />
<text id="445.50604239.333328" x="445.506" y="39.3333" dominant-baseline="" baseline-shift="" alignment-baseline="" font-size="7px" font-weight="normal" font-family="Helvetica,Arial" font-variant="normal" text-anchor="middle" text-align="start" line-height="125%%" >
14 Mb</text>
<line id="460.70269848.333328460.70269852.333328" x1="460.703" y1="48.3333" x2="460.703" y2="52.3333" stroke-width="0.5" stroke="black" />
<line id="475.89932348.333328475.89932352.333328" x1="475.899" y1="48.3333" x2="475.899" y2="52.3333" stroke-width="0.5" stroke="black" />
<line id="491.09597848.333328491.09597852.333328" x1="491.096" y1="48.3333" x2="491.096" y2="52.3333" stroke-width="0.5" stroke="black" />
<line id="506.29263346.333328506.29263352.333328" x1="506.293" y1="46.3333" x2="506.293" y2="52.3333" stroke-width="0.75" stroke="black" />
<text id="506.29263339.333328" x="506.293" y="39.3333" dominant-baseline="" baseline-shift="" alignment-baseline="" font-size="7px" font-weight="normal" font-family="Helvetica,Arial" font-variant="normal" text-anchor="middle" text-align="start" line-height="125%%" >
16 Mb</text>
<text id="18.500000225.566666" x="18.5" y="225.567" dominant-baseline="" baseline-shift="" alignment-baseline="" font-size="7px" font-family="Helvetica,Arial" font-variant="normal" text-anchor="start" text-align="start" line-height="125%%" >
0 b</text>
<line id="20.375000213.66667220.375000207.666672" x1="20.375" y1="213.667" x2="20.375" y2="207.667" stroke-width="0.75" stroke="black" />
<line id="35.196644211.66667235.196644207.666672" x1="35.1966" y1="211.667" x2="35.1966" y2="207.667" stroke-width="0.5" stroke="black" />
<line id="50.393288211.66667250.393288207.666672" x1="50.3933" y1="211.667" x2="50.3933" y2="207.667" stroke-width="0.5" stroke="black" />
<line id="65.589935211.66667265.589935207.666672" x1="65.5899" y1="211.667" x2="65.5899" y2="207.667" stroke-width="0.5" stroke="black" />
<line id="80.786575213.66667280.786575207.666672" x1="80.7866" y1="213.667" x2="80.7866" y2="207.667" stroke-width="0.75" stroke="black" />
<text id="80.786575225.566666" x="80.7866" y="225.567" dominant-baseline="" baseline-shift="" alignment-baseline="" font-size="7px" font-weight="normal" font-family="Helvetica,Arial" font-variant="normal" text-anchor="middle" text-align="start" line-height="125%%" >
2 Mb</text>
<line id="95.983223211.66667295.983223207.666672" x1="95.9832" y1="211.667" x2="95.9832" y2="207.667" stroke-width="0.5" stroke="black" />
<line id="111.179871211.666672111.179871207.666672" x1="111.18" y1="211.667" x2="111.18" y2="207.667" stroke-width="0.5" stroke="black" />
<line id="126.376511211.666672126.376511207.666672" x1="126.377" y1="211.667" x2="126.377" y2="207.667" stroke-width="0.5" stroke="black" />
<line id="141.573151213.666672141.573151207.666672" x1="141.573" y1="213.667" x2="141.573" y2="207.667" stroke-width="0.75" stroke="black" />
<text id="141.573151225.566666" x="141.573" y="225.567" dominant-baseline="" baseline-shift="" alignment-baseline="" font-size="7px" font-weight="normal" font-family="Helvetica,Arial" font-variant="normal" text-anchor="middle" text-align="start" line-height="125%%" >
4 Mb</text>
<line id="156.769806211.666672156.769806207.666672" x1="156.77" y1="211.667" x2="156.77" y2="207.667" stroke-width="0.5" stroke="black" />
<line id="171.966446211.666672171.966446207.666672" x1="171.966" y1="211.667" x2="171.966" y2="207.667" stroke-width="0.5" stroke="black" />
<line id="187.163086211.666672187.163086207.666672" x1="187.163" y1="211.667" x2="187.163" y2="207.667" stroke-width="0.5" stroke="black" />
<line id="202.359741213.666672202.359741207.666672" x1="202.36" y1="213.667" x2="202.36" y2="207.667" stroke-width="0.75" stroke="black" />
<text id="202.359741225.566666" x="202.36" y="225.567" dominant-baseline="" baseline-shift="" alignment-baseline="" font-size="7px" font-weight="normal" font-family="Helvetica,Arial" font-variant="normal" text-anchor="middle" text-align="start" line-height="125%%" >
6 Mb</text>
<line id="217.556381211.666672217.556381207.666672" x1="217.556" y1="211.667" x2="217.556" y2="207.667" stroke-width="0.5" stroke="black" />
<line id="232.753021211.666672232.753021207.666672" x1="232.753" y1="211.667" x2="232.753" y2="207.667" stroke-width="0.5" stroke="black" />
<line id="247.949661211.666672247.949661207.666672" x1="247.95" y1="211.667" x2="247.95" y2="207.667" stroke-width="0.5" stroke="black" />
<line id="263.146301213.666672263.146301207.666672" x1="263.146" y1="213.667" x2="263.146" y2="207.667" stroke-width="0.75" stroke="black" />
<text id="263.146301225.566666" x="263.146" y="225.567" dominant-baseline="" baseline-shift="" alignment-baseline="" font-size="7px" font-weight="normal" font-family="Helvetica,Arial" font-variant="normal" text-anchor="middle" text-align="start" line-height="125%%" >
8 Mb</text>
<line id="278.342957211.666672278.342957207.666672" x1="278.343" y1="211.667" x2="278.343" y2="207.667" stroke-width="0.5" stroke="black" />
<line id="293.539612211.666672293.539612207.666672" x1="293.54" y1="211.667" x2="293.54" y2="207.667" stroke-width="0.5" stroke="black" />
<line id="308.736237211.666672308.736237207.666672" x1="308.736" y1="211.667" x2="308.736" y2="207.667" stroke-width="0.5" stroke="black" />
<line id="323.932892213.666672323.932892207.666672" x1="323.933" y1="213.667" x2="323.933" y2="207.667" stroke-width="0.75" stroke="black" />
<text id="323.932892225.566666" x="323.933" y="225.567" dominant-baseline="" baseline-shift="" alignment-baseline="" font-size="7px" font-weight="normal" font-family="Helvetica,Arial" font-variant="normal" text-anchor="middle" text-align="start" line-height="125%%" >
10 Mb</text>
<line id="339.129547211.666672339.129547207.666672" x1="339.13" y1="211.667" x2="339.13" y2="207.667" stroke-width="0.5" stroke="black" />
<line id="354.326172211.666672354.326172207.666672" x1="354.326" y1="211.667" x2="354.326" y2="207.667" stroke-width="0.5" stroke="black" />
<line id="369.522827211.666672369.522827207.666672" x1="369.523" y1="211.667" x2="369.523" y2="207.667" stroke-width="0.5" stroke="black" />
<line id="384.719482213.666672384.719482207.666672" x1="384.719" y1="213.667" x2="384.719" y2="207.667" stroke-width="0.75" stroke="black" />
<text id="384.719482225.566666" x="384.719" y="225.567" dominant-baseline="" baseline-shift="" alignment-baseline="" font-size="7px" font-weight="normal" font-family="Helvetica,Arial" font-variant="normal" text-anchor="middle" text-align="start" line-height="125%%" >
12 Mb</text>
<line id="399.916107211.666672399.916107207.666672" x1="399.916" y1="211.667" x2="399.916" y2="207.667" stroke-width="0.5" stroke="black" />
<line id="415.112762211.666672415.112762207.666672" x1="415.113" y1="211.667" x2="415.113" y2="207.667" stroke-width="0.5" stroke="black" />
<line id="430.309418211.666672430.309418207.666672" x1="430.309" y1="211.667" x2="430.309" y2="207.667" stroke-width="0.5" stroke="black" />
<line id="445.506042213.666672445.506042207.666672" x1="445.506" y1="213.667" x2="445.506" y2="207.667" stroke-width="0.75" stroke="black" />
<text id="445.506042225.566666" x="445.506" y="225.567" dominant-baseline="" baseline-shift="" alignment-baseline="" font-size="7px" font-weight="normal" font-family="Helvetica,Arial" font-variant="normal" text-anchor="middle" text-align="start" line-height="125%%" >
14 Mb</text>
<line id="460.702698211.666672460.702698207.666672" x1="460.703" y1="211.667" x2="460.703" y2="207.667" stroke-width="0.5" stroke="black" />
<line id="475.899323211.666672475.899323207.666672" x1="475.899" y1="211.667" x2="475.899" y2="207.667" stroke-width="0.5" stroke="black" />
<defs id="" >
<linearGradient id="grad460.945831110.000000" x1="0%" y1="0%" x2="100%" y2="0%" >
<stop offset="0%" stop-color="#A0613B" stop-opacity="1" />
<stop offset="50%" stop-color="#DDC7BA" stop-opacity="1" />
<stop offset="100%" stop-color="#A0613B" stop-opacity="1" />
</linearGradient>
</defs>
<rect x="460.946" y="110" width="10" height="18.1752" rx="1" ry="1" fill="url(#grad460.945831110.000000)" fill-opacity="0.9" stroke-width="0.75" stroke-opacity="0.9" transform="rotate(-90 460.945831 110.000000)" />
<defs id="" >
<linearGradient id="grad460.945831110.000000NRC" x1="0%" y1="0%" x2="100%" y2="0%" >
<stop offset="100%" stop-color="#00BFC4" stop-opacity="1" />
</linearGradient>
</defs>
<rect x="492.946" y="110" width="3.33333" height="18.1752" rx="1" ry="0.5" fill="url(#grad460.945831110.000000NRC)" fill-opacity="0.9" stroke="url(#grad460.945831110.000000NRC)" stroke-width="1.125" stroke-opacity="0.9" transform="rotate(-90 460.945831 110.000000)" />
<defs id="" >
<linearGradient id="grad460.945831110.000000NRCRedun" x1="0%" y1="0%" x2="100%" y2="0%" >
<stop offset="100%" stop-color="#F8766D" stop-opacity="1" />
</linearGradient>
</defs>
<rect x="502.279" y="110" width="3.33333" height="18.1752" rx="1" ry="0.5" fill="url(#grad460.945831110.000000NRCRedun)" fill-opacity="0.9" stroke="url(#grad460.945831110.000000NRCRedun)" stroke-width="1.125" stroke-opacity="0.9" transform="rotate(-90 460.945831 110.000000)" />
<defs id="" >
<linearGradient id="grad450.733704160.000000" x1="0%" y1="0%" x2="100%" y2="0%" >
<stop offset="0%" stop-color="#A0613B" stop-opacity="1" />
<stop offset="50%" stop-color="#DDC7BA" stop-opacity="1" />
<stop offset="100%" stop-color="#A0613B" stop-opacity="1" />
</linearGradient>
</defs>
<rect x="450.734" y="160" width="10" height="21.3361" rx="1" ry="1" fill="url(#grad450.733704160.000000)" fill-opacity="0.9" stroke="url(#grad450.733704160.000000)" stroke-width="0.75" stroke-opacity="0.9" transform="rotate(-90 450.733704 160.000000)" />
<defs id="" >
<linearGradient id="grad450.733704160.000000NRC" x1="0%" y1="0%" x2="100%" y2="0%" >
<stop offset="100%" stop-color="#00B0F6" stop-opacity="1" />
</linearGradient>
</defs>
<rect x="425.4" y="160" width="3.33333" height="21.3361" rx="1" ry="0.5" fill="url(#grad450.733704160.000000NRC)" fill-opacity="0.9" stroke="url(#grad450.733704160.000000NRC)" stroke-width="1.125" stroke-opacity="0.9" transform="rotate(-90 450.733704 160.000000)" />
<defs id="" >
<linearGradient id="grad450.733704160.000000NRCRedun" x1="0%" y1="0%" x2="100%" y2="0%" >
<stop offset="100%" stop-color="#F8766D" stop-opacity="1" />
</linearGradient>
</defs>
<rect x="416.067" y="160" width="3.33333" height="21.3361" rx="1" ry="0.5" fill="url(#grad450.733704160.000000NRCRedun)" fill-opacity="0.9" stroke="url(#grad450.733704160.000000NRCRedun)" stroke-width="1.125" stroke-opacity="0.9" transform="rotate(-90 450.733704 160.000000)" />
<polygon points="460.946,110 479.121,110 472.07,150 450.734,150 " fill="#A0613B" stroke="#A0613B" stroke-width="0.3" stroke-opacity="0.18" fill-opacity="0.18" />
<defs id="" >
<linearGradient id="grad442.527496110.000000" x1="0%" y1="0%" x2="100%" y2="0%" >
<stop offset="0%" stop-color="#67A03B" stop-opacity="1" />
<stop offset="50%" stop-color="#C9DDBA" stop-opacity="1" />
<stop offset="100%" stop-color="#67A03B" stop-opacity="1" />
</linearGradient>
</defs>
<rect x="442.527" y="110" width="10" height="23.2205" rx="1" ry="1" fill="url(#grad442.527496110.000000)" fill-opacity="0.9" stroke-width="0.75" stroke-opacity="0.9" transform="rotate(-90 442.527496 110.000000)" />
<defs id="" >
<linearGradient id="grad442.527496110.000000NRC" x1="0%" y1="0%" x2="100%" y2="0%" >
<stop offset="100%" stop-color="#00BFC4" stop-opacity="1" />
</linearGradient>
</defs>
<rect x="474.527" y="110" width="3.33333" height="23.2205" rx="1" ry="0.5" fill="url(#grad442.527496110.000000NRC)" fill-opacity="0.9" stroke="url(#grad442.527496110.000000NRC)" stroke-width="1.125" stroke-opacity="0.9" transform="rotate(-90 442.527496 110.000000)" />
<defs id="" >
<linearGradient id="grad442.527496110.000000NRCRedun" x1="0%" y1="0%" x2="100%" y2="0%" >
<stop offset="100%" stop-color="#F8766D" stop-opacity="1" />
</linearGradient>
</defs>
<rect x="483.861" y="110" width="3.33333" height="23.2205" rx="1" ry="0.5" fill="url(#grad442.527496110.000000NRCRedun)" fill-opacity="0.9" stroke="url(#grad442.527496110.000000NRCRedun)" stroke-width="1.125" stroke-opacity="0.9" transform="rotate(-90 442.527496 110.000000)" />
<defs id="" >
<linearGradient id="grad435.658630160.000000" x1="0%" y1="0%" x2="100%" y2="0%" >
<stop offset="0%" stop-color="#67A03B" stop-opacity="1" />
<stop offset="50%" stop-color="#C9DDBA" stop-opacity="1" />
<stop offset="100%" stop-color="#67A03B" stop-opacity="1" />
</linearGradient>
</defs>
<rect x="435.659" y="160" width="10" height="16.8987" rx="1" ry="1" fill="url(#grad435.658630160.000000)" fill-opacity="0.9" stroke="url(#grad435.658630160.000000)" stroke-width="0.75" stroke-opacity="0.9" transform="rotate(-90 435.658630 160.000000)" />
<defs id="" >
<pattern id="Wavy435.658630160.000000" x="435.659" y="160" width="10" height="7" patternUnits="userSpaceOnUse" >
<path id="" d="m -0.665,6.335
l 5.665,-5.67
l 5.665,5.67
" fill="none" fill-opacity="0.9" stroke="#456B27" stroke-opacity="1" stroke-linejoin="round" stroke-width="1.33" />
</pattern>
</defs>
<rect x="435.659" y="160" width="10" height="16.8987" rx="1" ry="1" fill="url(#Wavy435.658630160.000000)" fill-opacity="0.9" stroke="url(#grad435.658630160.000000)" stroke-width="0.75" stroke-opacity="0.9" transform="rotate(-90 435.658630 160.000000)" />
<defs id="" >
<linearGradient id="grad435.658630160.000000NRC" x1="0%" y1="0%" x2="100%" y2="0%" >
<stop offset="100%" stop-color="#00B0F6" stop-opacity="1" />
</linearGradient>
</defs>
<rect x="410.325" y="160" width="3.33333" height="16.8987" rx="1" ry="0.5" fill="url(#grad435.658630160.000000NRC)" fill-opacity="0.9" stroke="url(#grad435.658630160.000000NRC)" stroke-width="1.125" stroke-opacity="0.9" transform="rotate(-90 435.658630 160.000000)" />
<defs id="" >
<linearGradient id="grad435.658630160.000000NRCRedun" x1="0%" y1="0%" x2="100%" y2="0%" >
<stop offset="100%" stop-color="#F8766D" stop-opacity="1" />
</linearGradient>
</defs>
<rect x="400.992" y="160" width="3.33333" height="16.8987" rx="1" ry="0.5" fill="url(#grad435.658630160.000000NRCRedun)" fill-opacity="0.9" stroke="url(#grad435.658630160.000000NRCRedun)" stroke-width="1.125" stroke-opacity="0.9" transform="rotate(-90 435.658630 160.000000)" />
<polygon points="442.527,110 465.748,110 435.659,150 452.557,150 " fill="#67A03B" stroke="#67A03B" stroke-width="0.3" stroke-opacity="0.18" fill-opacity="0.18" />
<defs id="" >
<linearGradient id="grad259.985413110.000000" x1="0%" y1="0%" x2="100%" y2="0%" >
<stop offset="0%" stop-color="#69A03B" stop-opacity="1" />
<stop offset="50%" stop-color="#CADDBA" stop-opacity="1" />
<stop offset="100%" stop-color="#69A03B" stop-opacity="1" />
</linearGradient>
</defs>
<rect x="259.985" y="110" width="10" height="191.356" rx="1" ry="1" fill="url(#grad259.985413110.000000)" fill-opacity="0.9" stroke-width="0.75" stroke-opacity="0.9" transform="rotate(-90 259.985413 110.000000)" />
<defs id="" >
<linearGradient id="grad259.985413110.000000NRC" x1="0%" y1="0%" x2="100%" y2="0%" >
<stop offset="100%" stop-color="#00BFC4" stop-opacity="1" />
</linearGradient>
</defs>
<rect x="291.985" y="110" width="3.33333" height="191.356" rx="1" ry="0.5" fill="url(#grad259.985413110.000000NRC)" fill-opacity="0.9" stroke="url(#grad259.985413110.000000NRC)" stroke-width="1.125" stroke-opacity="0.9" transform="rotate(-90 259.985413 110.000000)" />
<defs id="" >
<linearGradient id="grad259.985413110.000000NRCRedun" x1="0%" y1="0%" x2="100%" y2="0%" >
<stop offset="100%" stop-color="#F8766D" stop-opacity="1" />
</linearGradient>
</defs>
<rect x="301.319" y="110" width="3.33333" height="191.356" rx="1" ry="0.5" fill="url(#grad259.985413110.000000NRCRedun)" fill-opacity="0.9" stroke="url(#grad259.985413110.000000NRCRedun)" stroke-width="1.125" stroke-opacity="0.9" transform="rotate(-90 259.985413 110.000000)" />
<defs id="" >
<linearGradient id="grad20.668652160.000000" x1="0%" y1="0%" x2="100%" y2="0%" >
<stop offset="0%" stop-color="#69A03B" stop-opacity="1" />
<stop offset="50%" stop-color="#CADDBA" stop-opacity="1" />
<stop offset="100%" stop-color="#69A03B" stop-opacity="1" />
</linearGradient>
</defs>
<rect x="20.6687" y="160" width="10" height="184.67" rx="1" ry="1" fill="url(#grad20.668652160.000000)" fill-opacity="0.9" stroke="url(#grad20.668652160.000000)" stroke-width="0.75" stroke-opacity="0.9" transform="rotate(-90 20.668652 160.000000)" />
<defs id="" >
<linearGradient id="grad20.668652160.000000NRC" x1="0%" y1="0%" x2="100%" y2="0%" >
<stop offset="100%" stop-color="#00BFC4" stop-opacity="1" />
</linearGradient>
</defs>
<rect x="-4.66468" y="160" width="3.33333" height="184.67" rx="1" ry="0.5" fill="url(#grad20.668652160.000000NRC)" fill-opacity="0.9" stroke="url(#grad20.668652160.000000NRC)" stroke-width="1.125" stroke-opacity="0.9" transform="rotate(-90 20.668652 160.000000)" />
<defs id="" >
<linearGradient id="grad20.668652160.000000NRCRedun" x1="0%" y1="0%" x2="100%" y2="0%" >
<stop offset="100%" stop-color="#F8766D" stop-opacity="1" />
</linearGradient>
</defs>
<rect x="-13.998" y="160" width="3.33333" height="184.67" rx="1" ry="0.5" fill="url(#grad20.668652160.000000NRCRedun)" fill-opacity="0.9" stroke="url(#grad20.668652160.000000NRCRedun)" stroke-width="1.125" stroke-opacity="0.9" transform="rotate(-90 20.668652 160.000000)" />
<polygon points="259.985,110 451.342,110 205.338,150 20.6687,150 " fill="#69A03B" stroke="#69A03B" stroke-width="0.3" stroke-opacity="0.18" fill-opacity="0.18" />
<defs id="" >
<linearGradient id="grad195.733994110.000000" x1="0%" y1="0%" x2="100%" y2="0%" >
<stop offset="0%" stop-color="#3BA084" stop-opacity="1" />
<stop offset="50%" stop-color="#BADDD3" stop-opacity="1" />
<stop offset="100%" stop-color="#3BA084" stop-opacity="1" />
</linearGradient>
</defs>
<rect x="195.734" y="110" width="10" height="67.0476" rx="1" ry="1" fill="url(#grad195.733994110.000000)" fill-opacity="0.9" stroke-width="0.75" stroke-opacity="0.9" transform="rotate(-90 195.733994 110.000000)" />
<defs id="" >
<linearGradient id="grad195.733994110.000000NRC" x1="0%" y1="0%" x2="100%" y2="0%" >
<stop offset="100%" stop-color="#00BFC4" stop-opacity="1" />
</linearGradient>
</defs>
<rect x="227.734" y="110" width="3.33333" height="67.0476" rx="1" ry="0.5" fill="url(#grad195.733994110.000000NRC)" fill-opacity="0.9" stroke="url(#grad195.733994110.000000NRC)" stroke-width="1.125" stroke-opacity="0.9" transform="rotate(-90 195.733994 110.000000)" />
<defs id="" >
<linearGradient id="grad195.733994110.000000NRCRedun" x1="0%" y1="0%" x2="100%" y2="0%" >
<stop offset="100%" stop-color="#F8766D" stop-opacity="1" />
</linearGradient>
</defs>
<rect x="237.067" y="110" width="3.33333" height="67.0476" rx="1" ry="0.5" fill="url(#grad195.733994110.000000NRCRedun)" fill-opacity="0.9" stroke="url(#grad195.733994110.000000NRCRedun)" stroke-width="1.125" stroke-opacity="0.9" transform="rotate(-90 195.733994 110.000000)" />
<defs id="" >
<linearGradient id="grad207.648163160.000000" x1="0%" y1="0%" x2="100%" y2="0%" >
<stop offset="0%" stop-color="#3BA084" stop-opacity="1" />
<stop offset="50%" stop-color="#BADDD3" stop-opacity="1" />
<stop offset="100%" stop-color="#3BA084" stop-opacity="1" />
</linearGradient>
</defs>
<rect x="207.648" y="160" width="10" height="60.1179" rx="1" ry="1" fill="url(#grad207.648163160.000000)" fill-opacity="0.9" stroke="url(#grad207.648163160.000000)" stroke-width="0.75" stroke-opacity="0.9" transform="rotate(-90 207.648163 160.000000)" />
<defs id="" >
<linearGradient id="grad207.648163160.000000NRC" x1="0%" y1="0%" x2="100%" y2="0%" >
<stop offset="100%" stop-color="#00BFC4" stop-opacity="1" />
</linearGradient>
</defs>
<rect x="182.315" y="160" width="3.33333" height="60.1179" rx="1" ry="0.5" fill="url(#grad207.648163160.000000NRC)" fill-opacity="0.9" stroke="url(#grad207.648163160.000000NRC)" stroke-width="1.125" stroke-opacity="0.9" transform="rotate(-90 207.648163 160.000000)" />
<defs id="" >
<linearGradient id="grad207.648163160.000000NRCRedun" x1="0%" y1="0%" x2="100%" y2="0%" >
<stop offset="100%" stop-color="#F8766D" stop-opacity="1" />
</linearGradient>
</defs>
<rect x="172.982" y="160" width="3.33333" height="60.1179" rx="1" ry="0.5" fill="url(#grad207.648163160.000000NRCRedun)" fill-opacity="0.9" stroke="url(#grad207.648163160.000000NRCRedun)" stroke-width="1.125" stroke-opacity="0.9" transform="rotate(-90 207.648163 160.000000)" />
<polygon points="195.734,110 262.782,110 267.766,150 207.648,150 " fill="#3BA084" stroke="#3BA084" stroke-width="0.3" stroke-opacity="0.18" fill-opacity="0.18" />
<defs id="" >
<linearGradient id="grad53.493404110.000000" x1="0%" y1="0%" x2="100%" y2="0%" >
<stop offset="0%" stop-color="#3B41A0" stop-opacity="1" />
<stop offset="50%" stop-color="#BABCDD" stop-opacity="1" />
<stop offset="100%" stop-color="#3B41A0" stop-opacity="1" />
</linearGradient>
</defs>
<rect x="53.4934" y="110" width="10" height="145.705" rx="1" ry="1" fill="url(#grad53.493404110.000000)" fill-opacity="0.9" stroke-width="0.75" stroke-opacity="0.9" transform="rotate(-90 53.493404 110.000000)" />
<defs id="" >
<linearGradient id="grad53.493404110.000000NRC" x1="0%" y1="0%" x2="100%" y2="0%" >
<stop offset="100%" stop-color="#00BFC4" stop-opacity="1" />
</linearGradient>
</defs>
<rect x="85.4934" y="110" width="3.33333" height="145.705" rx="1" ry="0.5" fill="url(#grad53.493404110.000000NRC)" fill-opacity="0.9" stroke="url(#grad53.493404110.000000NRC)" stroke-width="1.125" stroke-opacity="0.9" transform="rotate(-90 53.493404 110.000000)" />
<defs id="" >
<linearGradient id="grad53.493404110.000000NRCRedun" x1="0%" y1="0%" x2="100%" y2="0%" >
<stop offset="100%" stop-color="#F8766D" stop-opacity="1" />
</linearGradient>
</defs>
<rect x="94.8267" y="110" width="3.33333" height="145.705" rx="1" ry="0.5" fill="url(#grad53.493404110.000000NRCRedun)" fill-opacity="0.9" stroke="url(#grad53.493404110.000000NRCRedun)" stroke-width="1.125" stroke-opacity="0.9" transform="rotate(-90 53.493404 110.000000)" />
<defs id="" >
<linearGradient id="grad269.224976160.000000" x1="0%" y1="0%" x2="100%" y2="0%" >
<stop offset="0%" stop-color="#3B41A0" stop-opacity="1" />
<stop offset="50%" stop-color="#BABCDD" stop-opacity="1" />
<stop offset="100%" stop-color="#3B41A0" stop-opacity="1" />
</linearGradient>
</defs>
<rect x="269.225" y="160" width="10" height="141.45" rx="1" ry="1" fill="url(#grad269.224976160.000000)" fill-opacity="0.9" stroke="url(#grad269.224976160.000000)" stroke-width="0.75" stroke-opacity="0.9" transform="rotate(-90 269.224976 160.000000)" />
<defs id="" >
<linearGradient id="grad269.224976160.000000NRC" x1="0%" y1="0%" x2="100%" y2="0%" >
<stop offset="100%" stop-color="#00BFC4" stop-opacity="1" />
</linearGradient>
</defs>
<rect x="243.892" y="160" width="3.33333" height="141.45" rx="1" ry="0.5" fill="url(#grad269.224976160.000000NRC)" fill-opacity="0.9" stroke="url(#grad269.224976160.000000NRC)" stroke-width="1.125" stroke-opacity="0.9" transform="rotate(-90 269.224976 160.000000)" />
<defs id="" >
<linearGradient id="grad269.224976160.000000NRCRedun" x1="0%" y1="0%" x2="100%" y2="0%" >
<stop offset="100%" stop-color="#F8766D" stop-opacity="1" />
</linearGradient>
</defs>
<rect x="234.558" y="160" width="3.33333" height="141.45" rx="1" ry="0.5" fill="url(#grad269.224976160.000000NRCRedun)" fill-opacity="0.9" stroke="url(#grad269.224976160.000000NRCRedun)" stroke-width="1.125" stroke-opacity="0.9" transform="rotate(-90 269.224976 160.000000)" />
<polygon points="53.4934,110 199.199,110 410.675,150 269.225,150 " fill="#3B41A0" stroke="#3B41A0" stroke-width="0.3" stroke-opacity="0.18" fill-opacity="0.18" />
<defs id="" >
<linearGradient id="grad31.184731110.000000" x1="0%" y1="0%" x2="100%" y2="0%" >
<stop offset="0%" stop-color="#A03B94" stop-opacity="1" />
<stop offset="50%" stop-color="#DDBAD9" stop-opacity="1" />
<stop offset="100%" stop-color="#A03B94" stop-opacity="1" />
</linearGradient>
</defs>
<rect x="31.1847" y="110" width="10" height="23.8891" rx="1" ry="1" fill="url(#grad31.184731110.000000)" fill-opacity="0.9" stroke-width="0.75" stroke-opacity="0.9" transform="rotate(-90 31.184731 110.000000)" />
<defs id="" >
<linearGradient id="grad31.184731110.000000NRC" x1="0%" y1="0%" x2="100%" y2="0%" >
<stop offset="100%" stop-color="#00BFC4" stop-opacity="1" />
</linearGradient>
</defs>
<rect x="63.1847" y="110" width="3.33333" height="23.8891" rx="1" ry="0.5" fill="url(#grad31.184731110.000000NRC)" fill-opacity="0.9" stroke="url(#grad31.184731110.000000NRC)" stroke-width="1.125" stroke-opacity="0.9" transform="rotate(-90 31.184731 110.000000)" />
<defs id="" >
<linearGradient id="grad31.184731110.000000NRCRedun" x1="0%" y1="0%" x2="100%" y2="0%" >
<stop offset="100%" stop-color="#F8766D" stop-opacity="1" />
</linearGradient>
</defs>
<rect x="72.5181" y="110" width="3.33333" height="23.8891" rx="1" ry="0.5" fill="url(#grad31.184731110.000000NRCRedun)" fill-opacity="0.9" stroke="url(#grad31.184731110.000000NRCRedun)" stroke-width="1.125" stroke-opacity="0.9" transform="rotate(-90 31.184731 110.000000)" />
<defs id="" >
<linearGradient id="grad416.024567160.000000" x1="0%" y1="0%" x2="100%" y2="0%" >
<stop offset="0%" stop-color="#A03B94" stop-opacity="1" />
<stop offset="50%" stop-color="#DDBAD9" stop-opacity="1" />
<stop offset="100%" stop-color="#A03B94" stop-opacity="1" />
</linearGradient>
</defs>
<rect x="416.025" y="160" width="10" height="17.9928" rx="1" ry="1" fill="url(#grad416.024567160.000000)" fill-opacity="0.9" stroke="url(#grad416.024567160.000000)" stroke-width="0.75" stroke-opacity="0.9" transform="rotate(-90 416.024567 160.000000)" />
<defs id="" >
<linearGradient id="grad416.024567160.000000NRC" x1="0%" y1="0%" x2="100%" y2="0%" >
<stop offset="100%" stop-color="#00B0F6" stop-opacity="1" />
</linearGradient>
</defs>
<rect x="390.691" y="160" width="3.33333" height="17.9928" rx="1" ry="0.5" fill="url(#grad416.024567160.000000NRC)" fill-opacity="0.9" stroke="url(#grad416.024567160.000000NRC)" stroke-width="1.125" stroke-opacity="0.9" transform="rotate(-90 416.024567 160.000000)" />
<defs id="" >
<linearGradient id="grad416.024567160.000000NRCRedun" x1="0%" y1="0%" x2="100%" y2="0%" >
<stop offset="100%" stop-color="#F8766D" stop-opacity="1" />
</linearGradient>
</defs>
<rect x="381.358" y="160" width="3.33333" height="17.9928" rx="1" ry="0.5" fill="url(#grad416.024567160.000000NRCRedun)" fill-opacity="0.9" stroke="url(#grad416.024567160.000000NRCRedun)" stroke-width="1.125" stroke-opacity="0.9" transform="rotate(-90 416.024567 160.000000)" />
<polygon points="31.1847,110 55.0739,110 434.017,150 416.025,150 " fill="#A03B94" stroke="#A03B94" stroke-width="0.3" stroke-opacity="0.18" fill-opacity="0.18" />
<path id="rhs20.000000100.000000" d="M 20,604.5
a 5,5 0 0,0 10,0
v 5
h -10
v -5
z
" fill="white" fill-opacity="1" stroke="white" stroke-opacity="1" stroke-linejoin="round" stroke-width="1" transform="rotate(-90 20.000000 110.000000)" />
<path id="rhs20.000000100.000000" d="M 30,115
a 5,5 0 0,0 -10,0
v -5
h 10
v 5
z
" fill="white" fill-opacity="1" stroke="white" stroke-opacity="1" stroke-linejoin="round" stroke-width="1" transform="rotate(-90 20.000000 110.000000)" />
<path id="20.000000110.000000" d="M 20,115
v 489.5
a 5,5 0 0,0 10,0
v -489.5
a 5,5 0 0,0 -10,0
z
" fill="none" fill-opacity="0.9" stroke="black" stroke-opacity="1" stroke-linejoin="round" stroke-width="1" transform="rotate(-90 20.000000 110.000000)" />
<path id="rhs20.000000100.000000" d="M 20,613.682
a 5,5 0 0,0 10,0
v 5
h -10
v -5
z
" fill="white" fill-opacity="1" stroke="white" stroke-opacity="1" stroke-linejoin="round" stroke-width="1" transform="rotate(-90 20.000000 160.000000)" />
<path id="rhs20.000000100.000000" d="M 30,165
a 5,5 0 0,0 -10,0
v -5
h 10
v 5
z
" fill="white" fill-opacity="1" stroke="white" stroke-opacity="1" stroke-linejoin="round" stroke-width="1" transform="rotate(-90 20.000000 160.000000)" />
<path id="20.000000160.000000" d="M 20,165
v 448.682
a 5,5 0 0,0 10,0
v -448.682
a 5,5 0 0,0 -10,0
z
" fill="none" fill-opacity="0.9" stroke="black" stroke-opacity="1" stroke-linejoin="round" stroke-width="1" transform="rotate(-90 20.000000 160.000000)" />
<text id="20.00000090.300003" x="20" y="90.3" dominant-baseline="" baseline-shift="" alignment-baseline="" font-size="9px" font-weight="bold" font-family="Helvetica,Arial" font-variant="normal" text-anchor="start" text-align="start" line-height="125%%" >
14.seq</text>
<text id="20.000000176.000000" x="20" y="176" dominant-baseline="" baseline-shift="" alignment-baseline="" font-size="9px" font-weight="bold" font-family="Helvetica,Arial" font-variant="normal" text-anchor="start" text-align="start" line-height="125%%" >
16.seq</text>
<defs id="" >
<linearGradient id="grad560.00042778.000000" x1="0%" y1="100%" x2="0%" y2="0%" >
<stop offset="0%" stop-color="#F8766D" stop-opacity="1" />
<stop offset="14%" stop-color="#D89000" stop-opacity="1" />
<stop offset="28%" stop-color="#A3A500" stop-opacity="1" />
<stop offset="42%" stop-color="#39B600" stop-opacity="1" />
<stop offset="57%" stop-color="#00BF7D" stop-opacity="1" />
<stop offset="71%" stop-color="#00BFC4" stop-opacity="1" />
<stop offset="85%" stop-color="#00B0F6" stop-opacity="1" />
<stop offset="100%" stop-color="#9590FF" stop-opacity="1" />
</linearGradient>
</defs>
<rect x="560" y="78" width="15" height="104" rx="2" ry="2" fill="url(#grad560.00042778.000000)" fill-opacity="0.9" stroke="black" stroke-width="0.5" stroke-opacity="1" />
<text id="547.200439130.000000" x="547.2" y="130" dominant-baseline="" baseline-shift="" alignment-baseline="" transform="rotate(90 547.200439 130.000000)" font-size="8px" font-family="Helvetica,Arial" font-variant="normal" text-anchor="middle" text-align="start" line-height="125%%" >
Relative Redundancy</text>
<text id="582.200439130.000000" x="582.2" y="130" dominant-baseline="" baseline-shift="" alignment-baseline="" transform="rotate(90 582.200439 130.000000)" font-size="8px" font-family="Helvetica,Arial" font-variant="normal" text-anchor="middle" text-align="start" line-height="125%%" >
Redundancy</text>
<text id="567.500427188.000000" x="567.5" y="188" dy="2.45" dominant-baseline="" baseline-shift="" alignment-baseline="" font-size="7px" font-family="Helvetica,Arial" font-variant="normal" text-anchor="middle" text-align="start" line-height="125%%" >
0.0</text>
<text id="567.50042772.000000" x="567.5" y="72" dy="2.45" dominant-baseline="" baseline-shift="" alignment-baseline="" font-size="7px" font-family="Helvetica,Arial" font-variant="normal" text-anchor="middle" text-align="start" line-height="125%%" >
2.0</text>
<text id="567.500427156.000000" x="567.5" y="156" dy="2.45" dominant-baseline="" baseline-shift="" alignment-baseline="" font-size="7px" font-family="Helvetica,Arial" font-variant="normal" text-anchor="middle" text-align="start" line-height="125%%" >
0.5</text>
<text id="567.500427130.000000" x="567.5" y="130" dy="2.45" dominant-baseline="" baseline-shift="" alignment-baseline="" font-size="7px" font-family="Helvetica,Arial" font-variant="normal" text-anchor="middle" text-align="start" line-height="125%%" >
1.0</text>
<text id="567.500427104.000000" x="567.5" y="104" dy="2.45" dominant-baseline="" baseline-shift="" alignment-baseline="" font-size="7px" font-family="Helvetica,Arial" font-variant="normal" text-anchor="middle" text-align="start" line-height="125%%" >
1.5</text>
<path id="" d="M 479.121,76.3333
H 550
V 83
" fill="none" fill-opacity="0.9" stroke="black" stroke-opacity="1" stroke-linejoin="round" stroke-dasharray="8 4" stroke-width="0.5" />
<path id="" d="M 472.07,183.667
H 550
V 177
" fill="none" fill-opacity="0.9" stroke="black" stroke-opacity="1" stroke-linejoin="round" stroke-dasharray="8 4" stroke-width="0.5" />
<path id="" d="M 479.121,67
H 585
V 100
" fill="none" fill-opacity="0.9" stroke="black" stroke-opacity="1" stroke-linejoin="round" stroke-dasharray="8 4" stroke-width="0.5" />
<path id="" d="M 472.07,193
H 585
V 160
" fill="none" fill-opacity="0.9" stroke="black" stroke-opacity="1" stroke-linejoin="round" stroke-dasharray="8 4" stroke-width="0.5" />
</svg>