<?xml version="1.0" encoding="UTF-8" standalone="no"?>
<!-- Morteza Hosseini, IEETA 2018-2019 -->
<svg xmlns="http://www.w3.org/2000/svg" xmlns:xlink="http://www.w3.org/1999/xlink" viewBox="0 0 605.000000 260.000000" >
<rect x="0" y="0" width="605" height="260" rx="1" ry="1" fill="white" fill-opacity="0.9" stroke="white" stroke-width="0" stroke-opacity="1" />
<text id="18.50000039.333328" x="18.5" y="39.3333" dominant-baseline="" baseline-shift="" alignment-baseline="" font-size="7px" font-family="Helvetica,Arial" font-variant="normal" text-anchor="start" text-align="start" line-height="125%%" >
0 b</text>
<line id="20.37500046.33332820.37500052.333328" x1="20.375" y1="46.3333" x2="20.375" y2="52.3333" stroke-width="0.75" stroke="black" />
<line id="33.41662248.33332833.41662252.333328" x1="33.4166" y1="48.3333" x2="33.4166" y2="52.3333" stroke-width="0.5" stroke="black" />
<line id="46.83324848.33332846.83324852.333328" x1="46.8332" y1="48.3333" x2="46.8332" y2="52.3333" stroke-width="0.5" stroke="black" />
<line id="60.24987048.33332860.24987052.333328" x1="60.2499" y1="48.3333" x2="60.2499" y2="52.3333" stroke-width="0.5" stroke="black" />
<line id="73.66649646.33332873.66649652.333328" x1="73.6665" y1="46.3333" x2="73.6665" y2="52.3333" stroke-width="0.75" stroke="black" />
<text id="73.66649639.333328" x="73.6665" y="39.3333" dominant-baseline="" baseline-shift="" alignment-baseline="" font-size="7px" font-weight="normal" font-family="Helvetica,Arial" font-variant="normal" text-anchor="middle" text-align="start" line-height="125%%" >
4 Mb</text>
<line id="87.08312248.33332887.08312252.333328" x1="87.0831" y1="48.3333" x2="87.0831" y2="52.3333" stroke-width="0.5" stroke="black" />
<line id="100.49974148.333328100.49974152.333328" x1="100.5" y1="48.3333" x2="100.5" y2="52.3333" stroke-width="0.5" stroke="black" />
<line id="113.91636748.333328113.91636752.333328" x1="113.916" y1="48.3333" x2="113.916" y2="52.3333" stroke-width="0.5" stroke="black" />
<line id="127.33299346.333328127.33299352.333328" x1="127.333" y1="46.3333" x2="127.333" y2="52.3333" stroke-width="0.75" stroke="black" />
<text id="127.33299339.333328" x="127.333" y="39.3333" dominant-baseline="" baseline-shift="" alignment-baseline="" font-size="7px" font-weight="normal" font-family="Helvetica,Arial" font-variant="normal" text-anchor="middle" text-align="start" line-height="125%%" >
8 Mb</text>
<line id="140.74961948.333328140.74961952.333328" x1="140.75" y1="48.3333" x2="140.75" y2="52.3333" stroke-width="0.5" stroke="black" />
<line id="154.16624548.333328154.16624552.333328" x1="154.166" y1="48.3333" x2="154.166" y2="52.3333" stroke-width="0.5" stroke="black" />
<line id="167.58285548.333328167.58285552.333328" x1="167.583" y1="48.3333" x2="167.583" y2="52.3333" stroke-width="0.5" stroke="black" />
<line id="180.99948146.333328180.99948152.333328" x1="180.999" y1="46.3333" x2="180.999" y2="52.3333" stroke-width="0.75" stroke="black" />
<text id="180.99948139.333328" x="180.999" y="39.3333" dominant-baseline="" baseline-shift="" alignment-baseline="" font-size="7px" font-weight="normal" font-family="Helvetica,Arial" font-variant="normal" text-anchor="middle" text-align="start" line-height="125%%" >
12 Mb</text>
<line id="194.41610748.333328194.41610752.333328" x1="194.416" y1="48.3333" x2="194.416" y2="52.3333" stroke-width="0.5" stroke="black" />
<line id="207.83273348.333328207.83273352.333328" x1="207.833" y1="48.3333" x2="207.833" y2="52.3333" stroke-width="0.5" stroke="black" />
<line id="221.24935948.333328221.24935952.333328" x1="221.249" y1="48.3333" x2="221.249" y2="52.3333" stroke-width="0.5" stroke="black" />
<line id="234.66598546.333328234.66598552.333328" x1="234.666" y1="46.3333" x2="234.666" y2="52.3333" stroke-width="0.75" stroke="black" />
<text id="234.66598539.333328" x="234.666" y="39.3333" dominant-baseline="" baseline-shift="" alignment-baseline="" font-size="7px" font-weight="normal" font-family="Helvetica,Arial" font-variant="normal" text-anchor="middle" text-align="start" line-height="125%%" >
16 Mb</text>
<line id="248.08261148.333328248.08261152.333328" x1="248.083" y1="48.3333" x2="248.083" y2="52.3333" stroke-width="0.5" stroke="black" />
<line id="261.49923748.333328261.49923752.333328" x1="261.499" y1="48.3333" x2="261.499" y2="52.3333" stroke-width="0.5" stroke="black" />
<line id="274.91586348.333328274.91586352.333328" x1="274.916" y1="48.3333" x2="274.916" y2="52.3333" stroke-width="0.5" stroke="black" />
<line id="288.33248946.333328288.33248952.333328" x1="288.332" y1="46.3333" x2="288.332" y2="52.3333" stroke-width="0.75" stroke="black" />
<text id="288.33248939.333328" x="288.332" y="39.3333" dominant-baseline="" baseline-shift="" alignment-baseline="" font-size="7px" font-weight="normal" font-family="Helvetica,Arial" font-variant="normal" text-anchor="middle" text-align="start" line-height="125%%" >
20 Mb</text>
<line id="301.74908448.333328301.74908452.333328" x1="301.749" y1="48.3333" x2="301.749" y2="52.3333" stroke-width="0.5" stroke="black" />
<line id="315.16571048.333328315.16571052.333328" x1="315.166" y1="48.3333" x2="315.166" y2="52.3333" stroke-width="0.5" stroke="black" />
<line id="328.58233648.333328328.58233652.333328" x1="328.582" y1="48.3333" x2="328.582" y2="52.3333" stroke-width="0.5" stroke="black" />
<line id="341.99896246.333328341.99896252.333328" x1="341.999" y1="46.3333" x2="341.999" y2="52.3333" stroke-width="0.75" stroke="black" />
<text id="341.99896239.333328" x="341.999" y="39.3333" dominant-baseline="" baseline-shift="" alignment-baseline="" font-size="7px" font-weight="normal" font-family="Helvetica,Arial" font-variant="normal" text-anchor="middle" text-align="start" line-height="125%%" >
24 Mb</text>
<line id="355.41558848.333328355.41558852.333328" x1="355.416" y1="48.3333" x2="355.416" y2="52.3333" stroke-width="0.5" stroke="black" />
<line id="368.83221448.333328368.83221452.333328" x1="368.832" y1="48.3333" x2="368.832" y2="52.3333" stroke-width="0.5" stroke="black" />
<line id="382.24884048.333328382.24884052.333328" x1="382.249" y1="48.3333" x2="382.249" y2="52.3333" stroke-width="0.5" stroke="black" />
<line id="395.66546646.333328395.66546652.333328" x1="395.665" y1="46.3333" x2="395.665" y2="52.3333" stroke-width="0.75" stroke="black" />
<text id="395.66546639.333328" x="395.665" y="39.3333" dominant-baseline="" baseline-shift="" alignment-baseline="" font-size="7px" font-weight="normal" font-family="Helvetica,Arial" font-variant="normal" text-anchor="middle" text-align="start" line-height="125%%" >
28 Mb</text>
<line id="409.08209248.333328409.08209252.333328" x1="409.082" y1="48.3333" x2="409.082" y2="52.3333" stroke-width="0.5" stroke="black" />
<line id="422.49871848.333328422.49871852.333328" x1="422.499" y1="48.3333" x2="422.499" y2="52.3333" stroke-width="0.5" stroke="black" />
<line id="435.91534448.333328435.91534452.333328" x1="435.915" y1="48.3333" x2="435.915" y2="52.3333" stroke-width="0.5" stroke="black" />
<line id="449.33197046.333328449.33197052.333328" x1="449.332" y1="46.3333" x2="449.332" y2="52.3333" stroke-width="0.75" stroke="black" />
<text id="449.33197039.333328" x="449.332" y="39.3333" dominant-baseline="" baseline-shift="" alignment-baseline="" font-size="7px" font-weight="normal" font-family="Helvetica,Arial" font-variant="normal" text-anchor="middle" text-align="start" line-height="125%%" >
32 Mb</text>
<line id="462.74859648.333328462.74859652.333328" x1="462.749" y1="48.3333" x2="462.749" y2="52.3333" stroke-width="0.5" stroke="black" />
<line id="476.16522248.333328476.16522252.333328" x1="476.165" y1="48.3333" x2="476.165" y2="52.3333" stroke-width="0.5" stroke="black" />
<line id="489.58181848.333328489.58181852.333328" x1="489.582" y1="48.3333" x2="489.582" y2="52.3333" stroke-width="0.5" stroke="black" />
<line id="502.99844446.333328502.99844452.333328" x1="502.998" y1="46.3333" x2="502.998" y2="52.3333" stroke-width="0.75" stroke="black" />
<text id="502.99844439.333328" x="502.998" y="39.3333" dominant-baseline="" baseline-shift="" alignment-baseline="" font-size="7px" font-weight="normal" font-family="Helvetica,Arial" font-variant="normal" text-anchor="middle" text-align="start" line-height="125%%" >
36 Mb</text>
<line id="516.41510048.333328516.41510052.333328" x1="516.415" y1="48.3333" x2="516.415" y2="52.3333" stroke-width="0.5" stroke="black" />
<text id="18.500000225.566666" x="18.5" y="225.567" dominant-baseline="" baseline-shift="" alignment-baseline="" font-size="7px" font-family="Helvetica,Arial" font-variant="normal" text-anchor="start" text-align="start" line-height="125%%" >
0 b</text>
<line id="20.375000213.66667220.375000207.666672" x1="20.375" y1="213.667" x2="20.375" y2="207.667" stroke-width="0.75" stroke="black" />
<line id="33.416622211.66667233.416622207.666672" x1="33.4166" y1="211.667" x2="33.4166" y2="207.667" stroke-width="0.5" stroke="black" />
<line id="46.833248211.66667246.833248207.666672" x1="46.8332" y1="211.667" x2="46.8332" y2="207.667" stroke-width="0.5" stroke="black" />
<line id="60.249870211.66667260.249870207.666672" x1="60.2499" y1="211.667" x2="60.2499" y2="207.667" stroke-width="0.5" stroke="black" />
<line id="73.666496213.66667273.666496207.666672" x1="73.6665" y1="213.667" x2="73.6665" y2="207.667" stroke-width="0.75" stroke="black" />
<text id="73.666496225.566666" x="73.6665" y="225.567" dominant-baseline="" baseline-shift="" alignment-baseline="" font-size="7px" font-weight="normal" font-family="Helvetica,Arial" font-variant="normal" text-anchor="middle" text-align="start" line-height="125%%" >
4 Mb</text>
<line id="87.083122211.66667287.083122207.666672" x1="87.0831" y1="211.667" x2="87.0831" y2="207.667" stroke-width="0.5" stroke="black" />
<line id="100.499741211.666672100.499741207.666672" x1="100.5" y1="211.667" x2="100.5" y2="207.667" stroke-width="0.5" stroke="black" />
<line id="113.916367211.666672113.916367207.666672" x1="113.916" y1="211.667" x2="113.916" y2="207.667" stroke-width="0.5" stroke="black" />
<line id="127.332993213.666672127.332993207.666672" x1="127.333" y1="213.667" x2="127.333" y2="207.667" stroke-width="0.75" stroke="black" />
<text id="127.332993225.566666" x="127.333" y="225.567" dominant-baseline="" baseline-shift="" alignment-baseline="" font-size="7px" font-weight="normal" font-family="Helvetica,Arial" font-variant="normal" text-anchor="middle" text-align="start" line-height="125%%" >
8 Mb</text>
<line id="140.749619211.666672140.749619207.666672" x1="140.75" y1="211.667" x2="140.75" y2="207.667" stroke-width="0.5" stroke="black" />
<line id="154.166245211.666672154.166245207.666672" x1="154.166" y1="211.667" x2="154.166" y2="207.667" stroke-width="0.5" stroke="black" />
<line id="167.582855211.666672167.582855207.666672" x1="167.583" y1="211.667" x2="167.583" y2="207.667" stroke-width="0.5" stroke="black" />
<line id="180.999481213.666672180.999481207.666672" x1="180.999" y1="213.667" x2="180.999" y2="207.667" stroke-width="0.75" stroke="black" />
<text id="180.999481225.566666" x="180.999" y="225.567" dominant-baseline="" baseline-shift="" alignment-baseline="" font-size="7px" font-weight="normal" font-family="Helvetica,Arial" font-variant="normal" text-anchor="middle" text-align="start" line-height="125%%" >
12 Mb</text>
<line id="194.416107211.666672194.416107207.666672" x1="194.416" y1="211.667" x2="194.416" y2="207.667" stroke-width="0.5" stroke="black" />
<line id="207.832733211.666672207.832733207.666672" x1="207.833" y1="211.667" x2="207.833" y2="207.667" stroke-width="0.5" stroke="black" />
<line id="221.249359211.666672221.249359207.666672" x1="221.249" y1="211.667" x2="221.249" y2="207.667" stroke-width="0.5" stroke="black" />
<line id="234.665985213.666672234.665985207.666672" x1="234.666" y1="213.667" x2="234.666" y2="207.667" stroke-width="0.75" stroke="black" />
<text id="234.665985225.566666" x="234.666" y="225.567" dominant-baseline="" baseline-shift="" alignment-baseline="" font-size="7px" font-weight="normal" font-family="Helvetica,Arial" font-variant="normal" text-anchor="middle" text-align="start" line-height="125%%" >
16 Mb</text>
<line id="248.082611211.666672248.082611207.666672" x1="248.083" y1="211.667" x2="248.083" y2="207.667" stroke-width="0.5" stroke="black" />
<line id="261.499237211.666672261.499237207.666672" x1="261.499" y1="211.667" x2="261.499" y2="207.667" stroke-width="0.5" stroke="black" />
<line id="274.915863211.666672274.915863207.666672" x1="274.916" y1="211.667" x2="274.916" y2="207.667" stroke-width="0.5" stroke="black" />
<line id="288.332489213.666672288.332489207.666672" x1="288.332" y1="213.667" x2="288.332" y2="207.667" stroke-width="0.75" stroke="black" />
<text id="288.332489225.566666" x="288.332" y="225.567" dominant-baseline="" baseline-shift="" alignment-baseline="" font-size="7px" font-weight="normal" font-family="Helvetica,Arial" font-variant="normal" text-anchor="middle" text-align="start" line-height="125%%" >
20 Mb</text>
<line id="301.749084211.666672301.749084207.666672" x1="301.749" y1="211.667" x2="301.749" y2="207.667" stroke-width="0.5" stroke="black" />
<line id="315.165710211.666672315.165710207.666672" x1="315.166" y1="211.667" x2="315.166" y2="207.667" stroke-width="0.5" stroke="black" />
<line id="328.582336211.666672328.582336207.666672" x1="328.582" y1="211.667" x2="328.582" y2="207.667" stroke-width="0.5" stroke="black" />
<line id="341.998962213.666672341.998962207.666672" x1="341.999" y1="213.667" x2="341.999" y2="207.667" stroke-width="0.75" stroke="black" />
<text id="341.998962225.566666" x="341.999" y="225.567" dominant-baseline="" baseline-shift="" alignment-baseline="" font-size="7px" font-weight="normal" font-family="Helvetica,Arial" font-variant="normal" text-anchor="middle" text-align="start" line-height="125%%" >
24 Mb</text>
<line id="355.415588211.666672355.415588207.666672" x1="355.416" y1="211.667" x2="355.416" y2="207.667" stroke-width="0.5" stroke="black" />
<line id="368.832214211.666672368.832214207.666672" x1="368.832" y1="211.667" x2="368.832" y2="207.667" stroke-width="0.5" stroke="black" />
<line id="382.248840211.666672382.248840207.666672" x1="382.249" y1="211.667" x2="382.249" y2="207.667" stroke-width="0.5" stroke="black" />
<line id="395.665466213.666672395.665466207.666672" x1="395.665" y1="213.667" x2="395.665" y2="207.667" stroke-width="0.75" stroke="black" />
<text id="395.665466225.566666" x="395.665" y="225.567" dominant-baseline="" baseline-shift="" alignment-baseline="" font-size="7px" font-weight="normal" font-family="Helvetica,Arial" font-variant="normal" text-anchor="middle" text-align="start" line-height="125%%" >
28 Mb</text>
<line id="409.082092211.666672409.082092207.666672" x1="409.082" y1="211.667" x2="409.082" y2="207.667" stroke-width="0.5" stroke="black" />
<line id="422.498718211.666672422.498718207.666672" x1="422.499" y1="211.667" x2="422.499" y2="207.667" stroke-width="0.5" stroke="black" />
<line id="435.915344211.666672435.915344207.666672" x1="435.915" y1="211.667" x2="435.915" y2="207.667" stroke-width="0.5" stroke="black" />
<line id="449.331970213.666672449.331970207.666672" x1="449.332" y1="213.667" x2="449.332" y2="207.667" stroke-width="0.75" stroke="black" />
<text id="449.331970225.566666" x="449.332" y="225.567" dominant-baseline="" baseline-shift="" alignment-baseline="" font-size="7px" font-weight="normal" font-family="Helvetica,Arial" font-variant="normal" text-anchor="middle" text-align="start" line-height="125%%" >
32 Mb</text>
<line id="462.748596211.666672462.748596207.666672" x1="462.749" y1="211.667" x2="462.749" y2="207.667" stroke-width="0.5" stroke="black" />
<line id="476.165222211.666672476.165222207.666672" x1="476.165" y1="211.667" x2="476.165" y2="207.667" stroke-width="0.5" stroke="black" />
<line id="489.581818211.666672489.581818207.666672" x1="489.582" y1="211.667" x2="489.582" y2="207.667" stroke-width="0.5" stroke="black" />
<line id="502.998444213.666672502.998444207.666672" x1="502.998" y1="213.667" x2="502.998" y2="207.667" stroke-width="0.75" stroke="black" />
<text id="502.998444225.566666" x="502.998" y="225.567" dominant-baseline="" baseline-shift="" alignment-baseline="" font-size="7px" font-weight="normal" font-family="Helvetica,Arial" font-variant="normal" text-anchor="middle" text-align="start" line-height="125%%" >
36 Mb</text>
<defs id="" >
<linearGradient id="grad455.342621110.000000" x1="0%" y1="0%" x2="100%" y2="0%" >
<stop offset="0%" stop-color="#713BA0" stop-opacity="1" />
<stop offset="50%" stop-color="#CDBADD" stop-opacity="1" />
<stop offset="100%" stop-color="#713BA0" stop-opacity="1" />
</linearGradient>
</defs>
<rect x="455.343" y="110" width="10" height="57.6151" rx="1" ry="1" fill="url(#grad455.342621110.000000)" fill-opacity="0.9" stroke-width="0.75" stroke-opacity="0.9" transform="rotate(-90 455.342621 110.000000)" />
<defs id="" >
<linearGradient id="grad455.342621110.000000NRC" x1="0%" y1="0%" x2="100%" y2="0%" >
<stop offset="100%" stop-color="#00BFC4" stop-opacity="1" />
</linearGradient>
</defs>
<rect x="487.343" y="110" width="3.33333" height="57.6151" rx="1" ry="0.5" fill="url(#grad455.342621110.000000NRC)" fill-opacity="0.9" stroke="url(#grad455.342621110.000000NRC)" stroke-width="1.125" stroke-opacity="0.9" transform="rotate(-90 455.342621 110.000000)" />
<defs id="" >
<linearGradient id="grad455.342621110.000000NRCRedun" x1="0%" y1="0%" x2="100%" y2="0%" >
<stop offset="100%" stop-color="#F8766D" stop-opacity="1" />
</linearGradient>
</defs>
<rect x="496.676" y="110" width="3.33333" height="57.6151" rx="1" ry="0.5" fill="url(#grad455.342621110.000000NRCRedun)" fill-opacity="0.9" stroke="url(#grad455.342621110.000000NRCRedun)" stroke-width="1.125" stroke-opacity="0.9" transform="rotate(-90 455.342621 110.000000)" />
<defs id="" >
<linearGradient id="grad399.636780160.000000" x1="0%" y1="0%" x2="100%" y2="0%" >
<stop offset="0%" stop-color="#713BA0" stop-opacity="1" />
<stop offset="50%" stop-color="#CDBADD" stop-opacity="1" />
<stop offset="100%" stop-color="#713BA0" stop-opacity="1" />
</linearGradient>
</defs>
<rect x="399.637" y="160" width="10" height="56.1888" rx="1" ry="1" fill="url(#grad399.636780160.000000)" fill-opacity="0.9" stroke="url(#grad399.636780160.000000)" stroke-width="0.75" stroke-opacity="0.9" transform="rotate(-90 399.636780 160.000000)" />
<defs id="" >
<linearGradient id="grad399.636780160.000000NRC" x1="0%" y1="0%" x2="100%" y2="0%" >
<stop offset="100%" stop-color="#00BFC4" stop-opacity="1" />
</linearGradient>
</defs>
<rect x="374.303" y="160" width="3.33333" height="56.1888" rx="1" ry="0.5" fill="url(#grad399.636780160.000000NRC)" fill-opacity="0.9" stroke="url(#grad399.636780160.000000NRC)" stroke-width="1.125" stroke-opacity="0.9" transform="rotate(-90 399.636780 160.000000)" />
<defs id="" >
<linearGradient id="grad399.636780160.000000NRCRedun" x1="0%" y1="0%" x2="100%" y2="0%" >
<stop offset="100%" stop-color="#F8766D" stop-opacity="1" />
</linearGradient>
</defs>
<rect x="364.97" y="160" width="3.33333" height="56.1888" rx="1" ry="0.5" fill="url(#grad399.636780160.000000NRCRedun)" fill-opacity="0.9" stroke="url(#grad399.636780160.000000NRCRedun)" stroke-width="1.125" stroke-opacity="0.9" transform="rotate(-90 399.636780 160.000000)" />
<polygon points="455.343,110 512.958,110 455.826,150 399.637,150 " fill="#713BA0" stroke="#713BA0" stroke-width="0.3" stroke-opacity="0.18" fill-opacity="0.18" />
<defs id="" >
<linearGradient id="grad435.861664110.000000" x1="0%" y1="0%" x2="100%" y2="0%" >
<stop offset="0%" stop-color="#A03B65" stop-opacity="1" />
<stop offset="50%" stop-color="#DDBAC9" stop-opacity="1" />
<stop offset="100%" stop-color="#A03B65" stop-opacity="1" />
</linearGradient>
</defs>
<rect x="435.862" y="110" width="10" height="19.4809" rx="1" ry="1" fill="url(#grad435.861664110.000000)" fill-opacity="0.9" stroke-width="0.75" stroke-opacity="0.9" transform="rotate(-90 435.861664 110.000000)" />
<defs id="" >
<linearGradient id="grad435.861664110.000000NRC" x1="0%" y1="0%" x2="100%" y2="0%" >
<stop offset="100%" stop-color="#00B0F6" stop-opacity="1" />
</linearGradient>
</defs>
<rect x="467.862" y="110" width="3.33333" height="19.4809" rx="1" ry="0.5" fill="url(#grad435.861664110.000000NRC)" fill-opacity="0.9" stroke="url(#grad435.861664110.000000NRC)" stroke-width="1.125" stroke-opacity="0.9" transform="rotate(-90 435.861664 110.000000)" />
<defs id="" >
<linearGradient id="grad435.861664110.000000NRCRedun" x1="0%" y1="0%" x2="100%" y2="0%" >
<stop offset="100%" stop-color="#F8766D" stop-opacity="1" />
</linearGradient>
</defs>
<rect x="477.195" y="110" width="3.33333" height="19.4809" rx="1" ry="0.5" fill="url(#grad435.861664110.000000NRCRedun)" fill-opacity="0.9" stroke="url(#grad435.861664110.000000NRCRedun)" stroke-width="1.125" stroke-opacity="0.9" transform="rotate(-90 435.861664 110.000000)" />
<defs id="" >
<linearGradient id="grad465.163574160.000000" x1="0%" y1="0%" x2="100%" y2="0%" >
<stop offset="0%" stop-color="#A03B65" stop-opacity="1" />
<stop offset="50%" stop-color="#DDBAC9" stop-opacity="1" />
<stop offset="100%" stop-color="#A03B65" stop-opacity="1" />
</linearGradient>
</defs>
<rect x="465.164" y="160" width="10" height="9.82097" rx="1" ry="1" fill="url(#grad465.163574160.000000)" fill-opacity="0.9" stroke="url(#grad465.163574160.000000)" stroke-width="0.75" stroke-opacity="0.9" transform="rotate(-90 465.163574 160.000000)" />
<defs id="" >
<linearGradient id="grad465.163574160.000000NRC" x1="0%" y1="0%" x2="100%" y2="0%" >
<stop offset="100%" stop-color="#00B0F6" stop-opacity="1" />
</linearGradient>
</defs>
<rect x="439.83" y="160" width="3.33333" height="9.82097" rx="1" ry="0.5" fill="url(#grad465.163574160.000000NRC)" fill-opacity="0.9" stroke="url(#grad465.163574160.000000NRC)" stroke-width="1.125" stroke-opacity="0.9" transform="rotate(-90 465.163574 160.000000)" />
<defs id="" >
<linearGradient id="grad465.163574160.000000NRCRedun" x1="0%" y1="0%" x2="100%" y2="0%" >
<stop offset="100%" stop-color="#F8766D" stop-opacity="1" />
</linearGradient>
</defs>
<rect x="430.497" y="160" width="3.33333" height="9.82097" rx="1" ry="0.5" fill="url(#grad465.163574160.000000NRCRedun)" fill-opacity="0.9" stroke="url(#grad465.163574160.000000NRCRedun)" stroke-width="1.125" stroke-opacity="0.9" transform="rotate(-90 465.163574 160.000000)" />
<polygon points="435.862,110 455.343,110 474.985,150 465.164,150 " fill="#A03B65" stroke="#A03B65" stroke-width="0.3" stroke-opacity="0.18" fill-opacity="0.18" />
<defs id="" >
<linearGradient id="grad406.398773110.000000" x1="0%" y1="0%" x2="100%" y2="0%" >
<stop offset="0%" stop-color="#A0803B" stop-opacity="1" />
<stop offset="50%" stop-color="#DDD2BA" stop-opacity="1" />
<stop offset="100%" stop-color="#A0803B" stop-opacity="1" />
</linearGradient>
</defs>
<rect x="406.399" y="110" width="10" height="10.465" rx="1" ry="1" fill="url(#grad406.398773110.000000)" fill-opacity="0.9" stroke-width="0.75" stroke-opacity="0.9" transform="rotate(-90 406.398773 110.000000)" />
<defs id="" >
<linearGradient id="grad406.398773110.000000NRC" x1="0%" y1="0%" x2="100%" y2="0%" >
<stop offset="100%" stop-color="#00B0F6" stop-opacity="1" />
</linearGradient>
</defs>
<rect x="438.399" y="110" width="3.33333" height="10.465" rx="1" ry="0.5" fill="url(#grad406.398773110.000000NRC)" fill-opacity="0.9" stroke="url(#grad406.398773110.000000NRC)" stroke-width="1.125" stroke-opacity="0.9" transform="rotate(-90 406.398773 110.000000)" />
<defs id="" >
<linearGradient id="grad406.398773110.000000NRCRedun" x1="0%" y1="0%" x2="100%" y2="0%" >
<stop offset="100%" stop-color="#F8766D" stop-opacity="1" />
</linearGradient>
</defs>
<rect x="447.732" y="110" width="3.33333" height="10.465" rx="1" ry="0.5" fill="url(#grad406.398773110.000000NRCRedun)" fill-opacity="0.9" stroke="url(#grad406.398773110.000000NRCRedun)" stroke-width="1.125" stroke-opacity="0.9" transform="rotate(-90 406.398773 110.000000)" />
<defs id="" >
<linearGradient id="grad500.744476160.000000" x1="0%" y1="0%" x2="100%" y2="0%" >
<stop offset="0%" stop-color="#A0803B" stop-opacity="1" />
<stop offset="50%" stop-color="#DDD2BA" stop-opacity="1" />
<stop offset="100%" stop-color="#A0803B" stop-opacity="1" />
</linearGradient>
</defs>
<rect x="500.744" y="160" width="10" height="6.10776" rx="1" ry="1" fill="url(#grad500.744476160.000000)" fill-opacity="0.9" stroke="url(#grad500.744476160.000000)" stroke-width="0.75" stroke-opacity="0.9" transform="rotate(-90 500.744476 160.000000)" />
<defs id="" >
<linearGradient id="grad500.744476160.000000NRC" x1="0%" y1="0%" x2="100%" y2="0%" >
<stop offset="100%" stop-color="#00B0F6" stop-opacity="1" />
</linearGradient>
</defs>
<rect x="475.411" y="160" width="3.33333" height="6.10776" rx="1" ry="0.5" fill="url(#grad500.744476160.000000NRC)" fill-opacity="0.9" stroke="url(#grad500.744476160.000000NRC)" stroke-width="1.125" stroke-opacity="0.9" transform="rotate(-90 500.744476 160.000000)" />
<defs id="" >
<linearGradient id="grad500.744476160.000000NRCRedun" x1="0%" y1="0%" x2="100%" y2="0%" >
<stop offset="100%" stop-color="#F8766D" stop-opacity="1" />
</linearGradient>
</defs>
<rect x="466.078" y="160" width="3.33333" height="6.10776" rx="1" ry="0.5" fill="url(#grad500.744476160.000000NRCRedun)" fill-opacity="0.9" stroke="url(#grad500.744476160.000000NRCRedun)" stroke-width="1.125" stroke-opacity="0.9" transform="rotate(-90 500.744476 160.000000)" />
<polygon points="406.399,110 416.864,110 506.852,150 500.744,150 " fill="#A0803B" stroke="#A0803B" stroke-width="0.3" stroke-opacity="0.18" fill-opacity="0.18" />
<defs id="" >
<linearGradient id="grad358.581909110.000000" x1="0%" y1="0%" x2="100%" y2="0%" >
<stop offset="0%" stop-color="#3B6EA0" stop-opacity="1" />
<stop offset="50%" stop-color="#BACCDD" stop-opacity="1" />
<stop offset="100%" stop-color="#3B6EA0" stop-opacity="1" />
</linearGradient>
</defs>
<rect x="358.582" y="110" width="10" height="47.6558" rx="1" ry="1" fill="url(#grad358.581909110.000000)" fill-opacity="0.9" stroke-width="0.75" stroke-opacity="0.9" transform="rotate(-90 358.581909 110.000000)" />
<defs id="" >
<linearGradient id="grad358.581909110.000000NRC" x1="0%" y1="0%" x2="100%" y2="0%" >
<stop offset="100%" stop-color="#00BFC4" stop-opacity="1" />
</linearGradient>
</defs>
<rect x="390.582" y="110" width="3.33333" height="47.6558" rx="1" ry="0.5" fill="url(#grad358.581909110.000000NRC)" fill-opacity="0.9" stroke="url(#grad358.581909110.000000NRC)" stroke-width="1.125" stroke-opacity="0.9" transform="rotate(-90 358.581909 110.000000)" />
<defs id="" >
<linearGradient id="grad358.581909110.000000NRCRedun" x1="0%" y1="0%" x2="100%" y2="0%" >
<stop offset="100%" stop-color="#F8766D" stop-opacity="1" />
</linearGradient>
</defs>
<rect x="399.915" y="110" width="3.33333" height="47.6558" rx="1" ry="0.5" fill="url(#grad358.581909110.000000NRCRedun)" fill-opacity="0.9" stroke="url(#grad358.581909110.000000NRCRedun)" stroke-width="1.125" stroke-opacity="0.9" transform="rotate(-90 358.581909 110.000000)" />
<defs id="" >
<linearGradient id="grad341.676971160.000000" x1="0%" y1="0%" x2="100%" y2="0%" >
<stop offset="0%" stop-color="#3B6EA0" stop-opacity="1" />
<stop offset="50%" stop-color="#BACCDD" stop-opacity="1" />
<stop offset="100%" stop-color="#3B6EA0" stop-opacity="1" />
</linearGradient>
</defs>
<rect x="341.677" y="160" width="10" height="45.7239" rx="1" ry="1" fill="url(#grad341.676971160.000000)" fill-opacity="0.9" stroke="url(#grad341.676971160.000000)" stroke-width="0.75" stroke-opacity="0.9" transform="rotate(-90 341.676971 160.000000)" />
<defs id="" >
<linearGradient id="grad341.676971160.000000NRC" x1="0%" y1="0%" x2="100%" y2="0%" >
<stop offset="100%" stop-color="#00B0F6" stop-opacity="1" />
</linearGradient>
</defs>
<rect x="316.344" y="160" width="3.33333" height="45.7239" rx="1" ry="0.5" fill="url(#grad341.676971160.000000NRC)" fill-opacity="0.9" stroke="url(#grad341.676971160.000000NRC)" stroke-width="1.125" stroke-opacity="0.9" transform="rotate(-90 341.676971 160.000000)" />
<defs id="" >
<linearGradient id="grad341.676971160.000000NRCRedun" x1="0%" y1="0%" x2="100%" y2="0%" >
<stop offset="100%" stop-color="#F8766D" stop-opacity="1" />
</linearGradient>
</defs>
<rect x="307.01" y="160" width="3.33333" height="45.7239" rx="1" ry="0.5" fill="url(#grad341.676971160.000000NRCRedun)" fill-opacity="0.9" stroke="url(#grad341.676971160.000000NRCRedun)" stroke-width="1.125" stroke-opacity="0.9" transform="rotate(-90 341.676971 160.000000)" />
<polygon points="358.582,110 406.238,110 387.401,150 341.677,150 " fill="#3B6EA0" stroke="#3B6EA0" stroke-width="0.3" stroke-opacity="0.18" fill-opacity="0.18" />
<defs id="" >
<linearGradient id="grad284.844147110.000000" x1="0%" y1="0%" x2="100%" y2="0%" >
<stop offset="0%" stop-color="#3BA068" stop-opacity="1" />
<stop offset="50%" stop-color="#BADDCA" stop-opacity="1" />
<stop offset="100%" stop-color="#3BA068" stop-opacity="1" />
</linearGradient>
</defs>
<rect x="284.844" y="110" width="10" height="61.6628" rx="1" ry="1" fill="url(#grad284.844147110.000000)" fill-opacity="0.9" stroke-width="0.75" stroke-opacity="0.9" transform="rotate(-90 284.844147 110.000000)" />
<defs id="" >
<linearGradient id="grad284.844147110.000000NRC" x1="0%" y1="0%" x2="100%" y2="0%" >
<stop offset="100%" stop-color="#00BFC4" stop-opacity="1" />
</linearGradient>
</defs>
<rect x="316.844" y="110" width="3.33333" height="61.6628" rx="1" ry="0.5" fill="url(#grad284.844147110.000000NRC)" fill-opacity="0.9" stroke="url(#grad284.844147110.000000NRC)" stroke-width="1.125" stroke-opacity="0.9" transform="rotate(-90 284.844147 110.000000)" />
<defs id="" >
<linearGradient id="grad284.844147110.000000NRCRedun" x1="0%" y1="0%" x2="100%" y2="0%" >
<stop offset="100%" stop-color="#F8766D" stop-opacity="1" />
</linearGradient>
</defs>
<rect x="326.177" y="110" width="3.33333" height="61.6628" rx="1" ry="0.5" fill="url(#grad284.844147110.000000NRCRedun)" fill-opacity="0.9" stroke="url(#grad284.844147110.000000NRCRedun)" stroke-width="1.125" stroke-opacity="0.9" transform="rotate(-90 284.844147 110.000000)" />
<defs id="" >
<linearGradient id="grad241.857285160.000000" x1="0%" y1="0%" x2="100%" y2="0%" >
<stop offset="0%" stop-color="#3BA068" stop-opacity="1" />
<stop offset="50%" stop-color="#BADDCA" stop-opacity="1" />
<stop offset="100%" stop-color="#3BA068" stop-opacity="1" />
</linearGradient>
</defs>
<rect x="241.857" y="160" width="10" height="51.8418" rx="1" ry="1" fill="url(#grad241.857285160.000000)" fill-opacity="0.9" stroke="url(#grad241.857285160.000000)" stroke-width="0.75" stroke-opacity="0.9" transform="rotate(-90 241.857285 160.000000)" />
<defs id="" >
<linearGradient id="grad241.857285160.000000NRC" x1="0%" y1="0%" x2="100%" y2="0%" >
<stop offset="100%" stop-color="#00BFC4" stop-opacity="1" />
</linearGradient>
</defs>
<rect x="216.524" y="160" width="3.33333" height="51.8418" rx="1" ry="0.5" fill="url(#grad241.857285160.000000NRC)" fill-opacity="0.9" stroke="url(#grad241.857285160.000000NRC)" stroke-width="1.125" stroke-opacity="0.9" transform="rotate(-90 241.857285 160.000000)" />
<defs id="" >
<linearGradient id="grad241.857285160.000000NRCRedun" x1="0%" y1="0%" x2="100%" y2="0%" >
<stop offset="100%" stop-color="#F8766D" stop-opacity="1" />
</linearGradient>
</defs>
<rect x="207.191" y="160" width="3.33333" height="51.8418" rx="1" ry="0.5" fill="url(#grad241.857285160.000000NRCRedun)" fill-opacity="0.9" stroke="url(#grad241.857285160.000000NRCRedun)" stroke-width="1.125" stroke-opacity="0.9" transform="rotate(-90 241.857285 160.000000)" />
<polygon points="284.844,110 346.507,110 293.699,150 241.857,150 " fill="#3BA068" stroke="#3BA068" stroke-width="0.3" stroke-opacity="0.18" fill-opacity="0.18" />
<defs id="" >
<linearGradient id="grad113.540703110.000000" x1="0%" y1="0%" x2="100%" y2="0%" >
<stop offset="0%" stop-color="#A03B65" stop-opacity="1" />
<stop offset="50%" stop-color="#DDBAC9" stop-opacity="1" />
<stop offset="100%" stop-color="#A03B65" stop-opacity="1" />
</linearGradient>
</defs>
<rect x="113.541" y="110" width="10" height="14.973" rx="1" ry="1" fill="url(#grad113.540703110.000000)" fill-opacity="0.9" stroke-width="0.75" stroke-opacity="0.9" transform="rotate(-90 113.540703 110.000000)" />
<defs id="" >
<linearGradient id="grad113.540703110.000000NRC" x1="0%" y1="0%" x2="100%" y2="0%" >
<stop offset="100%" stop-color="#00B0F6" stop-opacity="1" />
</linearGradient>
</defs>
<rect x="145.541" y="110" width="3.33333" height="14.973" rx="1" ry="0.5" fill="url(#grad113.540703110.000000NRC)" fill-opacity="0.9" stroke="url(#grad113.540703110.000000NRC)" stroke-width="1.125" stroke-opacity="0.9" transform="rotate(-90 113.540703 110.000000)" />
<defs id="" >
<linearGradient id="grad113.540703110.000000NRCRedun" x1="0%" y1="0%" x2="100%" y2="0%" >
<stop offset="100%" stop-color="#F8766D" stop-opacity="1" />
</linearGradient>
</defs>
<rect x="154.874" y="110" width="3.33333" height="14.973" rx="1" ry="0.5" fill="url(#grad113.540703110.000000NRCRedun)" fill-opacity="0.9" stroke="url(#grad113.540703110.000000NRCRedun)" stroke-width="1.125" stroke-opacity="0.9" transform="rotate(-90 113.540703 110.000000)" />
<defs id="" >
<linearGradient id="grad465.163574160.000000" x1="0%" y1="0%" x2="100%" y2="0%" >
<stop offset="0%" stop-color="#A03B65" stop-opacity="1" />
<stop offset="50%" stop-color="#DDBAC9" stop-opacity="1" />
<stop offset="100%" stop-color="#A03B65" stop-opacity="1" />
</linearGradient>
</defs>
<rect x="465.164" y="160" width="10" height="9.82097" rx="1" ry="1" fill="url(#grad465.163574160.000000)" fill-opacity="0.9" stroke="url(#grad465.163574160.000000)" stroke-width="0.75" stroke-opacity="0.9" transform="rotate(-90 465.163574 160.000000)" />
<defs id="" >
<linearGradient id="grad465.163574160.000000NRC" x1="0%" y1="0%" x2="100%" y2="0%" >
<stop offset="100%" stop-color="#00B0F6" stop-opacity="1" />
</linearGradient>
</defs>
<rect x="439.83" y="160" width="3.33333" height="9.82097" rx="1" ry="0.5" fill="url(#grad465.163574160.000000NRC)" fill-opacity="0.9" stroke="url(#grad465.163574160.000000NRC)" stroke-width="1.125" stroke-opacity="0.9" transform="rotate(-90 465.163574 160.000000)" />
<defs id="" >
<linearGradient id="grad465.163574160.000000NRCRedun" x1="0%" y1="0%" x2="100%" y2="0%" >
<stop offset="100%" stop-color="#F8766D" stop-opacity="1" />
</linearGradient>
</defs>
<rect x="430.497" y="160" width="3.33333" height="9.82097" rx="1" ry="0.5" fill="url(#grad465.163574160.000000NRCRedun)" fill-opacity="0.9" stroke="url(#grad465.163574160.000000NRCRedun)" stroke-width="1.125" stroke-opacity="0.9" transform="rotate(-90 465.163574 160.000000)" />
<polygon points="113.541,110 128.514,110 474.985,150 465.164,150 " fill="#A03B65" stroke="#A03B65" stroke-width="0.3" stroke-opacity="0.18" fill-opacity="0.18" />
<defs id="" >
<linearGradient id="grad112.574707110.000000" x1="0%" y1="0%" x2="100%" y2="0%" >
<stop offset="0%" stop-color="#78A03B" stop-opacity="1" />
<stop offset="50%" stop-color="#CFDDBA" stop-opacity="1" />
<stop offset="100%" stop-color="#78A03B" stop-opacity="1" />
</linearGradient>
</defs>
<rect x="112.575" y="110" width="10" height="106.743" rx="1" ry="1" fill="url(#grad112.574707110.000000)" fill-opacity="0.9" stroke-width="0.75" stroke-opacity="0.9" transform="rotate(-90 112.574707 110.000000)" />
<defs id="" >
<linearGradient id="grad112.574707110.000000NRC" x1="0%" y1="0%" x2="100%" y2="0%" >
<stop offset="100%" stop-color="#00BFC4" stop-opacity="1" />
</linearGradient>
</defs>
<rect x="144.575" y="110" width="3.33333" height="106.743" rx="1" ry="0.5" fill="url(#grad112.574707110.000000NRC)" fill-opacity="0.9" stroke="url(#grad112.574707110.000000NRC)" stroke-width="1.125" stroke-opacity="0.9" transform="rotate(-90 112.574707 110.000000)" />
<defs id="" >
<linearGradient id="grad112.574707110.000000NRCRedun" x1="0%" y1="0%" x2="100%" y2="0%" >
<stop offset="100%" stop-color="#F8766D" stop-opacity="1" />
</linearGradient>
</defs>
<rect x="153.908" y="110" width="3.33333" height="106.743" rx="1" ry="0.5" fill="url(#grad112.574707110.000000NRCRedun)" fill-opacity="0.9" stroke="url(#grad112.574707110.000000NRCRedun)" stroke-width="1.125" stroke-opacity="0.9" transform="rotate(-90 112.574707 110.000000)" />
<defs id="" >
<linearGradient id="grad115.472694160.000000" x1="0%" y1="0%" x2="100%" y2="0%" >
<stop offset="0%" stop-color="#78A03B" stop-opacity="1" />
<stop offset="50%" stop-color="#CFDDBA" stop-opacity="1" />
<stop offset="100%" stop-color="#78A03B" stop-opacity="1" />
</linearGradient>
</defs>
<rect x="115.473" y="160" width="10" height="95.6337" rx="1" ry="1" fill="url(#grad115.472694160.000000)" fill-opacity="0.9" stroke="url(#grad115.472694160.000000)" stroke-width="0.75" stroke-opacity="0.9" transform="rotate(-90 115.472694 160.000000)" />
<defs id="" >
<linearGradient id="grad115.472694160.000000NRC" x1="0%" y1="0%" x2="100%" y2="0%" >
<stop offset="100%" stop-color="#00B0F6" stop-opacity="1" />
</linearGradient>
</defs>
<rect x="90.1394" y="160" width="3.33333" height="95.6337" rx="1" ry="0.5" fill="url(#grad115.472694160.000000NRC)" fill-opacity="0.9" stroke="url(#grad115.472694160.000000NRC)" stroke-width="1.125" stroke-opacity="0.9" transform="rotate(-90 115.472694 160.000000)" />
<defs id="" >
<linearGradient id="grad115.472694160.000000NRCRedun" x1="0%" y1="0%" x2="100%" y2="0%" >
<stop offset="100%" stop-color="#F8766D" stop-opacity="1" />
</linearGradient>
</defs>
<rect x="80.806" y="160" width="3.33333" height="95.6337" rx="1" ry="0.5" fill="url(#grad115.472694160.000000NRCRedun)" fill-opacity="0.9" stroke="url(#grad115.472694160.000000NRCRedun)" stroke-width="1.125" stroke-opacity="0.9" transform="rotate(-90 115.472694 160.000000)" />
<polygon points="112.575,110 219.317,110 211.106,150 115.473,150 " fill="#78A03B" stroke="#78A03B" stroke-width="0.3" stroke-opacity="0.18" fill-opacity="0.18" />
<defs id="" >
<linearGradient id="grad26.439980110.000000" x1="0%" y1="0%" x2="100%" y2="0%" >
<stop offset="0%" stop-color="#56A03B" stop-opacity="1" />
<stop offset="50%" stop-color="#C3DDBA" stop-opacity="1" />
<stop offset="100%" stop-color="#56A03B" stop-opacity="1" />
</linearGradient>
</defs>
<rect x="26.44" y="110" width="10" height="105.455" rx="1" ry="1" fill="url(#grad26.439980110.000000)" fill-opacity="0.9" stroke-width="0.75" stroke-opacity="0.9" transform="rotate(-90 26.439980 110.000000)" />
<defs id="" >
<linearGradient id="grad26.439980110.000000NRC" x1="0%" y1="0%" x2="100%" y2="0%" >
<stop offset="100%" stop-color="#00BFC4" stop-opacity="1" />
</linearGradient>
</defs>
<rect x="58.44" y="110" width="3.33333" height="105.455" rx="1" ry="0.5" fill="url(#grad26.439980110.000000NRC)" fill-opacity="0.9" stroke="url(#grad26.439980110.000000NRC)" stroke-width="1.125" stroke-opacity="0.9" transform="rotate(-90 26.439980 110.000000)" />
<defs id="" >
<linearGradient id="grad26.439980110.000000NRCRedun" x1="0%" y1="0%" x2="100%" y2="0%" >
<stop offset="100%" stop-color="#F8766D" stop-opacity="1" />
</linearGradient>
</defs>
<rect x="67.7733" y="110" width="3.33333" height="105.455" rx="1" ry="0.5" fill="url(#grad26.439980110.000000NRCRedun)" fill-opacity="0.9" stroke="url(#grad26.439980110.000000NRCRedun)" stroke-width="1.125" stroke-opacity="0.9" transform="rotate(-90 26.439980 110.000000)" />
<defs id="" >
<linearGradient id="grad20.804996160.000000" x1="0%" y1="0%" x2="100%" y2="0%" >
<stop offset="0%" stop-color="#56A03B" stop-opacity="1" />
<stop offset="50%" stop-color="#C3DDBA" stop-opacity="1" />
<stop offset="100%" stop-color="#56A03B" stop-opacity="1" />
</linearGradient>
</defs>
<rect x="20.805" y="160" width="10" height="100.947" rx="1" ry="1" fill="url(#grad20.804996160.000000)" fill-opacity="0.9" stroke="url(#grad20.804996160.000000)" stroke-width="0.75" stroke-opacity="0.9" transform="rotate(-90 20.804996 160.000000)" />
<defs id="" >
<pattern id="Wavy20.804996160.000000" x="20.805" y="160" width="10" height="7" patternUnits="userSpaceOnUse" >
<path id="" d="m -0.665,6.335
l 5.665,-5.67
l 5.665,5.67
" fill="none" fill-opacity="0.9" stroke="#396B27" stroke-opacity="1" stroke-linejoin="round" stroke-width="1.33" />
</pattern>
</defs>
<rect x="20.805" y="160" width="10" height="100.947" rx="1" ry="1" fill="url(#Wavy20.804996160.000000)" fill-opacity="0.9" stroke="url(#grad20.804996160.000000)" stroke-width="0.75" stroke-opacity="0.9" transform="rotate(-90 20.804996 160.000000)" />
<defs id="" >
<linearGradient id="grad20.804996160.000000NRC" x1="0%" y1="0%" x2="100%" y2="0%" >
<stop offset="100%" stop-color="#00B0F6" stop-opacity="1" />
</linearGradient>
</defs>
<rect x="-4.52834" y="160" width="3.33333" height="100.947" rx="1" ry="0.5" fill="url(#grad20.804996160.000000NRC)" fill-opacity="0.9" stroke="url(#grad20.804996160.000000NRC)" stroke-width="1.125" stroke-opacity="0.9" transform="rotate(-90 20.804996 160.000000)" />
<defs id="" >
<linearGradient id="grad20.804996160.000000NRCRedun" x1="0%" y1="0%" x2="100%" y2="0%" >
<stop offset="100%" stop-color="#F8766D" stop-opacity="1" />
</linearGradient>
</defs>
<rect x="-13.8617" y="160" width="3.33333" height="100.947" rx="1" ry="0.5" fill="url(#grad20.804996160.000000NRCRedun)" fill-opacity="0.9" stroke="url(#grad20.804996160.000000NRCRedun)" stroke-width="1.125" stroke-opacity="0.9" transform="rotate(-90 20.804996 160.000000)" />
<polygon points="26.44,110 131.895,110 20.805,150 121.752,150 " fill="#56A03B" stroke="#56A03B" stroke-width="0.3" stroke-opacity="0.18" fill-opacity="0.18" />
<path id="rhs20.000000100.000000" d="M 20,604.5
a 5,5 0 0,0 10,0
v 5
h -10
v -5
z
" fill="white" fill-opacity="1" stroke="white" stroke-opacity="1" stroke-linejoin="round" stroke-width="1" transform="rotate(-90 20.000000 110.000000)" />
<path id="rhs20.000000100.000000" d="M 30,115
a 5,5 0 0,0 -10,0
v -5
h 10
v 5
z
" fill="white" fill-opacity="1" stroke="white" stroke-opacity="1" stroke-linejoin="round" stroke-width="1" transform="rotate(-90 20.000000 110.000000)" />
<path id="20.000000110.000000" d="M 20,115
v 489.5
a 5,5 0 0,0 10,0
v -489.5
a 5,5 0 0,0 -10,0
z
" fill="none" fill-opacity="0.9" stroke="black" stroke-opacity="1" stroke-linejoin="round" stroke-width="1" transform="rotate(-90 20.000000 110.000000)" />
<path id="rhs20.000000100.000000" d="M 20,648.807
a 5,5 0 0,0 10,0
v 5
h -10
v -5
z
" fill="white" fill-opacity="1" stroke="white" stroke-opacity="1" stroke-linejoin="round" stroke-width="1" transform="rotate(-90 20.000000 160.000000)" />
<path id="rhs20.000000100.000000" d="M 30,165
a 5,5 0 0,0 -10,0
v -5
h 10
v 5
z
" fill="white" fill-opacity="1" stroke="white" stroke-opacity="1" stroke-linejoin="round" stroke-width="1" transform="rotate(-90 20.000000 160.000000)" />
<path id="20.000000160.000000" d="M 20,165
v 483.807
a 5,5 0 0,0 10,0
v -483.807
a 5,5 0 0,0 -10,0
z
" fill="none" fill-opacity="0.9" stroke="black" stroke-opacity="1" stroke-linejoin="round" stroke-width="1" transform="rotate(-90 20.000000 160.000000)" />
<text id="20.00000090.300003" x="20" y="90.3" dominant-baseline="" baseline-shift="" alignment-baseline="" font-size="9px" font-weight="bold" font-family="Helvetica,Arial" font-variant="normal" text-anchor="start" text-align="start" line-height="125%%" >
7.seq</text>
<text id="20.000000176.000000" x="20" y="176" dominant-baseline="" baseline-shift="" alignment-baseline="" font-size="9px" font-weight="bold" font-family="Helvetica,Arial" font-variant="normal" text-anchor="start" text-align="start" line-height="125%%" >
7.seq</text>
<defs id="" >
<linearGradient id="grad560.00000078.000000" x1="0%" y1="100%" x2="0%" y2="0%" >
<stop offset="0%" stop-color="#F8766D" stop-opacity="1" />
<stop offset="14%" stop-color="#D89000" stop-opacity="1" />
<stop offset="28%" stop-color="#A3A500" stop-opacity="1" />
<stop offset="42%" stop-color="#39B600" stop-opacity="1" />
<stop offset="57%" stop-color="#00BF7D" stop-opacity="1" />
<stop offset="71%" stop-color="#00BFC4" stop-opacity="1" />
<stop offset="85%" stop-color="#00B0F6" stop-opacity="1" />
<stop offset="100%" stop-color="#9590FF" stop-opacity="1" />
</linearGradient>
</defs>
<rect x="560" y="78" width="15" height="104" rx="2" ry="2" fill="url(#grad560.00000078.000000)" fill-opacity="0.9" stroke="black" stroke-width="0.5" stroke-opacity="1" />
<text id="547.200012130.000000" x="547.2" y="130" dominant-baseline="" baseline-shift="" alignment-baseline="" transform="rotate(90 547.200012 130.000000)" font-size="8px" font-family="Helvetica,Arial" font-variant="normal" text-anchor="middle" text-align="start" line-height="125%%" >
Relative Redundancy</text>
<text id="582.200012130.000000" x="582.2" y="130" dominant-baseline="" baseline-shift="" alignment-baseline="" transform="rotate(90 582.200012 130.000000)" font-size="8px" font-family="Helvetica,Arial" font-variant="normal" text-anchor="middle" text-align="start" line-height="125%%" >
Redundancy</text>
<text id="567.500000188.000000" x="567.5" y="188" dy="2.45" dominant-baseline="" baseline-shift="" alignment-baseline="" font-size="7px" font-family="Helvetica,Arial" font-variant="normal" text-anchor="middle" text-align="start" line-height="125%%" >
0.0</text>
<text id="567.50000072.000000" x="567.5" y="72" dy="2.45" dominant-baseline="" baseline-shift="" alignment-baseline="" font-size="7px" font-family="Helvetica,Arial" font-variant="normal" text-anchor="middle" text-align="start" line-height="125%%" >
2.0</text>
<text id="567.500000156.000000" x="567.5" y="156" dy="2.45" dominant-baseline="" baseline-shift="" alignment-baseline="" font-size="7px" font-family="Helvetica,Arial" font-variant="normal" text-anchor="middle" text-align="start" line-height="125%%" >
0.5</text>
<text id="567.500000130.000000" x="567.5" y="130" dy="2.45" dominant-baseline="" baseline-shift="" alignment-baseline="" font-size="7px" font-family="Helvetica,Arial" font-variant="normal" text-anchor="middle" text-align="start" line-height="125%%" >
1.0</text>
<text id="567.500000104.000000" x="567.5" y="104" dy="2.45" dominant-baseline="" baseline-shift="" alignment-baseline="" font-size="7px" font-family="Helvetica,Arial" font-variant="normal" text-anchor="middle" text-align="start" line-height="125%%" >
1.5</text>
<path id="" d="M 512.958,76.3333
H 550
V 83
" fill="none" fill-opacity="0.9" stroke="black" stroke-opacity="1" stroke-linejoin="round" stroke-dasharray="8 4" stroke-width="0.5" />
<path id="" d="M 506.852,183.667
H 550
V 177
" fill="none" fill-opacity="0.9" stroke="black" stroke-opacity="1" stroke-linejoin="round" stroke-dasharray="8 4" stroke-width="0.5" />
<path id="" d="M 512.958,67
H 585
V 100
" fill="none" fill-opacity="0.9" stroke="black" stroke-opacity="1" stroke-linejoin="round" stroke-dasharray="8 4" stroke-width="0.5" />
<path id="" d="M 506.852,193
H 585
V 160
" fill="none" fill-opacity="0.9" stroke="black" stroke-opacity="1" stroke-linejoin="round" stroke-dasharray="8 4" stroke-width="0.5" />
</svg>