<?xml version="1.0" encoding="UTF-8" standalone="no"?>
<!-- Morteza Hosseini, IEETA 2018-2019 -->
<svg xmlns="http://www.w3.org/2000/svg" xmlns:xlink="http://www.w3.org/1999/xlink" viewBox="0 0 605.000549 260.000000" >
<rect x="0" y="0" width="605.001" height="260" rx="1" ry="1" fill="white" fill-opacity="0.9" stroke="white" stroke-width="0" stroke-opacity="1" />
<text id="18.50000039.333328" x="18.5" y="39.3333" dominant-baseline="" baseline-shift="" alignment-baseline="" font-size="7px" font-family="Helvetica,Arial" font-variant="normal" text-anchor="start" text-align="start" line-height="125%%" >
0 b</text>
<line id="20.37500046.33332820.37500052.333328" x1="20.375" y1="46.3333" x2="20.375" y2="52.3333" stroke-width="0.75" stroke="black" />
<line id="33.55223148.33332833.55223152.333328" x1="33.5522" y1="48.3333" x2="33.5522" y2="52.3333" stroke-width="0.5" stroke="black" />
<line id="47.10445848.33332847.10445852.333328" x1="47.1045" y1="48.3333" x2="47.1045" y2="52.3333" stroke-width="0.5" stroke="black" />
<line id="60.65668948.33332860.65668952.333328" x1="60.6567" y1="48.3333" x2="60.6567" y2="52.3333" stroke-width="0.5" stroke="black" />
<line id="74.20891646.33332874.20891652.333328" x1="74.2089" y1="46.3333" x2="74.2089" y2="52.3333" stroke-width="0.75" stroke="black" />
<text id="74.20891639.333328" x="74.2089" y="39.3333" dominant-baseline="" baseline-shift="" alignment-baseline="" font-size="7px" font-weight="normal" font-family="Helvetica,Arial" font-variant="normal" text-anchor="middle" text-align="start" line-height="125%%" >
4 Mb</text>
<line id="87.76114748.33332887.76114752.333328" x1="87.7611" y1="48.3333" x2="87.7611" y2="52.3333" stroke-width="0.5" stroke="black" />
<line id="101.31337748.333328101.31337752.333328" x1="101.313" y1="48.3333" x2="101.313" y2="52.3333" stroke-width="0.5" stroke="black" />
<line id="114.86560148.333328114.86560152.333328" x1="114.866" y1="48.3333" x2="114.866" y2="52.3333" stroke-width="0.5" stroke="black" />
<line id="128.41783146.333328128.41783152.333328" x1="128.418" y1="46.3333" x2="128.418" y2="52.3333" stroke-width="0.75" stroke="black" />
<text id="128.41783139.333328" x="128.418" y="39.3333" dominant-baseline="" baseline-shift="" alignment-baseline="" font-size="7px" font-weight="normal" font-family="Helvetica,Arial" font-variant="normal" text-anchor="middle" text-align="start" line-height="125%%" >
8 Mb</text>
<line id="141.97006248.333328141.97006252.333328" x1="141.97" y1="48.3333" x2="141.97" y2="52.3333" stroke-width="0.5" stroke="black" />
<line id="155.52229348.333328155.52229352.333328" x1="155.522" y1="48.3333" x2="155.522" y2="52.3333" stroke-width="0.5" stroke="black" />
<line id="169.07452448.333328169.07452452.333328" x1="169.075" y1="48.3333" x2="169.075" y2="52.3333" stroke-width="0.5" stroke="black" />
<line id="182.62675546.333328182.62675552.333328" x1="182.627" y1="46.3333" x2="182.627" y2="52.3333" stroke-width="0.75" stroke="black" />
<text id="182.62675539.333328" x="182.627" y="39.3333" dominant-baseline="" baseline-shift="" alignment-baseline="" font-size="7px" font-weight="normal" font-family="Helvetica,Arial" font-variant="normal" text-anchor="middle" text-align="start" line-height="125%%" >
12 Mb</text>
<line id="196.17897048.333328196.17897052.333328" x1="196.179" y1="48.3333" x2="196.179" y2="52.3333" stroke-width="0.5" stroke="black" />
<line id="209.73120148.333328209.73120152.333328" x1="209.731" y1="48.3333" x2="209.731" y2="52.3333" stroke-width="0.5" stroke="black" />
<line id="223.28343248.333328223.28343252.333328" x1="223.283" y1="48.3333" x2="223.283" y2="52.3333" stroke-width="0.5" stroke="black" />
<line id="236.83566346.333328236.83566352.333328" x1="236.836" y1="46.3333" x2="236.836" y2="52.3333" stroke-width="0.75" stroke="black" />
<text id="236.83566339.333328" x="236.836" y="39.3333" dominant-baseline="" baseline-shift="" alignment-baseline="" font-size="7px" font-weight="normal" font-family="Helvetica,Arial" font-variant="normal" text-anchor="middle" text-align="start" line-height="125%%" >
16 Mb</text>
<line id="250.38789448.333328250.38789452.333328" x1="250.388" y1="48.3333" x2="250.388" y2="52.3333" stroke-width="0.5" stroke="black" />
<line id="263.94012548.333328263.94012552.333328" x1="263.94" y1="48.3333" x2="263.94" y2="52.3333" stroke-width="0.5" stroke="black" />
<line id="277.49234048.333328277.49234052.333328" x1="277.492" y1="48.3333" x2="277.492" y2="52.3333" stroke-width="0.5" stroke="black" />
<line id="291.04458646.333328291.04458652.333328" x1="291.045" y1="46.3333" x2="291.045" y2="52.3333" stroke-width="0.75" stroke="black" />
<text id="291.04458639.333328" x="291.045" y="39.3333" dominant-baseline="" baseline-shift="" alignment-baseline="" font-size="7px" font-weight="normal" font-family="Helvetica,Arial" font-variant="normal" text-anchor="middle" text-align="start" line-height="125%%" >
20 Mb</text>
<line id="304.59680248.333328304.59680252.333328" x1="304.597" y1="48.3333" x2="304.597" y2="52.3333" stroke-width="0.5" stroke="black" />
<line id="318.14904848.333328318.14904852.333328" x1="318.149" y1="48.3333" x2="318.149" y2="52.3333" stroke-width="0.5" stroke="black" />
<line id="331.70126348.333328331.70126352.333328" x1="331.701" y1="48.3333" x2="331.701" y2="52.3333" stroke-width="0.5" stroke="black" />
<line id="345.25351046.333328345.25351052.333328" x1="345.254" y1="46.3333" x2="345.254" y2="52.3333" stroke-width="0.75" stroke="black" />
<text id="345.25351039.333328" x="345.254" y="39.3333" dominant-baseline="" baseline-shift="" alignment-baseline="" font-size="7px" font-weight="normal" font-family="Helvetica,Arial" font-variant="normal" text-anchor="middle" text-align="start" line-height="125%%" >
24 Mb</text>
<line id="358.80572548.333328358.80572552.333328" x1="358.806" y1="48.3333" x2="358.806" y2="52.3333" stroke-width="0.5" stroke="black" />
<line id="372.35794148.333328372.35794152.333328" x1="372.358" y1="48.3333" x2="372.358" y2="52.3333" stroke-width="0.5" stroke="black" />
<line id="385.91018748.333328385.91018752.333328" x1="385.91" y1="48.3333" x2="385.91" y2="52.3333" stroke-width="0.5" stroke="black" />
<line id="399.46240246.333328399.46240252.333328" x1="399.462" y1="46.3333" x2="399.462" y2="52.3333" stroke-width="0.75" stroke="black" />
<text id="399.46240239.333328" x="399.462" y="39.3333" dominant-baseline="" baseline-shift="" alignment-baseline="" font-size="7px" font-weight="normal" font-family="Helvetica,Arial" font-variant="normal" text-anchor="middle" text-align="start" line-height="125%%" >
28 Mb</text>
<line id="413.01464848.333328413.01464852.333328" x1="413.015" y1="48.3333" x2="413.015" y2="52.3333" stroke-width="0.5" stroke="black" />
<line id="426.56686448.333328426.56686452.333328" x1="426.567" y1="48.3333" x2="426.567" y2="52.3333" stroke-width="0.5" stroke="black" />
<line id="440.11911048.333328440.11911052.333328" x1="440.119" y1="48.3333" x2="440.119" y2="52.3333" stroke-width="0.5" stroke="black" />
<line id="453.67132646.333328453.67132652.333328" x1="453.671" y1="46.3333" x2="453.671" y2="52.3333" stroke-width="0.75" stroke="black" />
<text id="453.67132639.333328" x="453.671" y="39.3333" dominant-baseline="" baseline-shift="" alignment-baseline="" font-size="7px" font-weight="normal" font-family="Helvetica,Arial" font-variant="normal" text-anchor="middle" text-align="start" line-height="125%%" >
32 Mb</text>
<line id="467.22354148.333328467.22354152.333328" x1="467.224" y1="48.3333" x2="467.224" y2="52.3333" stroke-width="0.5" stroke="black" />
<line id="480.77578748.333328480.77578752.333328" x1="480.776" y1="48.3333" x2="480.776" y2="52.3333" stroke-width="0.5" stroke="black" />
<line id="494.32800348.333328494.32800352.333328" x1="494.328" y1="48.3333" x2="494.328" y2="52.3333" stroke-width="0.5" stroke="black" />
<line id="507.88024946.333328507.88024952.333328" x1="507.88" y1="46.3333" x2="507.88" y2="52.3333" stroke-width="0.75" stroke="black" />
<text id="507.88024939.333328" x="507.88" y="39.3333" dominant-baseline="" baseline-shift="" alignment-baseline="" font-size="7px" font-weight="normal" font-family="Helvetica,Arial" font-variant="normal" text-anchor="middle" text-align="start" line-height="125%%" >
36 Mb</text>
<text id="18.500000225.566666" x="18.5" y="225.567" dominant-baseline="" baseline-shift="" alignment-baseline="" font-size="7px" font-family="Helvetica,Arial" font-variant="normal" text-anchor="start" text-align="start" line-height="125%%" >
0 b</text>
<line id="20.375000213.66667220.375000207.666672" x1="20.375" y1="213.667" x2="20.375" y2="207.667" stroke-width="0.75" stroke="black" />
<line id="33.552231211.66667233.552231207.666672" x1="33.5522" y1="211.667" x2="33.5522" y2="207.667" stroke-width="0.5" stroke="black" />
<line id="47.104458211.66667247.104458207.666672" x1="47.1045" y1="211.667" x2="47.1045" y2="207.667" stroke-width="0.5" stroke="black" />
<line id="60.656689211.66667260.656689207.666672" x1="60.6567" y1="211.667" x2="60.6567" y2="207.667" stroke-width="0.5" stroke="black" />
<line id="74.208916213.66667274.208916207.666672" x1="74.2089" y1="213.667" x2="74.2089" y2="207.667" stroke-width="0.75" stroke="black" />
<text id="74.208916225.566666" x="74.2089" y="225.567" dominant-baseline="" baseline-shift="" alignment-baseline="" font-size="7px" font-weight="normal" font-family="Helvetica,Arial" font-variant="normal" text-anchor="middle" text-align="start" line-height="125%%" >
4 Mb</text>
<line id="87.761147211.66667287.761147207.666672" x1="87.7611" y1="211.667" x2="87.7611" y2="207.667" stroke-width="0.5" stroke="black" />
<line id="101.313377211.666672101.313377207.666672" x1="101.313" y1="211.667" x2="101.313" y2="207.667" stroke-width="0.5" stroke="black" />
<line id="114.865601211.666672114.865601207.666672" x1="114.866" y1="211.667" x2="114.866" y2="207.667" stroke-width="0.5" stroke="black" />
<line id="128.417831213.666672128.417831207.666672" x1="128.418" y1="213.667" x2="128.418" y2="207.667" stroke-width="0.75" stroke="black" />
<text id="128.417831225.566666" x="128.418" y="225.567" dominant-baseline="" baseline-shift="" alignment-baseline="" font-size="7px" font-weight="normal" font-family="Helvetica,Arial" font-variant="normal" text-anchor="middle" text-align="start" line-height="125%%" >
8 Mb</text>
<line id="141.970062211.666672141.970062207.666672" x1="141.97" y1="211.667" x2="141.97" y2="207.667" stroke-width="0.5" stroke="black" />
<line id="155.522293211.666672155.522293207.666672" x1="155.522" y1="211.667" x2="155.522" y2="207.667" stroke-width="0.5" stroke="black" />
<line id="169.074524211.666672169.074524207.666672" x1="169.075" y1="211.667" x2="169.075" y2="207.667" stroke-width="0.5" stroke="black" />
<line id="182.626755213.666672182.626755207.666672" x1="182.627" y1="213.667" x2="182.627" y2="207.667" stroke-width="0.75" stroke="black" />
<text id="182.626755225.566666" x="182.627" y="225.567" dominant-baseline="" baseline-shift="" alignment-baseline="" font-size="7px" font-weight="normal" font-family="Helvetica,Arial" font-variant="normal" text-anchor="middle" text-align="start" line-height="125%%" >
12 Mb</text>
<line id="196.178970211.666672196.178970207.666672" x1="196.179" y1="211.667" x2="196.179" y2="207.667" stroke-width="0.5" stroke="black" />
<line id="209.731201211.666672209.731201207.666672" x1="209.731" y1="211.667" x2="209.731" y2="207.667" stroke-width="0.5" stroke="black" />
<line id="223.283432211.666672223.283432207.666672" x1="223.283" y1="211.667" x2="223.283" y2="207.667" stroke-width="0.5" stroke="black" />
<line id="236.835663213.666672236.835663207.666672" x1="236.836" y1="213.667" x2="236.836" y2="207.667" stroke-width="0.75" stroke="black" />
<text id="236.835663225.566666" x="236.836" y="225.567" dominant-baseline="" baseline-shift="" alignment-baseline="" font-size="7px" font-weight="normal" font-family="Helvetica,Arial" font-variant="normal" text-anchor="middle" text-align="start" line-height="125%%" >
16 Mb</text>
<line id="250.387894211.666672250.387894207.666672" x1="250.388" y1="211.667" x2="250.388" y2="207.667" stroke-width="0.5" stroke="black" />
<line id="263.940125211.666672263.940125207.666672" x1="263.94" y1="211.667" x2="263.94" y2="207.667" stroke-width="0.5" stroke="black" />
<line id="277.492340211.666672277.492340207.666672" x1="277.492" y1="211.667" x2="277.492" y2="207.667" stroke-width="0.5" stroke="black" />
<line id="291.044586213.666672291.044586207.666672" x1="291.045" y1="213.667" x2="291.045" y2="207.667" stroke-width="0.75" stroke="black" />
<text id="291.044586225.566666" x="291.045" y="225.567" dominant-baseline="" baseline-shift="" alignment-baseline="" font-size="7px" font-weight="normal" font-family="Helvetica,Arial" font-variant="normal" text-anchor="middle" text-align="start" line-height="125%%" >
20 Mb</text>
<line id="304.596802211.666672304.596802207.666672" x1="304.597" y1="211.667" x2="304.597" y2="207.667" stroke-width="0.5" stroke="black" />
<line id="318.149048211.666672318.149048207.666672" x1="318.149" y1="211.667" x2="318.149" y2="207.667" stroke-width="0.5" stroke="black" />
<line id="331.701263211.666672331.701263207.666672" x1="331.701" y1="211.667" x2="331.701" y2="207.667" stroke-width="0.5" stroke="black" />
<line id="345.253510213.666672345.253510207.666672" x1="345.254" y1="213.667" x2="345.254" y2="207.667" stroke-width="0.75" stroke="black" />
<text id="345.253510225.566666" x="345.254" y="225.567" dominant-baseline="" baseline-shift="" alignment-baseline="" font-size="7px" font-weight="normal" font-family="Helvetica,Arial" font-variant="normal" text-anchor="middle" text-align="start" line-height="125%%" >
24 Mb</text>
<line id="358.805725211.666672358.805725207.666672" x1="358.806" y1="211.667" x2="358.806" y2="207.667" stroke-width="0.5" stroke="black" />
<line id="372.357941211.666672372.357941207.666672" x1="372.358" y1="211.667" x2="372.358" y2="207.667" stroke-width="0.5" stroke="black" />
<line id="385.910187211.666672385.910187207.666672" x1="385.91" y1="211.667" x2="385.91" y2="207.667" stroke-width="0.5" stroke="black" />
<line id="399.462402213.666672399.462402207.666672" x1="399.462" y1="213.667" x2="399.462" y2="207.667" stroke-width="0.75" stroke="black" />
<text id="399.462402225.566666" x="399.462" y="225.567" dominant-baseline="" baseline-shift="" alignment-baseline="" font-size="7px" font-weight="normal" font-family="Helvetica,Arial" font-variant="normal" text-anchor="middle" text-align="start" line-height="125%%" >
28 Mb</text>
<line id="413.014648211.666672413.014648207.666672" x1="413.015" y1="211.667" x2="413.015" y2="207.667" stroke-width="0.5" stroke="black" />
<line id="426.566864211.666672426.566864207.666672" x1="426.567" y1="211.667" x2="426.567" y2="207.667" stroke-width="0.5" stroke="black" />
<line id="440.119110211.666672440.119110207.666672" x1="440.119" y1="211.667" x2="440.119" y2="207.667" stroke-width="0.5" stroke="black" />
<line id="453.671326213.666672453.671326207.666672" x1="453.671" y1="213.667" x2="453.671" y2="207.667" stroke-width="0.75" stroke="black" />
<text id="453.671326225.566666" x="453.671" y="225.567" dominant-baseline="" baseline-shift="" alignment-baseline="" font-size="7px" font-weight="normal" font-family="Helvetica,Arial" font-variant="normal" text-anchor="middle" text-align="start" line-height="125%%" >
32 Mb</text>
<line id="467.223541211.666672467.223541207.666672" x1="467.224" y1="211.667" x2="467.224" y2="207.667" stroke-width="0.5" stroke="black" />
<line id="480.775787211.666672480.775787207.666672" x1="480.776" y1="211.667" x2="480.776" y2="207.667" stroke-width="0.5" stroke="black" />
<line id="494.328003211.666672494.328003207.666672" x1="494.328" y1="211.667" x2="494.328" y2="207.667" stroke-width="0.5" stroke="black" />
<defs id="" >
<linearGradient id="grad464.160736110.000000" x1="0%" y1="0%" x2="100%" y2="0%" >
<stop offset="0%" stop-color="#67A03B" stop-opacity="1" />
<stop offset="50%" stop-color="#C9DDBA" stop-opacity="1" />
<stop offset="100%" stop-color="#67A03B" stop-opacity="1" />
</linearGradient>
</defs>
<rect x="464.161" y="110" width="10" height="23.0523" rx="1" ry="1" fill="url(#grad464.160736110.000000)" fill-opacity="0.9" stroke-width="0.75" stroke-opacity="0.9" transform="rotate(-90 464.160736 110.000000)" />
<defs id="" >
<linearGradient id="grad464.160736110.000000NRC" x1="0%" y1="0%" x2="100%" y2="0%" >
<stop offset="100%" stop-color="#00BF7D" stop-opacity="1" />
</linearGradient>
</defs>
<rect x="496.161" y="110" width="3.33333" height="23.0523" rx="1" ry="0.5" fill="url(#grad464.160736110.000000NRC)" fill-opacity="0.9" stroke="url(#grad464.160736110.000000NRC)" stroke-width="1.125" stroke-opacity="0.9" transform="rotate(-90 464.160736 110.000000)" />
<defs id="" >
<linearGradient id="grad464.160736110.000000NRCRedun" x1="0%" y1="0%" x2="100%" y2="0%" >
<stop offset="100%" stop-color="#F8766D" stop-opacity="1" />
</linearGradient>
</defs>
<rect x="505.494" y="110" width="3.33333" height="23.0523" rx="1" ry="0.5" fill="url(#grad464.160736110.000000NRCRedun)" fill-opacity="0.9" stroke="url(#grad464.160736110.000000NRCRedun)" stroke-width="1.125" stroke-opacity="0.9" transform="rotate(-90 464.160736 110.000000)" />
<defs id="" >
<linearGradient id="grad421.566101160.000000" x1="0%" y1="0%" x2="100%" y2="0%" >
<stop offset="0%" stop-color="#67A03B" stop-opacity="1" />
<stop offset="50%" stop-color="#C9DDBA" stop-opacity="1" />
<stop offset="100%" stop-color="#67A03B" stop-opacity="1" />
</linearGradient>
</defs>
<rect x="421.566" y="160" width="10" height="14.8939" rx="1" ry="1" fill="url(#grad421.566101160.000000)" fill-opacity="0.9" stroke="url(#grad421.566101160.000000)" stroke-width="0.75" stroke-opacity="0.9" transform="rotate(-90 421.566101 160.000000)" />
<defs id="" >
<linearGradient id="grad421.566101160.000000NRC" x1="0%" y1="0%" x2="100%" y2="0%" >
<stop offset="100%" stop-color="#00B0F6" stop-opacity="1" />
</linearGradient>
</defs>
<rect x="396.233" y="160" width="3.33333" height="14.8939" rx="1" ry="0.5" fill="url(#grad421.566101160.000000NRC)" fill-opacity="0.9" stroke="url(#grad421.566101160.000000NRC)" stroke-width="1.125" stroke-opacity="0.9" transform="rotate(-90 421.566101 160.000000)" />
<defs id="" >
<linearGradient id="grad421.566101160.000000NRCRedun" x1="0%" y1="0%" x2="100%" y2="0%" >
<stop offset="100%" stop-color="#F8766D" stop-opacity="1" />
</linearGradient>
</defs>
<rect x="386.899" y="160" width="3.33333" height="14.8939" rx="1" ry="0.5" fill="url(#grad421.566101160.000000NRCRedun)" fill-opacity="0.9" stroke="url(#grad421.566101160.000000NRCRedun)" stroke-width="1.125" stroke-opacity="0.9" transform="rotate(-90 421.566101 160.000000)" />
<polygon points="464.161,110 487.213,110 436.46,150 421.566,150 " fill="#67A03B" stroke="#67A03B" stroke-width="0.3" stroke-opacity="0.18" fill-opacity="0.18" />
<defs id="" >
<linearGradient id="grad422.514740110.000000" x1="0%" y1="0%" x2="100%" y2="0%" >
<stop offset="0%" stop-color="#A0613B" stop-opacity="1" />
<stop offset="50%" stop-color="#DDC7BA" stop-opacity="1" />
<stop offset="100%" stop-color="#A0613B" stop-opacity="1" />
</linearGradient>
</defs>
<rect x="422.515" y="110" width="10" height="15.1785" rx="1" ry="1" fill="url(#grad422.514740110.000000)" fill-opacity="0.9" stroke-width="0.75" stroke-opacity="0.9" transform="rotate(-90 422.514740 110.000000)" />
<defs id="" >
<linearGradient id="grad422.514740110.000000NRC" x1="0%" y1="0%" x2="100%" y2="0%" >
<stop offset="100%" stop-color="#00BFC4" stop-opacity="1" />
</linearGradient>
</defs>
<rect x="454.515" y="110" width="3.33333" height="15.1785" rx="1" ry="0.5" fill="url(#grad422.514740110.000000NRC)" fill-opacity="0.9" stroke="url(#grad422.514740110.000000NRC)" stroke-width="1.125" stroke-opacity="0.9" transform="rotate(-90 422.514740 110.000000)" />
<defs id="" >
<linearGradient id="grad422.514740110.000000NRCRedun" x1="0%" y1="0%" x2="100%" y2="0%" >
<stop offset="100%" stop-color="#F8766D" stop-opacity="1" />
</linearGradient>
</defs>
<rect x="463.848" y="110" width="3.33333" height="15.1785" rx="1" ry="0.5" fill="url(#grad422.514740110.000000NRCRedun)" fill-opacity="0.9" stroke="url(#grad422.514740110.000000NRCRedun)" stroke-width="1.125" stroke-opacity="0.9" transform="rotate(-90 422.514740 110.000000)" />
<defs id="" >
<linearGradient id="grad384.758240160.000000" x1="0%" y1="0%" x2="100%" y2="0%" >
<stop offset="0%" stop-color="#A0613B" stop-opacity="1" />
<stop offset="50%" stop-color="#DDC7BA" stop-opacity="1" />
<stop offset="100%" stop-color="#A0613B" stop-opacity="1" />
</linearGradient>
</defs>
<rect x="384.758" y="160" width="10" height="8.34817" rx="1" ry="1" fill="url(#grad384.758240160.000000)" fill-opacity="0.9" stroke="url(#grad384.758240160.000000)" stroke-width="0.75" stroke-opacity="0.9" transform="rotate(-90 384.758240 160.000000)" />
<defs id="" >
<linearGradient id="grad384.758240160.000000NRC" x1="0%" y1="0%" x2="100%" y2="0%" >
<stop offset="100%" stop-color="#00BFC4" stop-opacity="1" />
</linearGradient>
</defs>
<rect x="359.425" y="160" width="3.33333" height="8.34817" rx="1" ry="0.5" fill="url(#grad384.758240160.000000NRC)" fill-opacity="0.9" stroke="url(#grad384.758240160.000000NRC)" stroke-width="1.125" stroke-opacity="0.9" transform="rotate(-90 384.758240 160.000000)" />
<defs id="" >
<linearGradient id="grad384.758240160.000000NRCRedun" x1="0%" y1="0%" x2="100%" y2="0%" >
<stop offset="100%" stop-color="#F8766D" stop-opacity="1" />
</linearGradient>
</defs>
<rect x="350.092" y="160" width="3.33333" height="8.34817" rx="1" ry="0.5" fill="url(#grad384.758240160.000000NRCRedun)" fill-opacity="0.9" stroke="url(#grad384.758240160.000000NRCRedun)" stroke-width="1.125" stroke-opacity="0.9" transform="rotate(-90 384.758240 160.000000)" />
<polygon points="422.515,110 437.693,110 393.106,150 384.758,150 " fill="#A0613B" stroke="#A0613B" stroke-width="0.3" stroke-opacity="0.18" fill-opacity="0.18" />
<defs id="" >
<linearGradient id="grad329.641327110.000000" x1="0%" y1="0%" x2="100%" y2="0%" >
<stop offset="0%" stop-color="#A03B94" stop-opacity="1" />
<stop offset="50%" stop-color="#DDBAD9" stop-opacity="1" />
<stop offset="100%" stop-color="#A03B94" stop-opacity="1" />
</linearGradient>
</defs>
<rect x="329.641" y="110" width="10" height="14.2298" rx="1" ry="1" fill="url(#grad329.641327110.000000)" fill-opacity="0.9" stroke-width="0.75" stroke-opacity="0.9" transform="rotate(-90 329.641327 110.000000)" />
<defs id="" >
<linearGradient id="grad329.641327110.000000NRC" x1="0%" y1="0%" x2="100%" y2="0%" >
<stop offset="100%" stop-color="#00BF7D" stop-opacity="1" />
</linearGradient>
</defs>
<rect x="361.641" y="110" width="3.33333" height="14.2298" rx="1" ry="0.5" fill="url(#grad329.641327110.000000NRC)" fill-opacity="0.9" stroke="url(#grad329.641327110.000000NRC)" stroke-width="1.125" stroke-opacity="0.9" transform="rotate(-90 329.641327 110.000000)" />
<defs id="" >
<linearGradient id="grad329.641327110.000000NRCRedun" x1="0%" y1="0%" x2="100%" y2="0%" >
<stop offset="100%" stop-color="#F8766D" stop-opacity="1" />
</linearGradient>
</defs>
<rect x="370.975" y="110" width="3.33333" height="14.2298" rx="1" ry="0.5" fill="url(#grad329.641327110.000000NRCRedun)" fill-opacity="0.9" stroke="url(#grad329.641327110.000000NRCRedun)" stroke-width="1.125" stroke-opacity="0.9" transform="rotate(-90 329.641327 110.000000)" />
<defs id="" >
<linearGradient id="grad315.221741160.000000" x1="0%" y1="0%" x2="100%" y2="0%" >
<stop offset="0%" stop-color="#A03B94" stop-opacity="1" />
<stop offset="50%" stop-color="#DDBAD9" stop-opacity="1" />
<stop offset="100%" stop-color="#A03B94" stop-opacity="1" />
</linearGradient>
</defs>
<rect x="315.222" y="160" width="10" height="8.8225" rx="1" ry="1" fill="url(#grad315.221741160.000000)" fill-opacity="0.9" stroke="url(#grad315.221741160.000000)" stroke-width="0.75" stroke-opacity="0.9" transform="rotate(-90 315.221741 160.000000)" />
<defs id="" >
<linearGradient id="grad315.221741160.000000NRC" x1="0%" y1="0%" x2="100%" y2="0%" >
<stop offset="100%" stop-color="#00B0F6" stop-opacity="1" />
</linearGradient>
</defs>
<rect x="289.888" y="160" width="3.33333" height="8.8225" rx="1" ry="0.5" fill="url(#grad315.221741160.000000NRC)" fill-opacity="0.9" stroke="url(#grad315.221741160.000000NRC)" stroke-width="1.125" stroke-opacity="0.9" transform="rotate(-90 315.221741 160.000000)" />
<defs id="" >
<linearGradient id="grad315.221741160.000000NRCRedun" x1="0%" y1="0%" x2="100%" y2="0%" >
<stop offset="100%" stop-color="#F8766D" stop-opacity="1" />
</linearGradient>
</defs>
<rect x="280.555" y="160" width="3.33333" height="8.8225" rx="1" ry="0.5" fill="url(#grad315.221741160.000000NRCRedun)" fill-opacity="0.9" stroke="url(#grad315.221741160.000000NRCRedun)" stroke-width="1.125" stroke-opacity="0.9" transform="rotate(-90 315.221741 160.000000)" />
<polygon points="329.641,110 343.871,110 324.044,150 315.222,150 " fill="#A03B94" stroke="#A03B94" stroke-width="0.3" stroke-opacity="0.18" fill-opacity="0.18" />
<defs id="" >
<linearGradient id="grad301.181641110.000000" x1="0%" y1="0%" x2="100%" y2="0%" >
<stop offset="0%" stop-color="#3B41A0" stop-opacity="1" />
<stop offset="50%" stop-color="#BABCDD" stop-opacity="1" />
<stop offset="100%" stop-color="#3B41A0" stop-opacity="1" />
</linearGradient>
</defs>
<rect x="301.182" y="110" width="10" height="15.0836" rx="1" ry="1" fill="url(#grad301.181641110.000000)" fill-opacity="0.9" stroke-width="0.75" stroke-opacity="0.9" transform="rotate(-90 301.181641 110.000000)" />
<defs id="" >
<linearGradient id="grad301.181641110.000000NRC" x1="0%" y1="0%" x2="100%" y2="0%" >
<stop offset="100%" stop-color="#00BFC4" stop-opacity="1" />
</linearGradient>
</defs>
<rect x="333.182" y="110" width="3.33333" height="15.0836" rx="1" ry="0.5" fill="url(#grad301.181641110.000000NRC)" fill-opacity="0.9" stroke="url(#grad301.181641110.000000NRC)" stroke-width="1.125" stroke-opacity="0.9" transform="rotate(-90 301.181641 110.000000)" />
<defs id="" >
<linearGradient id="grad301.181641110.000000NRCRedun" x1="0%" y1="0%" x2="100%" y2="0%" >
<stop offset="100%" stop-color="#F8766D" stop-opacity="1" />
</linearGradient>
</defs>
<rect x="342.515" y="110" width="3.33333" height="15.0836" rx="1" ry="0.5" fill="url(#grad301.181641110.000000NRCRedun)" fill-opacity="0.9" stroke="url(#grad301.181641110.000000NRCRedun)" stroke-width="1.125" stroke-opacity="0.9" transform="rotate(-90 301.181641 110.000000)" />
<defs id="" >
<linearGradient id="grad286.856934160.000000" x1="0%" y1="0%" x2="100%" y2="0%" >
<stop offset="0%" stop-color="#3B41A0" stop-opacity="1" />
<stop offset="50%" stop-color="#BABCDD" stop-opacity="1" />
<stop offset="100%" stop-color="#3B41A0" stop-opacity="1" />
</linearGradient>
</defs>
<rect x="286.857" y="160" width="10" height="8.25331" rx="1" ry="1" fill="url(#grad286.856934160.000000)" fill-opacity="0.9" stroke="url(#grad286.856934160.000000)" stroke-width="0.75" stroke-opacity="0.9" transform="rotate(-90 286.856934 160.000000)" />
<defs id="" >
<linearGradient id="grad286.856934160.000000NRC" x1="0%" y1="0%" x2="100%" y2="0%" >
<stop offset="100%" stop-color="#00B0F6" stop-opacity="1" />
</linearGradient>
</defs>
<rect x="261.524" y="160" width="3.33333" height="8.25331" rx="1" ry="0.5" fill="url(#grad286.856934160.000000NRC)" fill-opacity="0.9" stroke="url(#grad286.856934160.000000NRC)" stroke-width="1.125" stroke-opacity="0.9" transform="rotate(-90 286.856934 160.000000)" />
<defs id="" >
<linearGradient id="grad286.856934160.000000NRCRedun" x1="0%" y1="0%" x2="100%" y2="0%" >
<stop offset="100%" stop-color="#F8766D" stop-opacity="1" />
</linearGradient>
</defs>
<rect x="252.19" y="160" width="3.33333" height="8.25331" rx="1" ry="0.5" fill="url(#grad286.856934160.000000NRCRedun)" fill-opacity="0.9" stroke="url(#grad286.856934160.000000NRCRedun)" stroke-width="1.125" stroke-opacity="0.9" transform="rotate(-90 286.856934 160.000000)" />
<polygon points="301.182,110 316.265,110 295.11,150 286.857,150 " fill="#3B41A0" stroke="#3B41A0" stroke-width="0.3" stroke-opacity="0.18" fill-opacity="0.18" />
<defs id="" >
<linearGradient id="grad275.283325110.000000" x1="0%" y1="0%" x2="100%" y2="0%" >
<stop offset="0%" stop-color="#3BA084" stop-opacity="1" />
<stop offset="50%" stop-color="#BADDD3" stop-opacity="1" />
<stop offset="100%" stop-color="#3BA084" stop-opacity="1" />
</linearGradient>
</defs>
<rect x="275.283" y="110" width="10" height="13.0915" rx="1" ry="1" fill="url(#grad275.283325110.000000)" fill-opacity="0.9" stroke-width="0.75" stroke-opacity="0.9" transform="rotate(-90 275.283325 110.000000)" />
<defs id="" >
<linearGradient id="grad275.283325110.000000NRC" x1="0%" y1="0%" x2="100%" y2="0%" >
<stop offset="100%" stop-color="#00BFC4" stop-opacity="1" />
</linearGradient>
</defs>
<rect x="307.283" y="110" width="3.33333" height="13.0915" rx="1" ry="0.5" fill="url(#grad275.283325110.000000NRC)" fill-opacity="0.9" stroke="url(#grad275.283325110.000000NRC)" stroke-width="1.125" stroke-opacity="0.9" transform="rotate(-90 275.283325 110.000000)" />
<defs id="" >
<linearGradient id="grad275.283325110.000000NRCRedun" x1="0%" y1="0%" x2="100%" y2="0%" >
<stop offset="100%" stop-color="#F8766D" stop-opacity="1" />
</linearGradient>
</defs>
<rect x="316.617" y="110" width="3.33333" height="13.0915" rx="1" ry="0.5" fill="url(#grad275.283325110.000000NRCRedun)" fill-opacity="0.9" stroke="url(#grad275.283325110.000000NRCRedun)" stroke-width="1.125" stroke-opacity="0.9" transform="rotate(-90 275.283325 110.000000)" />
<defs id="" >
<linearGradient id="grad261.053497160.000000" x1="0%" y1="0%" x2="100%" y2="0%" >
<stop offset="0%" stop-color="#3BA084" stop-opacity="1" />
<stop offset="50%" stop-color="#BADDD3" stop-opacity="1" />
<stop offset="100%" stop-color="#3BA084" stop-opacity="1" />
</linearGradient>
</defs>
<rect x="261.053" y="160" width="10" height="8.15844" rx="1" ry="1" fill="url(#grad261.053497160.000000)" fill-opacity="0.9" stroke="url(#grad261.053497160.000000)" stroke-width="0.75" stroke-opacity="0.9" transform="rotate(-90 261.053497 160.000000)" />
<defs id="" >
<linearGradient id="grad261.053497160.000000NRC" x1="0%" y1="0%" x2="100%" y2="0%" >
<stop offset="100%" stop-color="#00B0F6" stop-opacity="1" />
</linearGradient>
</defs>
<rect x="235.72" y="160" width="3.33333" height="8.15844" rx="1" ry="0.5" fill="url(#grad261.053497160.000000NRC)" fill-opacity="0.9" stroke="url(#grad261.053497160.000000NRC)" stroke-width="1.125" stroke-opacity="0.9" transform="rotate(-90 261.053497 160.000000)" />
<defs id="" >
<linearGradient id="grad261.053497160.000000NRCRedun" x1="0%" y1="0%" x2="100%" y2="0%" >
<stop offset="100%" stop-color="#F8766D" stop-opacity="1" />
</linearGradient>
</defs>
<rect x="226.387" y="160" width="3.33333" height="8.15844" rx="1" ry="0.5" fill="url(#grad261.053497160.000000NRCRedun)" fill-opacity="0.9" stroke="url(#grad261.053497160.000000NRCRedun)" stroke-width="1.125" stroke-opacity="0.9" transform="rotate(-90 261.053497 160.000000)" />
<polygon points="275.283,110 288.375,110 269.212,150 261.053,150 " fill="#3BA084" stroke="#3BA084" stroke-width="0.3" stroke-opacity="0.18" fill-opacity="0.18" />
<defs id="" >
<linearGradient id="grad214.664215110.000000" x1="0%" y1="0%" x2="100%" y2="0%" >
<stop offset="0%" stop-color="#69A03B" stop-opacity="1" />
<stop offset="50%" stop-color="#CADDBA" stop-opacity="1" />
<stop offset="100%" stop-color="#69A03B" stop-opacity="1" />
</linearGradient>
</defs>
<rect x="214.664" y="110" width="10" height="19.4474" rx="1" ry="1" fill="url(#grad214.664215110.000000)" fill-opacity="0.9" stroke-width="0.75" stroke-opacity="0.9" transform="rotate(-90 214.664215 110.000000)" />
<defs id="" >
<linearGradient id="grad214.664215110.000000NRC" x1="0%" y1="0%" x2="100%" y2="0%" >
<stop offset="100%" stop-color="#00BF7D" stop-opacity="1" />
</linearGradient>
</defs>
<rect x="246.664" y="110" width="3.33333" height="19.4474" rx="1" ry="0.5" fill="url(#grad214.664215110.000000NRC)" fill-opacity="0.9" stroke="url(#grad214.664215110.000000NRC)" stroke-width="1.125" stroke-opacity="0.9" transform="rotate(-90 214.664215 110.000000)" />
<defs id="" >
<linearGradient id="grad214.664215110.000000NRCRedun" x1="0%" y1="0%" x2="100%" y2="0%" >
<stop offset="100%" stop-color="#F8766D" stop-opacity="1" />
</linearGradient>
</defs>
<rect x="255.998" y="110" width="3.33333" height="19.4474" rx="1" ry="0.5" fill="url(#grad214.664215110.000000NRCRedun)" fill-opacity="0.9" stroke="url(#grad214.664215110.000000NRCRedun)" stroke-width="1.125" stroke-opacity="0.9" transform="rotate(-90 214.664215 110.000000)" />
<defs id="" >
<linearGradient id="grad199.865189160.000000" x1="0%" y1="0%" x2="100%" y2="0%" >
<stop offset="0%" stop-color="#69A03B" stop-opacity="1" />
<stop offset="50%" stop-color="#CADDBA" stop-opacity="1" />
<stop offset="100%" stop-color="#69A03B" stop-opacity="1" />
</linearGradient>
</defs>
<rect x="199.865" y="160" width="10" height="12.9966" rx="1" ry="1" fill="url(#grad199.865189160.000000)" fill-opacity="0.9" stroke="url(#grad199.865189160.000000)" stroke-width="0.75" stroke-opacity="0.9" transform="rotate(-90 199.865189 160.000000)" />
<defs id="" >
<linearGradient id="grad199.865189160.000000NRC" x1="0%" y1="0%" x2="100%" y2="0%" >
<stop offset="100%" stop-color="#00B0F6" stop-opacity="1" />
</linearGradient>
</defs>
<rect x="174.532" y="160" width="3.33333" height="12.9966" rx="1" ry="0.5" fill="url(#grad199.865189160.000000NRC)" fill-opacity="0.9" stroke="url(#grad199.865189160.000000NRC)" stroke-width="1.125" stroke-opacity="0.9" transform="rotate(-90 199.865189 160.000000)" />
<defs id="" >
<linearGradient id="grad199.865189160.000000NRCRedun" x1="0%" y1="0%" x2="100%" y2="0%" >
<stop offset="100%" stop-color="#F8766D" stop-opacity="1" />
</linearGradient>
</defs>
<rect x="165.199" y="160" width="3.33333" height="12.9966" rx="1" ry="0.5" fill="url(#grad199.865189160.000000NRCRedun)" fill-opacity="0.9" stroke="url(#grad199.865189160.000000NRCRedun)" stroke-width="1.125" stroke-opacity="0.9" transform="rotate(-90 199.865189 160.000000)" />
<polygon points="214.664,110 234.112,110 212.862,150 199.865,150 " fill="#69A03B" stroke="#69A03B" stroke-width="0.3" stroke-opacity="0.18" fill-opacity="0.18" />
<path id="rhs20.000000100.000000" d="M 20,604.501
a 5,5 0 0,0 10,0
v 5
h -10
v -5
z
" fill="white" fill-opacity="1" stroke="white" stroke-opacity="1" stroke-linejoin="round" stroke-width="1" transform="rotate(-90 20.000000 110.000000)" />
<path id="rhs20.000000100.000000" d="M 30,115
a 5,5 0 0,0 -10,0
v -5
h 10
v 5
z
" fill="white" fill-opacity="1" stroke="white" stroke-opacity="1" stroke-linejoin="round" stroke-width="1" transform="rotate(-90 20.000000 110.000000)" />
<path id="20.000000110.000000" d="M 20,115
v 489.501
a 5,5 0 0,0 10,0
v -489.501
a 5,5 0 0,0 -10,0
z
" fill="none" fill-opacity="0.9" stroke="black" stroke-opacity="1" stroke-linejoin="round" stroke-width="1" transform="rotate(-90 20.000000 110.000000)" />
<path id="rhs20.000000100.000000" d="M 20,631.995
a 5,5 0 0,0 10,0
v 5
h -10
v -5
z
" fill="white" fill-opacity="1" stroke="white" stroke-opacity="1" stroke-linejoin="round" stroke-width="1" transform="rotate(-90 20.000000 160.000000)" />
<path id="rhs20.000000100.000000" d="M 30,165
a 5,5 0 0,0 -10,0
v -5
h 10
v 5
z
" fill="white" fill-opacity="1" stroke="white" stroke-opacity="1" stroke-linejoin="round" stroke-width="1" transform="rotate(-90 20.000000 160.000000)" />
<path id="20.000000160.000000" d="M 20,165
v 466.995
a 5,5 0 0,0 10,0
v -466.995
a 5,5 0 0,0 -10,0
z
" fill="none" fill-opacity="0.9" stroke="black" stroke-opacity="1" stroke-linejoin="round" stroke-width="1" transform="rotate(-90 20.000000 160.000000)" />
<text id="20.00000090.300003" x="20" y="90.3" dominant-baseline="" baseline-shift="" alignment-baseline="" font-size="9px" font-weight="bold" font-family="Helvetica,Arial" font-variant="normal" text-anchor="start" text-align="start" line-height="125%%" >
6.seq</text>
<text id="20.000000176.000000" x="20" y="176" dominant-baseline="" baseline-shift="" alignment-baseline="" font-size="9px" font-weight="bold" font-family="Helvetica,Arial" font-variant="normal" text-anchor="start" text-align="start" line-height="125%%" >
8.seq</text>
<defs id="" >
<linearGradient id="grad560.00054978.000000" x1="0%" y1="100%" x2="0%" y2="0%" >
<stop offset="0%" stop-color="#F8766D" stop-opacity="1" />
<stop offset="14%" stop-color="#D89000" stop-opacity="1" />
<stop offset="28%" stop-color="#A3A500" stop-opacity="1" />
<stop offset="42%" stop-color="#39B600" stop-opacity="1" />
<stop offset="57%" stop-color="#00BF7D" stop-opacity="1" />
<stop offset="71%" stop-color="#00BFC4" stop-opacity="1" />
<stop offset="85%" stop-color="#00B0F6" stop-opacity="1" />
<stop offset="100%" stop-color="#9590FF" stop-opacity="1" />
</linearGradient>
</defs>
<rect x="560.001" y="78" width="15" height="104" rx="2" ry="2" fill="url(#grad560.00054978.000000)" fill-opacity="0.9" stroke="black" stroke-width="0.5" stroke-opacity="1" />
<text id="547.200562130.000000" x="547.201" y="130" dominant-baseline="" baseline-shift="" alignment-baseline="" transform="rotate(90 547.200562 130.000000)" font-size="8px" font-family="Helvetica,Arial" font-variant="normal" text-anchor="middle" text-align="start" line-height="125%%" >
Relative Redundancy</text>
<text id="582.200562130.000000" x="582.201" y="130" dominant-baseline="" baseline-shift="" alignment-baseline="" transform="rotate(90 582.200562 130.000000)" font-size="8px" font-family="Helvetica,Arial" font-variant="normal" text-anchor="middle" text-align="start" line-height="125%%" >
Redundancy</text>
<text id="567.500549188.000000" x="567.501" y="188" dy="2.45" dominant-baseline="" baseline-shift="" alignment-baseline="" font-size="7px" font-family="Helvetica,Arial" font-variant="normal" text-anchor="middle" text-align="start" line-height="125%%" >
0.0</text>
<text id="567.50054972.000000" x="567.501" y="72" dy="2.45" dominant-baseline="" baseline-shift="" alignment-baseline="" font-size="7px" font-family="Helvetica,Arial" font-variant="normal" text-anchor="middle" text-align="start" line-height="125%%" >
2.0</text>
<text id="567.500549156.000000" x="567.501" y="156" dy="2.45" dominant-baseline="" baseline-shift="" alignment-baseline="" font-size="7px" font-family="Helvetica,Arial" font-variant="normal" text-anchor="middle" text-align="start" line-height="125%%" >
0.5</text>
<text id="567.500549130.000000" x="567.501" y="130" dy="2.45" dominant-baseline="" baseline-shift="" alignment-baseline="" font-size="7px" font-family="Helvetica,Arial" font-variant="normal" text-anchor="middle" text-align="start" line-height="125%%" >
1.0</text>
<text id="567.500549104.000000" x="567.501" y="104" dy="2.45" dominant-baseline="" baseline-shift="" alignment-baseline="" font-size="7px" font-family="Helvetica,Arial" font-variant="normal" text-anchor="middle" text-align="start" line-height="125%%" >
1.5</text>
<path id="" d="M 487.213,76.3333
H 550.001
V 83
" fill="none" fill-opacity="0.9" stroke="black" stroke-opacity="1" stroke-linejoin="round" stroke-dasharray="8 4" stroke-width="0.5" />
<path id="" d="M 436.46,183.667
H 550.001
V 177
" fill="none" fill-opacity="0.9" stroke="black" stroke-opacity="1" stroke-linejoin="round" stroke-dasharray="8 4" stroke-width="0.5" />
<path id="" d="M 487.213,67
H 585.001
V 100
" fill="none" fill-opacity="0.9" stroke="black" stroke-opacity="1" stroke-linejoin="round" stroke-dasharray="8 4" stroke-width="0.5" />
<path id="" d="M 436.46,193
H 585.001
V 160
" fill="none" fill-opacity="0.9" stroke="black" stroke-opacity="1" stroke-linejoin="round" stroke-dasharray="8 4" stroke-width="0.5" />
</svg>