<?xml version="1.0" encoding="UTF-8" standalone="no"?>
<!-- Morteza Hosseini, IEETA 2018-2019 -->
<svg xmlns="http://www.w3.org/2000/svg" xmlns:xlink="http://www.w3.org/1999/xlink" viewBox="0 0 605.008789 260.000000" >
<rect x="0" y="0" width="605.009" height="260" rx="1" ry="1" fill="white" fill-opacity="0.9" stroke="white" stroke-width="0" stroke-opacity="1" />
<text id="18.50000039.333328" x="18.5" y="39.3333" dominant-baseline="" baseline-shift="" alignment-baseline="" font-size="7px" font-family="Helvetica,Arial" font-variant="normal" text-anchor="start" text-align="start" line-height="125%%" >
0 b</text>
<line id="20.37500046.33332820.37500052.333328" x1="20.375" y1="46.3333" x2="20.375" y2="52.3333" stroke-width="0.75" stroke="black" />
<line id="34.11552048.33332834.11552052.333328" x1="34.1155" y1="48.3333" x2="34.1155" y2="52.3333" stroke-width="0.5" stroke="black" />
<line id="48.23104148.33332848.23104152.333328" x1="48.231" y1="48.3333" x2="48.231" y2="52.3333" stroke-width="0.5" stroke="black" />
<line id="62.34656548.33332862.34656552.333328" x1="62.3466" y1="48.3333" x2="62.3466" y2="52.3333" stroke-width="0.5" stroke="black" />
<line id="76.46208246.33332876.46208252.333328" x1="76.4621" y1="46.3333" x2="76.4621" y2="52.3333" stroke-width="0.75" stroke="black" />
<text id="76.46208239.333328" x="76.4621" y="39.3333" dominant-baseline="" baseline-shift="" alignment-baseline="" font-size="7px" font-weight="normal" font-family="Helvetica,Arial" font-variant="normal" text-anchor="middle" text-align="start" line-height="125%%" >
600 Kb</text>
<line id="90.57760648.33332890.57760652.333328" x1="90.5776" y1="48.3333" x2="90.5776" y2="52.3333" stroke-width="0.5" stroke="black" />
<line id="104.69313048.333328104.69313052.333328" x1="104.693" y1="48.3333" x2="104.693" y2="52.3333" stroke-width="0.5" stroke="black" />
<line id="118.80864748.333328118.80864752.333328" x1="118.809" y1="48.3333" x2="118.809" y2="52.3333" stroke-width="0.5" stroke="black" />
<line id="132.92416446.333328132.92416452.333328" x1="132.924" y1="46.3333" x2="132.924" y2="52.3333" stroke-width="0.75" stroke="black" />
<text id="132.92416439.333328" x="132.924" y="39.3333" dominant-baseline="" baseline-shift="" alignment-baseline="" font-size="7px" font-weight="normal" font-family="Helvetica,Arial" font-variant="normal" text-anchor="middle" text-align="start" line-height="125%%" >
1.2 Mb</text>
<line id="147.03968848.333328147.03968852.333328" x1="147.04" y1="48.3333" x2="147.04" y2="52.3333" stroke-width="0.5" stroke="black" />
<line id="161.15521248.333328161.15521252.333328" x1="161.155" y1="48.3333" x2="161.155" y2="52.3333" stroke-width="0.5" stroke="black" />
<line id="175.27073748.333328175.27073752.333328" x1="175.271" y1="48.3333" x2="175.271" y2="52.3333" stroke-width="0.5" stroke="black" />
<line id="189.38626146.333328189.38626152.333328" x1="189.386" y1="46.3333" x2="189.386" y2="52.3333" stroke-width="0.75" stroke="black" />
<text id="189.38626139.333328" x="189.386" y="39.3333" dominant-baseline="" baseline-shift="" alignment-baseline="" font-size="7px" font-weight="normal" font-family="Helvetica,Arial" font-variant="normal" text-anchor="middle" text-align="start" line-height="125%%" >
1.8 Mb</text>
<line id="203.50178548.333328203.50178552.333328" x1="203.502" y1="48.3333" x2="203.502" y2="52.3333" stroke-width="0.5" stroke="black" />
<line id="217.61729448.333328217.61729452.333328" x1="217.617" y1="48.3333" x2="217.617" y2="52.3333" stroke-width="0.5" stroke="black" />
<line id="231.73281948.333328231.73281952.333328" x1="231.733" y1="48.3333" x2="231.733" y2="52.3333" stroke-width="0.5" stroke="black" />
<line id="245.84834346.333328245.84834352.333328" x1="245.848" y1="46.3333" x2="245.848" y2="52.3333" stroke-width="0.75" stroke="black" />
<text id="245.84834339.333328" x="245.848" y="39.3333" dominant-baseline="" baseline-shift="" alignment-baseline="" font-size="7px" font-weight="normal" font-family="Helvetica,Arial" font-variant="normal" text-anchor="middle" text-align="start" line-height="125%%" >
2.4 Mb</text>
<line id="259.96386748.333328259.96386752.333328" x1="259.964" y1="48.3333" x2="259.964" y2="52.3333" stroke-width="0.5" stroke="black" />
<line id="274.07937648.333328274.07937652.333328" x1="274.079" y1="48.3333" x2="274.079" y2="52.3333" stroke-width="0.5" stroke="black" />
<line id="288.19491648.333328288.19491652.333328" x1="288.195" y1="48.3333" x2="288.195" y2="52.3333" stroke-width="0.5" stroke="black" />
<line id="302.31042546.333328302.31042552.333328" x1="302.31" y1="46.3333" x2="302.31" y2="52.3333" stroke-width="0.75" stroke="black" />
<text id="302.31042539.333328" x="302.31" y="39.3333" dominant-baseline="" baseline-shift="" alignment-baseline="" font-size="7px" font-weight="normal" font-family="Helvetica,Arial" font-variant="normal" text-anchor="middle" text-align="start" line-height="125%%" >
3 Mb</text>
<line id="316.42596448.333328316.42596452.333328" x1="316.426" y1="48.3333" x2="316.426" y2="52.3333" stroke-width="0.5" stroke="black" />
<line id="330.54147348.333328330.54147352.333328" x1="330.541" y1="48.3333" x2="330.541" y2="52.3333" stroke-width="0.5" stroke="black" />
<line id="344.65698248.333328344.65698252.333328" x1="344.657" y1="48.3333" x2="344.657" y2="52.3333" stroke-width="0.5" stroke="black" />
<line id="358.77252246.333328358.77252252.333328" x1="358.773" y1="46.3333" x2="358.773" y2="52.3333" stroke-width="0.75" stroke="black" />
<text id="358.77252239.333328" x="358.773" y="39.3333" dominant-baseline="" baseline-shift="" alignment-baseline="" font-size="7px" font-weight="normal" font-family="Helvetica,Arial" font-variant="normal" text-anchor="middle" text-align="start" line-height="125%%" >
3.6 Mb</text>
<line id="372.88803148.333328372.88803152.333328" x1="372.888" y1="48.3333" x2="372.888" y2="52.3333" stroke-width="0.5" stroke="black" />
<line id="387.00357148.333328387.00357152.333328" x1="387.004" y1="48.3333" x2="387.004" y2="52.3333" stroke-width="0.5" stroke="black" />
<line id="401.11908048.333328401.11908052.333328" x1="401.119" y1="48.3333" x2="401.119" y2="52.3333" stroke-width="0.5" stroke="black" />
<line id="415.23458946.333328415.23458952.333328" x1="415.235" y1="46.3333" x2="415.235" y2="52.3333" stroke-width="0.75" stroke="black" />
<text id="415.23458939.333328" x="415.235" y="39.3333" dominant-baseline="" baseline-shift="" alignment-baseline="" font-size="7px" font-weight="normal" font-family="Helvetica,Arial" font-variant="normal" text-anchor="middle" text-align="start" line-height="125%%" >
4.2 Mb</text>
<line id="429.35012848.333328429.35012852.333328" x1="429.35" y1="48.3333" x2="429.35" y2="52.3333" stroke-width="0.5" stroke="black" />
<line id="443.46563748.333328443.46563752.333328" x1="443.466" y1="48.3333" x2="443.466" y2="52.3333" stroke-width="0.5" stroke="black" />
<line id="457.58117748.333328457.58117752.333328" x1="457.581" y1="48.3333" x2="457.581" y2="52.3333" stroke-width="0.5" stroke="black" />
<line id="471.69668646.333328471.69668652.333328" x1="471.697" y1="46.3333" x2="471.697" y2="52.3333" stroke-width="0.75" stroke="black" />
<text id="471.69668639.333328" x="471.697" y="39.3333" dominant-baseline="" baseline-shift="" alignment-baseline="" font-size="7px" font-weight="normal" font-family="Helvetica,Arial" font-variant="normal" text-anchor="middle" text-align="start" line-height="125%%" >
4.8 Mb</text>
<line id="485.81219548.333328485.81219552.333328" x1="485.812" y1="48.3333" x2="485.812" y2="52.3333" stroke-width="0.5" stroke="black" />
<line id="499.92773448.333328499.92773452.333328" x1="499.928" y1="48.3333" x2="499.928" y2="52.3333" stroke-width="0.5" stroke="black" />
<line id="514.04327448.333328514.04327452.333328" x1="514.043" y1="48.3333" x2="514.043" y2="52.3333" stroke-width="0.5" stroke="black" />
<text id="18.500000225.566666" x="18.5" y="225.567" dominant-baseline="" baseline-shift="" alignment-baseline="" font-size="7px" font-family="Helvetica,Arial" font-variant="normal" text-anchor="start" text-align="start" line-height="125%%" >
0 b</text>
<line id="20.375000213.66667220.375000207.666672" x1="20.375" y1="213.667" x2="20.375" y2="207.667" stroke-width="0.75" stroke="black" />
<line id="31.762934211.66667231.762934207.666672" x1="31.7629" y1="211.667" x2="31.7629" y2="207.667" stroke-width="0.5" stroke="black" />
<line id="43.525867211.66667243.525867207.666672" x1="43.5259" y1="211.667" x2="43.5259" y2="207.667" stroke-width="0.5" stroke="black" />
<line id="55.288803211.66667255.288803207.666672" x1="55.2888" y1="211.667" x2="55.2888" y2="207.667" stroke-width="0.5" stroke="black" />
<line id="67.051735213.66667267.051735207.666672" x1="67.0517" y1="213.667" x2="67.0517" y2="207.667" stroke-width="0.75" stroke="black" />
<text id="67.051735225.566666" x="67.0517" y="225.567" dominant-baseline="" baseline-shift="" alignment-baseline="" font-size="7px" font-weight="normal" font-family="Helvetica,Arial" font-variant="normal" text-anchor="middle" text-align="start" line-height="125%%" >
500 Kb</text>
<line id="78.814674211.66667278.814674207.666672" x1="78.8147" y1="211.667" x2="78.8147" y2="207.667" stroke-width="0.5" stroke="black" />
<line id="90.577606211.66667290.577606207.666672" x1="90.5776" y1="211.667" x2="90.5776" y2="207.667" stroke-width="0.5" stroke="black" />
<line id="102.340538211.666672102.340538207.666672" x1="102.341" y1="211.667" x2="102.341" y2="207.667" stroke-width="0.5" stroke="black" />
<line id="114.103477213.666672114.103477207.666672" x1="114.103" y1="213.667" x2="114.103" y2="207.667" stroke-width="0.75" stroke="black" />
<text id="114.103477225.566666" x="114.103" y="225.567" dominant-baseline="" baseline-shift="" alignment-baseline="" font-size="7px" font-weight="normal" font-family="Helvetica,Arial" font-variant="normal" text-anchor="middle" text-align="start" line-height="125%%" >
1 Mb</text>
<line id="125.866409211.666672125.866409207.666672" x1="125.866" y1="211.667" x2="125.866" y2="207.667" stroke-width="0.5" stroke="black" />
<line id="137.629349211.666672137.629349207.666672" x1="137.629" y1="211.667" x2="137.629" y2="207.667" stroke-width="0.5" stroke="black" />
<line id="149.392273211.666672149.392273207.666672" x1="149.392" y1="211.667" x2="149.392" y2="207.667" stroke-width="0.5" stroke="black" />
<line id="161.155212213.666672161.155212207.666672" x1="161.155" y1="213.667" x2="161.155" y2="207.667" stroke-width="0.75" stroke="black" />
<text id="161.155212225.566666" x="161.155" y="225.567" dominant-baseline="" baseline-shift="" alignment-baseline="" font-size="7px" font-weight="normal" font-family="Helvetica,Arial" font-variant="normal" text-anchor="middle" text-align="start" line-height="125%%" >
1.5 Mb</text>
<line id="172.918152211.666672172.918152207.666672" x1="172.918" y1="211.667" x2="172.918" y2="207.667" stroke-width="0.5" stroke="black" />
<line id="184.681076211.666672184.681076207.666672" x1="184.681" y1="211.667" x2="184.681" y2="207.667" stroke-width="0.5" stroke="black" />
<line id="196.444016211.666672196.444016207.666672" x1="196.444" y1="211.667" x2="196.444" y2="207.667" stroke-width="0.5" stroke="black" />
<line id="208.206955213.666672208.206955207.666672" x1="208.207" y1="213.667" x2="208.207" y2="207.667" stroke-width="0.75" stroke="black" />
<text id="208.206955225.566666" x="208.207" y="225.567" dominant-baseline="" baseline-shift="" alignment-baseline="" font-size="7px" font-weight="normal" font-family="Helvetica,Arial" font-variant="normal" text-anchor="middle" text-align="start" line-height="125%%" >
2 Mb</text>
<line id="219.969894211.666672219.969894207.666672" x1="219.97" y1="211.667" x2="219.97" y2="207.667" stroke-width="0.5" stroke="black" />
<line id="231.732819211.666672231.732819207.666672" x1="231.733" y1="211.667" x2="231.733" y2="207.667" stroke-width="0.5" stroke="black" />
<line id="243.495758211.666672243.495758207.666672" x1="243.496" y1="211.667" x2="243.496" y2="207.667" stroke-width="0.5" stroke="black" />
<line id="255.258698213.666672255.258698207.666672" x1="255.259" y1="213.667" x2="255.259" y2="207.667" stroke-width="0.75" stroke="black" />
<text id="255.258698225.566666" x="255.259" y="225.567" dominant-baseline="" baseline-shift="" alignment-baseline="" font-size="7px" font-weight="normal" font-family="Helvetica,Arial" font-variant="normal" text-anchor="middle" text-align="start" line-height="125%%" >
2.5 Mb</text>
<line id="267.021637211.666672267.021637207.666672" x1="267.022" y1="211.667" x2="267.022" y2="207.667" stroke-width="0.5" stroke="black" />
<line id="278.784546211.666672278.784546207.666672" x1="278.785" y1="211.667" x2="278.785" y2="207.667" stroke-width="0.5" stroke="black" />
<line id="290.547485211.666672290.547485207.666672" x1="290.547" y1="211.667" x2="290.547" y2="207.667" stroke-width="0.5" stroke="black" />
<line id="302.310425213.666672302.310425207.666672" x1="302.31" y1="213.667" x2="302.31" y2="207.667" stroke-width="0.75" stroke="black" />
<text id="302.310425225.566666" x="302.31" y="225.567" dominant-baseline="" baseline-shift="" alignment-baseline="" font-size="7px" font-weight="normal" font-family="Helvetica,Arial" font-variant="normal" text-anchor="middle" text-align="start" line-height="125%%" >
3 Mb</text>
<line id="314.073364211.666672314.073364207.666672" x1="314.073" y1="211.667" x2="314.073" y2="207.667" stroke-width="0.5" stroke="black" />
<line id="325.836304211.666672325.836304207.666672" x1="325.836" y1="211.667" x2="325.836" y2="207.667" stroke-width="0.5" stroke="black" />
<line id="337.599243211.666672337.599243207.666672" x1="337.599" y1="211.667" x2="337.599" y2="207.667" stroke-width="0.5" stroke="black" />
<line id="349.362152213.666672349.362152207.666672" x1="349.362" y1="213.667" x2="349.362" y2="207.667" stroke-width="0.75" stroke="black" />
<text id="349.362152225.566666" x="349.362" y="225.567" dominant-baseline="" baseline-shift="" alignment-baseline="" font-size="7px" font-weight="normal" font-family="Helvetica,Arial" font-variant="normal" text-anchor="middle" text-align="start" line-height="125%%" >
3.5 Mb</text>
<line id="361.125092211.666672361.125092207.666672" x1="361.125" y1="211.667" x2="361.125" y2="207.667" stroke-width="0.5" stroke="black" />
<line id="372.888031211.666672372.888031207.666672" x1="372.888" y1="211.667" x2="372.888" y2="207.667" stroke-width="0.5" stroke="black" />
<line id="384.650970211.666672384.650970207.666672" x1="384.651" y1="211.667" x2="384.651" y2="207.667" stroke-width="0.5" stroke="black" />
<line id="396.413910213.666672396.413910207.666672" x1="396.414" y1="213.667" x2="396.414" y2="207.667" stroke-width="0.75" stroke="black" />
<text id="396.413910225.566666" x="396.414" y="225.567" dominant-baseline="" baseline-shift="" alignment-baseline="" font-size="7px" font-weight="normal" font-family="Helvetica,Arial" font-variant="normal" text-anchor="middle" text-align="start" line-height="125%%" >
4 Mb</text>
<line id="408.176849211.666672408.176849207.666672" x1="408.177" y1="211.667" x2="408.177" y2="207.667" stroke-width="0.5" stroke="black" />
<line id="419.939789211.666672419.939789207.666672" x1="419.94" y1="211.667" x2="419.94" y2="207.667" stroke-width="0.5" stroke="black" />
<line id="431.702698211.666672431.702698207.666672" x1="431.703" y1="211.667" x2="431.703" y2="207.667" stroke-width="0.5" stroke="black" />
<line id="443.465637213.666672443.465637207.666672" x1="443.466" y1="213.667" x2="443.466" y2="207.667" stroke-width="0.75" stroke="black" />
<text id="443.465637225.566666" x="443.466" y="225.567" dominant-baseline="" baseline-shift="" alignment-baseline="" font-size="7px" font-weight="normal" font-family="Helvetica,Arial" font-variant="normal" text-anchor="middle" text-align="start" line-height="125%%" >
4.5 Mb</text>
<line id="455.228577211.666672455.228577207.666672" x1="455.229" y1="211.667" x2="455.229" y2="207.667" stroke-width="0.5" stroke="black" />
<line id="466.991516211.666672466.991516207.666672" x1="466.992" y1="211.667" x2="466.992" y2="207.667" stroke-width="0.5" stroke="black" />
<line id="478.754456211.666672478.754456207.666672" x1="478.754" y1="211.667" x2="478.754" y2="207.667" stroke-width="0.5" stroke="black" />
<line id="490.517395213.666672490.517395207.666672" x1="490.517" y1="213.667" x2="490.517" y2="207.667" stroke-width="0.75" stroke="black" />
<text id="490.517395225.566666" x="490.517" y="225.567" dominant-baseline="" baseline-shift="" alignment-baseline="" font-size="7px" font-weight="normal" font-family="Helvetica,Arial" font-variant="normal" text-anchor="middle" text-align="start" line-height="125%%" >
5 Mb</text>
<defs id="" >
<linearGradient id="grad382.768890110.000000" x1="0%" y1="0%" x2="100%" y2="0%" >
<stop offset="0%" stop-color="#713BA0" stop-opacity="1" />
<stop offset="50%" stop-color="#CDBADD" stop-opacity="1" />
<stop offset="100%" stop-color="#713BA0" stop-opacity="1" />
</linearGradient>
</defs>
<rect x="382.769" y="110" width="10" height="121.158" rx="1" ry="1" fill="url(#grad382.768890110.000000)" fill-opacity="1" stroke-width="0.75" stroke-opacity="1" transform="rotate(-90 382.768890 110.000000)" />
<defs id="" >
<linearGradient id="grad382.768890110.000000NRC" x1="0%" y1="0%" x2="100%" y2="0%" >
<stop offset="100%" stop-color="#D89000" stop-opacity="1" />
</linearGradient>
</defs>
<rect x="414.769" y="110" width="3.33333" height="121.158" rx="1" ry="0.5" fill="url(#grad382.768890110.000000NRC)" fill-opacity="1" stroke="url(#grad382.768890110.000000NRC)" stroke-width="1.125" stroke-opacity="1" transform="rotate(-90 382.768890 110.000000)" />
<defs id="" >
<linearGradient id="grad382.768890110.000000NRCRedun" x1="0%" y1="0%" x2="100%" y2="0%" >
<stop offset="100%" stop-color="#F8766D" stop-opacity="1" />
</linearGradient>
</defs>
<rect x="424.102" y="110" width="3.33333" height="121.158" rx="1" ry="0.5" fill="url(#grad382.768890110.000000NRCRedun)" fill-opacity="1" stroke="url(#grad382.768890110.000000NRCRedun)" stroke-width="1.125" stroke-opacity="1" transform="rotate(-90 382.768890 110.000000)" />
<defs id="" >
<linearGradient id="grad21.882069160.000000" x1="0%" y1="0%" x2="100%" y2="0%" >
<stop offset="0%" stop-color="#713BA0" stop-opacity="1" />
<stop offset="50%" stop-color="#CDBADD" stop-opacity="1" />
<stop offset="100%" stop-color="#713BA0" stop-opacity="1" />
</linearGradient>
</defs>
<rect x="21.8821" y="160" width="10" height="137.156" rx="1" ry="1" fill="url(#grad21.882069160.000000)" fill-opacity="1" stroke="url(#grad21.882069160.000000)" stroke-width="0.75" stroke-opacity="1" transform="rotate(-90 21.882069 160.000000)" />
<defs id="" >
<pattern id="Wavy21.882069160.000000" x="21.8821" y="160" width="10" height="10" patternUnits="userSpaceOnUse" >
<path id="" d="m -1.15,8.85
l 6.15,-7.7
l 6.15,7.7
" fill="none" fill-opacity="0.9" stroke="#4B276B" stroke-opacity="1" stroke-linejoin="round" stroke-width="2.3" />
</pattern>
</defs>
<rect x="21.8821" y="160" width="10" height="137.156" rx="1" ry="1" fill="url(#Wavy21.882069160.000000)" fill-opacity="1" stroke="url(#grad21.882069160.000000)" stroke-width="0.75" stroke-opacity="1" transform="rotate(-90 21.882069 160.000000)" />
<defs id="" >
<linearGradient id="grad21.882069160.000000NRC" x1="0%" y1="0%" x2="100%" y2="0%" >
<stop offset="100%" stop-color="#A3A500" stop-opacity="1" />
</linearGradient>
</defs>
<rect x="-3.45127" y="160" width="3.33333" height="137.156" rx="1" ry="0.5" fill="url(#grad21.882069160.000000NRC)" fill-opacity="1" stroke="url(#grad21.882069160.000000NRC)" stroke-width="1.125" stroke-opacity="1" transform="rotate(-90 21.882069 160.000000)" />
<defs id="" >
<linearGradient id="grad21.882069160.000000NRCRedun" x1="0%" y1="0%" x2="100%" y2="0%" >
<stop offset="100%" stop-color="#F8766D" stop-opacity="1" />
</linearGradient>
</defs>
<rect x="-12.7846" y="160" width="3.33333" height="137.156" rx="1" ry="0.5" fill="url(#grad21.882069160.000000NRCRedun)" fill-opacity="1" stroke="url(#grad21.882069160.000000NRCRedun)" stroke-width="1.125" stroke-opacity="1" transform="rotate(-90 21.882069 160.000000)" />
<polygon points="382.769,110 503.927,110 21.8821,150 159.038,150 " fill="#713BA0" stroke="#713BA0" stroke-width="0.3" stroke-opacity="0.2" fill-opacity="0.2" />
<defs id="" >
<linearGradient id="grad334.540863110.000000" x1="0%" y1="0%" x2="100%" y2="0%" >
<stop offset="0%" stop-color="#3B6EA0" stop-opacity="1" />
<stop offset="50%" stop-color="#BACCDD" stop-opacity="1" />
<stop offset="100%" stop-color="#3B6EA0" stop-opacity="1" />
</linearGradient>
</defs>
<rect x="334.541" y="110" width="10" height="53.4037" rx="1" ry="1" fill="url(#grad334.540863110.000000)" fill-opacity="1" stroke-width="0.75" stroke-opacity="1" transform="rotate(-90 334.540863 110.000000)" />
<defs id="" >
<linearGradient id="grad334.540863110.000000NRC" x1="0%" y1="0%" x2="100%" y2="0%" >
<stop offset="100%" stop-color="#A3A500" stop-opacity="1" />
</linearGradient>
</defs>
<rect x="366.541" y="110" width="3.33333" height="53.4037" rx="1" ry="0.5" fill="url(#grad334.540863110.000000NRC)" fill-opacity="1" stroke="url(#grad334.540863110.000000NRC)" stroke-width="1.125" stroke-opacity="1" transform="rotate(-90 334.540863 110.000000)" />
<defs id="" >
<linearGradient id="grad334.540863110.000000NRCRedun" x1="0%" y1="0%" x2="100%" y2="0%" >
<stop offset="100%" stop-color="#F8766D" stop-opacity="1" />
</linearGradient>
</defs>
<rect x="375.874" y="110" width="3.33333" height="53.4037" rx="1" ry="0.5" fill="url(#grad334.540863110.000000NRCRedun)" fill-opacity="1" stroke="url(#grad334.540863110.000000NRCRedun)" stroke-width="1.125" stroke-opacity="1" transform="rotate(-90 334.540863 110.000000)" />
<defs id="" >
<linearGradient id="grad328.424133160.000000" x1="0%" y1="0%" x2="100%" y2="0%" >
<stop offset="0%" stop-color="#3B6EA0" stop-opacity="1" />
<stop offset="50%" stop-color="#BACCDD" stop-opacity="1" />
<stop offset="100%" stop-color="#3B6EA0" stop-opacity="1" />
</linearGradient>
</defs>
<rect x="328.424" y="160" width="10" height="48.4633" rx="1" ry="1" fill="url(#grad328.424133160.000000)" fill-opacity="1" stroke="url(#grad328.424133160.000000)" stroke-width="0.75" stroke-opacity="1" transform="rotate(-90 328.424133 160.000000)" />
<defs id="" >
<linearGradient id="grad328.424133160.000000NRC" x1="0%" y1="0%" x2="100%" y2="0%" >
<stop offset="100%" stop-color="#A3A500" stop-opacity="1" />
</linearGradient>
</defs>
<rect x="303.091" y="160" width="3.33333" height="48.4633" rx="1" ry="0.5" fill="url(#grad328.424133160.000000NRC)" fill-opacity="1" stroke="url(#grad328.424133160.000000NRC)" stroke-width="1.125" stroke-opacity="1" transform="rotate(-90 328.424133 160.000000)" />
<defs id="" >
<linearGradient id="grad328.424133160.000000NRCRedun" x1="0%" y1="0%" x2="100%" y2="0%" >
<stop offset="100%" stop-color="#F8766D" stop-opacity="1" />
</linearGradient>
</defs>
<rect x="293.757" y="160" width="3.33333" height="48.4633" rx="1" ry="0.5" fill="url(#grad328.424133160.000000NRCRedun)" fill-opacity="1" stroke="url(#grad328.424133160.000000NRCRedun)" stroke-width="1.125" stroke-opacity="1" transform="rotate(-90 328.424133 160.000000)" />
<polygon points="334.541,110 387.945,110 376.887,150 328.424,150 " fill="#3B6EA0" stroke="#3B6EA0" stroke-width="0.3" stroke-opacity="0.2" fill-opacity="0.2" />
<defs id="" >
<linearGradient id="grad212.441605110.000000" x1="0%" y1="0%" x2="100%" y2="0%" >
<stop offset="0%" stop-color="#A03B65" stop-opacity="1" />
<stop offset="50%" stop-color="#DDBAC9" stop-opacity="1" />
<stop offset="100%" stop-color="#A03B65" stop-opacity="1" />
</linearGradient>
</defs>
<rect x="212.442" y="110" width="10" height="64.9314" rx="1" ry="1" fill="url(#grad212.441605110.000000)" fill-opacity="1" stroke-width="0.75" stroke-opacity="1" transform="rotate(-90 212.441605 110.000000)" />
<defs id="" >
<linearGradient id="grad212.441605110.000000NRC" x1="0%" y1="0%" x2="100%" y2="0%" >
<stop offset="100%" stop-color="#A3A500" stop-opacity="1" />
</linearGradient>
</defs>
<rect x="244.442" y="110" width="3.33333" height="64.9314" rx="1" ry="0.5" fill="url(#grad212.441605110.000000NRC)" fill-opacity="1" stroke="url(#grad212.441605110.000000NRC)" stroke-width="1.125" stroke-opacity="1" transform="rotate(-90 212.441605 110.000000)" />
<defs id="" >
<linearGradient id="grad212.441605110.000000NRCRedun" x1="0%" y1="0%" x2="100%" y2="0%" >
<stop offset="100%" stop-color="#F8766D" stop-opacity="1" />
</linearGradient>
</defs>
<rect x="253.775" y="110" width="3.33333" height="64.9314" rx="1" ry="0.5" fill="url(#grad212.441605110.000000NRCRedun)" fill-opacity="1" stroke="url(#grad212.441605110.000000NRCRedun)" stroke-width="1.125" stroke-opacity="1" transform="rotate(-90 212.441605 110.000000)" />
<defs id="" >
<linearGradient id="grad179.975906160.000000" x1="0%" y1="0%" x2="100%" y2="0%" >
<stop offset="0%" stop-color="#A03B65" stop-opacity="1" />
<stop offset="50%" stop-color="#DDBAC9" stop-opacity="1" />
<stop offset="100%" stop-color="#A03B65" stop-opacity="1" />
</linearGradient>
</defs>
<rect x="179.976" y="160" width="10" height="92.2214" rx="1" ry="1" fill="url(#grad179.975906160.000000)" fill-opacity="1" stroke="url(#grad179.975906160.000000)" stroke-width="0.75" stroke-opacity="1" transform="rotate(-90 179.975906 160.000000)" />
<defs id="" >
<pattern id="Wavy179.975906160.000000" x="179.976" y="160" width="10" height="10" patternUnits="userSpaceOnUse" >
<path id="" d="m -1.15,8.85
l 6.15,-7.7
l 6.15,7.7
" fill="none" fill-opacity="0.9" stroke="#6B2743" stroke-opacity="1" stroke-linejoin="round" stroke-width="2.3" />
</pattern>
</defs>
<rect x="179.976" y="160" width="10" height="92.2214" rx="1" ry="1" fill="url(#Wavy179.975906160.000000)" fill-opacity="1" stroke="url(#grad179.975906160.000000)" stroke-width="0.75" stroke-opacity="1" transform="rotate(-90 179.975906 160.000000)" />
<defs id="" >
<linearGradient id="grad179.975906160.000000NRC" x1="0%" y1="0%" x2="100%" y2="0%" >
<stop offset="100%" stop-color="#D89000" stop-opacity="1" />
</linearGradient>
</defs>
<rect x="154.643" y="160" width="3.33333" height="92.2214" rx="1" ry="0.5" fill="url(#grad179.975906160.000000NRC)" fill-opacity="1" stroke="url(#grad179.975906160.000000NRC)" stroke-width="1.125" stroke-opacity="1" transform="rotate(-90 179.975906 160.000000)" />
<defs id="" >
<linearGradient id="grad179.975906160.000000NRCRedun" x1="0%" y1="0%" x2="100%" y2="0%" >
<stop offset="100%" stop-color="#F8766D" stop-opacity="1" />
</linearGradient>
</defs>
<rect x="145.309" y="160" width="3.33333" height="92.2214" rx="1" ry="0.5" fill="url(#grad179.975906160.000000NRCRedun)" fill-opacity="1" stroke="url(#grad179.975906160.000000NRCRedun)" stroke-width="1.125" stroke-opacity="1" transform="rotate(-90 179.975906 160.000000)" />
<polygon points="212.442,110 277.373,110 179.976,150 272.197,150 " fill="#A03B65" stroke="#A03B65" stroke-width="0.3" stroke-opacity="0.2" fill-opacity="0.2" />
<defs id="" >
<linearGradient id="grad165.860382110.000000" x1="0%" y1="0%" x2="100%" y2="0%" >
<stop offset="0%" stop-color="#A0803B" stop-opacity="1" />
<stop offset="50%" stop-color="#DDD2BA" stop-opacity="1" />
<stop offset="100%" stop-color="#A0803B" stop-opacity="1" />
</linearGradient>
</defs>
<rect x="165.86" y="110" width="10" height="53.4037" rx="1" ry="1" fill="url(#grad165.860382110.000000)" fill-opacity="1" stroke-width="0.75" stroke-opacity="1" transform="rotate(-90 165.860382 110.000000)" />
<defs id="" >
<linearGradient id="grad165.860382110.000000NRC" x1="0%" y1="0%" x2="100%" y2="0%" >
<stop offset="100%" stop-color="#D89000" stop-opacity="1" />
</linearGradient>
</defs>
<rect x="197.86" y="110" width="3.33333" height="53.4037" rx="1" ry="0.5" fill="url(#grad165.860382110.000000NRC)" fill-opacity="1" stroke="url(#grad165.860382110.000000NRC)" stroke-width="1.125" stroke-opacity="1" transform="rotate(-90 165.860382 110.000000)" />
<defs id="" >
<linearGradient id="grad165.860382110.000000NRCRedun" x1="0%" y1="0%" x2="100%" y2="0%" >
<stop offset="100%" stop-color="#F8766D" stop-opacity="1" />
</linearGradient>
</defs>
<rect x="207.194" y="110" width="3.33333" height="53.4037" rx="1" ry="0.5" fill="url(#grad165.860382110.000000NRCRedun)" fill-opacity="1" stroke="url(#grad165.860382110.000000NRCRedun)" stroke-width="1.125" stroke-opacity="1" transform="rotate(-90 165.860382 110.000000)" />
<defs id="" >
<linearGradient id="grad277.843536160.000000" x1="0%" y1="0%" x2="100%" y2="0%" >
<stop offset="0%" stop-color="#A0803B" stop-opacity="1" />
<stop offset="50%" stop-color="#DDD2BA" stop-opacity="1" />
<stop offset="100%" stop-color="#A0803B" stop-opacity="1" />
</linearGradient>
</defs>
<rect x="277.844" y="160" width="10" height="54.3448" rx="1" ry="1" fill="url(#grad277.843536160.000000)" fill-opacity="1" stroke="url(#grad277.843536160.000000)" stroke-width="0.75" stroke-opacity="1" transform="rotate(-90 277.843536 160.000000)" />
<defs id="" >
<pattern id="Wavy277.843536160.000000" x="277.844" y="160" width="10" height="10" patternUnits="userSpaceOnUse" >
<path id="" d="m -1.15,8.85
l 6.15,-7.7
l 6.15,7.7
" fill="none" fill-opacity="0.9" stroke="#6B5527" stroke-opacity="1" stroke-linejoin="round" stroke-width="2.3" />
</pattern>
</defs>
<rect x="277.844" y="160" width="10" height="54.3448" rx="1" ry="1" fill="url(#Wavy277.843536160.000000)" fill-opacity="1" stroke="url(#grad277.843536160.000000)" stroke-width="0.75" stroke-opacity="1" transform="rotate(-90 277.843536 160.000000)" />
<defs id="" >
<linearGradient id="grad277.843536160.000000NRC" x1="0%" y1="0%" x2="100%" y2="0%" >
<stop offset="100%" stop-color="#A3A500" stop-opacity="1" />
</linearGradient>
</defs>
<rect x="252.51" y="160" width="3.33333" height="54.3448" rx="1" ry="0.5" fill="url(#grad277.843536160.000000NRC)" fill-opacity="1" stroke="url(#grad277.843536160.000000NRC)" stroke-width="1.125" stroke-opacity="1" transform="rotate(-90 277.843536 160.000000)" />
<defs id="" >
<linearGradient id="grad277.843536160.000000NRCRedun" x1="0%" y1="0%" x2="100%" y2="0%" >
<stop offset="100%" stop-color="#F8766D" stop-opacity="1" />
</linearGradient>
</defs>
<rect x="243.177" y="160" width="3.33333" height="54.3448" rx="1" ry="0.5" fill="url(#grad277.843536160.000000NRCRedun)" fill-opacity="1" stroke="url(#grad277.843536160.000000NRCRedun)" stroke-width="1.125" stroke-opacity="1" transform="rotate(-90 277.843536 160.000000)" />
<polygon points="165.86,110 219.264,110 277.844,150 332.188,150 " fill="#A0803B" stroke="#A0803B" stroke-width="0.3" stroke-opacity="0.2" fill-opacity="0.2" />
<defs id="" >
<linearGradient id="grad143.275558110.000000" x1="0%" y1="0%" x2="100%" y2="0%" >
<stop offset="0%" stop-color="#3BA068" stop-opacity="1" />
<stop offset="50%" stop-color="#BADDCA" stop-opacity="1" />
<stop offset="100%" stop-color="#3BA068" stop-opacity="1" />
</linearGradient>
</defs>
<rect x="143.276" y="110" width="10" height="28.7016" rx="1" ry="1" fill="url(#grad143.275558110.000000)" fill-opacity="1" stroke-width="0.75" stroke-opacity="1" transform="rotate(-90 143.275558 110.000000)" />
<defs id="" >
<linearGradient id="grad143.275558110.000000NRC" x1="0%" y1="0%" x2="100%" y2="0%" >
<stop offset="100%" stop-color="#A3A500" stop-opacity="1" />
</linearGradient>
</defs>
<rect x="175.276" y="110" width="3.33333" height="28.7016" rx="1" ry="0.5" fill="url(#grad143.275558110.000000NRC)" fill-opacity="1" stroke="url(#grad143.275558110.000000NRC)" stroke-width="1.125" stroke-opacity="1" transform="rotate(-90 143.275558 110.000000)" />
<defs id="" >
<linearGradient id="grad143.275558110.000000NRCRedun" x1="0%" y1="0%" x2="100%" y2="0%" >
<stop offset="100%" stop-color="#F8766D" stop-opacity="1" />
</linearGradient>
</defs>
<rect x="184.609" y="110" width="3.33333" height="28.7016" rx="1" ry="0.5" fill="url(#grad143.275558110.000000NRCRedun)" fill-opacity="1" stroke="url(#grad143.275558110.000000NRCRedun)" stroke-width="1.125" stroke-opacity="1" transform="rotate(-90 143.275558 110.000000)" />
<defs id="" >
<linearGradient id="grad153.626938160.000000" x1="0%" y1="0%" x2="100%" y2="0%" >
<stop offset="0%" stop-color="#3BA068" stop-opacity="1" />
<stop offset="50%" stop-color="#BADDCA" stop-opacity="1" />
<stop offset="100%" stop-color="#3BA068" stop-opacity="1" />
</linearGradient>
</defs>
<rect x="153.627" y="160" width="10" height="26.1137" rx="1" ry="1" fill="url(#grad153.626938160.000000)" fill-opacity="1" stroke="url(#grad153.626938160.000000)" stroke-width="0.75" stroke-opacity="1" transform="rotate(-90 153.626938 160.000000)" />
<defs id="" >
<linearGradient id="grad153.626938160.000000NRC" x1="0%" y1="0%" x2="100%" y2="0%" >
<stop offset="100%" stop-color="#39B600" stop-opacity="1" />
</linearGradient>
</defs>
<rect x="128.294" y="160" width="3.33333" height="26.1137" rx="1" ry="0.5" fill="url(#grad153.626938160.000000NRC)" fill-opacity="1" stroke="url(#grad153.626938160.000000NRC)" stroke-width="1.125" stroke-opacity="1" transform="rotate(-90 153.626938 160.000000)" />
<defs id="" >
<linearGradient id="grad153.626938160.000000NRCRedun" x1="0%" y1="0%" x2="100%" y2="0%" >
<stop offset="100%" stop-color="#F8766D" stop-opacity="1" />
</linearGradient>
</defs>
<rect x="118.96" y="160" width="3.33333" height="26.1137" rx="1" ry="0.5" fill="url(#grad153.626938160.000000NRCRedun)" fill-opacity="1" stroke="url(#grad153.626938160.000000NRCRedun)" stroke-width="1.125" stroke-opacity="1" transform="rotate(-90 153.626938 160.000000)" />
<polygon points="143.276,110 171.977,110 179.741,150 153.627,150 " fill="#3BA068" stroke="#3BA068" stroke-width="0.3" stroke-opacity="0.2" fill-opacity="0.2" />
<defs id="" >
<linearGradient id="grad48.466301110.000000" x1="0%" y1="0%" x2="100%" y2="0%" >
<stop offset="0%" stop-color="#56A03B" stop-opacity="1" />
<stop offset="50%" stop-color="#C3DDBA" stop-opacity="1" />
<stop offset="100%" stop-color="#56A03B" stop-opacity="1" />
</linearGradient>
</defs>
<rect x="48.4663" y="110" width="10" height="101.867" rx="1" ry="1" fill="url(#grad48.466301110.000000)" fill-opacity="1" stroke-width="0.75" stroke-opacity="1" transform="rotate(-90 48.466301 110.000000)" />
<defs id="" >
<linearGradient id="grad48.466301110.000000NRC" x1="0%" y1="0%" x2="100%" y2="0%" >
<stop offset="100%" stop-color="#D89000" stop-opacity="1" />
</linearGradient>
</defs>
<rect x="80.4663" y="110" width="3.33333" height="101.867" rx="1" ry="0.5" fill="url(#grad48.466301110.000000NRC)" fill-opacity="1" stroke="url(#grad48.466301110.000000NRC)" stroke-width="1.125" stroke-opacity="1" transform="rotate(-90 48.466301 110.000000)" />
<defs id="" >
<linearGradient id="grad48.466301110.000000NRCRedun" x1="0%" y1="0%" x2="100%" y2="0%" >
<stop offset="100%" stop-color="#F8766D" stop-opacity="1" />
</linearGradient>
</defs>
<rect x="89.7996" y="110" width="3.33333" height="101.867" rx="1" ry="0.5" fill="url(#grad48.466301110.000000NRCRedun)" fill-opacity="1" stroke="url(#grad48.466301110.000000NRCRedun)" stroke-width="1.125" stroke-opacity="1" transform="rotate(-90 48.466301 110.000000)" />
<defs id="" >
<linearGradient id="grad372.652771160.000000" x1="0%" y1="0%" x2="100%" y2="0%" >
<stop offset="0%" stop-color="#56A03B" stop-opacity="1" />
<stop offset="50%" stop-color="#C3DDBA" stop-opacity="1" />
<stop offset="100%" stop-color="#56A03B" stop-opacity="1" />
</linearGradient>
</defs>
<rect x="372.653" y="160" width="10" height="101.396" rx="1" ry="1" fill="url(#grad372.652771160.000000)" fill-opacity="1" stroke="url(#grad372.652771160.000000)" stroke-width="0.75" stroke-opacity="1" transform="rotate(-90 372.652771 160.000000)" />
<defs id="" >
<pattern id="Wavy372.652771160.000000" x="372.653" y="160" width="10" height="10" patternUnits="userSpaceOnUse" >
<path id="" d="m -1.15,8.85
l 6.15,-7.7
l 6.15,7.7
" fill="none" fill-opacity="0.9" stroke="#396B27" stroke-opacity="1" stroke-linejoin="round" stroke-width="2.3" />
</pattern>
</defs>
<rect x="372.653" y="160" width="10" height="101.396" rx="1" ry="1" fill="url(#Wavy372.652771160.000000)" fill-opacity="1" stroke="url(#grad372.652771160.000000)" stroke-width="0.75" stroke-opacity="1" transform="rotate(-90 372.652771 160.000000)" />
<defs id="" >
<linearGradient id="grad372.652771160.000000NRC" x1="0%" y1="0%" x2="100%" y2="0%" >
<stop offset="100%" stop-color="#D89000" stop-opacity="1" />
</linearGradient>
</defs>
<rect x="347.319" y="160" width="3.33333" height="101.396" rx="1" ry="0.5" fill="url(#grad372.652771160.000000NRC)" fill-opacity="1" stroke="url(#grad372.652771160.000000NRC)" stroke-width="1.125" stroke-opacity="1" transform="rotate(-90 372.652771 160.000000)" />
<defs id="" >
<linearGradient id="grad372.652771160.000000NRCRedun" x1="0%" y1="0%" x2="100%" y2="0%" >
<stop offset="100%" stop-color="#F8766D" stop-opacity="1" />
</linearGradient>
</defs>
<rect x="337.986" y="160" width="3.33333" height="101.396" rx="1" ry="0.5" fill="url(#grad372.652771160.000000NRCRedun)" fill-opacity="1" stroke="url(#grad372.652771160.000000NRCRedun)" stroke-width="1.125" stroke-opacity="1" transform="rotate(-90 372.652771 160.000000)" />
<polygon points="48.4663,110 150.333,110 372.653,150 474.049,150 " fill="#56A03B" stroke="#56A03B" stroke-width="0.3" stroke-opacity="0.2" fill-opacity="0.2" />
<defs id="" >
<linearGradient id="grad28.704571110.000000" x1="0%" y1="0%" x2="100%" y2="0%" >
<stop offset="0%" stop-color="#78A03B" stop-opacity="1" />
<stop offset="50%" stop-color="#CFDDBA" stop-opacity="1" />
<stop offset="100%" stop-color="#78A03B" stop-opacity="1" />
</linearGradient>
</defs>
<rect x="28.7046" y="110" width="10" height="19.997" rx="1" ry="1" fill="url(#grad28.704571110.000000)" fill-opacity="1" stroke-width="0.75" stroke-opacity="1" transform="rotate(-90 28.704571 110.000000)" />
<defs id="" >
<linearGradient id="grad28.704571110.000000NRC" x1="0%" y1="0%" x2="100%" y2="0%" >
<stop offset="100%" stop-color="#39B600" stop-opacity="1" />
</linearGradient>
</defs>
<rect x="60.7046" y="110" width="3.33333" height="19.997" rx="1" ry="0.5" fill="url(#grad28.704571110.000000NRC)" fill-opacity="1" stroke="url(#grad28.704571110.000000NRC)" stroke-width="1.125" stroke-opacity="1" transform="rotate(-90 28.704571 110.000000)" />
<defs id="" >
<linearGradient id="grad28.704571110.000000NRCRedun" x1="0%" y1="0%" x2="100%" y2="0%" >
<stop offset="100%" stop-color="#F8766D" stop-opacity="1" />
</linearGradient>
</defs>
<rect x="70.0379" y="110" width="3.33333" height="19.997" rx="1" ry="0.5" fill="url(#grad28.704571110.000000NRCRedun)" fill-opacity="1" stroke="url(#grad28.704571110.000000NRCRedun)" stroke-width="1.125" stroke-opacity="1" transform="rotate(-90 28.704571 110.000000)" />
<defs id="" >
<linearGradient id="grad26.822502160.000000" x1="0%" y1="0%" x2="100%" y2="0%" >
<stop offset="0%" stop-color="#78A03B" stop-opacity="1" />
<stop offset="50%" stop-color="#CFDDBA" stop-opacity="1" />
<stop offset="100%" stop-color="#78A03B" stop-opacity="1" />
</linearGradient>
</defs>
<rect x="26.8225" y="160" width="10" height="21.1733" rx="1" ry="1" fill="url(#grad26.822502160.000000)" fill-opacity="1" stroke="url(#grad26.822502160.000000)" stroke-width="0.75" stroke-opacity="1" transform="rotate(-90 26.822502 160.000000)" />
<defs id="" >
<linearGradient id="grad26.822502160.000000NRC" x1="0%" y1="0%" x2="100%" y2="0%" >
<stop offset="100%" stop-color="#00BF7D" stop-opacity="1" />
</linearGradient>
</defs>
<rect x="1.48917" y="160" width="3.33333" height="21.1733" rx="1" ry="0.5" fill="url(#grad26.822502160.000000NRC)" fill-opacity="1" stroke="url(#grad26.822502160.000000NRC)" stroke-width="1.125" stroke-opacity="1" transform="rotate(-90 26.822502 160.000000)" />
<defs id="" >
<linearGradient id="grad26.822502160.000000NRCRedun" x1="0%" y1="0%" x2="100%" y2="0%" >
<stop offset="100%" stop-color="#F8766D" stop-opacity="1" />
</linearGradient>
</defs>
<rect x="-7.84417" y="160" width="3.33333" height="21.1733" rx="1" ry="0.5" fill="url(#grad26.822502160.000000NRCRedun)" fill-opacity="1" stroke="url(#grad26.822502160.000000NRCRedun)" stroke-width="1.125" stroke-opacity="1" transform="rotate(-90 26.822502 160.000000)" />
<polygon points="28.7046,110 48.7016,110 47.9958,150 26.8225,150 " fill="#78A03B" stroke="#78A03B" stroke-width="0.3" stroke-opacity="0.2" fill-opacity="0.2" />
<path id="rhs20.000000100.000000" d="M 20,604.509
a 5,5 0 0,0 10,0
v 5
h -10
v -5
z
" fill="white" fill-opacity="1" stroke="white" stroke-opacity="1" stroke-linejoin="round" stroke-width="1" transform="rotate(-90 20.000000 110.000000)" />
<path id="rhs20.000000100.000000" d="M 30,115
a 5,5 0 0,0 -10,0
v -5
h 10
v 5
z
" fill="white" fill-opacity="1" stroke="white" stroke-opacity="1" stroke-linejoin="round" stroke-width="1" transform="rotate(-90 20.000000 110.000000)" />
<path id="20.000000110.000000" d="M 20,115
v 489.509
a 5,5 0 0,0 10,0
v -489.509
a 5,5 0 0,0 -10,0
z
" fill="none" fill-opacity="0.9" stroke="black" stroke-opacity="1" stroke-linejoin="round" stroke-width="1" transform="rotate(-90 20.000000 110.000000)" />
<path id="rhs20.000000100.000000" d="M 20,626.533
a 5,5 0 0,0 10,0
v 5
h -10
v -5
z
" fill="white" fill-opacity="1" stroke="white" stroke-opacity="1" stroke-linejoin="round" stroke-width="1" transform="rotate(-90 20.000000 160.000000)" />
<path id="rhs20.000000100.000000" d="M 30,165
a 5,5 0 0,0 -10,0
v -5
h 10
v 5
z
" fill="white" fill-opacity="1" stroke="white" stroke-opacity="1" stroke-linejoin="round" stroke-width="1" transform="rotate(-90 20.000000 160.000000)" />
<path id="20.000000160.000000" d="M 20,165
v 461.533
a 5,5 0 0,0 10,0
v -461.533
a 5,5 0 0,0 -10,0
z
" fill="none" fill-opacity="0.9" stroke="black" stroke-opacity="1" stroke-linejoin="round" stroke-width="1" transform="rotate(-90 20.000000 160.000000)" />
<text id="20.00000090.300003" x="20" y="90.3" dominant-baseline="" baseline-shift="" alignment-baseline="" font-size="9px" font-weight="bold" font-family="Helvetica,Arial" font-variant="normal" text-anchor="start" text-align="start" line-height="125%%" >
PXO99A.seq</text>
<text id="20.000000176.000000" x="20" y="176" dominant-baseline="" baseline-shift="" alignment-baseline="" font-size="9px" font-weight="bold" font-family="Helvetica,Arial" font-variant="normal" text-anchor="start" text-align="start" line-height="125%%" >
MAFF_311018.seq</text>
<defs id="" >
<linearGradient id="grad560.00872878.000000" x1="0%" y1="100%" x2="0%" y2="0%" >
<stop offset="0%" stop-color="#F8766D" stop-opacity="1" />
<stop offset="14%" stop-color="#D89000" stop-opacity="1" />
<stop offset="28%" stop-color="#A3A500" stop-opacity="1" />
<stop offset="42%" stop-color="#39B600" stop-opacity="1" />
<stop offset="57%" stop-color="#00BF7D" stop-opacity="1" />
<stop offset="71%" stop-color="#00BFC4" stop-opacity="1" />
<stop offset="85%" stop-color="#00B0F6" stop-opacity="1" />
<stop offset="100%" stop-color="#9590FF" stop-opacity="1" />
</linearGradient>
</defs>
<rect x="560.009" y="78" width="15" height="104" rx="2" ry="2" fill="url(#grad560.00872878.000000)" fill-opacity="0.9" stroke="black" stroke-width="0.5" stroke-opacity="1" />
<text id="547.208740130.000000" x="547.209" y="130" dominant-baseline="" baseline-shift="" alignment-baseline="" transform="rotate(90 547.208740 130.000000)" font-size="8px" font-family="Helvetica,Arial" font-variant="normal" text-anchor="middle" text-align="start" line-height="125%%" >
Relative Redundancy</text>
<text id="582.208740130.000000" x="582.209" y="130" dominant-baseline="" baseline-shift="" alignment-baseline="" transform="rotate(90 582.208740 130.000000)" font-size="8px" font-family="Helvetica,Arial" font-variant="normal" text-anchor="middle" text-align="start" line-height="125%%" >
Redundancy</text>
<text id="567.508728188.000000" x="567.509" y="188" dy="2.45" dominant-baseline="" baseline-shift="" alignment-baseline="" font-size="7px" font-family="Helvetica,Arial" font-variant="normal" text-anchor="middle" text-align="start" line-height="125%%" >
0.0</text>
<text id="567.50872872.000000" x="567.509" y="72" dy="2.45" dominant-baseline="" baseline-shift="" alignment-baseline="" font-size="7px" font-family="Helvetica,Arial" font-variant="normal" text-anchor="middle" text-align="start" line-height="125%%" >
2.0</text>
<text id="567.508728156.000000" x="567.509" y="156" dy="2.45" dominant-baseline="" baseline-shift="" alignment-baseline="" font-size="7px" font-family="Helvetica,Arial" font-variant="normal" text-anchor="middle" text-align="start" line-height="125%%" >
0.5</text>
<text id="567.508728130.000000" x="567.509" y="130" dy="2.45" dominant-baseline="" baseline-shift="" alignment-baseline="" font-size="7px" font-family="Helvetica,Arial" font-variant="normal" text-anchor="middle" text-align="start" line-height="125%%" >
1.0</text>
<text id="567.508728104.000000" x="567.509" y="104" dy="2.45" dominant-baseline="" baseline-shift="" alignment-baseline="" font-size="7px" font-family="Helvetica,Arial" font-variant="normal" text-anchor="middle" text-align="start" line-height="125%%" >
1.5</text>
<path id="" d="M 503.927,76.3333
H 550.009
V 83
" fill="none" fill-opacity="0.9" stroke="black" stroke-opacity="1" stroke-linejoin="round" stroke-dasharray="8 4" stroke-width="0.5" />
<path id="" d="M 474.049,183.667
H 550.009
V 177
" fill="none" fill-opacity="0.9" stroke="black" stroke-opacity="1" stroke-linejoin="round" stroke-dasharray="8 4" stroke-width="0.5" />
<path id="" d="M 503.927,67
H 585.009
V 100
" fill="none" fill-opacity="0.9" stroke="black" stroke-opacity="1" stroke-linejoin="round" stroke-dasharray="8 4" stroke-width="0.5" />
<path id="" d="M 474.049,193
H 585.009
V 160
" fill="none" fill-opacity="0.9" stroke="black" stroke-opacity="1" stroke-linejoin="round" stroke-dasharray="8 4" stroke-width="0.5" />
</svg>