<?xml version="1.0" encoding="UTF-8" standalone="no"?>
<!-- Morteza Hosseini, IEETA 2018-2019 -->
<svg xmlns="http://www.w3.org/2000/svg" xmlns:xlink="http://www.w3.org/1999/xlink" viewBox="0 0 605.000671 260.000000" >
<rect x="0" y="0" width="605.001" height="260" rx="1" ry="1" fill="white" fill-opacity="0.9" stroke="white" stroke-width="0" stroke-opacity="1" />
<text id="18.50000039.333328" x="18.5" y="39.3333" dominant-baseline="" baseline-shift="" alignment-baseline="" font-size="7px" font-family="Helvetica,Arial" font-variant="normal" text-anchor="start" text-align="start" line-height="125%%" >
0 b</text>
<line id="20.37500046.33332820.37500052.333328" x1="20.375" y1="46.3333" x2="20.375" y2="52.3333" stroke-width="0.75" stroke="black" />
<line id="32.85975348.33332832.85975352.333328" x1="32.8598" y1="48.3333" x2="32.8598" y2="52.3333" stroke-width="0.5" stroke="black" />
<line id="45.71950148.33332845.71950152.333328" x1="45.7195" y1="48.3333" x2="45.7195" y2="52.3333" stroke-width="0.5" stroke="black" />
<line id="58.57925448.33332858.57925452.333328" x1="58.5793" y1="48.3333" x2="58.5793" y2="52.3333" stroke-width="0.5" stroke="black" />
<line id="71.43900346.33332871.43900352.333328" x1="71.439" y1="46.3333" x2="71.439" y2="52.3333" stroke-width="0.75" stroke="black" />
<text id="71.43900339.333328" x="71.439" y="39.3333" dominant-baseline="" baseline-shift="" alignment-baseline="" font-size="7px" font-weight="normal" font-family="Helvetica,Arial" font-variant="normal" text-anchor="middle" text-align="start" line-height="125%%" >
2 Mb</text>
<line id="84.29875948.33332884.29875952.333328" x1="84.2988" y1="48.3333" x2="84.2988" y2="52.3333" stroke-width="0.5" stroke="black" />
<line id="97.15850848.33332897.15850852.333328" x1="97.1585" y1="48.3333" x2="97.1585" y2="52.3333" stroke-width="0.5" stroke="black" />
<line id="110.01825748.333328110.01825752.333328" x1="110.018" y1="48.3333" x2="110.018" y2="52.3333" stroke-width="0.5" stroke="black" />
<line id="122.87801446.333328122.87801452.333328" x1="122.878" y1="46.3333" x2="122.878" y2="52.3333" stroke-width="0.75" stroke="black" />
<text id="122.87801439.333328" x="122.878" y="39.3333" dominant-baseline="" baseline-shift="" alignment-baseline="" font-size="7px" font-weight="normal" font-family="Helvetica,Arial" font-variant="normal" text-anchor="middle" text-align="start" line-height="125%%" >
4 Mb</text>
<line id="135.73776248.333328135.73776252.333328" x1="135.738" y1="48.3333" x2="135.738" y2="52.3333" stroke-width="0.5" stroke="black" />
<line id="148.59751948.333328148.59751952.333328" x1="148.598" y1="48.3333" x2="148.598" y2="52.3333" stroke-width="0.5" stroke="black" />
<line id="161.45726048.333328161.45726052.333328" x1="161.457" y1="48.3333" x2="161.457" y2="52.3333" stroke-width="0.5" stroke="black" />
<line id="174.31701746.333328174.31701752.333328" x1="174.317" y1="46.3333" x2="174.317" y2="52.3333" stroke-width="0.75" stroke="black" />
<text id="174.31701739.333328" x="174.317" y="39.3333" dominant-baseline="" baseline-shift="" alignment-baseline="" font-size="7px" font-weight="normal" font-family="Helvetica,Arial" font-variant="normal" text-anchor="middle" text-align="start" line-height="125%%" >
6 Mb</text>
<line id="187.17677348.333328187.17677352.333328" x1="187.177" y1="48.3333" x2="187.177" y2="52.3333" stroke-width="0.5" stroke="black" />
<line id="200.03651448.333328200.03651452.333328" x1="200.037" y1="48.3333" x2="200.037" y2="52.3333" stroke-width="0.5" stroke="black" />
<line id="212.89627148.333328212.89627152.333328" x1="212.896" y1="48.3333" x2="212.896" y2="52.3333" stroke-width="0.5" stroke="black" />
<line id="225.75602746.333328225.75602752.333328" x1="225.756" y1="46.3333" x2="225.756" y2="52.3333" stroke-width="0.75" stroke="black" />
<text id="225.75602739.333328" x="225.756" y="39.3333" dominant-baseline="" baseline-shift="" alignment-baseline="" font-size="7px" font-weight="normal" font-family="Helvetica,Arial" font-variant="normal" text-anchor="middle" text-align="start" line-height="125%%" >
8 Mb</text>
<line id="238.61578448.333328238.61578452.333328" x1="238.616" y1="48.3333" x2="238.616" y2="52.3333" stroke-width="0.5" stroke="black" />
<line id="251.47552548.333328251.47552552.333328" x1="251.476" y1="48.3333" x2="251.476" y2="52.3333" stroke-width="0.5" stroke="black" />
<line id="264.33526648.333328264.33526652.333328" x1="264.335" y1="48.3333" x2="264.335" y2="52.3333" stroke-width="0.5" stroke="black" />
<line id="277.19503846.333328277.19503852.333328" x1="277.195" y1="46.3333" x2="277.195" y2="52.3333" stroke-width="0.75" stroke="black" />
<text id="277.19503839.333328" x="277.195" y="39.3333" dominant-baseline="" baseline-shift="" alignment-baseline="" font-size="7px" font-weight="normal" font-family="Helvetica,Arial" font-variant="normal" text-anchor="middle" text-align="start" line-height="125%%" >
10 Mb</text>
<line id="290.05477948.333328290.05477952.333328" x1="290.055" y1="48.3333" x2="290.055" y2="52.3333" stroke-width="0.5" stroke="black" />
<line id="302.91452048.333328302.91452052.333328" x1="302.915" y1="48.3333" x2="302.915" y2="52.3333" stroke-width="0.5" stroke="black" />
<line id="315.77429248.333328315.77429252.333328" x1="315.774" y1="48.3333" x2="315.774" y2="52.3333" stroke-width="0.5" stroke="black" />
<line id="328.63403346.333328328.63403352.333328" x1="328.634" y1="46.3333" x2="328.634" y2="52.3333" stroke-width="0.75" stroke="black" />
<text id="328.63403339.333328" x="328.634" y="39.3333" dominant-baseline="" baseline-shift="" alignment-baseline="" font-size="7px" font-weight="normal" font-family="Helvetica,Arial" font-variant="normal" text-anchor="middle" text-align="start" line-height="125%%" >
12 Mb</text>
<line id="341.49377448.333328341.49377452.333328" x1="341.494" y1="48.3333" x2="341.494" y2="52.3333" stroke-width="0.5" stroke="black" />
<line id="354.35354648.333328354.35354652.333328" x1="354.354" y1="48.3333" x2="354.354" y2="52.3333" stroke-width="0.5" stroke="black" />
<line id="367.21328748.333328367.21328752.333328" x1="367.213" y1="48.3333" x2="367.213" y2="52.3333" stroke-width="0.5" stroke="black" />
<line id="380.07302946.333328380.07302952.333328" x1="380.073" y1="46.3333" x2="380.073" y2="52.3333" stroke-width="0.75" stroke="black" />
<text id="380.07302939.333328" x="380.073" y="39.3333" dominant-baseline="" baseline-shift="" alignment-baseline="" font-size="7px" font-weight="normal" font-family="Helvetica,Arial" font-variant="normal" text-anchor="middle" text-align="start" line-height="125%%" >
14 Mb</text>
<line id="392.93280048.333328392.93280052.333328" x1="392.933" y1="48.3333" x2="392.933" y2="52.3333" stroke-width="0.5" stroke="black" />
<line id="405.79254248.333328405.79254252.333328" x1="405.793" y1="48.3333" x2="405.793" y2="52.3333" stroke-width="0.5" stroke="black" />
<line id="418.65231348.333328418.65231352.333328" x1="418.652" y1="48.3333" x2="418.652" y2="52.3333" stroke-width="0.5" stroke="black" />
<line id="431.51205446.333328431.51205452.333328" x1="431.512" y1="46.3333" x2="431.512" y2="52.3333" stroke-width="0.75" stroke="black" />
<text id="431.51205439.333328" x="431.512" y="39.3333" dominant-baseline="" baseline-shift="" alignment-baseline="" font-size="7px" font-weight="normal" font-family="Helvetica,Arial" font-variant="normal" text-anchor="middle" text-align="start" line-height="125%%" >
16 Mb</text>
<line id="444.37179648.333328444.37179652.333328" x1="444.372" y1="48.3333" x2="444.372" y2="52.3333" stroke-width="0.5" stroke="black" />
<line id="457.23156748.333328457.23156752.333328" x1="457.232" y1="48.3333" x2="457.232" y2="52.3333" stroke-width="0.5" stroke="black" />
<line id="470.09130948.333328470.09130952.333328" x1="470.091" y1="48.3333" x2="470.091" y2="52.3333" stroke-width="0.5" stroke="black" />
<line id="482.95105046.333328482.95105052.333328" x1="482.951" y1="46.3333" x2="482.951" y2="52.3333" stroke-width="0.75" stroke="black" />
<text id="482.95105039.333328" x="482.951" y="39.3333" dominant-baseline="" baseline-shift="" alignment-baseline="" font-size="7px" font-weight="normal" font-family="Helvetica,Arial" font-variant="normal" text-anchor="middle" text-align="start" line-height="125%%" >
18 Mb</text>
<line id="495.81082248.333328495.81082252.333328" x1="495.811" y1="48.3333" x2="495.811" y2="52.3333" stroke-width="0.5" stroke="black" />
<line id="508.67056348.333328508.67056352.333328" x1="508.671" y1="48.3333" x2="508.671" y2="52.3333" stroke-width="0.5" stroke="black" />
<text id="18.500000225.566666" x="18.5" y="225.567" dominant-baseline="" baseline-shift="" alignment-baseline="" font-size="7px" font-family="Helvetica,Arial" font-variant="normal" text-anchor="start" text-align="start" line-height="125%%" >
0 b</text>
<line id="20.375000213.66667220.375000207.666672" x1="20.375" y1="213.667" x2="20.375" y2="207.667" stroke-width="0.75" stroke="black" />
<line id="32.859753211.66667232.859753207.666672" x1="32.8598" y1="211.667" x2="32.8598" y2="207.667" stroke-width="0.5" stroke="black" />
<line id="45.719501211.66667245.719501207.666672" x1="45.7195" y1="211.667" x2="45.7195" y2="207.667" stroke-width="0.5" stroke="black" />
<line id="58.579254211.66667258.579254207.666672" x1="58.5793" y1="211.667" x2="58.5793" y2="207.667" stroke-width="0.5" stroke="black" />
<line id="71.439003213.66667271.439003207.666672" x1="71.439" y1="213.667" x2="71.439" y2="207.667" stroke-width="0.75" stroke="black" />
<text id="71.439003225.566666" x="71.439" y="225.567" dominant-baseline="" baseline-shift="" alignment-baseline="" font-size="7px" font-weight="normal" font-family="Helvetica,Arial" font-variant="normal" text-anchor="middle" text-align="start" line-height="125%%" >
2 Mb</text>
<line id="84.298759211.66667284.298759207.666672" x1="84.2988" y1="211.667" x2="84.2988" y2="207.667" stroke-width="0.5" stroke="black" />
<line id="97.158508211.66667297.158508207.666672" x1="97.1585" y1="211.667" x2="97.1585" y2="207.667" stroke-width="0.5" stroke="black" />
<line id="110.018257211.666672110.018257207.666672" x1="110.018" y1="211.667" x2="110.018" y2="207.667" stroke-width="0.5" stroke="black" />
<line id="122.878014213.666672122.878014207.666672" x1="122.878" y1="213.667" x2="122.878" y2="207.667" stroke-width="0.75" stroke="black" />
<text id="122.878014225.566666" x="122.878" y="225.567" dominant-baseline="" baseline-shift="" alignment-baseline="" font-size="7px" font-weight="normal" font-family="Helvetica,Arial" font-variant="normal" text-anchor="middle" text-align="start" line-height="125%%" >
4 Mb</text>
<line id="135.737762211.666672135.737762207.666672" x1="135.738" y1="211.667" x2="135.738" y2="207.667" stroke-width="0.5" stroke="black" />
<line id="148.597519211.666672148.597519207.666672" x1="148.598" y1="211.667" x2="148.598" y2="207.667" stroke-width="0.5" stroke="black" />
<line id="161.457260211.666672161.457260207.666672" x1="161.457" y1="211.667" x2="161.457" y2="207.667" stroke-width="0.5" stroke="black" />
<line id="174.317017213.666672174.317017207.666672" x1="174.317" y1="213.667" x2="174.317" y2="207.667" stroke-width="0.75" stroke="black" />
<text id="174.317017225.566666" x="174.317" y="225.567" dominant-baseline="" baseline-shift="" alignment-baseline="" font-size="7px" font-weight="normal" font-family="Helvetica,Arial" font-variant="normal" text-anchor="middle" text-align="start" line-height="125%%" >
6 Mb</text>
<line id="187.176773211.666672187.176773207.666672" x1="187.177" y1="211.667" x2="187.177" y2="207.667" stroke-width="0.5" stroke="black" />
<line id="200.036514211.666672200.036514207.666672" x1="200.037" y1="211.667" x2="200.037" y2="207.667" stroke-width="0.5" stroke="black" />
<line id="212.896271211.666672212.896271207.666672" x1="212.896" y1="211.667" x2="212.896" y2="207.667" stroke-width="0.5" stroke="black" />
<line id="225.756027213.666672225.756027207.666672" x1="225.756" y1="213.667" x2="225.756" y2="207.667" stroke-width="0.75" stroke="black" />
<text id="225.756027225.566666" x="225.756" y="225.567" dominant-baseline="" baseline-shift="" alignment-baseline="" font-size="7px" font-weight="normal" font-family="Helvetica,Arial" font-variant="normal" text-anchor="middle" text-align="start" line-height="125%%" >
8 Mb</text>
<line id="238.615784211.666672238.615784207.666672" x1="238.616" y1="211.667" x2="238.616" y2="207.667" stroke-width="0.5" stroke="black" />
<line id="251.475525211.666672251.475525207.666672" x1="251.476" y1="211.667" x2="251.476" y2="207.667" stroke-width="0.5" stroke="black" />
<line id="264.335266211.666672264.335266207.666672" x1="264.335" y1="211.667" x2="264.335" y2="207.667" stroke-width="0.5" stroke="black" />
<line id="277.195038213.666672277.195038207.666672" x1="277.195" y1="213.667" x2="277.195" y2="207.667" stroke-width="0.75" stroke="black" />
<text id="277.195038225.566666" x="277.195" y="225.567" dominant-baseline="" baseline-shift="" alignment-baseline="" font-size="7px" font-weight="normal" font-family="Helvetica,Arial" font-variant="normal" text-anchor="middle" text-align="start" line-height="125%%" >
10 Mb</text>
<line id="290.054779211.666672290.054779207.666672" x1="290.055" y1="211.667" x2="290.055" y2="207.667" stroke-width="0.5" stroke="black" />
<line id="302.914520211.666672302.914520207.666672" x1="302.915" y1="211.667" x2="302.915" y2="207.667" stroke-width="0.5" stroke="black" />
<line id="315.774292211.666672315.774292207.666672" x1="315.774" y1="211.667" x2="315.774" y2="207.667" stroke-width="0.5" stroke="black" />
<line id="328.634033213.666672328.634033207.666672" x1="328.634" y1="213.667" x2="328.634" y2="207.667" stroke-width="0.75" stroke="black" />
<text id="328.634033225.566666" x="328.634" y="225.567" dominant-baseline="" baseline-shift="" alignment-baseline="" font-size="7px" font-weight="normal" font-family="Helvetica,Arial" font-variant="normal" text-anchor="middle" text-align="start" line-height="125%%" >
12 Mb</text>
<line id="341.493774211.666672341.493774207.666672" x1="341.494" y1="211.667" x2="341.494" y2="207.667" stroke-width="0.5" stroke="black" />
<line id="354.353546211.666672354.353546207.666672" x1="354.354" y1="211.667" x2="354.354" y2="207.667" stroke-width="0.5" stroke="black" />
<line id="367.213287211.666672367.213287207.666672" x1="367.213" y1="211.667" x2="367.213" y2="207.667" stroke-width="0.5" stroke="black" />
<line id="380.073029213.666672380.073029207.666672" x1="380.073" y1="213.667" x2="380.073" y2="207.667" stroke-width="0.75" stroke="black" />
<text id="380.073029225.566666" x="380.073" y="225.567" dominant-baseline="" baseline-shift="" alignment-baseline="" font-size="7px" font-weight="normal" font-family="Helvetica,Arial" font-variant="normal" text-anchor="middle" text-align="start" line-height="125%%" >
14 Mb</text>
<line id="392.932800211.666672392.932800207.666672" x1="392.933" y1="211.667" x2="392.933" y2="207.667" stroke-width="0.5" stroke="black" />
<line id="405.792542211.666672405.792542207.666672" x1="405.793" y1="211.667" x2="405.793" y2="207.667" stroke-width="0.5" stroke="black" />
<line id="418.652313211.666672418.652313207.666672" x1="418.652" y1="211.667" x2="418.652" y2="207.667" stroke-width="0.5" stroke="black" />
<line id="431.512054213.666672431.512054207.666672" x1="431.512" y1="213.667" x2="431.512" y2="207.667" stroke-width="0.75" stroke="black" />
<text id="431.512054225.566666" x="431.512" y="225.567" dominant-baseline="" baseline-shift="" alignment-baseline="" font-size="7px" font-weight="normal" font-family="Helvetica,Arial" font-variant="normal" text-anchor="middle" text-align="start" line-height="125%%" >
16 Mb</text>
<line id="444.371796211.666672444.371796207.666672" x1="444.372" y1="211.667" x2="444.372" y2="207.667" stroke-width="0.5" stroke="black" />
<line id="457.231567211.666672457.231567207.666672" x1="457.232" y1="211.667" x2="457.232" y2="207.667" stroke-width="0.5" stroke="black" />
<line id="470.091309211.666672470.091309207.666672" x1="470.091" y1="211.667" x2="470.091" y2="207.667" stroke-width="0.5" stroke="black" />
<defs id="" >
<linearGradient id="grad440.976837110.000000" x1="0%" y1="0%" x2="100%" y2="0%" >
<stop offset="0%" stop-color="#3B59A0" stop-opacity="1" />
<stop offset="50%" stop-color="#BAC4DD" stop-opacity="1" />
<stop offset="100%" stop-color="#3B59A0" stop-opacity="1" />
</linearGradient>
</defs>
<rect x="440.977" y="110" width="10" height="55.2455" rx="1" ry="1" fill="url(#grad440.976837110.000000)" fill-opacity="0.9" stroke-width="0.75" stroke-opacity="0.9" transform="rotate(-90 440.976837 110.000000)" />
<defs id="" >
<linearGradient id="grad440.976837110.000000NRC" x1="0%" y1="0%" x2="100%" y2="0%" >
<stop offset="100%" stop-color="#00BFC4" stop-opacity="1" />
</linearGradient>
</defs>
<rect x="472.977" y="110" width="3.33333" height="55.2455" rx="1" ry="0.5" fill="url(#grad440.976837110.000000NRC)" fill-opacity="0.9" stroke="url(#grad440.976837110.000000NRC)" stroke-width="1.125" stroke-opacity="0.9" transform="rotate(-90 440.976837 110.000000)" />
<defs id="" >
<linearGradient id="grad440.976837110.000000NRCRedun" x1="0%" y1="0%" x2="100%" y2="0%" >
<stop offset="100%" stop-color="#F8766D" stop-opacity="1" />
</linearGradient>
</defs>
<rect x="482.31" y="110" width="3.33333" height="55.2455" rx="1" ry="0.5" fill="url(#grad440.976837110.000000NRCRedun)" fill-opacity="0.9" stroke="url(#grad440.976837110.000000NRCRedun)" stroke-width="1.125" stroke-opacity="0.9" transform="rotate(-90 440.976837 110.000000)" />
<defs id="" >
<linearGradient id="grad420.092590160.000000" x1="0%" y1="0%" x2="100%" y2="0%" >
<stop offset="0%" stop-color="#3B59A0" stop-opacity="1" />
<stop offset="50%" stop-color="#BAC4DD" stop-opacity="1" />
<stop offset="100%" stop-color="#3B59A0" stop-opacity="1" />
</linearGradient>
</defs>
<rect x="420.093" y="160" width="10" height="48.7311" rx="1" ry="1" fill="url(#grad420.092590160.000000)" fill-opacity="0.9" stroke="url(#grad420.092590160.000000)" stroke-width="0.75" stroke-opacity="0.9" transform="rotate(-90 420.092590 160.000000)" />
<defs id="" >
<linearGradient id="grad420.092590160.000000NRC" x1="0%" y1="0%" x2="100%" y2="0%" >
<stop offset="100%" stop-color="#00B0F6" stop-opacity="1" />
</linearGradient>
</defs>
<rect x="394.759" y="160" width="3.33333" height="48.7311" rx="1" ry="0.5" fill="url(#grad420.092590160.000000NRC)" fill-opacity="0.9" stroke="url(#grad420.092590160.000000NRC)" stroke-width="1.125" stroke-opacity="0.9" transform="rotate(-90 420.092590 160.000000)" />
<defs id="" >
<linearGradient id="grad420.092590160.000000NRCRedun" x1="0%" y1="0%" x2="100%" y2="0%" >
<stop offset="100%" stop-color="#F8766D" stop-opacity="1" />
</linearGradient>
</defs>
<rect x="385.426" y="160" width="3.33333" height="48.7311" rx="1" ry="0.5" fill="url(#grad420.092590160.000000NRCRedun)" fill-opacity="0.9" stroke="url(#grad420.092590160.000000NRCRedun)" stroke-width="1.125" stroke-opacity="0.9" transform="rotate(-90 420.092590 160.000000)" />
<polygon points="440.977,110 496.222,110 468.824,150 420.093,150 " fill="#3B59A0" stroke="#3B59A0" stroke-width="0.3" stroke-opacity="0.18" fill-opacity="0.18" />
<defs id="" >
<linearGradient id="grad20.000000110.000000" x1="0%" y1="0%" x2="100%" y2="0%" >
<stop offset="0%" stop-color="#3BA03E" stop-opacity="1" />
<stop offset="50%" stop-color="#BADDBB" stop-opacity="1" />
<stop offset="100%" stop-color="#3BA03E" stop-opacity="1" />
</linearGradient>
</defs>
<rect x="20" y="110" width="10" height="422.006" rx="1" ry="1" fill="url(#grad20.000000110.000000)" fill-opacity="0.9" stroke-width="0.75" stroke-opacity="0.9" transform="rotate(-90 20.000000 110.000000)" />
<defs id="" >
<linearGradient id="grad20.000000110.000000NRC" x1="0%" y1="0%" x2="100%" y2="0%" >
<stop offset="100%" stop-color="#00BFC4" stop-opacity="1" />
</linearGradient>
</defs>
<rect x="52" y="110" width="3.33333" height="422.006" rx="1" ry="0.5" fill="url(#grad20.000000110.000000NRC)" fill-opacity="0.9" stroke="url(#grad20.000000110.000000NRC)" stroke-width="1.125" stroke-opacity="0.9" transform="rotate(-90 20.000000 110.000000)" />
<defs id="" >
<linearGradient id="grad20.000000110.000000NRCRedun" x1="0%" y1="0%" x2="100%" y2="0%" >
<stop offset="100%" stop-color="#F8766D" stop-opacity="1" />
</linearGradient>
</defs>
<rect x="61.3333" y="110" width="3.33333" height="422.006" rx="1" ry="0.5" fill="url(#grad20.000000110.000000NRCRedun)" fill-opacity="0.9" stroke="url(#grad20.000000110.000000NRCRedun)" stroke-width="1.125" stroke-opacity="0.9" transform="rotate(-90 20.000000 110.000000)" />
<defs id="" >
<linearGradient id="grad20.000000160.000000" x1="0%" y1="0%" x2="100%" y2="0%" >
<stop offset="0%" stop-color="#3BA03E" stop-opacity="1" />
<stop offset="50%" stop-color="#BADDBB" stop-opacity="1" />
<stop offset="100%" stop-color="#3BA03E" stop-opacity="1" />
</linearGradient>
</defs>
<rect x="20" y="160" width="10" height="395.052" rx="1" ry="1" fill="url(#grad20.000000160.000000)" fill-opacity="0.9" stroke="url(#grad20.000000160.000000)" stroke-width="0.75" stroke-opacity="0.9" transform="rotate(-90 20.000000 160.000000)" />
<defs id="" >
<linearGradient id="grad20.000000160.000000NRC" x1="0%" y1="0%" x2="100%" y2="0%" >
<stop offset="100%" stop-color="#00BFC4" stop-opacity="1" />
</linearGradient>
</defs>
<rect x="-5.33333" y="160" width="3.33333" height="395.052" rx="1" ry="0.5" fill="url(#grad20.000000160.000000NRC)" fill-opacity="0.9" stroke="url(#grad20.000000160.000000NRC)" stroke-width="1.125" stroke-opacity="0.9" transform="rotate(-90 20.000000 160.000000)" />
<defs id="" >
<linearGradient id="grad20.000000160.000000NRCRedun" x1="0%" y1="0%" x2="100%" y2="0%" >
<stop offset="100%" stop-color="#F8766D" stop-opacity="1" />
</linearGradient>
</defs>
<rect x="-14.6667" y="160" width="3.33333" height="395.052" rx="1" ry="0.5" fill="url(#grad20.000000160.000000NRCRedun)" fill-opacity="0.9" stroke="url(#grad20.000000160.000000NRCRedun)" stroke-width="1.125" stroke-opacity="0.9" transform="rotate(-90 20.000000 160.000000)" />
<polygon points="20,110 442.006,110 415.052,150 20,150 " fill="#3BA03E" stroke="#3BA03E" stroke-width="0.3" stroke-opacity="0.18" fill-opacity="0.18" />
<defs id="" >
<linearGradient id="grad20.000000110.000000" x1="0%" y1="0%" x2="100%" y2="0%" >
<stop offset="0%" stop-color="#A03B79" stop-opacity="1" />
<stop offset="50%" stop-color="#DDBAD0" stop-opacity="1" />
<stop offset="100%" stop-color="#A03B79" stop-opacity="1" />
</linearGradient>
</defs>
<rect x="20" y="110" width="10" height="39.5052" rx="1" ry="1" fill="url(#grad20.000000110.000000)" fill-opacity="0.9" stroke-width="0.75" stroke-opacity="0.9" transform="rotate(-90 20.000000 110.000000)" />
<defs id="" >
<linearGradient id="grad20.000000110.000000NRC" x1="0%" y1="0%" x2="100%" y2="0%" >
<stop offset="100%" stop-color="#00BF7D" stop-opacity="1" />
</linearGradient>
</defs>
<rect x="52" y="110" width="3.33333" height="39.5052" rx="1" ry="0.5" fill="url(#grad20.000000110.000000NRC)" fill-opacity="0.9" stroke="url(#grad20.000000110.000000NRC)" stroke-width="1.125" stroke-opacity="0.9" transform="rotate(-90 20.000000 110.000000)" />
<defs id="" >
<linearGradient id="grad20.000000110.000000NRCRedun" x1="0%" y1="0%" x2="100%" y2="0%" >
<stop offset="100%" stop-color="#F8766D" stop-opacity="1" />
</linearGradient>
</defs>
<rect x="61.3333" y="110" width="3.33333" height="39.5052" rx="1" ry="0.5" fill="url(#grad20.000000110.000000NRCRedun)" fill-opacity="0.9" stroke="url(#grad20.000000110.000000NRCRedun)" stroke-width="1.125" stroke-opacity="0.9" transform="rotate(-90 20.000000 110.000000)" />
<defs id="" >
<linearGradient id="grad20.000000160.000000" x1="0%" y1="0%" x2="100%" y2="0%" >
<stop offset="0%" stop-color="#A03B79" stop-opacity="1" />
<stop offset="50%" stop-color="#DDBAD0" stop-opacity="1" />
<stop offset="100%" stop-color="#A03B79" stop-opacity="1" />
</linearGradient>
</defs>
<rect x="20" y="160" width="10" height="51.3361" rx="1" ry="1" fill="url(#grad20.000000160.000000)" fill-opacity="0.9" stroke="url(#grad20.000000160.000000)" stroke-width="0.75" stroke-opacity="0.9" transform="rotate(-90 20.000000 160.000000)" />
<defs id="" >
<pattern id="Wavy20.000000160.000000" x="20" y="160" width="10" height="7" patternUnits="userSpaceOnUse" >
<path id="" d="m -0.665,6.335
l 5.665,-5.67
l 5.665,5.67
" fill="none" fill-opacity="0.9" stroke="#6B2751" stroke-opacity="1" stroke-linejoin="round" stroke-width="1.33" />
</pattern>
</defs>
<rect x="20" y="160" width="10" height="51.3361" rx="1" ry="1" fill="url(#Wavy20.000000160.000000)" fill-opacity="0.9" stroke="url(#grad20.000000160.000000)" stroke-width="0.75" stroke-opacity="0.9" transform="rotate(-90 20.000000 160.000000)" />
<defs id="" >
<linearGradient id="grad20.000000160.000000NRC" x1="0%" y1="0%" x2="100%" y2="0%" >
<stop offset="100%" stop-color="#00B0F6" stop-opacity="1" />
</linearGradient>
</defs>
<rect x="-5.33333" y="160" width="3.33333" height="51.3361" rx="1" ry="0.5" fill="url(#grad20.000000160.000000NRC)" fill-opacity="0.9" stroke="url(#grad20.000000160.000000NRC)" stroke-width="1.125" stroke-opacity="0.9" transform="rotate(-90 20.000000 160.000000)" />
<defs id="" >
<linearGradient id="grad20.000000160.000000NRCRedun" x1="0%" y1="0%" x2="100%" y2="0%" >
<stop offset="100%" stop-color="#F8766D" stop-opacity="1" />
</linearGradient>
</defs>
<rect x="-14.6667" y="160" width="3.33333" height="51.3361" rx="1" ry="0.5" fill="url(#grad20.000000160.000000NRCRedun)" fill-opacity="0.9" stroke="url(#grad20.000000160.000000NRCRedun)" stroke-width="1.125" stroke-opacity="0.9" transform="rotate(-90 20.000000 160.000000)" />
<polygon points="20,110 59.5052,110 20,150 71.3361,150 " fill="#A03B79" stroke="#A03B79" stroke-width="0.3" stroke-opacity="0.18" fill-opacity="0.18" />
<defs id="" >
<linearGradient id="grad20.000000110.000000" x1="0%" y1="0%" x2="100%" y2="0%" >
<stop offset="0%" stop-color="#96A03B" stop-opacity="1" />
<stop offset="50%" stop-color="#DADDBA" stop-opacity="1" />
<stop offset="100%" stop-color="#96A03B" stop-opacity="1" />
</linearGradient>
</defs>
<rect x="20" y="110" width="10" height="19.7526" rx="1" ry="1" fill="url(#grad20.000000110.000000)" fill-opacity="0.9" stroke-width="0.75" stroke-opacity="0.9" transform="rotate(-90 20.000000 110.000000)" />
<defs id="" >
<linearGradient id="grad20.000000110.000000NRC" x1="0%" y1="0%" x2="100%" y2="0%" >
<stop offset="100%" stop-color="#39B600" stop-opacity="1" />
</linearGradient>
</defs>
<rect x="52" y="110" width="3.33333" height="19.7526" rx="1" ry="0.5" fill="url(#grad20.000000110.000000NRC)" fill-opacity="0.9" stroke="url(#grad20.000000110.000000NRC)" stroke-width="1.125" stroke-opacity="0.9" transform="rotate(-90 20.000000 110.000000)" />
<defs id="" >
<linearGradient id="grad20.000000110.000000NRCRedun" x1="0%" y1="0%" x2="100%" y2="0%" >
<stop offset="100%" stop-color="#F8766D" stop-opacity="1" />
</linearGradient>
</defs>
<rect x="61.3333" y="110" width="3.33333" height="19.7526" rx="1" ry="0.5" fill="url(#grad20.000000110.000000NRCRedun)" fill-opacity="0.9" stroke="url(#grad20.000000110.000000NRCRedun)" stroke-width="1.125" stroke-opacity="0.9" transform="rotate(-90 20.000000 110.000000)" />
<defs id="" >
<linearGradient id="grad77.611687160.000000" x1="0%" y1="0%" x2="100%" y2="0%" >
<stop offset="0%" stop-color="#96A03B" stop-opacity="1" />
<stop offset="50%" stop-color="#DADDBA" stop-opacity="1" />
<stop offset="100%" stop-color="#96A03B" stop-opacity="1" />
</linearGradient>
</defs>
<rect x="77.6117" y="160" width="10" height="20.5756" rx="1" ry="1" fill="url(#grad77.611687160.000000)" fill-opacity="0.9" stroke="url(#grad77.611687160.000000)" stroke-width="0.75" stroke-opacity="0.9" transform="rotate(-90 77.611687 160.000000)" />
<defs id="" >
<pattern id="Wavy77.611687160.000000" x="77.6117" y="160" width="10" height="7" patternUnits="userSpaceOnUse" >
<path id="" d="m -0.665,6.335
l 5.665,-5.67
l 5.665,5.67
" fill="none" fill-opacity="0.9" stroke="#646B27" stroke-opacity="1" stroke-linejoin="round" stroke-width="1.33" />
</pattern>
</defs>
<rect x="77.6117" y="160" width="10" height="20.5756" rx="1" ry="1" fill="url(#Wavy77.611687160.000000)" fill-opacity="0.9" stroke="url(#grad77.611687160.000000)" stroke-width="0.75" stroke-opacity="0.9" transform="rotate(-90 77.611687 160.000000)" />
<defs id="" >
<linearGradient id="grad77.611687160.000000NRC" x1="0%" y1="0%" x2="100%" y2="0%" >
<stop offset="100%" stop-color="#00B0F6" stop-opacity="1" />
</linearGradient>
</defs>
<rect x="52.2784" y="160" width="3.33333" height="20.5756" rx="1" ry="0.5" fill="url(#grad77.611687160.000000NRC)" fill-opacity="0.9" stroke="url(#grad77.611687160.000000NRC)" stroke-width="1.125" stroke-opacity="0.9" transform="rotate(-90 77.611687 160.000000)" />
<defs id="" >
<linearGradient id="grad77.611687160.000000NRCRedun" x1="0%" y1="0%" x2="100%" y2="0%" >
<stop offset="100%" stop-color="#F8766D" stop-opacity="1" />
</linearGradient>
</defs>
<rect x="42.945" y="160" width="3.33333" height="20.5756" rx="1" ry="0.5" fill="url(#grad77.611687160.000000NRCRedun)" fill-opacity="0.9" stroke="url(#grad77.611687160.000000NRCRedun)" stroke-width="1.125" stroke-opacity="0.9" transform="rotate(-90 77.611687 160.000000)" />
<polygon points="20,110 39.7526,110 77.6117,150 98.1873,150 " fill="#96A03B" stroke="#96A03B" stroke-width="0.3" stroke-opacity="0.18" fill-opacity="0.18" />
<path id="rhs20.000000100.000000" d="M 20,604.501
a 5,5 0 0,0 10,0
v 5
h -10
v -5
z
" fill="white" fill-opacity="1" stroke="white" stroke-opacity="1" stroke-linejoin="round" stroke-width="1" transform="rotate(-90 20.000000 110.000000)" />
<path id="rhs20.000000100.000000" d="M 30,115
a 5,5 0 0,0 -10,0
v -5
h 10
v 5
z
" fill="white" fill-opacity="1" stroke="white" stroke-opacity="1" stroke-linejoin="round" stroke-width="1" transform="rotate(-90 20.000000 110.000000)" />
<path id="20.000000110.000000" d="M 20,115
v 489.501
a 5,5 0 0,0 10,0
v -489.501
a 5,5 0 0,0 -10,0
z
" fill="none" fill-opacity="0.9" stroke="black" stroke-opacity="1" stroke-linejoin="round" stroke-width="1" transform="rotate(-90 20.000000 110.000000)" />
<path id="rhs20.000000100.000000" d="M 20,610.235
a 5,5 0 0,0 10,0
v 5
h -10
v -5
z
" fill="white" fill-opacity="1" stroke="white" stroke-opacity="1" stroke-linejoin="round" stroke-width="1" transform="rotate(-90 20.000000 160.000000)" />
<path id="rhs20.000000100.000000" d="M 30,165
a 5,5 0 0,0 -10,0
v -5
h 10
v 5
z
" fill="white" fill-opacity="1" stroke="white" stroke-opacity="1" stroke-linejoin="round" stroke-width="1" transform="rotate(-90 20.000000 160.000000)" />
<path id="20.000000160.000000" d="M 20,165
v 445.236
a 5,5 0 0,0 10,0
v -445.236
a 5,5 0 0,0 -10,0
z
" fill="none" fill-opacity="0.9" stroke="black" stroke-opacity="1" stroke-linejoin="round" stroke-width="1" transform="rotate(-90 20.000000 160.000000)" />
<text id="20.00000090.300003" x="20" y="90.3" dominant-baseline="" baseline-shift="" alignment-baseline="" font-size="9px" font-weight="bold" font-family="Helvetica,Arial" font-variant="normal" text-anchor="start" text-align="start" line-height="125%%" >
13.seq</text>
<text id="20.000000176.000000" x="20" y="176" dominant-baseline="" baseline-shift="" alignment-baseline="" font-size="9px" font-weight="bold" font-family="Helvetica,Arial" font-variant="normal" text-anchor="start" text-align="start" line-height="125%%" >
15.seq</text>
<defs id="" >
<linearGradient id="grad560.00067178.000000" x1="0%" y1="100%" x2="0%" y2="0%" >
<stop offset="0%" stop-color="#F8766D" stop-opacity="1" />
<stop offset="14%" stop-color="#D89000" stop-opacity="1" />
<stop offset="28%" stop-color="#A3A500" stop-opacity="1" />
<stop offset="42%" stop-color="#39B600" stop-opacity="1" />
<stop offset="57%" stop-color="#00BF7D" stop-opacity="1" />
<stop offset="71%" stop-color="#00BFC4" stop-opacity="1" />
<stop offset="85%" stop-color="#00B0F6" stop-opacity="1" />
<stop offset="100%" stop-color="#9590FF" stop-opacity="1" />
</linearGradient>
</defs>
<rect x="560.001" y="78" width="15" height="104" rx="2" ry="2" fill="url(#grad560.00067178.000000)" fill-opacity="0.9" stroke="black" stroke-width="0.5" stroke-opacity="1" />
<text id="547.200684130.000000" x="547.201" y="130" dominant-baseline="" baseline-shift="" alignment-baseline="" transform="rotate(90 547.200684 130.000000)" font-size="8px" font-family="Helvetica,Arial" font-variant="normal" text-anchor="middle" text-align="start" line-height="125%%" >
Relative Redundancy</text>
<text id="582.200684130.000000" x="582.201" y="130" dominant-baseline="" baseline-shift="" alignment-baseline="" transform="rotate(90 582.200684 130.000000)" font-size="8px" font-family="Helvetica,Arial" font-variant="normal" text-anchor="middle" text-align="start" line-height="125%%" >
Redundancy</text>
<text id="567.500671188.000000" x="567.501" y="188" dy="2.45" dominant-baseline="" baseline-shift="" alignment-baseline="" font-size="7px" font-family="Helvetica,Arial" font-variant="normal" text-anchor="middle" text-align="start" line-height="125%%" >
0.0</text>
<text id="567.50067172.000000" x="567.501" y="72" dy="2.45" dominant-baseline="" baseline-shift="" alignment-baseline="" font-size="7px" font-family="Helvetica,Arial" font-variant="normal" text-anchor="middle" text-align="start" line-height="125%%" >
2.0</text>
<text id="567.500671156.000000" x="567.501" y="156" dy="2.45" dominant-baseline="" baseline-shift="" alignment-baseline="" font-size="7px" font-family="Helvetica,Arial" font-variant="normal" text-anchor="middle" text-align="start" line-height="125%%" >
0.5</text>
<text id="567.500671130.000000" x="567.501" y="130" dy="2.45" dominant-baseline="" baseline-shift="" alignment-baseline="" font-size="7px" font-family="Helvetica,Arial" font-variant="normal" text-anchor="middle" text-align="start" line-height="125%%" >
1.0</text>
<text id="567.500671104.000000" x="567.501" y="104" dy="2.45" dominant-baseline="" baseline-shift="" alignment-baseline="" font-size="7px" font-family="Helvetica,Arial" font-variant="normal" text-anchor="middle" text-align="start" line-height="125%%" >
1.5</text>
<path id="" d="M 496.222,76.3333
H 550.001
V 83
" fill="none" fill-opacity="0.9" stroke="black" stroke-opacity="1" stroke-linejoin="round" stroke-dasharray="8 4" stroke-width="0.5" />
<path id="" d="M 468.824,183.667
H 550.001
V 177
" fill="none" fill-opacity="0.9" stroke="black" stroke-opacity="1" stroke-linejoin="round" stroke-dasharray="8 4" stroke-width="0.5" />
<path id="" d="M 496.222,67
H 585.001
V 100
" fill="none" fill-opacity="0.9" stroke="black" stroke-opacity="1" stroke-linejoin="round" stroke-dasharray="8 4" stroke-width="0.5" />
<path id="" d="M 468.824,193
H 585.001
V 160
" fill="none" fill-opacity="0.9" stroke="black" stroke-opacity="1" stroke-linejoin="round" stroke-dasharray="8 4" stroke-width="0.5" />
</svg>