<?xml version="1.0" encoding="UTF-8" standalone="no"?>
<!-- IEETA 2014 using Inkscape -->
<svg
xmlns:osb="http://www.openswatchbook.org/uri/2009/osb"
xmlns:dc="http://purl.org/dc/elements/1.1/"
xmlns:cc="http://creativecommons.org/ns#"
xmlns:rdf="http://www.w3.org/1999/02/22-rdf-syntax-ns#"
xmlns:svg="http://www.w3.org/2000/svg"
xmlns="http://www.w3.org/2000/svg"
xmlns:sodipodi="http://sodipodi.sourceforge.net/DTD/sodipodi-0.dtd"
xmlns:inkscape="http://www.inkscape.org/namespaces/inkscape"
width="200.000000"
height="900.075008"
id="svg2"
version="1.1"
inkscape:version="0.48.3.1 r9886"
sodipodi:docname="chromosomes">
<defs
id="defs4">
<linearGradient id="linearGradient3755" osb:paint="solid">
<stop style="stop-color:#aa00ff;stop-opacity:1;" offset="0"
id="stop3757" />
</linearGradient>
</defs>
<sodipodi:namedview id="base" pagecolor="#ffffff"
bordercolor="#666666" borderopacity="1.0"
inkscape:pageopacity="0.0" inkscape:pageshadow="2"
inkscape:zoom="0.49497475" inkscape:cx="159.73474"
inkscape:cy="681.53008" inkscape:document-units="px"
inkscape:current-layer="layer1" showgrid="false"
inkscape:window-width="1066" inkscape:window-height="790"
inkscape:window-x="278" inkscape:window-y="1106"
inkscape:window-maximized="1" />
<metadata id="metadata7">
<rdf:RDF>
<cc:Work rdf:about="">
<dc:format>image/svg+xml</dc:format>
<dc:type rdf:resource="http://purl.org/dc/dcmitype/StillImage" />
<dc:title></dc:title>
</cc:Work>
</rdf:RDF>
</metadata>
<g inkscape:label="Camada 1" inkscape:groupmode="layer" id="layer1" >
<defs id="defs6211"><pattern inkscape:stockid="Polka dots, large" id="Polkadots-large" patternTransform="translate(0,0)scale(10,10)" height="10" width="10" patternUnits="userSpaceOnUse" inkscape:collect="always"> <circle id="circle4936" r="0.45" cy="0.810" cx="2.567" style="fill:black;stroke:none" /><circle id="circle4938" r="0.45" cy="2.33" cx="3.048" style="fill:black;stroke:none" /><circle id="circle4940" r="0.45" cy="2.415" cx="4.418" style="fill:black;stroke:none" /><circle id="circle4942" r="0.45" cy="3.029" cx="1.844" style="fill:black;stroke:none" /><circle id="circle4944" r="0.45" cy="1.363" cx="6.08" style="fill:black;stroke:none" /><circle id="circle4946" r="0.45" cy="4.413" cx="5.819" style="fill:black;stroke:none" /><circle id="circle4948" r="0.45" cy="4.048" cx="4.305" style="fill:black;stroke:none" /><circle id="circle4950" r="0.45" cy="3.045" cx="5.541" style="fill:black;stroke:none" /><circle id="circle4952" r="0.45" cy="5.527" cx="4.785" style="fill:black;stroke:none" /><circle id="circle4954" r="0.45" cy="5.184" cx="2.667" style="fill:black;stroke:none" /><circle id="circle4956" r="0.45" cy="1.448" cx="7.965" style="fill:black;stroke:none" /><circle id="circle4958" r="0.45" cy="5.049" cx="7.047" style="fill:black;stroke:none" /><circle id="circle4960" r="0.45" cy="0.895" cx="4.340" style="fill:black;stroke:none" /><circle id="circle4962" r="0.45" cy="0.340" cx="7.125" style="fill:black;stroke:none" /><circle id="circle4964" r="0.45" cy="1.049" cx="9.553" style="fill:black;stroke:none" /><circle id="circle4966" r="0.45" cy="2.689" cx="7.006" style="fill:black;stroke:none" /><circle id="circle4968" r="0.45" cy="2.689" cx="8.909" style="fill:black;stroke:none" /><circle id="circle4970" r="0.45" cy="4.407" cx="9.315" style="fill:black;stroke:none" /><circle id="circle4972" r="0.45" cy="3.870" cx="7.820" style="fill:black;stroke:none" /><circle id="circle4974" r="0.45" cy="5.948" cx="8.270" style="fill:black;stroke:none" /><circle id="circle4976" r="0.45" cy="7.428" cx="7.973" style="fill:black;stroke:none" /><circle id="circle4978" r="0.45" cy="8.072" cx="9.342" style="fill:black;stroke:none" /><circle id="circle4980" r="0.45" cy="9.315" cx="8.206" style="fill:black;stroke:none" /><circle id="circle4982" r="0.45" cy="9.475" cx="9.682" style="fill:black;stroke:none" /><circle id="circle4984" r="0.45" cy="6.186" cx="9.688" style="fill:black;stroke:none" /><circle id="circle4986" r="0.45" cy="6.296" cx="3.379" style="fill:black;stroke:none" /><circle id="circle4988" r="0.45" cy="8.204" cx="2.871" style="fill:black;stroke:none" /><circle id="circle4990" r="0.45" cy="8.719" cx="4.59" style="fill:black;stroke:none" /><circle id="circle4992" r="0.45" cy="9.671" cx="3.181" style="fill:black;stroke:none" /><circle id="circle4994" r="0.45" cy="7.315" cx="5.734" style="fill:black;stroke:none" /><circle id="circle4996" r="0.45" cy="6.513" cx="6.707" style="fill:black;stroke:none" /><circle id="circle4998" r="0.45" cy="9.670" cx="5.730" style="fill:black;stroke:none" /><circle id="circle5000" r="0.45" cy="8.373" cx="6.535" style="fill:black;stroke:none" /><circle id="circle5002" r="0.45" cy="7.154" cx="4.37" style="fill:black;stroke:none" /><circle id="circle5004" r="0.45" cy="7.25" cx="0.622" style="fill:black;stroke:none" /><circle id="circle5006" r="0.45" cy="5.679" cx="0.831" style="fill:black;stroke:none" /><circle id="circle5008" r="0.45" cy="8.519" cx="1.257" style="fill:black;stroke:none" /><circle id="circle5010" r="0.45" cy="6.877" cx="1.989" style="fill:black;stroke:none" /><circle id="circle5012" r="0.45" cy="3.181" cx="0.374" style="fill:black;stroke:none" /><circle id="circle5014" r="0.45" cy="1.664" cx="1.166" style="fill:black;stroke:none" /><circle id="circle5016" r="0.45" cy="0.093" cx="1.151" style="fill:black;stroke:none" /><circle id="circle5018" r="0.45" cy="10.093" cx="1.151" style="fill:black;stroke:none" /><circle id="circle5020" r="0.45" cy="4.451" cx="1.302" style="fill:black;stroke:none" /><circle id="circle5022" r="0.45" cy="3.763" cx="3.047" style="fill:black;stroke:none" /></pattern></defs><defs id="ffff"><pattern inkscape:stockid="Wavy" id="Wavy" height="5.1805778" width="30.0" patternUnits="userSpaceOnUse" inkscape:collect="always"><path id="path5114" d="M 7.597,0.061 C 5.079,-0.187 2.656,0.302 -0.01,1.788 L -0.01,3.061 C 2.773,1.431 5.173,1.052 7.472,1.280 C 9.770,1.508 11.969,2.361 14.253,3.218 C 18.820,4.931 23.804,6.676 30.066,3.061 L 30.062,1.788 C 23.622,5.497 19.246,3.770 14.691,2.061 C 12.413,1.207 10.115,0.311 7.597,0.061 z " style="fill:black;stroke:none;" /></pattern></defs><defs id="defs6219"><pattern inkscape:stockid="xtrace" id="xtrace" height="20.0" width="20.0" patternUnits="userSpaceOnUse" inkscape:collect="always"><path style="fill:#000000;stroke:#000000;stroke-width:0.30;stroke-linecap:butt;stroke-linejoin:miter;stroke-opacity:1;stroke-miterlimit:0;stroke-dasharray:none;fill-opacity:1" d="m 0.0,10.0 25.00000,-25.0 0,5 -25.00000,25.00000 z" id="path7213" inkscape:connector-curvature="0" /><path style="fill:#000000;fill-opacity:1;stroke:#000000;stroke-width:0.30;stroke-linecap:butt;stroke-linejoin:miter;stroke-miterlimit:0;stroke-opacity:1;stroke-dasharray:none" d="m 0.0,30.0 25.00000,-25.0 0,5 -25.00000,25.00000 z" id="path7213-8" inkscape:connector-curvature="0" /><path style="fill:#000000;fill-opacity:1;stroke:#000000;stroke-width:0.30;stroke-linecap:butt;stroke-linejoin:miter;stroke-miterlimit:0;stroke-opacity:1;stroke-dasharray:none" d="m 0.0,50.0 25.00000,-25.0 0,5 -25.00000,25.00000 z" id="path7213-9" inkscape:connector-curvature="0" /><path style="fill:#000000;fill-opacity:1;stroke:#000000;stroke-width:0.30;stroke-linecap:butt;stroke-linejoin:miter;stroke-miterlimit:0;stroke-opacity:1;stroke-dasharray:none" d="m 0.0,70.0 25.00000,-25.0 0,5 -25.00000,25.00000 z" id="path7213-10" inkscape:connector-curvature="0" /><path style="fill:#000000;fill-opacity:1;stroke:#000000;stroke-width:0.30;stroke-linecap:butt;stroke-linejoin:miter;stroke-miterlimit:0;stroke-opacity:1;stroke-dasharray:none" d="m 0.0,90.0 25.00000,-25.0 0,5 -25.00000,25.00000 z" id="path7213-11" inkscape:connector-curvature="0" /><path style="fill:#000000;fill-opacity:1;stroke:#000000;stroke-width:0.30;stroke-linecap:butt;stroke-linejoin:miter;stroke-miterlimit:0;stroke-opacity:1;stroke-dasharray:none" d="m m 0.0,110.0 25.00000,-25.0 0,05 -25.00000,25.00000 z" id="path7213-12" inkscape:connector-curvature="0" /></pattern></defs><defs id="defs4"><pattern id="dallas" patternTransform="translate(106.59375,206.90625)" height="4.75" width="4.75" patternUnits="userSpaceOnUse"> <path style="fill:none;stroke:#000000;stroke-width:1;stroke-linecap:butt;stroke-linejoin:miter;stroke-miterlimit:0;stroke-opacity:1;stroke-dasharray:none" d="m -0.00788,2.37557 4.76251,0" id="path2985" /><path style="fill:none;stroke:#000000;stroke-width:1;stroke-linecap:butt;stroke-linejoin:miter;stroke-miterlimit:0;stroke-opacity:1;stroke-dasharray:none" d="m 2.37338,-0.00568 0,4.76251" id="path2985-1" /></pattern></defs><defs id="defs4"><pattern id="lineX" patternTransform="translate(106.59375,206.90625)" height="4.75" width="4.75" patternUnits="userSpaceOnUse"> <path style="fill:none;stroke:#000000;stroke-width:1;stroke-linecap:butt;stroke-linejoin:miter;stroke-miterlimit:0;stroke-opacity:1;stroke-dasharray:none" d="m -0.00788,2.37557 4.76251,0" id="path2985" /></pattern></defs><defs id="defs4"><pattern id="stripeX" patternTransform="translate(106.59375,206.90625)" height="4.75" width="4.75" patternUnits="userSpaceOnUse"> <path style="fill:none;stroke:#000000;stroke-width:1;stroke-linecap:butt;stroke-linejoin:miter;stroke-miterlimit:0;stroke-opacity:1;stroke-dasharray:none" d="m 2.37338,-0.00568 0,4.76251" id="path2985-1" /></pattern></defs><rect style="fill:#ffffff;fill-opacity:1;stroke-width:2;stroke-miterlimit:4;stroke-dasharray:none" id="rect3777" width="200.00" height="900.08" x="0.00" y="0.00" ry="0" />
<rect style="fill:#ffffff;fill-opacity:1;stroke-width:2;stroke-miterlimit:4;stroke-dasharray:none" id="rectx" width="25.00" height="750.08" x="70.00" y="75.00" ry="12.5" />
<rect style="fill:#ffffff;fill-opacity:1;stroke-width:2;stroke-miterlimit:4;stroke-dasharray:none" id="rectx" width="25.00" height="750.08" x="70.00" y="75.00" ry="12.5" />
<rect style="fill:#A03C3B;fill-opacity:1;stroke-width:2;stroke-miterlimit:4;stroke-dasharray:none" id="rect3777" width="25.00" height="2.04" x="105.00" y="75.00" ry="0" />
<rect style="fill:#A03C3B;fill-opacity:1;stroke-width:2;stroke-miterlimit:4;stroke-dasharray:none" id="rect3777" width="25.00" height="2.04" x="70.00" y="75.00" ry="0" />
<rect style="fill:#A0423B;fill-opacity:1;stroke-width:2;stroke-miterlimit:4;stroke-dasharray:none" id="rect3777" width="25.00" height="3.11" x="105.00" y="77.27" ry="0" />
<rect style="fill:#A0423B;fill-opacity:1;stroke-width:2;stroke-miterlimit:4;stroke-dasharray:none" id="rect3777" width="25.00" height="3.11" x="70.00" y="77.27" ry="0" />
<rect style="fill:#A04A3B;fill-opacity:1;stroke-width:2;stroke-miterlimit:4;stroke-dasharray:none" id="rect3777" width="25.00" height="10.76" x="105.00" y="80.83" ry="0" />
<rect style="fill:#A04A3B;fill-opacity:1;stroke-width:2;stroke-miterlimit:4;stroke-dasharray:none" id="rect3777" width="25.00" height="10.61" x="70.00" y="80.91" ry="0" />
<rect style="fill:#A0513B;fill-opacity:1;stroke-width:2;stroke-miterlimit:4;stroke-dasharray:none" id="rect3777" width="25.00" height="1.14" x="105.00" y="91.89" ry="0" />
<rect style="fill:#A0513B;fill-opacity:1;stroke-width:2;stroke-miterlimit:4;stroke-dasharray:none" id="rect3777" width="25.00" height="0.98" x="70.00" y="91.97" ry="0" />
<rect style="fill:#A0583B;fill-opacity:1;stroke-width:2;stroke-miterlimit:4;stroke-dasharray:none" id="rect3777" width="25.00" height="1.89" x="105.00" y="93.56" ry="0" />
<rect style="fill:#A0583B;fill-opacity:1;stroke-width:2;stroke-miterlimit:4;stroke-dasharray:none" id="rect3777" width="25.00" height="1.67" x="70.00" y="93.71" ry="0" />
<rect style="fill:#A05F3B;fill-opacity:1;stroke-width:2;stroke-miterlimit:4;stroke-dasharray:none" id="rect3777" width="25.00" height="1.52" x="105.00" y="95.98" ry="0" />
<rect style="fill:#A05F3B;fill-opacity:1;stroke-width:2;stroke-miterlimit:4;stroke-dasharray:none" id="rect3777" width="25.00" height="1.44" x="70.00" y="95.98" ry="0" />
<rect style="fill:#A0663B;fill-opacity:1;stroke-width:2;stroke-miterlimit:4;stroke-dasharray:none" id="rect3777" width="25.00" height="1.14" x="105.00" y="97.58" ry="0" />
<rect style="fill:#A0663B;fill-opacity:1;stroke-width:2;stroke-miterlimit:4;stroke-dasharray:none" id="rect3777" width="25.00" height="0.98" x="70.00" y="97.65" ry="0" />
<rect style="fill:#A06D3B;fill-opacity:1;stroke-width:2;stroke-miterlimit:4;stroke-dasharray:none" id="rect3777" width="25.00" height="2.35" x="105.00" y="98.79" ry="0" />
<rect style="fill:#A06D3B;fill-opacity:1;stroke-width:2;stroke-miterlimit:4;stroke-dasharray:none" id="rect3777" width="25.00" height="2.20" x="70.00" y="98.86" ry="0" />
<rect style="fill:#A0743B;fill-opacity:1;stroke-width:2;stroke-miterlimit:4;stroke-dasharray:none" id="rect3777" width="25.00" height="2.12" x="105.00" y="101.29" ry="0" />
<rect style="fill:#A0743B;fill-opacity:1;stroke-width:2;stroke-miterlimit:4;stroke-dasharray:none" id="rect3777" width="25.00" height="1.97" x="70.00" y="101.44" ry="0" />
<rect style="fill:#A07B3B;fill-opacity:1;stroke-width:2;stroke-miterlimit:4;stroke-dasharray:none" id="rect3777" width="25.00" height="4.85" x="105.00" y="103.86" ry="0" />
<rect style="fill:#A07B3B;fill-opacity:1;stroke-width:2;stroke-miterlimit:4;stroke-dasharray:none" id="rect3777" width="25.00" height="4.47" x="70.00" y="104.09" ry="0" />
<rect style="fill:#A0823B;fill-opacity:1;stroke-width:2;stroke-miterlimit:4;stroke-dasharray:none" id="rect3777" width="25.00" height="4.70" x="105.00" y="109.39" ry="0" />
<rect style="fill:#A0823B;fill-opacity:1;stroke-width:2;stroke-miterlimit:4;stroke-dasharray:none" id="rect3777" width="25.00" height="4.62" x="70.00" y="109.39" ry="0" />
<rect style="fill:#A0893B;fill-opacity:1;stroke-width:2;stroke-miterlimit:4;stroke-dasharray:none" id="rect3777" width="25.00" height="0.83" x="105.00" y="114.39" ry="0" />
<rect style="fill:#A0893B;fill-opacity:1;stroke-width:2;stroke-miterlimit:4;stroke-dasharray:none" id="rect3777" width="25.00" height="0.61" x="70.00" y="114.55" ry="0" />
<rect style="fill:#A0903B;fill-opacity:1;stroke-width:2;stroke-miterlimit:4;stroke-dasharray:none" id="rect3777" width="25.00" height="3.79" x="105.00" y="115.38" ry="0" />
<rect style="fill:#A0903B;fill-opacity:1;stroke-width:2;stroke-miterlimit:4;stroke-dasharray:none" id="rect3777" width="25.00" height="3.64" x="70.00" y="115.45" ry="0" />
<rect style="fill:#A0973B;fill-opacity:1;stroke-width:2;stroke-miterlimit:4;stroke-dasharray:none" id="rect3777" width="25.00" height="6.74" x="105.00" y="119.70" ry="0" />
<rect style="fill:#A0973B;fill-opacity:1;stroke-width:2;stroke-miterlimit:4;stroke-dasharray:none" id="rect3777" width="25.00" height="6.74" x="70.00" y="119.70" ry="0" />
<rect style="fill:#A09E3B;fill-opacity:1;stroke-width:2;stroke-miterlimit:4;stroke-dasharray:none" id="rect3777" width="25.00" height="1.44" x="105.00" y="126.74" ry="0" />
<rect style="fill:#A09E3B;fill-opacity:1;stroke-width:2;stroke-miterlimit:4;stroke-dasharray:none" id="rect3777" width="25.00" height="1.36" x="70.00" y="126.82" ry="0" />
<rect style="fill:#9BA03B;fill-opacity:1;stroke-width:2;stroke-miterlimit:4;stroke-dasharray:none" id="rect3777" width="25.00" height="0.91" x="105.00" y="129.17" ry="0" />
<rect style="fill:#9BA03B;fill-opacity:1;stroke-width:2;stroke-miterlimit:4;stroke-dasharray:none" id="rect3777" width="25.00" height="0.68" x="70.00" y="129.32" ry="0" />
<rect style="fill:#94A03B;fill-opacity:1;stroke-width:2;stroke-miterlimit:4;stroke-dasharray:none" id="rect3777" width="25.00" height="1.44" x="105.00" y="130.15" ry="0" />
<rect style="fill:#94A03B;fill-opacity:1;stroke-width:2;stroke-miterlimit:4;stroke-dasharray:none" id="rect3777" width="25.00" height="1.36" x="70.00" y="130.15" ry="0" />
<rect style="fill:#8CA03B;fill-opacity:1;stroke-width:2;stroke-miterlimit:4;stroke-dasharray:none" id="rect3777" width="25.00" height="0.83" x="105.00" y="133.48" ry="0" />
<rect style="fill:#8CA03B;fill-opacity:1;stroke-width:2;stroke-miterlimit:4;stroke-dasharray:none" id="rect3777" width="25.00" height="0.68" x="70.00" y="133.56" ry="0" />
<rect style="fill:#85A03B;fill-opacity:1;stroke-width:2;stroke-miterlimit:4;stroke-dasharray:none" id="rect3777" width="25.00" height="9.62" x="105.00" y="135.15" ry="0" />
<rect style="fill:#85A03B;fill-opacity:1;stroke-width:2;stroke-miterlimit:4;stroke-dasharray:none" id="rect3777" width="25.00" height="9.47" x="70.00" y="135.23" ry="0" />
<rect style="fill:#7EA03B;fill-opacity:1;stroke-width:2;stroke-miterlimit:4;stroke-dasharray:none" id="rect3777" width="25.00" height="3.41" x="105.00" y="145.00" ry="0" />
<rect style="fill:#7EA03B;fill-opacity:1;stroke-width:2;stroke-miterlimit:4;stroke-dasharray:none" id="rect3777" width="25.00" height="3.18" x="70.00" y="145.15" ry="0" />
<rect style="fill:#78A03B;fill-opacity:1;stroke-width:2;stroke-miterlimit:4;stroke-dasharray:none" id="rect3777" width="25.00" height="1.97" x="105.00" y="149.09" ry="0" />
<rect style="fill:#78A03B;fill-opacity:1;stroke-width:2;stroke-miterlimit:4;stroke-dasharray:none" id="rect3777" width="25.00" height="1.74" x="70.00" y="149.24" ry="0" />
<rect style="fill:#70A03B;fill-opacity:1;stroke-width:2;stroke-miterlimit:4;stroke-dasharray:none" id="rect3777" width="25.00" height="1.06" x="105.00" y="151.29" ry="0" />
<rect style="fill:#70A03B;fill-opacity:1;stroke-width:2;stroke-miterlimit:4;stroke-dasharray:none" id="rect3777" width="25.00" height="0.98" x="70.00" y="151.36" ry="0" />
<rect style="fill:#69A03B;fill-opacity:1;stroke-width:2;stroke-miterlimit:4;stroke-dasharray:none" id="rect3777" width="25.00" height="1.97" x="105.00" y="153.03" ry="0" />
<rect style="fill:#69A03B;fill-opacity:1;stroke-width:2;stroke-miterlimit:4;stroke-dasharray:none" id="rect3777" width="25.00" height="1.67" x="70.00" y="153.26" ry="0" />
<rect style="fill:#62A03B;fill-opacity:1;stroke-width:2;stroke-miterlimit:4;stroke-dasharray:none" id="rect3777" width="25.00" height="1.21" x="105.00" y="157.35" ry="0" />
<rect style="fill:#62A03B;fill-opacity:1;stroke-width:2;stroke-miterlimit:4;stroke-dasharray:none" id="rect3777" width="25.00" height="1.14" x="70.00" y="157.35" ry="0" />
<rect style="fill:#5BA03B;fill-opacity:1;stroke-width:2;stroke-miterlimit:4;stroke-dasharray:none" id="rect3777" width="25.00" height="0.83" x="105.00" y="158.71" ry="0" />
<rect style="fill:#5BA03B;fill-opacity:1;stroke-width:2;stroke-miterlimit:4;stroke-dasharray:none" id="rect3777" width="25.00" height="0.68" x="70.00" y="158.86" ry="0" />
<rect style="fill:#54A03B;fill-opacity:1;stroke-width:2;stroke-miterlimit:4;stroke-dasharray:none" id="rect3777" width="25.00" height="1.21" x="105.00" y="160.53" ry="0" />
<rect style="fill:#54A03B;fill-opacity:1;stroke-width:2;stroke-miterlimit:4;stroke-dasharray:none" id="rect3777" width="25.00" height="0.76" x="70.00" y="160.91" ry="0" />
<rect style="fill:#4DA03B;fill-opacity:1;stroke-width:2;stroke-miterlimit:4;stroke-dasharray:none" id="rect3777" width="25.00" height="1.06" x="105.00" y="162.65" ry="0" />
<rect style="fill:#4DA03B;fill-opacity:1;stroke-width:2;stroke-miterlimit:4;stroke-dasharray:none" id="rect3777" width="25.00" height="0.98" x="70.00" y="162.73" ry="0" />
<rect style="fill:#46A03B;fill-opacity:1;stroke-width:2;stroke-miterlimit:4;stroke-dasharray:none" id="rect3777" width="25.00" height="1.29" x="105.00" y="165.83" ry="0" />
<rect style="fill:#46A03B;fill-opacity:1;stroke-width:2;stroke-miterlimit:4;stroke-dasharray:none" id="rect3777" width="25.00" height="1.21" x="70.00" y="165.83" ry="0" />
<rect style="fill:#3FA03B;fill-opacity:1;stroke-width:2;stroke-miterlimit:4;stroke-dasharray:none" id="rect3777" width="25.00" height="0.83" x="105.00" y="167.42" ry="0" />
<rect style="fill:#3FA03B;fill-opacity:1;stroke-width:2;stroke-miterlimit:4;stroke-dasharray:none" id="rect3777" width="25.00" height="0.61" x="70.00" y="167.50" ry="0" />
<rect style="fill:#3BA03E;fill-opacity:1;stroke-width:2;stroke-miterlimit:4;stroke-dasharray:none" id="rect3777" width="25.00" height="0.91" x="105.00" y="168.33" ry="0" />
<rect style="fill:#3BA03E;fill-opacity:1;stroke-width:2;stroke-miterlimit:4;stroke-dasharray:none" id="rect3777" width="25.00" height="0.68" x="70.00" y="168.48" ry="0" />
<rect style="fill:#3BA045;fill-opacity:1;stroke-width:2;stroke-miterlimit:4;stroke-dasharray:none" id="rect3777" width="25.00" height="2.42" x="105.00" y="172.05" ry="0" />
<rect style="fill:#3BA045;fill-opacity:1;stroke-width:2;stroke-miterlimit:4;stroke-dasharray:none" id="rect3777" width="25.00" height="2.20" x="70.00" y="172.20" ry="0" />
<rect style="fill:#3BA04C;fill-opacity:1;stroke-width:2;stroke-miterlimit:4;stroke-dasharray:none" id="rect3777" width="25.00" height="2.20" x="105.00" y="174.77" ry="0" />
<rect style="fill:#3BA04C;fill-opacity:1;stroke-width:2;stroke-miterlimit:4;stroke-dasharray:none" id="rect3777" width="25.00" height="2.05" x="70.00" y="174.92" ry="0" />
<rect style="fill:#3BA053;fill-opacity:1;stroke-width:2;stroke-miterlimit:4;stroke-dasharray:none" id="rect3777" width="25.00" height="0.91" x="105.00" y="177.12" ry="0" />
<rect style="fill:#3BA053;fill-opacity:1;stroke-width:2;stroke-miterlimit:4;stroke-dasharray:none" id="rect3777" width="25.00" height="0.76" x="70.00" y="177.27" ry="0" />
<rect style="fill:#3BA05A;fill-opacity:1;stroke-width:2;stroke-miterlimit:4;stroke-dasharray:none" id="rect3777" width="25.00" height="0.76" x="105.00" y="178.48" ry="0" />
<rect style="fill:#3BA05A;fill-opacity:1;stroke-width:2;stroke-miterlimit:4;stroke-dasharray:none" id="rect3777" width="25.00" height="0.68" x="70.00" y="178.48" ry="0" />
<rect style="fill:#3BA061;fill-opacity:1;stroke-width:2;stroke-miterlimit:4;stroke-dasharray:none" id="rect3777" width="25.00" height="1.14" x="105.00" y="186.29" ry="0" />
<rect style="fill:#3BA061;fill-opacity:1;stroke-width:2;stroke-miterlimit:4;stroke-dasharray:none" id="rect3777" width="25.00" height="1.14" x="70.00" y="186.29" ry="0" />
<rect style="fill:#3BA068;fill-opacity:1;stroke-width:2;stroke-miterlimit:4;stroke-dasharray:none" id="rect3777" width="25.00" height="3.11" x="105.00" y="189.39" ry="0" />
<rect style="fill:#3BA068;fill-opacity:1;stroke-width:2;stroke-miterlimit:4;stroke-dasharray:none" id="rect3777" width="25.00" height="2.95" x="70.00" y="189.39" ry="0" />
<rect style="fill:#3BA06F;fill-opacity:1;stroke-width:2;stroke-miterlimit:4;stroke-dasharray:none" id="rect3777" width="25.00" height="2.12" x="105.00" y="193.33" ry="0" />
<rect style="fill:#3BA06F;fill-opacity:1;stroke-width:2;stroke-miterlimit:4;stroke-dasharray:none" id="rect3777" width="25.00" height="1.97" x="70.00" y="193.41" ry="0" />
<rect style="fill:#3BA076;fill-opacity:1;stroke-width:2;stroke-miterlimit:4;stroke-dasharray:none" id="rect3777" width="25.00" height="1.82" x="105.00" y="195.61" ry="0" />
<rect style="fill:#3BA076;fill-opacity:1;stroke-width:2;stroke-miterlimit:4;stroke-dasharray:none" id="rect3777" width="25.00" height="1.74" x="70.00" y="195.68" ry="0" />
<rect style="fill:#3BA07D;fill-opacity:1;stroke-width:2;stroke-miterlimit:4;stroke-dasharray:none" id="rect3777" width="25.00" height="1.97" x="105.00" y="197.80" ry="0" />
<rect style="fill:#3BA07D;fill-opacity:1;stroke-width:2;stroke-miterlimit:4;stroke-dasharray:none" id="rect3777" width="25.00" height="1.89" x="70.00" y="197.88" ry="0" />
<rect style="fill:#3BA084;fill-opacity:1;stroke-width:2;stroke-miterlimit:4;stroke-dasharray:none" id="rect3777" width="25.00" height="0.83" x="105.00" y="200.61" ry="0" />
<rect style="fill:#3BA084;fill-opacity:1;stroke-width:2;stroke-miterlimit:4;stroke-dasharray:none" id="rect3777" width="25.00" height="0.76" x="70.00" y="200.68" ry="0" />
<rect style="fill:#3BA08C;fill-opacity:1;stroke-width:2;stroke-miterlimit:4;stroke-dasharray:none" id="rect3777" width="25.00" height="1.21" x="105.00" y="201.89" ry="0" />
<rect style="fill:#3BA08C;fill-opacity:1;stroke-width:2;stroke-miterlimit:4;stroke-dasharray:none" id="rect3777" width="25.00" height="0.91" x="70.00" y="202.05" ry="0" />
<rect style="fill:#3BA092;fill-opacity:1;stroke-width:2;stroke-miterlimit:4;stroke-dasharray:none" id="rect3777" width="25.00" height="1.89" x="105.00" y="204.39" ry="0" />
<rect style="fill:#3BA092;fill-opacity:1;stroke-width:2;stroke-miterlimit:4;stroke-dasharray:none" id="rect3777" width="25.00" height="1.89" x="70.00" y="204.39" ry="0" />
<rect style="fill:#3BA099;fill-opacity:1;stroke-width:2;stroke-miterlimit:4;stroke-dasharray:none" id="rect3777" width="25.00" height="2.73" x="105.00" y="206.97" ry="0" />
<rect style="fill:#3BA099;fill-opacity:1;stroke-width:2;stroke-miterlimit:4;stroke-dasharray:none" id="rect3777" width="25.00" height="2.58" x="70.00" y="207.05" ry="0" />
<rect style="fill:#3B9FA0;fill-opacity:1;stroke-width:2;stroke-miterlimit:4;stroke-dasharray:none" id="rect3777" width="25.00" height="1.82" x="105.00" y="211.67" ry="0" />
<rect style="fill:#3B9FA0;fill-opacity:1;stroke-width:2;stroke-miterlimit:4;stroke-dasharray:none" id="rect3777" width="25.00" height="1.74" x="70.00" y="211.74" ry="0" />
<rect style="fill:#3B98A0;fill-opacity:1;stroke-width:2;stroke-miterlimit:4;stroke-dasharray:none" id="rect3777" width="25.00" height="1.06" x="105.00" y="213.79" ry="0" />
<rect style="fill:#3B98A0;fill-opacity:1;stroke-width:2;stroke-miterlimit:4;stroke-dasharray:none" id="rect3777" width="25.00" height="0.83" x="70.00" y="213.86" ry="0" />
<rect style="fill:#3B91A0;fill-opacity:1;stroke-width:2;stroke-miterlimit:4;stroke-dasharray:none" id="rect3777" width="25.00" height="2.42" x="105.00" y="215.83" ry="0" />
<rect style="fill:#3B91A0;fill-opacity:1;stroke-width:2;stroke-miterlimit:4;stroke-dasharray:none" id="rect3777" width="25.00" height="2.35" x="70.00" y="215.91" ry="0" />
<rect style="fill:#3B8AA0;fill-opacity:1;stroke-width:2;stroke-miterlimit:4;stroke-dasharray:none" id="rect3777" width="25.00" height="1.14" x="105.00" y="218.56" ry="0" />
<rect style="fill:#3B8AA0;fill-opacity:1;stroke-width:2;stroke-miterlimit:4;stroke-dasharray:none" id="rect3777" width="25.00" height="0.98" x="70.00" y="218.71" ry="0" />
<rect style="fill:#3B83A0;fill-opacity:1;stroke-width:2;stroke-miterlimit:4;stroke-dasharray:none" id="rect3777" width="25.00" height="1.14" x="105.00" y="220.76" ry="0" />
<rect style="fill:#3B83A0;fill-opacity:1;stroke-width:2;stroke-miterlimit:4;stroke-dasharray:none" id="rect3777" width="25.00" height="1.14" x="70.00" y="220.83" ry="0" />
<rect style="fill:#3B7CA0;fill-opacity:1;stroke-width:2;stroke-miterlimit:4;stroke-dasharray:none" id="rect3777" width="25.00" height="2.05" x="105.00" y="222.20" ry="0" />
<rect style="fill:#3B7CA0;fill-opacity:1;stroke-width:2;stroke-miterlimit:4;stroke-dasharray:none" id="rect3777" width="25.00" height="2.05" x="70.00" y="222.20" ry="0" />
<rect style="fill:#3B75A0;fill-opacity:1;stroke-width:2;stroke-miterlimit:4;stroke-dasharray:none" id="rect3777" width="25.00" height="1.82" x="105.00" y="224.39" ry="0" />
<rect style="fill:#3B75A0;fill-opacity:1;stroke-width:2;stroke-miterlimit:4;stroke-dasharray:none" id="rect3777" width="25.00" height="1.67" x="70.00" y="224.47" ry="0" />
<rect style="fill:#3B6EA0;fill-opacity:1;stroke-width:2;stroke-miterlimit:4;stroke-dasharray:none" id="rect3777" width="25.00" height="0.91" x="105.00" y="226.36" ry="0" />
<rect style="fill:#3B6EA0;fill-opacity:1;stroke-width:2;stroke-miterlimit:4;stroke-dasharray:none" id="rect3777" width="25.00" height="0.76" x="70.00" y="226.44" ry="0" />
<rect style="fill:#3B67A0;fill-opacity:1;stroke-width:2;stroke-miterlimit:4;stroke-dasharray:none" id="rect3777" width="25.00" height="1.44" x="105.00" y="231.59" ry="0" />
<rect style="fill:#3B67A0;fill-opacity:1;stroke-width:2;stroke-miterlimit:4;stroke-dasharray:none" id="rect3777" width="25.00" height="1.21" x="70.00" y="231.74" ry="0" />
<rect style="fill:#3B60A0;fill-opacity:1;stroke-width:2;stroke-miterlimit:4;stroke-dasharray:none" id="rect3777" width="25.00" height="0.91" x="105.00" y="233.33" ry="0" />
<rect style="fill:#3B60A0;fill-opacity:1;stroke-width:2;stroke-miterlimit:4;stroke-dasharray:none" id="rect3777" width="25.00" height="0.76" x="70.00" y="233.41" ry="0" />
<rect style="fill:#3B59A0;fill-opacity:1;stroke-width:2;stroke-miterlimit:4;stroke-dasharray:none" id="rect3777" width="25.00" height="1.52" x="105.00" y="235.23" ry="0" />
<rect style="fill:#3B59A0;fill-opacity:1;stroke-width:2;stroke-miterlimit:4;stroke-dasharray:none" id="rect3777" width="25.00" height="1.36" x="70.00" y="235.38" ry="0" />
<rect style="fill:#3B52A0;fill-opacity:1;stroke-width:2;stroke-miterlimit:4;stroke-dasharray:none" id="rect3777" width="25.00" height="0.83" x="105.00" y="239.62" ry="0" />
<rect style="fill:#3B52A0;fill-opacity:1;stroke-width:2;stroke-miterlimit:4;stroke-dasharray:none" id="rect3777" width="25.00" height="0.61" x="70.00" y="239.85" ry="0" />
<rect style="fill:#3B4BA0;fill-opacity:1;stroke-width:2;stroke-miterlimit:4;stroke-dasharray:none" id="rect3777" width="25.00" height="0.83" x="105.00" y="245.38" ry="0" />
<rect style="fill:#3B4BA0;fill-opacity:1;stroke-width:2;stroke-miterlimit:4;stroke-dasharray:none" id="rect3777" width="25.00" height="0.68" x="70.00" y="245.45" ry="0" />
<rect style="fill:#3B44A0;fill-opacity:1;stroke-width:2;stroke-miterlimit:4;stroke-dasharray:none" id="rect3777" width="25.00" height="2.05" x="105.00" y="249.24" ry="0" />
<rect style="fill:#3B44A0;fill-opacity:1;stroke-width:2;stroke-miterlimit:4;stroke-dasharray:none" id="rect3777" width="25.00" height="1.89" x="70.00" y="249.32" ry="0" />
<rect style="fill:#3B3DA0;fill-opacity:1;stroke-width:2;stroke-miterlimit:4;stroke-dasharray:none" id="rect3777" width="25.00" height="1.36" x="105.00" y="253.48" ry="0" />
<rect style="fill:#3B3DA0;fill-opacity:1;stroke-width:2;stroke-miterlimit:4;stroke-dasharray:none" id="rect3777" width="25.00" height="1.06" x="70.00" y="253.64" ry="0" />
<rect style="fill:#413BA0;fill-opacity:1;stroke-width:2;stroke-miterlimit:4;stroke-dasharray:none" id="rect3777" width="25.00" height="0.83" x="105.00" y="259.62" ry="0" />
<rect style="fill:#413BA0;fill-opacity:1;stroke-width:2;stroke-miterlimit:4;stroke-dasharray:none" id="rect3777" width="25.00" height="0.61" x="70.00" y="259.77" ry="0" />
<rect style="fill:#473BA0;fill-opacity:1;stroke-width:2;stroke-miterlimit:4;stroke-dasharray:none" id="rect3777" width="25.00" height="2.12" x="105.00" y="260.91" ry="0" />
<rect style="fill:#473BA0;fill-opacity:1;stroke-width:2;stroke-miterlimit:4;stroke-dasharray:none" id="rect3777" width="25.00" height="1.97" x="70.00" y="261.06" ry="0" />
<rect style="fill:#4E3BA0;fill-opacity:1;stroke-width:2;stroke-miterlimit:4;stroke-dasharray:none" id="rect3777" width="25.00" height="1.29" x="105.00" y="264.02" ry="0" />
<rect style="fill:#4E3BA0;fill-opacity:1;stroke-width:2;stroke-miterlimit:4;stroke-dasharray:none" id="rect3777" width="25.00" height="1.14" x="70.00" y="264.17" ry="0" />
<rect style="fill:#553BA0;fill-opacity:1;stroke-width:2;stroke-miterlimit:4;stroke-dasharray:none" id="rect3777" width="25.00" height="0.91" x="105.00" y="269.85" ry="0" />
<rect style="fill:#553BA0;fill-opacity:1;stroke-width:2;stroke-miterlimit:4;stroke-dasharray:none" id="rect3777" width="25.00" height="0.83" x="70.00" y="269.92" ry="0" />
<rect style="fill:#5D3BA0;fill-opacity:1;stroke-width:2;stroke-miterlimit:4;stroke-dasharray:none" id="rect3777" width="25.00" height="1.06" x="105.00" y="275.61" ry="0" />
<rect style="fill:#5D3BA0;fill-opacity:1;stroke-width:2;stroke-miterlimit:4;stroke-dasharray:none" id="rect3777" width="25.00" height="0.91" x="70.00" y="275.68" ry="0" />
<rect style="fill:#643BA0;fill-opacity:1;stroke-width:2;stroke-miterlimit:4;stroke-dasharray:none" id="rect3777" width="25.00" height="1.59" x="105.00" y="280.98" ry="0" />
<rect style="fill:#643BA0;fill-opacity:1;stroke-width:2;stroke-miterlimit:4;stroke-dasharray:none" id="rect3777" width="25.00" height="1.36" x="70.00" y="281.14" ry="0" />
<rect style="fill:#6A3BA0;fill-opacity:1;stroke-width:2;stroke-miterlimit:4;stroke-dasharray:none" id="rect3777" width="25.00" height="1.82" x="105.00" y="285.00" ry="0" />
<rect style="fill:#6A3BA0;fill-opacity:1;stroke-width:2;stroke-miterlimit:4;stroke-dasharray:none" id="rect3777" width="25.00" height="1.59" x="70.00" y="285.15" ry="0" />
<rect style="fill:#713BA0;fill-opacity:1;stroke-width:2;stroke-miterlimit:4;stroke-dasharray:none" id="rect3777" width="25.00" height="1.21" x="105.00" y="290.15" ry="0" />
<rect style="fill:#713BA0;fill-opacity:1;stroke-width:2;stroke-miterlimit:4;stroke-dasharray:none" id="rect3777" width="25.00" height="0.91" x="70.00" y="290.30" ry="0" />
<rect style="fill:#793BA0;fill-opacity:1;stroke-width:2;stroke-miterlimit:4;stroke-dasharray:none" id="rect3777" width="25.00" height="0.83" x="105.00" y="292.73" ry="0" />
<rect style="fill:#793BA0;fill-opacity:1;stroke-width:2;stroke-miterlimit:4;stroke-dasharray:none" id="rect3777" width="25.00" height="0.61" x="70.00" y="292.88" ry="0" />
<rect style="fill:#803BA0;fill-opacity:1;stroke-width:2;stroke-miterlimit:4;stroke-dasharray:none" id="rect3777" width="25.00" height="1.82" x="105.00" y="295.91" ry="0" />
<rect style="fill:#803BA0;fill-opacity:1;stroke-width:2;stroke-miterlimit:4;stroke-dasharray:none" id="rect3777" width="25.00" height="1.67" x="70.00" y="296.06" ry="0" />
<rect style="fill:#873BA0;fill-opacity:1;stroke-width:2;stroke-miterlimit:4;stroke-dasharray:none" id="rect3777" width="25.00" height="0.83" x="105.00" y="300.83" ry="0" />
<rect style="fill:#873BA0;fill-opacity:1;stroke-width:2;stroke-miterlimit:4;stroke-dasharray:none" id="rect3777" width="25.00" height="0.68" x="70.00" y="300.91" ry="0" />
<rect style="fill:#8D3BA0;fill-opacity:1;stroke-width:2;stroke-miterlimit:4;stroke-dasharray:none" id="rect3777" width="25.00" height="1.21" x="105.00" y="306.44" ry="0" />
<rect style="fill:#8D3BA0;fill-opacity:1;stroke-width:2;stroke-miterlimit:4;stroke-dasharray:none" id="rect3777" width="25.00" height="1.14" x="70.00" y="306.44" ry="0" />
<rect style="fill:#953BA0;fill-opacity:1;stroke-width:2;stroke-miterlimit:4;stroke-dasharray:none" id="rect3777" width="25.00" height="0.76" x="105.00" y="315.83" ry="0" />
<rect style="fill:#953BA0;fill-opacity:1;stroke-width:2;stroke-miterlimit:4;stroke-dasharray:none" id="rect3777" width="25.00" height="0.68" x="70.00" y="315.91" ry="0" />
<rect style="fill:#9C3BA0;fill-opacity:1;stroke-width:2;stroke-miterlimit:4;stroke-dasharray:none" id="rect3777" width="25.00" height="1.44" x="105.00" y="327.20" ry="0" />
<rect style="fill:#9C3BA0;fill-opacity:1;stroke-width:2;stroke-miterlimit:4;stroke-dasharray:none" id="rect3777" width="25.00" height="1.14" x="70.00" y="327.35" ry="0" />
<rect style="fill:#A03B9D;fill-opacity:1;stroke-width:2;stroke-miterlimit:4;stroke-dasharray:none" id="rect3777" width="25.00" height="0.83" x="105.00" y="338.03" ry="0" />
<rect style="fill:#A03B9D;fill-opacity:1;stroke-width:2;stroke-miterlimit:4;stroke-dasharray:none" id="rect3777" width="25.00" height="0.53" x="70.00" y="338.26" ry="0" />
<rect style="fill:#A03B96;fill-opacity:1;stroke-width:2;stroke-miterlimit:4;stroke-dasharray:none" id="rect3777" width="25.00" height="0.98" x="105.00" y="341.82" ry="0" />
<rect style="fill:#A03B96;fill-opacity:1;stroke-width:2;stroke-miterlimit:4;stroke-dasharray:none" id="rect3777" width="25.00" height="0.83" x="70.00" y="341.89" ry="0" />
<rect style="fill:#A03B8F;fill-opacity:1;stroke-width:2;stroke-miterlimit:4;stroke-dasharray:none" id="rect3777" width="25.00" height="1.29" x="105.00" y="350.00" ry="0" />
<rect style="fill:#A03B8F;fill-opacity:1;stroke-width:2;stroke-miterlimit:4;stroke-dasharray:none" id="rect3777" width="25.00" height="1.14" x="70.00" y="350.08" ry="0" />
<rect style="fill:#A03B88;fill-opacity:1;stroke-width:2;stroke-miterlimit:4;stroke-dasharray:none" id="rect3777" width="25.00" height="0.98" x="105.00" y="353.56" ry="0" />
<rect style="fill:#A03B88;fill-opacity:1;stroke-width:2;stroke-miterlimit:4;stroke-dasharray:none" id="rect3777" width="25.00" height="0.76" x="70.00" y="353.71" ry="0" />
<rect style="fill:#A03B81;fill-opacity:1;stroke-width:2;stroke-miterlimit:4;stroke-dasharray:none" id="rect3777" width="25.00" height="0.83" x="105.00" y="363.03" ry="0" />
<rect style="fill:#A03B81;fill-opacity:1;stroke-width:2;stroke-miterlimit:4;stroke-dasharray:none" id="rect3777" width="25.00" height="0.68" x="70.00" y="363.11" ry="0" />
<rect style="fill:#A03B79;fill-opacity:1;stroke-width:2;stroke-miterlimit:4;stroke-dasharray:none" id="rect3777" width="25.00" height="0.76" x="105.00" y="364.92" ry="0" />
<rect style="fill:#A03B79;fill-opacity:1;stroke-width:2;stroke-miterlimit:4;stroke-dasharray:none" id="rect3777" width="25.00" height="0.61" x="70.00" y="365.08" ry="0" />
<rect style="fill:#A03B73;fill-opacity:1;stroke-width:2;stroke-miterlimit:4;stroke-dasharray:none" id="rect3777" width="25.00" height="1.59" x="105.00" y="370.45" ry="0" />
<rect style="fill:#A03B73;fill-opacity:1;stroke-width:2;stroke-miterlimit:4;stroke-dasharray:none" id="rect3777" width="25.00" height="1.44" x="70.00" y="370.53" ry="0" />
<rect style="fill:#A03B6C;fill-opacity:1;stroke-width:2;stroke-miterlimit:4;stroke-dasharray:none" id="rect3777" width="25.00" height="0.91" x="105.00" y="373.64" ry="0" />
<rect style="fill:#A03B6C;fill-opacity:1;stroke-width:2;stroke-miterlimit:4;stroke-dasharray:none" id="rect3777" width="25.00" height="0.68" x="70.00" y="373.79" ry="0" />
<rect style="fill:#A03B65;fill-opacity:1;stroke-width:2;stroke-miterlimit:4;stroke-dasharray:none" id="rect3777" width="25.00" height="0.91" x="105.00" y="385.98" ry="0" />
<rect style="fill-opacity:1;stroke-width:2;stroke-miterlimit:4;stroke-dasharray:none;fill:url(#Wavy);fill-rule:nonzero;opacity:1" id="rect6217" width="25.00" height="0.91" x="105.00" y="385.98" ry="0" />
<rect style="fill:#A03B65;fill-opacity:1;stroke-width:2;stroke-miterlimit:4;stroke-dasharray:none" id="rect3777" width="25.00" height="0.68" x="70.00" y="438.33" ry="0" />
<rect style="fill:#A03B5D;fill-opacity:1;stroke-width:2;stroke-miterlimit:4;stroke-dasharray:none" id="rect3777" width="25.00" height="0.83" x="105.00" y="446.44" ry="0" />
<rect style="fill-opacity:1;stroke-width:2;stroke-miterlimit:4;stroke-dasharray:none;fill:url(#Wavy);fill-rule:nonzero;opacity:1" id="rect6217" width="25.00" height="0.83" x="105.00" y="446.44" ry="0" />
<rect style="fill:#A03B5D;fill-opacity:1;stroke-width:2;stroke-miterlimit:4;stroke-dasharray:none" id="rect3777" width="25.00" height="0.68" x="70.00" y="377.88" ry="0" />
<path d="m 69.50,74.50 0,13.00 c 0, -8.31 6.69, -13.00 13.00, -13.00 l -13.00,0 z m 13.00,0 c 8.31,0 13.00,6.69 13.00,13.00 l 0,-13.00 -13.00,0 z" id="rect3787" style="fill:#fff;fill-opacity:1;fill-rule:nonzero;stroke:none" /><path d="m 95.50,825.58 0,-13.00 c 0,8.31 -6.69, 13.00 -13.00, 13.00 l 13.00,0 z m -13.00,0 c -8.31,0 -13.00,-6.69 -13.00,-13.00 l 0,13.00 13.00,0 z" id="rect3787" style="fill:#fff;fill-opacity:1;fill-rule:nonzero;stroke:none" /><rect style="fill:none;stroke:#000000;stroke-width:2;stroke-linecap:butt;stroke-linejoin:miter;stroke-miterlimit:4;stroke-opacity:1;stroke-dasharray:none" id="rect2985" width="25.00" height="750.08" x="70.00" y="75.00" ry="12.5" />
<path d="m 104.50,74.50 0,13.00 c 0, -8.31 6.69, -13.00 13.00, -13.00 l -13.00,0 z m 13.00,0 c 8.31,0 13.00,6.69 13.00,13.00 l 0,-13.00 -13.00,0 z" id="rect3787" style="fill:#fff;fill-opacity:1;fill-rule:nonzero;stroke:none" /><path d="m 130.50,825.58 0,-13.00 c 0,8.31 -6.69, 13.00 -13.00, 13.00 l 13.00,0 z m -13.00,0 c -8.31,0 -13.00,-6.69 -13.00,-13.00 l 0,13.00 13.00,0 z" id="rect3787" style="fill:#fff;fill-opacity:1;fill-rule:nonzero;stroke:none" /><rect style="fill:none;stroke:#000000;stroke-width:2;stroke-linecap:butt;stroke-linejoin:miter;stroke-miterlimit:4;stroke-opacity:1;stroke-dasharray:none" id="rect2985" width="25.00" height="750.08" x="105.00" y="75.00" ry="12.5" />
</g>
</svg>