<?xml version="1.0" encoding="UTF-8" standalone="no"?>
<!-- IEETA 2014 using Inkscape -->
<svg
xmlns:osb="http://www.openswatchbook.org/uri/2009/osb"
xmlns:dc="http://purl.org/dc/elements/1.1/"
xmlns:cc="http://creativecommons.org/ns#"
xmlns:rdf="http://www.w3.org/1999/02/22-rdf-syntax-ns#"
xmlns:svg="http://www.w3.org/2000/svg"
xmlns="http://www.w3.org/2000/svg"
xmlns:sodipodi="http://sodipodi.sourceforge.net/DTD/sodipodi-0.dtd"
xmlns:inkscape="http://www.inkscape.org/namespaces/inkscape"
width="200.000000"
height="900.075008"
id="svg2"
version="1.1"
inkscape:version="0.48.3.1 r9886"
sodipodi:docname="chromosomes">
<defs
id="defs4">
<linearGradient id="linearGradient3755" osb:paint="solid">
<stop style="stop-color:#aa00ff;stop-opacity:1;" offset="0"
id="stop3757" />
</linearGradient>
</defs>
<sodipodi:namedview id="base" pagecolor="#ffffff"
bordercolor="#666666" borderopacity="1.0"
inkscape:pageopacity="0.0" inkscape:pageshadow="2"
inkscape:zoom="0.49497475" inkscape:cx="159.73474"
inkscape:cy="681.53008" inkscape:document-units="px"
inkscape:current-layer="layer1" showgrid="false"
inkscape:window-width="1066" inkscape:window-height="790"
inkscape:window-x="278" inkscape:window-y="1106"
inkscape:window-maximized="1" />
<metadata id="metadata7">
<rdf:RDF>
<cc:Work rdf:about="">
<dc:format>image/svg+xml</dc:format>
<dc:type rdf:resource="http://purl.org/dc/dcmitype/StillImage" />
<dc:title></dc:title>
</cc:Work>
</rdf:RDF>
</metadata>
<g inkscape:label="Camada 1" inkscape:groupmode="layer" id="layer1" >
<defs id="defs6211"><pattern inkscape:stockid="Polka dots, large" id="Polkadots-large" patternTransform="translate(0,0)scale(10,10)" height="10" width="10" patternUnits="userSpaceOnUse" inkscape:collect="always"> <circle id="circle4936" r="0.45" cy="0.810" cx="2.567" style="fill:black;stroke:none" /><circle id="circle4938" r="0.45" cy="2.33" cx="3.048" style="fill:black;stroke:none" /><circle id="circle4940" r="0.45" cy="2.415" cx="4.418" style="fill:black;stroke:none" /><circle id="circle4942" r="0.45" cy="3.029" cx="1.844" style="fill:black;stroke:none" /><circle id="circle4944" r="0.45" cy="1.363" cx="6.08" style="fill:black;stroke:none" /><circle id="circle4946" r="0.45" cy="4.413" cx="5.819" style="fill:black;stroke:none" /><circle id="circle4948" r="0.45" cy="4.048" cx="4.305" style="fill:black;stroke:none" /><circle id="circle4950" r="0.45" cy="3.045" cx="5.541" style="fill:black;stroke:none" /><circle id="circle4952" r="0.45" cy="5.527" cx="4.785" style="fill:black;stroke:none" /><circle id="circle4954" r="0.45" cy="5.184" cx="2.667" style="fill:black;stroke:none" /><circle id="circle4956" r="0.45" cy="1.448" cx="7.965" style="fill:black;stroke:none" /><circle id="circle4958" r="0.45" cy="5.049" cx="7.047" style="fill:black;stroke:none" /><circle id="circle4960" r="0.45" cy="0.895" cx="4.340" style="fill:black;stroke:none" /><circle id="circle4962" r="0.45" cy="0.340" cx="7.125" style="fill:black;stroke:none" /><circle id="circle4964" r="0.45" cy="1.049" cx="9.553" style="fill:black;stroke:none" /><circle id="circle4966" r="0.45" cy="2.689" cx="7.006" style="fill:black;stroke:none" /><circle id="circle4968" r="0.45" cy="2.689" cx="8.909" style="fill:black;stroke:none" /><circle id="circle4970" r="0.45" cy="4.407" cx="9.315" style="fill:black;stroke:none" /><circle id="circle4972" r="0.45" cy="3.870" cx="7.820" style="fill:black;stroke:none" /><circle id="circle4974" r="0.45" cy="5.948" cx="8.270" style="fill:black;stroke:none" /><circle id="circle4976" r="0.45" cy="7.428" cx="7.973" style="fill:black;stroke:none" /><circle id="circle4978" r="0.45" cy="8.072" cx="9.342" style="fill:black;stroke:none" /><circle id="circle4980" r="0.45" cy="9.315" cx="8.206" style="fill:black;stroke:none" /><circle id="circle4982" r="0.45" cy="9.475" cx="9.682" style="fill:black;stroke:none" /><circle id="circle4984" r="0.45" cy="6.186" cx="9.688" style="fill:black;stroke:none" /><circle id="circle4986" r="0.45" cy="6.296" cx="3.379" style="fill:black;stroke:none" /><circle id="circle4988" r="0.45" cy="8.204" cx="2.871" style="fill:black;stroke:none" /><circle id="circle4990" r="0.45" cy="8.719" cx="4.59" style="fill:black;stroke:none" /><circle id="circle4992" r="0.45" cy="9.671" cx="3.181" style="fill:black;stroke:none" /><circle id="circle4994" r="0.45" cy="7.315" cx="5.734" style="fill:black;stroke:none" /><circle id="circle4996" r="0.45" cy="6.513" cx="6.707" style="fill:black;stroke:none" /><circle id="circle4998" r="0.45" cy="9.670" cx="5.730" style="fill:black;stroke:none" /><circle id="circle5000" r="0.45" cy="8.373" cx="6.535" style="fill:black;stroke:none" /><circle id="circle5002" r="0.45" cy="7.154" cx="4.37" style="fill:black;stroke:none" /><circle id="circle5004" r="0.45" cy="7.25" cx="0.622" style="fill:black;stroke:none" /><circle id="circle5006" r="0.45" cy="5.679" cx="0.831" style="fill:black;stroke:none" /><circle id="circle5008" r="0.45" cy="8.519" cx="1.257" style="fill:black;stroke:none" /><circle id="circle5010" r="0.45" cy="6.877" cx="1.989" style="fill:black;stroke:none" /><circle id="circle5012" r="0.45" cy="3.181" cx="0.374" style="fill:black;stroke:none" /><circle id="circle5014" r="0.45" cy="1.664" cx="1.166" style="fill:black;stroke:none" /><circle id="circle5016" r="0.45" cy="0.093" cx="1.151" style="fill:black;stroke:none" /><circle id="circle5018" r="0.45" cy="10.093" cx="1.151" style="fill:black;stroke:none" /><circle id="circle5020" r="0.45" cy="4.451" cx="1.302" style="fill:black;stroke:none" /><circle id="circle5022" r="0.45" cy="3.763" cx="3.047" style="fill:black;stroke:none" /></pattern></defs><defs id="ffff"><pattern inkscape:stockid="Wavy" id="Wavy" height="5.1805778" width="30.0" patternUnits="userSpaceOnUse" inkscape:collect="always"><path id="path5114" d="M 7.597,0.061 C 5.079,-0.187 2.656,0.302 -0.01,1.788 L -0.01,3.061 C 2.773,1.431 5.173,1.052 7.472,1.280 C 9.770,1.508 11.969,2.361 14.253,3.218 C 18.820,4.931 23.804,6.676 30.066,3.061 L 30.062,1.788 C 23.622,5.497 19.246,3.770 14.691,2.061 C 12.413,1.207 10.115,0.311 7.597,0.061 z " style="fill:black;stroke:none;" /></pattern></defs><defs id="defs6219"><pattern inkscape:stockid="xtrace" id="xtrace" height="20.0" width="20.0" patternUnits="userSpaceOnUse" inkscape:collect="always"><path style="fill:#000000;stroke:#000000;stroke-width:0.30;stroke-linecap:butt;stroke-linejoin:miter;stroke-opacity:1;stroke-miterlimit:0;stroke-dasharray:none;fill-opacity:1" d="m 0.0,10.0 25.00000,-25.0 0,5 -25.00000,25.00000 z" id="path7213" inkscape:connector-curvature="0" /><path style="fill:#000000;fill-opacity:1;stroke:#000000;stroke-width:0.30;stroke-linecap:butt;stroke-linejoin:miter;stroke-miterlimit:0;stroke-opacity:1;stroke-dasharray:none" d="m 0.0,30.0 25.00000,-25.0 0,5 -25.00000,25.00000 z" id="path7213-8" inkscape:connector-curvature="0" /><path style="fill:#000000;fill-opacity:1;stroke:#000000;stroke-width:0.30;stroke-linecap:butt;stroke-linejoin:miter;stroke-miterlimit:0;stroke-opacity:1;stroke-dasharray:none" d="m 0.0,50.0 25.00000,-25.0 0,5 -25.00000,25.00000 z" id="path7213-9" inkscape:connector-curvature="0" /><path style="fill:#000000;fill-opacity:1;stroke:#000000;stroke-width:0.30;stroke-linecap:butt;stroke-linejoin:miter;stroke-miterlimit:0;stroke-opacity:1;stroke-dasharray:none" d="m 0.0,70.0 25.00000,-25.0 0,5 -25.00000,25.00000 z" id="path7213-10" inkscape:connector-curvature="0" /><path style="fill:#000000;fill-opacity:1;stroke:#000000;stroke-width:0.30;stroke-linecap:butt;stroke-linejoin:miter;stroke-miterlimit:0;stroke-opacity:1;stroke-dasharray:none" d="m 0.0,90.0 25.00000,-25.0 0,5 -25.00000,25.00000 z" id="path7213-11" inkscape:connector-curvature="0" /><path style="fill:#000000;fill-opacity:1;stroke:#000000;stroke-width:0.30;stroke-linecap:butt;stroke-linejoin:miter;stroke-miterlimit:0;stroke-opacity:1;stroke-dasharray:none" d="m m 0.0,110.0 25.00000,-25.0 0,05 -25.00000,25.00000 z" id="path7213-12" inkscape:connector-curvature="0" /></pattern></defs><defs id="defs4"><pattern id="dallas" patternTransform="translate(106.59375,206.90625)" height="4.75" width="4.75" patternUnits="userSpaceOnUse"> <path style="fill:none;stroke:#000000;stroke-width:1;stroke-linecap:butt;stroke-linejoin:miter;stroke-miterlimit:0;stroke-opacity:1;stroke-dasharray:none" d="m -0.00788,2.37557 4.76251,0" id="path2985" /><path style="fill:none;stroke:#000000;stroke-width:1;stroke-linecap:butt;stroke-linejoin:miter;stroke-miterlimit:0;stroke-opacity:1;stroke-dasharray:none" d="m 2.37338,-0.00568 0,4.76251" id="path2985-1" /></pattern></defs><defs id="defs4"><pattern id="lineX" patternTransform="translate(106.59375,206.90625)" height="4.75" width="4.75" patternUnits="userSpaceOnUse"> <path style="fill:none;stroke:#000000;stroke-width:1;stroke-linecap:butt;stroke-linejoin:miter;stroke-miterlimit:0;stroke-opacity:1;stroke-dasharray:none" d="m -0.00788,2.37557 4.76251,0" id="path2985" /></pattern></defs><defs id="defs4"><pattern id="stripeX" patternTransform="translate(106.59375,206.90625)" height="4.75" width="4.75" patternUnits="userSpaceOnUse"> <path style="fill:none;stroke:#000000;stroke-width:1;stroke-linecap:butt;stroke-linejoin:miter;stroke-miterlimit:0;stroke-opacity:1;stroke-dasharray:none" d="m 2.37338,-0.00568 0,4.76251" id="path2985-1" /></pattern></defs><rect style="fill:#ffffff;fill-opacity:1;stroke-width:2;stroke-miterlimit:4;stroke-dasharray:none" id="rect3777" width="200.00" height="900.08" x="0.00" y="0.00" ry="0" />
<rect style="fill:#ffffff;fill-opacity:1;stroke-width:2;stroke-miterlimit:4;stroke-dasharray:none" id="rectx" width="25.00" height="750.08" x="70.00" y="75.00" ry="12.5" />
<rect style="fill:#ffffff;fill-opacity:1;stroke-width:2;stroke-miterlimit:4;stroke-dasharray:none" id="rectx" width="25.00" height="750.08" x="70.00" y="75.00" ry="12.5" />
<rect style="fill:#A03C3B;fill-opacity:1;stroke-width:2;stroke-miterlimit:4;stroke-dasharray:none" id="rect3777" width="25.00" height="1.14" x="105.00" y="75.61" ry="0" />
<rect style="fill:#A03C3B;fill-opacity:1;stroke-width:2;stroke-miterlimit:4;stroke-dasharray:none" id="rect3777" width="25.00" height="0.91" x="70.00" y="75.76" ry="0" />
<rect style="fill:#A0413B;fill-opacity:1;stroke-width:2;stroke-miterlimit:4;stroke-dasharray:none" id="rect3777" width="25.00" height="0.38" x="105.00" y="77.42" ry="0" />
<rect style="fill:#A0413B;fill-opacity:1;stroke-width:2;stroke-miterlimit:4;stroke-dasharray:none" id="rect3777" width="25.00" height="0.23" x="70.00" y="77.50" ry="0" />
<rect style="fill:#A0453B;fill-opacity:1;stroke-width:2;stroke-miterlimit:4;stroke-dasharray:none" id="rect3777" width="25.00" height="0.45" x="105.00" y="78.11" ry="0" />
<rect style="fill:#A0453B;fill-opacity:1;stroke-width:2;stroke-miterlimit:4;stroke-dasharray:none" id="rect3777" width="25.00" height="0.38" x="70.00" y="78.18" ry="0" />
<rect style="fill:#A04A3B;fill-opacity:1;stroke-width:2;stroke-miterlimit:4;stroke-dasharray:none" id="rect3777" width="25.00" height="1.21" x="105.00" y="79.09" ry="0" />
<rect style="fill:#A04A3B;fill-opacity:1;stroke-width:2;stroke-miterlimit:4;stroke-dasharray:none" id="rect3777" width="25.00" height="0.98" x="70.00" y="79.32" ry="0" />
<rect style="fill:#A04E3B;fill-opacity:1;stroke-width:2;stroke-miterlimit:4;stroke-dasharray:none" id="rect3777" width="25.00" height="0.15" x="105.00" y="81.14" ry="0" />
<rect style="fill:#A0533B;fill-opacity:1;stroke-width:2;stroke-miterlimit:4;stroke-dasharray:none" id="rect3777" width="25.00" height="0.30" x="105.00" y="81.82" ry="0" />
<rect style="fill:#A0583B;fill-opacity:1;stroke-width:2;stroke-miterlimit:4;stroke-dasharray:none" id="rect3777" width="25.00" height="0.38" x="105.00" y="82.80" ry="0" />
<rect style="fill:#A0583B;fill-opacity:1;stroke-width:2;stroke-miterlimit:4;stroke-dasharray:none" id="rect3777" width="25.00" height="0.23" x="70.00" y="82.88" ry="0" />
<rect style="fill:#A05D3B;fill-opacity:1;stroke-width:2;stroke-miterlimit:4;stroke-dasharray:none" id="rect3777" width="25.00" height="0.45" x="105.00" y="83.71" ry="0" />
<rect style="fill:#A0613B;fill-opacity:1;stroke-width:2;stroke-miterlimit:4;stroke-dasharray:none" id="rect3777" width="25.00" height="1.06" x="105.00" y="85.15" ry="0" />
<rect style="fill:#A0613B;fill-opacity:1;stroke-width:2;stroke-miterlimit:4;stroke-dasharray:none" id="rect3777" width="25.00" height="0.91" x="70.00" y="85.23" ry="0" />
<rect style="fill:#A0663B;fill-opacity:1;stroke-width:2;stroke-miterlimit:4;stroke-dasharray:none" id="rect3777" width="25.00" height="0.45" x="105.00" y="88.03" ry="0" />
<rect style="fill:#A0663B;fill-opacity:1;stroke-width:2;stroke-miterlimit:4;stroke-dasharray:none" id="rect3777" width="25.00" height="0.30" x="70.00" y="88.11" ry="0" />
<rect style="fill:#A06A3B;fill-opacity:1;stroke-width:2;stroke-miterlimit:4;stroke-dasharray:none" id="rect3777" width="25.00" height="0.91" x="105.00" y="88.86" ry="0" />
<rect style="fill:#A06A3B;fill-opacity:1;stroke-width:2;stroke-miterlimit:4;stroke-dasharray:none" id="rect3777" width="25.00" height="0.68" x="70.00" y="89.02" ry="0" />
<rect style="fill:#A06F3B;fill-opacity:1;stroke-width:2;stroke-miterlimit:4;stroke-dasharray:none" id="rect3777" width="25.00" height="0.53" x="105.00" y="90.00" ry="0" />
<rect style="fill:#A06F3B;fill-opacity:1;stroke-width:2;stroke-miterlimit:4;stroke-dasharray:none" id="rect3777" width="25.00" height="0.45" x="70.00" y="90.08" ry="0" />
<rect style="fill:#A0743B;fill-opacity:1;stroke-width:2;stroke-miterlimit:4;stroke-dasharray:none" id="rect3777" width="25.00" height="0.53" x="105.00" y="90.83" ry="0" />
<rect style="fill:#A0743B;fill-opacity:1;stroke-width:2;stroke-miterlimit:4;stroke-dasharray:none" id="rect3777" width="25.00" height="0.38" x="70.00" y="90.91" ry="0" />
<rect style="fill:#A0793B;fill-opacity:1;stroke-width:2;stroke-miterlimit:4;stroke-dasharray:none" id="rect3777" width="25.00" height="0.08" x="105.00" y="92.05" ry="0" />
<rect style="fill:#A07D3B;fill-opacity:1;stroke-width:2;stroke-miterlimit:4;stroke-dasharray:none" id="rect3777" width="25.00" height="0.30" x="105.00" y="92.50" ry="0" />
<rect style="fill:#A07D3B;fill-opacity:1;stroke-width:2;stroke-miterlimit:4;stroke-dasharray:none" id="rect3777" width="25.00" height="0.23" x="70.00" y="92.58" ry="0" />
<rect style="fill:#A0823B;fill-opacity:1;stroke-width:2;stroke-miterlimit:4;stroke-dasharray:none" id="rect3777" width="25.00" height="0.38" x="105.00" y="93.56" ry="0" />
<rect style="fill:#A0873B;fill-opacity:1;stroke-width:2;stroke-miterlimit:4;stroke-dasharray:none" id="rect3777" width="25.00" height="0.30" x="105.00" y="95.08" ry="0" />
<rect style="fill:#A08C3B;fill-opacity:1;stroke-width:2;stroke-miterlimit:4;stroke-dasharray:none" id="rect3777" width="25.00" height="0.61" x="105.00" y="96.14" ry="0" />
<rect style="fill:#A08C3B;fill-opacity:1;stroke-width:2;stroke-miterlimit:4;stroke-dasharray:none" id="rect3777" width="25.00" height="0.53" x="70.00" y="96.14" ry="0" />
<rect style="fill:#A0903B;fill-opacity:1;stroke-width:2;stroke-miterlimit:4;stroke-dasharray:none" id="rect3777" width="25.00" height="0.08" x="105.00" y="97.20" ry="0" />
<rect style="fill:#A0953B;fill-opacity:1;stroke-width:2;stroke-miterlimit:4;stroke-dasharray:none" id="rect3777" width="25.00" height="0.61" x="105.00" y="97.80" ry="0" />
<rect style="fill:#A0953B;fill-opacity:1;stroke-width:2;stroke-miterlimit:4;stroke-dasharray:none" id="rect3777" width="25.00" height="0.30" x="70.00" y="98.03" ry="0" />
<rect style="fill:#A0993B;fill-opacity:1;stroke-width:2;stroke-miterlimit:4;stroke-dasharray:none" id="rect3777" width="25.00" height="0.38" x="105.00" y="100.38" ry="0" />
<rect style="fill:#A0993B;fill-opacity:1;stroke-width:2;stroke-miterlimit:4;stroke-dasharray:none" id="rect3777" width="25.00" height="0.15" x="70.00" y="100.53" ry="0" />
<rect style="fill:#A09E3B;fill-opacity:1;stroke-width:2;stroke-miterlimit:4;stroke-dasharray:none" id="rect3777" width="25.00" height="0.68" x="105.00" y="104.24" ry="0" />
<rect style="fill:#A09E3B;fill-opacity:1;stroke-width:2;stroke-miterlimit:4;stroke-dasharray:none" id="rect3777" width="25.00" height="0.38" x="70.00" y="104.47" ry="0" />
<rect style="fill:#9DA03B;fill-opacity:1;stroke-width:2;stroke-miterlimit:4;stroke-dasharray:none" id="rect3777" width="25.00" height="0.45" x="105.00" y="105.76" ry="0" />
<rect style="fill:#9DA03B;fill-opacity:1;stroke-width:2;stroke-miterlimit:4;stroke-dasharray:none" id="rect3777" width="25.00" height="0.30" x="70.00" y="105.91" ry="0" />
<rect style="fill:#98A03B;fill-opacity:1;stroke-width:2;stroke-miterlimit:4;stroke-dasharray:none" id="rect3777" width="25.00" height="0.38" x="105.00" y="107.65" ry="0" />
<rect style="fill:#98A03B;fill-opacity:1;stroke-width:2;stroke-miterlimit:4;stroke-dasharray:none" id="rect3777" width="25.00" height="0.30" x="70.00" y="107.73" ry="0" />
<rect style="fill:#94A03B;fill-opacity:1;stroke-width:2;stroke-miterlimit:4;stroke-dasharray:none" id="rect3777" width="25.00" height="0.83" x="105.00" y="109.62" ry="0" />
<rect style="fill:#94A03B;fill-opacity:1;stroke-width:2;stroke-miterlimit:4;stroke-dasharray:none" id="rect3777" width="25.00" height="0.68" x="70.00" y="109.77" ry="0" />
<rect style="fill:#8FA03B;fill-opacity:1;stroke-width:2;stroke-miterlimit:4;stroke-dasharray:none" id="rect3777" width="25.00" height="0.23" x="105.00" y="111.21" ry="0" />
<rect style="fill:#8AA03B;fill-opacity:1;stroke-width:2;stroke-miterlimit:4;stroke-dasharray:none" id="rect3777" width="25.00" height="0.08" x="105.00" y="113.18" ry="0" />
<rect style="fill:#85A03B;fill-opacity:1;stroke-width:2;stroke-miterlimit:4;stroke-dasharray:none" id="rect3777" width="25.00" height="0.30" x="105.00" y="114.70" ry="0" />
<rect style="fill:#81A03B;fill-opacity:1;stroke-width:2;stroke-miterlimit:4;stroke-dasharray:none" id="rect3777" width="25.00" height="0.83" x="105.00" y="115.61" ry="0" />
<rect style="fill:#81A03B;fill-opacity:1;stroke-width:2;stroke-miterlimit:4;stroke-dasharray:none" id="rect3777" width="25.00" height="0.68" x="70.00" y="115.76" ry="0" />
<rect style="fill:#7CA03B;fill-opacity:1;stroke-width:2;stroke-miterlimit:4;stroke-dasharray:none" id="rect3777" width="25.00" height="1.21" x="105.00" y="116.97" ry="0" />
<rect style="fill:#7CA03B;fill-opacity:1;stroke-width:2;stroke-miterlimit:4;stroke-dasharray:none" id="rect3777" width="25.00" height="1.14" x="70.00" y="117.05" ry="0" />
<rect style="fill:#78A03B;fill-opacity:1;stroke-width:2;stroke-miterlimit:4;stroke-dasharray:none" id="rect3777" width="25.00" height="0.23" x="105.00" y="118.64" ry="0" />
<rect style="fill:#73A03B;fill-opacity:1;stroke-width:2;stroke-miterlimit:4;stroke-dasharray:none" id="rect3777" width="25.00" height="0.38" x="105.00" y="119.85" ry="0" />
<rect style="fill:#6EA03B;fill-opacity:1;stroke-width:2;stroke-miterlimit:4;stroke-dasharray:none" id="rect3777" width="25.00" height="0.68" x="105.00" y="120.98" ry="0" />
<rect style="fill:#6EA03B;fill-opacity:1;stroke-width:2;stroke-miterlimit:4;stroke-dasharray:none" id="rect3777" width="25.00" height="0.30" x="70.00" y="121.14" ry="0" />
<rect style="fill:#69A03B;fill-opacity:1;stroke-width:2;stroke-miterlimit:4;stroke-dasharray:none" id="rect3777" width="25.00" height="1.59" x="105.00" y="122.80" ry="0" />
<rect style="fill:#69A03B;fill-opacity:1;stroke-width:2;stroke-miterlimit:4;stroke-dasharray:none" id="rect3777" width="25.00" height="1.36" x="70.00" y="122.95" ry="0" />
<rect style="fill:#65A03B;fill-opacity:1;stroke-width:2;stroke-miterlimit:4;stroke-dasharray:none" id="rect3777" width="25.00" height="0.30" x="105.00" y="125.68" ry="0" />
<rect style="fill:#60A03B;fill-opacity:1;stroke-width:2;stroke-miterlimit:4;stroke-dasharray:none" id="rect3777" width="25.00" height="0.68" x="105.00" y="126.89" ry="0" />
<rect style="fill:#60A03B;fill-opacity:1;stroke-width:2;stroke-miterlimit:4;stroke-dasharray:none" id="rect3777" width="25.00" height="0.45" x="70.00" y="126.97" ry="0" />
<rect style="fill:#5BA03B;fill-opacity:1;stroke-width:2;stroke-miterlimit:4;stroke-dasharray:none" id="rect3777" width="25.00" height="0.30" x="105.00" y="129.62" ry="0" />
<rect style="fill:#5BA03B;fill-opacity:1;stroke-width:2;stroke-miterlimit:4;stroke-dasharray:none" id="rect3777" width="25.00" height="0.08" x="70.00" y="129.77" ry="0" />
<rect style="fill:#56A03B;fill-opacity:1;stroke-width:2;stroke-miterlimit:4;stroke-dasharray:none" id="rect3777" width="25.00" height="0.38" x="105.00" y="130.38" ry="0" />
<rect style="fill:#56A03B;fill-opacity:1;stroke-width:2;stroke-miterlimit:4;stroke-dasharray:none" id="rect3777" width="25.00" height="0.08" x="70.00" y="130.53" ry="0" />
<rect style="fill:#52A03B;fill-opacity:1;stroke-width:2;stroke-miterlimit:4;stroke-dasharray:none" id="rect3777" width="25.00" height="0.08" x="105.00" y="131.14" ry="0" />
<rect style="fill:#4DA03B;fill-opacity:1;stroke-width:2;stroke-miterlimit:4;stroke-dasharray:none" id="rect3777" width="25.00" height="0.30" x="105.00" y="135.30" ry="0" />
<rect style="fill:#49A03B;fill-opacity:1;stroke-width:2;stroke-miterlimit:4;stroke-dasharray:none" id="rect3777" width="25.00" height="0.15" x="105.00" y="136.52" ry="0" />
<rect style="fill:#44A03B;fill-opacity:1;stroke-width:2;stroke-miterlimit:4;stroke-dasharray:none" id="rect3777" width="25.00" height="0.15" x="105.00" y="139.17" ry="0" />
<rect style="fill:#3FA03B;fill-opacity:1;stroke-width:2;stroke-miterlimit:4;stroke-dasharray:none" id="rect3777" width="25.00" height="0.53" x="105.00" y="139.62" ry="0" />
<rect style="fill:#3FA03B;fill-opacity:1;stroke-width:2;stroke-miterlimit:4;stroke-dasharray:none" id="rect3777" width="25.00" height="0.38" x="70.00" y="139.70" ry="0" />
<rect style="fill:#3BA03C;fill-opacity:1;stroke-width:2;stroke-miterlimit:4;stroke-dasharray:none" id="rect3777" width="25.00" height="0.76" x="105.00" y="140.38" ry="0" />
<rect style="fill:#3BA03C;fill-opacity:1;stroke-width:2;stroke-miterlimit:4;stroke-dasharray:none" id="rect3777" width="25.00" height="0.45" x="70.00" y="140.53" ry="0" />
<rect style="fill:#3BA041;fill-opacity:1;stroke-width:2;stroke-miterlimit:4;stroke-dasharray:none" id="rect3777" width="25.00" height="0.61" x="105.00" y="142.05" ry="0" />
<rect style="fill:#3BA041;fill-opacity:1;stroke-width:2;stroke-miterlimit:4;stroke-dasharray:none" id="rect3777" width="25.00" height="0.38" x="70.00" y="142.20" ry="0" />
<rect style="fill:#3BA045;fill-opacity:1;stroke-width:2;stroke-miterlimit:4;stroke-dasharray:none" id="rect3777" width="25.00" height="0.61" x="105.00" y="143.94" ry="0" />
<rect style="fill:#3BA045;fill-opacity:1;stroke-width:2;stroke-miterlimit:4;stroke-dasharray:none" id="rect3777" width="25.00" height="0.38" x="70.00" y="144.09" ry="0" />
<rect style="fill:#3BA04A;fill-opacity:1;stroke-width:2;stroke-miterlimit:4;stroke-dasharray:none" id="rect3777" width="25.00" height="0.30" x="105.00" y="145.45" ry="0" />
<rect style="fill:#3BA04A;fill-opacity:1;stroke-width:2;stroke-miterlimit:4;stroke-dasharray:none" id="rect3777" width="25.00" height="0.15" x="70.00" y="145.61" ry="0" />
<rect style="fill:#3BA04E;fill-opacity:1;stroke-width:2;stroke-miterlimit:4;stroke-dasharray:none" id="rect3777" width="25.00" height="0.38" x="105.00" y="146.14" ry="0" />
<rect style="fill:#3BA04E;fill-opacity:1;stroke-width:2;stroke-miterlimit:4;stroke-dasharray:none" id="rect3777" width="25.00" height="0.30" x="70.00" y="146.21" ry="0" />
<rect style="fill:#3BA053;fill-opacity:1;stroke-width:2;stroke-miterlimit:4;stroke-dasharray:none" id="rect3777" width="25.00" height="1.21" x="105.00" y="147.05" ry="0" />
<rect style="fill:#3BA053;fill-opacity:1;stroke-width:2;stroke-miterlimit:4;stroke-dasharray:none" id="rect3777" width="25.00" height="0.98" x="70.00" y="147.20" ry="0" />
<rect style="fill:#3BA058;fill-opacity:1;stroke-width:2;stroke-miterlimit:4;stroke-dasharray:none" id="rect3777" width="25.00" height="0.53" x="105.00" y="149.24" ry="0" />
<rect style="fill:#3BA058;fill-opacity:1;stroke-width:2;stroke-miterlimit:4;stroke-dasharray:none" id="rect3777" width="25.00" height="0.38" x="70.00" y="149.32" ry="0" />
<rect style="fill:#3BA05D;fill-opacity:1;stroke-width:2;stroke-miterlimit:4;stroke-dasharray:none" id="rect3777" width="25.00" height="0.08" x="105.00" y="149.92" ry="0" />
<rect style="fill:#3BA061;fill-opacity:1;stroke-width:2;stroke-miterlimit:4;stroke-dasharray:none" id="rect3777" width="25.00" height="0.45" x="105.00" y="150.45" ry="0" />
<rect style="fill:#3BA061;fill-opacity:1;stroke-width:2;stroke-miterlimit:4;stroke-dasharray:none" id="rect3777" width="25.00" height="0.23" x="70.00" y="150.61" ry="0" />
<rect style="fill:#3BA066;fill-opacity:1;stroke-width:2;stroke-miterlimit:4;stroke-dasharray:none" id="rect3777" width="25.00" height="0.30" x="105.00" y="151.97" ry="0" />
<rect style="fill:#3BA066;fill-opacity:1;stroke-width:2;stroke-miterlimit:4;stroke-dasharray:none" id="rect3777" width="25.00" height="0.08" x="70.00" y="152.12" ry="0" />
<rect style="fill:#3BA06A;fill-opacity:1;stroke-width:2;stroke-miterlimit:4;stroke-dasharray:none" id="rect3777" width="25.00" height="0.91" x="105.00" y="153.41" ry="0" />
<rect style="fill:#3BA06A;fill-opacity:1;stroke-width:2;stroke-miterlimit:4;stroke-dasharray:none" id="rect3777" width="25.00" height="0.53" x="70.00" y="153.64" ry="0" />
<rect style="fill:#3BA06F;fill-opacity:1;stroke-width:2;stroke-miterlimit:4;stroke-dasharray:none" id="rect3777" width="25.00" height="0.38" x="105.00" y="160.30" ry="0" />
<rect style="fill:#3BA06F;fill-opacity:1;stroke-width:2;stroke-miterlimit:4;stroke-dasharray:none" id="rect3777" width="25.00" height="0.15" x="70.00" y="160.45" ry="0" />
<rect style="fill:#3BA074;fill-opacity:1;stroke-width:2;stroke-miterlimit:4;stroke-dasharray:none" id="rect3777" width="25.00" height="0.08" x="105.00" y="161.59" ry="0" />
<rect style="fill:#3BA079;fill-opacity:1;stroke-width:2;stroke-miterlimit:4;stroke-dasharray:none" id="rect3777" width="25.00" height="0.30" x="105.00" y="163.03" ry="0" />
<rect style="fill:#3BA07D;fill-opacity:1;stroke-width:2;stroke-miterlimit:4;stroke-dasharray:none" id="rect3777" width="25.00" height="0.23" x="105.00" y="164.09" ry="0" />
<rect style="fill:#3BA082;fill-opacity:1;stroke-width:2;stroke-miterlimit:4;stroke-dasharray:none" id="rect3777" width="25.00" height="0.38" x="105.00" y="164.62" ry="0" />
<rect style="fill:#3BA087;fill-opacity:1;stroke-width:2;stroke-miterlimit:4;stroke-dasharray:none" id="rect3777" width="25.00" height="0.08" x="105.00" y="168.79" ry="0" />
<rect style="fill:#3BA08C;fill-opacity:1;stroke-width:2;stroke-miterlimit:4;stroke-dasharray:none" id="rect3777" width="25.00" height="0.45" x="105.00" y="170.30" ry="0" />
<rect style="fill:#3BA08C;fill-opacity:1;stroke-width:2;stroke-miterlimit:4;stroke-dasharray:none" id="rect3777" width="25.00" height="0.23" x="70.00" y="170.45" ry="0" />
<rect style="fill:#3BA090;fill-opacity:1;stroke-width:2;stroke-miterlimit:4;stroke-dasharray:none" id="rect3777" width="25.00" height="0.23" x="105.00" y="171.29" ry="0" />
<rect style="fill:#3BA095;fill-opacity:1;stroke-width:2;stroke-miterlimit:4;stroke-dasharray:none" id="rect3777" width="25.00" height="0.61" x="105.00" y="172.80" ry="0" />
<rect style="fill:#3BA095;fill-opacity:1;stroke-width:2;stroke-miterlimit:4;stroke-dasharray:none" id="rect3777" width="25.00" height="0.30" x="70.00" y="172.95" ry="0" />
<rect style="fill:#3BA099;fill-opacity:1;stroke-width:2;stroke-miterlimit:4;stroke-dasharray:none" id="rect3777" width="25.00" height="0.38" x="105.00" y="174.92" ry="0" />
<rect style="fill:#3BA099;fill-opacity:1;stroke-width:2;stroke-miterlimit:4;stroke-dasharray:none" id="rect3777" width="25.00" height="0.23" x="70.00" y="175.08" ry="0" />
<rect style="fill:#3BA09E;fill-opacity:1;stroke-width:2;stroke-miterlimit:4;stroke-dasharray:none" id="rect3777" width="25.00" height="0.08" x="105.00" y="175.76" ry="0" />
<rect style="fill:#3B9DA0;fill-opacity:1;stroke-width:2;stroke-miterlimit:4;stroke-dasharray:none" id="rect3777" width="25.00" height="0.61" x="105.00" y="176.36" ry="0" />
<rect style="fill:#3B9DA0;fill-opacity:1;stroke-width:2;stroke-miterlimit:4;stroke-dasharray:none" id="rect3777" width="25.00" height="0.38" x="70.00" y="176.52" ry="0" />
<rect style="fill:#3B98A0;fill-opacity:1;stroke-width:2;stroke-miterlimit:4;stroke-dasharray:none" id="rect3777" width="25.00" height="0.53" x="105.00" y="178.71" ry="0" />
<rect style="fill:#3B98A0;fill-opacity:1;stroke-width:2;stroke-miterlimit:4;stroke-dasharray:none" id="rect3777" width="25.00" height="0.08" x="70.00" y="178.94" ry="0" />
<rect style="fill:#3B94A0;fill-opacity:1;stroke-width:2;stroke-miterlimit:4;stroke-dasharray:none" id="rect3777" width="25.00" height="0.15" x="105.00" y="181.67" ry="0" />
<rect style="fill:#3B8FA0;fill-opacity:1;stroke-width:2;stroke-miterlimit:4;stroke-dasharray:none" id="rect3777" width="25.00" height="0.30" x="105.00" y="184.09" ry="0" />
<rect style="fill:#3B8AA0;fill-opacity:1;stroke-width:2;stroke-miterlimit:4;stroke-dasharray:none" id="rect3777" width="25.00" height="0.30" x="105.00" y="186.36" ry="0" />
<rect style="fill:#3B85A0;fill-opacity:1;stroke-width:2;stroke-miterlimit:4;stroke-dasharray:none" id="rect3777" width="25.00" height="0.23" x="105.00" y="189.47" ry="0" />
<rect style="fill:#3B81A0;fill-opacity:1;stroke-width:2;stroke-miterlimit:4;stroke-dasharray:none" id="rect3777" width="25.00" height="0.45" x="105.00" y="190.15" ry="0" />
<rect style="fill:#3B81A0;fill-opacity:1;stroke-width:2;stroke-miterlimit:4;stroke-dasharray:none" id="rect3777" width="25.00" height="0.08" x="70.00" y="190.38" ry="0" />
<rect style="fill:#3B7CA0;fill-opacity:1;stroke-width:2;stroke-miterlimit:4;stroke-dasharray:none" id="rect3777" width="25.00" height="0.38" x="105.00" y="191.67" ry="0" />
<rect style="fill:#3B7CA0;fill-opacity:1;stroke-width:2;stroke-miterlimit:4;stroke-dasharray:none" id="rect3777" width="25.00" height="0.15" x="70.00" y="191.82" ry="0" />
<rect style="fill:#3B78A0;fill-opacity:1;stroke-width:2;stroke-miterlimit:4;stroke-dasharray:none" id="rect3777" width="25.00" height="0.83" x="105.00" y="193.79" ry="0" />
<rect style="fill:#3B78A0;fill-opacity:1;stroke-width:2;stroke-miterlimit:4;stroke-dasharray:none" id="rect3777" width="25.00" height="0.53" x="70.00" y="194.02" ry="0" />
<rect style="fill:#3B73A0;fill-opacity:1;stroke-width:2;stroke-miterlimit:4;stroke-dasharray:none" id="rect3777" width="25.00" height="0.15" x="105.00" y="195.15" ry="0" />
<rect style="fill:#3B6EA0;fill-opacity:1;stroke-width:2;stroke-miterlimit:4;stroke-dasharray:none" id="rect3777" width="25.00" height="0.30" x="105.00" y="195.83" ry="0" />
<rect style="fill:#3B69A0;fill-opacity:1;stroke-width:2;stroke-miterlimit:4;stroke-dasharray:none" id="rect3777" width="25.00" height="0.08" x="105.00" y="197.12" ry="0" />
<rect style="fill:#3B65A0;fill-opacity:1;stroke-width:2;stroke-miterlimit:4;stroke-dasharray:none" id="rect3777" width="25.00" height="0.30" x="105.00" y="198.03" ry="0" />
<rect style="fill:#3B60A0;fill-opacity:1;stroke-width:2;stroke-miterlimit:4;stroke-dasharray:none" id="rect3777" width="25.00" height="0.30" x="105.00" y="199.32" ry="0" />
<rect style="fill:#3B60A0;fill-opacity:1;stroke-width:2;stroke-miterlimit:4;stroke-dasharray:none" id="rect3777" width="25.00" height="0.15" x="70.00" y="199.39" ry="0" />
<rect style="fill:#3B5BA0;fill-opacity:1;stroke-width:2;stroke-miterlimit:4;stroke-dasharray:none" id="rect3777" width="25.00" height="0.45" x="105.00" y="200.76" ry="0" />
<rect style="fill:#3B56A0;fill-opacity:1;stroke-width:2;stroke-miterlimit:4;stroke-dasharray:none" id="rect3777" width="25.00" height="0.30" x="105.00" y="205.83" ry="0" />
<rect style="fill:#3B56A0;fill-opacity:1;stroke-width:2;stroke-miterlimit:4;stroke-dasharray:none" id="rect3777" width="25.00" height="0.08" x="70.00" y="205.98" ry="0" />
<rect style="fill:#3B52A0;fill-opacity:1;stroke-width:2;stroke-miterlimit:4;stroke-dasharray:none" id="rect3777" width="25.00" height="0.76" x="105.00" y="207.42" ry="0" />
<rect style="fill:#3B52A0;fill-opacity:1;stroke-width:2;stroke-miterlimit:4;stroke-dasharray:none" id="rect3777" width="25.00" height="0.61" x="70.00" y="207.50" ry="0" />
<rect style="fill:#3B4DA0;fill-opacity:1;stroke-width:2;stroke-miterlimit:4;stroke-dasharray:none" id="rect3777" width="25.00" height="0.38" x="105.00" y="208.41" ry="0" />
<rect style="fill:#3B49A0;fill-opacity:1;stroke-width:2;stroke-miterlimit:4;stroke-dasharray:none" id="rect3777" width="25.00" height="0.30" x="105.00" y="209.32" ry="0" />
<rect style="fill:#3B44A0;fill-opacity:1;stroke-width:2;stroke-miterlimit:4;stroke-dasharray:none" id="rect3777" width="25.00" height="0.23" x="105.00" y="212.65" ry="0" />
<rect style="fill:#3B3FA0;fill-opacity:1;stroke-width:2;stroke-miterlimit:4;stroke-dasharray:none" id="rect3777" width="25.00" height="0.45" x="105.00" y="214.02" ry="0" />
<rect style="fill:#3C3BA0;fill-opacity:1;stroke-width:2;stroke-miterlimit:4;stroke-dasharray:none" id="rect3777" width="25.00" height="0.76" x="105.00" y="215.83" ry="0" />
<rect style="fill:#3C3BA0;fill-opacity:1;stroke-width:2;stroke-miterlimit:4;stroke-dasharray:none" id="rect3777" width="25.00" height="0.53" x="70.00" y="215.98" ry="0" />
<rect style="fill:#413BA0;fill-opacity:1;stroke-width:2;stroke-miterlimit:4;stroke-dasharray:none" id="rect3777" width="25.00" height="0.53" x="105.00" y="217.58" ry="0" />
<rect style="fill:#413BA0;fill-opacity:1;stroke-width:2;stroke-miterlimit:4;stroke-dasharray:none" id="rect3777" width="25.00" height="0.15" x="70.00" y="217.80" ry="0" />
<rect style="fill:#453BA0;fill-opacity:1;stroke-width:2;stroke-miterlimit:4;stroke-dasharray:none" id="rect3777" width="25.00" height="0.15" x="105.00" y="219.39" ry="0" />
<rect style="fill:#4A3BA0;fill-opacity:1;stroke-width:2;stroke-miterlimit:4;stroke-dasharray:none" id="rect3777" width="25.00" height="0.15" x="105.00" y="221.67" ry="0" />
<rect style="fill:#4E3BA0;fill-opacity:1;stroke-width:2;stroke-miterlimit:4;stroke-dasharray:none" id="rect3777" width="25.00" height="0.53" x="105.00" y="222.50" ry="0" />
<rect style="fill:#4E3BA0;fill-opacity:1;stroke-width:2;stroke-miterlimit:4;stroke-dasharray:none" id="rect3777" width="25.00" height="0.38" x="70.00" y="222.58" ry="0" />
<rect style="fill:#533BA0;fill-opacity:1;stroke-width:2;stroke-miterlimit:4;stroke-dasharray:none" id="rect3777" width="25.00" height="0.38" x="105.00" y="224.85" ry="0" />
<rect style="fill:#533BA0;fill-opacity:1;stroke-width:2;stroke-miterlimit:4;stroke-dasharray:none" id="rect3777" width="25.00" height="0.08" x="70.00" y="225.00" ry="0" />
<rect style="fill:#583BA0;fill-opacity:1;stroke-width:2;stroke-miterlimit:4;stroke-dasharray:none" id="rect3777" width="25.00" height="0.30" x="105.00" y="227.88" ry="0" />
<rect style="fill:#583BA0;fill-opacity:1;stroke-width:2;stroke-miterlimit:4;stroke-dasharray:none" id="rect3777" width="25.00" height="0.23" x="70.00" y="227.95" ry="0" />
<rect style="fill:#5D3BA0;fill-opacity:1;stroke-width:2;stroke-miterlimit:4;stroke-dasharray:none" id="rect3777" width="25.00" height="0.23" x="105.00" y="232.12" ry="0" />
<rect style="fill:#613BA0;fill-opacity:1;stroke-width:2;stroke-miterlimit:4;stroke-dasharray:none" id="rect3777" width="25.00" height="0.53" x="105.00" y="233.48" ry="0" />
<rect style="fill:#613BA0;fill-opacity:1;stroke-width:2;stroke-miterlimit:4;stroke-dasharray:none" id="rect3777" width="25.00" height="0.23" x="70.00" y="233.71" ry="0" />
<rect style="fill:#663BA0;fill-opacity:1;stroke-width:2;stroke-miterlimit:4;stroke-dasharray:none" id="rect3777" width="25.00" height="0.15" x="105.00" y="236.44" ry="0" />
<rect style="fill:#6A3BA0;fill-opacity:1;stroke-width:2;stroke-miterlimit:4;stroke-dasharray:none" id="rect3777" width="25.00" height="0.15" x="105.00" y="240.76" ry="0" />
<rect style="fill:#6F3BA0;fill-opacity:1;stroke-width:2;stroke-miterlimit:4;stroke-dasharray:none" id="rect3777" width="25.00" height="0.38" x="105.00" y="246.21" ry="0" />
<rect style="fill:#6F3BA0;fill-opacity:1;stroke-width:2;stroke-miterlimit:4;stroke-dasharray:none" id="rect3777" width="25.00" height="0.15" x="70.00" y="246.36" ry="0" />
<rect style="fill:#743BA0;fill-opacity:1;stroke-width:2;stroke-miterlimit:4;stroke-dasharray:none" id="rect3777" width="25.00" height="0.38" x="105.00" y="249.47" ry="0" />
<rect style="fill:#743BA0;fill-opacity:1;stroke-width:2;stroke-miterlimit:4;stroke-dasharray:none" id="rect3777" width="25.00" height="0.23" x="70.00" y="249.55" ry="0" />
<rect style="fill:#793BA0;fill-opacity:1;stroke-width:2;stroke-miterlimit:4;stroke-dasharray:none" id="rect3777" width="25.00" height="0.30" x="105.00" y="250.30" ry="0" />
<rect style="fill:#7D3BA0;fill-opacity:1;stroke-width:2;stroke-miterlimit:4;stroke-dasharray:none" id="rect3777" width="25.00" height="0.15" x="105.00" y="263.26" ry="0" />
<rect style="fill:#823BA0;fill-opacity:1;stroke-width:2;stroke-miterlimit:4;stroke-dasharray:none" id="rect3777" width="25.00" height="0.08" x="105.00" y="270.15" ry="0" />
<rect style="fill:#873BA0;fill-opacity:1;stroke-width:2;stroke-miterlimit:4;stroke-dasharray:none" id="rect3777" width="25.00" height="0.23" x="105.00" y="275.83" ry="0" />
<rect style="fill:#8C3BA0;fill-opacity:1;stroke-width:2;stroke-miterlimit:4;stroke-dasharray:none" id="rect3777" width="25.00" height="0.23" x="105.00" y="276.36" ry="0" />
<rect style="fill:#903BA0;fill-opacity:1;stroke-width:2;stroke-miterlimit:4;stroke-dasharray:none" id="rect3777" width="25.00" height="0.15" x="105.00" y="277.05" ry="0" />
<rect style="fill:#953BA0;fill-opacity:1;stroke-width:2;stroke-miterlimit:4;stroke-dasharray:none" id="rect3777" width="25.00" height="0.15" x="105.00" y="280.98" ry="0" />
<rect style="fill:#993BA0;fill-opacity:1;stroke-width:2;stroke-miterlimit:4;stroke-dasharray:none" id="rect3777" width="25.00" height="0.68" x="105.00" y="285.91" ry="0" />
<rect style="fill:#993BA0;fill-opacity:1;stroke-width:2;stroke-miterlimit:4;stroke-dasharray:none" id="rect3777" width="25.00" height="0.45" x="70.00" y="286.06" ry="0" />
<rect style="fill:#9E3BA0;fill-opacity:1;stroke-width:2;stroke-miterlimit:4;stroke-dasharray:none" id="rect3777" width="25.00" height="0.15" x="105.00" y="288.71" ry="0" />
<rect style="fill:#A03B9D;fill-opacity:1;stroke-width:2;stroke-miterlimit:4;stroke-dasharray:none" id="rect3777" width="25.00" height="0.30" x="105.00" y="363.33" ry="0" />
<rect style="fill:#A03B9D;fill-opacity:1;stroke-width:2;stroke-miterlimit:4;stroke-dasharray:none" id="rect3777" width="25.00" height="0.15" x="70.00" y="363.48" ry="0" />
<rect style="fill:#A03B98;fill-opacity:1;stroke-width:2;stroke-miterlimit:4;stroke-dasharray:none" id="rect3777" width="25.00" height="0.08" x="105.00" y="369.70" ry="0" />
<path d="m 69.50,74.50 0,13.00 c 0, -8.31 6.69, -13.00 13.00, -13.00 l -13.00,0 z m 13.00,0 c 8.31,0 13.00,6.69 13.00,13.00 l 0,-13.00 -13.00,0 z" id="rect3787" style="fill:#fff;fill-opacity:1;fill-rule:nonzero;stroke:none" /><path d="m 95.50,825.58 0,-13.00 c 0,8.31 -6.69, 13.00 -13.00, 13.00 l 13.00,0 z m -13.00,0 c -8.31,0 -13.00,-6.69 -13.00,-13.00 l 0,13.00 13.00,0 z" id="rect3787" style="fill:#fff;fill-opacity:1;fill-rule:nonzero;stroke:none" /><rect style="fill:none;stroke:#000000;stroke-width:2;stroke-linecap:butt;stroke-linejoin:miter;stroke-miterlimit:4;stroke-opacity:1;stroke-dasharray:none" id="rect2985" width="25.00" height="750.08" x="70.00" y="75.00" ry="12.5" />
<path d="m 104.50,74.50 0,13.00 c 0, -8.31 6.69, -13.00 13.00, -13.00 l -13.00,0 z m 13.00,0 c 8.31,0 13.00,6.69 13.00,13.00 l 0,-13.00 -13.00,0 z" id="rect3787" style="fill:#fff;fill-opacity:1;fill-rule:nonzero;stroke:none" /><path d="m 130.50,825.58 0,-13.00 c 0,8.31 -6.69, 13.00 -13.00, 13.00 l 13.00,0 z m -13.00,0 c -8.31,0 -13.00,-6.69 -13.00,-13.00 l 0,13.00 13.00,0 z" id="rect3787" style="fill:#fff;fill-opacity:1;fill-rule:nonzero;stroke:none" /><rect style="fill:none;stroke:#000000;stroke-width:2;stroke-linecap:butt;stroke-linejoin:miter;stroke-miterlimit:4;stroke-opacity:1;stroke-dasharray:none" id="rect2985" width="25.00" height="750.08" x="105.00" y="75.00" ry="12.5" />
</g>
</svg>