<?xml version="1.0" encoding="UTF-8" standalone="no"?>
<!-- IEETA 2014 using Inkscape -->
<svg
xmlns:osb="http://www.openswatchbook.org/uri/2009/osb"
xmlns:dc="http://purl.org/dc/elements/1.1/"
xmlns:cc="http://creativecommons.org/ns#"
xmlns:rdf="http://www.w3.org/1999/02/22-rdf-syntax-ns#"
xmlns:svg="http://www.w3.org/2000/svg"
xmlns="http://www.w3.org/2000/svg"
xmlns:sodipodi="http://sodipodi.sourceforge.net/DTD/sodipodi-0.dtd"
xmlns:inkscape="http://www.inkscape.org/namespaces/inkscape"
width="200.000000"
height="900.000000"
id="svg2"
version="1.1"
inkscape:version="0.48.3.1 r9886"
sodipodi:docname="chromosomes">
<defs
id="defs4">
<linearGradient id="linearGradient3755" osb:paint="solid">
<stop style="stop-color:#aa00ff;stop-opacity:1;" offset="0"
id="stop3757" />
</linearGradient>
</defs>
<sodipodi:namedview id="base" pagecolor="#ffffff"
bordercolor="#666666" borderopacity="1.0"
inkscape:pageopacity="0.0" inkscape:pageshadow="2"
inkscape:zoom="0.49497475" inkscape:cx="159.73474"
inkscape:cy="681.53008" inkscape:document-units="px"
inkscape:current-layer="layer1" showgrid="false"
inkscape:window-width="1066" inkscape:window-height="790"
inkscape:window-x="278" inkscape:window-y="1106"
inkscape:window-maximized="1" />
<metadata id="metadata7">
<rdf:RDF>
<cc:Work rdf:about="">
<dc:format>image/svg+xml</dc:format>
<dc:type rdf:resource="http://purl.org/dc/dcmitype/StillImage" />
<dc:title></dc:title>
</cc:Work>
</rdf:RDF>
</metadata>
<g inkscape:label="Camada 1" inkscape:groupmode="layer" id="layer1" >
<defs id="defs6211"><pattern inkscape:stockid="Polka dots, large" id="Polkadots-large" patternTransform="translate(0,0)scale(10,10)" height="10" width="10" patternUnits="userSpaceOnUse" inkscape:collect="always"> <circle id="circle4936" r="0.45" cy="0.810" cx="2.567" style="fill:black;stroke:none" /><circle id="circle4938" r="0.45" cy="2.33" cx="3.048" style="fill:black;stroke:none" /><circle id="circle4940" r="0.45" cy="2.415" cx="4.418" style="fill:black;stroke:none" /><circle id="circle4942" r="0.45" cy="3.029" cx="1.844" style="fill:black;stroke:none" /><circle id="circle4944" r="0.45" cy="1.363" cx="6.08" style="fill:black;stroke:none" /><circle id="circle4946" r="0.45" cy="4.413" cx="5.819" style="fill:black;stroke:none" /><circle id="circle4948" r="0.45" cy="4.048" cx="4.305" style="fill:black;stroke:none" /><circle id="circle4950" r="0.45" cy="3.045" cx="5.541" style="fill:black;stroke:none" /><circle id="circle4952" r="0.45" cy="5.527" cx="4.785" style="fill:black;stroke:none" /><circle id="circle4954" r="0.45" cy="5.184" cx="2.667" style="fill:black;stroke:none" /><circle id="circle4956" r="0.45" cy="1.448" cx="7.965" style="fill:black;stroke:none" /><circle id="circle4958" r="0.45" cy="5.049" cx="7.047" style="fill:black;stroke:none" /><circle id="circle4960" r="0.45" cy="0.895" cx="4.340" style="fill:black;stroke:none" /><circle id="circle4962" r="0.45" cy="0.340" cx="7.125" style="fill:black;stroke:none" /><circle id="circle4964" r="0.45" cy="1.049" cx="9.553" style="fill:black;stroke:none" /><circle id="circle4966" r="0.45" cy="2.689" cx="7.006" style="fill:black;stroke:none" /><circle id="circle4968" r="0.45" cy="2.689" cx="8.909" style="fill:black;stroke:none" /><circle id="circle4970" r="0.45" cy="4.407" cx="9.315" style="fill:black;stroke:none" /><circle id="circle4972" r="0.45" cy="3.870" cx="7.820" style="fill:black;stroke:none" /><circle id="circle4974" r="0.45" cy="5.948" cx="8.270" style="fill:black;stroke:none" /><circle id="circle4976" r="0.45" cy="7.428" cx="7.973" style="fill:black;stroke:none" /><circle id="circle4978" r="0.45" cy="8.072" cx="9.342" style="fill:black;stroke:none" /><circle id="circle4980" r="0.45" cy="9.315" cx="8.206" style="fill:black;stroke:none" /><circle id="circle4982" r="0.45" cy="9.475" cx="9.682" style="fill:black;stroke:none" /><circle id="circle4984" r="0.45" cy="6.186" cx="9.688" style="fill:black;stroke:none" /><circle id="circle4986" r="0.45" cy="6.296" cx="3.379" style="fill:black;stroke:none" /><circle id="circle4988" r="0.45" cy="8.204" cx="2.871" style="fill:black;stroke:none" /><circle id="circle4990" r="0.45" cy="8.719" cx="4.59" style="fill:black;stroke:none" /><circle id="circle4992" r="0.45" cy="9.671" cx="3.181" style="fill:black;stroke:none" /><circle id="circle4994" r="0.45" cy="7.315" cx="5.734" style="fill:black;stroke:none" /><circle id="circle4996" r="0.45" cy="6.513" cx="6.707" style="fill:black;stroke:none" /><circle id="circle4998" r="0.45" cy="9.670" cx="5.730" style="fill:black;stroke:none" /><circle id="circle5000" r="0.45" cy="8.373" cx="6.535" style="fill:black;stroke:none" /><circle id="circle5002" r="0.45" cy="7.154" cx="4.37" style="fill:black;stroke:none" /><circle id="circle5004" r="0.45" cy="7.25" cx="0.622" style="fill:black;stroke:none" /><circle id="circle5006" r="0.45" cy="5.679" cx="0.831" style="fill:black;stroke:none" /><circle id="circle5008" r="0.45" cy="8.519" cx="1.257" style="fill:black;stroke:none" /><circle id="circle5010" r="0.45" cy="6.877" cx="1.989" style="fill:black;stroke:none" /><circle id="circle5012" r="0.45" cy="3.181" cx="0.374" style="fill:black;stroke:none" /><circle id="circle5014" r="0.45" cy="1.664" cx="1.166" style="fill:black;stroke:none" /><circle id="circle5016" r="0.45" cy="0.093" cx="1.151" style="fill:black;stroke:none" /><circle id="circle5018" r="0.45" cy="10.093" cx="1.151" style="fill:black;stroke:none" /><circle id="circle5020" r="0.45" cy="4.451" cx="1.302" style="fill:black;stroke:none" /><circle id="circle5022" r="0.45" cy="3.763" cx="3.047" style="fill:black;stroke:none" /></pattern></defs><defs id="ffff"><pattern inkscape:stockid="Wavy" id="Wavy" height="5.1805778" width="30.0" patternUnits="userSpaceOnUse" inkscape:collect="always"><path id="path5114" d="M 7.597,0.061 C 5.079,-0.187 2.656,0.302 -0.01,1.788 L -0.01,3.061 C 2.773,1.431 5.173,1.052 7.472,1.280 C 9.770,1.508 11.969,2.361 14.253,3.218 C 18.820,4.931 23.804,6.676 30.066,3.061 L 30.062,1.788 C 23.622,5.497 19.246,3.770 14.691,2.061 C 12.413,1.207 10.115,0.311 7.597,0.061 z " style="fill:black;stroke:none;" /></pattern></defs><defs id="defs6219"><pattern inkscape:stockid="xtrace" id="xtrace" height="20.0" width="20.0" patternUnits="userSpaceOnUse" inkscape:collect="always"><path style="fill:#000000;stroke:#000000;stroke-width:0.30;stroke-linecap:butt;stroke-linejoin:miter;stroke-opacity:1;stroke-miterlimit:0;stroke-dasharray:none;fill-opacity:1" d="m 0.0,10.0 25.00000,-25.0 0,5 -25.00000,25.00000 z" id="path7213" inkscape:connector-curvature="0" /><path style="fill:#000000;fill-opacity:1;stroke:#000000;stroke-width:0.30;stroke-linecap:butt;stroke-linejoin:miter;stroke-miterlimit:0;stroke-opacity:1;stroke-dasharray:none" d="m 0.0,30.0 25.00000,-25.0 0,5 -25.00000,25.00000 z" id="path7213-8" inkscape:connector-curvature="0" /><path style="fill:#000000;fill-opacity:1;stroke:#000000;stroke-width:0.30;stroke-linecap:butt;stroke-linejoin:miter;stroke-miterlimit:0;stroke-opacity:1;stroke-dasharray:none" d="m 0.0,50.0 25.00000,-25.0 0,5 -25.00000,25.00000 z" id="path7213-9" inkscape:connector-curvature="0" /><path style="fill:#000000;fill-opacity:1;stroke:#000000;stroke-width:0.30;stroke-linecap:butt;stroke-linejoin:miter;stroke-miterlimit:0;stroke-opacity:1;stroke-dasharray:none" d="m 0.0,70.0 25.00000,-25.0 0,5 -25.00000,25.00000 z" id="path7213-10" inkscape:connector-curvature="0" /><path style="fill:#000000;fill-opacity:1;stroke:#000000;stroke-width:0.30;stroke-linecap:butt;stroke-linejoin:miter;stroke-miterlimit:0;stroke-opacity:1;stroke-dasharray:none" d="m 0.0,90.0 25.00000,-25.0 0,5 -25.00000,25.00000 z" id="path7213-11" inkscape:connector-curvature="0" /><path style="fill:#000000;fill-opacity:1;stroke:#000000;stroke-width:0.30;stroke-linecap:butt;stroke-linejoin:miter;stroke-miterlimit:0;stroke-opacity:1;stroke-dasharray:none" d="m m 0.0,110.0 25.00000,-25.0 0,05 -25.00000,25.00000 z" id="path7213-12" inkscape:connector-curvature="0" /></pattern></defs><defs id="defs4"><pattern id="dallas" patternTransform="translate(106.59375,206.90625)" height="4.75" width="4.75" patternUnits="userSpaceOnUse"> <path style="fill:none;stroke:#000000;stroke-width:1;stroke-linecap:butt;stroke-linejoin:miter;stroke-miterlimit:0;stroke-opacity:1;stroke-dasharray:none" d="m -0.00788,2.37557 4.76251,0" id="path2985" /><path style="fill:none;stroke:#000000;stroke-width:1;stroke-linecap:butt;stroke-linejoin:miter;stroke-miterlimit:0;stroke-opacity:1;stroke-dasharray:none" d="m 2.37338,-0.00568 0,4.76251" id="path2985-1" /></pattern></defs><defs id="defs4"><pattern id="lineX" patternTransform="translate(106.59375,206.90625)" height="4.75" width="4.75" patternUnits="userSpaceOnUse"> <path style="fill:none;stroke:#000000;stroke-width:1;stroke-linecap:butt;stroke-linejoin:miter;stroke-miterlimit:0;stroke-opacity:1;stroke-dasharray:none" d="m -0.00788,2.37557 4.76251,0" id="path2985" /></pattern></defs><defs id="defs4"><pattern id="stripeX" patternTransform="translate(106.59375,206.90625)" height="4.75" width="4.75" patternUnits="userSpaceOnUse"> <path style="fill:none;stroke:#000000;stroke-width:1;stroke-linecap:butt;stroke-linejoin:miter;stroke-miterlimit:0;stroke-opacity:1;stroke-dasharray:none" d="m 2.37338,-0.00568 0,4.76251" id="path2985-1" /></pattern></defs><rect style="fill:#ffffff;fill-opacity:1;stroke-width:2;stroke-miterlimit:4;stroke-dasharray:none" id="rect3777" width="200.00" height="900.00" x="0.00" y="0.00" ry="0" />
<rect style="fill:#ffffff;fill-opacity:1;stroke-width:2;stroke-miterlimit:4;stroke-dasharray:none" id="rectx" width="25.00" height="750.00" x="70.00" y="75.00" ry="12.5" />
<rect style="fill:#ffffff;fill-opacity:1;stroke-width:2;stroke-miterlimit:4;stroke-dasharray:none" id="rectx" width="25.00" height="750.00" x="70.00" y="75.00" ry="12.5" />
<rect style="fill:#A03C3B;fill-opacity:1;stroke-width:2;stroke-miterlimit:4;stroke-dasharray:none" id="rect3777" width="25.00" height="250.03" x="105.00" y="75.00" ry="0" />
<rect style="fill:#A03C3B;fill-opacity:1;stroke-width:2;stroke-miterlimit:4;stroke-dasharray:none" id="rect3777" width="25.00" height="0.15" x="70.00" y="83.48" ry="0" />
<rect style="fill:#A03C3B;fill-opacity:1;stroke-width:2;stroke-miterlimit:4;stroke-dasharray:none" id="rect3777" width="25.00" height="0.38" x="70.00" y="93.40" ry="0" />
<rect style="fill:#A03C3B;fill-opacity:1;stroke-width:2;stroke-miterlimit:4;stroke-dasharray:none" id="rect3777" width="25.00" height="0.08" x="70.00" y="108.04" ry="0" />
<rect style="fill:#A03C3B;fill-opacity:1;stroke-width:2;stroke-miterlimit:4;stroke-dasharray:none" id="rect3777" width="25.00" height="0.30" x="70.00" y="120.35" ry="0" />
<rect style="fill:#A03C3B;fill-opacity:1;stroke-width:2;stroke-miterlimit:4;stroke-dasharray:none" id="rect3777" width="25.00" height="0.30" x="70.00" y="122.30" ry="0" />
<rect style="fill:#A03C3B;fill-opacity:1;stroke-width:2;stroke-miterlimit:4;stroke-dasharray:none" id="rect3777" width="25.00" height="0.15" x="70.00" y="126.58" ry="0" />
<rect style="fill:#A03C3B;fill-opacity:1;stroke-width:2;stroke-miterlimit:4;stroke-dasharray:none" id="rect3777" width="25.00" height="0.38" x="70.00" y="138.37" ry="0" />
<rect style="fill:#A03C3B;fill-opacity:1;stroke-width:2;stroke-miterlimit:4;stroke-dasharray:none" id="rect3777" width="25.00" height="0.30" x="70.00" y="151.81" ry="0" />
<rect style="fill:#A03C3B;fill-opacity:1;stroke-width:2;stroke-miterlimit:4;stroke-dasharray:none" id="rect3777" width="25.00" height="0.38" x="70.00" y="156.62" ry="0" />
<rect style="fill:#A03C3B;fill-opacity:1;stroke-width:2;stroke-miterlimit:4;stroke-dasharray:none" id="rect3777" width="25.00" height="0.45" x="70.00" y="166.75" ry="0" />
<rect style="fill:#A03C3B;fill-opacity:1;stroke-width:2;stroke-miterlimit:4;stroke-dasharray:none" id="rect3777" width="25.00" height="0.15" x="70.00" y="177.94" ry="0" />
<rect style="fill:#A03C3B;fill-opacity:1;stroke-width:2;stroke-miterlimit:4;stroke-dasharray:none" id="rect3777" width="25.00" height="0.08" x="70.00" y="181.99" ry="0" />
<rect style="fill:#A03C3B;fill-opacity:1;stroke-width:2;stroke-miterlimit:4;stroke-dasharray:none" id="rect3777" width="25.00" height="0.08" x="70.00" y="183.95" ry="0" />
<rect style="fill:#A03C3B;fill-opacity:1;stroke-width:2;stroke-miterlimit:4;stroke-dasharray:none" id="rect3777" width="25.00" height="0.38" x="70.00" y="184.55" ry="0" />
<rect style="fill:#A03C3B;fill-opacity:1;stroke-width:2;stroke-miterlimit:4;stroke-dasharray:none" id="rect3777" width="25.00" height="0.23" x="70.00" y="187.32" ry="0" />
<rect style="fill:#A03C3B;fill-opacity:1;stroke-width:2;stroke-miterlimit:4;stroke-dasharray:none" id="rect3777" width="25.00" height="0.23" x="70.00" y="189.28" ry="0" />
<rect style="fill:#A03C3B;fill-opacity:1;stroke-width:2;stroke-miterlimit:4;stroke-dasharray:none" id="rect3777" width="25.00" height="0.30" x="70.00" y="194.16" ry="0" />
<rect style="fill:#A03C3B;fill-opacity:1;stroke-width:2;stroke-miterlimit:4;stroke-dasharray:none" id="rect3777" width="25.00" height="0.23" x="70.00" y="197.99" ry="0" />
<rect style="fill:#A03C3B;fill-opacity:1;stroke-width:2;stroke-miterlimit:4;stroke-dasharray:none" id="rect3777" width="25.00" height="0.15" x="70.00" y="229.30" ry="0" />
<rect style="fill:#A03C3B;fill-opacity:1;stroke-width:2;stroke-miterlimit:4;stroke-dasharray:none" id="rect3777" width="25.00" height="0.08" x="70.00" y="250.24" ry="0" />
<rect style="fill:#A03C3B;fill-opacity:1;stroke-width:2;stroke-miterlimit:4;stroke-dasharray:none" id="rect3777" width="25.00" height="0.38" x="70.00" y="261.88" ry="0" />
<rect style="fill:#A03C3B;fill-opacity:1;stroke-width:2;stroke-miterlimit:4;stroke-dasharray:none" id="rect3777" width="25.00" height="0.23" x="70.00" y="265.04" ry="0" />
<rect style="fill:#A03C3B;fill-opacity:1;stroke-width:2;stroke-miterlimit:4;stroke-dasharray:none" id="rect3777" width="25.00" height="0.15" x="70.00" y="279.75" ry="0" />
<rect style="fill:#A03C3B;fill-opacity:1;stroke-width:2;stroke-miterlimit:4;stroke-dasharray:none" id="rect3777" width="25.00" height="0.23" x="70.00" y="321.27" ry="0" />
<rect style="fill:#A03C3B;fill-opacity:1;stroke-width:2;stroke-miterlimit:4;stroke-dasharray:none" id="rect3777" width="25.00" height="0.08" x="70.00" y="324.95" ry="0" />
<rect style="fill:#A03C3B;fill-opacity:1;stroke-width:2;stroke-miterlimit:4;stroke-dasharray:none" id="rect3777" width="25.00" height="0.53" x="70.00" y="342.52" ry="0" />
<rect style="fill:#A03C3B;fill-opacity:1;stroke-width:2;stroke-miterlimit:4;stroke-dasharray:none" id="rect3777" width="25.00" height="0.08" x="70.00" y="354.69" ry="0" />
<rect style="fill:#A03C3B;fill-opacity:1;stroke-width:2;stroke-miterlimit:4;stroke-dasharray:none" id="rect3777" width="25.00" height="0.08" x="70.00" y="357.91" ry="0" />
<rect style="fill:#A03C3B;fill-opacity:1;stroke-width:2;stroke-miterlimit:4;stroke-dasharray:none" id="rect3777" width="25.00" height="0.08" x="70.00" y="362.72" ry="0" />
<rect style="fill:#A03C3B;fill-opacity:1;stroke-width:2;stroke-miterlimit:4;stroke-dasharray:none" id="rect3777" width="25.00" height="0.45" x="70.00" y="384.34" ry="0" />
<rect style="fill:#A03C3B;fill-opacity:1;stroke-width:2;stroke-miterlimit:4;stroke-dasharray:none" id="rect3777" width="25.00" height="0.08" x="70.00" y="387.87" ry="0" />
<rect style="fill:#A03C3B;fill-opacity:1;stroke-width:2;stroke-miterlimit:4;stroke-dasharray:none" id="rect3777" width="25.00" height="0.30" x="70.00" y="392.83" ry="0" />
<rect style="fill:#A03C3B;fill-opacity:1;stroke-width:2;stroke-miterlimit:4;stroke-dasharray:none" id="rect3777" width="25.00" height="0.15" x="70.00" y="410.32" ry="0" />
<rect style="fill:#A03C3B;fill-opacity:1;stroke-width:2;stroke-miterlimit:4;stroke-dasharray:none" id="rect3777" width="25.00" height="0.23" x="70.00" y="438.25" ry="0" />
<rect style="fill:#A03C3B;fill-opacity:1;stroke-width:2;stroke-miterlimit:4;stroke-dasharray:none" id="rect3777" width="25.00" height="0.38" x="70.00" y="450.04" ry="0" />
<rect style="fill:#A03C3B;fill-opacity:1;stroke-width:2;stroke-miterlimit:4;stroke-dasharray:none" id="rect3777" width="25.00" height="0.15" x="70.00" y="451.32" ry="0" />
<rect style="fill:#A03C3B;fill-opacity:1;stroke-width:2;stroke-miterlimit:4;stroke-dasharray:none" id="rect3777" width="25.00" height="0.08" x="70.00" y="452.22" ry="0" />
<rect style="fill:#A03C3B;fill-opacity:1;stroke-width:2;stroke-miterlimit:4;stroke-dasharray:none" id="rect3777" width="25.00" height="0.08" x="70.00" y="452.37" ry="0" />
<rect style="fill:#A03C3B;fill-opacity:1;stroke-width:2;stroke-miterlimit:4;stroke-dasharray:none" id="rect3777" width="25.00" height="0.23" x="70.00" y="461.38" ry="0" />
<rect style="fill:#A03C3B;fill-opacity:1;stroke-width:2;stroke-miterlimit:4;stroke-dasharray:none" id="rect3777" width="25.00" height="0.38" x="70.00" y="461.83" ry="0" />
<rect style="fill:#A03C3B;fill-opacity:1;stroke-width:2;stroke-miterlimit:4;stroke-dasharray:none" id="rect3777" width="25.00" height="0.30" x="70.00" y="465.88" ry="0" />
<rect style="fill:#A03C3B;fill-opacity:1;stroke-width:2;stroke-miterlimit:4;stroke-dasharray:none" id="rect3777" width="25.00" height="0.15" x="70.00" y="468.51" ry="0" />
<rect style="fill:#A03C3B;fill-opacity:1;stroke-width:2;stroke-miterlimit:4;stroke-dasharray:none" id="rect3777" width="25.00" height="0.53" x="70.00" y="482.48" ry="0" />
<rect style="fill:#A03C3B;fill-opacity:1;stroke-width:2;stroke-miterlimit:4;stroke-dasharray:none" id="rect3777" width="25.00" height="0.15" x="70.00" y="487.88" ry="0" />
<rect style="fill:#A03C3B;fill-opacity:1;stroke-width:2;stroke-miterlimit:4;stroke-dasharray:none" id="rect3777" width="25.00" height="0.08" x="70.00" y="489.61" ry="0" />
<rect style="fill:#A03C3B;fill-opacity:1;stroke-width:2;stroke-miterlimit:4;stroke-dasharray:none" id="rect3777" width="25.00" height="0.15" x="70.00" y="494.87" ry="0" />
<rect style="fill:#A03C3B;fill-opacity:1;stroke-width:2;stroke-miterlimit:4;stroke-dasharray:none" id="rect3777" width="25.00" height="0.23" x="70.00" y="520.62" ry="0" />
<rect style="fill:#A03C3B;fill-opacity:1;stroke-width:2;stroke-miterlimit:4;stroke-dasharray:none" id="rect3777" width="25.00" height="0.53" x="70.00" y="522.05" ry="0" />
<rect style="fill:#A03C3B;fill-opacity:1;stroke-width:2;stroke-miterlimit:4;stroke-dasharray:none" id="rect3777" width="25.00" height="0.23" x="70.00" y="525.35" ry="0" />
<rect style="fill:#A03C3B;fill-opacity:1;stroke-width:2;stroke-miterlimit:4;stroke-dasharray:none" id="rect3777" width="25.00" height="0.23" x="70.00" y="529.85" ry="0" />
<rect style="fill:#A03C3B;fill-opacity:1;stroke-width:2;stroke-miterlimit:4;stroke-dasharray:none" id="rect3777" width="25.00" height="0.23" x="70.00" y="537.66" ry="0" />
<rect style="fill:#A03C3B;fill-opacity:1;stroke-width:2;stroke-miterlimit:4;stroke-dasharray:none" id="rect3777" width="25.00" height="0.23" x="70.00" y="538.56" ry="0" />
<rect style="fill:#A03C3B;fill-opacity:1;stroke-width:2;stroke-miterlimit:4;stroke-dasharray:none" id="rect3777" width="25.00" height="0.23" x="70.00" y="549.23" ry="0" />
<rect style="fill:#A03C3B;fill-opacity:1;stroke-width:2;stroke-miterlimit:4;stroke-dasharray:none" id="rect3777" width="25.00" height="0.45" x="70.00" y="571.75" ry="0" />
<rect style="fill:#A03C3B;fill-opacity:1;stroke-width:2;stroke-miterlimit:4;stroke-dasharray:none" id="rect3777" width="25.00" height="0.15" x="70.00" y="578.73" ry="0" />
<rect style="fill:#A03C3B;fill-opacity:1;stroke-width:2;stroke-miterlimit:4;stroke-dasharray:none" id="rect3777" width="25.00" height="0.23" x="70.00" y="595.10" ry="0" />
<rect style="fill:#A03C3B;fill-opacity:1;stroke-width:2;stroke-miterlimit:4;stroke-dasharray:none" id="rect3777" width="25.00" height="0.15" x="70.00" y="619.65" ry="0" />
<rect style="fill:#A03C3B;fill-opacity:1;stroke-width:2;stroke-miterlimit:4;stroke-dasharray:none" id="rect3777" width="25.00" height="0.23" x="70.00" y="621.53" ry="0" />
<rect style="fill:#A03C3B;fill-opacity:1;stroke-width:2;stroke-miterlimit:4;stroke-dasharray:none" id="rect3777" width="25.00" height="0.15" x="70.00" y="626.49" ry="0" />
<rect style="fill:#A03C3B;fill-opacity:1;stroke-width:2;stroke-miterlimit:4;stroke-dasharray:none" id="rect3777" width="25.00" height="0.23" x="70.00" y="636.70" ry="0" />
<rect style="fill:#A03C3B;fill-opacity:1;stroke-width:2;stroke-miterlimit:4;stroke-dasharray:none" id="rect3777" width="25.00" height="0.53" x="70.00" y="641.35" ry="0" />
<rect style="fill:#A03C3B;fill-opacity:1;stroke-width:2;stroke-miterlimit:4;stroke-dasharray:none" id="rect3777" width="25.00" height="0.15" x="70.00" y="642.71" ry="0" />
<rect style="fill:#A03C3B;fill-opacity:1;stroke-width:2;stroke-miterlimit:4;stroke-dasharray:none" id="rect3777" width="25.00" height="0.30" x="70.00" y="644.36" ry="0" />
<rect style="fill:#A03C3B;fill-opacity:1;stroke-width:2;stroke-miterlimit:4;stroke-dasharray:none" id="rect3777" width="25.00" height="0.53" x="70.00" y="650.74" ry="0" />
<rect style="fill:#A03C3B;fill-opacity:1;stroke-width:2;stroke-miterlimit:4;stroke-dasharray:none" id="rect3777" width="25.00" height="0.15" x="70.00" y="676.87" ry="0" />
<rect style="fill:#A03C3B;fill-opacity:1;stroke-width:2;stroke-miterlimit:4;stroke-dasharray:none" id="rect3777" width="25.00" height="0.45" x="70.00" y="682.05" ry="0" />
<rect style="fill:#A03C3B;fill-opacity:1;stroke-width:2;stroke-miterlimit:4;stroke-dasharray:none" id="rect3777" width="25.00" height="0.08" x="70.00" y="683.63" ry="0" />
<rect style="fill:#A03C3B;fill-opacity:1;stroke-width:2;stroke-miterlimit:4;stroke-dasharray:none" id="rect3777" width="25.00" height="0.08" x="70.00" y="695.49" ry="0" />
<rect style="fill:#A03C3B;fill-opacity:1;stroke-width:2;stroke-miterlimit:4;stroke-dasharray:none" id="rect3777" width="25.00" height="0.38" x="70.00" y="705.17" ry="0" />
<rect style="fill:#A03C3B;fill-opacity:1;stroke-width:2;stroke-miterlimit:4;stroke-dasharray:none" id="rect3777" width="25.00" height="0.30" x="70.00" y="722.07" ry="0" />
<rect style="fill:#A03C3B;fill-opacity:1;stroke-width:2;stroke-miterlimit:4;stroke-dasharray:none" id="rect3777" width="25.00" height="0.08" x="70.00" y="733.33" ry="0" />
<rect style="fill:#A03C3B;fill-opacity:1;stroke-width:2;stroke-miterlimit:4;stroke-dasharray:none" id="rect3777" width="25.00" height="0.23" x="70.00" y="785.66" ry="0" />
<rect style="fill:#A03C3B;fill-opacity:1;stroke-width:2;stroke-miterlimit:4;stroke-dasharray:none" id="rect3777" width="25.00" height="0.30" x="70.00" y="793.32" ry="0" />
<rect style="fill:#A03C3B;fill-opacity:1;stroke-width:2;stroke-miterlimit:4;stroke-dasharray:none" id="rect3777" width="25.00" height="0.23" x="70.00" y="794.52" ry="0" />
<rect style="fill:#A03C3B;fill-opacity:1;stroke-width:2;stroke-miterlimit:4;stroke-dasharray:none" id="rect3777" width="25.00" height="0.15" x="70.00" y="798.13" ry="0" />
<rect style="fill:#A03C3B;fill-opacity:1;stroke-width:2;stroke-miterlimit:4;stroke-dasharray:none" id="rect3777" width="25.00" height="0.30" x="70.00" y="813.74" ry="0" />
<rect style="fill:#3BA09C;fill-opacity:1;stroke-width:2;stroke-miterlimit:4;stroke-dasharray:none" id="rect3777" width="25.00" height="250.03" x="105.00" y="325.03" ry="0" />
<rect style="fill-opacity:1;stroke-width:2;stroke-miterlimit:4;stroke-dasharray:none;fill:url(#Wavy);fill-rule:nonzero;opacity:1" id="rect6217" width="25.00" height="250.03" x="105.00" y="325.03" ry="0" />
<rect style="fill:#3BA09C;fill-opacity:1;stroke-width:2;stroke-miterlimit:4;stroke-dasharray:none" id="rect3777" width="25.00" height="0.30" x="70.00" y="75.75" ry="0" />
<rect style="fill:#3BA09C;fill-opacity:1;stroke-width:2;stroke-miterlimit:4;stroke-dasharray:none" id="rect3777" width="25.00" height="0.30" x="70.00" y="90.02" ry="0" />
<rect style="fill:#3BA09C;fill-opacity:1;stroke-width:2;stroke-miterlimit:4;stroke-dasharray:none" id="rect3777" width="25.00" height="0.23" x="70.00" y="97.83" ry="0" />
<rect style="fill:#3BA09C;fill-opacity:1;stroke-width:2;stroke-miterlimit:4;stroke-dasharray:none" id="rect3777" width="25.00" height="0.08" x="70.00" y="104.28" ry="0" />
<rect style="fill:#3BA09C;fill-opacity:1;stroke-width:2;stroke-miterlimit:4;stroke-dasharray:none" id="rect3777" width="25.00" height="0.38" x="70.00" y="111.49" ry="0" />
<rect style="fill:#3BA09C;fill-opacity:1;stroke-width:2;stroke-miterlimit:4;stroke-dasharray:none" id="rect3777" width="25.00" height="0.30" x="70.00" y="124.48" ry="0" />
<rect style="fill:#3BA09C;fill-opacity:1;stroke-width:2;stroke-miterlimit:4;stroke-dasharray:none" id="rect3777" width="25.00" height="0.15" x="70.00" y="148.21" ry="0" />
<rect style="fill:#3BA09C;fill-opacity:1;stroke-width:2;stroke-miterlimit:4;stroke-dasharray:none" id="rect3777" width="25.00" height="0.38" x="70.00" y="166.00" ry="0" />
<rect style="fill:#3BA09C;fill-opacity:1;stroke-width:2;stroke-miterlimit:4;stroke-dasharray:none" id="rect3777" width="25.00" height="0.15" x="70.00" y="169.98" ry="0" />
<rect style="fill:#3BA09C;fill-opacity:1;stroke-width:2;stroke-miterlimit:4;stroke-dasharray:none" id="rect3777" width="25.00" height="0.15" x="70.00" y="170.51" ry="0" />
<rect style="fill:#3BA09C;fill-opacity:1;stroke-width:2;stroke-miterlimit:4;stroke-dasharray:none" id="rect3777" width="25.00" height="0.23" x="70.00" y="179.89" ry="0" />
<rect style="fill:#3BA09C;fill-opacity:1;stroke-width:2;stroke-miterlimit:4;stroke-dasharray:none" id="rect3777" width="25.00" height="0.23" x="70.00" y="200.54" ry="0" />
<rect style="fill:#3BA09C;fill-opacity:1;stroke-width:2;stroke-miterlimit:4;stroke-dasharray:none" id="rect3777" width="25.00" height="0.15" x="70.00" y="203.32" ry="0" />
<rect style="fill:#3BA09C;fill-opacity:1;stroke-width:2;stroke-miterlimit:4;stroke-dasharray:none" id="rect3777" width="25.00" height="0.30" x="70.00" y="218.56" ry="0" />
<rect style="fill:#3BA09C;fill-opacity:1;stroke-width:2;stroke-miterlimit:4;stroke-dasharray:none" id="rect3777" width="25.00" height="0.08" x="70.00" y="220.51" ry="0" />
<rect style="fill:#3BA09C;fill-opacity:1;stroke-width:2;stroke-miterlimit:4;stroke-dasharray:none" id="rect3777" width="25.00" height="0.08" x="70.00" y="223.14" ry="0" />
<rect style="fill:#3BA09C;fill-opacity:1;stroke-width:2;stroke-miterlimit:4;stroke-dasharray:none" id="rect3777" width="25.00" height="0.30" x="70.00" y="229.60" ry="0" />
<rect style="fill:#3BA09C;fill-opacity:1;stroke-width:2;stroke-miterlimit:4;stroke-dasharray:none" id="rect3777" width="25.00" height="0.23" x="70.00" y="234.03" ry="0" />
<rect style="fill:#3BA09C;fill-opacity:1;stroke-width:2;stroke-miterlimit:4;stroke-dasharray:none" id="rect3777" width="25.00" height="0.08" x="70.00" y="234.63" ry="0" />
<rect style="fill:#3BA09C;fill-opacity:1;stroke-width:2;stroke-miterlimit:4;stroke-dasharray:none" id="rect3777" width="25.00" height="0.45" x="70.00" y="259.93" ry="0" />
<rect style="fill:#3BA09C;fill-opacity:1;stroke-width:2;stroke-miterlimit:4;stroke-dasharray:none" id="rect3777" width="25.00" height="0.08" x="70.00" y="260.98" ry="0" />
<rect style="fill:#3BA09C;fill-opacity:1;stroke-width:2;stroke-miterlimit:4;stroke-dasharray:none" id="rect3777" width="25.00" height="0.30" x="70.00" y="282.15" ry="0" />
<rect style="fill:#3BA09C;fill-opacity:1;stroke-width:2;stroke-miterlimit:4;stroke-dasharray:none" id="rect3777" width="25.00" height="0.30" x="70.00" y="288.09" ry="0" />
<rect style="fill:#3BA09C;fill-opacity:1;stroke-width:2;stroke-miterlimit:4;stroke-dasharray:none" id="rect3777" width="25.00" height="0.08" x="70.00" y="290.94" ry="0" />
<rect style="fill:#3BA09C;fill-opacity:1;stroke-width:2;stroke-miterlimit:4;stroke-dasharray:none" id="rect3777" width="25.00" height="0.30" x="70.00" y="296.87" ry="0" />
<rect style="fill:#3BA09C;fill-opacity:1;stroke-width:2;stroke-miterlimit:4;stroke-dasharray:none" id="rect3777" width="25.00" height="0.23" x="70.00" y="312.34" ry="0" />
<rect style="fill:#3BA09C;fill-opacity:1;stroke-width:2;stroke-miterlimit:4;stroke-dasharray:none" id="rect3777" width="25.00" height="0.15" x="70.00" y="319.40" ry="0" />
<rect style="fill:#3BA09C;fill-opacity:1;stroke-width:2;stroke-miterlimit:4;stroke-dasharray:none" id="rect3777" width="25.00" height="0.38" x="70.00" y="327.36" ry="0" />
<rect style="fill:#3BA09C;fill-opacity:1;stroke-width:2;stroke-miterlimit:4;stroke-dasharray:none" id="rect3777" width="25.00" height="0.45" x="70.00" y="338.24" ry="0" />
<rect style="fill:#3BA09C;fill-opacity:1;stroke-width:2;stroke-miterlimit:4;stroke-dasharray:none" id="rect3777" width="25.00" height="0.15" x="70.00" y="351.68" ry="0" />
<rect style="fill:#3BA09C;fill-opacity:1;stroke-width:2;stroke-miterlimit:4;stroke-dasharray:none" id="rect3777" width="25.00" height="0.15" x="70.00" y="364.90" ry="0" />
<rect style="fill:#3BA09C;fill-opacity:1;stroke-width:2;stroke-miterlimit:4;stroke-dasharray:none" id="rect3777" width="25.00" height="0.30" x="70.00" y="366.02" ry="0" />
<rect style="fill:#3BA09C;fill-opacity:1;stroke-width:2;stroke-miterlimit:4;stroke-dasharray:none" id="rect3777" width="25.00" height="0.08" x="70.00" y="383.89" ry="0" />
<rect style="fill:#3BA09C;fill-opacity:1;stroke-width:2;stroke-miterlimit:4;stroke-dasharray:none" id="rect3777" width="25.00" height="0.38" x="70.00" y="413.70" ry="0" />
<rect style="fill:#3BA09C;fill-opacity:1;stroke-width:2;stroke-miterlimit:4;stroke-dasharray:none" id="rect3777" width="25.00" height="0.15" x="70.00" y="419.63" ry="0" />
<rect style="fill:#3BA09C;fill-opacity:1;stroke-width:2;stroke-miterlimit:4;stroke-dasharray:none" id="rect3777" width="25.00" height="0.30" x="70.00" y="428.12" ry="0" />
<rect style="fill:#3BA09C;fill-opacity:1;stroke-width:2;stroke-miterlimit:4;stroke-dasharray:none" id="rect3777" width="25.00" height="0.23" x="70.00" y="432.40" ry="0" />
<rect style="fill:#3BA09C;fill-opacity:1;stroke-width:2;stroke-miterlimit:4;stroke-dasharray:none" id="rect3777" width="25.00" height="0.38" x="70.00" y="437.65" ry="0" />
<rect style="fill:#3BA09C;fill-opacity:1;stroke-width:2;stroke-miterlimit:4;stroke-dasharray:none" id="rect3777" width="25.00" height="0.23" x="70.00" y="441.26" ry="0" />
<rect style="fill:#3BA09C;fill-opacity:1;stroke-width:2;stroke-miterlimit:4;stroke-dasharray:none" id="rect3777" width="25.00" height="0.08" x="70.00" y="442.83" ry="0" />
<rect style="fill:#3BA09C;fill-opacity:1;stroke-width:2;stroke-miterlimit:4;stroke-dasharray:none" id="rect3777" width="25.00" height="0.23" x="70.00" y="445.91" ry="0" />
<rect style="fill:#3BA09C;fill-opacity:1;stroke-width:2;stroke-miterlimit:4;stroke-dasharray:none" id="rect3777" width="25.00" height="0.15" x="70.00" y="448.46" ry="0" />
<rect style="fill:#3BA09C;fill-opacity:1;stroke-width:2;stroke-miterlimit:4;stroke-dasharray:none" id="rect3777" width="25.00" height="0.30" x="70.00" y="460.03" ry="0" />
<rect style="fill:#3BA09C;fill-opacity:1;stroke-width:2;stroke-miterlimit:4;stroke-dasharray:none" id="rect3777" width="25.00" height="0.45" x="70.00" y="460.70" ry="0" />
<rect style="fill:#3BA09C;fill-opacity:1;stroke-width:2;stroke-miterlimit:4;stroke-dasharray:none" id="rect3777" width="25.00" height="0.15" x="70.00" y="471.82" ry="0" />
<rect style="fill:#3BA09C;fill-opacity:1;stroke-width:2;stroke-miterlimit:4;stroke-dasharray:none" id="rect3777" width="25.00" height="0.08" x="70.00" y="473.77" ry="0" />
<rect style="fill:#3BA09C;fill-opacity:1;stroke-width:2;stroke-miterlimit:4;stroke-dasharray:none" id="rect3777" width="25.00" height="0.23" x="70.00" y="479.10" ry="0" />
<rect style="fill:#3BA09C;fill-opacity:1;stroke-width:2;stroke-miterlimit:4;stroke-dasharray:none" id="rect3777" width="25.00" height="0.30" x="70.00" y="496.59" ry="0" />
<rect style="fill:#3BA09C;fill-opacity:1;stroke-width:2;stroke-miterlimit:4;stroke-dasharray:none" id="rect3777" width="25.00" height="0.23" x="70.00" y="508.46" ry="0" />
<rect style="fill:#3BA09C;fill-opacity:1;stroke-width:2;stroke-miterlimit:4;stroke-dasharray:none" id="rect3777" width="25.00" height="0.38" x="70.00" y="523.40" ry="0" />
<rect style="fill:#3BA09C;fill-opacity:1;stroke-width:2;stroke-miterlimit:4;stroke-dasharray:none" id="rect3777" width="25.00" height="0.23" x="70.00" y="524.22" ry="0" />
<rect style="fill:#3BA09C;fill-opacity:1;stroke-width:2;stroke-miterlimit:4;stroke-dasharray:none" id="rect3777" width="25.00" height="0.23" x="70.00" y="534.06" ry="0" />
<rect style="fill:#3BA09C;fill-opacity:1;stroke-width:2;stroke-miterlimit:4;stroke-dasharray:none" id="rect3777" width="25.00" height="0.60" x="70.00" y="566.80" ry="0" />
<rect style="fill:#3BA09C;fill-opacity:1;stroke-width:2;stroke-miterlimit:4;stroke-dasharray:none" id="rect3777" width="25.00" height="0.30" x="70.00" y="586.47" ry="0" />
<rect style="fill:#3BA09C;fill-opacity:1;stroke-width:2;stroke-miterlimit:4;stroke-dasharray:none" id="rect3777" width="25.00" height="0.30" x="70.00" y="592.70" ry="0" />
<rect style="fill:#3BA09C;fill-opacity:1;stroke-width:2;stroke-miterlimit:4;stroke-dasharray:none" id="rect3777" width="25.00" height="0.15" x="70.00" y="603.21" ry="0" />
<rect style="fill:#3BA09C;fill-opacity:1;stroke-width:2;stroke-miterlimit:4;stroke-dasharray:none" id="rect3777" width="25.00" height="0.30" x="70.00" y="607.42" ry="0" />
<rect style="fill:#3BA09C;fill-opacity:1;stroke-width:2;stroke-miterlimit:4;stroke-dasharray:none" id="rect3777" width="25.00" height="0.30" x="70.00" y="639.03" ry="0" />
<rect style="fill:#3BA09C;fill-opacity:1;stroke-width:2;stroke-miterlimit:4;stroke-dasharray:none" id="rect3777" width="25.00" height="0.30" x="70.00" y="640.53" ry="0" />
<rect style="fill:#3BA09C;fill-opacity:1;stroke-width:2;stroke-miterlimit:4;stroke-dasharray:none" id="rect3777" width="25.00" height="0.38" x="70.00" y="646.76" ry="0" />
<rect style="fill:#3BA09C;fill-opacity:1;stroke-width:2;stroke-miterlimit:4;stroke-dasharray:none" id="rect3777" width="25.00" height="0.45" x="70.00" y="654.49" ry="0" />
<rect style="fill:#3BA09C;fill-opacity:1;stroke-width:2;stroke-miterlimit:4;stroke-dasharray:none" id="rect3777" width="25.00" height="0.45" x="70.00" y="668.76" ry="0" />
<rect style="fill:#3BA09C;fill-opacity:1;stroke-width:2;stroke-miterlimit:4;stroke-dasharray:none" id="rect3777" width="25.00" height="0.30" x="70.00" y="694.21" ry="0" />
<rect style="fill:#3BA09C;fill-opacity:1;stroke-width:2;stroke-miterlimit:4;stroke-dasharray:none" id="rect3777" width="25.00" height="0.23" x="70.00" y="694.89" ry="0" />
<rect style="fill:#3BA09C;fill-opacity:1;stroke-width:2;stroke-miterlimit:4;stroke-dasharray:none" id="rect3777" width="25.00" height="0.30" x="70.00" y="698.79" ry="0" />
<rect style="fill:#3BA09C;fill-opacity:1;stroke-width:2;stroke-miterlimit:4;stroke-dasharray:none" id="rect3777" width="25.00" height="0.30" x="70.00" y="701.65" ry="0" />
<rect style="fill:#3BA09C;fill-opacity:1;stroke-width:2;stroke-miterlimit:4;stroke-dasharray:none" id="rect3777" width="25.00" height="0.08" x="70.00" y="711.11" ry="0" />
<rect style="fill:#3BA09C;fill-opacity:1;stroke-width:2;stroke-miterlimit:4;stroke-dasharray:none" id="rect3777" width="25.00" height="0.15" x="70.00" y="712.31" ry="0" />
<rect style="fill:#3BA09C;fill-opacity:1;stroke-width:2;stroke-miterlimit:4;stroke-dasharray:none" id="rect3777" width="25.00" height="0.08" x="70.00" y="725.30" ry="0" />
<rect style="fill:#3BA09C;fill-opacity:1;stroke-width:2;stroke-miterlimit:4;stroke-dasharray:none" id="rect3777" width="25.00" height="0.30" x="70.00" y="740.46" ry="0" />
<rect style="fill:#3BA09C;fill-opacity:1;stroke-width:2;stroke-miterlimit:4;stroke-dasharray:none" id="rect3777" width="25.00" height="0.15" x="70.00" y="750.00" ry="0" />
<rect style="fill:#3BA09C;fill-opacity:1;stroke-width:2;stroke-miterlimit:4;stroke-dasharray:none" id="rect3777" width="25.00" height="0.23" x="70.00" y="763.51" ry="0" />
<rect style="fill:#3BA09C;fill-opacity:1;stroke-width:2;stroke-miterlimit:4;stroke-dasharray:none" id="rect3777" width="25.00" height="0.15" x="70.00" y="764.72" ry="0" />
<rect style="fill:#3BA09C;fill-opacity:1;stroke-width:2;stroke-miterlimit:4;stroke-dasharray:none" id="rect3777" width="25.00" height="0.15" x="70.00" y="767.27" ry="0" />
<rect style="fill:#3BA09C;fill-opacity:1;stroke-width:2;stroke-miterlimit:4;stroke-dasharray:none" id="rect3777" width="25.00" height="0.53" x="70.00" y="775.60" ry="0" />
<rect style="fill:#3BA09C;fill-opacity:1;stroke-width:2;stroke-miterlimit:4;stroke-dasharray:none" id="rect3777" width="25.00" height="0.45" x="70.00" y="776.73" ry="0" />
<rect style="fill:#3BA09C;fill-opacity:1;stroke-width:2;stroke-miterlimit:4;stroke-dasharray:none" id="rect3777" width="25.00" height="0.53" x="70.00" y="783.11" ry="0" />
<rect style="fill:#3BA09C;fill-opacity:1;stroke-width:2;stroke-miterlimit:4;stroke-dasharray:none" id="rect3777" width="25.00" height="0.23" x="70.00" y="793.77" ry="0" />
<rect style="fill:#3BA09C;fill-opacity:1;stroke-width:2;stroke-miterlimit:4;stroke-dasharray:none" id="rect3777" width="25.00" height="0.08" x="70.00" y="795.80" ry="0" />
<rect style="fill:#3BA09C;fill-opacity:1;stroke-width:2;stroke-miterlimit:4;stroke-dasharray:none" id="rect3777" width="25.00" height="0.30" x="70.00" y="797.45" ry="0" />
<rect style="fill:#3BA09C;fill-opacity:1;stroke-width:2;stroke-miterlimit:4;stroke-dasharray:none" id="rect3777" width="25.00" height="0.30" x="70.00" y="816.00" ry="0" />
<rect style="fill:#3BA09C;fill-opacity:1;stroke-width:2;stroke-miterlimit:4;stroke-dasharray:none" id="rect3777" width="25.00" height="0.60" x="70.00" y="818.93" ry="0" />
<path d="m 69.50,74.50 0,13.00 c 0, -8.31 6.69, -13.00 13.00, -13.00 l -13.00,0 z m 13.00,0 c 8.31,0 13.00,6.69 13.00,13.00 l 0,-13.00 -13.00,0 z" id="rect3787" style="fill:#fff;fill-opacity:1;fill-rule:nonzero;stroke:none" /><path d="m 95.50,825.50 0,-13.00 c 0,8.31 -6.69, 13.00 -13.00, 13.00 l 13.00,0 z m -13.00,0 c -8.31,0 -13.00,-6.69 -13.00,-13.00 l 0,13.00 13.00,0 z" id="rect3787" style="fill:#fff;fill-opacity:1;fill-rule:nonzero;stroke:none" /><rect style="fill:none;stroke:#000000;stroke-width:2;stroke-linecap:butt;stroke-linejoin:miter;stroke-miterlimit:4;stroke-opacity:1;stroke-dasharray:none" id="rect2985" width="25.00" height="750.00" x="70.00" y="75.00" ry="12.5" />
<path d="m 104.50,74.50 0,13.00 c 0, -8.31 6.69, -13.00 13.00, -13.00 l -13.00,0 z m 13.00,0 c 8.31,0 13.00,6.69 13.00,13.00 l 0,-13.00 -13.00,0 z" id="rect3787" style="fill:#fff;fill-opacity:1;fill-rule:nonzero;stroke:none" /><path d="m 130.50,825.50 0,-13.00 c 0,8.31 -6.69, 13.00 -13.00, 13.00 l 13.00,0 z m -13.00,0 c -8.31,0 -13.00,-6.69 -13.00,-13.00 l 0,13.00 13.00,0 z" id="rect3787" style="fill:#fff;fill-opacity:1;fill-rule:nonzero;stroke:none" /><rect style="fill:none;stroke:#000000;stroke-width:2;stroke-linecap:butt;stroke-linejoin:miter;stroke-miterlimit:4;stroke-opacity:1;stroke-dasharray:none" id="rect2985" width="25.00" height="750.00" x="105.00" y="75.00" ry="12.5" />
</g>
</svg>