<?xml version="1.0" encoding="UTF-8" standalone="no"?>
<!-- Morteza Hosseini, IEETA 2018-2019 -->
<svg xmlns="http://www.w3.org/2000/svg" xmlns:xlink="http://www.w3.org/1999/xlink" width="504" height="650" >
<defs id="" >
<pattern id="Wavy" x="283" y="0" width="21" height="7" patternUnits="userSpaceOnUse" >
<path id="" d="m 0,0
a 10.5,2 0 0,0 21,0
" fill="transparent" fill-opacity="0.9" stroke="black" stroke-opacity="1" stroke-linejoin="round" stroke-width="1" />
</pattern>
</defs>
<defs id="" >
<pattern id="WavyWhite" x="283" y="0" width="21" height="7" patternUnits="userSpaceOnUse" >
<path id="" d="m 0,0
a 10.5,2 0 0,0 21,0
" fill="transparent" fill-opacity="0.9" stroke="white" stroke-opacity="1" stroke-linejoin="round" stroke-width="1" />
</pattern>
</defs>
<rect x="0" y="0" width="504" height="650" ry="1" fill="white" fill-opacity="1" stroke="white" stroke-width="0" />
<text id="161.000000100.000000" x="161" y="100" dominant-baseline="text-before-edge" font-size="9px" font-family="Arial" text-anchor="end" text-align="start" line-height="125%%" >
<tspan id="2" style="fill:#3BA05D">0</tspan>
</text>
<text id="161.000000599.999939" x="161" y="600" dominant-baseline="text-after-edge" font-size="9px" font-family="Arial" text-anchor="end" text-align="start" line-height="125%%" >
<tspan id="2" style="fill:#3BA05D">9999999</tspan>
</text>
<text id="343.000000100.000000" x="343" y="100" dominant-baseline="text-before-edge" font-size="9px" font-family="Arial" text-anchor="start" text-align="start" line-height="125%%" >
<tspan id="2" style="fill:#3BA05D">0</tspan>
</text>
<text id="343.000000599.999939" x="343" y="600" dominant-baseline="text-after-edge" font-size="9px" font-family="Arial" text-anchor="start" text-align="start" line-height="125%%" >
<tspan id="2" style="fill:#3BA05D">9999999</tspan>
</text>
<defs id="" >
<linearGradient id="grad200.000000100.000000" x1="0%" y1="0%" x2="100%" y2="0%" >
<stop offset="30%" stop-color="#2C7845" stop-opacity="1" />
<stop offset="100%" stop-color="#3BA05D" stop-opacity="1" />
</linearGradient>
</defs>
<path id="200.000000100.000000" d="M 200,100
v 500
a 10.5,2 0 0,0 21,0
v -500
a 10.5,2 0 0,1 -21,0
" fill="url(#grad200.000000100.000000)" fill-opacity="1" stroke="#1D502E" stroke-opacity="1" stroke-linejoin="round" stroke-width="0.75" />
<ellipse cx="210.5" cy="100" rx="10.6875" ry="2" stroke-width="0.375" fill-opacity="1" stroke-opacity="1" stroke="#1D502E" fill="url(#grad200.000000100.000000)" />
<ellipse cx="210.5" cy="600" rx="10.6875" ry="2" stroke-width="0.375" fill-opacity="1" stroke-opacity="1" stroke="#1D502E" fill="transparent" />
<defs id="" >
<linearGradient id="grad200.000000100.000000NRC" x1="0%" y1="0%" x2="100%" y2="0%" >
<stop offset="30%" stop-color="#33CC99" stop-opacity="1" />
<stop offset="100%" stop-color="#00ffaa" stop-opacity="1" />
</linearGradient>
</defs>
<path id="185.000000100.000000" d="M 185,100
v 500
a 3.5,1 0 0,0 7,0
v -500
a 3.5,1 0 0,1 -7,0
" fill="url(#grad200.000000100.000000NRC)" fill-opacity="1" stroke="#0A6" stroke-opacity="1" stroke-linejoin="round" stroke-width="1.4" />
<ellipse cx="188.5" cy="100" rx="3.85" ry="1" stroke-width="0.7" fill-opacity="1" stroke-opacity="1" stroke="#0A6" fill="url(#grad200.000000100.000000NRC)" />
<ellipse cx="188.5" cy="600" rx="3.85" ry="1" stroke-width="0.7" fill-opacity="1" stroke-opacity="1" stroke="#0A6" fill="transparent" />
<defs id="" >
<linearGradient id="grad200.000000100.000000NRCRedun" x1="0%" y1="0%" x2="100%" y2="0%" >
<stop offset="30%" stop-color="#CC3333" stop-opacity="1" />
<stop offset="100%" stop-color="#ff0000" stop-opacity="1" />
</linearGradient>
</defs>
<path id="170.000000100.000000" d="M 170,100
v 500
a 3.5,1 0 0,0 7,0
v -500
a 3.5,1 0 0,1 -7,0
" fill="url(#grad200.000000100.000000NRCRedun)" fill-opacity="1" stroke="#C00" stroke-opacity="1" stroke-linejoin="round" stroke-width="1.4" />
<ellipse cx="173.5" cy="100" rx="3.85" ry="1" stroke-width="0.7" fill-opacity="1" stroke-opacity="1" stroke="#C00" fill="url(#grad200.000000100.000000NRCRedun)" />
<ellipse cx="173.5" cy="600" rx="3.85" ry="1" stroke-width="0.7" fill-opacity="1" stroke-opacity="1" stroke="#C00" fill="transparent" />
<defs id="" >
<linearGradient id="grad283.000000100.000000" x1="0%" y1="0%" x2="100%" y2="0%" >
<stop offset="30%" stop-color="#2C7845" stop-opacity="1" />
<stop offset="100%" stop-color="#3BA05D" stop-opacity="1" />
</linearGradient>
</defs>
<path id="283.000000100.000000" d="M 283,100
v 500
a 10.5,2 0 0,0 21,0
v -500
a 10.5,2 0 0,1 -21,0
" fill="url(#grad283.000000100.000000)" fill-opacity="1" stroke="#1D502E" stroke-opacity="1" stroke-linejoin="round" stroke-width="0.75" />
<ellipse cx="293.5" cy="100" rx="10.6875" ry="2" stroke-width="0.375" fill-opacity="1" stroke-opacity="1" stroke="#1D502E" fill="url(#grad283.000000100.000000)" />
<ellipse cx="293.5" cy="600" rx="10.6875" ry="2" stroke-width="0.375" fill-opacity="1" stroke-opacity="1" stroke="#1D502E" fill="transparent" />
<defs id="" >
<linearGradient id="grad283.000000100.000000NRC" x1="0%" y1="0%" x2="100%" y2="0%" >
<stop offset="30%" stop-color="#33CC99" stop-opacity="1" />
<stop offset="100%" stop-color="#00ffaa" stop-opacity="1" />
</linearGradient>
</defs>
<path id="312.000000100.000000" d="M 312,100
v 500
a 3.5,1 0 0,0 7,0
v -500
a 3.5,1 0 0,1 -7,0
" fill="url(#grad283.000000100.000000NRC)" fill-opacity="1" stroke="#0A6" stroke-opacity="1" stroke-linejoin="round" stroke-width="1.4" />
<ellipse cx="315.5" cy="100" rx="3.85" ry="1" stroke-width="0.7" fill-opacity="1" stroke-opacity="1" stroke="#0A6" fill="url(#grad283.000000100.000000NRC)" />
<ellipse cx="315.5" cy="600" rx="3.85" ry="1" stroke-width="0.7" fill-opacity="1" stroke-opacity="1" stroke="#0A6" fill="transparent" />
<defs id="" >
<linearGradient id="grad283.000000100.000000NRCRedun" x1="0%" y1="0%" x2="100%" y2="0%" >
<stop offset="30%" stop-color="#CC3333" stop-opacity="1" />
<stop offset="100%" stop-color="#ff0000" stop-opacity="1" />
</linearGradient>
</defs>
<path id="327.000000100.000000" d="M 327,100
v 500
a 3.5,1 0 0,0 7,0
v -500
a 3.5,1 0 0,1 -7,0
" fill="url(#grad283.000000100.000000NRCRedun)" fill-opacity="1" stroke="#C00" stroke-opacity="1" stroke-linejoin="round" stroke-width="1.4" />
<ellipse cx="330.5" cy="100" rx="3.85" ry="1" stroke-width="0.7" fill-opacity="1" stroke-opacity="1" stroke="#C00" fill="url(#grad283.000000100.000000NRCRedun)" />
<ellipse cx="330.5" cy="600" rx="3.85" ry="1" stroke-width="0.7" fill-opacity="1" stroke-opacity="1" stroke="#C00" fill="transparent" />
<polygon points="221,100 221,600 283,600 283,100 " fill="#3BA05D" stroke="#3BA05D" stroke-width="1" stroke-opacity="0.5" fill-opacity="0.5" />
<path id="200.000000100.000000" d="M 200,100
v 500
a 10.5,2 0 0,0 21,0
v -500
a 10.5,2 0 0,1 -21,0
" fill="transparent" fill-opacity="0.9" stroke="black" stroke-opacity="1" stroke-linejoin="round" stroke-width="2" />
<ellipse cx="210.5" cy="100" rx="11" ry="2" stroke-width="1" fill-opacity="0.9" stroke-opacity="1" stroke="black" fill="transparent" />
<ellipse cx="210.5" cy="600" rx="11" ry="2" stroke-width="1" fill-opacity="0.9" stroke-opacity="1" stroke="black" fill="transparent" />
<path id="283.000000100.000000" d="M 283,100
v 500
a 10.5,2 0 0,0 21,0
v -500
a 10.5,2 0 0,1 -21,0
" fill="transparent" fill-opacity="0.9" stroke="black" stroke-opacity="1" stroke-linejoin="round" stroke-width="2" />
<ellipse cx="293.5" cy="100" rx="11" ry="2" stroke-width="1" fill-opacity="0.9" stroke-opacity="1" stroke="black" fill="transparent" />
<ellipse cx="293.5" cy="600" rx="11" ry="2" stroke-width="1" fill-opacity="0.9" stroke-opacity="1" stroke="black" fill="transparent" />
<path id="" d="M 210.5,100
v -20
h -10
" fill="transparent" fill-opacity="0.9" stroke="black" stroke-opacity="1" stroke-linejoin="round" stroke-width="0.5" />
<path id="" d="M 293.5,100
v -20
h 10
" fill="transparent" fill-opacity="0.9" stroke="black" stroke-opacity="1" stroke-linejoin="round" stroke-width="0.5" />
<text id="195.50000080.000000" x="195.5" y="80" dominant-baseline="middle" font-size="10px" font-weight="bold" font-family="Arial" text-anchor="end" text-align="start" line-height="125%%" >
RefMut</text>
<text id="308.50000080.000000" x="308.5" y="80" dominant-baseline="middle" font-size="10px" font-weight="bold" font-family="Arial" text-anchor="start" text-align="start" line-height="125%%" >
TarMut</text>
<text id="252.00000024.000000" x="252" y="24" dy="-3" dominant-baseline="text-after-edge" font-size="9px" font-family="Arial" text-anchor="middle" text-align="start" line-height="125%%" >
Relative Redundancy</text>
<text id="252.00000036.000000" x="252" y="36" dy="3" dominant-baseline="text-before-edge" font-size="9px" font-family="Arial" text-anchor="middle" text-align="start" line-height="125%%" >
Redundancy</text>
<defs id="" >
<linearGradient id="grad170.00000024.000000" x1="0%" y1="0%" x2="100%" y2="0%" >
<stop offset="0%" stop-color="#0000ff" stop-opacity="1" />
<stop offset="8%" stop-color="#0055ff" stop-opacity="1" />
<stop offset="16%" stop-color="#00aaff" stop-opacity="1" />
<stop offset="25%" stop-color="#00ffff" stop-opacity="1" />
<stop offset="33%" stop-color="#00ffaa" stop-opacity="1" />
<stop offset="41%" stop-color="#00ff55" stop-opacity="1" />
<stop offset="50%" stop-color="#00ff00" stop-opacity="1" />
<stop offset="58%" stop-color="#55ff00" stop-opacity="1" />
<stop offset="66%" stop-color="#aaff00" stop-opacity="1" />
<stop offset="75%" stop-color="#ffff00" stop-opacity="1" />
<stop offset="83%" stop-color="#ffaa00" stop-opacity="1" />
<stop offset="91%" stop-color="#ff5500" stop-opacity="1" />
<stop offset="100%" stop-color="#ff0000" stop-opacity="1" />
</linearGradient>
</defs>
<rect x="170" y="24" width="164" height="12" rx="195.255" ry="1" fill="url(#grad170.00000024.000000)" fill-opacity="0.9" stroke="black" stroke-width="0.4" />
<text id="168.00000030.000000" x="168" y="30" dx="-2.5" dominant-baseline="middle" font-size="9px" font-weight="normal" font-family="Arial" text-anchor="end" text-align="start" line-height="125%%" >
0.0</text>
<text id="211.00000030.000000" x="211" y="30" dominant-baseline="middle" font-size="9px" font-weight="normal" font-family="Arial" text-anchor="middle" text-align="start" line-height="125%%" >
0.5</text>
<text id="252.00000030.000000" x="252" y="30" dominant-baseline="middle" font-size="9px" font-weight="normal" font-family="Arial" text-anchor="middle" text-align="start" line-height="125%%" >
1.0</text>
<text id="293.00000030.000000" x="293" y="30" dominant-baseline="middle" font-size="9px" font-weight="normal" font-family="Arial" text-anchor="middle" text-align="start" line-height="125%%" >
1.5</text>
<text id="336.00000030.000000" x="336" y="30" dx="2.5" dominant-baseline="middle" font-size="9px" font-weight="normal" font-family="Arial" text-anchor="start" text-align="start" line-height="125%%" >
2.0</text>
<path id="" d="M 188.5,600
V 620
H 202
" fill="transparent" fill-opacity="0.9" stroke="black" stroke-opacity="1" stroke-linejoin="round" stroke-width="0.5" />
<path id="" d="M 315.5,600
V 620
H 302
" fill="transparent" fill-opacity="0.9" stroke="black" stroke-opacity="1" stroke-linejoin="round" stroke-width="0.5" />
<text id="252.000000620.000000" x="252" y="620" dominant-baseline="middle" font-size="9px" font-family="Arial" text-anchor="middle" text-align="start" line-height="125%%" >
Relative Redundancy</text>
<path id="" d="M 173.5,600
V 635
H 220
" fill="transparent" fill-opacity="0.9" stroke="black" stroke-opacity="1" stroke-linejoin="round" stroke-width="0.5" />
<path id="" d="M 330.5,600
V 635
H 284
" fill="transparent" fill-opacity="0.9" stroke="black" stroke-opacity="1" stroke-linejoin="round" stroke-width="0.5" />
<text id="252.000000635.000000" x="252" y="635" dominant-baseline="middle" font-size="9px" font-family="Arial" text-anchor="middle" text-align="start" line-height="125%%" >
Redundancy</text>
</svg>