<?xml version="1.0" encoding="UTF-8" standalone="no"?>
<!-- Morteza Hosseini, IEETA 2018-2019 -->
<svg xmlns="http://www.w3.org/2000/svg" xmlns:xlink="http://www.w3.org/1999/xlink" width="504" height="650" >
<defs id="" >
<pattern id="Wavy" x="283" y="0" width="21" height="7" patternUnits="userSpaceOnUse" >
<path id="" d="m 0,0
a 10.5,2 0 0,0 21,0
" fill="transparent" fill-opacity="0.9" stroke="black" stroke-opacity="1" stroke-linejoin="round" stroke-width="1" />
</pattern>
</defs>
<defs id="" >
<pattern id="WavyWhite" x="283" y="0" width="21" height="7" patternUnits="userSpaceOnUse" >
<path id="" d="m 0,0
a 10.5,2 0 0,0 21,0
" fill="transparent" fill-opacity="0.9" stroke="white" stroke-opacity="1" stroke-linejoin="round" stroke-width="1" />
</pattern>
</defs>
<rect x="0" y="0" width="504" height="650" ry="1" fill="white" fill-opacity="1" stroke="white" stroke-width="0" />
<text id="161.000000100.000000" x="161" y="100" dominant-baseline="text-before-edge" font-size="9px" font-family="Arial" text-anchor="end" text-align="start" line-height="125%%" >
<tspan id="5" style="fill:#A03B9F">0</tspan>
</text>
<text id="161.000000222.000000" x="161" y="222" dominant-baseline="text-after-edge" font-size="9px" font-family="Arial" text-anchor="end" text-align="start" line-height="125%%" >
<tspan id="5" style="fill:#A03B9F">244</tspan>
</text>
<text id="161.000000232.000000" x="161" y="232" dominant-baseline="text-before-edge" font-size="9px" font-family="Arial" text-anchor="end" text-align="start" line-height="125%%" >
<tspan id="3" style="fill:#3B9FA0">264</tspan>
</text>
<text id="161.000000352.000000" x="161" y="352" dominant-baseline="text-after-edge" font-size="9px" font-family="Arial" text-anchor="end" text-align="start" line-height="125%%" >
<tspan id="3" style="fill:#3B9FA0">504</tspan>
</text>
<text id="161.000000356.500000" x="161" y="356.5" dominant-baseline="text-before-edge" font-size="9px" font-family="Arial" text-anchor="end" text-align="start" line-height="125%%" >
<tspan id="4" style="fill:#3C3BA0">513</tspan>
</text>
<text id="161.000000477.000000" x="161" y="477" dominant-baseline="middle" font-size="9px" font-family="Arial" text-anchor="end" text-align="start" line-height="125%%" >
<tspan id="4" style="fill:#3C3BA0">755, </tspan>
<tspan id="6" style="fill:#A0413B">754</tspan>
</text>
<text id="161.000000598.500000" x="161" y="598.5" dominant-baseline="text-after-edge" font-size="9px" font-family="Arial" text-anchor="end" text-align="start" line-height="125%%" >
<tspan id="6" style="fill:#A0413B">997</tspan>
</text>
<text id="343.000000105.000000" x="343" y="105" dominant-baseline="text-before-edge" font-size="9px" font-family="Arial" text-anchor="start" text-align="start" line-height="125%%" >
<tspan id="3" style="fill:#3B9FA0">10</tspan>
</text>
<text id="343.000000223.500000" x="343" y="223.5" dominant-baseline="text-after-edge" font-size="9px" font-family="Arial" text-anchor="start" text-align="start" line-height="125%%" >
<tspan id="3" style="fill:#3B9FA0">247</tspan>
</text>
<text id="343.000000230.000000" x="343" y="230" dominant-baseline="text-before-edge" font-size="9px" font-family="Arial" text-anchor="start" text-align="start" line-height="125%%" >
<tspan id="5" style="fill:#A03B9F">260</tspan>
</text>
<text id="343.000000350.000000" x="343" y="350" dominant-baseline="text-after-edge" font-size="9px" font-family="Arial" text-anchor="start" text-align="start" line-height="125%%" >
<tspan id="5" style="fill:#A03B9F">500</tspan>
</text>
<text id="343.000000354.000000" x="343" y="354" dominant-baseline="text-before-edge" font-size="9px" font-family="Arial" text-anchor="start" text-align="start" line-height="125%%" >
<tspan id="6" style="fill:#A0413B">508</tspan>
</text>
<text id="343.000000473.500000" x="343" y="473.5" dominant-baseline="text-after-edge" font-size="9px" font-family="Arial" text-anchor="start" text-align="start" line-height="125%%" >
<tspan id="6" style="fill:#A0413B">747</tspan>
</text>
<text id="343.000000480.000000" x="343" y="480" dominant-baseline="text-before-edge" font-size="9px" font-family="Arial" text-anchor="start" text-align="start" line-height="125%%" >
<tspan id="4" style="fill:#3C3BA0">760</tspan>
</text>
<text id="343.000000599.500000" x="343" y="599.5" dominant-baseline="text-after-edge" font-size="9px" font-family="Arial" text-anchor="start" text-align="start" line-height="125%%" >
<tspan id="4" style="fill:#3C3BA0">999</tspan>
</text>
<defs id="" >
<linearGradient id="grad200.000000477.000000" x1="0%" y1="0%" x2="100%" y2="0%" >
<stop offset="30%" stop-color="#78302C" stop-opacity="1" />
<stop offset="100%" stop-color="#A0413B" stop-opacity="1" />
</linearGradient>
</defs>
<path id="200.000000477.000000" d="M 200,477
v 121.5
a 10.5,2 0 0,0 21,0
v -121.5
a 10.5,2 0 0,1 -21,0
" fill="url(#grad200.000000477.000000)" fill-opacity="1" stroke="#50201D" stroke-opacity="1" stroke-linejoin="round" stroke-width="0.75" />
<ellipse cx="210.5" cy="477" rx="10.6875" ry="2" stroke-width="0.375" fill-opacity="1" stroke-opacity="1" stroke="#50201D" fill="url(#grad200.000000477.000000)" />
<ellipse cx="210.5" cy="598.5" rx="10.6875" ry="2" stroke-width="0.375" fill-opacity="1" stroke-opacity="1" stroke="#50201D" fill="transparent" />
<defs id="" >
<linearGradient id="grad200.000000477.000000NRC" x1="0%" y1="0%" x2="100%" y2="0%" >
<stop offset="30%" stop-color="#3366CC" stop-opacity="1" />
<stop offset="100%" stop-color="#0055ff" stop-opacity="1" />
</linearGradient>
</defs>
<path id="185.000000477.000000" d="M 185,477
v 121.5
a 3.5,1 0 0,0 7,0
v -121.5
a 3.5,1 0 0,1 -7,0
" fill="url(#grad200.000000477.000000NRC)" fill-opacity="1" stroke="#03A" stroke-opacity="1" stroke-linejoin="round" stroke-width="1.4" />
<ellipse cx="188.5" cy="477" rx="3.85" ry="1" stroke-width="0.7" fill-opacity="1" stroke-opacity="1" stroke="#03A" fill="url(#grad200.000000477.000000NRC)" />
<ellipse cx="188.5" cy="598.5" rx="3.85" ry="1" stroke-width="0.7" fill-opacity="1" stroke-opacity="1" stroke="#03A" fill="transparent" />
<defs id="" >
<linearGradient id="grad200.000000477.000000NRCRedun" x1="0%" y1="0%" x2="100%" y2="0%" >
<stop offset="30%" stop-color="#CC3333" stop-opacity="1" />
<stop offset="100%" stop-color="#ff0000" stop-opacity="1" />
</linearGradient>
</defs>
<path id="170.000000477.000000" d="M 170,477
v 121.5
a 3.5,1 0 0,0 7,0
v -121.5
a 3.5,1 0 0,1 -7,0
" fill="url(#grad200.000000477.000000NRCRedun)" fill-opacity="1" stroke="#C00" stroke-opacity="1" stroke-linejoin="round" stroke-width="1.4" />
<ellipse cx="173.5" cy="477" rx="3.85" ry="1" stroke-width="0.7" fill-opacity="1" stroke-opacity="1" stroke="#C00" fill="url(#grad200.000000477.000000NRCRedun)" />
<ellipse cx="173.5" cy="598.5" rx="3.85" ry="1" stroke-width="0.7" fill-opacity="1" stroke-opacity="1" stroke="#C00" fill="transparent" />
<defs id="" >
<linearGradient id="grad283.000000354.000000" x1="0%" y1="0%" x2="100%" y2="0%" >
<stop offset="30%" stop-color="#78302C" stop-opacity="1" />
<stop offset="100%" stop-color="#A0413B" stop-opacity="1" />
</linearGradient>
</defs>
<path id="283.000000354.000000" d="M 283,354
v 119.5
a 10.5,2 0 0,0 21,0
v -119.5
a 10.5,2 0 0,1 -21,0
" fill="url(#grad283.000000354.000000)" fill-opacity="1" stroke="#50201D" stroke-opacity="1" stroke-linejoin="round" stroke-width="0.75" />
<ellipse cx="293.5" cy="354" rx="10.6875" ry="2" stroke-width="0.375" fill-opacity="1" stroke-opacity="1" stroke="#50201D" fill="url(#grad283.000000354.000000)" />
<ellipse cx="293.5" cy="473.5" rx="10.6875" ry="2" stroke-width="0.375" fill-opacity="1" stroke-opacity="1" stroke="#50201D" fill="transparent" />
<path id="283.000000354.000000" d="M 283,354
v 119.5
a 10.5,2 0 0,0 21,0
v -119.5
a 10.5,2 0 0,1 -21,0
" fill="url(#Wavy)" fill-opacity="1" stroke="#50201D" stroke-opacity="1" stroke-linejoin="round" stroke-width="0.75" />
<ellipse cx="293.5" cy="354" rx="10.6875" ry="2" stroke-width="0.375" fill-opacity="1" stroke-opacity="1" stroke="#50201D" fill="url(#Wavy)" />
<ellipse cx="293.5" cy="473.5" rx="10.6875" ry="2" stroke-width="0.375" fill-opacity="1" stroke-opacity="1" stroke="#50201D" fill="transparent" />
<defs id="" >
<linearGradient id="grad283.000000354.000000NRC" x1="0%" y1="0%" x2="100%" y2="0%" >
<stop offset="30%" stop-color="#3333CC" stop-opacity="1" />
<stop offset="100%" stop-color="#0000ff" stop-opacity="1" />
</linearGradient>
</defs>
<path id="312.000000354.000000" d="M 312,354
v 119.5
a 3.5,1 0 0,0 7,0
v -119.5
a 3.5,1 0 0,1 -7,0
" fill="url(#grad283.000000354.000000NRC)" fill-opacity="1" stroke="#00A" stroke-opacity="1" stroke-linejoin="round" stroke-width="1.4" />
<ellipse cx="315.5" cy="354" rx="3.85" ry="1" stroke-width="0.7" fill-opacity="1" stroke-opacity="1" stroke="#00A" fill="url(#grad283.000000354.000000NRC)" />
<ellipse cx="315.5" cy="473.5" rx="3.85" ry="1" stroke-width="0.7" fill-opacity="1" stroke-opacity="1" stroke="#00A" fill="transparent" />
<defs id="" >
<linearGradient id="grad283.000000354.000000NRCRedun" x1="0%" y1="0%" x2="100%" y2="0%" >
<stop offset="30%" stop-color="#CC3333" stop-opacity="1" />
<stop offset="100%" stop-color="#ff0000" stop-opacity="1" />
</linearGradient>
</defs>
<path id="327.000000354.000000" d="M 327,354
v 119.5
a 3.5,1 0 0,0 7,0
v -119.5
a 3.5,1 0 0,1 -7,0
" fill="url(#grad283.000000354.000000NRCRedun)" fill-opacity="1" stroke="#C00" stroke-opacity="1" stroke-linejoin="round" stroke-width="1.4" />
<ellipse cx="330.5" cy="354" rx="3.85" ry="1" stroke-width="0.7" fill-opacity="1" stroke-opacity="1" stroke="#C00" fill="url(#grad283.000000354.000000NRCRedun)" />
<ellipse cx="330.5" cy="473.5" rx="3.85" ry="1" stroke-width="0.7" fill-opacity="1" stroke-opacity="1" stroke="#C00" fill="transparent" />
<polygon points="221,477 221,598.5 283,354 283,473.5 " fill="#A0413B" stroke="#A0413B" stroke-width="1" stroke-opacity="0.5" fill-opacity="0.5" />
<defs id="" >
<linearGradient id="grad200.000000356.500000" x1="0%" y1="0%" x2="100%" y2="0%" >
<stop offset="30%" stop-color="#2D2C78" stop-opacity="1" />
<stop offset="100%" stop-color="#3C3BA0" stop-opacity="1" />
</linearGradient>
</defs>
<path id="200.000000356.500000" d="M 200,356.5
v 121
a 10.5,2 0 0,0 21,0
v -121
a 10.5,2 0 0,1 -21,0
" fill="url(#grad200.000000356.500000)" fill-opacity="1" stroke="#1E1D50" stroke-opacity="1" stroke-linejoin="round" stroke-width="0.75" />
<ellipse cx="210.5" cy="356.5" rx="10.6875" ry="2" stroke-width="0.375" fill-opacity="1" stroke-opacity="1" stroke="#1E1D50" fill="url(#grad200.000000356.500000)" />
<ellipse cx="210.5" cy="477.5" rx="10.6875" ry="2" stroke-width="0.375" fill-opacity="1" stroke-opacity="1" stroke="#1E1D50" fill="transparent" />
<defs id="" >
<linearGradient id="grad200.000000356.500000NRC" x1="0%" y1="0%" x2="100%" y2="0%" >
<stop offset="30%" stop-color="#3366CC" stop-opacity="1" />
<stop offset="100%" stop-color="#0055ff" stop-opacity="1" />
</linearGradient>
</defs>
<path id="185.000000356.500000" d="M 185,356.5
v 121
a 3.5,1 0 0,0 7,0
v -121
a 3.5,1 0 0,1 -7,0
" fill="url(#grad200.000000356.500000NRC)" fill-opacity="1" stroke="#03A" stroke-opacity="1" stroke-linejoin="round" stroke-width="1.4" />
<ellipse cx="188.5" cy="356.5" rx="3.85" ry="1" stroke-width="0.7" fill-opacity="1" stroke-opacity="1" stroke="#03A" fill="url(#grad200.000000356.500000NRC)" />
<ellipse cx="188.5" cy="477.5" rx="3.85" ry="1" stroke-width="0.7" fill-opacity="1" stroke-opacity="1" stroke="#03A" fill="transparent" />
<defs id="" >
<linearGradient id="grad200.000000356.500000NRCRedun" x1="0%" y1="0%" x2="100%" y2="0%" >
<stop offset="30%" stop-color="#CC3333" stop-opacity="1" />
<stop offset="100%" stop-color="#ff0000" stop-opacity="1" />
</linearGradient>
</defs>
<path id="170.000000356.500000" d="M 170,356.5
v 121
a 3.5,1 0 0,0 7,0
v -121
a 3.5,1 0 0,1 -7,0
" fill="url(#grad200.000000356.500000NRCRedun)" fill-opacity="1" stroke="#C00" stroke-opacity="1" stroke-linejoin="round" stroke-width="1.4" />
<ellipse cx="173.5" cy="356.5" rx="3.85" ry="1" stroke-width="0.7" fill-opacity="1" stroke-opacity="1" stroke="#C00" fill="url(#grad200.000000356.500000NRCRedun)" />
<ellipse cx="173.5" cy="477.5" rx="3.85" ry="1" stroke-width="0.7" fill-opacity="1" stroke-opacity="1" stroke="#C00" fill="transparent" />
<defs id="" >
<linearGradient id="grad283.000000480.000000" x1="0%" y1="0%" x2="100%" y2="0%" >
<stop offset="30%" stop-color="#2D2C78" stop-opacity="1" />
<stop offset="100%" stop-color="#3C3BA0" stop-opacity="1" />
</linearGradient>
</defs>
<path id="283.000000480.000000" d="M 283,480
v 119.5
a 10.5,2 0 0,0 21,0
v -119.5
a 10.5,2 0 0,1 -21,0
" fill="url(#grad283.000000480.000000)" fill-opacity="1" stroke="#1E1D50" stroke-opacity="1" stroke-linejoin="round" stroke-width="0.75" />
<ellipse cx="293.5" cy="480" rx="10.6875" ry="2" stroke-width="0.375" fill-opacity="1" stroke-opacity="1" stroke="#1E1D50" fill="url(#grad283.000000480.000000)" />
<ellipse cx="293.5" cy="599.5" rx="10.6875" ry="2" stroke-width="0.375" fill-opacity="1" stroke-opacity="1" stroke="#1E1D50" fill="transparent" />
<defs id="" >
<linearGradient id="grad283.000000480.000000NRC" x1="0%" y1="0%" x2="100%" y2="0%" >
<stop offset="30%" stop-color="#3333CC" stop-opacity="1" />
<stop offset="100%" stop-color="#0000ff" stop-opacity="1" />
</linearGradient>
</defs>
<path id="312.000000480.000000" d="M 312,480
v 119.5
a 3.5,1 0 0,0 7,0
v -119.5
a 3.5,1 0 0,1 -7,0
" fill="url(#grad283.000000480.000000NRC)" fill-opacity="1" stroke="#00A" stroke-opacity="1" stroke-linejoin="round" stroke-width="1.4" />
<ellipse cx="315.5" cy="480" rx="3.85" ry="1" stroke-width="0.7" fill-opacity="1" stroke-opacity="1" stroke="#00A" fill="url(#grad283.000000480.000000NRC)" />
<ellipse cx="315.5" cy="599.5" rx="3.85" ry="1" stroke-width="0.7" fill-opacity="1" stroke-opacity="1" stroke="#00A" fill="transparent" />
<defs id="" >
<linearGradient id="grad283.000000480.000000NRCRedun" x1="0%" y1="0%" x2="100%" y2="0%" >
<stop offset="30%" stop-color="#CC3333" stop-opacity="1" />
<stop offset="100%" stop-color="#ff0000" stop-opacity="1" />
</linearGradient>
</defs>
<path id="327.000000480.000000" d="M 327,480
v 119.5
a 3.5,1 0 0,0 7,0
v -119.5
a 3.5,1 0 0,1 -7,0
" fill="url(#grad283.000000480.000000NRCRedun)" fill-opacity="1" stroke="#C00" stroke-opacity="1" stroke-linejoin="round" stroke-width="1.4" />
<ellipse cx="330.5" cy="480" rx="3.85" ry="1" stroke-width="0.7" fill-opacity="1" stroke-opacity="1" stroke="#C00" fill="url(#grad283.000000480.000000NRCRedun)" />
<ellipse cx="330.5" cy="599.5" rx="3.85" ry="1" stroke-width="0.7" fill-opacity="1" stroke-opacity="1" stroke="#C00" fill="transparent" />
<polygon points="221,356.5 221,477.5 283,599.5 283,480 " fill="#3C3BA0" stroke="#3C3BA0" stroke-width="1" stroke-opacity="0.5" fill-opacity="0.5" />
<defs id="" >
<linearGradient id="grad200.000000232.000000" x1="0%" y1="0%" x2="100%" y2="0%" >
<stop offset="30%" stop-color="#2C7778" stop-opacity="1" />
<stop offset="100%" stop-color="#3B9FA0" stop-opacity="1" />
</linearGradient>
</defs>
<path id="200.000000232.000000" d="M 200,232
v 120
a 10.5,2 0 0,0 21,0
v -120
a 10.5,2 0 0,1 -21,0
" fill="url(#grad200.000000232.000000)" fill-opacity="1" stroke="#1D4F50" stroke-opacity="1" stroke-linejoin="round" stroke-width="0.75" />
<ellipse cx="210.5" cy="232" rx="10.6875" ry="2" stroke-width="0.375" fill-opacity="1" stroke-opacity="1" stroke="#1D4F50" fill="url(#grad200.000000232.000000)" />
<ellipse cx="210.5" cy="352" rx="10.6875" ry="2" stroke-width="0.375" fill-opacity="1" stroke-opacity="1" stroke="#1D4F50" fill="transparent" />
<defs id="" >
<linearGradient id="grad200.000000232.000000NRC" x1="0%" y1="0%" x2="100%" y2="0%" >
<stop offset="30%" stop-color="#3366CC" stop-opacity="1" />
<stop offset="100%" stop-color="#0055ff" stop-opacity="1" />
</linearGradient>
</defs>
<path id="185.000000232.000000" d="M 185,232
v 120
a 3.5,1 0 0,0 7,0
v -120
a 3.5,1 0 0,1 -7,0
" fill="url(#grad200.000000232.000000NRC)" fill-opacity="1" stroke="#03A" stroke-opacity="1" stroke-linejoin="round" stroke-width="1.4" />
<ellipse cx="188.5" cy="232" rx="3.85" ry="1" stroke-width="0.7" fill-opacity="1" stroke-opacity="1" stroke="#03A" fill="url(#grad200.000000232.000000NRC)" />
<ellipse cx="188.5" cy="352" rx="3.85" ry="1" stroke-width="0.7" fill-opacity="1" stroke-opacity="1" stroke="#03A" fill="transparent" />
<defs id="" >
<linearGradient id="grad200.000000232.000000NRCRedun" x1="0%" y1="0%" x2="100%" y2="0%" >
<stop offset="30%" stop-color="#CC3333" stop-opacity="1" />
<stop offset="100%" stop-color="#ff0000" stop-opacity="1" />
</linearGradient>
</defs>
<path id="170.000000232.000000" d="M 170,232
v 120
a 3.5,1 0 0,0 7,0
v -120
a 3.5,1 0 0,1 -7,0
" fill="url(#grad200.000000232.000000NRCRedun)" fill-opacity="1" stroke="#C00" stroke-opacity="1" stroke-linejoin="round" stroke-width="1.4" />
<ellipse cx="173.5" cy="232" rx="3.85" ry="1" stroke-width="0.7" fill-opacity="1" stroke-opacity="1" stroke="#C00" fill="url(#grad200.000000232.000000NRCRedun)" />
<ellipse cx="173.5" cy="352" rx="3.85" ry="1" stroke-width="0.7" fill-opacity="1" stroke-opacity="1" stroke="#C00" fill="transparent" />
<defs id="" >
<linearGradient id="grad283.000000105.000000" x1="0%" y1="0%" x2="100%" y2="0%" >
<stop offset="30%" stop-color="#2C7778" stop-opacity="1" />
<stop offset="100%" stop-color="#3B9FA0" stop-opacity="1" />
</linearGradient>
</defs>
<path id="283.000000105.000000" d="M 283,105
v 118.5
a 10.5,2 0 0,0 21,0
v -118.5
a 10.5,2 0 0,1 -21,0
" fill="url(#grad283.000000105.000000)" fill-opacity="1" stroke="#1D4F50" stroke-opacity="1" stroke-linejoin="round" stroke-width="0.75" />
<ellipse cx="293.5" cy="105" rx="10.6875" ry="2" stroke-width="0.375" fill-opacity="1" stroke-opacity="1" stroke="#1D4F50" fill="url(#grad283.000000105.000000)" />
<ellipse cx="293.5" cy="223.5" rx="10.6875" ry="2" stroke-width="0.375" fill-opacity="1" stroke-opacity="1" stroke="#1D4F50" fill="transparent" />
<defs id="" >
<linearGradient id="grad283.000000105.000000NRC" x1="0%" y1="0%" x2="100%" y2="0%" >
<stop offset="30%" stop-color="#3366CC" stop-opacity="1" />
<stop offset="100%" stop-color="#0055ff" stop-opacity="1" />
</linearGradient>
</defs>
<path id="312.000000105.000000" d="M 312,105
v 118.5
a 3.5,1 0 0,0 7,0
v -118.5
a 3.5,1 0 0,1 -7,0
" fill="url(#grad283.000000105.000000NRC)" fill-opacity="1" stroke="#03A" stroke-opacity="1" stroke-linejoin="round" stroke-width="1.4" />
<ellipse cx="315.5" cy="105" rx="3.85" ry="1" stroke-width="0.7" fill-opacity="1" stroke-opacity="1" stroke="#03A" fill="url(#grad283.000000105.000000NRC)" />
<ellipse cx="315.5" cy="223.5" rx="3.85" ry="1" stroke-width="0.7" fill-opacity="1" stroke-opacity="1" stroke="#03A" fill="transparent" />
<defs id="" >
<linearGradient id="grad283.000000105.000000NRCRedun" x1="0%" y1="0%" x2="100%" y2="0%" >
<stop offset="30%" stop-color="#CC3333" stop-opacity="1" />
<stop offset="100%" stop-color="#ff0000" stop-opacity="1" />
</linearGradient>
</defs>
<path id="327.000000105.000000" d="M 327,105
v 118.5
a 3.5,1 0 0,0 7,0
v -118.5
a 3.5,1 0 0,1 -7,0
" fill="url(#grad283.000000105.000000NRCRedun)" fill-opacity="1" stroke="#C00" stroke-opacity="1" stroke-linejoin="round" stroke-width="1.4" />
<ellipse cx="330.5" cy="105" rx="3.85" ry="1" stroke-width="0.7" fill-opacity="1" stroke-opacity="1" stroke="#C00" fill="url(#grad283.000000105.000000NRCRedun)" />
<ellipse cx="330.5" cy="223.5" rx="3.85" ry="1" stroke-width="0.7" fill-opacity="1" stroke-opacity="1" stroke="#C00" fill="transparent" />
<polygon points="221,232 221,352 283,223.5 283,105 " fill="#3B9FA0" stroke="#3B9FA0" stroke-width="1" stroke-opacity="0.5" fill-opacity="0.5" />
<defs id="" >
<linearGradient id="grad200.000000100.000000" x1="0%" y1="0%" x2="100%" y2="0%" >
<stop offset="30%" stop-color="#782C77" stop-opacity="1" />
<stop offset="100%" stop-color="#A03B9F" stop-opacity="1" />
</linearGradient>
</defs>
<path id="200.000000100.000000" d="M 200,100
v 122
a 10.5,2 0 0,0 21,0
v -122
a 10.5,2 0 0,1 -21,0
" fill="url(#grad200.000000100.000000)" fill-opacity="1" stroke="#501D4F" stroke-opacity="1" stroke-linejoin="round" stroke-width="0.75" />
<ellipse cx="210.5" cy="100" rx="10.6875" ry="2" stroke-width="0.375" fill-opacity="1" stroke-opacity="1" stroke="#501D4F" fill="url(#grad200.000000100.000000)" />
<ellipse cx="210.5" cy="222" rx="10.6875" ry="2" stroke-width="0.375" fill-opacity="1" stroke-opacity="1" stroke="#501D4F" fill="transparent" />
<defs id="" >
<linearGradient id="grad200.000000100.000000NRC" x1="0%" y1="0%" x2="100%" y2="0%" >
<stop offset="30%" stop-color="#3366CC" stop-opacity="1" />
<stop offset="100%" stop-color="#0055ff" stop-opacity="1" />
</linearGradient>
</defs>
<path id="185.000000100.000000" d="M 185,100
v 122
a 3.5,1 0 0,0 7,0
v -122
a 3.5,1 0 0,1 -7,0
" fill="url(#grad200.000000100.000000NRC)" fill-opacity="1" stroke="#03A" stroke-opacity="1" stroke-linejoin="round" stroke-width="1.4" />
<ellipse cx="188.5" cy="100" rx="3.85" ry="1" stroke-width="0.7" fill-opacity="1" stroke-opacity="1" stroke="#03A" fill="url(#grad200.000000100.000000NRC)" />
<ellipse cx="188.5" cy="222" rx="3.85" ry="1" stroke-width="0.7" fill-opacity="1" stroke-opacity="1" stroke="#03A" fill="transparent" />
<defs id="" >
<linearGradient id="grad200.000000100.000000NRCRedun" x1="0%" y1="0%" x2="100%" y2="0%" >
<stop offset="30%" stop-color="#CC3333" stop-opacity="1" />
<stop offset="100%" stop-color="#ff0000" stop-opacity="1" />
</linearGradient>
</defs>
<path id="170.000000100.000000" d="M 170,100
v 122
a 3.5,1 0 0,0 7,0
v -122
a 3.5,1 0 0,1 -7,0
" fill="url(#grad200.000000100.000000NRCRedun)" fill-opacity="1" stroke="#C00" stroke-opacity="1" stroke-linejoin="round" stroke-width="1.4" />
<ellipse cx="173.5" cy="100" rx="3.85" ry="1" stroke-width="0.7" fill-opacity="1" stroke-opacity="1" stroke="#C00" fill="url(#grad200.000000100.000000NRCRedun)" />
<ellipse cx="173.5" cy="222" rx="3.85" ry="1" stroke-width="0.7" fill-opacity="1" stroke-opacity="1" stroke="#C00" fill="transparent" />
<defs id="" >
<linearGradient id="grad283.000000230.000000" x1="0%" y1="0%" x2="100%" y2="0%" >
<stop offset="30%" stop-color="#782C77" stop-opacity="1" />
<stop offset="100%" stop-color="#A03B9F" stop-opacity="1" />
</linearGradient>
</defs>
<path id="283.000000230.000000" d="M 283,230
v 120
a 10.5,2 0 0,0 21,0
v -120
a 10.5,2 0 0,1 -21,0
" fill="url(#grad283.000000230.000000)" fill-opacity="1" stroke="#501D4F" stroke-opacity="1" stroke-linejoin="round" stroke-width="0.75" />
<ellipse cx="293.5" cy="230" rx="10.6875" ry="2" stroke-width="0.375" fill-opacity="1" stroke-opacity="1" stroke="#501D4F" fill="url(#grad283.000000230.000000)" />
<ellipse cx="293.5" cy="350" rx="10.6875" ry="2" stroke-width="0.375" fill-opacity="1" stroke-opacity="1" stroke="#501D4F" fill="transparent" />
<path id="283.000000230.000000" d="M 283,230
v 120
a 10.5,2 0 0,0 21,0
v -120
a 10.5,2 0 0,1 -21,0
" fill="url(#Wavy)" fill-opacity="1" stroke="#501D4F" stroke-opacity="1" stroke-linejoin="round" stroke-width="0.75" />
<ellipse cx="293.5" cy="230" rx="10.6875" ry="2" stroke-width="0.375" fill-opacity="1" stroke-opacity="1" stroke="#501D4F" fill="url(#Wavy)" />
<ellipse cx="293.5" cy="350" rx="10.6875" ry="2" stroke-width="0.375" fill-opacity="1" stroke-opacity="1" stroke="#501D4F" fill="transparent" />
<defs id="" >
<linearGradient id="grad283.000000230.000000NRC" x1="0%" y1="0%" x2="100%" y2="0%" >
<stop offset="30%" stop-color="#3333CC" stop-opacity="1" />
<stop offset="100%" stop-color="#0000ff" stop-opacity="1" />
</linearGradient>
</defs>
<path id="312.000000230.000000" d="M 312,230
v 120
a 3.5,1 0 0,0 7,0
v -120
a 3.5,1 0 0,1 -7,0
" fill="url(#grad283.000000230.000000NRC)" fill-opacity="1" stroke="#00A" stroke-opacity="1" stroke-linejoin="round" stroke-width="1.4" />
<ellipse cx="315.5" cy="230" rx="3.85" ry="1" stroke-width="0.7" fill-opacity="1" stroke-opacity="1" stroke="#00A" fill="url(#grad283.000000230.000000NRC)" />
<ellipse cx="315.5" cy="350" rx="3.85" ry="1" stroke-width="0.7" fill-opacity="1" stroke-opacity="1" stroke="#00A" fill="transparent" />
<defs id="" >
<linearGradient id="grad283.000000230.000000NRCRedun" x1="0%" y1="0%" x2="100%" y2="0%" >
<stop offset="30%" stop-color="#CC6633" stop-opacity="1" />
<stop offset="100%" stop-color="#ff5500" stop-opacity="1" />
</linearGradient>
</defs>
<path id="327.000000230.000000" d="M 327,230
v 120
a 3.5,1 0 0,0 7,0
v -120
a 3.5,1 0 0,1 -7,0
" fill="url(#grad283.000000230.000000NRCRedun)" fill-opacity="1" stroke="#C40" stroke-opacity="1" stroke-linejoin="round" stroke-width="1.4" />
<ellipse cx="330.5" cy="230" rx="3.85" ry="1" stroke-width="0.7" fill-opacity="1" stroke-opacity="1" stroke="#C40" fill="url(#grad283.000000230.000000NRCRedun)" />
<ellipse cx="330.5" cy="350" rx="3.85" ry="1" stroke-width="0.7" fill-opacity="1" stroke-opacity="1" stroke="#C40" fill="transparent" />
<polygon points="221,100 221,222 283,230 283,350 " fill="#A03B9F" stroke="#A03B9F" stroke-width="1" stroke-opacity="0.5" fill-opacity="0.5" />
<path id="200.000000100.000000" d="M 200,100
v 500
a 10.5,2 0 0,0 21,0
v -500
a 10.5,2 0 0,1 -21,0
" fill="transparent" fill-opacity="0.9" stroke="black" stroke-opacity="1" stroke-linejoin="round" stroke-width="2" />
<ellipse cx="210.5" cy="100" rx="11" ry="2" stroke-width="1" fill-opacity="0.9" stroke-opacity="1" stroke="black" fill="transparent" />
<ellipse cx="210.5" cy="600" rx="11" ry="2" stroke-width="1" fill-opacity="0.9" stroke-opacity="1" stroke="black" fill="transparent" />
<path id="283.000000100.000000" d="M 283,100
v 500
a 10.5,2 0 0,0 21,0
v -500
a 10.5,2 0 0,1 -21,0
" fill="transparent" fill-opacity="0.9" stroke="black" stroke-opacity="1" stroke-linejoin="round" stroke-width="2" />
<ellipse cx="293.5" cy="100" rx="11" ry="2" stroke-width="1" fill-opacity="0.9" stroke-opacity="1" stroke="black" fill="transparent" />
<ellipse cx="293.5" cy="600" rx="11" ry="2" stroke-width="1" fill-opacity="0.9" stroke-opacity="1" stroke="black" fill="transparent" />
<path id="" d="M 210.5,100
v -20
h -10
" fill="transparent" fill-opacity="0.9" stroke="black" stroke-opacity="1" stroke-linejoin="round" stroke-width="0.5" />
<path id="" d="M 293.5,100
v -20
h 10
" fill="transparent" fill-opacity="0.9" stroke="black" stroke-opacity="1" stroke-linejoin="round" stroke-width="0.5" />
<text id="195.50000080.000000" x="195.5" y="80" dominant-baseline="middle" font-size="10px" font-weight="bold" font-family="Arial" text-anchor="end" text-align="start" line-height="125%%" >
RefS</text>
<text id="308.50000080.000000" x="308.5" y="80" dominant-baseline="middle" font-size="10px" font-weight="bold" font-family="Arial" text-anchor="start" text-align="start" line-height="125%%" >
TarS</text>
<text id="252.00000024.000000" x="252" y="24" dy="-3" dominant-baseline="text-after-edge" font-size="9px" font-family="Arial" text-anchor="middle" text-align="start" line-height="125%%" >
Relative Redundancy</text>
<text id="252.00000036.000000" x="252" y="36" dy="3" dominant-baseline="text-before-edge" font-size="9px" font-family="Arial" text-anchor="middle" text-align="start" line-height="125%%" >
Redundancy</text>
<defs id="" >
<linearGradient id="grad170.00000024.000000" x1="0%" y1="0%" x2="100%" y2="0%" >
<stop offset="0%" stop-color="#0000ff" stop-opacity="1" />
<stop offset="8%" stop-color="#0055ff" stop-opacity="1" />
<stop offset="16%" stop-color="#00aaff" stop-opacity="1" />
<stop offset="25%" stop-color="#00ffff" stop-opacity="1" />
<stop offset="33%" stop-color="#00ffaa" stop-opacity="1" />
<stop offset="41%" stop-color="#00ff55" stop-opacity="1" />
<stop offset="50%" stop-color="#00ff00" stop-opacity="1" />
<stop offset="58%" stop-color="#55ff00" stop-opacity="1" />
<stop offset="66%" stop-color="#aaff00" stop-opacity="1" />
<stop offset="75%" stop-color="#ffff00" stop-opacity="1" />
<stop offset="83%" stop-color="#ffaa00" stop-opacity="1" />
<stop offset="91%" stop-color="#ff5500" stop-opacity="1" />
<stop offset="100%" stop-color="#ff0000" stop-opacity="1" />
</linearGradient>
</defs>
<rect x="170" y="24" width="164" height="12" ry="1" fill="url(#grad170.00000024.000000)" fill-opacity="0.9" stroke="black" stroke-width="0.4" />
<text id="168.00000030.000000" x="168" y="30" dx="-2.5" dominant-baseline="middle" font-size="9px" font-weight="normal" font-family="Arial" text-anchor="end" text-align="start" line-height="125%%" >
0.0</text>
<text id="211.00000030.000000" x="211" y="30" dominant-baseline="middle" font-size="9px" font-weight="normal" font-family="Arial" text-anchor="middle" text-align="start" line-height="125%%" >
0.5</text>
<text id="252.00000030.000000" x="252" y="30" dominant-baseline="middle" font-size="9px" font-weight="normal" font-family="Arial" text-anchor="middle" text-align="start" line-height="125%%" >
1.0</text>
<text id="293.00000030.000000" x="293" y="30" dominant-baseline="middle" font-size="9px" font-weight="normal" font-family="Arial" text-anchor="middle" text-align="start" line-height="125%%" >
1.5</text>
<text id="336.00000030.000000" x="336" y="30" dx="2.5" dominant-baseline="middle" font-size="9px" font-weight="normal" font-family="Arial" text-anchor="start" text-align="start" line-height="125%%" >
2.0</text>
<path id="" d="M 188.5,598.5
v 20
H 202
" fill="transparent" fill-opacity="0.9" stroke="black" stroke-opacity="1" stroke-linejoin="round" stroke-width="0.5" />
<path id="" d="M 315.5,598.5
v 20
H 302
" fill="transparent" fill-opacity="0.9" stroke="black" stroke-opacity="1" stroke-linejoin="round" stroke-width="0.5" />
<text id="252.000000618.500000" x="252" y="618.5" dominant-baseline="middle" font-size="9px" font-family="Arial" text-anchor="middle" text-align="start" line-height="125%%" >
Relative Redundancy</text>
<path id="" d="M 173.5,599.5
v 35
H 220
" fill="transparent" fill-opacity="0.9" stroke="black" stroke-opacity="1" stroke-linejoin="round" stroke-width="0.5" />
<path id="" d="M 330.5,599.5
v 35
H 284
" fill="transparent" fill-opacity="0.9" stroke="black" stroke-opacity="1" stroke-linejoin="round" stroke-width="0.5" />
<text id="252.000000634.500000" x="252" y="634.5" dominant-baseline="middle" font-size="9px" font-family="Arial" text-anchor="middle" text-align="start" line-height="125%%" >
Redundancy</text>
</svg>