<?xml version="1.0" encoding="UTF-8" standalone="no"?>
<!-- Morteza Hosseini, IEETA 2018-2019 -->
<svg xmlns="http://www.w3.org/2000/svg" xmlns:xlink="http://www.w3.org/1999/xlink" width="504" height="650" >
<defs id="" >
<pattern id="Wavy" x="283" y="0" width="21" height="7" patternUnits="userSpaceOnUse" >
<path id="" d="m 0,0
a 10.5,2 0 0,0 21,0
" fill="transparent" fill-opacity="0.9" stroke="black" stroke-opacity="1" stroke-linejoin="round" stroke-width="1" />
</pattern>
</defs>
<defs id="" >
<pattern id="WavyWhite" x="283" y="0" width="21" height="7" patternUnits="userSpaceOnUse" >
<path id="" d="m 0,0
a 10.5,2 0 0,0 21,0
" fill="transparent" fill-opacity="0.9" stroke="white" stroke-opacity="1" stroke-linejoin="round" stroke-width="1" />
</pattern>
</defs>
<rect x="0" y="0" width="504" height="650" ry="1" fill="white" fill-opacity="1" stroke="white" stroke-width="0" />
<text id="161.000000100.000000" x="161" y="100" dominant-baseline="text-before-edge" font-size="9px" font-family="Arial" text-anchor="end" text-align="start" line-height="125%%" >
<tspan id="0" style="fill:#A03C3B">0</tspan>
</text>
<text id="161.000000225.000031" x="161" y="225" dominant-baseline="middle" font-size="9px" font-family="Arial" text-anchor="end" text-align="start" line-height="125%%" >
<tspan id="0" style="fill:#A03C3B">25000025, </tspan>
<tspan id="3" style="fill:#3B9FA0">24999987</tspan>
</text>
<text id="161.000000349.999939" x="161" y="350" dominant-baseline="text-after-edge" font-size="9px" font-family="Arial" text-anchor="end" text-align="start" line-height="125%%" >
<tspan id="3" style="fill:#3B9FA0">49999989</tspan>
</text>
<text id="161.000000350.000000" x="161" y="350" dominant-baseline="text-before-edge" font-size="9px" font-family="Arial" text-anchor="end" text-align="start" line-height="125%%" >
<tspan id="2" style="fill:#3BA03C">49999998</tspan>
</text>
<text id="161.000000474.999939" x="161" y="475" dominant-baseline="text-after-edge" font-size="9px" font-family="Arial" text-anchor="end" text-align="start" line-height="125%%" >
<tspan id="2" style="fill:#3BA03C">74999986</tspan>
</text>
<text id="161.000000475.000000" x="161" y="475" dominant-baseline="text-before-edge" font-size="9px" font-family="Arial" text-anchor="end" text-align="start" line-height="125%%" >
<tspan id="1" style="fill:#9FA03B">74999999</tspan>
</text>
<text id="161.000000600.000000" x="161" y="600" dominant-baseline="text-after-edge" font-size="9px" font-family="Arial" text-anchor="end" text-align="start" line-height="125%%" >
<tspan id="1" style="fill:#9FA03B">99999999</tspan>
</text>
<text id="343.000000100.000000" x="343" y="100" dominant-baseline="text-before-edge" font-size="9px" font-family="Arial" text-anchor="start" text-align="start" line-height="125%%" >
<tspan id="0" style="fill:#A03C3B">0</tspan>
</text>
<text id="343.000000224.999954" x="343" y="225" dominant-baseline="text-after-edge" font-size="9px" font-family="Arial" text-anchor="start" text-align="start" line-height="125%%" >
<tspan id="0" style="fill:#A03C3B">24999990</tspan>
</text>
<text id="343.000000225.000168" x="343" y="225" dominant-baseline="text-before-edge" font-size="9px" font-family="Arial" text-anchor="start" text-align="start" line-height="125%%" >
<tspan id="2" style="fill:#3BA03C">25000035</tspan>
</text>
<text id="343.000000349.999908" x="343" y="350" dominant-baseline="text-after-edge" font-size="9px" font-family="Arial" text-anchor="start" text-align="start" line-height="125%%" >
<tspan id="2" style="fill:#3BA03C">49999983</tspan>
</text>
<text id="343.000000350.000092" x="343" y="350" dominant-baseline="text-before-edge" font-size="9px" font-family="Arial" text-anchor="start" text-align="start" line-height="125%%" >
<tspan id="1" style="fill:#9FA03B">50000017</tspan>
</text>
<text id="343.000000475.000000" x="343" y="475" dominant-baseline="text-after-edge" font-size="9px" font-family="Arial" text-anchor="start" text-align="start" line-height="125%%" >
<tspan id="1" style="fill:#9FA03B">75000001</tspan>
</text>
<text id="343.000000475.000153" x="343" y="475" dominant-baseline="text-before-edge" font-size="9px" font-family="Arial" text-anchor="start" text-align="start" line-height="125%%" >
<tspan id="3" style="fill:#3B9FA0">75000032</tspan>
</text>
<text id="343.000000600.000000" x="343" y="600" dominant-baseline="text-after-edge" font-size="9px" font-family="Arial" text-anchor="start" text-align="start" line-height="125%%" >
<tspan id="3" style="fill:#3B9FA0">99999999</tspan>
</text>
<defs id="" >
<linearGradient id="grad200.000000475.000000" x1="0%" y1="0%" x2="100%" y2="0%" >
<stop offset="30%" stop-color="#77782C" stop-opacity="1" />
<stop offset="100%" stop-color="#9FA03B" stop-opacity="1" />
</linearGradient>
</defs>
<path id="200.000000475.000000" d="M 200,475
v 125
a 10.5,2 0 0,0 21,0
v -125
a 10.5,2 0 0,1 -21,0
" fill="url(#grad200.000000475.000000)" fill-opacity="1" stroke="#4F501D" stroke-opacity="1" stroke-linejoin="round" stroke-width="0.75" />
<ellipse cx="210.5" cy="475" rx="10.6875" ry="2" stroke-width="0.375" fill-opacity="1" stroke-opacity="1" stroke="#4F501D" fill="url(#grad200.000000475.000000)" />
<ellipse cx="210.5" cy="600" rx="10.6875" ry="2" stroke-width="0.375" fill-opacity="1" stroke-opacity="1" stroke="#4F501D" fill="transparent" />
<defs id="" >
<linearGradient id="grad200.000000475.000000NRC" x1="0%" y1="0%" x2="100%" y2="0%" >
<stop offset="30%" stop-color="#3333CC" stop-opacity="1" />
<stop offset="100%" stop-color="#0000ff" stop-opacity="1" />
</linearGradient>
</defs>
<path id="185.000000475.000000" d="M 185,475
v 125
a 3.5,1 0 0,0 7,0
v -125
a 3.5,1 0 0,1 -7,0
" fill="url(#grad200.000000475.000000NRC)" fill-opacity="1" stroke="#00A" stroke-opacity="1" stroke-linejoin="round" stroke-width="1.4" />
<ellipse cx="188.5" cy="475" rx="3.85" ry="1" stroke-width="0.7" fill-opacity="1" stroke-opacity="1" stroke="#00A" fill="url(#grad200.000000475.000000NRC)" />
<ellipse cx="188.5" cy="600" rx="3.85" ry="1" stroke-width="0.7" fill-opacity="1" stroke-opacity="1" stroke="#00A" fill="transparent" />
<defs id="" >
<linearGradient id="grad200.000000475.000000NRCRedun" x1="0%" y1="0%" x2="100%" y2="0%" >
<stop offset="30%" stop-color="#CC3333" stop-opacity="1" />
<stop offset="100%" stop-color="#ff0000" stop-opacity="1" />
</linearGradient>
</defs>
<path id="170.000000475.000000" d="M 170,475
v 125
a 3.5,1 0 0,0 7,0
v -125
a 3.5,1 0 0,1 -7,0
" fill="url(#grad200.000000475.000000NRCRedun)" fill-opacity="1" stroke="#C00" stroke-opacity="1" stroke-linejoin="round" stroke-width="1.4" />
<ellipse cx="173.5" cy="475" rx="3.85" ry="1" stroke-width="0.7" fill-opacity="1" stroke-opacity="1" stroke="#C00" fill="url(#grad200.000000475.000000NRCRedun)" />
<ellipse cx="173.5" cy="600" rx="3.85" ry="1" stroke-width="0.7" fill-opacity="1" stroke-opacity="1" stroke="#C00" fill="transparent" />
<defs id="" >
<linearGradient id="grad283.000000350.000092" x1="0%" y1="0%" x2="100%" y2="0%" >
<stop offset="30%" stop-color="#77782C" stop-opacity="1" />
<stop offset="100%" stop-color="#9FA03B" stop-opacity="1" />
</linearGradient>
</defs>
<path id="283.000000350.000092" d="M 283,350
v 125
a 10.5,2 0 0,0 21,0
v -125
a 10.5,2 0 0,1 -21,0
" fill="url(#grad283.000000350.000092)" fill-opacity="1" stroke="#4F501D" stroke-opacity="1" stroke-linejoin="round" stroke-width="0.75" />
<ellipse cx="293.5" cy="350" rx="10.6875" ry="2" stroke-width="0.375" fill-opacity="1" stroke-opacity="1" stroke="#4F501D" fill="url(#grad283.000000350.000092)" />
<ellipse cx="293.5" cy="475" rx="10.6875" ry="2" stroke-width="0.375" fill-opacity="1" stroke-opacity="1" stroke="#4F501D" fill="transparent" />
<defs id="" >
<linearGradient id="grad283.000000350.000092NRC" x1="0%" y1="0%" x2="100%" y2="0%" >
<stop offset="30%" stop-color="#3333CC" stop-opacity="1" />
<stop offset="100%" stop-color="#0000ff" stop-opacity="1" />
</linearGradient>
</defs>
<path id="312.000000350.000092" d="M 312,350
v 125
a 3.5,1 0 0,0 7,0
v -125
a 3.5,1 0 0,1 -7,0
" fill="url(#grad283.000000350.000092NRC)" fill-opacity="1" stroke="#00A" stroke-opacity="1" stroke-linejoin="round" stroke-width="1.4" />
<ellipse cx="315.5" cy="350" rx="3.85" ry="1" stroke-width="0.7" fill-opacity="1" stroke-opacity="1" stroke="#00A" fill="url(#grad283.000000350.000092NRC)" />
<ellipse cx="315.5" cy="475" rx="3.85" ry="1" stroke-width="0.7" fill-opacity="1" stroke-opacity="1" stroke="#00A" fill="transparent" />
<defs id="" >
<linearGradient id="grad283.000000350.000092NRCRedun" x1="0%" y1="0%" x2="100%" y2="0%" >
<stop offset="30%" stop-color="#CC3333" stop-opacity="1" />
<stop offset="100%" stop-color="#ff0000" stop-opacity="1" />
</linearGradient>
</defs>
<path id="327.000000350.000092" d="M 327,350
v 125
a 3.5,1 0 0,0 7,0
v -125
a 3.5,1 0 0,1 -7,0
" fill="url(#grad283.000000350.000092NRCRedun)" fill-opacity="1" stroke="#C00" stroke-opacity="1" stroke-linejoin="round" stroke-width="1.4" />
<ellipse cx="330.5" cy="350" rx="3.85" ry="1" stroke-width="0.7" fill-opacity="1" stroke-opacity="1" stroke="#C00" fill="url(#grad283.000000350.000092NRCRedun)" />
<ellipse cx="330.5" cy="475" rx="3.85" ry="1" stroke-width="0.7" fill-opacity="1" stroke-opacity="1" stroke="#C00" fill="transparent" />
<polygon points="221,475 221,600 283,475 283,350 " fill="#9FA03B" stroke="#9FA03B" stroke-width="1" stroke-opacity="0.5" fill-opacity="0.5" />
<defs id="" >
<linearGradient id="grad200.000000350.000000" x1="0%" y1="0%" x2="100%" y2="0%" >
<stop offset="30%" stop-color="#2C782D" stop-opacity="1" />
<stop offset="100%" stop-color="#3BA03C" stop-opacity="1" />
</linearGradient>
</defs>
<path id="200.000000350.000000" d="M 200,350
v 125
a 10.5,2 0 0,0 21,0
v -125
a 10.5,2 0 0,1 -21,0
" fill="url(#grad200.000000350.000000)" fill-opacity="1" stroke="#1D501E" stroke-opacity="1" stroke-linejoin="round" stroke-width="0.75" />
<ellipse cx="210.5" cy="350" rx="10.6875" ry="2" stroke-width="0.375" fill-opacity="1" stroke-opacity="1" stroke="#1D501E" fill="url(#grad200.000000350.000000)" />
<ellipse cx="210.5" cy="475" rx="10.6875" ry="2" stroke-width="0.375" fill-opacity="1" stroke-opacity="1" stroke="#1D501E" fill="transparent" />
<defs id="" >
<linearGradient id="grad200.000000350.000000NRC" x1="0%" y1="0%" x2="100%" y2="0%" >
<stop offset="30%" stop-color="#3366CC" stop-opacity="1" />
<stop offset="100%" stop-color="#0055ff" stop-opacity="1" />
</linearGradient>
</defs>
<path id="185.000000350.000000" d="M 185,350
v 125
a 3.5,1 0 0,0 7,0
v -125
a 3.5,1 0 0,1 -7,0
" fill="url(#grad200.000000350.000000NRC)" fill-opacity="1" stroke="#03A" stroke-opacity="1" stroke-linejoin="round" stroke-width="1.4" />
<ellipse cx="188.5" cy="350" rx="3.85" ry="1" stroke-width="0.7" fill-opacity="1" stroke-opacity="1" stroke="#03A" fill="url(#grad200.000000350.000000NRC)" />
<ellipse cx="188.5" cy="475" rx="3.85" ry="1" stroke-width="0.7" fill-opacity="1" stroke-opacity="1" stroke="#03A" fill="transparent" />
<defs id="" >
<linearGradient id="grad200.000000350.000000NRCRedun" x1="0%" y1="0%" x2="100%" y2="0%" >
<stop offset="30%" stop-color="#CC3333" stop-opacity="1" />
<stop offset="100%" stop-color="#ff0000" stop-opacity="1" />
</linearGradient>
</defs>
<path id="170.000000350.000000" d="M 170,350
v 125
a 3.5,1 0 0,0 7,0
v -125
a 3.5,1 0 0,1 -7,0
" fill="url(#grad200.000000350.000000NRCRedun)" fill-opacity="1" stroke="#C00" stroke-opacity="1" stroke-linejoin="round" stroke-width="1.4" />
<ellipse cx="173.5" cy="350" rx="3.85" ry="1" stroke-width="0.7" fill-opacity="1" stroke-opacity="1" stroke="#C00" fill="url(#grad200.000000350.000000NRCRedun)" />
<ellipse cx="173.5" cy="475" rx="3.85" ry="1" stroke-width="0.7" fill-opacity="1" stroke-opacity="1" stroke="#C00" fill="transparent" />
<defs id="" >
<linearGradient id="grad283.000000225.000168" x1="0%" y1="0%" x2="100%" y2="0%" >
<stop offset="30%" stop-color="#2C782D" stop-opacity="1" />
<stop offset="100%" stop-color="#3BA03C" stop-opacity="1" />
</linearGradient>
</defs>
<path id="283.000000225.000168" d="M 283,225
v 125
a 10.5,2 0 0,0 21,0
v -125
a 10.5,2 0 0,1 -21,0
" fill="url(#grad283.000000225.000168)" fill-opacity="1" stroke="#1D501E" stroke-opacity="1" stroke-linejoin="round" stroke-width="0.75" />
<ellipse cx="293.5" cy="225" rx="10.6875" ry="2" stroke-width="0.375" fill-opacity="1" stroke-opacity="1" stroke="#1D501E" fill="url(#grad283.000000225.000168)" />
<ellipse cx="293.5" cy="350" rx="10.6875" ry="2" stroke-width="0.375" fill-opacity="1" stroke-opacity="1" stroke="#1D501E" fill="transparent" />
<path id="283.000000225.000168" d="M 283,225
v 125
a 10.5,2 0 0,0 21,0
v -125
a 10.5,2 0 0,1 -21,0
" fill="url(#Wavy)" fill-opacity="1" stroke="#1D501E" stroke-opacity="1" stroke-linejoin="round" stroke-width="0.75" />
<ellipse cx="293.5" cy="225" rx="10.6875" ry="2" stroke-width="0.375" fill-opacity="1" stroke-opacity="1" stroke="#1D501E" fill="url(#Wavy)" />
<ellipse cx="293.5" cy="350" rx="10.6875" ry="2" stroke-width="0.375" fill-opacity="1" stroke-opacity="1" stroke="#1D501E" fill="transparent" />
<defs id="" >
<linearGradient id="grad283.000000225.000168NRC" x1="0%" y1="0%" x2="100%" y2="0%" >
<stop offset="30%" stop-color="#33CC99" stop-opacity="1" />
<stop offset="100%" stop-color="#00ffaa" stop-opacity="1" />
</linearGradient>
</defs>
<path id="312.000000225.000168" d="M 312,225
v 125
a 3.5,1 0 0,0 7,0
v -125
a 3.5,1 0 0,1 -7,0
" fill="url(#grad283.000000225.000168NRC)" fill-opacity="1" stroke="#0A6" stroke-opacity="1" stroke-linejoin="round" stroke-width="1.4" />
<ellipse cx="315.5" cy="225" rx="3.85" ry="1" stroke-width="0.7" fill-opacity="1" stroke-opacity="1" stroke="#0A6" fill="url(#grad283.000000225.000168NRC)" />
<ellipse cx="315.5" cy="350" rx="3.85" ry="1" stroke-width="0.7" fill-opacity="1" stroke-opacity="1" stroke="#0A6" fill="transparent" />
<defs id="" >
<linearGradient id="grad283.000000225.000168NRCRedun" x1="0%" y1="0%" x2="100%" y2="0%" >
<stop offset="30%" stop-color="#CC3333" stop-opacity="1" />
<stop offset="100%" stop-color="#ff0000" stop-opacity="1" />
</linearGradient>
</defs>
<path id="327.000000225.000168" d="M 327,225
v 125
a 3.5,1 0 0,0 7,0
v -125
a 3.5,1 0 0,1 -7,0
" fill="url(#grad283.000000225.000168NRCRedun)" fill-opacity="1" stroke="#C00" stroke-opacity="1" stroke-linejoin="round" stroke-width="1.4" />
<ellipse cx="330.5" cy="225" rx="3.85" ry="1" stroke-width="0.7" fill-opacity="1" stroke-opacity="1" stroke="#C00" fill="url(#grad283.000000225.000168NRCRedun)" />
<ellipse cx="330.5" cy="350" rx="3.85" ry="1" stroke-width="0.7" fill-opacity="1" stroke-opacity="1" stroke="#C00" fill="transparent" />
<polygon points="221,350 221,475 283,225 283,350 " fill="#3BA03C" stroke="#3BA03C" stroke-width="1" stroke-opacity="0.5" fill-opacity="0.5" />
<defs id="" >
<linearGradient id="grad200.000000224.999939" x1="0%" y1="0%" x2="100%" y2="0%" >
<stop offset="30%" stop-color="#2C7778" stop-opacity="1" />
<stop offset="100%" stop-color="#3B9FA0" stop-opacity="1" />
</linearGradient>
</defs>
<path id="200.000000224.999939" d="M 200,225
v 125
a 10.5,2 0 0,0 21,0
v -125
a 10.5,2 0 0,1 -21,0
" fill="url(#grad200.000000224.999939)" fill-opacity="1" stroke="#1D4F50" stroke-opacity="1" stroke-linejoin="round" stroke-width="0.75" />
<ellipse cx="210.5" cy="225" rx="10.6875" ry="2" stroke-width="0.375" fill-opacity="1" stroke-opacity="1" stroke="#1D4F50" fill="url(#grad200.000000224.999939)" />
<ellipse cx="210.5" cy="350" rx="10.6875" ry="2" stroke-width="0.375" fill-opacity="1" stroke-opacity="1" stroke="#1D4F50" fill="transparent" />
<defs id="" >
<linearGradient id="grad200.000000224.999939NRC" x1="0%" y1="0%" x2="100%" y2="0%" >
<stop offset="30%" stop-color="#3399CC" stop-opacity="1" />
<stop offset="100%" stop-color="#00aaff" stop-opacity="1" />
</linearGradient>
</defs>
<path id="185.000000224.999939" d="M 185,225
v 125
a 3.5,1 0 0,0 7,0
v -125
a 3.5,1 0 0,1 -7,0
" fill="url(#grad200.000000224.999939NRC)" fill-opacity="1" stroke="#06A" stroke-opacity="1" stroke-linejoin="round" stroke-width="1.4" />
<ellipse cx="188.5" cy="225" rx="3.85" ry="1" stroke-width="0.7" fill-opacity="1" stroke-opacity="1" stroke="#06A" fill="url(#grad200.000000224.999939NRC)" />
<ellipse cx="188.5" cy="350" rx="3.85" ry="1" stroke-width="0.7" fill-opacity="1" stroke-opacity="1" stroke="#06A" fill="transparent" />
<defs id="" >
<linearGradient id="grad200.000000224.999939NRCRedun" x1="0%" y1="0%" x2="100%" y2="0%" >
<stop offset="30%" stop-color="#CC6633" stop-opacity="1" />
<stop offset="100%" stop-color="#ff5500" stop-opacity="1" />
</linearGradient>
</defs>
<path id="170.000000224.999939" d="M 170,225
v 125
a 3.5,1 0 0,0 7,0
v -125
a 3.5,1 0 0,1 -7,0
" fill="url(#grad200.000000224.999939NRCRedun)" fill-opacity="1" stroke="#C40" stroke-opacity="1" stroke-linejoin="round" stroke-width="1.4" />
<ellipse cx="173.5" cy="225" rx="3.85" ry="1" stroke-width="0.7" fill-opacity="1" stroke-opacity="1" stroke="#C40" fill="url(#grad200.000000224.999939NRCRedun)" />
<ellipse cx="173.5" cy="350" rx="3.85" ry="1" stroke-width="0.7" fill-opacity="1" stroke-opacity="1" stroke="#C40" fill="transparent" />
<defs id="" >
<linearGradient id="grad283.000000475.000153" x1="0%" y1="0%" x2="100%" y2="0%" >
<stop offset="30%" stop-color="#2C7778" stop-opacity="1" />
<stop offset="100%" stop-color="#3B9FA0" stop-opacity="1" />
</linearGradient>
</defs>
<path id="283.000000475.000153" d="M 283,475
v 125
a 10.5,2 0 0,0 21,0
v -125
a 10.5,2 0 0,1 -21,0
" fill="url(#grad283.000000475.000153)" fill-opacity="1" stroke="#1D4F50" stroke-opacity="1" stroke-linejoin="round" stroke-width="0.75" />
<ellipse cx="293.5" cy="475" rx="10.6875" ry="2" stroke-width="0.375" fill-opacity="1" stroke-opacity="1" stroke="#1D4F50" fill="url(#grad283.000000475.000153)" />
<ellipse cx="293.5" cy="600" rx="10.6875" ry="2" stroke-width="0.375" fill-opacity="1" stroke-opacity="1" stroke="#1D4F50" fill="transparent" />
<path id="283.000000475.000153" d="M 283,475
v 125
a 10.5,2 0 0,0 21,0
v -125
a 10.5,2 0 0,1 -21,0
" fill="url(#Wavy)" fill-opacity="1" stroke="#1D4F50" stroke-opacity="1" stroke-linejoin="round" stroke-width="0.75" />
<ellipse cx="293.5" cy="475" rx="10.6875" ry="2" stroke-width="0.375" fill-opacity="1" stroke-opacity="1" stroke="#1D4F50" fill="url(#Wavy)" />
<ellipse cx="293.5" cy="600" rx="10.6875" ry="2" stroke-width="0.375" fill-opacity="1" stroke-opacity="1" stroke="#1D4F50" fill="transparent" />
<defs id="" >
<linearGradient id="grad283.000000475.000153NRC" x1="0%" y1="0%" x2="100%" y2="0%" >
<stop offset="30%" stop-color="#33CC66" stop-opacity="1" />
<stop offset="100%" stop-color="#00ff55" stop-opacity="1" />
</linearGradient>
</defs>
<path id="312.000000475.000153" d="M 312,475
v 125
a 3.5,1 0 0,0 7,0
v -125
a 3.5,1 0 0,1 -7,0
" fill="url(#grad283.000000475.000153NRC)" fill-opacity="1" stroke="#0A3" stroke-opacity="1" stroke-linejoin="round" stroke-width="1.4" />
<ellipse cx="315.5" cy="475" rx="3.85" ry="1" stroke-width="0.7" fill-opacity="1" stroke-opacity="1" stroke="#0A3" fill="url(#grad283.000000475.000153NRC)" />
<ellipse cx="315.5" cy="600" rx="3.85" ry="1" stroke-width="0.7" fill-opacity="1" stroke-opacity="1" stroke="#0A3" fill="transparent" />
<defs id="" >
<linearGradient id="grad283.000000475.000153NRCRedun" x1="0%" y1="0%" x2="100%" y2="0%" >
<stop offset="30%" stop-color="#CC6633" stop-opacity="1" />
<stop offset="100%" stop-color="#ff5500" stop-opacity="1" />
</linearGradient>
</defs>
<path id="327.000000475.000153" d="M 327,475
v 125
a 3.5,1 0 0,0 7,0
v -125
a 3.5,1 0 0,1 -7,0
" fill="url(#grad283.000000475.000153NRCRedun)" fill-opacity="1" stroke="#C40" stroke-opacity="1" stroke-linejoin="round" stroke-width="1.4" />
<ellipse cx="330.5" cy="475" rx="3.85" ry="1" stroke-width="0.7" fill-opacity="1" stroke-opacity="1" stroke="#C40" fill="url(#grad283.000000475.000153NRCRedun)" />
<ellipse cx="330.5" cy="600" rx="3.85" ry="1" stroke-width="0.7" fill-opacity="1" stroke-opacity="1" stroke="#C40" fill="transparent" />
<polygon points="221,225 221,350 283,475 283,600 " fill="#3B9FA0" stroke="#3B9FA0" stroke-width="1" stroke-opacity="0.5" fill-opacity="0.5" />
<defs id="" >
<linearGradient id="grad200.000000100.000000" x1="0%" y1="0%" x2="100%" y2="0%" >
<stop offset="30%" stop-color="#782D2C" stop-opacity="1" />
<stop offset="100%" stop-color="#A03C3B" stop-opacity="1" />
</linearGradient>
</defs>
<path id="200.000000100.000000" d="M 200,100
v 125
a 10.5,2 0 0,0 21,0
v -125
a 10.5,2 0 0,1 -21,0
" fill="url(#grad200.000000100.000000)" fill-opacity="1" stroke="#501E1D" stroke-opacity="1" stroke-linejoin="round" stroke-width="0.75" />
<ellipse cx="210.5" cy="100" rx="10.6875" ry="2" stroke-width="0.375" fill-opacity="1" stroke-opacity="1" stroke="#501E1D" fill="url(#grad200.000000100.000000)" />
<ellipse cx="210.5" cy="225" rx="10.6875" ry="2" stroke-width="0.375" fill-opacity="1" stroke-opacity="1" stroke="#501E1D" fill="transparent" />
<defs id="" >
<linearGradient id="grad200.000000100.000000NRC" x1="0%" y1="0%" x2="100%" y2="0%" >
<stop offset="30%" stop-color="#3333CC" stop-opacity="1" />
<stop offset="100%" stop-color="#0000ff" stop-opacity="1" />
</linearGradient>
</defs>
<path id="185.000000100.000000" d="M 185,100
v 125
a 3.5,1 0 0,0 7,0
v -125
a 3.5,1 0 0,1 -7,0
" fill="url(#grad200.000000100.000000NRC)" fill-opacity="1" stroke="#00A" stroke-opacity="1" stroke-linejoin="round" stroke-width="1.4" />
<ellipse cx="188.5" cy="100" rx="3.85" ry="1" stroke-width="0.7" fill-opacity="1" stroke-opacity="1" stroke="#00A" fill="url(#grad200.000000100.000000NRC)" />
<ellipse cx="188.5" cy="225" rx="3.85" ry="1" stroke-width="0.7" fill-opacity="1" stroke-opacity="1" stroke="#00A" fill="transparent" />
<defs id="" >
<linearGradient id="grad200.000000100.000000NRCRedun" x1="0%" y1="0%" x2="100%" y2="0%" >
<stop offset="30%" stop-color="#CC6633" stop-opacity="1" />
<stop offset="100%" stop-color="#ff5500" stop-opacity="1" />
</linearGradient>
</defs>
<path id="170.000000100.000000" d="M 170,100
v 125
a 3.5,1 0 0,0 7,0
v -125
a 3.5,1 0 0,1 -7,0
" fill="url(#grad200.000000100.000000NRCRedun)" fill-opacity="1" stroke="#C40" stroke-opacity="1" stroke-linejoin="round" stroke-width="1.4" />
<ellipse cx="173.5" cy="100" rx="3.85" ry="1" stroke-width="0.7" fill-opacity="1" stroke-opacity="1" stroke="#C40" fill="url(#grad200.000000100.000000NRCRedun)" />
<ellipse cx="173.5" cy="225" rx="3.85" ry="1" stroke-width="0.7" fill-opacity="1" stroke-opacity="1" stroke="#C40" fill="transparent" />
<defs id="" >
<linearGradient id="grad283.000000100.000000" x1="0%" y1="0%" x2="100%" y2="0%" >
<stop offset="30%" stop-color="#782D2C" stop-opacity="1" />
<stop offset="100%" stop-color="#A03C3B" stop-opacity="1" />
</linearGradient>
</defs>
<path id="283.000000100.000000" d="M 283,100
v 125
a 10.5,2 0 0,0 21,0
v -125
a 10.5,2 0 0,1 -21,0
" fill="url(#grad283.000000100.000000)" fill-opacity="1" stroke="#501E1D" stroke-opacity="1" stroke-linejoin="round" stroke-width="0.75" />
<ellipse cx="293.5" cy="100" rx="10.6875" ry="2" stroke-width="0.375" fill-opacity="1" stroke-opacity="1" stroke="#501E1D" fill="url(#grad283.000000100.000000)" />
<ellipse cx="293.5" cy="225" rx="10.6875" ry="2" stroke-width="0.375" fill-opacity="1" stroke-opacity="1" stroke="#501E1D" fill="transparent" />
<defs id="" >
<linearGradient id="grad283.000000100.000000NRC" x1="0%" y1="0%" x2="100%" y2="0%" >
<stop offset="30%" stop-color="#3333CC" stop-opacity="1" />
<stop offset="100%" stop-color="#0000ff" stop-opacity="1" />
</linearGradient>
</defs>
<path id="312.000000100.000000" d="M 312,100
v 125
a 3.5,1 0 0,0 7,0
v -125
a 3.5,1 0 0,1 -7,0
" fill="url(#grad283.000000100.000000NRC)" fill-opacity="1" stroke="#00A" stroke-opacity="1" stroke-linejoin="round" stroke-width="1.4" />
<ellipse cx="315.5" cy="100" rx="3.85" ry="1" stroke-width="0.7" fill-opacity="1" stroke-opacity="1" stroke="#00A" fill="url(#grad283.000000100.000000NRC)" />
<ellipse cx="315.5" cy="225" rx="3.85" ry="1" stroke-width="0.7" fill-opacity="1" stroke-opacity="1" stroke="#00A" fill="transparent" />
<defs id="" >
<linearGradient id="grad283.000000100.000000NRCRedun" x1="0%" y1="0%" x2="100%" y2="0%" >
<stop offset="30%" stop-color="#CC6633" stop-opacity="1" />
<stop offset="100%" stop-color="#ff5500" stop-opacity="1" />
</linearGradient>
</defs>
<path id="327.000000100.000000" d="M 327,100
v 125
a 3.5,1 0 0,0 7,0
v -125
a 3.5,1 0 0,1 -7,0
" fill="url(#grad283.000000100.000000NRCRedun)" fill-opacity="1" stroke="#C40" stroke-opacity="1" stroke-linejoin="round" stroke-width="1.4" />
<ellipse cx="330.5" cy="100" rx="3.85" ry="1" stroke-width="0.7" fill-opacity="1" stroke-opacity="1" stroke="#C40" fill="url(#grad283.000000100.000000NRCRedun)" />
<ellipse cx="330.5" cy="225" rx="3.85" ry="1" stroke-width="0.7" fill-opacity="1" stroke-opacity="1" stroke="#C40" fill="transparent" />
<polygon points="221,100 221,225 283,225 283,100 " fill="#A03C3B" stroke="#A03C3B" stroke-width="1" stroke-opacity="0.5" fill-opacity="0.5" />
<path id="200.000000100.000000" d="M 200,100
v 500
a 10.5,2 0 0,0 21,0
v -500
a 10.5,2 0 0,1 -21,0
" fill="transparent" fill-opacity="0.9" stroke="black" stroke-opacity="1" stroke-linejoin="round" stroke-width="2" />
<ellipse cx="210.5" cy="100" rx="11" ry="2" stroke-width="1" fill-opacity="0.9" stroke-opacity="1" stroke="black" fill="transparent" />
<ellipse cx="210.5" cy="600" rx="11" ry="2" stroke-width="1" fill-opacity="0.9" stroke-opacity="1" stroke="black" fill="transparent" />
<path id="283.000000100.000000" d="M 283,100
v 500
a 10.5,2 0 0,0 21,0
v -500
a 10.5,2 0 0,1 -21,0
" fill="transparent" fill-opacity="0.9" stroke="black" stroke-opacity="1" stroke-linejoin="round" stroke-width="2" />
<ellipse cx="293.5" cy="100" rx="11" ry="2" stroke-width="1" fill-opacity="0.9" stroke-opacity="1" stroke="black" fill="transparent" />
<ellipse cx="293.5" cy="600" rx="11" ry="2" stroke-width="1" fill-opacity="0.9" stroke-opacity="1" stroke="black" fill="transparent" />
<path id="" d="M 210.5,100
v -20
h -10
" fill="transparent" fill-opacity="0.9" stroke="black" stroke-opacity="1" stroke-linejoin="round" stroke-width="0.5" />
<path id="" d="M 293.5,100
v -20
h 10
" fill="transparent" fill-opacity="0.9" stroke="black" stroke-opacity="1" stroke-linejoin="round" stroke-width="0.5" />
<text id="195.50000080.000000" x="195.5" y="80" dominant-baseline="middle" font-size="10px" font-weight="bold" font-family="Arial" text-anchor="end" text-align="start" line-height="125%%" >
RefXL</text>
<text id="308.50000080.000000" x="308.5" y="80" dominant-baseline="middle" font-size="10px" font-weight="bold" font-family="Arial" text-anchor="start" text-align="start" line-height="125%%" >
TarXL</text>
<text id="252.00000024.000000" x="252" y="24" dy="-3" dominant-baseline="text-after-edge" font-size="9px" font-family="Arial" text-anchor="middle" text-align="start" line-height="125%%" >
Relative Redundancy</text>
<text id="252.00000036.000000" x="252" y="36" dy="3" dominant-baseline="text-before-edge" font-size="9px" font-family="Arial" text-anchor="middle" text-align="start" line-height="125%%" >
Redundancy</text>
<defs id="" >
<linearGradient id="grad170.00000024.000000" x1="0%" y1="0%" x2="100%" y2="0%" >
<stop offset="0%" stop-color="#0000ff" stop-opacity="1" />
<stop offset="8%" stop-color="#0055ff" stop-opacity="1" />
<stop offset="16%" stop-color="#00aaff" stop-opacity="1" />
<stop offset="25%" stop-color="#00ffff" stop-opacity="1" />
<stop offset="33%" stop-color="#00ffaa" stop-opacity="1" />
<stop offset="41%" stop-color="#00ff55" stop-opacity="1" />
<stop offset="50%" stop-color="#00ff00" stop-opacity="1" />
<stop offset="58%" stop-color="#55ff00" stop-opacity="1" />
<stop offset="66%" stop-color="#aaff00" stop-opacity="1" />
<stop offset="75%" stop-color="#ffff00" stop-opacity="1" />
<stop offset="83%" stop-color="#ffaa00" stop-opacity="1" />
<stop offset="91%" stop-color="#ff5500" stop-opacity="1" />
<stop offset="100%" stop-color="#ff0000" stop-opacity="1" />
</linearGradient>
</defs>
<rect x="170" y="24" width="164" height="12" rx="12.2081" ry="1" fill="url(#grad170.00000024.000000)" fill-opacity="0.9" stroke="black" stroke-width="0.4" />
<text id="168.00000030.000000" x="168" y="30" dx="-2.5" dominant-baseline="middle" font-size="9px" font-weight="normal" font-family="Arial" text-anchor="end" text-align="start" line-height="125%%" >
0.0</text>
<text id="211.00000030.000000" x="211" y="30" dominant-baseline="middle" font-size="9px" font-weight="normal" font-family="Arial" text-anchor="middle" text-align="start" line-height="125%%" >
0.5</text>
<text id="252.00000030.000000" x="252" y="30" dominant-baseline="middle" font-size="9px" font-weight="normal" font-family="Arial" text-anchor="middle" text-align="start" line-height="125%%" >
1.0</text>
<text id="293.00000030.000000" x="293" y="30" dominant-baseline="middle" font-size="9px" font-weight="normal" font-family="Arial" text-anchor="middle" text-align="start" line-height="125%%" >
1.5</text>
<text id="336.00000030.000000" x="336" y="30" dx="2.5" dominant-baseline="middle" font-size="9px" font-weight="normal" font-family="Arial" text-anchor="start" text-align="start" line-height="125%%" >
2.0</text>
<path id="" d="M 188.5,600
v 20
H 202
" fill="transparent" fill-opacity="0.9" stroke="black" stroke-opacity="1" stroke-linejoin="round" stroke-width="0.5" />
<path id="" d="M 315.5,600
v 20
H 302
" fill="transparent" fill-opacity="0.9" stroke="black" stroke-opacity="1" stroke-linejoin="round" stroke-width="0.5" />
<text id="252.000000620.000000" x="252" y="620" dominant-baseline="middle" font-size="9px" font-family="Arial" text-anchor="middle" text-align="start" line-height="125%%" >
Relative Redundancy</text>
<path id="" d="M 173.5,600
v 35
H 220
" fill="transparent" fill-opacity="0.9" stroke="black" stroke-opacity="1" stroke-linejoin="round" stroke-width="0.5" />
<path id="" d="M 330.5,600
v 35
H 284
" fill="transparent" fill-opacity="0.9" stroke="black" stroke-opacity="1" stroke-linejoin="round" stroke-width="0.5" />
<text id="252.000000635.000000" x="252" y="635" dominant-baseline="middle" font-size="9px" font-family="Arial" text-anchor="middle" text-align="start" line-height="125%%" >
Redundancy</text>
</svg>